999
"DXF R12 Output" (www.mydxf.blogspot.com)
 0 
SECTION
 2 
HEADER
 9 
$ACADVER
 1 
AC1009
 9 
$EXTMIN
 10 
 0 
 20 
 0 
 9 
$EXTMAX
 10 
 8.5 
 20 
 11 
 0 
ENDSEC
 0 
SECTION
 2 
ENTITIES
0
POLYLINE
8
Layer 1
62
7
70
0
10
0.000000
20
0.000000
66
1
0
VERTEX
8
Layer 1
10
1040.972709
20
325.406340
70
0
0
VERTEX
8
Layer 1
10
1037.237128
20
327.077182
70
0
0
VERTEX
8
Layer 1
10
1033.598781
20
328.914711
70
0
0
VERTEX
8
Layer 1
10
1028.056429
20
332.078891
70
0
0
VERTEX
8
Layer 1
10
1022.435694
20
335.068043
70
0
0
VERTEX
8
Layer 1
10
1016.741041
20
337.893175
70
0
0
VERTEX
8
Layer 1
10
1010.976935
20
340.565292
70
0
0
VERTEX
8
Layer 1
10
999.258223
20
345.494515
70
0
0
VERTEX
8
Layer 1
10
987.315277
20
349.943767
70
0
0
VERTEX
8
Layer 1
10
980.678858
20
352.135362
70
0
0
VERTEX
8
Layer 1
10
973.990257
20
354.074570
70
0
0
VERTEX
8
Layer 1
10
967.253597
20
355.785078
70
0
0
VERTEX
8
Layer 1
10
960.473001
20
357.290576
70
0
0
VERTEX
8
Layer 1
10
953.652594
20
358.614752
70
0
0
VERTEX
8
Layer 1
10
946.796499
20
359.781294
70
0
0
VERTEX
8
Layer 1
10
932.993741
20
361.736232
70
0
0
VERTEX
8
Layer 1
10
917.547303
20
363.830696
70
0
0
VERTEX
8
Layer 1
10
902.116244
20
366.055880
70
0
0
VERTEX
8
Layer 1
10
886.676255
20
368.188295
70
0
0
VERTEX
8
Layer 1
10
871.203027
20
370.004451
70
0
0
VERTEX
8
Layer 1
10
851.191499
20
371.949714
70
0
0
VERTEX
8
Layer 1
10
831.157398
20
373.686123
70
0
0
VERTEX
8
Layer 1
10
811.105934
20
375.190360
70
0
0
VERTEX
8
Layer 1
10
791.042316
20
376.439109
70
0
0
VERTEX
8
Layer 1
10
778.818013
20
376.965655
70
0
0
VERTEX
8
Layer 1
10
766.594764
20
377.207599
70
0
0
VERTEX
8
Layer 1
10
754.372879
20
377.194364
70
0
0
VERTEX
8
Layer 1
10
742.152669
20
376.955377
70
0
0
VERTEX
8
Layer 1
10
729.934443
20
376.520060
70
0
0
VERTEX
8
Layer 1
10
717.718512
20
375.917839
70
0
0
VERTEX
8
Layer 1
10
693.294772
20
374.330383
70
0
0
VERTEX
8
Layer 1
10
684.738752
20
373.567123
70
0
0
VERTEX
8
Layer 1
10
676.220033
20
372.566606
70
0
0
VERTEX
8
Layer 1
10
667.730272
20
371.381543
70
0
0
VERTEX
8
Layer 1
10
659.261130
20
370.064643
70
0
0
VERTEX
8
Layer 1
10
642.351341
20
367.246173
70
0
0
VERTEX
8
Layer 1
10
625.423941
20
364.532874
70
0
0
VERTEX
8
Layer 1
10
602.520769
20
361.169611
70
0
0
VERTEX
8
Layer 1
10
579.594528
20
357.948726
70
0
0
VERTEX
8
Layer 1
10
556.639017
20
354.975888
70
0
0
VERTEX
8
Layer 1
10
533.648036
20
352.356764
70
0
0
VERTEX
8
Layer 1
10
515.563995
20
350.748803
70
0
0
VERTEX
8
Layer 1
10
497.431584
20
349.591541
70
0
0
VERTEX
8
Layer 1
10
479.274865
20
348.717549
70
0
0
VERTEX
8
Layer 1
10
461.117898
20
347.959395
70
0
0
VERTEX
8
Layer 1
10
455.446396
20
347.993708
70
0
0
VERTEX
8
Layer 1
10
449.752074
20
348.472025
70
0
0
VERTEX
8
Layer 1
10
444.066681
20
349.248989
70
0
0
VERTEX
8
Layer 1
10
438.421968
20
350.179246
70
0
0
VERTEX
8
Layer 1
10
436.042830
20
350.839505
70
0
0
VERTEX
8
Layer 1
10
433.714045
20
351.923179
70
0
0
VERTEX
8
Layer 1
10
431.504818
20
353.305005
70
0
0
VERTEX
8
Layer 1
10
429.484355
20
354.859720
70
0
0
VERTEX
8
Layer 1
10
426.164500
20
357.774473
70
0
0
VERTEX
8
Layer 1
10
422.953785
20
360.822428
70
0
0
VERTEX
8
Layer 1
10
416.800246
20
367.191933
70
0
0
VERTEX
8
Layer 1
10
414.915102
20
369.362567
70
0
0
VERTEX
8
Layer 1
10
413.217911
20
371.588755
70
0
0
VERTEX
8
Layer 1
10
411.701848
20
373.868320
70
0
0
VERTEX
8
Layer 1
10
410.360089
20
376.199083
70
0
0
VERTEX
8
Layer 1
10
409.185807
20
378.578866
70
0
0
VERTEX
8
Layer 1
10
408.172179
20
381.005491
70
0
0
VERTEX
8
Layer 1
10
407.312378
20
383.476780
70
0
0
VERTEX
8
Layer 1
10
406.599579
20
385.990555
70
0
0
VERTEX
8
Layer 1
10
405.587688
20
391.136850
70
0
0
VERTEX
8
Layer 1
10
405.081906
20
396.426949
70
0
0
VERTEX
8
Layer 1
10
405.027630
20
401.843428
70
0
0
VERTEX
8
Layer 1
10
405.370260
20
407.368862
70
0
0
VERTEX
8
Layer 1
10
408.071322
20
434.320940
70
0
0
VERTEX
8
Layer 1
10
409.330199
20
447.802064
70
0
0
VERTEX
8
Layer 1
10
410.333837
20
461.298815
70
0
0
VERTEX
8
Layer 1
10
410.529608
20
465.839793
70
0
0
VERTEX
8
Layer 1
10
410.420654
20
469.107238
70
0
0
VERTEX
8
Layer 1
10
410.225976
20
470.314061
70
0
0
VERTEX
8
Layer 1
10
409.924002
20
471.263310
70
0
0
VERTEX
8
Layer 1
10
409.504362
20
471.975257
70
0
0
VERTEX
8
Layer 1
10
408.956683
20
472.470170
70
0
0
VERTEX
8
Layer 1
10
408.270594
20
472.768321
70
0
0
VERTEX
8
Layer 1
10
407.435723
20
472.889979
70
0
0
VERTEX
8
Layer 1
10
405.278152
20
472.684896
70
0
0
VERTEX
8
Layer 1
10
402.400998
20
472.017082
70
0
0
VERTEX
8
Layer 1
10
398.721289
20
471.048698
70
0
0
VERTEX
8
Layer 1
10
381.218070
20
466.301330
70
0
0
VERTEX
8
Layer 1
10
363.844950
20
461.181365
70
0
0
VERTEX
8
Layer 1
10
346.594862
20
455.706631
70
0
0
VERTEX
8
Layer 1
10
329.460736
20
449.894957
70
0
0
VERTEX
8
Layer 1
10
312.435502
20
443.764171
70
0
0
VERTEX
8
Layer 1
10
295.512091
20
437.332101
70
0
0
VERTEX
8
Layer 1
10
278.683434
20
430.616576
70
0
0
VERTEX
8
Layer 1
10
261.942462
20
423.635425
70
0
0
VERTEX
8
Layer 1
10
228.110027
20
409.414088
70
0
0
VERTEX
8
Layer 1
10
194.119586
20
395.577720
70
0
0
VERTEX
8
Layer 1
10
177.049533
20
388.844207
70
0
0
VERTEX
8
Layer 1
10
159.921283
20
382.255305
70
0
0
VERTEX
8
Layer 1
10
142.728602
20
375.827137
70
0
0
VERTEX
8
Layer 1
10
125.465259
20
369.575826
70
0
0
VERTEX
8
Layer 1
10
114.080206
20
365.698016
70
0
0
VERTEX
8
Layer 1
10
102.623932
20
362.141085
70
0
0
VERTEX
8
Layer 1
10
91.095911
20
358.902212
70
0
0
VERTEX
8
Layer 1
10
79.495616
20
355.978575
70
0
0
VERTEX
8
Layer 1
10
67.822519
20
353.367353
70
0
0
VERTEX
8
Layer 1
10
56.076093
20
351.065723
70
0
0
VERTEX
8
Layer 1
10
44.255811
20
349.070866
70
0
0
VERTEX
8
Layer 1
10
32.361147
20
347.379958
70
0
0
VERTEX
8
Layer 1
10
27.768317
20
347.032693
70
0
0
VERTEX
8
Layer 1
10
23.153658
20
347.046584
70
0
0
VERTEX
8
Layer 1
10
22.386120
20
347.217446
70
0
0
VERTEX
8
Layer 1
10
21.625030
20
347.603862
70
0
0
VERTEX
8
Layer 1
10
20.108308
20
348.528248
70
0
0
VERTEX
8
Layer 1
10
20.874607
20
350.169324
70
0
0
VERTEX
8
Layer 1
10
21.303768
20
350.930331
70
0
0
VERTEX
8
Layer 1
10
21.857202
20
351.528620
70
0
0
VERTEX
8
Layer 1
10
22.761869
20
352.096481
70
0
0
VERTEX
8
Layer 1
10
23.762530
20
352.543295
70
0
0
VERTEX
8
Layer 1
10
25.868280
20
353.248409
70
0
0
VERTEX
8
Layer 1
10
70.789719
20
367.792289
70
0
0
VERTEX
8
Layer 1
10
93.187946
20
375.243783
70
0
0
VERTEX
8
Layer 1
10
115.535789
20
382.840695
70
0
0
VERTEX
8
Layer 1
10
137.826706
20
390.602309
70
0
0
VERTEX
8
Layer 1
10
160.054153
20
398.547913
70
0
0
VERTEX
8
Layer 1
10
182.211589
20
406.696790
70
0
0
VERTEX
8
Layer 1
10
204.292472
20
415.068227
70
0
0
VERTEX
8
Layer 1
10
215.439436
20
419.514694
70
0
0
VERTEX
8
Layer 1
10
226.478749
20
424.190760
70
0
0
VERTEX
8
Layer 1
10
237.431244
20
429.052426
70
0
0
VERTEX
8
Layer 1
10
248.317760
20
434.055695
70
0
0
VERTEX
8
Layer 1
10
269.976194
20
444.311056
70
0
0
VERTEX
8
Layer 1
10
291.620737
20
454.604865
70
0
0
VERTEX
8
Layer 1
10
303.762373
20
460.220856
70
0
0
VERTEX
8
Layer 1
10
315.975974
20
465.655587
70
0
0
VERTEX
8
Layer 1
10
328.276453
20
470.865712
70
0
0
VERTEX
8
Layer 1
10
340.678724
20
475.807885
70
0
0
VERTEX
8
Layer 1
10
353.197702
20
480.438759
70
0
0
VERTEX
8
Layer 1
10
365.848299
20
484.714989
70
0
0
VERTEX
8
Layer 1
10
378.645429
20
488.593228
70
0
0
VERTEX
8
Layer 1
10
391.604007
20
492.030130
70
0
0
VERTEX
8
Layer 1
10
397.080461
20
493.198553
70
0
0
VERTEX
8
Layer 1
10
402.625873
20
494.094870
70
0
0
VERTEX
8
Layer 1
10
413.794583
20
495.419438
70
0
0
VERTEX
8
Layer 1
10
416.207270
20
495.520972
70
0
0
VERTEX
8
Layer 1
10
418.442479
20
495.292604
70
0
0
VERTEX
8
Layer 1
10
420.499840
20
494.732597
70
0
0
VERTEX
8
Layer 1
10
422.378978
20
493.839216
70
0
0
VERTEX
8
Layer 1
10
424.079524
20
492.610724
70
0
0
VERTEX
8
Layer 1
10
425.601103
20
491.045385
70
0
0
VERTEX
8
Layer 1
10
426.943345
20
489.141463
70
0
0
VERTEX
8
Layer 1
10
428.105877
20
486.897220
70
0
0
VERTEX
8
Layer 1
10
429.979125
20
482.168011
70
0
0
VERTEX
8
Layer 1
10
431.445080
20
477.385999
70
0
0
VERTEX
8
Layer 1
10
432.535741
20
472.556671
70
0
0
VERTEX
8
Layer 1
10
433.283105
20
467.685518
70
0
0
VERTEX
8
Layer 1
10
433.719171
20
462.778025
70
0
0
VERTEX
8
Layer 1
10
433.875936
20
457.839681
70
0
0
VERTEX
8
Layer 1
10
433.785399
20
452.875975
70
0
0
VERTEX
8
Layer 1
10
433.479558
20
447.892394
70
0
0
VERTEX
8
Layer 1
10
432.544257
20
438.554061
70
0
0
VERTEX
8
Layer 1
10
431.394644
20
429.232347
70
0
0
VERTEX
8
Layer 1
10
430.252968
20
419.910137
70
0
0
VERTEX
8
Layer 1
10
429.341480
20
410.570316
70
0
0
VERTEX
8
Layer 1
10
429.120222
20
405.729398
70
0
0
VERTEX
8
Layer 1
10
429.208527
20
400.850529
70
0
0
VERTEX
8
Layer 1
10
429.621276
20
395.992992
70
0
0
VERTEX
8
Layer 1
10
430.373354
20
391.216070
70
0
0
VERTEX
8
Layer 1
10
431.393466
20
387.429169
70
0
0
VERTEX
8
Layer 1
10
432.879781
20
384.032848
70
0
0
VERTEX
8
Layer 1
10
433.791991
20
382.489110
70
0
0
VERTEX
8
Layer 1
10
434.813821
20
381.052563
70
0
0
VERTEX
8
Layer 1
10
435.942963
20
379.726389
70
0
0
VERTEX
8
Layer 1
10
437.177105
20
378.513771
70
0
0
VERTEX
8
Layer 1
10
438.513940
20
377.417889
70
0
0
VERTEX
8
Layer 1
10
439.951155
20
376.441925
70
0
0
VERTEX
8
Layer 1
10
441.486442
20
375.589063
70
0
0
VERTEX
8
Layer 1
10
443.117490
20
374.862484
70
0
0
VERTEX
8
Layer 1
10
444.841990
20
374.265369
70
0
0
VERTEX
8
Layer 1
10
446.657631
20
373.800901
70
0
0
VERTEX
8
Layer 1
10
448.562104
20
373.472262
70
0
0
VERTEX
8
Layer 1
10
450.553099
20
373.282634
70
0
0
VERTEX
8
Layer 1
10
458.078584
20
373.042111
70
0
0
VERTEX
8
Layer 1
10
465.632346
20
373.160264
70
0
0
VERTEX
8
Layer 1
10
473.183131
20
373.581034
70
0
0
VERTEX
8
Layer 1
10
480.699686
20
374.248362
70
0
0
VERTEX
8
Layer 1
10
536.660644
20
380.218016
70
0
0
VERTEX
8
Layer 1
10
592.591837
20
386.461513
70
0
0
VERTEX
8
Layer 1
10
638.423235
20
391.687689
70
0
0
VERTEX
8
Layer 1
10
684.216930
20
397.235333
70
0
0
VERTEX
8
Layer 1
10
694.237649
20
398.381050
70
0
0
VERTEX
8
Layer 1
10
704.263639
20
399.278162
70
0
0
VERTEX
8
Layer 1
10
714.294963
20
399.935537
70
0
0
VERTEX
8
Layer 1
10
724.331681
20
400.362042
70
0
0
VERTEX
8
Layer 1
10
734.373857
20
400.566547
70
0
0
VERTEX
8
Layer 1
10
744.421551
20
400.557917
70
0
0
VERTEX
8
Layer 1
10
754.474827
20
400.345020
70
0
0
VERTEX
8
Layer 1
10
764.533745
20
399.936725
70
0
0
VERTEX
8
Layer 1
10
797.344352
20
398.230496
70
0
0
VERTEX
8
Layer 1
10
813.736633
20
397.182292
70
0
0
VERTEX
8
Layer 1
10
830.105350
20
395.875376
70
0
0
VERTEX
8
Layer 1
10
848.442389
20
394.110892
70
0
0
VERTEX
8
Layer 1
10
866.731988
20
392.062859
70
0
0
VERTEX
8
Layer 1
10
884.958212
20
389.652369
70
0
0
VERTEX
8
Layer 1
10
903.105123
20
386.800510
70
0
0
VERTEX
8
Layer 1
10
921.156784
20
383.428374
70
0
0
VERTEX
8
Layer 1
10
930.141915
20
381.522542
70
0
0
VERTEX
8
Layer 1
10
939.097258
20
379.457050
70
0
0
VERTEX
8
Layer 1
10
948.020819
20
377.222034
70
0
0
VERTEX
8
Layer 1
10
956.910608
20
374.807629
70
0
0
VERTEX
8
Layer 1
10
965.764631
20
372.203973
70
0
0
VERTEX
8
Layer 1
10
974.580897
20
369.401201
70
0
0
VERTEX
8
Layer 1
10
981.935328
20
366.879792
70
0
0
VERTEX
8
Layer 1
10
989.198570
20
364.166799
70
0
0
VERTEX
8
Layer 1
10
996.342937
20
361.213758
70
0
0
VERTEX
8
Layer 1
10
1003.340739
20
357.972208
70
0
0
VERTEX
8
Layer 1
10
1010.164288
20
354.393687
70
0
0
VERTEX
8
Layer 1
10
1016.785896
20
350.429732
70
0
0
VERTEX
8
Layer 1
10
1023.177875
20
346.031882
70
0
0
VERTEX
8
Layer 1
10
1029.312537
20
341.151674
70
0
0
VERTEX
8
Layer 1
10
1032.131503
20
338.531228
70
0
0
VERTEX
8
Layer 1
10
1034.798665
20
335.733676
70
0
0
VERTEX
8
Layer 1
10
1039.967294
20
329.962459
70
0
0
VERTEX
8
Layer 1
10
1041.019011
20
328.364378
70
0
0
VERTEX
8
Layer 1
10
1041.911979
20
326.623422
70
0
0
VERTEX
8
Layer 1
10
1040.972709
20
325.406340
70
0
0
VERTEX
8
Layer 1
10
1040.972709
20
325.406340
70
0
0
SEQEND
8
Layer 1
0
POLYLINE
8
Layer 1
62
7
70
0
10
0.000000
20
0.000000
66
1
0
VERTEX
8
Layer 1
10
592.179087
20
128.882025
70
0
0
VERTEX
8
Layer 1
10
589.830071
20
130.601923
70
0
0
VERTEX
8
Layer 1
10
587.327669
20
132.071449
70
0
0
VERTEX
8
Layer 1
10
582.198686
20
134.728317
70
0
0
VERTEX
8
Layer 1
10
579.740095
20
136.150125
70
0
0
VERTEX
8
Layer 1
10
577.464097
20
137.790493
70
0
0
VERTEX
8
Layer 1
10
575.454687
20
139.766655
70
0
0
VERTEX
8
Layer 1
10
574.576201
20
140.917293
70
0
0
VERTEX
8
Layer 1
10
573.795860
20
142.195842
70
0
0
VERTEX
8
Layer 1
10
574.232422
20
143.420861
70
0
0
VERTEX
8
Layer 1
10
577.032703
20
143.247559
70
0
0
VERTEX
8
Layer 1
10
578.419324
20
143.111299
70
0
0
VERTEX
8
Layer 1
10
579.767499
20
142.836133
70
0
0
VERTEX
8
Layer 1
10
586.301376
20
140.859367
70
0
0
VERTEX
8
Layer 1
10
592.787628
20
138.721867
70
0
0
VERTEX
8
Layer 1
10
594.686218
20
138.328134
70
0
0
VERTEX
8
Layer 1
10
595.525086
20
138.361145
70
0
0
VERTEX
8
Layer 1
10
596.298314
20
138.556503
70
0
0
VERTEX
8
Layer 1
10
597.011887
20
138.921028
70
0
0
VERTEX
8
Layer 1
10
597.671789
20
139.461542
70
0
0
VERTEX
8
Layer 1
10
598.854516
20
141.097822
70
0
0
VERTEX
8
Layer 1
10
604.830785
20
151.659314
70
0
0
VERTEX
8
Layer 1
10
610.826897
20
162.208900
70
0
0
VERTEX
8
Layer 1
10
627.831647
20
193.572569
70
0
0
VERTEX
8
Layer 1
10
628.381979
20
194.533005
70
0
0
VERTEX
8
Layer 1
10
630.254069
20
197.082965
70
0
0
VERTEX
8
Layer 1
10
631.133436
20
197.922143
70
0
0
VERTEX
8
Layer 1
10
631.994199
20
198.480253
70
0
0
VERTEX
8
Layer 1
10
632.850745
20
198.764395
70
0
0
VERTEX
8
Layer 1
10
633.717461
20
198.781670
70
0
0
VERTEX
8
Layer 1
10
634.608733
20
198.539179
70
0
0
VERTEX
8
Layer 1
10
635.538949
20
198.044021
70
0
0
VERTEX
8
Layer 1
10
636.594971
20
197.181362
70
0
0
VERTEX
8
Layer 1
10
637.401490
20
196.146837
70
0
0
VERTEX
8
Layer 1
10
637.958287
20
194.975701
70
0
0
VERTEX
8
Layer 1
10
638.265146
20
193.703206
70
0
0
VERTEX
8
Layer 1
10
638.321851
20
192.364608
70
0
0
VERTEX
8
Layer 1
10
638.128183
20
190.995158
70
0
0
VERTEX
8
Layer 1
10
637.683927
20
189.630111
70
0
0
VERTEX
8
Layer 1
10
636.988864
20
188.304721
70
0
0
VERTEX
8
Layer 1
10
630.250927
20
177.544130
70
0
0
VERTEX
8
Layer 1
10
623.757068
20
166.640665
70
0
0
VERTEX
8
Layer 1
10
623.242661
20
165.339082
70
0
0
VERTEX
8
Layer 1
10
623.003338
20
163.859898
70
0
0
VERTEX
8
Layer 1
10
622.976838
20
162.317213
70
0
0
VERTEX
8
Layer 1
10
623.100902
20
160.825131
70
0
0
VERTEX
8
Layer 1
10
624.373216
20
151.713884
70
0
0
VERTEX
8
Layer 1
10
625.937232
20
142.648279
70
0
0
VERTEX
8
Layer 1
10
626.335316
20
140.854365
70
0
0
VERTEX
8
Layer 1
10
626.787288
20
139.492796
70
0
0
VERTEX
8
Layer 1
10
627.340587
20
138.530582
70
0
0
VERTEX
8
Layer 1
10
628.042651
20
137.934732
70
0
0
VERTEX
8
Layer 1
10
628.940921
20
137.672258
70
0
0
VERTEX
8
Layer 1
10
630.082834
20
137.710168
70
0
0
VERTEX
8
Layer 1
10
631.515830
20
138.015472
70
0
0
VERTEX
8
Layer 1
10
633.287348
20
138.555180
70
0
0
VERTEX
8
Layer 1
10
652.771902
20
144.823151
70
0
0
VERTEX
8
Layer 1
10
662.494087
20
148.009474
70
0
0
VERTEX
8
Layer 1
10
672.149299
20
151.376872
70
0
0
VERTEX
8
Layer 1
10
676.860649
20
153.242187
70
0
0
VERTEX
8
Layer 1
10
681.424876
20
155.357564
70
0
0
VERTEX
8
Layer 1
10
685.837237
20
157.723035
70
0
0
VERTEX
8
Layer 1
10
690.092987
20
160.338629
70
0
0
VERTEX
8
Layer 1
10
694.187383
20
163.204378
70
0
0
VERTEX
8
Layer 1
10
698.115681
20
166.320313
70
0
0
VERTEX
8
Layer 1
10
701.873137
20
169.686465
70
0
0
VERTEX
8
Layer 1
10
705.455007
20
173.302865
70
0
0
VERTEX
8
Layer 1
10
707.469987
20
175.575478
70
0
0
VERTEX
8
Layer 1
10
709.321846
20
177.931000
70
0
0
VERTEX
8
Layer 1
10
710.980663
20
180.382145
70
0
0
VERTEX
8
Layer 1
10
712.416517
20
182.941624
70
0
0
VERTEX
8
Layer 1
10
713.599487
20
185.622149
70
0
0
VERTEX
8
Layer 1
10
714.499653
20
188.436434
70
0
0
VERTEX
8
Layer 1
10
715.087094
20
191.397190
70
0
0
VERTEX
8
Layer 1
10
715.331890
20
194.517130
70
0
0
VERTEX
8
Layer 1
10
715.225964
20
197.489002
70
0
0
VERTEX
8
Layer 1
10
714.785113
20
200.282931
70
0
0
VERTEX
8
Layer 1
10
714.006299
20
202.887167
70
0
0
VERTEX
8
Layer 1
10
712.886482
20
205.289958
70
0
0
VERTEX
8
Layer 1
10
711.422625
20
207.479552
70
0
0
VERTEX
8
Layer 1
10
709.611689
20
209.444200
70
0
0
VERTEX
8
Layer 1
10
707.450635
20
211.172149
70
0
0
VERTEX
8
Layer 1
10
704.936424
20
212.651649
70
0
0
VERTEX
8
Layer 1
10
700.869577
20
214.583105
70
0
0
VERTEX
8
Layer 1
10
696.668536
20
216.298264
70
0
0
VERTEX
8
Layer 1
10
692.372742
20
217.679056
70
0
0
VERTEX
8
Layer 1
10
688.021633
20
218.607412
70
0
0
VERTEX
8
Layer 1
10
680.753574
20
219.555839
70
0
0
VERTEX
8
Layer 1
10
673.487717
20
220.180193
70
0
0
VERTEX
8
Layer 1
10
666.228247
20
220.461994
70
0
0
VERTEX
8
Layer 1
10
658.979349
20
220.382764
70
0
0
VERTEX
8
Layer 1
10
651.745211
20
219.924023
70
0
0
VERTEX
8
Layer 1
10
644.530017
20
219.067290
70
0
0
VERTEX
8
Layer 1
10
637.337954
20
217.794088
70
0
0
VERTEX
8
Layer 1
10
630.173206
20
216.085936
70
0
0
VERTEX
8
Layer 1
10
625.807829
20
214.780369
70
0
0
VERTEX
8
Layer 1
10
621.550570
20
213.253947
70
0
0
VERTEX
8
Layer 1
10
617.402141
20
211.508314
70
0
0
VERTEX
8
Layer 1
10
613.363256
20
209.545114
70
0
0
VERTEX
8
Layer 1
10
609.434627
20
207.365988
70
0
0
VERTEX
8
Layer 1
10
605.616968
20
204.972582
70
0
0
VERTEX
8
Layer 1
10
601.910993
20
202.366538
70
0
0
VERTEX
8
Layer 1
10
598.317413
20
199.549499
70
0
0
VERTEX
8
Layer 1
10
593.975606
20
196.120503
70
0
0
VERTEX
8
Layer 1
10
592.136956
20
194.945093
70
0
0
VERTEX
8
Layer 1
10
590.377897
20
194.108018
70
0
0
VERTEX
8
Layer 1
10
588.675331
20
193.612752
70
0
0
VERTEX
8
Layer 1
10
587.006159
20
193.462767
70
0
0
VERTEX
8
Layer 1
10
585.347280
20
193.661535
70
0
0
VERTEX
8
Layer 1
10
583.675596
20
194.212529
70
0
0
VERTEX
8
Layer 1
10
581.968008
20
195.119222
70
0
0
VERTEX
8
Layer 1
10
580.201415
20
196.385086
70
0
0
VERTEX
8
Layer 1
10
579.675349
20
197.065230
70
0
0
VERTEX
8
Layer 1
10
579.320684
20
198.014256
70
0
0
VERTEX
8
Layer 1
10
579.174874
20
199.035711
70
0
0
VERTEX
8
Layer 1
10
579.275374
20
199.933144
70
0
0
VERTEX
8
Layer 1
10
579.712970
20
200.862740
70
0
0
VERTEX
8
Layer 1
10
580.371079
20
201.732308
70
0
0
VERTEX
8
Layer 1
10
581.968829
20
203.301286
70
0
0
VERTEX
8
Layer 1
10
586.580795
20
207.250238
70
0
0
VERTEX
8
Layer 1
10
591.380501
20
210.840330
70
0
0
VERTEX
8
Layer 1
10
596.362956
20
214.086753
70
0
0
VERTEX
8
Layer 1
10
601.523167
20
217.004701
70
0
0
VERTEX
8
Layer 1
10
606.856142
20
219.609365
70
0
0
VERTEX
8
Layer 1
10
612.356890
20
221.915940
70
0
0
VERTEX
8
Layer 1
10
618.020418
20
223.939617
70
0
0
VERTEX
8
Layer 1
10
623.841735
20
225.695591
70
0
0
VERTEX
8
Layer 1
10
632.209539
20
227.771498
70
0
0
VERTEX
8
Layer 1
10
640.584010
20
229.364241
70
0
0
VERTEX
8
Layer 1
10
648.964123
20
230.444830
70
0
0
VERTEX
8
Layer 1
10
657.348857
20
230.984274
70
0
0
VERTEX
8
Layer 1
10
665.737187
20
230.953584
70
0
0
VERTEX
8
Layer 1
10
669.932381
20
230.715378
70
0
0
VERTEX
8
Layer 1
10
674.128090
20
230.323767
70
0
0
VERTEX
8
Layer 1
10
678.324188
20
229.775128
70
0
0
VERTEX
8
Layer 1
10
682.520544
20
229.065835
70
0
0
VERTEX
8
Layer 1
10
686.717033
20
228.192267
70
0
0
VERTEX
8
Layer 1
10
690.913525
20
227.150797
70
0
0
VERTEX
8
Layer 1
10
697.115971
20
225.214794
70
0
0
VERTEX
8
Layer 1
10
703.209028
20
222.836771
70
0
0
VERTEX
8
Layer 1
10
709.179550
20
220.125374
70
0
0
VERTEX
8
Layer 1
10
715.014391
20
217.189247
70
0
0
VERTEX
8
Layer 1
10
716.644984
20
216.219355
70
0
0
VERTEX
8
Layer 1
10
718.159849
20
215.082097
70
0
0
VERTEX
8
Layer 1
10
719.555248
20
213.792918
70
0
0
VERTEX
8
Layer 1
10
720.827445
20
212.367263
70
0
0
VERTEX
8
Layer 1
10
721.972704
20
210.820577
70
0
0
VERTEX
8
Layer 1
10
722.987290
20
209.168305
70
0
0
VERTEX
8
Layer 1
10
723.867465
20
207.425891
70
0
0
VERTEX
8
Layer 1
10
724.609493
20
205.608780
70
0
0
VERTEX
8
Layer 1
10
725.209639
20
203.732417
70
0
0
VERTEX
8
Layer 1
10
725.664167
20
201.812247
70
0
0
VERTEX
8
Layer 1
10
725.969339
20
199.863714
70
0
0
VERTEX
8
Layer 1
10
726.121420
20
197.902263
70
0
0
VERTEX
8
Layer 1
10
726.116673
20
195.943339
70
0
0
VERTEX
8
Layer 1
10
725.951363
20
194.002387
70
0
0
VERTEX
8
Layer 1
10
725.621753
20
192.094851
70
0
0
VERTEX
8
Layer 1
10
725.124107
20
190.236177
70
0
0
VERTEX
8
Layer 1
10
722.997785
20
184.535633
70
0
0
VERTEX
8
Layer 1
10
720.396795
20
179.227374
70
0
0
VERTEX
8
Layer 1
10
717.341569
20
174.290938
70
0
0
VERTEX
8
Layer 1
10
713.852541
20
169.705859
70
0
0
VERTEX
8
Layer 1
10
709.950143
20
165.451675
70
0
0
VERTEX
8
Layer 1
10
705.654809
20
161.507920
70
0
0
VERTEX
8
Layer 1
10
700.986970
20
157.854132
70
0
0
VERTEX
8
Layer 1
10
695.967061
20
154.469847
70
0
0
VERTEX
8
Layer 1
10
688.898984
20
150.320963
70
0
0
VERTEX
8
Layer 1
10
681.667259
20
146.606316
70
0
0
VERTEX
8
Layer 1
10
674.287574
20
143.282404
70
0
0
VERTEX
8
Layer 1
10
666.775618
20
140.305727
70
0
0
VERTEX
8
Layer 1
10
659.147081
20
137.632782
70
0
0
VERTEX
8
Layer 1
10
651.417650
20
135.220070
70
0
0
VERTEX
8
Layer 1
10
643.603015
20
133.024087
70
0
0
VERTEX
8
Layer 1
10
635.718866
20
131.001335
70
0
0
VERTEX
8
Layer 1
10
632.813744
20
130.485398
70
0
0
VERTEX
8
Layer 1
10
630.117644
20
129.831878
70
0
0
VERTEX
8
Layer 1
10
631.092710
20
125.654563
70
0
0
VERTEX
8
Layer 1
10
632.213224
20
121.574832
70
0
0
VERTEX
8
Layer 1
10
633.483806
20
117.596815
70
0
0
VERTEX
8
Layer 1
10
634.909076
20
113.724644
70
0
0
VERTEX
8
Layer 1
10
636.493655
20
109.962451
70
0
0
VERTEX
8
Layer 1
10
638.242161
20
106.314366
70
0
0
VERTEX
8
Layer 1
10
640.159214
20
102.784523
70
0
0
VERTEX
8
Layer 1
10
642.249436
20
99.377052
70
0
0
VERTEX
8
Layer 1
10
644.517444
20
96.096084
70
0
0
VERTEX
8
Layer 1
10
646.967860
20
92.945752
70
0
0
VERTEX
8
Layer 1
10
649.605303
20
89.930187
70
0
0
VERTEX
8
Layer 1
10
652.434393
20
87.053520
70
0
0
VERTEX
8
Layer 1
10
655.459750
20
84.319883
70
0
0
VERTEX
8
Layer 1
10
658.685993
20
81.733407
70
0
0
VERTEX
8
Layer 1
10
662.117743
20
79.298224
70
0
0
VERTEX
8
Layer 1
10
665.759620
20
77.018465
70
0
0
VERTEX
8
Layer 1
10
669.484821
20
74.967632
70
0
0
VERTEX
8
Layer 1
10
673.246218
20
73.162210
70
0
0
VERTEX
8
Layer 1
10
677.042922
20
71.596710
70
0
0
VERTEX
8
Layer 1
10
680.874047
20
70.265646
70
0
0
VERTEX
8
Layer 1
10
684.738705
20
69.163528
70
0
0
VERTEX
8
Layer 1
10
688.636008
20
68.284870
70
0
0
VERTEX
8
Layer 1
10
692.565069
20
67.624183
70
0
0
VERTEX
8
Layer 1
10
696.525000
20
67.175978
70
0
0
VERTEX
8
Layer 1
10
700.514914
20
66.934768
70
0
0
VERTEX
8
Layer 1
10
704.533922
20
66.895065
70
0
0
VERTEX
8
Layer 1
10
708.581139
20
67.051381
70
0
0
VERTEX
8
Layer 1
10
712.655675
20
67.398228
70
0
0
VERTEX
8
Layer 1
10
716.756643
20
67.930117
70
0
0
VERTEX
8
Layer 1
10
720.883157
20
68.641561
70
0
0
VERTEX
8
Layer 1
10
725.034328
20
69.527072
70
0
0
VERTEX
8
Layer 1
10
729.209269
20
70.581161
70
0
0
VERTEX
8
Layer 1
10
728.254455
20
68.650367
70
0
0
VERTEX
8
Layer 1
10
727.702758
20
67.732594
70
0
0
VERTEX
8
Layer 1
10
726.992063
20
67.041041
70
0
0
VERTEX
8
Layer 1
10
723.334741
20
64.737846
70
0
0
VERTEX
8
Layer 1
10
719.543721
20
62.758103
70
0
0
VERTEX
8
Layer 1
10
717.557845
20
61.997737
70
0
0
VERTEX
8
Layer 1
10
715.490268
20
61.448087
70
0
0
VERTEX
8
Layer 1
10
713.324899
20
61.152436
70
0
0
VERTEX
8
Layer 1
10
711.045646
20
61.154069
70
0
0
VERTEX
8
Layer 1
10
703.676803
20
61.505592
70
0
0
VERTEX
8
Layer 1
10
696.290844
20
61.745743
70
0
0
VERTEX
8
Layer 1
10
688.948046
20
62.200701
70
0
0
VERTEX
8
Layer 1
10
685.311668
20
62.610665
70
0
0
VERTEX
8
Layer 1
10
681.708683
20
63.196650
70
0
0
VERTEX
8
Layer 1
10
677.984364
20
64.015243
70
0
0
VERTEX
8
Layer 1
10
674.373135
20
65.016882
70
0
0
VERTEX
8
Layer 1
10
670.872433
20
66.196224
70
0
0
VERTEX
8
Layer 1
10
667.479698
20
67.547924
70
0
0
VERTEX
8
Layer 1
10
664.192368
20
69.066636
70
0
0
VERTEX
8
Layer 1
10
661.007879
20
70.747016
70
0
0
VERTEX
8
Layer 1
10
657.923672
20
72.583720
70
0
0
VERTEX
8
Layer 1
10
654.937183
20
74.571403
70
0
0
VERTEX
8
Layer 1
10
652.045851
20
76.704721
70
0
0
VERTEX
8
Layer 1
10
649.247113
20
78.978328
70
0
0
VERTEX
8
Layer 1
10
646.538409
20
81.386880
70
0
0
VERTEX
8
Layer 1
10
643.917177
20
83.925033
70
0
0
VERTEX
8
Layer 1
10
638.926878
20
89.368761
70
0
0
VERTEX
8
Layer 1
10
634.255722
20
95.266755
70
0
0
VERTEX
8
Layer 1
10
631.794604
20
98.752745
70
0
0
VERTEX
8
Layer 1
10
629.496700
20
102.321737
70
0
0
VERTEX
8
Layer 1
10
627.352338
20
105.968925
70
0
0
VERTEX
8
Layer 1
10
625.351842
20
109.689505
70
0
0
VERTEX
8
Layer 1
10
621.743757
20
117.331613
70
0
0
VERTEX
8
Layer 1
10
618.595054
20
125.209613
70
0
0
VERTEX
8
Layer 1
10
617.756037
20
126.804552
70
0
0
VERTEX
8
Layer 1
10
616.647392
20
127.803188
70
0
0
VERTEX
8
Layer 1
10
615.220753
20
128.378160
70
0
0
VERTEX
8
Layer 1
10
613.427748
20
128.702109
70
0
0
VERTEX
8
Layer 1
10
611.195680
20
128.848358
70
0
0
VERTEX
8
Layer 1
10
609.229643
20
128.677511
70
0
0
VERTEX
8
Layer 1
10
607.496025
20
128.194931
70
0
0
VERTEX
8
Layer 1
10
605.961216
20
127.405983
70
0
0
VERTEX
8
Layer 1
10
604.591606
20
126.316030
70
0
0
VERTEX
8
Layer 1
10
603.353585
20
124.930437
70
0
0
VERTEX
8
Layer 1
10
602.213542
20
123.254567
70
0
0
VERTEX
8
Layer 1
10
601.137868
20
121.293785
70
0
0
VERTEX
8
Layer 1
10
595.839014
20
111.073191
70
0
0
VERTEX
8
Layer 1
10
590.330314
20
100.957274
70
0
0
VERTEX
8
Layer 1
10
579.074291
20
80.846981
70
0
0
VERTEX
8
Layer 1
10
578.517757
20
80.176388
70
0
0
VERTEX
8
Layer 1
10
577.759314
20
79.617663
70
0
0
VERTEX
8
Layer 1
10
576.103024
20
78.576859
70
0
0
VERTEX
8
Layer 1
10
575.725663
20
80.532458
70
0
0
VERTEX
8
Layer 1
10
575.592172
20
81.502445
70
0
0
VERTEX
8
Layer 1
10
575.616191
20
82.450354
70
0
0
VERTEX
8
Layer 1
10
576.601432
20
88.430592
70
0
0
VERTEX
8
Layer 1
10
577.711689
20
94.390985
70
0
0
VERTEX
8
Layer 1
10
577.983548
20
95.836601
70
0
0
VERTEX
8
Layer 1
10
578.410188
20
97.224669
70
0
0
VERTEX
8
Layer 1
10
591.750463
20
127.450631
70
0
0
VERTEX
8
Layer 1
10
592.179087
20
128.882025
70
0
0
VERTEX
8
Layer 1
10
592.179087
20
128.882025
70
0
0
SEQEND
8
Layer 1
0
POLYLINE
8
Layer 1
62
7
70
0
10
0.000000
20
0.000000
66
1
0
VERTEX
8
Layer 1
10
799.292014
20
118.303997
70
0
0
VERTEX
8
Layer 1
10
802.249721
20
118.651593
70
0
0
VERTEX
8
Layer 1
10
803.455103
20
118.840149
70
0
0
VERTEX
8
Layer 1
10
804.522820
20
119.171829
70
0
0
VERTEX
8
Layer 1
10
813.314913
20
122.993400
70
0
0
VERTEX
8
Layer 1
10
817.650932
20
125.024116
70
0
0
VERTEX
8
Layer 1
10
821.892694
20
127.225736
70
0
0
VERTEX
8
Layer 1
10
823.288410
20
128.309534
70
0
0
VERTEX
8
Layer 1
10
824.487922
20
129.786238
70
0
0
VERTEX
8
Layer 1
10
825.504376
20
131.476261
70
0
0
VERTEX
8
Layer 1
10
826.350917
20
133.200020
70
0
0
VERTEX
8
Layer 1
10
829.231565
20
140.169797
70
0
0
VERTEX
8
Layer 1
10
831.846306
20
147.254669
70
0
0
VERTEX
8
Layer 1
10
832.768750
20
149.455338
70
0
0
VERTEX
8
Layer 1
10
833.330632
20
150.404984
70
0
0
VERTEX
8
Layer 1
10
833.999020
20
151.199601
70
0
0
VERTEX
8
Layer 1
10
834.803460
20
151.798262
70
0
0
VERTEX
8
Layer 1
10
835.773503
20
152.160037
70
0
0
VERTEX
8
Layer 1
10
836.938697
20
152.244001
70
0
0
VERTEX
8
Layer 1
10
838.328590
20
152.009225
70
0
0
VERTEX
8
Layer 1
10
839.566161
20
151.545388
70
0
0
VERTEX
8
Layer 1
10
840.466296
20
150.934274
70
0
0
VERTEX
8
Layer 1
10
841.069582
20
150.194548
70
0
0
VERTEX
8
Layer 1
10
841.416604
20
149.344874
70
0
0
VERTEX
8
Layer 1
10
841.547950
20
148.403920
70
0
0
VERTEX
8
Layer 1
10
841.504206
20
147.390350
70
0
0
VERTEX
8
Layer 1
10
841.053795
20
145.220025
70
0
0
VERTEX
8
Layer 1
10
841.156651
20
144.691521
70
0
0
VERTEX
8
Layer 1
10
841.519461
20
143.762173
70
0
0
VERTEX
8
Layer 1
10
848.406556
20
148.736333
70
0
0
VERTEX
8
Layer 1
10
850.109809
20
149.939525
70
0
0
VERTEX
8
Layer 1
10
850.993930
20
150.407671
70
0
0
VERTEX
8
Layer 1
10
851.888468
20
150.622810
70
0
0
VERTEX
8
Layer 1
10
853.449343
20
150.674404
70
0
0
VERTEX
8
Layer 1
10
855.066772
20
150.598998
70
0
0
VERTEX
8
Layer 1
10
856.518506
20
150.289436
70
0
0
VERTEX
8
Layer 1
10
857.112784
20
150.013360
70
0
0
VERTEX
8
Layer 1
10
857.582295
20
149.638561
70
0
0
VERTEX
8
Layer 1
10
858.180252
20
148.515117
70
0
0
VERTEX
8
Layer 1
10
858.434913
20
147.004968
70
0
0
VERTEX
8
Layer 1
10
858.371083
20
145.392128
70
0
0
VERTEX
8
Layer 1
10
858.013565
20
143.960610
70
0
0
VERTEX
8
Layer 1
10
853.008316
20
132.081495
70
0
0
VERTEX
8
Layer 1
10
847.872098
20
120.253974
70
0
0
VERTEX
8
Layer 1
10
847.153425
20
117.795005
70
0
0
VERTEX
8
Layer 1
10
846.464517
20
114.615710
70
0
0
VERTEX
8
Layer 1
10
848.533887
20
115.548365
70
0
0
VERTEX
8
Layer 1
10
849.874992
20
116.234958
70
0
0
VERTEX
8
Layer 1
10
858.248713
20
121.322558
70
0
0
VERTEX
8
Layer 1
10
862.330774
20
123.989265
70
0
0
VERTEX
8
Layer 1
10
866.160075
20
126.947923
70
0
0
VERTEX
8
Layer 1
10
867.399337
20
128.142340
70
0
0
VERTEX
8
Layer 1
10
868.531070
20
129.461214
70
0
0
VERTEX
8
Layer 1
10
870.564721
20
132.363937
70
0
0
VERTEX
8
Layer 1
10
874.362148
20
138.470513
70
0
0
VERTEX
8
Layer 1
10
877.339782
20
142.718931
70
0
0
VERTEX
8
Layer 1
10
878.937956
20
144.716589
70
0
0
VERTEX
8
Layer 1
10
880.667161
20
146.547901
70
0
0
VERTEX
8
Layer 1
10
882.570991
20
148.151383
70
0
0
VERTEX
8
Layer 1
10
884.693040
20
149.465549
70
0
0
VERTEX
8
Layer 1
10
887.076902
20
150.428915
70
0
0
VERTEX
8
Layer 1
10
889.766171
20
150.979997
70
0
0
VERTEX
8
Layer 1
10
891.592165
20
150.890452
70
0
0
VERTEX
8
Layer 1
10
893.464049
20
150.386670
70
0
0
VERTEX
8
Layer 1
10
895.360241
20
149.729098
70
0
0
VERTEX
8
Layer 1
10
897.259161
20
149.178187
70
0
0
VERTEX
8
Layer 1
10
899.734997
20
148.831914
70
0
0
VERTEX
8
Layer 1
10
902.937112
20
148.535250
70
0
0
VERTEX
8
Layer 1
10
903.404763
20
147.390598
70
0
0
VERTEX
8
Layer 1
10
903.661160
20
146.515283
70
0
0
VERTEX
8
Layer 1
10
903.749382
20
145.561337
70
0
0
VERTEX
8
Layer 1
10
903.158701
20
131.782516
70
0
0
VERTEX
8
Layer 1
10
902.737352
20
124.904020
70
0
0
VERTEX
8
Layer 1
10
902.119551
20
118.047351
70
0
0
VERTEX
8
Layer 1
10
901.893007
20
116.846346
70
0
0
VERTEX
8
Layer 1
10
901.504768
20
115.665898
70
0
0
VERTEX
8
Layer 1
10
900.408030
20
113.340750
70
0
0
VERTEX
8
Layer 1
10
899.158991
20
111.020068
70
0
0
VERTEX
8
Layer 1
10
898.087306
20
108.652009
70
0
0
VERTEX
8
Layer 1
10
895.263162
20
101.307795
70
0
0
VERTEX
8
Layer 1
10
892.181235
20
94.101680
70
0
0
VERTEX
8
Layer 1
10
888.848905
20
87.029635
70
0
0
VERTEX
8
Layer 1
10
885.273551
20
80.087628
70
0
0
VERTEX
8
Layer 1
10
881.462554
20
73.271629
70
0
0
VERTEX
8
Layer 1
10
877.423291
20
66.577607
70
0
0
VERTEX
8
Layer 1
10
873.163143
20
60.001531
70
0
0
VERTEX
8
Layer 1
10
868.689489
20
53.539370
70
0
0
VERTEX
8
Layer 1
10
864.505646
20
48.126126
70
0
0
VERTEX
8
Layer 1
10
862.266029
20
45.565216
70
0
0
VERTEX
8
Layer 1
10
859.920216
20
43.110500
70
0
0
VERTEX
8
Layer 1
10
857.462411
20
40.768770
70
0
0
VERTEX
8
Layer 1
10
854.886814
20
38.546816
70
0
0
VERTEX
8
Layer 1
10
852.187628
20
36.451427
70
0
0
VERTEX
8
Layer 1
10
849.359055
20
34.489394
70
0
0
VERTEX
8
Layer 1
10
847.866998
20
33.599729
70
0
0
VERTEX
8
Layer 1
10
846.357237
20
32.885153
70
0
0
VERTEX
8
Layer 1
10
844.829430
20
32.369201
70
0
0
VERTEX
8
Layer 1
10
843.283237
20
32.075405
70
0
0
VERTEX
8
Layer 1
10
841.718316
20
32.027299
70
0
0
VERTEX
8
Layer 1
10
840.134327
20
32.248417
70
0
0
VERTEX
8
Layer 1
10
838.530928
20
32.762292
70
0
0
VERTEX
8
Layer 1
10
836.907779
20
33.592458
70
0
0
VERTEX
8
Layer 1
10
835.201756
20
34.930462
70
0
0
VERTEX
8
Layer 1
10
834.562576
20
35.701117
70
0
0
VERTEX
8
Layer 1
10
834.086332
20
36.535613
70
0
0
VERTEX
8
Layer 1
10
833.788309
20
37.431004
70
0
0
VERTEX
8
Layer 1
10
833.683794
20
38.384345
70
0
0
VERTEX
8
Layer 1
10
833.788072
20
39.392691
70
0
0
VERTEX
8
Layer 1
10
834.116428
20
40.453095
70
0
0
VERTEX
8
Layer 1
10
837.687307
20
49.116534
70
0
0
VERTEX
8
Layer 1
10
839.643526
20
53.362058
70
0
0
VERTEX
8
Layer 1
10
841.847544
20
57.460490
70
0
0
VERTEX
8
Layer 1
10
844.603269
20
61.846325
70
0
0
VERTEX
8
Layer 1
10
847.571879
20
66.062249
70
0
0
VERTEX
8
Layer 1
10
850.729130
20
70.126120
70
0
0
VERTEX
8
Layer 1
10
854.050773
20
74.055797
70
0
0
VERTEX
8
Layer 1
10
857.512562
20
77.869141
70
0
0
VERTEX
8
Layer 1
10
861.090252
20
81.584010
70
0
0
VERTEX
8
Layer 1
10
868.496343
20
88.789763
70
0
0
VERTEX
8
Layer 1
10
877.086692
20
96.564204
70
0
0
VERTEX
8
Layer 1
10
885.696884
20
104.320785
70
0
0
VERTEX
8
Layer 1
10
888.117023
20
106.881685
70
0
0
VERTEX
8
Layer 1
10
890.120133
20
109.614636
70
0
0
VERTEX
8
Layer 1
10
891.749809
20
112.500694
70
0
0
VERTEX
8
Layer 1
10
893.049646
20
115.520914
70
0
0
VERTEX
8
Layer 1
10
894.063236
20
118.656352
70
0
0
VERTEX
8
Layer 1
10
894.834175
20
121.888063
70
0
0
VERTEX
8
Layer 1
10
895.406057
20
125.197102
70
0
0
VERTEX
8
Layer 1
10
895.822476
20
128.564526
70
0
0
VERTEX
8
Layer 1
10
894.959935
20
129.130733
70
0
0
VERTEX
8
Layer 1
10
892.412001
20
126.387007
70
0
0
VERTEX
8
Layer 1
10
886.954315
20
119.892487
70
0
0
VERTEX
8
Layer 1
10
884.191490
20
116.678589
70
0
0
VERTEX
8
Layer 1
10
881.333910
20
113.554732
70
0
0
VERTEX
8
Layer 1
10
879.880151
20
112.190435
70
0
0
VERTEX
8
Layer 1
10
878.258464
20
110.962811
70
0
0
VERTEX
8
Layer 1
10
876.518211
20
109.919237
70
0
0
VERTEX
8
Layer 1
10
874.708752
20
109.107092
70
0
0
VERTEX
8
Layer 1
10
872.585324
20
108.570143
70
0
0
VERTEX
8
Layer 1
10
870.586012
20
108.561968
70
0
0
VERTEX
8
Layer 1
10
868.751588
20
109.054723
70
0
0
VERTEX
8
Layer 1
10
867.122827
20
110.020565
70
0
0
VERTEX
8
Layer 1
10
865.740500
20
111.431650
70
0
0
VERTEX
8
Layer 1
10
864.645379
20
113.260135
70
0
0
VERTEX
8
Layer 1
10
863.878238
20
115.478178
70
0
0
VERTEX
8
Layer 1
10
863.479850
20
118.057935
70
0
0
VERTEX
8
Layer 1
10
859.796854
20
114.792980
70
0
0
VERTEX
8
Layer 1
10
845.919476
20
103.217474
70
0
0
VERTEX
8
Layer 1
10
844.427145
20
102.151825
70
0
0
VERTEX
8
Layer 1
10
842.874787
20
101.530427
70
0
0
VERTEX
8
Layer 1
10
842.074082
20
101.438334
70
0
0
VERTEX
8
Layer 1
10
841.255953
20
101.519719
70
0
0
VERTEX
8
Layer 1
10
840.419591
20
101.795387
70
0
0
VERTEX
8
Layer 1
10
839.564192
20
102.286142
70
0
0
VERTEX
8
Layer 1
10
838.034489
20
103.563540
70
0
0
VERTEX
8
Layer 1
10
836.907118
20
105.071870
70
0
0
VERTEX
8
Layer 1
10
836.550582
20
105.919068
70
0
0
VERTEX
8
Layer 1
10
836.362159
20
106.831719
70
0
0
VERTEX
8
Layer 1
10
836.364361
20
107.812397
70
0
0
VERTEX
8
Layer 1
10
836.579696
20
108.863675
70
0
0
VERTEX
8
Layer 1
10
839.425286
20
117.804927
70
0
0
VERTEX
8
Layer 1
10
842.334376
20
126.728320
70
0
0
VERTEX
8
Layer 1
10
842.882394
20
129.144954
70
0
0
VERTEX
8
Layer 1
10
842.941966
20
130.467249
70
0
0
VERTEX
8
Layer 1
10
842.797397
20
131.908855
70
0
0
VERTEX
8
Layer 1
10
840.604003
20
130.353107
70
0
0
VERTEX
8
Layer 1
10
834.239459
20
125.135861
70
0
0
VERTEX
8
Layer 1
10
827.819353
20
119.992036
70
0
0
VERTEX
8
Layer 1
10
826.067937
20
118.881449
70
0
0
VERTEX
8
Layer 1
10
825.318904
20
118.653887
70
0
0
VERTEX
8
Layer 1
10
824.601031
20
118.645970
70
0
0
VERTEX
8
Layer 1
10
823.874353
20
118.858567
70
0
0
VERTEX
8
Layer 1
10
823.098903
20
119.292545
70
0
0
VERTEX
8
Layer 1
10
821.241820
20
120.828119
70
0
0
VERTEX
8
Layer 1
10
808.301065
20
113.070545
70
0
0
VERTEX
8
Layer 1
10
805.880131
20
111.730763
70
0
0
VERTEX
8
Layer 1
10
803.387759
20
110.527902
70
0
0
VERTEX
8
Layer 1
10
800.513617
20
109.504778
70
0
0
VERTEX
8
Layer 1
10
797.988074
20
109.138883
70
0
0
VERTEX
8
Layer 1
10
796.863885
20
109.197175
70
0
0
VERTEX
8
Layer 1
10
795.836276
20
109.413507
70
0
0
VERTEX
8
Layer 1
10
794.908388
20
109.785790
70
0
0
VERTEX
8
Layer 1
10
794.083367
20
110.311937
70
0
0
VERTEX
8
Layer 1
10
793.364354
20
110.989856
70
0
0
VERTEX
8
Layer 1
10
792.754493
20
111.817460
70
0
0
VERTEX
8
Layer 1
10
792.256928
20
112.792660
70
0
0
VERTEX
8
Layer 1
10
791.874802
20
113.913366
70
0
0
VERTEX
8
Layer 1
10
791.469437
20
116.582941
70
0
0
VERTEX
8
Layer 1
10
791.563544
20
119.809474
70
0
0
VERTEX
8
Layer 1
10
781.210412
20
112.345588
70
0
0
VERTEX
8
Layer 1
10
779.632422
20
111.292284
70
0
0
VERTEX
8
Layer 1
10
778.008296
20
110.406566
70
0
0
VERTEX
8
Layer 1
10
776.338529
20
109.682637
70
0
0
VERTEX
8
Layer 1
10
774.623618
20
109.114698
70
0
0
VERTEX
8
Layer 1
10
772.864058
20
108.696952
70
0
0
VERTEX
8
Layer 1
10
771.060346
20
108.423599
70
0
0
VERTEX
8
Layer 1
10
767.322450
20
108.286884
70
0
0
VERTEX
8
Layer 1
10
765.238931
20
108.517061
70
0
0
VERTEX
8
Layer 1
10
763.431178
20
109.052770
70
0
0
VERTEX
8
Layer 1
10
761.913764
20
109.879064
70
0
0
VERTEX
8
Layer 1
10
760.701260
20
110.981001
70
0
0
VERTEX
8
Layer 1
10
759.808241
20
112.343634
70
0
0
VERTEX
8
Layer 1
10
759.249278
20
113.952020
70
0
0
VERTEX
8
Layer 1
10
759.038945
20
115.791213
70
0
0
VERTEX
8
Layer 1
10
759.191814
20
117.846268
70
0
0
VERTEX
8
Layer 1
10
759.615147
20
121.301722
70
0
0
VERTEX
8
Layer 1
10
754.050967
20
117.519839
70
0
0
VERTEX
8
Layer 1
10
751.352964
20
115.817041
70
0
0
VERTEX
8
Layer 1
10
748.574099
20
114.414627
70
0
0
VERTEX
8
Layer 1
10
745.958241
20
113.469445
70
0
0
VERTEX
8
Layer 1
10
743.210670
20
112.786449
70
0
0
VERTEX
8
Layer 1
10
740.409026
20
112.385730
70
0
0
VERTEX
8
Layer 1
10
737.630946
20
112.287379
70
0
0
VERTEX
8
Layer 1
10
735.924365
20
112.459503
70
0
0
VERTEX
8
Layer 1
10
734.516804
20
112.889967
70
0
0
VERTEX
8
Layer 1
10
733.401442
20
113.568974
70
0
0
VERTEX
8
Layer 1
10
732.571457
20
114.486726
70
0
0
VERTEX
8
Layer 1
10
732.020029
20
115.633424
70
0
0
VERTEX
8
Layer 1
10
731.740336
20
116.999272
70
0
0
VERTEX
8
Layer 1
10
731.725556
20
118.574471
70
0
0
VERTEX
8
Layer 1
10
731.968869
20
120.349223
70
0
0
VERTEX
8
Layer 1
10
732.025755
20
121.396972
70
0
0
VERTEX
8
Layer 1
10
731.987390
20
122.809845
70
0
0
VERTEX
8
Layer 1
10
722.578819
20
115.205730
70
0
0
VERTEX
8
Layer 1
10
720.025676
20
113.325413
70
0
0
VERTEX
8
Layer 1
10
717.308325
20
111.867023
70
0
0
VERTEX
8
Layer 1
10
715.873655
20
111.329305
70
0
0
VERTEX
8
Layer 1
10
714.380632
20
110.936973
70
0
0
VERTEX
8
Layer 1
10
712.823489
20
110.703328
70
0
0
VERTEX
8
Layer 1
10
711.196458
20
110.641673
70
0
0
VERTEX
8
Layer 1
10
709.291042
20
110.838617
70
0
0
VERTEX
8
Layer 1
10
707.713512
20
111.345092
70
0
0
VERTEX
8
Layer 1
10
706.456893
20
112.138743
70
0
0
VERTEX
8
Layer 1
10
705.514208
20
113.197214
70
0
0
VERTEX
8
Layer 1
10
704.878480
20
114.498151
70
0
0
VERTEX
8
Layer 1
10
704.542733
20
116.019199
70
0
0
VERTEX
8
Layer 1
10
704.499992
20
117.738001
70
0
0
VERTEX
8
Layer 1
10
704.743279
20
119.632203
70
0
0
VERTEX
8
Layer 1
10
705.374738
20
122.045361
70
0
0
VERTEX
8
Layer 1
10
706.261779
20
124.252608
70
0
0
VERTEX
8
Layer 1
10
707.366790
20
126.286905
70
0
0
VERTEX
8
Layer 1
10
708.652162
20
128.181211
70
0
0
VERTEX
8
Layer 1
10
711.613548
20
131.681685
70
0
0
VERTEX
8
Layer 1
10
714.845058
20
135.017705
70
0
0
VERTEX
8
Layer 1
10
718.914220
20
139.120726
70
0
0
VERTEX
8
Layer 1
10
723.171154
20
142.965778
70
0
0
VERTEX
8
Layer 1
10
725.442046
20
144.714052
70
0
0
VERTEX
8
Layer 1
10
727.846294
20
146.304816
70
0
0
VERTEX
8
Layer 1
10
730.412703
20
147.707064
70
0
0
VERTEX
8
Layer 1
10
733.170076
20
148.889792
70
0
0
VERTEX
8
Layer 1
10
735.030121
20
149.443519
70
0
0
VERTEX
8
Layer 1
10
736.839719
20
149.728396
70
0
0
VERTEX
8
Layer 1
10
738.607459
20
149.784387
70
0
0
VERTEX
8
Layer 1
10
740.341929
20
149.651460
70
0
0
VERTEX
8
Layer 1
10
743.745417
20
148.978716
70
0
0
VERTEX
8
Layer 1
10
747.118892
20
148.029897
70
0
0
VERTEX
8
Layer 1
10
747.843643
20
147.432146
70
0
0
VERTEX
8
Layer 1
10
748.479841
20
146.297870
70
0
0
VERTEX
8
Layer 1
10
748.875434
20
144.990458
70
0
0
VERTEX
8
Layer 1
10
748.878369
20
143.873298
70
0
0
VERTEX
8
Layer 1
10
747.851167
20
140.454803
70
0
0
VERTEX
8
Layer 1
10
746.687291
20
137.073515
70
0
0
VERTEX
8
Layer 1
10
744.216417
20
130.353107
70
0
0
VERTEX
8
Layer 1
10
743.062835
20
127.438725
70
0
0
VERTEX
8
Layer 1
10
742.004503
20
124.500531
70
0
0
VERTEX
8
Layer 1
10
741.742896
20
122.614054
70
0
0
VERTEX
8
Layer 1
10
741.673774
20
120.672015
70
0
0
VERTEX
8
Layer 1
10
743.650870
20
120.711041
70
0
0
VERTEX
8
Layer 1
10
744.602708
20
120.798518
70
0
0
VERTEX
8
Layer 1
10
745.449373
20
121.079472
70
0
0
VERTEX
8
Layer 1
10
751.827808
20
124.763129
70
0
0
VERTEX
8
Layer 1
10
758.226086
20
128.403130
70
0
0
VERTEX
8
Layer 1
10
761.063739
20
130.135363
70
0
0
VERTEX
8
Layer 1
10
763.500549
20
132.200227
70
0
0
VERTEX
8
Layer 1
10
765.548421
20
134.656508
70
0
0
VERTEX
8
Layer 1
10
767.219263
20
137.562993
70
0
0
VERTEX
8
Layer 1
10
768.127774
20
139.078889
70
0
0
VERTEX
8
Layer 1
10
769.306161
20
140.480682
70
0
0
VERTEX
8
Layer 1
10
770.654211
20
141.764406
70
0
0
VERTEX
8
Layer 1
10
772.071715
20
142.926091
70
0
0
VERTEX
8
Layer 1
10
774.079125
20
144.238789
70
0
0
VERTEX
8
Layer 1
10
775.987130
20
145.006995
70
0
0
VERTEX
8
Layer 1
10
777.770988
20
145.241342
70
0
0
VERTEX
8
Layer 1
10
779.405956
20
144.952466
70
0
0
VERTEX
8
Layer 1
10
780.867291
20
144.151002
70
0
0
VERTEX
8
Layer 1
10
782.130251
20
142.847584
70
0
0
VERTEX
8
Layer 1
10
783.170093
20
141.052848
70
0
0
VERTEX
8
Layer 1
10
783.962075
20
138.777429
70
0
0
VERTEX
8
Layer 1
10
784.086145
20
137.930314
70
0
0
VERTEX
8
Layer 1
10
783.988244
20
137.274474
70
0
0
VERTEX
8
Layer 1
10
783.710323
20
136.789600
70
0
0
VERTEX
8
Layer 1
10
783.294333
20
136.455383
70
0
0
VERTEX
8
Layer 1
10
782.215951
20
136.157686
70
0
0
VERTEX
8
Layer 1
10
781.088703
20
136.218912
70
0
0
VERTEX
8
Layer 1
10
779.797249
20
136.342759
70
0
0
VERTEX
8
Layer 1
10
778.651894
20
136.236854
70
0
0
VERTEX
8
Layer 1
10
777.638500
20
135.926186
70
0
0
VERTEX
8
Layer 1
10
776.742928
20
135.435746
70
0
0
VERTEX
8
Layer 1
10
775.951039
20
134.790525
70
0
0
VERTEX
8
Layer 1
10
775.248695
20
134.015514
70
0
0
VERTEX
8
Layer 1
10
774.056087
20
132.176083
70
0
0
VERTEX
8
Layer 1
10
770.788157
20
125.829068
70
0
0
VERTEX
8
Layer 1
10
767.772241
20
119.357037
70
0
0
VERTEX
8
Layer 1
10
767.562683
20
118.523518
70
0
0
VERTEX
8
Layer 1
10
767.546353
20
117.550597
70
0
0
VERTEX
8
Layer 1
10
767.719035
20
116.669949
70
0
0
VERTEX
8
Layer 1
10
768.076512
20
116.113250
70
0
0
VERTEX
8
Layer 1
10
768.788736
20
115.842465
70
0
0
VERTEX
8
Layer 1
10
769.698405
20
115.798396
70
0
0
VERTEX
8
Layer 1
10
770.643793
20
115.948795
70
0
0
VERTEX
8
Layer 1
10
771.463174
20
116.261416
70
0
0
VERTEX
8
Layer 1
10
780.410710
20
121.394988
70
0
0
VERTEX
8
Layer 1
10
784.890430
20
123.945402
70
0
0
VERTEX
8
Layer 1
10
789.449526
20
126.334091
70
0
0
VERTEX
8
Layer 1
10
792.071373
20
127.783499
70
0
0
VERTEX
8
Layer 1
10
794.434229
20
129.424338
70
0
0
VERTEX
8
Layer 1
10
796.546991
20
131.255552
70
0
0
VERTEX
8
Layer 1
10
798.418559
20
133.276087
70
0
0
VERTEX
8
Layer 1
10
800.057832
20
135.484890
70
0
0
VERTEX
8
Layer 1
10
801.473707
20
137.880906
70
0
0
VERTEX
8
Layer 1
10
802.675085
20
140.463081
70
0
0
VERTEX
8
Layer 1
10
803.670862
20
143.230361
70
0
0
VERTEX
8
Layer 1
10
804.353817
20
144.722940
70
0
0
VERTEX
8
Layer 1
10
805.268944
20
146.114316
70
0
0
VERTEX
8
Layer 1
10
806.560440
20
147.493124
70
0
0
VERTEX
8
Layer 1
10
807.276633
20
147.946946
70
0
0
VERTEX
8
Layer 1
10
808.032513
20
148.232964
70
0
0
VERTEX
8
Layer 1
10
808.822624
20
148.343118
70
0
0
VERTEX
8
Layer 1
10
809.641509
20
148.269344
70
0
0
VERTEX
8
Layer 1
10
810.483709
20
148.003583
70
0
0
VERTEX
8
Layer 1
10
811.343770
20
147.537772
70
0
0
VERTEX
8
Layer 1
10
812.139813
20
146.905362
70
0
0
VERTEX
8
Layer 1
10
812.687190
20
146.227466
70
0
0
VERTEX
8
Layer 1
10
813.007852
20
145.508457
70
0
0
VERTEX
8
Layer 1
10
813.123752
20
144.752706
70
0
0
VERTEX
8
Layer 1
10
813.056841
20
143.964584
70
0
0
VERTEX
8
Layer 1
10
812.829072
20
143.148465
70
0
0
VERTEX
8
Layer 1
10
811.978769
20
141.449718
70
0
0
VERTEX
8
Layer 1
10
806.543242
20
132.481677
70
0
0
VERTEX
8
Layer 1
10
801.228761
20
123.442199
70
0
0
VERTEX
8
Layer 1
10
800.279239
20
121.226316
70
0
0
VERTEX
8
Layer 1
10
799.292014
20
118.303997
70
0
0
VERTEX
8
Layer 1
10
799.292014
20
118.303997
70
0
0
SEQEND
8
Layer 1
0
POLYLINE
8
Layer 1
62
7
70
0
10
0.000000
20
0.000000
66
1
0
VERTEX
8
Layer 1
10
886.797549
20
97.822627
70
0
0
VERTEX
8
Layer 1
10
885.543426
20
98.634897
70
0
0
VERTEX
8
Layer 1
10
882.717680
20
96.467962
70
0
0
VERTEX
8
Layer 1
10
875.052173
20
89.387183
70
0
0
VERTEX
8
Layer 1
10
871.359550
20
85.716120
70
0
0
VERTEX
8
Layer 1
10
867.780316
20
81.944009
70
0
0
VERTEX
8
Layer 1
10
864.329445
20
78.060401
70
0
0
VERTEX
8
Layer 1
10
861.021915
20
74.054846
70
0
0
VERTEX
8
Layer 1
10
857.872700
20
69.916898
70
0
0
VERTEX
8
Layer 1
10
854.896777
20
65.636105
70
0
0
VERTEX
8
Layer 1
10
851.652493
20
60.336797
70
0
0
VERTEX
8
Layer 1
10
848.688998
20
54.852694
70
0
0
VERTEX
8
Layer 1
10
843.096375
20
43.686299
70
0
0
VERTEX
8
Layer 1
10
842.824186
20
42.682455
70
0
0
VERTEX
8
Layer 1
10
842.823855
20
41.541192
70
0
0
VERTEX
8
Layer 1
10
843.011709
20
39.161930
70
0
0
VERTEX
8
Layer 1
10
845.031139
20
39.667614
70
0
0
VERTEX
8
Layer 1
10
846.991037
20
40.310220
70
0
0
VERTEX
8
Layer 1
10
849.686383
20
41.690454
70
0
0
VERTEX
8
Layer 1
10
852.168348
20
43.313402
70
0
0
VERTEX
8
Layer 1
10
854.463409
20
45.143965
70
0
0
VERTEX
8
Layer 1
10
856.598046
20
47.147045
70
0
0
VERTEX
8
Layer 1
10
858.598738
20
49.287542
70
0
0
VERTEX
8
Layer 1
10
860.491963
20
51.530358
70
0
0
VERTEX
8
Layer 1
10
864.061932
20
56.182554
70
0
0
VERTEX
8
Layer 1
10
867.830132
20
61.491371
70
0
0
VERTEX
8
Layer 1
10
871.403118
20
66.948767
70
0
0
VERTEX
8
Layer 1
10
874.792054
20
72.525722
70
0
0
VERTEX
8
Layer 1
10
878.008102
20
78.193214
70
0
0
VERTEX
8
Layer 1
10
880.424365
20
82.979272
70
0
0
VERTEX
8
Layer 1
10
882.606224
20
87.894811
70
0
0
VERTEX
8
Layer 1
10
886.797549
20
97.822627
70
0
0
VERTEX
8
Layer 1
10
886.797549
20
97.822627
70
0
0
SEQEND
8
Layer 1
0
POLYLINE
8
Layer 1
62
7
70
0
10
0.000000
20
0.000000
66
1
0
VERTEX
8
Layer 1
10
872.610609
20
120.179890
70
0
0
VERTEX
8
Layer 1
10
873.343504
20
119.394079
70
0
0
VERTEX
8
Layer 1
10
875.857042
20
120.936267
70
0
0
VERTEX
8
Layer 1
10
877.066435
20
121.753374
70
0
0
VERTEX
8
Layer 1
10
878.140394
20
122.698720
70
0
0
VERTEX
8
Layer 1
10
884.351810
20
129.468738
70
0
0
VERTEX
8
Layer 1
10
890.430274
20
136.361787
70
0
0
VERTEX
8
Layer 1
10
892.520480
20
138.923611
70
0
0
VERTEX
8
Layer 1
10
894.428123
20
141.624342
70
0
0
VERTEX
8
Layer 1
10
894.671540
20
142.208905
70
0
0
VERTEX
8
Layer 1
10
894.799862
20
142.923445
70
0
0
VERTEX
8
Layer 1
10
894.797216
20
143.560594
70
0
0
VERTEX
8
Layer 1
10
894.647727
20
143.912985
70
0
0
VERTEX
8
Layer 1
10
894.064611
20
144.167150
70
0
0
VERTEX
8
Layer 1
10
893.395919
20
144.297292
70
0
0
VERTEX
8
Layer 1
10
892.023064
20
144.249006
70
0
0
VERTEX
8
Layer 1
10
891.081148
20
143.781686
70
0
0
VERTEX
8
Layer 1
10
890.210670
20
143.050445
70
0
0
VERTEX
8
Layer 1
10
887.688610
20
140.870668
70
0
0
VERTEX
8
Layer 1
10
885.285582
20
138.592511
70
0
0
VERTEX
8
Layer 1
10
883.004282
20
136.214080
70
0
0
VERTEX
8
Layer 1
10
880.847408
20
133.733485
70
0
0
VERTEX
8
Layer 1
10
878.817659
20
131.148835
70
0
0
VERTEX
8
Layer 1
10
876.917731
20
128.458238
70
0
0
VERTEX
8
Layer 1
10
875.150322
20
125.659802
70
0
0
VERTEX
8
Layer 1
10
873.518129
20
122.751637
70
0
0
VERTEX
8
Layer 1
10
873.017736
20
121.488584
70
0
0
VERTEX
8
Layer 1
10
872.610609
20
120.179890
70
0
0
VERTEX
8
Layer 1
10
872.610609
20
120.179890
70
0
0
SEQEND
8
Layer 1
0
POLYLINE
8
Layer 1
62
7
70
0
10
0.000000
20
0.000000
66
1
0
VERTEX
8
Layer 1
10
739.191985
20
143.976485
70
0
0
VERTEX
8
Layer 1
10
737.814420
20
143.840540
70
0
0
VERTEX
8
Layer 1
10
736.259517
20
143.379060
70
0
0
VERTEX
8
Layer 1
10
734.563134
20
142.626180
70
0
0
VERTEX
8
Layer 1
10
732.761130
20
141.616033
70
0
0
VERTEX
8
Layer 1
10
728.983691
20
138.960472
70
0
0
VERTEX
8
Layer 1
10
725.214066
20
135.685446
70
0
0
VERTEX
8
Layer 1
10
721.739119
20
132.064023
70
0
0
VERTEX
8
Layer 1
10
718.845718
20
128.369272
70
0
0
VERTEX
8
Layer 1
10
717.706743
20
126.579731
70
0
0
VERTEX
8
Layer 1
10
716.820728
20
124.874259
70
0
0
VERTEX
8
Layer 1
10
716.223533
20
123.286989
70
0
0
VERTEX
8
Layer 1
10
715.951015
20
121.852055
70
0
0
VERTEX
8
Layer 1
10
717.098246
20
122.407451
70
0
0
VERTEX
8
Layer 1
10
718.487167
20
123.264468
70
0
0
VERTEX
8
Layer 1
10
721.817812
20
125.719390
70
0
0
VERTEX
8
Layer 1
10
725.598414
20
128.888872
70
0
0
VERTEX
8
Layer 1
10
729.484435
20
132.444966
70
0
0
VERTEX
8
Layer 1
10
733.131340
20
136.059723
70
0
0
VERTEX
8
Layer 1
10
736.194591
20
139.405194
70
0
0
VERTEX
8
Layer 1
10
738.329652
20
142.153431
70
0
0
VERTEX
8
Layer 1
10
738.941443
20
143.201103
70
0
0
VERTEX
8
Layer 1
10
739.191985
20
143.976485
70
0
0
VERTEX
8
Layer 1
10
739.191985
20
143.976485
70
0
0
SEQEND
8
Layer 1
0
POLYLINE
8
Layer 1
62
7
70
0
10
0.000000
20
0.000000
66
1
0
VERTEX
8
Layer 1
10
368.198994
20
140.925843
70
0
0
VERTEX
8
Layer 1
10
365.587230
20
139.184556
70
0
0
VERTEX
8
Layer 1
10
364.582848
20
138.469066
70
0
0
VERTEX
8
Layer 1
10
363.759292
20
137.711160
70
0
0
VERTEX
8
Layer 1
10
342.648214
20
114.089190
70
0
0
VERTEX
8
Layer 1
10
341.360594
20
112.826328
70
0
0
VERTEX
8
Layer 1
10
340.062990
20
111.939659
70
0
0
VERTEX
8
Layer 1
10
338.787338
20
111.433309
70
0
0
VERTEX
8
Layer 1
10
337.565575
20
111.311399
70
0
0
VERTEX
8
Layer 1
10
336.429635
20
111.578054
70
0
0
VERTEX
8
Layer 1
10
335.411456
20
112.237398
70
0
0
VERTEX
8
Layer 1
10
334.542972
20
113.293554
70
0
0
VERTEX
8
Layer 1
10
333.856121
20
114.750647
70
0
0
VERTEX
8
Layer 1
10
333.669466
20
115.885832
70
0
0
VERTEX
8
Layer 1
10
333.771785
20
117.126933
70
0
0
VERTEX
8
Layer 1
10
334.316495
20
119.656016
70
0
0
VERTEX
8
Layer 1
10
335.010695
20
122.180138
70
0
0
VERTEX
8
Layer 1
10
335.821973
20
124.680447
70
0
0
VERTEX
8
Layer 1
10
334.459370
20
125.498009
70
0
0
VERTEX
8
Layer 1
10
332.200162
20
122.870369
70
0
0
VERTEX
8
Layer 1
10
330.101688
20
120.137557
70
0
0
VERTEX
8
Layer 1
10
327.511090
20
115.678011
70
0
0
VERTEX
8
Layer 1
10
326.223604
20
113.449229
70
0
0
VERTEX
8
Layer 1
10
324.799445
20
111.321651
70
0
0
VERTEX
8
Layer 1
10
323.952325
20
110.549979
70
0
0
VERTEX
8
Layer 1
10
322.792914
20
109.930606
70
0
0
VERTEX
8
Layer 1
10
321.602249
20
109.595991
70
0
0
VERTEX
8
Layer 1
10
320.661367
20
109.678591
70
0
0
VERTEX
8
Layer 1
10
319.714738
20
110.363034
70
0
0
VERTEX
8
Layer 1
10
318.902551
20
111.377875
70
0
0
VERTEX
8
Layer 1
10
318.254075
20
112.570318
70
0
0
VERTEX
8
Layer 1
10
317.798579
20
113.787565
70
0
0
VERTEX
8
Layer 1
10
317.728382
20
114.680119
70
0
0
VERTEX
8
Layer 1
10
317.931532
20
115.663458
70
0
0
VERTEX
8
Layer 1
10
318.711390
20
117.618727
70
0
0
VERTEX
8
Layer 1
10
328.424232
20
139.015554
70
0
0
VERTEX
8
Layer 1
10
329.033434
20
140.429750
70
0
0
VERTEX
8
Layer 1
10
329.406496
20
141.058962
70
0
0
VERTEX
8
Layer 1
10
329.884730
20
141.510572
70
0
0
VERTEX
8
Layer 1
10
332.125418
20
142.693588
70
0
0
VERTEX
8
Layer 1
10
333.299959
20
143.070661
70
0
0
VERTEX
8
Layer 1
10
334.451433
20
143.172153
70
0
0
VERTEX
8
Layer 1
10
335.037195
20
142.805292
70
0
0
VERTEX
8
Layer 1
10
335.597408
20
141.953748
70
0
0
VERTEX
8
Layer 1
10
336.626305
20
139.862220
70
0
0
VERTEX
8
Layer 1
10
336.971255
20
138.798927
70
0
0
VERTEX
8
Layer 1
10
337.306283
20
137.261369
70
0
0
VERTEX
8
Layer 1
10
341.414513
20
139.526861
70
0
0
VERTEX
8
Layer 1
10
343.465807
20
140.497632
70
0
0
VERTEX
8
Layer 1
10
345.512325
20
141.121635
70
0
0
VERTEX
8
Layer 1
10
346.533116
20
141.247632
70
0
0
VERTEX
8
Layer 1
10
347.551898
20
141.219778
70
0
0
VERTEX
8
Layer 1
10
348.568402
20
141.015688
70
0
0
VERTEX
8
Layer 1
10
349.582356
20
140.612974
70
0
0
VERTEX
8
Layer 1
10
350.593488
20
139.989250
70
0
0
VERTEX
8
Layer 1
10
351.601527
20
139.122131
70
0
0
VERTEX
8
Layer 1
10
352.606202
20
137.989230
70
0
0
VERTEX
8
Layer 1
10
353.607242
20
136.568161
70
0
0
VERTEX
8
Layer 1
10
357.556474
20
140.355005
70
0
0
VERTEX
8
Layer 1
10
361.452128
20
143.883881
70
0
0
VERTEX
8
Layer 1
10
366.565856
20
148.087444
70
0
0
VERTEX
8
Layer 1
10
369.213505
20
150.057264
70
0
0
VERTEX
8
Layer 1
10
371.969302
20
151.842538
70
0
0
VERTEX
8
Layer 1
10
373.339222
20
152.334207
70
0
0
VERTEX
8
Layer 1
10
374.959421
20
152.454055
70
0
0
VERTEX
8
Layer 1
10
376.613850
20
152.252931
70
0
0
VERTEX
8
Layer 1
10
378.086461
20
151.781684
70
0
0
VERTEX
8
Layer 1
10
378.359478
20
151.519230
70
0
0
VERTEX
8
Layer 1
10
378.578420
20
151.036883
70
0
0
VERTEX
8
Layer 1
10
378.837215
20
149.635254
70
0
0
VERTEX
8
Layer 1
10
378.829113
20
148.022290
70
0
0
VERTEX
8
Layer 1
10
378.520377
20
146.643482
70
0
0
VERTEX
8
Layer 1
10
371.826427
20
131.283116
70
0
0
VERTEX
8
Layer 1
10
364.997540
20
115.978312
70
0
0
VERTEX
8
Layer 1
10
361.364816
20
107.342323
70
0
0
VERTEX
8
Layer 1
10
362.359648
20
106.471845
70
0
0
VERTEX
8
Layer 1
10
365.827669
20
108.866652
70
0
0
VERTEX
8
Layer 1
10
369.204410
20
111.374568
70
0
0
VERTEX
8
Layer 1
10
375.478004
20
116.796866
70
0
0
VERTEX
8
Layer 1
10
378.625590
20
119.488295
70
0
0
VERTEX
8
Layer 1
10
381.880581
20
122.034617
70
0
0
VERTEX
8
Layer 1
10
384.628565
20
124.399658
70
0
0
VERTEX
8
Layer 1
10
386.858380
20
127.058387
70
0
0
VERTEX
8
Layer 1
10
388.663043
20
130.029654
70
0
0
VERTEX
8
Layer 1
10
390.135571
20
133.332311
70
0
0
VERTEX
8
Layer 1
10
391.893601
20
137.475061
70
0
0
VERTEX
8
Layer 1
10
393.857262
20
141.538684
70
0
0
VERTEX
8
Layer 1
10
397.946061
20
149.604166
70
0
0
VERTEX
8
Layer 1
10
398.794794
20
150.908105
70
0
0
VERTEX
8
Layer 1
10
399.862304
20
151.739020
70
0
0
VERTEX
8
Layer 1
10
401.174883
20
152.059455
70
0
0
VERTEX
8
Layer 1
10
402.758826
20
151.831955
70
0
0
VERTEX
8
Layer 1
10
404.307629
20
151.226018
70
0
0
VERTEX
8
Layer 1
10
404.848556
20
150.848434
70
0
0
VERTEX
8
Layer 1
10
405.217463
20
150.393615
70
0
0
VERTEX
8
Layer 1
10
405.402072
20
149.840942
70
0
0
VERTEX
8
Layer 1
10
405.390104
20
149.169795
70
0
0
VERTEX
8
Layer 1
10
405.169280
20
148.359556
70
0
0
VERTEX
8
Layer 1
10
404.727323
20
147.389606
70
0
0
VERTEX
8
Layer 1
10
400.076946
20
137.987318
70
0
0
VERTEX
8
Layer 1
10
395.678585
20
128.456047
70
0
0
VERTEX
8
Layer 1
10
395.070044
20
126.422395
70
0
0
VERTEX
8
Layer 1
10
394.652003
20
124.299448
70
0
0
VERTEX
8
Layer 1
10
395.411356
20
123.648573
70
0
0
VERTEX
8
Layer 1
10
398.147475
20
125.565146
70
0
0
VERTEX
8
Layer 1
10
400.750641
20
127.622610
70
0
0
VERTEX
8
Layer 1
10
421.369594
20
147.167356
70
0
0
VERTEX
8
Layer 1
10
423.179879
20
148.619421
70
0
0
VERTEX
8
Layer 1
10
424.111330
20
149.117188
70
0
0
VERTEX
8
Layer 1
10
425.068795
20
149.437478
70
0
0
VERTEX
8
Layer 1
10
426.058630
20
149.561316
70
0
0
VERTEX
8
Layer 1
10
427.087191
20
149.469724
70
0
0
VERTEX
8
Layer 1
10
428.160835
20
149.143729
70
0
0
VERTEX
8
Layer 1
10
429.285918
20
148.564354
70
0
0
VERTEX
8
Layer 1
10
430.096792
20
147.976138
70
0
0
VERTEX
8
Layer 1
10
430.679526
20
147.359551
70
0
0
VERTEX
8
Layer 1
10
431.048319
20
146.713261
70
0
0
VERTEX
8
Layer 1
10
431.217373
20
146.035933
70
0
0
VERTEX
8
Layer 1
10
431.200889
20
145.326236
70
0
0
VERTEX
8
Layer 1
10
431.013066
20
144.582835
70
0
0
VERTEX
8
Layer 1
10
430.180208
20
142.989591
70
0
0
VERTEX
8
Layer 1
10
422.314155
20
130.665315
70
0
0
VERTEX
8
Layer 1
10
421.598789
20
128.990835
70
0
0
VERTEX
8
Layer 1
10
421.179094
20
127.183402
70
0
0
VERTEX
8
Layer 1
10
420.923880
20
125.301184
70
0
0
VERTEX
8
Layer 1
10
420.945641
20
123.759037
70
0
0
VERTEX
8
Layer 1
10
421.249741
20
122.555225
70
0
0
VERTEX
8
Layer 1
10
421.841544
20
121.688013
70
0
0
VERTEX
8
Layer 1
10
422.726414
20
121.155664
70
0
0
VERTEX
8
Layer 1
10
423.909715
20
120.956441
70
0
0
VERTEX
8
Layer 1
10
425.396811
20
121.088609
70
0
0
VERTEX
8
Layer 1
10
427.193066
20
121.550430
70
0
0
VERTEX
8
Layer 1
10
436.979991
20
124.846473
70
0
0
VERTEX
8
Layer 1
10
446.671666
20
128.408422
70
0
0
VERTEX
8
Layer 1
10
447.613830
20
128.932089
70
0
0
VERTEX
8
Layer 1
10
448.488029
20
129.706532
70
0
0
VERTEX
8
Layer 1
10
449.229275
20
130.632283
70
0
0
VERTEX
8
Layer 1
10
449.772579
20
131.609876
70
0
0
VERTEX
8
Layer 1
10
458.401954
20
151.550504
70
0
0
VERTEX
8
Layer 1
10
466.840829
20
171.572492
70
0
0
VERTEX
8
Layer 1
10
475.760583
20
193.533212
70
0
0
VERTEX
8
Layer 1
10
484.517619
20
215.559416
70
0
0
VERTEX
8
Layer 1
10
485.461725
20
217.253491
70
0
0
VERTEX
8
Layer 1
10
486.042873
20
217.867830
70
0
0
VERTEX
8
Layer 1
10
486.694806
20
218.330923
70
0
0
VERTEX
8
Layer 1
10
487.416069
20
218.645684
70
0
0
VERTEX
8
Layer 1
10
488.205203
20
218.815027
70
0
0
VERTEX
8
Layer 1
10
489.981258
20
218.729120
70
0
0
VERTEX
8
Layer 1
10
490.938500
20
218.440420
70
0
0
VERTEX
8
Layer 1
10
491.697988
20
217.996597
70
0
0
VERTEX
8
Layer 1
10
492.270324
20
217.423853
70
0
0
VERTEX
8
Layer 1
10
492.666114
20
216.748386
70
0
0
VERTEX
8
Layer 1
10
492.895960
20
215.996396
70
0
0
VERTEX
8
Layer 1
10
492.970467
20
215.194085
70
0
0
VERTEX
8
Layer 1
10
492.695879
20
213.543293
70
0
0
VERTEX
8
Layer 1
10
490.185979
20
206.836445
70
0
0
VERTEX
8
Layer 1
10
487.396282
20
200.226831
70
0
0
VERTEX
8
Layer 1
10
471.544122
20
162.941464
70
0
0
VERTEX
8
Layer 1
10
455.773322
20
125.622363
70
0
0
VERTEX
8
Layer 1
10
454.938769
20
123.177574
70
0
0
VERTEX
8
Layer 1
10
454.337628
20
120.635304
70
0
0
VERTEX
8
Layer 1
10
453.296825
20
115.483542
70
0
0
VERTEX
8
Layer 1
10
454.498032
20
114.668626
70
0
0
VERTEX
8
Layer 1
10
458.472068
20
117.099813
70
0
0
VERTEX
8
Layer 1
10
460.414686
20
118.365884
70
0
0
VERTEX
8
Layer 1
10
462.231793
20
119.775078
70
0
0
VERTEX
8
Layer 1
10
474.786256
20
130.878635
70
0
0
VERTEX
8
Layer 1
10
487.181970
20
142.158800
70
0
0
VERTEX
8
Layer 1
10
488.869926
20
143.613826
70
0
0
VERTEX
8
Layer 1
10
490.629321
20
144.929356
70
0
0
VERTEX
8
Layer 1
10
492.456432
20
146.103066
70
0
0
VERTEX
8
Layer 1
10
494.347539
20
147.132630
70
0
0
VERTEX
8
Layer 1
10
496.298921
20
148.015722
70
0
0
VERTEX
8
Layer 1
10
498.306858
20
148.750017
70
0
0
VERTEX
8
Layer 1
10
500.367629
20
149.333190
70
0
0
VERTEX
8
Layer 1
10
502.477513
20
149.762915
70
0
0
VERTEX
8
Layer 1
10
504.931107
20
149.867881
70
0
0
VERTEX
8
Layer 1
10
507.471517
20
149.499325
70
0
0
VERTEX
8
Layer 1
10
510.005974
20
148.810789
70
0
0
VERTEX
8
Layer 1
10
512.441709
20
147.955814
70
0
0
VERTEX
8
Layer 1
10
512.831193
20
147.690249
70
0
0
VERTEX
8
Layer 1
10
513.196184
20
147.226309
70
0
0
VERTEX
8
Layer 1
10
513.794389
20
145.901988
70
0
0
VERTEX
8
Layer 1
10
514.119744
20
144.380222
70
0
0
VERTEX
8
Layer 1
10
514.055665
20
143.058382
70
0
0
VERTEX
8
Layer 1
10
513.026933
20
139.733566
70
0
0
VERTEX
8
Layer 1
10
511.832506
20
136.454391
70
0
0
VERTEX
8
Layer 1
10
509.295817
20
129.937711
70
0
0
VERTEX
8
Layer 1
10
507.955704
20
126.504085
70
0
0
VERTEX
8
Layer 1
10
506.702903
20
123.042678
70
0
0
VERTEX
8
Layer 1
10
506.499154
20
122.193300
70
0
0
VERTEX
8
Layer 1
10
506.469905
20
121.486393
70
0
0
VERTEX
8
Layer 1
10
506.604119
20
120.927508
70
0
0
VERTEX
8
Layer 1
10
506.890757
20
120.522195
70
0
0
VERTEX
8
Layer 1
10
507.318782
20
120.276003
70
0
0
VERTEX
8
Layer 1
10
507.877156
20
120.194484
70
0
0
VERTEX
8
Layer 1
10
509.340796
20
120.547661
70
0
0
VERTEX
8
Layer 1
10
513.824816
20
122.677554
70
0
0
VERTEX
8
Layer 1
10
518.201680
20
125.037634
70
0
0
VERTEX
8
Layer 1
10
524.923742
20
128.851929
70
0
0
VERTEX
8
Layer 1
10
531.679539
20
132.596770
70
0
0
VERTEX
8
Layer 1
10
532.409457
20
132.783467
70
0
0
VERTEX
8
Layer 1
10
533.256453
20
132.746921
70
0
0
VERTEX
8
Layer 1
10
535.031805
20
132.520041
70
0
0
VERTEX
8
Layer 1
10
534.639230
20
130.918653
70
0
0
VERTEX
8
Layer 1
10
534.389985
20
130.188652
70
0
0
VERTEX
8
Layer 1
10
533.986702
20
129.662545
70
0
0
VERTEX
8
Layer 1
10
522.846766
20
121.232600
70
0
0
VERTEX
8
Layer 1
10
517.196306
20
117.136070
70
0
0
VERTEX
8
Layer 1
10
511.423064
20
113.229295
70
0
0
VERTEX
8
Layer 1
10
510.509829
20
112.758471
70
0
0
VERTEX
8
Layer 1
10
509.485903
20
112.429841
70
0
0
VERTEX
8
Layer 1
10
507.208918
20
112.118046
70
0
0
VERTEX
8
Layer 1
10
504.797988
20
112.131689
70
0
0
VERTEX
8
Layer 1
10
502.458992
20
112.308546
70
0
0
VERTEX
8
Layer 1
10
500.884832
20
112.576090
70
0
0
VERTEX
8
Layer 1
10
499.577228
20
113.061326
70
0
0
VERTEX
8
Layer 1
10
498.532864
20
113.755479
70
0
0
VERTEX
8
Layer 1
10
497.748422
20
114.649775
70
0
0
VERTEX
8
Layer 1
10
497.220584
20
115.735438
70
0
0
VERTEX
8
Layer 1
10
496.946033
20
117.003695
70
0
0
VERTEX
8
Layer 1
10
496.921451
20
118.445771
70
0
0
VERTEX
8
Layer 1
10
497.143520
20
120.052890
70
0
0
VERTEX
8
Layer 1
10
497.450436
20
122.931553
70
0
0
VERTEX
8
Layer 1
10
492.574833
20
118.901624
70
0
0
VERTEX
8
Layer 1
10
490.270232
20
117.080011
70
0
0
VERTEX
8
Layer 1
10
487.917510
20
115.449146
70
0
0
VERTEX
8
Layer 1
10
485.583682
20
114.032966
70
0
0
VERTEX
8
Layer 1
10
483.159316
20
112.731879
70
0
0
VERTEX
8
Layer 1
10
480.658056
20
111.645104
70
0
0
VERTEX
8
Layer 1
10
478.093544
20
110.871860
70
0
0
VERTEX
8
Layer 1
10
476.386327
20
110.609505
70
0
0
VERTEX
8
Layer 1
10
474.870137
20
110.636836
70
0
0
VERTEX
8
Layer 1
10
473.526898
20
110.952088
70
0
0
VERTEX
8
Layer 1
10
472.338533
20
111.553492
70
0
0
VERTEX
8
Layer 1
10
471.286965
20
112.439282
70
0
0
VERTEX
8
Layer 1
10
470.354119
20
113.607690
70
0
0
VERTEX
8
Layer 1
10
469.521917
20
115.056948
70
0
0
VERTEX
8
Layer 1
10
468.772284
20
116.785290
70
0
0
VERTEX
8
Layer 1
10
464.689107
20
112.718980
70
0
0
VERTEX
8
Layer 1
10
462.605599
20
110.794594
70
0
0
VERTEX
8
Layer 1
10
460.371774
20
109.115029
70
0
0
VERTEX
8
Layer 1
10
458.356230
20
107.981208
70
0
0
VERTEX
8
Layer 1
10
456.151675
20
107.075094
70
0
0
VERTEX
8
Layer 1
10
453.871714
20
106.490449
70
0
0
VERTEX
8
Layer 1
10
451.629952
20
106.321033
70
0
0
VERTEX
8
Layer 1
10
450.008973
20
106.561261
70
0
0
VERTEX
8
Layer 1
10
448.596880
20
107.141529
70
0
0
VERTEX
8
Layer 1
10
447.408587
20
108.017904
70
0
0
VERTEX
8
Layer 1
10
446.459008
20
109.146448
70
0
0
VERTEX
8
Layer 1
10
445.763056
20
110.483228
70
0
0
VERTEX
8
Layer 1
10
445.335646
20
111.984308
70
0
0
VERTEX
8
Layer 1
10
445.191691
20
113.605752
70
0
0
VERTEX
8
Layer 1
10
445.346106
20
115.303626
70
0
0
VERTEX
8
Layer 1
10
446.380625
20
121.015973
70
0
0
VERTEX
8
Layer 1
10
433.064163
20
114.713605
70
0
0
VERTEX
8
Layer 1
10
430.534419
20
113.595081
70
0
0
VERTEX
8
Layer 1
10
427.947128
20
112.631337
70
0
0
VERTEX
8
Layer 1
10
426.314074
20
112.198613
70
0
0
VERTEX
8
Layer 1
10
424.716626
20
111.968376
70
0
0
VERTEX
8
Layer 1
10
423.167757
20
111.932212
70
0
0
VERTEX
8
Layer 1
10
421.680438
20
112.081707
70
0
0
VERTEX
8
Layer 1
10
420.267641
20
112.408447
70
0
0
VERTEX
8
Layer 1
10
418.942340
20
112.904018
70
0
0
VERTEX
8
Layer 1
10
417.717504
20
113.560005
70
0
0
VERTEX
8
Layer 1
10
416.606108
20
114.367994
70
0
0
VERTEX
8
Layer 1
10
415.621122
20
115.319571
70
0
0
VERTEX
8
Layer 1
10
414.775519
20
116.406322
70
0
0
VERTEX
8
Layer 1
10
414.082271
20
117.619832
70
0
0
VERTEX
8
Layer 1
10
413.554350
20
118.951688
70
0
0
VERTEX
8
Layer 1
10
413.204727
20
120.393474
70
0
0
VERTEX
8
Layer 1
10
413.046376
20
121.936778
70
0
0
VERTEX
8
Layer 1
10
413.092268
20
123.573185
70
0
0
VERTEX
8
Layer 1
10
413.355375
20
125.294280
70
0
0
VERTEX
8
Layer 1
10
413.768125
20
129.138671
70
0
0
VERTEX
8
Layer 1
10
410.915920
20
126.516653
70
0
0
VERTEX
8
Layer 1
10
401.425328
20
116.197916
70
0
0
VERTEX
8
Layer 1
10
399.483288
20
114.509877
70
0
0
VERTEX
8
Layer 1
10
397.125740
20
112.997924
70
0
0
VERTEX
8
Layer 1
10
395.049291
20
112.034496
70
0
0
VERTEX
8
Layer 1
10
393.208610
20
111.638288
70
0
0
VERTEX
8
Layer 1
10
392.362516
20
111.658734
70
0
0
VERTEX
8
Layer 1
10
391.558366
20
111.827997
70
0
0
VERTEX
8
Layer 1
10
390.790493
20
112.148413
70
0
0
VERTEX
8
Layer 1
10
390.053230
20
112.622320
70
0
0
VERTEX
8
Layer 1
10
388.647870
20
114.039952
70
0
0
VERTEX
8
Layer 1
10
387.296957
20
116.099591
70
0
0
VERTEX
8
Layer 1
10
385.955160
20
118.819934
70
0
0
VERTEX
8
Layer 1
10
368.214869
20
101.434185
70
0
0
VERTEX
8
Layer 1
10
365.449646
20
98.652756
70
0
0
VERTEX
8
Layer 1
10
363.987040
20
97.397971
70
0
0
VERTEX
8
Layer 1
10
362.396689
20
96.415045
70
0
0
VERTEX
8
Layer 1
10
360.770951
20
95.805760
70
0
0
VERTEX
8
Layer 1
10
358.971332
20
95.444026
70
0
0
VERTEX
8
Layer 1
10
357.191060
20
95.409712
70
0
0
VERTEX
8
Layer 1
10
355.623364
20
95.782692
70
0
0
VERTEX
8
Layer 1
10
354.641669
20
96.319041
70
0
0
VERTEX
8
Layer 1
10
353.806754
20
97.005148
70
0
0
VERTEX
8
Layer 1
10
353.125753
20
97.822844
70
0
0
VERTEX
8
Layer 1
10
352.605795
20
98.753959
70
0
0
VERTEX
8
Layer 1
10
352.254014
20
99.780324
70
0
0
VERTEX
8
Layer 1
10
352.077539
20
100.883769
70
0
0
VERTEX
8
Layer 1
10
352.083502
20
102.046126
70
0
0
VERTEX
8
Layer 1
10
352.279035
20
103.249224
70
0
0
VERTEX
8
Layer 1
10
353.236826
20
106.208585
70
0
0
VERTEX
8
Layer 1
10
354.480366
20
109.080633
70
0
0
VERTEX
8
Layer 1
10
367.556058
20
137.520660
70
0
0
VERTEX
8
Layer 1
10
367.873557
20
138.791651
70
0
0
VERTEX
8
Layer 1
10
368.198994
20
140.925843
70
0
0
VERTEX
8
Layer 1
10
368.198994
20
140.925843
70
0
0
SEQEND
8
Layer 1
0
POLYLINE
8
Layer 1
62
7
70
0
10
0.000000
20
0.000000
66
1
0
VERTEX
8
Layer 1
10
480.945748
20
121.989638
70
0
0
VERTEX
8
Layer 1
10
481.985114
20
122.372323
70
0
0
VERTEX
8
Layer 1
10
483.302475
20
123.096634
70
0
0
VERTEX
8
Layer 1
10
486.581159
20
125.391059
70
0
0
VERTEX
8
Layer 1
10
490.401764
20
128.514766
70
0
0
VERTEX
8
Layer 1
10
494.384250
20
132.109607
70
0
0
VERTEX
8
Layer 1
10
498.148578
20
135.817433
70
0
0
VERTEX
8
Layer 1
10
501.314712
20
139.280096
70
0
0
VERTEX
8
Layer 1
10
503.502612
20
142.139447
70
0
0
VERTEX
8
Layer 1
10
504.110962
20
143.230960
70
0
0
VERTEX
8
Layer 1
10
504.332240
20
144.037339
70
0
0
VERTEX
8
Layer 1
10
502.962051
20
143.866967
70
0
0
VERTEX
8
Layer 1
10
501.449732
20
143.413042
70
0
0
VERTEX
8
Layer 1
10
499.823125
20
142.701824
70
0
0
VERTEX
8
Layer 1
10
498.110074
20
141.759569
70
0
0
VERTEX
8
Layer 1
10
494.536013
20
139.286984
70
0
0
VERTEX
8
Layer 1
10
490.950293
20
136.205352
70
0
0
VERTEX
8
Layer 1
10
487.575661
20
132.724737
70
0
0
VERTEX
8
Layer 1
10
484.634862
20
129.055203
70
0
0
VERTEX
8
Layer 1
10
482.350643
20
125.406815
70
0
0
VERTEX
8
Layer 1
10
481.524358
20
123.656196
70
0
0
VERTEX
8
Layer 1
10
480.945748
20
121.989638
70
0
0
VERTEX
8
Layer 1
10
480.945748
20
121.989638
70
0
0
SEQEND
8
Layer 1
0
POLYLINE
8
Layer 1
62
7
70
0
10
0.000000
20
0.000000
66
1
0
VERTEX
8
Layer 1
10
211.549983
20
202.444037
70
0
0
VERTEX
8
Layer 1
10
207.390739
20
200.829088
70
0
0
VERTEX
8
Layer 1
10
205.522452
20
200.045302
70
0
0
VERTEX
8
Layer 1
10
203.795056
20
199.136749
70
0
0
VERTEX
8
Layer 1
10
188.890103
20
189.939844
70
0
0
VERTEX
8
Layer 1
10
174.034760
20
180.663564
70
0
0
VERTEX
8
Layer 1
10
171.082014
20
178.768158
70
0
0
VERTEX
8
Layer 1
10
168.049892
20
177.033485
70
0
0
VERTEX
8
Layer 1
10
166.467779
20
176.379474
70
0
0
VERTEX
8
Layer 1
10
165.025626
20
176.031088
70
0
0
VERTEX
8
Layer 1
10
163.714814
20
175.988853
70
0
0
VERTEX
8
Layer 1
10
162.526722
20
176.253296
70
0
0
VERTEX
8
Layer 1
10
161.452732
20
176.824945
70
0
0
VERTEX
8
Layer 1
10
160.484224
20
177.704327
70
0
0
VERTEX
8
Layer 1
10
159.612578
20
178.891969
70
0
0
VERTEX
8
Layer 1
10
158.829175
20
180.388398
70
0
0
VERTEX
8
Layer 1
10
158.175216
20
181.953608
70
0
0
VERTEX
8
Layer 1
10
157.787007
20
183.212945
70
0
0
VERTEX
8
Layer 1
10
157.679526
20
184.232856
70
0
0
VERTEX
8
Layer 1
10
157.867746
20
185.079785
70
0
0
VERTEX
8
Layer 1
10
158.366646
20
185.820178
70
0
0
VERTEX
8
Layer 1
10
159.191199
20
186.520481
70
0
0
VERTEX
8
Layer 1
10
161.877171
20
188.066596
70
0
0
VERTEX
8
Layer 1
10
165.706762
20
190.256393
70
0
0
VERTEX
8
Layer 1
10
169.439615
20
192.630984
70
0
0
VERTEX
8
Layer 1
10
173.169491
20
195.012024
70
0
0
VERTEX
8
Layer 1
10
176.990152
20
197.221168
70
0
0
VERTEX
8
Layer 1
10
193.855665
20
206.460076
70
0
0
VERTEX
8
Layer 1
10
198.113513
20
208.670662
70
0
0
VERTEX
8
Layer 1
10
202.417033
20
210.752976
70
0
0
VERTEX
8
Layer 1
10
206.780766
20
212.662713
70
0
0
VERTEX
8
Layer 1
10
211.219255
20
214.355563
70
0
0
VERTEX
8
Layer 1
10
229.297880
20
220.690466
70
0
0
VERTEX
8
Layer 1
10
238.379795
20
223.748141
70
0
0
VERTEX
8
Layer 1
10
247.515412
20
226.629238
70
0
0
VERTEX
8
Layer 1
10
256.723707
20
229.256211
70
0
0
VERTEX
8
Layer 1
10
266.023654
20
231.551515
70
0
0
VERTEX
8
Layer 1
10
275.434231
20
233.437604
70
0
0
VERTEX
8
Layer 1
10
284.974412
20
234.836933
70
0
0
VERTEX
8
Layer 1
10
290.590930
20
235.325461
70
0
0
VERTEX
8
Layer 1
10
296.190085
20
235.343940
70
0
0
VERTEX
8
Layer 1
10
298.974315
20
235.118079
70
0
0
VERTEX
8
Layer 1
10
301.743600
20
234.704104
70
0
0
VERTEX
8
Layer 1
10
304.494405
20
234.078484
70
0
0
VERTEX
8
Layer 1
10
307.223196
20
233.217685
70
0
0
VERTEX
8
Layer 1
10
310.102521
20
231.989690
70
0
0
VERTEX
8
Layer 1
10
312.795314
20
230.410460
70
0
0
VERTEX
8
Layer 1
10
313.820403
20
229.583721
70
0
0
VERTEX
8
Layer 1
10
314.640078
20
228.672149
70
0
0
VERTEX
8
Layer 1
10
315.249347
20
227.686164
70
0
0
VERTEX
8
Layer 1
10
315.643220
20
226.636183
70
0
0
VERTEX
8
Layer 1
10
315.816702
20
225.532624
70
0
0
VERTEX
8
Layer 1
10
315.764804
20
224.385905
70
0
0
VERTEX
8
Layer 1
10
315.482532
20
223.206443
70
0
0
VERTEX
8
Layer 1
10
314.964895
20
222.004658
70
0
0
VERTEX
8
Layer 1
10
312.677533
20
218.190901
70
0
0
VERTEX
8
Layer 1
10
311.375025
20
216.423936
70
0
0
VERTEX
8
Layer 1
10
309.953362
20
214.767321
70
0
0
VERTEX
8
Layer 1
10
308.402591
20
213.233861
70
0
0
VERTEX
8
Layer 1
10
306.712758
20
211.836361
70
0
0
VERTEX
8
Layer 1
10
304.873911
20
210.587627
70
0
0
VERTEX
8
Layer 1
10
302.876098
20
209.500465
70
0
0
VERTEX
8
Layer 1
10
302.164700
20
209.278133
70
0
0
VERTEX
8
Layer 1
10
301.385834
20
209.196195
70
0
0
VERTEX
8
Layer 1
10
299.780476
20
209.130049
70
0
0
VERTEX
8
Layer 1
10
299.696141
20
210.704649
70
0
0
VERTEX
8
Layer 1
10
299.708667
20
211.469252
70
0
0
VERTEX
8
Layer 1
10
299.875726
20
212.170108
70
0
0
VERTEX
8
Layer 1
10
302.167346
20
217.197515
70
0
0
VERTEX
8
Layer 1
10
304.381575
20
222.250720
70
0
0
VERTEX
8
Layer 1
10
304.812344
20
223.633843
70
0
0
VERTEX
8
Layer 1
10
304.984121
20
224.833505
70
0
0
VERTEX
8
Layer 1
10
304.894892
20
225.842357
70
0
0
VERTEX
8
Layer 1
10
304.542640
20
226.653050
70
0
0
VERTEX
8
Layer 1
10
303.925350
20
227.258237
70
0
0
VERTEX
8
Layer 1
10
303.041007
20
227.650570
70
0
0
VERTEX
8
Layer 1
10
301.887596
20
227.822698
70
0
0
VERTEX
8
Layer 1
10
300.463101
20
227.767276
70
0
0
VERTEX
8
Layer 1
10
285.782713
20
226.143728
70
0
0
VERTEX
8
Layer 1
10
278.501306
20
225.033678
70
0
0
VERTEX
8
Layer 1
10
274.901995
20
224.320632
70
0
0
VERTEX
8
Layer 1
10
271.340450
20
223.470448
70
0
0
VERTEX
8
Layer 1
10
260.446700
20
220.382681
70
0
0
VERTEX
8
Layer 1
10
249.637037
20
216.974935
70
0
0
VERTEX
8
Layer 1
10
228.078483
20
209.923798
70
0
0
VERTEX
8
Layer 1
10
226.274069
20
209.183792
70
0
0
VERTEX
8
Layer 1
10
225.619985
20
208.724059
70
0
0
VERTEX
8
Layer 1
10
225.156495
20
208.174904
70
0
0
VERTEX
8
Layer 1
10
224.902480
20
207.514129
70
0
0
VERTEX
8
Layer 1
10
224.876822
20
206.719533
70
0
0
VERTEX
8
Layer 1
10
225.098406
20
205.768915
70
0
0
VERTEX
8
Layer 1
10
225.586112
20
204.640076
70
0
0
VERTEX
8
Layer 1
10
225.851315
20
203.518616
70
0
0
VERTEX
8
Layer 1
10
225.745192
20
202.173170
70
0
0
VERTEX
8
Layer 1
10
225.373660
20
200.786548
70
0
0
VERTEX
8
Layer 1
10
224.842633
20
199.541561
70
0
0
VERTEX
8
Layer 1
10
203.755368
20
159.422841
70
0
0
VERTEX
8
Layer 1
10
202.882575
20
157.340242
70
0
0
VERTEX
8
Layer 1
10
201.860954
20
154.509535
70
0
0
VERTEX
8
Layer 1
10
205.513522
20
154.903763
70
0
0
VERTEX
8
Layer 1
10
207.073653
20
155.112288
70
0
0
VERTEX
8
Layer 1
10
208.523154
20
155.440867
70
0
0
VERTEX
8
Layer 1
10
215.232106
20
157.215898
70
0
0
VERTEX
8
Layer 1
10
221.973024
20
158.599078
70
0
0
VERTEX
8
Layer 1
10
228.743894
20
159.612793
70
0
0
VERTEX
8
Layer 1
10
235.542701
20
160.279428
70
0
0
VERTEX
8
Layer 1
10
242.367428
20
160.621371
70
0
0
VERTEX
8
Layer 1
10
249.216061
20
160.661007
70
0
0
VERTEX
8
Layer 1
10
256.086584
20
160.420722
70
0
0
VERTEX
8
Layer 1
10
262.976981
20
159.922903
70
0
0
VERTEX
8
Layer 1
10
264.069833
20
159.690979
70
0
0
VERTEX
8
Layer 1
10
265.167398
20
159.222419
70
0
0
VERTEX
8
Layer 1
10
266.165248
20
158.572289
70
0
0
VERTEX
8
Layer 1
10
266.958955
20
157.795655
70
0
0
VERTEX
8
Layer 1
10
267.392691
20
157.094309
70
0
0
VERTEX
8
Layer 1
10
267.570845
20
156.419038
70
0
0
VERTEX
8
Layer 1
10
267.508456
20
155.787734
70
0
0
VERTEX
8
Layer 1
10
267.220562
20
155.218286
70
0
0
VERTEX
8
Layer 1
10
266.722200
20
154.728585
70
0
0
VERTEX
8
Layer 1
10
266.028409
20
154.336522
70
0
0
VERTEX
8
Layer 1
10
265.154225
20
154.059986
70
0
0
VERTEX
8
Layer 1
10
264.114688
20
153.916869
70
0
0
VERTEX
8
Layer 1
10
252.333799
20
153.320234
70
0
0
VERTEX
8
Layer 1
10
246.449184
20
152.975532
70
0
0
VERTEX
8
Layer 1
10
240.582676
20
152.461662
70
0
0
VERTEX
8
Layer 1
10
235.443399
20
151.830838
70
0
0
VERTEX
8
Layer 1
10
230.338353
20
151.046970
70
0
0
VERTEX
8
Layer 1
10
225.270514
20
150.100135
70
0
0
VERTEX
8
Layer 1
10
220.242858
20
148.980411
70
0
0
VERTEX
8
Layer 1
10
215.258362
20
147.677877
70
0
0
VERTEX
8
Layer 1
10
210.320003
20
146.182611
70
0
0
VERTEX
8
Layer 1
10
205.430757
20
144.484691
70
0
0
VERTEX
8
Layer 1
10
200.593601
20
142.574195
70
0
0
VERTEX
8
Layer 1
10
197.865503
20
141.186209
70
0
0
VERTEX
8
Layer 1
10
196.676171
20
140.364752
70
0
0
VERTEX
8
Layer 1
10
195.598274
20
139.439548
70
0
0
VERTEX
8
Layer 1
10
194.628030
20
138.396523
70
0
0
VERTEX
8
Layer 1
10
193.761655
20
137.221599
70
0
0
VERTEX
8
Layer 1
10
192.995367
20
135.900699
70
0
0
VERTEX
8
Layer 1
10
192.325383
20
134.419747
70
0
0
VERTEX
8
Layer 1
10
187.007264
20
120.570274
70
0
0
VERTEX
8
Layer 1
10
184.526985
20
113.593370
70
0
0
VERTEX
8
Layer 1
10
182.211036
20
106.568749
70
0
0
VERTEX
8
Layer 1
10
180.093277
20
99.486704
70
0
0
VERTEX
8
Layer 1
10
178.207565
20
92.337532
70
0
0
VERTEX
8
Layer 1
10
176.587758
20
85.111527
70
0
0
VERTEX
8
Layer 1
10
175.267717
20
77.798985
70
0
0
VERTEX
8
Layer 1
10
174.897425
20
73.897378
70
0
0
VERTEX
8
Layer 1
10
174.861251
20
69.944178
70
0
0
VERTEX
8
Layer 1
10
174.943644
20
65.970141
70
0
0
VERTEX
8
Layer 1
10
174.929050
20
62.006026
70
0
0
VERTEX
8
Layer 1
10
174.792087
20
61.011401
70
0
0
VERTEX
8
Layer 1
10
174.506048
20
60.021984
70
0
0
VERTEX
8
Layer 1
10
173.831031
20
58.047864
70
0
0
VERTEX
8
Layer 1
10
172.092059
20
58.969275
70
0
0
VERTEX
8
Layer 1
10
171.293515
20
59.475868
70
0
0
VERTEX
8
Layer 1
10
170.690431
20
60.108966
70
0
0
VERTEX
8
Layer 1
10
168.909787
20
63.073288
70
0
0
VERTEX
8
Layer 1
10
168.228817
20
64.637428
70
0
0
VERTEX
8
Layer 1
10
167.835580
20
66.234062
70
0
0
VERTEX
8
Layer 1
10
167.397080
20
71.116446
70
0
0
VERTEX
8
Layer 1
10
167.355734
20
75.953684
70
0
0
VERTEX
8
Layer 1
10
167.664196
20
80.749995
70
0
0
VERTEX
8
Layer 1
10
168.275119
20
85.509595
70
0
0
VERTEX
8
Layer 1
10
169.141158
20
90.236701
70
0
0
VERTEX
8
Layer 1
10
170.214967
20
94.935530
70
0
0
VERTEX
8
Layer 1
10
172.796511
20
104.265223
70
0
0
VERTEX
8
Layer 1
10
176.493067
20
115.640969
70
0
0
VERTEX
8
Layer 1
10
180.350356
20
126.969090
70
0
0
VERTEX
8
Layer 1
10
180.840703
20
128.966816
70
0
0
VERTEX
8
Layer 1
10
180.815211
20
129.632226
70
0
0
VERTEX
8
Layer 1
10
180.588150
20
130.106052
70
0
0
VERTEX
8
Layer 1
10
180.143676
20
130.411330
70
0
0
VERTEX
8
Layer 1
10
179.465946
20
130.571098
70
0
0
VERTEX
8
Layer 1
10
177.347339
20
130.546252
70
0
0
VERTEX
8
Layer 1
10
174.209715
20
130.290930
70
0
0
VERTEX
8
Layer 1
10
172.658887
20
130.301430
70
0
0
VERTEX
8
Layer 1
10
171.169326
20
130.535669
70
0
0
VERTEX
8
Layer 1
10
169.811907
20
131.056179
70
0
0
VERTEX
8
Layer 1
10
168.762406
20
131.793141
70
0
0
VERTEX
8
Layer 1
10
168.033568
20
132.694372
70
0
0
VERTEX
8
Layer 1
10
167.638135
20
133.707688
70
0
0
VERTEX
8
Layer 1
10
167.588851
20
134.780908
70
0
0
VERTEX
8
Layer 1
10
167.898460
20
135.861849
70
0
0
VERTEX
8
Layer 1
10
168.579704
20
136.898327
70
0
0
VERTEX
8
Layer 1
10
169.645328
20
137.838160
70
0
0
VERTEX
8
Layer 1
10
173.249569
20
140.225815
70
0
0
VERTEX
8
Layer 1
10
176.938889
20
142.491182
70
0
0
VERTEX
8
Layer 1
10
184.456684
20
146.796940
70
0
0
VERTEX
8
Layer 1
10
186.465903
20
148.139079
70
0
0
VERTEX
8
Layer 1
10
188.128104
20
149.721574
70
0
0
VERTEX
8
Layer 1
10
189.503068
20
151.575433
70
0
0
VERTEX
8
Layer 1
10
190.650572
20
153.731660
70
0
0
VERTEX
8
Layer 1
10
193.047488
20
158.707102
70
0
0
VERTEX
8
Layer 1
10
195.576116
20
163.622765
70
0
0
VERTEX
8
Layer 1
10
198.095318
20
168.541901
70
0
0
VERTEX
8
Layer 1
10
200.463956
20
173.527761
70
0
0
VERTEX
8
Layer 1
10
206.001017
20
186.663314
70
0
0
VERTEX
8
Layer 1
10
211.319796
20
199.896102
70
0
0
VERTEX
8
Layer 1
10
211.465648
20
200.823796
70
0
0
VERTEX
8
Layer 1
10
211.549983
20
202.444037
70
0
0
VERTEX
8
Layer 1
10
211.549983
20
202.444037
70
0
0
SEQEND
8
Layer 1
0
POLYLINE
8
Layer 1
62
7
70
0
10
0.000000
20
0.000000
66
1
0
VERTEX
8
Layer 1
10
85.092539
20
323.157385
70
0
0
VERTEX
8
Layer 1
10
84.812081
20
318.643599
70
0
0
VERTEX
8
Layer 1
10
84.703602
20
259.297632
70
0
0
VERTEX
8
Layer 1
10
84.789260
20
257.936967
70
0
0
VERTEX
8
Layer 1
10
85.049048
20
256.701535
70
0
0
VERTEX
8
Layer 1
10
85.481228
20
255.592793
70
0
0
VERTEX
8
Layer 1
10
86.084063
20
254.612197
70
0
0
VERTEX
8
Layer 1
10
86.855819
20
253.761207
70
0
0
VERTEX
8
Layer 1
10
87.794758
20
253.041277
70
0
0
VERTEX
8
Layer 1
10
88.899144
20
252.453867
70
0
0
VERTEX
8
Layer 1
10
90.167241
20
252.000433
70
0
0
VERTEX
8
Layer 1
10
93.786736
20
251.238764
70
0
0
VERTEX
8
Layer 1
10
95.587554
20
250.854085
70
0
0
VERTEX
8
Layer 1
10
97.318919
20
250.296518
70
0
0
VERTEX
8
Layer 1
10
98.097537
20
249.762598
70
0
0
VERTEX
8
Layer 1
10
98.771480
20
248.928293
70
0
0
VERTEX
8
Layer 1
10
99.282704
20
247.944665
70
0
0
VERTEX
8
Layer 1
10
99.573166
20
246.962772
70
0
0
VERTEX
8
Layer 1
10
99.312387
20
246.415292
70
0
0
VERTEX
8
Layer 1
10
98.572381
20
245.736099
70
0
0
VERTEX
8
Layer 1
10
97.625009
20
245.155629
70
0
0
VERTEX
8
Layer 1
10
96.742128
20
244.904316
70
0
0
VERTEX
8
Layer 1
10
80.687232
20
244.791869
70
0
0
VERTEX
8
Layer 1
10
64.632335
20
244.893733
70
0
0
VERTEX
8
Layer 1
10
63.774259
20
245.109079
70
0
0
VERTEX
8
Layer 1
10
62.853676
20
245.606454
70
0
0
VERTEX
8
Layer 1
10
62.130538
20
246.192629
70
0
0
VERTEX
8
Layer 1
10
61.864797
20
246.674377
70
0
0
VERTEX
8
Layer 1
10
62.098829
20
247.625759
70
0
0
VERTEX
8
Layer 1
10
62.530554
20
248.592273
70
0
0
VERTEX
8
Layer 1
10
63.117556
20
249.415415
70
0
0
VERTEX
8
Layer 1
10
63.817420
20
249.936685
70
0
0
VERTEX
8
Layer 1
10
67.977987
20
251.423311
70
0
0
VERTEX
8
Layer 1
10
72.281430
20
252.471390
70
0
0
VERTEX
8
Layer 1
10
73.957894
20
253.016514
70
0
0
VERTEX
8
Layer 1
10
74.562962
20
253.413006
70
0
0
VERTEX
8
Layer 1
10
75.029124
20
253.903446
70
0
0
VERTEX
8
Layer 1
10
75.368783
20
254.496329
70
0
0
VERTEX
8
Layer 1
10
75.594340
20
255.200150
70
0
0
VERTEX
8
Layer 1
10
75.752759
20
256.974593
70
0
0
VERTEX
8
Layer 1
10
75.691905
20
319.638431
70
0
0
VERTEX
8
Layer 1
10
75.586733
20
322.060357
70
0
0
VERTEX
8
Layer 1
10
75.591446
20
323.257554
70
0
0
VERTEX
8
Layer 1
10
75.755405
20
324.416800
70
0
0
VERTEX
8
Layer 1
10
76.183440
20
326.994313
70
0
0
VERTEX
8
Layer 1
10
76.203129
20
329.405016
70
0
0
VERTEX
8
Layer 1
10
75.843678
20
331.664162
70
0
0
VERTEX
8
Layer 1
10
75.134296
20
333.787007
70
0
0
VERTEX
8
Layer 1
10
74.104190
20
335.788804
70
0
0
VERTEX
8
Layer 1
10
72.782567
20
337.684810
70
0
0
VERTEX
8
Layer 1
10
71.198634
20
339.490279
70
0
0
VERTEX
8
Layer 1
10
69.381600
20
341.220466
70
0
0
VERTEX
8
Layer 1
10
68.237237
20
342.384879
70
0
0
VERTEX
8
Layer 1
10
67.211689
20
343.685718
70
0
0
VERTEX
8
Layer 1
10
65.341418
20
346.448626
70
0
0
VERTEX
8
Layer 1
10
64.715059
20
347.803208
70
0
0
VERTEX
8
Layer 1
10
64.662530
20
348.389063
70
0
0
VERTEX
8
Layer 1
10
64.783478
20
348.899326
70
0
0
VERTEX
8
Layer 1
10
65.077687
20
349.323021
70
0
0
VERTEX
8
Layer 1
10
65.544940
20
349.649171
70
0
0
VERTEX
8
Layer 1
10
66.185019
20
349.866801
70
0
0
VERTEX
8
Layer 1
10
66.997707
20
349.964934
70
0
0
VERTEX
8
Layer 1
10
74.190065
20
350.123684
70
0
0
VERTEX
8
Layer 1
10
81.380439
20
350.044309
70
0
0
VERTEX
8
Layer 1
10
82.076251
20
349.873653
70
0
0
VERTEX
8
Layer 1
10
82.779752
20
349.462888
70
0
0
VERTEX
8
Layer 1
10
84.002457
20
348.313936
70
0
0
VERTEX
8
Layer 1
10
144.922692
20
276.670151
70
0
0
VERTEX
8
Layer 1
10
148.280251
20
272.841635
70
0
0
VERTEX
8
Layer 1
10
148.555417
20
274.902406
70
0
0
VERTEX
8
Layer 1
10
148.679771
20
276.350006
70
0
0
VERTEX
8
Layer 1
10
148.679771
20
334.222246
70
0
0
VERTEX
8
Layer 1
10
148.594908
20
335.605720
70
0
0
VERTEX
8
Layer 1
10
148.342180
20
336.831654
70
0
0
VERTEX
8
Layer 1
10
147.918423
20
337.906714
70
0
0
VERTEX
8
Layer 1
10
147.320476
20
338.837565
70
0
0
VERTEX
8
Layer 1
10
146.545175
20
339.630875
70
0
0
VERTEX
8
Layer 1
10
145.589359
20
340.293309
70
0
0
VERTEX
8
Layer 1
10
144.449864
20
340.831534
70
0
0
VERTEX
8
Layer 1
10
143.123528
20
341.252216
70
0
0
VERTEX
8
Layer 1
10
137.771014
20
342.649214
70
0
0
VERTEX
8
Layer 1
10
135.053292
20
343.416298
70
0
0
VERTEX
8
Layer 1
10
134.238164
20
343.822397
70
0
0
VERTEX
8
Layer 1
10
133.721902
20
344.344860
70
0
0
VERTEX
8
Layer 1
10
133.456787
20
345.059684
70
0
0
VERTEX
8
Layer 1
10
133.395100
20
346.042863
70
0
0
VERTEX
8
Layer 1
10
133.691144
20
349.118268
70
0
0
VERTEX
8
Layer 1
10
136.773536
20
349.406664
70
0
0
VERTEX
8
Layer 1
10
168.885975
20
349.406664
70
0
0
VERTEX
8
Layer 1
10
170.038564
20
349.444615
70
0
0
VERTEX
8
Layer 1
10
171.123685
20
349.337211
70
0
0
VERTEX
8
Layer 1
10
171.583584
20
349.123426
70
0
0
VERTEX
8
Layer 1
10
171.957783
20
348.746612
70
0
0
VERTEX
8
Layer 1
10
172.223338
20
348.164540
70
0
0
VERTEX
8
Layer 1
10
172.357304
20
347.334979
70
0
0
VERTEX
8
Layer 1
10
172.289670
20
345.861996
70
0
0
VERTEX
8
Layer 1
10
171.838060
20
344.742727
70
0
0
VERTEX
8
Layer 1
10
170.938973
20
343.943935
70
0
0
VERTEX
8
Layer 1
10
169.528911
20
343.432380
70
0
0
VERTEX
8
Layer 1
10
165.632265
20
342.308894
70
0
0
VERTEX
8
Layer 1
10
161.731650
20
341.215174
70
0
0
VERTEX
8
Layer 1
10
159.893253
20
340.582738
70
0
0
VERTEX
8
Layer 1
10
159.226365
20
340.125289
70
0
0
VERTEX
8
Layer 1
10
158.710443
20
339.562853
70
0
0
VERTEX
8
Layer 1
10
158.332560
20
338.887309
70
0
0
VERTEX
8
Layer 1
10
158.079785
20
338.090532
70
0
0
VERTEX
8
Layer 1
10
157.897843
20
336.100785
70
0
0
VERTEX
8
Layer 1
10
157.969280
20
249.108540
70
0
0
VERTEX
8
Layer 1
10
157.969280
20
244.573588
70
0
0
VERTEX
8
Layer 1
10
156.493574
20
244.176858
70
0
0
VERTEX
8
Layer 1
10
155.158789
20
244.029539
70
0
0
VERTEX
8
Layer 1
10
153.945112
20
244.115384
70
0
0
VERTEX
8
Layer 1
10
152.832732
20
244.418145
70
0
0
VERTEX
8
Layer 1
10
151.801835
20
244.921576
70
0
0
VERTEX
8
Layer 1
10
150.832608
20
245.609430
70
0
0
VERTEX
8
Layer 1
10
148.999916
20
247.473417
70
0
0
VERTEX
8
Layer 1
10
118.751134
20
283.475557
70
0
0
VERTEX
8
Layer 1
10
88.428930
20
319.416181
70
0
0
VERTEX
8
Layer 1
10
85.092539
20
323.157385
70
0
0
VERTEX
8
Layer 1
10
85.092539
20
323.157385
70
0
0
SEQEND
8
Layer 1
0
POLYLINE
8
Layer 1
62
7
70
0
10
0.000000
20
0.000000
66
1
0
VERTEX
8
Layer 1
10
463.734624
20
244.798483
70
0
0
VERTEX
8
Layer 1
10
459.257880
20
244.798483
70
0
0
VERTEX
8
Layer 1
10
445.227374
20
244.786577
70
0
0
VERTEX
8
Layer 1
10
431.198853
20
244.877858
70
0
0
VERTEX
8
Layer 1
10
430.332302
20
245.061413
70
0
0
VERTEX
8
Layer 1
10
429.469472
20
245.493014
70
0
0
VERTEX
8
Layer 1
10
427.746044
20
246.528856
70
0
0
VERTEX
8
Layer 1
10
428.992561
20
248.525135
70
0
0
VERTEX
8
Layer 1
10
429.638764
20
249.373702
70
0
0
VERTEX
8
Layer 1
10
430.352187
20
249.791164
70
0
0
VERTEX
8
Layer 1
10
432.632810
20
250.338562
70
0
0
VERTEX
8
Layer 1
10
434.441648
20
251.173445
70
0
0
VERTEX
8
Layer 1
10
435.828311
20
252.275475
70
0
0
VERTEX
8
Layer 1
10
436.842408
20
253.624311
70
0
0
VERTEX
8
Layer 1
10
437.533548
20
255.199613
70
0
0
VERTEX
8
Layer 1
10
437.951341
20
256.981042
70
0
0
VERTEX
8
Layer 1
10
438.145397
20
258.948258
70
0
0
VERTEX
8
Layer 1
10
438.165323
20
261.080921
70
0
0
VERTEX
8
Layer 1
10
438.121832
20
268.082242
70
0
0
VERTEX
8
Layer 1
10
438.214271
20
275.086291
70
0
0
VERTEX
8
Layer 1
10
438.294803
20
282.089845
70
0
0
VERTEX
8
Layer 1
10
438.215594
20
289.089677
70
0
0
VERTEX
8
Layer 1
10
438.033539
20
291.798161
70
0
0
VERTEX
8
Layer 1
10
437.655965
20
294.310200
70
0
0
VERTEX
8
Layer 1
10
437.084240
20
296.624871
70
0
0
VERTEX
8
Layer 1
10
436.319733
20
298.741252
70
0
0
VERTEX
8
Layer 1
10
435.363811
20
300.658421
70
0
0
VERTEX
8
Layer 1
10
434.217843
20
302.375454
70
0
0
VERTEX
8
Layer 1
10
432.883197
20
303.891431
70
0
0
VERTEX
8
Layer 1
10
431.361240
20
305.205428
70
0
0
VERTEX
8
Layer 1
10
429.653342
20
306.316523
70
0
0
VERTEX
8
Layer 1
10
427.760870
20
307.223793
70
0
0
VERTEX
8
Layer 1
10
425.685193
20
307.926317
70
0
0
VERTEX
8
Layer 1
10
423.427678
20
308.423171
70
0
0
VERTEX
8
Layer 1
10
420.989693
20
308.713433
70
0
0
VERTEX
8
Layer 1
10
418.372608
20
308.796181
70
0
0
VERTEX
8
Layer 1
10
415.577789
20
308.670492
70
0
0
VERTEX
8
Layer 1
10
412.606605
20
308.335445
70
0
0
VERTEX
8
Layer 1
10
410.294811
20
307.762292
70
0
0
VERTEX
8
Layer 1
10
408.050486
20
306.901405
70
0
0
VERTEX
8
Layer 1
10
406.260417
20
306.067245
70
0
0
VERTEX
8
Layer 1
10
404.679202
20
305.115635
70
0
0
VERTEX
8
Layer 1
10
403.319990
20
304.021398
70
0
0
VERTEX
8
Layer 1
10
402.195926
20
302.759358
70
0
0
VERTEX
8
Layer 1
10
401.320156
20
301.304338
70
0
0
VERTEX
8
Layer 1
10
400.705827
20
299.631160
70
0
0
VERTEX
8
Layer 1
10
400.366086
20
297.714649
70
0
0
VERTEX
8
Layer 1
10
400.314079
20
295.529628
70
0
0
VERTEX
8
Layer 1
10
400.568203
20
286.415281
70
0
0
VERTEX
8
Layer 1
10
400.630586
20
277.292252
70
0
0
VERTEX
8
Layer 1
10
400.480766
20
259.040986
70
0
0
VERTEX
8
Layer 1
10
400.550814
20
257.684874
70
0
0
VERTEX
8
Layer 1
10
400.788137
20
256.477342
70
0
0
VERTEX
8
Layer 1
10
401.188862
20
255.408468
70
0
0
VERTEX
8
Layer 1
10
401.749111
20
254.468330
70
0
0
VERTEX
8
Layer 1
10
402.465010
20
253.647007
70
0
0
VERTEX
8
Layer 1
10
403.332682
20
252.934576
70
0
0
VERTEX
8
Layer 1
10
405.507843
20
251.796704
70
0
0
VERTEX
8
Layer 1
10
408.807193
20
250.596158
70
0
0
VERTEX
8
Layer 1
10
412.027168
20
249.248769
70
0
0
VERTEX
8
Layer 1
10
412.544263
20
248.819401
70
0
0
VERTEX
8
Layer 1
10
412.969084
20
248.169271
70
0
0
VERTEX
8
Layer 1
10
413.260952
20
247.421906
70
0
0
VERTEX
8
Layer 1
10
413.379188
20
246.700835
70
0
0
VERTEX
8
Layer 1
10
413.212294
20
246.168858
70
0
0
VERTEX
8
Layer 1
10
412.782222
20
245.586279
70
0
0
VERTEX
8
Layer 1
10
412.236561
20
245.115817
70
0
0
VERTEX
8
Layer 1
10
411.722898
20
244.920191
70
0
0
VERTEX
8
Layer 1
10
377.507024
20
244.840817
70
0
0
VERTEX
8
Layer 1
10
377.016430
20
246.675741
70
0
0
VERTEX
8
Layer 1
10
377.033519
20
247.429260
70
0
0
VERTEX
8
Layer 1
10
377.227559
20
248.088242
70
0
0
VERTEX
8
Layer 1
10
377.600068
20
248.663757
70
0
0
VERTEX
8
Layer 1
10
378.152566
20
249.166873
70
0
0
VERTEX
8
Layer 1
10
379.803605
20
250.000185
70
0
0
VERTEX
8
Layer 1
10
384.143882
20
251.737875
70
0
0
VERTEX
8
Layer 1
10
385.477716
20
252.547143
70
0
0
VERTEX
8
Layer 1
10
386.371547
20
253.483751
70
0
0
VERTEX
8
Layer 1
10
386.913524
20
254.672995
70
0
0
VERTEX
8
Layer 1
10
387.191796
20
256.240168
70
0
0
VERTEX
8
Layer 1
10
387.309825
20
261.009484
70
0
0
VERTEX
8
Layer 1
10
387.248970
20
330.324938
70
0
0
VERTEX
8
Layer 1
10
387.032674
20
334.362475
70
0
0
VERTEX
8
Layer 1
10
386.423472
20
338.360324
70
0
0
VERTEX
8
Layer 1
10
386.030685
20
339.914651
70
0
0
VERTEX
8
Layer 1
10
385.494248
20
341.341389
70
0
0
VERTEX
8
Layer 1
10
384.800735
20
342.626058
70
0
0
VERTEX
8
Layer 1
10
383.936722
20
343.754179
70
0
0
VERTEX
8
Layer 1
10
382.888782
20
344.711272
70
0
0
VERTEX
8
Layer 1
10
381.643490
20
345.482857
70
0
0
VERTEX
8
Layer 1
10
380.187421
20
346.054454
70
0
0
VERTEX
8
Layer 1
10
378.507148
20
346.411584
70
0
0
VERTEX
8
Layer 1
10
377.869710
20
346.635405
70
0
0
VERTEX
8
Layer 1
10
377.237480
20
347.077011
70
0
0
VERTEX
8
Layer 1
10
376.714888
20
347.641647
70
0
0
VERTEX
8
Layer 1
10
376.406359
20
348.234561
70
0
0
VERTEX
8
Layer 1
10
376.417645
20
348.836777
70
0
0
VERTEX
8
Layer 1
10
376.669288
20
349.553838
70
0
0
VERTEX
8
Layer 1
10
377.071248
20
350.192021
70
0
0
VERTEX
8
Layer 1
10
377.533483
20
350.557600
70
0
0
VERTEX
8
Layer 1
10
400.708308
20
358.413069
70
0
0
VERTEX
8
Layer 1
10
400.708308
20
308.216383
70
0
0
VERTEX
8
Layer 1
10
404.729969
20
310.785483
70
0
0
VERTEX
8
Layer 1
10
409.116631
20
313.699286
70
0
0
VERTEX
8
Layer 1
10
413.651377
20
316.288148
70
0
0
VERTEX
8
Layer 1
10
416.010946
20
317.382127
70
0
0
VERTEX
8
Layer 1
10
418.451533
20
318.300550
70
0
0
VERTEX
8
Layer 1
10
420.987804
20
319.011979
70
0
0
VERTEX
8
Layer 1
10
423.634425
20
319.484972
70
0
0
VERTEX
8
Layer 1
10
426.076608
20
319.706804
70
0
0
VERTEX
8
Layer 1
10
428.486050
20
319.746042
70
0
0
VERTEX
8
Layer 1
10
430.860021
20
319.597942
70
0
0
VERTEX
8
Layer 1
10
433.195793
20
319.257762
70
0
0
VERTEX
8
Layer 1
10
435.490637
20
318.720757
70
0
0
VERTEX
8
Layer 1
10
437.741825
20
317.982182
70
0
0
VERTEX
8
Layer 1
10
439.946628
20
317.037296
70
0
0
VERTEX
8
Layer 1
10
442.102318
20
315.881352
70
0
0
VERTEX
8
Layer 1
10
444.432405
20
314.234969
70
0
0
VERTEX
8
Layer 1
10
446.328535
20
312.353841
70
0
0
VERTEX
8
Layer 1
10
447.832008
20
310.267888
70
0
0
VERTEX
8
Layer 1
10
448.984122
20
308.007031
70
0
0
VERTEX
8
Layer 1
10
449.826178
20
305.601191
70
0
0
VERTEX
8
Layer 1
10
450.399476
20
303.080289
70
0
0
VERTEX
8
Layer 1
10
450.745314
20
300.474245
70
0
0
VERTEX
8
Layer 1
10
450.904994
20
297.812979
70
0
0
VERTEX
8
Layer 1
10
451.073501
20
289.250908
70
0
0
VERTEX
8
Layer 1
10
451.102109
20
280.683876
70
0
0
VERTEX
8
Layer 1
10
450.949974
20
263.546835
70
0
0
VERTEX
8
Layer 1
10
450.955260
20
260.274020
70
0
0
VERTEX
8
Layer 1
10
451.114800
20
257.705627
70
0
0
VERTEX
8
Layer 1
10
451.525054
20
255.715369
70
0
0
VERTEX
8
Layer 1
10
452.282480
20
254.176958
70
0
0
VERTEX
8
Layer 1
10
453.483537
20
252.964109
70
0
0
VERTEX
8
Layer 1
10
455.224684
20
251.950534
70
0
0
VERTEX
8
Layer 1
10
457.602381
20
251.009946
70
0
0
VERTEX
8
Layer 1
10
460.713086
20
250.016060
70
0
0
VERTEX
8
Layer 1
10
462.449867
20
249.417730
70
0
0
VERTEX
8
Layer 1
10
463.169724
20
249.033284
70
0
0
VERTEX
8
Layer 1
10
463.738924
20
248.543325
70
0
0
VERTEX
8
Layer 1
10
464.118740
20
247.911359
70
0
0
VERTEX
8
Layer 1
10
464.270446
20
247.100893
70
0
0
VERTEX
8
Layer 1
10
464.155316
20
246.075432
70
0
0
VERTEX
8
Layer 1
10
463.734624
20
244.798483
70
0
0
VERTEX
8
Layer 1
10
463.734624
20
244.798483
70
0
0
SEQEND
8
Layer 1
0
POLYLINE
8
Layer 1
62
7
70
0
10
0.000000
20
0.000000
66
1
0
VERTEX
8
Layer 1
10
502.625679
20
317.664641
70
0
0
VERTEX
8
Layer 1
10
532.573829
20
317.664641
70
0
0
VERTEX
8
Layer 1
10
533.014318
20
315.602589
70
0
0
VERTEX
8
Layer 1
10
532.990408
20
314.728034
70
0
0
VERTEX
8
Layer 1
10
532.775904
20
313.963456
70
0
0
VERTEX
8
Layer 1
10
532.349941
20
313.313104
70
0
0
VERTEX
8
Layer 1
10
531.691651
20
312.781225
70
0
0
VERTEX
8
Layer 1
10
530.780168
20
312.372067
70
0
0
VERTEX
8
Layer 1
10
529.594624
20
312.089878
70
0
0
VERTEX
8
Layer 1
10
526.883641
20
311.357975
70
0
0
VERTEX
8
Layer 1
10
523.734111
20
310.282776
70
0
0
VERTEX
8
Layer 1
10
539.381550
20
263.012377
70
0
0
VERTEX
8
Layer 1
10
540.320158
20
264.647831
70
0
0
VERTEX
8
Layer 1
10
540.921423
20
265.880457
70
0
0
VERTEX
8
Layer 1
10
547.930557
20
286.059541
70
0
0
VERTEX
8
Layer 1
10
555.060738
20
306.194968
70
0
0
VERTEX
8
Layer 1
10
555.556335
20
308.257021
70
0
0
VERTEX
8
Layer 1
10
555.520058
20
309.062929
70
0
0
VERTEX
8
Layer 1
10
555.290925
20
309.739388
70
0
0
VERTEX
8
Layer 1
10
554.866332
20
310.301870
70
0
0
VERTEX
8
Layer 1
10
554.243673
20
310.765846
70
0
0
VERTEX
8
Layer 1
10
552.393742
20
311.460170
70
0
0
VERTEX
8
Layer 1
10
549.717154
20
312.220846
70
0
0
VERTEX
8
Layer 1
10
548.428593
20
312.719999
70
0
0
VERTEX
8
Layer 1
10
547.221144
20
313.346647
70
0
0
VERTEX
8
Layer 1
10
546.703925
20
313.868041
70
0
0
VERTEX
8
Layer 1
10
546.323877
20
314.628552
70
0
0
VERTEX
8
Layer 1
10
545.908812
20
316.354956
70
0
0
VERTEX
8
Layer 1
10
546.061278
20
316.741329
70
0
0
VERTEX
8
Layer 1
10
546.495525
20
317.199637
70
0
0
VERTEX
8
Layer 1
10
547.051811
20
317.583530
70
0
0
VERTEX
8
Layer 1
10
547.570393
20
317.746662
70
0
0
VERTEX
8
Layer 1
10
573.211132
20
317.810162
70
0
0
VERTEX
8
Layer 1
10
573.610900
20
316.015049
70
0
0
VERTEX
8
Layer 1
10
573.591480
20
315.301388
70
0
0
VERTEX
8
Layer 1
10
573.416845
20
314.682791
70
0
0
VERTEX
8
Layer 1
10
573.080236
20
314.138608
70
0
0
VERTEX
8
Layer 1
10
572.574893
20
313.648189
70
0
0
VERTEX
8
Layer 1
10
571.030968
20
312.746043
70
0
0
VERTEX
8
Layer 1
10
568.865191
20
311.549302
70
0
0
VERTEX
8
Layer 1
10
566.815499
20
310.053911
70
0
0
VERTEX
8
Layer 1
10
564.957300
20
308.324365
70
0
0
VERTEX
8
Layer 1
10
563.365999
20
306.425156
70
0
0
VERTEX
8
Layer 1
10
561.919887
20
304.127418
70
0
0
VERTEX
8
Layer 1
10
560.714877
20
301.646125
70
0
0
VERTEX
8
Layer 1
10
558.730504
20
296.458314
70
0
0
VERTEX
8
Layer 1
10
541.506151
20
247.473417
70
0
0
VERTEX
8
Layer 1
10
540.968469
20
246.007793
70
0
0
VERTEX
8
Layer 1
10
540.264595
20
244.811051
70
0
0
VERTEX
8
Layer 1
10
539.772357
20
244.369941
70
0
0
VERTEX
8
Layer 1
10
539.144996
20
244.063769
70
0
0
VERTEX
8
Layer 1
10
538.351319
20
243.915107
70
0
0
VERTEX
8
Layer 1
10
537.360136
20
243.946526
70
0
0
VERTEX
8
Layer 1
10
535.462745
20
244.071831
70
0
0
VERTEX
8
Layer 1
10
533.743947
20
244.329841
70
0
0
VERTEX
8
Layer 1
10
532.976016
20
244.669142
70
0
0
VERTEX
8
Layer 1
10
532.282126
20
245.234260
70
0
0
VERTEX
8
Layer 1
10
531.672076
20
246.089405
70
0
0
VERTEX
8
Layer 1
10
531.155664
20
247.298793
70
0
0
VERTEX
8
Layer 1
10
527.825846
20
257.055580
70
0
0
VERTEX
8
Layer 1
10
524.368779
20
266.770448
70
0
0
VERTEX
8
Layer 1
10
517.333848
20
286.160744
70
0
0
VERTEX
8
Layer 1
10
515.653746
20
290.232676
70
0
0
VERTEX
8
Layer 1
10
513.060833
20
284.750516
70
0
0
VERTEX
8
Layer 1
10
505.377012
20
266.201594
70
0
0
VERTEX
8
Layer 1
10
497.818206
20
247.603063
70
0
0
VERTEX
8
Layer 1
10
496.960420
20
245.898652
70
0
0
VERTEX
8
Layer 1
10
495.885097
20
244.748874
70
0
0
VERTEX
8
Layer 1
10
495.220203
20
244.364608
70
0
0
VERTEX
8
Layer 1
10
494.446137
20
244.098165
70
0
0
VERTEX
8
Layer 1
10
492.497442
20
243.890964
70
0
0
VERTEX
8
Layer 1
10
491.426615
20
243.981511
70
0
0
VERTEX
8
Layer 1
10
490.582936
20
244.239304
70
0
0
VERTEX
8
Layer 1
10
489.929881
20
244.640591
70
0
0
VERTEX
8
Layer 1
10
489.430925
20
245.161623
70
0
0
VERTEX
8
Layer 1
10
488.749210
20
246.467919
70
0
0
VERTEX
8
Layer 1
10
488.245593
20
247.968188
70
0
0
VERTEX
8
Layer 1
10
469.338492
20
304.543970
70
0
0
VERTEX
8
Layer 1
10
468.335144
20
307.369924
70
0
0
VERTEX
8
Layer 1
10
467.737569
20
308.731012
70
0
0
VERTEX
8
Layer 1
10
467.020745
20
310.012570
70
0
0
VERTEX
8
Layer 1
10
466.143187
20
311.180896
70
0
0
VERTEX
8
Layer 1
10
465.063410
20
312.202284
70
0
0
VERTEX
8
Layer 1
10
463.739926
20
313.043033
70
0
0
VERTEX
8
Layer 1
10
462.131251
20
313.669438
70
0
0
VERTEX
8
Layer 1
10
461.703826
20
314.144241
70
0
0
VERTEX
8
Layer 1
10
461.398687
20
315.116376
70
0
0
VERTEX
8
Layer 1
10
460.803044
20
317.624954
70
0
0
VERTEX
8
Layer 1
10
491.955047
20
317.624954
70
0
0
VERTEX
8
Layer 1
10
492.277600
20
316.576223
70
0
0
VERTEX
8
Layer 1
10
492.405747
20
315.665469
70
0
0
VERTEX
8
Layer 1
10
492.342279
20
314.879358
70
0
0
VERTEX
8
Layer 1
10
492.089984
20
314.204557
70
0
0
VERTEX
8
Layer 1
10
491.651655
20
313.627735
70
0
0
VERTEX
8
Layer 1
10
491.030081
20
313.135559
70
0
0
VERTEX
8
Layer 1
10
489.248363
20
312.351815
70
0
0
VERTEX
8
Layer 1
10
485.055136
20
310.994049
70
0
0
VERTEX
8
Layer 1
10
483.961157
20
310.456445
70
0
0
VERTEX
8
Layer 1
10
483.412323
20
309.839930
70
0
0
VERTEX
8
Layer 1
10
483.316174
20
309.014684
70
0
0
VERTEX
8
Layer 1
10
483.580251
20
307.850886
70
0
0
VERTEX
8
Layer 1
10
484.819243
20
303.988346
70
0
0
VERTEX
8
Layer 1
10
495.971417
20
266.586893
70
0
0
VERTEX
8
Layer 1
10
497.159394
20
263.152606
70
0
0
VERTEX
8
Layer 1
10
499.143767
20
267.237767
70
0
0
VERTEX
8
Layer 1
10
505.390241
20
282.194975
70
0
0
VERTEX
8
Layer 1
10
511.531543
20
297.193855
70
0
0
VERTEX
8
Layer 1
10
511.929410
20
298.411598
70
0
0
VERTEX
8
Layer 1
10
512.172495
20
299.734513
70
0
0
VERTEX
8
Layer 1
10
512.186386
20
301.024686
70
0
0
VERTEX
8
Layer 1
10
511.896668
20
302.144203
70
0
0
VERTEX
8
Layer 1
10
511.274665
20
303.760593
70
0
0
VERTEX
8
Layer 1
10
510.786204
20
305.477411
70
0
0
VERTEX
8
Layer 1
10
510.315789
20
307.215747
70
0
0
VERTEX
8
Layer 1
10
509.747923
20
308.896692
70
0
0
VERTEX
8
Layer 1
10
508.967108
20
310.441334
70
0
0
VERTEX
8
Layer 1
10
507.857849
20
311.770766
70
0
0
VERTEX
8
Layer 1
10
506.304649
20
312.806076
70
0
0
VERTEX
8
Layer 1
10
504.192011
20
313.468355
70
0
0
VERTEX
8
Layer 1
10
503.763469
20
313.913061
70
0
0
VERTEX
8
Layer 1
10
503.408845
20
314.916616
70
0
0
VERTEX
8
Layer 1
10
502.625679
20
317.664641
70
0
0
VERTEX
8
Layer 1
10
502.625679
20
317.664641
70
0
0
SEQEND
8
Layer 1
0
POLYLINE
8
Layer 1
62
7
70
0
10
0.000000
20
0.000000
66
1
0
VERTEX
8
Layer 1
10
919.851904
20
320.614742
70
0
0
VERTEX
8
Layer 1
10
919.851904
20
308.269299
70
0
0
VERTEX
8
Layer 1
10
922.669051
20
309.920297
70
0
0
VERTEX
8
Layer 1
10
925.061543
20
311.428420
70
0
0
VERTEX
8
Layer 1
10
929.294333
20
314.227047
70
0
0
VERTEX
8
Layer 1
10
933.692571
20
316.632768
70
0
0
VERTEX
8
Layer 1
10
935.984661
20
317.635579
70
0
0
VERTEX
8
Layer 1
10
938.355226
20
318.476911
70
0
0
VERTEX
8
Layer 1
10
940.816639
20
319.135682
70
0
0
VERTEX
8
Layer 1
10
943.381270
20
319.590806
70
0
0
VERTEX
8
Layer 1
10
946.108812
20
319.829733
70
0
0
VERTEX
8
Layer 1
10
948.738259
20
319.820094
70
0
0
VERTEX
8
Layer 1
10
951.259326
20
319.569121
70
0
0
VERTEX
8
Layer 1
10
953.661725
20
319.084047
70
0
0
VERTEX
8
Layer 1
10
955.935171
20
318.372103
70
0
0
VERTEX
8
Layer 1
10
958.069378
20
317.440521
70
0
0
VERTEX
8
Layer 1
10
960.054059
20
316.296534
70
0
0
VERTEX
8
Layer 1
10
961.878929
20
314.947374
70
0
0
VERTEX
8
Layer 1
10
963.533700
20
313.400273
70
0
0
VERTEX
8
Layer 1
10
965.008088
20
311.662462
70
0
0
VERTEX
8
Layer 1
10
966.291805
20
309.741175
70
0
0
VERTEX
8
Layer 1
10
967.374566
20
307.643643
70
0
0
VERTEX
8
Layer 1
10
968.246084
20
305.377098
70
0
0
VERTEX
8
Layer 1
10
968.896073
20
302.948773
70
0
0
VERTEX
8
Layer 1
10
969.314247
20
300.365899
70
0
0
VERTEX
8
Layer 1
10
969.490320
20
297.635708
70
0
0
VERTEX
8
Layer 1
10
969.547371
20
288.886403
70
0
0
VERTEX
8
Layer 1
10
969.454602
20
280.133874
70
0
0
VERTEX
8
Layer 1
10
969.164883
20
262.626086
70
0
0
VERTEX
8
Layer 1
10
969.174454
20
259.834249
70
0
0
VERTEX
8
Layer 1
10
969.322806
20
257.635802
70
0
0
VERTEX
8
Layer 1
10
969.688199
20
255.917201
70
0
0
VERTEX
8
Layer 1
10
970.348892
20
254.564903
70
0
0
VERTEX
8
Layer 1
10
971.383143
20
253.465365
70
0
0
VERTEX
8
Layer 1
10
972.869211
20
252.505042
70
0
0
VERTEX
8
Layer 1
10
974.885354
20
251.570392
70
0
0
VERTEX
8
Layer 1
10
977.509831
20
250.547872
70
0
0
VERTEX
8
Layer 1
10
979.129740
20
250.069969
70
0
0
VERTEX
8
Layer 1
10
979.910426
20
249.798151
70
0
0
VERTEX
8
Layer 1
10
980.602806
20
249.407519
70
0
0
VERTEX
8
Layer 1
10
981.859245
20
248.110732
70
0
0
VERTEX
8
Layer 1
10
982.272284
20
247.399458
70
0
0
VERTEX
8
Layer 1
10
982.335825
20
246.835772
70
0
0
VERTEX
8
Layer 1
10
981.911417
20
246.123093
70
0
0
VERTEX
8
Layer 1
10
981.242436
20
245.454318
70
0
0
VERTEX
8
Layer 1
10
980.461337
20
244.955703
70
0
0
VERTEX
8
Layer 1
10
979.700578
20
244.753504
70
0
0
VERTEX
8
Layer 1
10
967.890585
20
244.697280
70
0
0
VERTEX
8
Layer 1
10
956.078608
20
244.764087
70
0
0
VERTEX
8
Layer 1
10
952.566269
20
244.733660
70
0
0
VERTEX
8
Layer 1
10
949.069804
20
244.861983
70
0
0
VERTEX
8
Layer 1
10
948.321158
20
245.055294
70
0
0
VERTEX
8
Layer 1
10
947.589132
20
245.422238
70
0
0
VERTEX
8
Layer 1
10
946.138225
20
246.280148
70
0
0
VERTEX
8
Layer 1
10
948.217847
20
249.653581
70
0
0
VERTEX
8
Layer 1
10
948.504589
20
249.844081
70
0
0
VERTEX
8
Layer 1
10
948.884596
20
249.939331
70
0
0
VERTEX
8
Layer 1
10
950.942644
20
250.452761
70
0
0
VERTEX
8
Layer 1
10
952.616250
20
251.200193
70
0
0
VERTEX
8
Layer 1
10
953.935212
20
252.179982
70
0
0
VERTEX
8
Layer 1
10
954.929326
20
253.390485
70
0
0
VERTEX
8
Layer 1
10
955.628388
20
254.830060
70
0
0
VERTEX
8
Layer 1
10
956.062196
20
256.497062
70
0
0
VERTEX
8
Layer 1
10
956.260545
20
258.389848
70
0
0
VERTEX
8
Layer 1
10
956.253233
20
260.506776
70
0
0
VERTEX
8
Layer 1
10
956.100974
20
267.861894
70
0
0
VERTEX
8
Layer 1
10
956.192048
20
275.227182
70
0
0
VERTEX
8
Layer 1
10
956.354064
20
282.596935
70
0
0
VERTEX
8
Layer 1
10
956.414628
20
289.965447
70
0
0
VERTEX
8
Layer 1
10
956.238934
20
292.904473
70
0
0
VERTEX
8
Layer 1
10
955.741306
20
295.660472
70
0
0
VERTEX
8
Layer 1
10
954.906397
20
298.214375
70
0
0
VERTEX
8
Layer 1
10
953.718858
20
300.547114
70
0
0
VERTEX
8
Layer 1
10
952.163343
20
302.639619
70
0
0
VERTEX
8
Layer 1
10
950.224502
20
304.472822
70
0
0
VERTEX
8
Layer 1
10
947.886989
20
306.027656
70
0
0
VERTEX
8
Layer 1
10
945.135455
20
307.285050
70
0
0
VERTEX
8
Layer 1
10
942.036284
20
308.267961
70
0
0
VERTEX
8
Layer 1
10
938.982288
20
308.880196
70
0
0
VERTEX
8
Layer 1
10
935.983421
20
309.096612
70
0
0
VERTEX
8
Layer 1
10
933.049634
20
308.892061
70
0
0
VERTEX
8
Layer 1
10
930.190882
20
308.241399
70
0
0
VERTEX
8
Layer 1
10
927.417117
20
307.119479
70
0
0
VERTEX
8
Layer 1
10
924.738292
20
305.501156
70
0
0
VERTEX
8
Layer 1
10
922.164359
20
303.361284
70
0
0
VERTEX
8
Layer 1
10
921.395497
20
302.443967
70
0
0
VERTEX
8
Layer 1
10
920.768022
20
301.332925
70
0
0
VERTEX
8
Layer 1
10
920.341961
20
300.138043
70
0
0
VERTEX
8
Layer 1
10
920.177341
20
298.969207
70
0
0
VERTEX
8
Layer 1
10
920.062909
20
279.064297
70
0
0
VERTEX
8
Layer 1
10
920.023883
20
259.157403
70
0
0
VERTEX
8
Layer 1
10
920.104890
20
257.736623
70
0
0
VERTEX
8
Layer 1
10
920.361391
20
256.454439
70
0
0
VERTEX
8
Layer 1
10
920.792765
20
255.307317
70
0
0
VERTEX
8
Layer 1
10
921.398391
20
254.291721
70
0
0
VERTEX
8
Layer 1
10
922.177650
20
253.404118
70
0
0
VERTEX
8
Layer 1
10
923.129922
20
252.640971
70
0
0
VERTEX
8
Layer 1
10
924.254585
20
251.998748
70
0
0
VERTEX
8
Layer 1
10
925.551021
20
251.473912
70
0
0
VERTEX
8
Layer 1
10
928.373791
20
250.569038
70
0
0
VERTEX
8
Layer 1
10
929.756527
20
250.059303
70
0
0
VERTEX
8
Layer 1
10
931.075514
20
249.433977
70
0
0
VERTEX
8
Layer 1
10
931.717459
20
248.907375
70
0
0
VERTEX
8
Layer 1
10
932.254232
20
248.189776
70
0
0
VERTEX
8
Layer 1
10
933.250387
20
246.616168
70
0
0
VERTEX
8
Layer 1
10
931.884477
20
245.536008
70
0
0
VERTEX
8
Layer 1
10
931.201026
20
245.085473
70
0
0
VERTEX
8
Layer 1
10
930.514599
20
244.896379
70
0
0
VERTEX
8
Layer 1
10
914.826150
20
244.809067
70
0
0
VERTEX
8
Layer 1
10
899.137701
20
244.896379
70
0
0
VERTEX
8
Layer 1
10
898.438829
20
245.071872
70
0
0
VERTEX
8
Layer 1
10
897.694070
20
245.490699
70
0
0
VERTEX
8
Layer 1
10
897.103595
20
246.009240
70
0
0
VERTEX
8
Layer 1
10
896.867578
20
246.483877
70
0
0
VERTEX
8
Layer 1
10
897.021119
20
247.231076
70
0
0
VERTEX
8
Layer 1
10
897.385500
20
247.974802
70
0
0
VERTEX
8
Layer 1
10
898.312202
20
249.441915
70
0
0
VERTEX
8
Layer 1
10
898.591998
20
249.643990
70
0
0
VERTEX
8
Layer 1
10
898.971013
20
249.740894
70
0
0
VERTEX
8
Layer 1
10
901.539231
20
250.291387
70
0
0
VERTEX
8
Layer 1
10
903.539576
20
251.185145
70
0
0
VERTEX
8
Layer 1
10
905.035705
20
252.395845
70
0
0
VERTEX
8
Layer 1
10
906.091273
20
253.897162
70
0
0
VERTEX
8
Layer 1
10
906.769933
20
255.662773
70
0
0
VERTEX
8
Layer 1
10
907.135342
20
257.666353
70
0
0
VERTEX
8
Layer 1
10
907.251154
20
259.881580
70
0
0
VERTEX
8
Layer 1
10
907.181024
20
262.282128
70
0
0
VERTEX
8
Layer 1
10
906.862573
20
270.463861
70
0
0
VERTEX
8
Layer 1
10
906.738839
20
278.656508
70
0
0
VERTEX
8
Layer 1
10
906.652313
20
286.852132
70
0
0
VERTEX
8
Layer 1
10
906.445483
20
295.042795
70
0
0
VERTEX
8
Layer 1
10
906.222241
20
297.212624
70
0
0
VERTEX
8
Layer 1
10
905.727140
20
299.391878
70
0
0
VERTEX
8
Layer 1
10
904.972086
20
301.484812
70
0
0
VERTEX
8
Layer 1
10
903.968986
20
303.395680
70
0
0
VERTEX
8
Layer 1
10
902.805896
20
304.706234
70
0
0
VERTEX
8
Layer 1
10
901.294052
20
305.797763
70
0
0
VERTEX
8
Layer 1
10
898.039681
20
307.856550
70
0
0
VERTEX
8
Layer 1
10
896.784235
20
308.809710
70
0
0
VERTEX
8
Layer 1
10
896.286488
20
309.336643
70
0
0
VERTEX
8
Layer 1
10
896.052663
20
309.885901
70
0
0
VERTEX
8
Layer 1
10
896.126291
20
310.598787
70
0
0
VERTEX
8
Layer 1
10
896.427378
20
311.380134
70
0
0
VERTEX
8
Layer 1
10
896.879774
20
312.057301
70
0
0
VERTEX
8
Layer 1
10
897.407328
20
312.457648
70
0
0
VERTEX
8
Layer 1
10
908.347835
20
316.491547
70
0
0
VERTEX
8
Layer 1
10
919.851904
20
320.614742
70
0
0
VERTEX
8
Layer 1
10
919.851904
20
320.614742
70
0
0
SEQEND
8
Layer 1
0
POLYLINE
8
Layer 1
62
7
70
0
10
0.000000
20
0.000000
66
1
0
VERTEX
8
Layer 1
10
172.203846
20
282.189353
70
0
0
VERTEX
8
Layer 1
10
172.785060
20
287.132972
70
0
0
VERTEX
8
Layer 1
10
173.823920
20
291.937500
70
0
0
VERTEX
8
Layer 1
10
175.364579
20
296.553388
70
0
0
VERTEX
8
Layer 1
10
176.336880
20
298.775109
70
0
0
VERTEX
8
Layer 1
10
177.451188
20
300.931090
70
0
0
VERTEX
8
Layer 1
10
178.713021
20
303.015137
70
0
0
VERTEX
8
Layer 1
10
180.127900
20
305.021057
70
0
0
VERTEX
8
Layer 1
10
181.701342
20
306.942657
70
0
0
VERTEX
8
Layer 1
10
183.438867
20
308.773743
70
0
0
VERTEX
8
Layer 1
10
185.345993
20
310.508122
70
0
0
VERTEX
8
Layer 1
10
187.428241
20
312.139601
70
0
0
VERTEX
8
Layer 1
10
189.691128
20
313.661985
70
0
0
VERTEX
8
Layer 1
10
192.140175
20
315.069082
70
0
0
VERTEX
8
Layer 1
10
194.722439
20
316.339019
70
0
0
VERTEX
8
Layer 1
10
197.303197
20
317.413375
70
0
0
VERTEX
8
Layer 1
10
199.881373
20
318.293643
70
0
0
VERTEX
8
Layer 1
10
202.455894
20
318.981314
70
0
0
VERTEX
8
Layer 1
10
205.025686
20
319.477881
70
0
0
VERTEX
8
Layer 1
10
207.589677
20
319.784835
70
0
0
VERTEX
8
Layer 1
10
210.146792
20
319.903669
70
0
0
VERTEX
8
Layer 1
10
212.695959
20
319.835876
70
0
0
VERTEX
8
Layer 1
10
215.236102
20
319.582946
70
0
0
VERTEX
8
Layer 1
10
217.766149
20
319.146373
70
0
0
VERTEX
8
Layer 1
10
220.285027
20
318.527649
70
0
0
VERTEX
8
Layer 1
10
222.791660
20
317.728265
70
0
0
VERTEX
8
Layer 1
10
225.284977
20
316.749715
70
0
0
VERTEX
8
Layer 1
10
227.763904
20
315.593489
70
0
0
VERTEX
8
Layer 1
10
230.227366
20
314.261080
70
0
0
VERTEX
8
Layer 1
10
232.674290
20
312.753981
70
0
0
VERTEX
8
Layer 1
10
235.356841
20
310.758901
70
0
0
VERTEX
8
Layer 1
10
237.692189
20
308.534874
70
0
0
VERTEX
8
Layer 1
10
239.708178
20
306.101000
70
0
0
VERTEX
8
Layer 1
10
241.432649
20
303.476378
70
0
0
VERTEX
8
Layer 1
10
242.893447
20
300.680108
70
0
0
VERTEX
8
Layer 1
10
244.118414
20
297.731289
70
0
0
VERTEX
8
Layer 1
10
245.135395
20
294.649021
70
0
0
VERTEX
8
Layer 1
10
245.972232
20
291.452404
70
0
0
VERTEX
8
Layer 1
10
246.527115
20
288.578574
70
0
0
VERTEX
8
Layer 1
10
246.867080
20
285.673467
70
0
0
VERTEX
8
Layer 1
10
246.996424
20
282.752562
70
0
0
VERTEX
8
Layer 1
10
246.919439
20
279.831340
70
0
0
VERTEX
8
Layer 1
10
246.640420
20
276.925279
70
0
0
VERTEX
8
Layer 1
10
246.163662
20
274.049860
70
0
0
VERTEX
8
Layer 1
10
245.493458
20
271.220562
70
0
0
VERTEX
8
Layer 1
10
244.634103
20
268.452865
70
0
0
VERTEX
8
Layer 1
10
243.589892
20
265.762248
70
0
0
VERTEX
8
Layer 1
10
242.365118
20
263.164192
70
0
0
VERTEX
8
Layer 1
10
240.964076
20
260.674175
70
0
0
VERTEX
8
Layer 1
10
239.391060
20
258.307678
70
0
0
VERTEX
8
Layer 1
10
237.650365
20
256.080180
70
0
0
VERTEX
8
Layer 1
10
235.746285
20
254.007160
70
0
0
VERTEX
8
Layer 1
10
233.683114
20
252.104099
70
0
0
VERTEX
8
Layer 1
10
231.465146
20
250.386476
70
0
0
VERTEX
8
Layer 1
10
229.108447
20
248.820551
70
0
0
VERTEX
8
Layer 1
10
226.726521
20
247.432929
70
0
0
VERTEX
8
Layer 1
10
224.320992
20
246.223939
70
0
0
VERTEX
8
Layer 1
10
221.893484
20
245.193911
70
0
0
VERTEX
8
Layer 1
10
219.445620
20
244.343174
70
0
0
VERTEX
8
Layer 1
10
216.979025
20
243.672057
70
0
0
VERTEX
8
Layer 1
10
214.495323
20
243.180891
70
0
0
VERTEX
8
Layer 1
10
211.996137
20
242.870004
70
0
0
VERTEX
8
Layer 1
10
209.483091
20
242.739726
70
0
0
VERTEX
8
Layer 1
10
206.957810
20
242.790386
70
0
0
VERTEX
8
Layer 1
10
204.421917
20
243.022314
70
0
0
VERTEX
8
Layer 1
10
201.877036
20
243.435839
70
0
0
VERTEX
8
Layer 1
10
199.324791
20
244.031291
70
0
0
VERTEX
8
Layer 1
10
196.766806
20
244.808999
70
0
0
VERTEX
8
Layer 1
10
194.204706
20
245.769293
70
0
0
VERTEX
8
Layer 1
10
191.640113
20
246.912501
70
0
0
VERTEX
8
Layer 1
10
189.134361
20
248.233503
70
0
0
VERTEX
8
Layer 1
10
186.828123
20
249.684535
70
0
0
VERTEX
8
Layer 1
10
184.715532
20
251.262986
70
0
0
VERTEX
8
Layer 1
10
182.790721
20
252.966243
70
0
0
VERTEX
8
Layer 1
10
181.047820
20
254.791694
70
0
0
VERTEX
8
Layer 1
10
179.480963
20
256.736727
70
0
0
VERTEX
8
Layer 1
10
178.084282
20
258.798729
70
0
0
VERTEX
8
Layer 1
10
176.851907
20
260.975088
70
0
0
VERTEX
8
Layer 1
10
175.777973
20
263.263192
70
0
0
VERTEX
8
Layer 1
10
174.856611
20
265.660429
70
0
0
VERTEX
8
Layer 1
10
174.081952
20
268.164187
70
0
0
VERTEX
8
Layer 1
10
173.448130
20
270.771852
70
0
0
VERTEX
8
Layer 1
10
172.579522
20
276.288459
70
0
0
VERTEX
8
Layer 1
10
172.203846
20
282.189353
70
0
0
VERTEX
8
Layer 1
10
172.203846
20
282.189353
70
0
0
SEQEND
8
Layer 1
0
POLYLINE
8
Layer 1
62
7
70
0
10
0.000000
20
0.000000
66
1
0
VERTEX
8
Layer 1
10
232.504957
20
277.598838
70
0
0
VERTEX
8
Layer 1
10
232.267117
20
281.634390
70
0
0
VERTEX
8
Layer 1
10
231.875208
20
285.467040
70
0
0
VERTEX
8
Layer 1
10
231.293730
20
289.103981
70
0
0
VERTEX
8
Layer 1
10
230.487181
20
292.552407
70
0
0
VERTEX
8
Layer 1
10
229.420059
20
295.819511
70
0
0
VERTEX
8
Layer 1
10
228.056862
20
298.912487
70
0
0
VERTEX
8
Layer 1
10
226.362089
20
301.838527
70
0
0
VERTEX
8
Layer 1
10
224.300238
20
304.604825
70
0
0
VERTEX
8
Layer 1
10
222.320713
20
306.702937
70
0
0
VERTEX
8
Layer 1
10
220.174935
20
308.501476
70
0
0
VERTEX
8
Layer 1
10
217.893661
20
309.997157
70
0
0
VERTEX
8
Layer 1
10
215.507649
20
311.186699
70
0
0
VERTEX
8
Layer 1
10
213.047658
20
312.066818
70
0
0
VERTEX
8
Layer 1
10
210.544444
20
312.634231
70
0
0
VERTEX
8
Layer 1
10
208.028766
20
312.885657
70
0
0
VERTEX
8
Layer 1
10
205.531382
20
312.817812
70
0
0
VERTEX
8
Layer 1
10
203.083048
20
312.427413
70
0
0
VERTEX
8
Layer 1
10
200.714524
20
311.711178
70
0
0
VERTEX
8
Layer 1
10
198.456567
20
310.665824
70
0
0
VERTEX
8
Layer 1
10
196.339934
20
309.288068
70
0
0
VERTEX
8
Layer 1
10
194.395383
20
307.574627
70
0
0
VERTEX
8
Layer 1
10
192.653672
20
305.522220
70
0
0
VERTEX
8
Layer 1
10
191.145560
20
303.127562
70
0
0
VERTEX
8
Layer 1
10
189.901802
20
300.387372
70
0
0
VERTEX
8
Layer 1
10
188.288094
20
295.381735
70
0
0
VERTEX
8
Layer 1
10
187.236459
20
290.397586
70
0
0
VERTEX
8
Layer 1
10
186.742929
20
285.440535
70
0
0
VERTEX
8
Layer 1
10
186.803535
20
280.516196
70
0
0
VERTEX
8
Layer 1
10
187.414309
20
275.630180
70
0
0
VERTEX
8
Layer 1
10
188.571281
20
270.788099
70
0
0
VERTEX
8
Layer 1
10
190.270482
20
265.995566
70
0
0
VERTEX
8
Layer 1
10
192.507945
20
261.258192
70
0
0
VERTEX
8
Layer 1
10
194.300484
20
258.398959
70
0
0
VERTEX
8
Layer 1
10
196.379704
20
255.982737
70
0
0
VERTEX
8
Layer 1
10
198.721232
20
254.000597
70
0
0
VERTEX
8
Layer 1
10
201.300700
20
252.443609
70
0
0
VERTEX
8
Layer 1
10
204.093735
20
251.302843
70
0
0
VERTEX
8
Layer 1
10
207.075968
20
250.569369
70
0
0
VERTEX
8
Layer 1
10
210.223027
20
250.234258
70
0
0
VERTEX
8
Layer 1
10
213.510544
20
250.288581
70
0
0
VERTEX
8
Layer 1
10
216.602925
20
250.761362
70
0
0
VERTEX
8
Layer 1
10
219.381682
20
251.679667
70
0
0
VERTEX
8
Layer 1
10
221.853419
20
253.010783
70
0
0
VERTEX
8
Layer 1
10
224.024741
20
254.721999
70
0
0
VERTEX
8
Layer 1
10
225.902252
20
256.780605
70
0
0
VERTEX
8
Layer 1
10
227.492556
20
259.153889
70
0
0
VERTEX
8
Layer 1
10
228.802258
20
261.809139
70
0
0
VERTEX
8
Layer 1
10
229.837960
20
264.713646
70
0
0
VERTEX
8
Layer 1
10
230.766647
20
268.306393
70
0
0
VERTEX
8
Layer 1
10
231.471099
20
271.786280
70
0
0
VERTEX
8
Layer 1
10
232.504957
20
277.598838
70
0
0
VERTEX
8
Layer 1
10
232.504957
20
277.598838
70
0
0
SEQEND
8
Layer 1
0
POLYLINE
8
Layer 1
62
7
70
0
10
0.000000
20
0.000000
66
1
0
VERTEX
8
Layer 1
10
777.871374
20
285.007162
70
0
0
VERTEX
8
Layer 1
10
777.850062
20
281.131913
70
0
0
VERTEX
8
Layer 1
10
778.152690
20
277.506838
70
0
0
VERTEX
8
Layer 1
10
778.763563
20
274.134438
70
0
0
VERTEX
8
Layer 1
10
779.666983
20
271.017212
70
0
0
VERTEX
8
Layer 1
10
780.847255
20
268.157659
70
0
0
VERTEX
8
Layer 1
10
782.288680
20
265.558280
70
0
0
VERTEX
8
Layer 1
10
783.975564
20
263.221575
70
0
0
VERTEX
8
Layer 1
10
785.892208
20
261.150043
70
0
0
VERTEX
8
Layer 1
10
788.022916
20
259.346185
70
0
0
VERTEX
8
Layer 1
10
790.351992
20
257.812499
70
0
0
VERTEX
8
Layer 1
10
792.863739
20
256.551487
70
0
0
VERTEX
8
Layer 1
10
795.542459
20
255.565647
70
0
0
VERTEX
8
Layer 1
10
798.372457
20
254.857480
70
0
0
VERTEX
8
Layer 1
10
801.338036
20
254.429485
70
0
0
VERTEX
8
Layer 1
10
804.423499
20
254.284163
70
0
0
VERTEX
8
Layer 1
10
807.613149
20
254.424013
70
0
0
VERTEX
8
Layer 1
10
810.975296
20
254.885627
70
0
0
VERTEX
8
Layer 1
10
814.317352
20
255.574949
70
0
0
VERTEX
8
Layer 1
10
821.003695
20
257.011635
70
0
0
VERTEX
8
Layer 1
10
821.794095
20
257.027385
70
0
0
VERTEX
8
Layer 1
10
822.614013
20
256.873721
70
0
0
VERTEX
8
Layer 1
10
824.273941
20
256.448073
70
0
0
VERTEX
8
Layer 1
10
823.821835
20
254.602606
70
0
0
VERTEX
8
Layer 1
10
823.534638
20
253.751311
70
0
0
VERTEX
8
Layer 1
10
823.070088
20
253.106389
70
0
0
VERTEX
8
Layer 1
10
818.918093
20
249.893711
70
0
0
VERTEX
8
Layer 1
10
814.623565
20
247.241246
70
0
0
VERTEX
8
Layer 1
10
812.423655
20
246.135596
70
0
0
VERTEX
8
Layer 1
10
810.189077
20
245.182604
70
0
0
VERTEX
8
Layer 1
10
807.920151
20
244.386470
70
0
0
VERTEX
8
Layer 1
10
805.617201
20
243.751396
70
0
0
VERTEX
8
Layer 1
10
803.280548
20
243.281583
70
0
0
VERTEX
8
Layer 1
10
800.910513
20
242.981232
70
0
0
VERTEX
8
Layer 1
10
798.507417
20
242.854545
70
0
0
VERTEX
8
Layer 1
10
796.071584
20
242.905723
70
0
0
VERTEX
8
Layer 1
10
793.603334
20
243.138966
70
0
0
VERTEX
8
Layer 1
10
791.102989
20
243.558478
70
0
0
VERTEX
8
Layer 1
10
788.570871
20
244.168458
70
0
0
VERTEX
8
Layer 1
10
786.007301
20
244.973108
70
0
0
VERTEX
8
Layer 1
10
783.551982
20
245.927225
70
0
0
VERTEX
8
Layer 1
10
781.251381
20
247.012345
70
0
0
VERTEX
8
Layer 1
10
779.102894
20
248.225155
70
0
0
VERTEX
8
Layer 1
10
777.103918
20
249.562342
70
0
0
VERTEX
8
Layer 1
10
775.251847
20
251.020590
70
0
0
VERTEX
8
Layer 1
10
773.544078
20
252.596587
70
0
0
VERTEX
8
Layer 1
10
771.978005
20
254.287018
70
0
0
VERTEX
8
Layer 1
10
770.551024
20
256.088571
70
0
0
VERTEX
8
Layer 1
10
769.260531
20
257.997930
70
0
0
VERTEX
8
Layer 1
10
768.103921
20
260.011784
70
0
0
VERTEX
8
Layer 1
10
767.078589
20
262.126817
70
0
0
VERTEX
8
Layer 1
10
766.181932
20
264.339715
70
0
0
VERTEX
8
Layer 1
10
764.764222
20
269.045856
70
0
0
VERTEX
8
Layer 1
10
763.829954
20
274.103696
70
0
0
VERTEX
8
Layer 1
10
763.377724
20
279.057460
70
0
0
VERTEX
8
Layer 1
10
763.380163
20
283.882395
70
0
0
VERTEX
8
Layer 1
10
763.857860
20
288.570469
70
0
0
VERTEX
8
Layer 1
10
764.831401
20
293.113654
70
0
0
VERTEX
8
Layer 1
10
766.321375
20
297.503918
70
0
0
VERTEX
8
Layer 1
10
768.348371
20
301.733231
70
0
0
VERTEX
8
Layer 1
10
770.932974
20
305.793562
70
0
0
VERTEX
8
Layer 1
10
774.095775
20
309.676881
70
0
0
VERTEX
8
Layer 1
10
775.773731
20
311.358560
70
0
0
VERTEX
8
Layer 1
10
777.599298
20
312.896287
70
0
0
VERTEX
8
Layer 1
10
779.556749
20
314.287186
70
0
0
VERTEX
8
Layer 1
10
781.630354
20
315.528382
70
0
0
VERTEX
8
Layer 1
10
783.804388
20
316.616997
70
0
0
VERTEX
8
Layer 1
10
786.063122
20
317.550158
70
0
0
VERTEX
8
Layer 1
10
788.390829
20
318.324987
70
0
0
VERTEX
8
Layer 1
10
790.771780
20
318.938609
70
0
0
VERTEX
8
Layer 1
10
793.190248
20
319.388148
70
0
0
VERTEX
8
Layer 1
10
795.630506
20
319.670728
70
0
0
VERTEX
8
Layer 1
10
798.076825
20
319.783475
70
0
0
VERTEX
8
Layer 1
10
800.513478
20
319.723511
70
0
0
VERTEX
8
Layer 1
10
802.924737
20
319.487961
70
0
0
VERTEX
8
Layer 1
10
805.294875
20
319.073949
70
0
0
VERTEX
8
Layer 1
10
807.608164
20
318.478600
70
0
0
VERTEX
8
Layer 1
10
809.848876
20
317.699037
70
0
0
VERTEX
8
Layer 1
10
813.244581
20
316.078394
70
0
0
VERTEX
8
Layer 1
10
816.158767
20
314.117989
70
0
0
VERTEX
8
Layer 1
10
818.611958
20
311.836240
70
0
0
VERTEX
8
Layer 1
10
820.624680
20
309.251564
70
0
0
VERTEX
8
Layer 1
10
822.217459
20
306.382378
70
0
0
VERTEX
8
Layer 1
10
823.410821
20
303.247100
70
0
0
VERTEX
8
Layer 1
10
824.225293
20
299.864148
70
0
0
VERTEX
8
Layer 1
10
824.681399
20
296.251939
70
0
0
VERTEX
8
Layer 1
10
824.929631
20
292.645337
70
0
0
VERTEX
8
Layer 1
10
824.972109
20
289.933656
70
0
0
VERTEX
8
Layer 1
10
824.696095
20
287.988873
70
0
0
VERTEX
8
Layer 1
10
824.403424
20
287.264061
70
0
0
VERTEX
8
Layer 1
10
823.988853
20
286.682964
70
0
0
VERTEX
8
Layer 1
10
823.438290
20
286.229581
70
0
0
VERTEX
8
Layer 1
10
822.737644
20
285.887908
70
0
0
VERTEX
8
Layer 1
10
820.829732
20
285.475680
70
0
0
VERTEX
8
Layer 1
10
818.152379
20
285.318259
70
0
0
VERTEX
8
Layer 1
10
814.592849
20
285.287620
70
0
0
VERTEX
8
Layer 1
10
782.099411
20
285.202953
70
0
0
VERTEX
8
Layer 1
10
777.871374
20
285.007162
70
0
0
VERTEX
8
Layer 1
10
777.871374
20
285.007162
70
0
0
SEQEND
8
Layer 1
0
POLYLINE
8
Layer 1
62
7
70
0
10
0.000000
20
0.000000
66
1
0
VERTEX
8
Layer 1
10
777.519479
20
290.383488
70
0
0
VERTEX
8
Layer 1
10
791.774219
20
291.189144
70
0
0
VERTEX
8
Layer 1
10
805.689631
20
292.201174
70
0
0
VERTEX
8
Layer 1
10
806.928293
20
292.585439
70
0
0
VERTEX
8
Layer 1
10
808.167451
20
293.404034
70
0
0
VERTEX
8
Layer 1
10
809.263734
20
294.483078
70
0
0
VERTEX
8
Layer 1
10
810.073771
20
295.648690
70
0
0
VERTEX
8
Layer 1
10
810.867727
20
297.680176
70
0
0
VERTEX
8
Layer 1
10
811.184689
20
299.832615
70
0
0
VERTEX
8
Layer 1
10
811.055663
20
302.024060
70
0
0
VERTEX
8
Layer 1
10
810.511656
20
304.172562
70
0
0
VERTEX
8
Layer 1
10
809.583672
20
306.196172
70
0
0
VERTEX
8
Layer 1
10
808.302719
20
308.012943
70
0
0
VERTEX
8
Layer 1
10
806.699800
20
309.540925
70
0
0
VERTEX
8
Layer 1
10
804.805924
20
310.698171
70
0
0
VERTEX
8
Layer 1
10
802.307971
20
311.688957
70
0
0
VERTEX
8
Layer 1
10
799.828125
20
312.329036
70
0
0
VERTEX
8
Layer 1
10
797.371596
20
312.620423
70
0
0
VERTEX
8
Layer 1
10
794.943592
20
312.565135
70
0
0
VERTEX
8
Layer 1
10
792.549323
20
312.165186
70
0
0
VERTEX
8
Layer 1
10
790.193997
20
311.422591
70
0
0
VERTEX
8
Layer 1
10
787.882823
20
310.339367
70
0
0
VERTEX
8
Layer 1
10
785.621010
20
308.917527
70
0
0
VERTEX
8
Layer 1
10
783.564678
20
307.216951
70
0
0
VERTEX
8
Layer 1
10
781.875300
20
305.328046
70
0
0
VERTEX
8
Layer 1
10
780.518491
20
303.256950
70
0
0
VERTEX
8
Layer 1
10
779.459864
20
301.009803
70
0
0
VERTEX
8
Layer 1
10
778.665035
20
298.592744
70
0
0
VERTEX
8
Layer 1
10
778.099618
20
296.011913
70
0
0
VERTEX
8
Layer 1
10
777.729228
20
293.273448
70
0
0
VERTEX
8
Layer 1
10
777.519479
20
290.383488
70
0
0
VERTEX
8
Layer 1
10
777.519479
20
290.383488
70
0
0
SEQEND
8
Layer 1
0
POLYLINE
8
Layer 1
62
7
70
0
10
0.000000
20
0.000000
66
1
0
VERTEX
8
Layer 1
10
611.067668
20
285.176495
70
0
0
VERTEX
8
Layer 1
10
600.914956
20
285.198323
70
0
0
VERTEX
8
Layer 1
10
590.766214
20
285.081245
70
0
0
VERTEX
8
Layer 1
10
589.898589
20
284.860277
70
0
0
VERTEX
8
Layer 1
10
588.976641
20
284.341405
70
0
0
VERTEX
8
Layer 1
10
588.229814
20
283.675193
70
0
0
VERTEX
8
Layer 1
10
587.887551
20
283.012206
70
0
0
VERTEX
8
Layer 1
10
587.779405
20
281.007695
70
0
0
VERTEX
8
Layer 1
10
587.865242
20
278.976984
70
0
0
VERTEX
8
Layer 1
10
588.135402
20
276.935236
70
0
0
VERTEX
8
Layer 1
10
588.580221
20
274.897611
70
0
0
VERTEX
8
Layer 1
10
589.190038
20
272.879271
70
0
0
VERTEX
8
Layer 1
10
589.955190
20
270.895379
70
0
0
VERTEX
8
Layer 1
10
590.866015
20
268.961097
70
0
0
VERTEX
8
Layer 1
10
591.912851
20
267.091585
70
0
0
VERTEX
8
Layer 1
10
593.086035
20
265.302007
70
0
0
VERTEX
8
Layer 1
10
594.375906
20
263.607523
70
0
0
VERTEX
8
Layer 1
10
595.772802
20
262.023296
70
0
0
VERTEX
8
Layer 1
10
597.267060
20
260.564488
70
0
0
VERTEX
8
Layer 1
10
598.849017
20
259.246260
70
0
0
VERTEX
8
Layer 1
10
600.509013
20
258.083774
70
0
0
VERTEX
8
Layer 1
10
602.237384
20
257.092193
70
0
0
VERTEX
8
Layer 1
10
604.024468
20
256.286677
70
0
0
VERTEX
8
Layer 1
10
606.483442
20
255.445009
70
0
0
VERTEX
8
Layer 1
10
608.952864
20
254.826799
70
0
0
VERTEX
8
Layer 1
10
611.432518
20
254.422840
70
0
0
VERTEX
8
Layer 1
10
613.922187
20
254.223922
70
0
0
VERTEX
8
Layer 1
10
616.421655
20
254.220837
70
0
0
VERTEX
8
Layer 1
10
618.930702
20
254.404376
70
0
0
VERTEX
8
Layer 1
10
621.449114
20
254.765330
70
0
0
VERTEX
8
Layer 1
10
623.976672
20
255.294491
70
0
0
VERTEX
8
Layer 1
10
627.919620
20
256.273779
70
0
0
VERTEX
8
Layer 1
10
631.890350
20
257.072489
70
0
0
VERTEX
8
Layer 1
10
632.632505
20
257.034455
70
0
0
VERTEX
8
Layer 1
10
633.406410
20
256.786078
70
0
0
VERTEX
8
Layer 1
10
634.978033
20
256.138511
70
0
0
VERTEX
8
Layer 1
10
634.588766
20
254.623112
70
0
0
VERTEX
8
Layer 1
10
634.345143
20
253.917998
70
0
0
VERTEX
8
Layer 1
10
633.959389
20
253.365681
70
0
0
VERTEX
8
Layer 1
10
630.210806
20
250.308456
70
0
0
VERTEX
8
Layer 1
10
626.225219
20
247.792658
70
0
0
VERTEX
8
Layer 1
10
622.056706
20
245.814262
70
0
0
VERTEX
8
Layer 1
10
617.759344
20
244.369239
70
0
0
VERTEX
8
Layer 1
10
613.387211
20
243.453563
70
0
0
VERTEX
8
Layer 1
10
608.994386
20
243.063206
70
0
0
VERTEX
8
Layer 1
10
604.634946
20
243.194143
70
0
0
VERTEX
8
Layer 1
10
600.362970
20
243.842346
70
0
0
VERTEX
8
Layer 1
10
596.232536
20
245.003789
70
0
0
VERTEX
8
Layer 1
10
592.297721
20
246.674444
70
0
0
VERTEX
8
Layer 1
10
588.612603
20
248.850284
70
0
0
VERTEX
8
Layer 1
10
586.880581
20
250.126391
70
0
0
VERTEX
8
Layer 1
10
585.231262
20
251.527284
70
0
0
VERTEX
8
Layer 1
10
583.671406
20
253.052459
70
0
0
VERTEX
8
Layer 1
10
582.207774
20
254.701415
70
0
0
VERTEX
8
Layer 1
10
580.847124
20
256.473646
70
0
0
VERTEX
8
Layer 1
10
579.596217
20
258.368651
70
0
0
VERTEX
8
Layer 1
10
578.461813
20
260.385925
70
0
0
VERTEX
8
Layer 1
10
577.450671
20
262.524965
70
0
0
VERTEX
8
Layer 1
10
576.569551
20
264.785268
70
0
0
VERTEX
8
Layer 1
10
575.825212
20
267.166330
70
0
0
VERTEX
8
Layer 1
10
574.564872
20
272.699174
70
0
0
VERTEX
8
Layer 1
10
573.877426
20
278.140241
70
0
0
VERTEX
8
Layer 1
10
573.756882
20
280.822947
70
0
0
VERTEX
8
Layer 1
10
573.789571
20
283.478616
70
0
0
VERTEX
8
Layer 1
10
573.978833
20
286.105884
70
0
0
VERTEX
8
Layer 1
10
574.328003
20
288.703386
70
0
0
VERTEX
8
Layer 1
10
574.840419
20
291.269759
70
0
0
VERTEX
8
Layer 1
10
575.519417
20
293.803637
70
0
0
VERTEX
8
Layer 1
10
576.368335
20
296.303657
70
0
0
VERTEX
8
Layer 1
10
577.390510
20
298.768454
70
0
0
VERTEX
8
Layer 1
10
578.589278
20
301.196665
70
0
0
VERTEX
8
Layer 1
10
579.967977
20
303.586924
70
0
0
VERTEX
8
Layer 1
10
581.529944
20
305.937868
70
0
0
VERTEX
8
Layer 1
10
583.278515
20
308.248132
70
0
0
VERTEX
8
Layer 1
10
585.160722
20
310.349987
70
0
0
VERTEX
8
Layer 1
10
587.246134
20
312.250002
70
0
0
VERTEX
8
Layer 1
10
589.510557
20
313.944836
70
0
0
VERTEX
8
Layer 1
10
591.929800
20
315.431148
70
0
0
VERTEX
8
Layer 1
10
594.479671
20
316.705597
70
0
0
VERTEX
8
Layer 1
10
597.135977
20
317.764842
70
0
0
VERTEX
8
Layer 1
10
599.874526
20
318.605543
70
0
0
VERTEX
8
Layer 1
10
602.671126
20
319.224358
70
0
0
VERTEX
8
Layer 1
10
605.501584
20
319.617947
70
0
0
VERTEX
8
Layer 1
10
608.341708
20
319.782969
70
0
0
VERTEX
8
Layer 1
10
611.167306
20
319.716083
70
0
0
VERTEX
8
Layer 1
10
613.954185
20
319.413949
70
0
0
VERTEX
8
Layer 1
10
616.678154
20
318.873224
70
0
0
VERTEX
8
Layer 1
10
619.315019
20
318.090568
70
0
0
VERTEX
8
Layer 1
10
621.840590
20
317.062641
70
0
0
VERTEX
8
Layer 1
10
624.230672
20
315.786102
70
0
0
VERTEX
8
Layer 1
10
626.770886
20
314.015690
70
0
0
VERTEX
8
Layer 1
10
628.929914
20
312.030843
70
0
0
VERTEX
8
Layer 1
10
630.727662
20
309.844333
70
0
0
VERTEX
8
Layer 1
10
632.184037
20
307.468936
70
0
0
VERTEX
8
Layer 1
10
633.318943
20
304.917425
70
0
0
VERTEX
8
Layer 1
10
634.152286
20
302.202576
70
0
0
VERTEX
8
Layer 1
10
634.703973
20
299.337163
70
0
0
VERTEX
8
Layer 1
10
634.993908
20
296.333960
70
0
0
VERTEX
8
Layer 1
10
635.166916
20
292.694414
70
0
0
VERTEX
8
Layer 1
10
635.160554
20
289.958502
70
0
0
VERTEX
8
Layer 1
10
634.856475
20
287.996991
70
0
0
VERTEX
8
Layer 1
10
634.555807
20
287.266251
70
0
0
VERTEX
8
Layer 1
10
634.136329
20
286.680649
70
0
0
VERTEX
8
Layer 1
10
633.583246
20
286.224032
70
0
0
VERTEX
8
Layer 1
10
632.881766
20
285.880244
70
0
0
VERTEX
8
Layer 1
10
630.974438
20
285.466544
70
0
0
VERTEX
8
Layer 1
10
628.295995
20
285.310316
70
0
0
VERTEX
8
Layer 1
10
624.728088
20
285.282328
70
0
0
VERTEX
8
Layer 1
10
611.067668
20
285.279682
70
0
0
VERTEX
8
Layer 1
10
611.067668
20
285.176495
70
0
0
VERTEX
8
Layer 1
10
611.067668
20
285.176495
70
0
0
SEQEND
8
Layer 1
0
POLYLINE
8
Layer 1
62
7
70
0
10
0.000000
20
0.000000
66
1
0
VERTEX
8
Layer 1
10
588.162717
20
291.603216
70
0
0
VERTEX
8
Layer 1
10
601.573107
20
291.504328
70
0
0
VERTEX
8
Layer 1
10
608.198678
20
291.528430
70
0
0
VERTEX
8
Layer 1
10
614.792996
20
291.732862
70
0
0
VERTEX
8
Layer 1
10
616.327051
20
291.950765
70
0
0
VERTEX
8
Layer 1
10
617.653552
20
292.428343
70
0
0
VERTEX
8
Layer 1
10
618.776283
20
293.145471
70
0
0
VERTEX
8
Layer 1
10
619.699027
20
294.082028
70
0
0
VERTEX
8
Layer 1
10
620.425565
20
295.217890
70
0
0
VERTEX
8
Layer 1
10
620.959682
20
296.532935
70
0
0
VERTEX
8
Layer 1
10
621.305159
20
298.007039
70
0
0
VERTEX
8
Layer 1
10
621.465780
20
299.620081
70
0
0
VERTEX
8
Layer 1
10
621.365378
20
302.041020
70
0
0
VERTEX
8
Layer 1
10
620.870426
20
304.266530
70
0
0
VERTEX
8
Layer 1
10
619.999871
20
306.274317
70
0
0
VERTEX
8
Layer 1
10
618.772655
20
308.042088
70
0
0
VERTEX
8
Layer 1
10
617.207724
20
309.547550
70
0
0
VERTEX
8
Layer 1
10
615.324023
20
310.768410
70
0
0
VERTEX
8
Layer 1
10
613.140495
20
311.682373
70
0
0
VERTEX
8
Layer 1
10
610.676085
20
312.267148
70
0
0
VERTEX
8
Layer 1
10
608.332246
20
312.520372
70
0
0
VERTEX
8
Layer 1
10
606.071219
20
312.527716
70
0
0
VERTEX
8
Layer 1
10
603.902024
20
312.297734
70
0
0
VERTEX
8
Layer 1
10
601.833680
20
311.838979
70
0
0
VERTEX
8
Layer 1
10
599.875204
20
311.160005
70
0
0
VERTEX
8
Layer 1
10
598.035616
20
310.269366
70
0
0
VERTEX
8
Layer 1
10
596.323936
20
309.175615
70
0
0
VERTEX
8
Layer 1
10
594.749180
20
307.887307
70
0
0
VERTEX
8
Layer 1
10
593.320370
20
306.412996
70
0
0
VERTEX
8
Layer 1
10
592.046522
20
304.761233
70
0
0
VERTEX
8
Layer 1
10
590.936656
20
302.940575
70
0
0
VERTEX
8
Layer 1
10
589.999792
20
300.959574
70
0
0
VERTEX
8
Layer 1
10
589.244946
20
298.826783
70
0
0
VERTEX
8
Layer 1
10
588.681140
20
296.550758
70
0
0
VERTEX
8
Layer 1
10
588.317391
20
294.140051
70
0
0
VERTEX
8
Layer 1
10
588.162717
20
291.603216
70
0
0
VERTEX
8
Layer 1
10
588.162717
20
291.603216
70
0
0
SEQEND
8
Layer 1
0
POLYLINE
8
Layer 1
62
7
70
0
10
0.000000
20
0.000000
66
1
0
VERTEX
8
Layer 1
10
677.073189
20
320.196701
70
0
0
VERTEX
8
Layer 1
10
692.045941
20
316.987309
70
0
0
VERTEX
8
Layer 1
10
693.665643
20
316.447932
70
0
0
VERTEX
8
Layer 1
10
694.270593
20
316.059320
70
0
0
VERTEX
8
Layer 1
10
694.732450
20
315.571459
70
0
0
VERTEX
8
Layer 1
10
695.046348
20
314.969373
70
0
0
VERTEX
8
Layer 1
10
695.207418
20
314.238085
70
0
0
VERTEX
8
Layer 1
10
695.210793
20
313.362620
70
0
0
VERTEX
8
Layer 1
10
695.051604
20
312.328002
70
0
0
VERTEX
8
Layer 1
10
694.526737
20
309.349749
70
0
0
VERTEX
8
Layer 1
10
694.174511
20
306.333544
70
0
0
VERTEX
8
Layer 1
10
693.678418
20
300.265663
70
0
0
VERTEX
8
Layer 1
10
693.297997
20
298.700159
70
0
0
VERTEX
8
Layer 1
10
692.949068
20
298.162167
70
0
0
VERTEX
8
Layer 1
10
692.498378
20
297.762708
70
0
0
VERTEX
8
Layer 1
10
691.303868
20
297.305476
70
0
0
VERTEX
8
Layer 1
10
689.738777
20
297.180626
70
0
0
VERTEX
8
Layer 1
10
688.276666
20
297.379518
70
0
0
VERTEX
8
Layer 1
10
687.336694
20
297.978013
70
0
0
VERTEX
8
Layer 1
10
686.819889
20
298.949074
70
0
0
VERTEX
8
Layer 1
10
686.627281
20
300.265663
70
0
0
VERTEX
8
Layer 1
10
686.379096
20
302.623537
70
0
0
VERTEX
8
Layer 1
10
685.861943
20
304.711190
70
0
0
VERTEX
8
Layer 1
10
685.101411
20
306.538697
70
0
0
VERTEX
8
Layer 1
10
684.123085
20
308.116130
70
0
0
VERTEX
8
Layer 1
10
682.952555
20
309.453563
70
0
0
VERTEX
8
Layer 1
10
681.615407
20
310.561069
70
0
0
VERTEX
8
Layer 1
10
680.137229
20
311.448719
70
0
0
VERTEX
8
Layer 1
10
678.543609
20
312.126589
70
0
0
VERTEX
8
Layer 1
10
676.860133
20
312.604749
70
0
0
VERTEX
8
Layer 1
10
675.112391
20
312.893275
70
0
0
VERTEX
8
Layer 1
10
673.325969
20
313.002237
70
0
0
VERTEX
8
Layer 1
10
671.526454
20
312.941711
70
0
0
VERTEX
8
Layer 1
10
669.739435
20
312.721768
70
0
0
VERTEX
8
Layer 1
10
667.990499
20
312.352481
70
0
0
VERTEX
8
Layer 1
10
666.305233
20
311.843925
70
0
0
VERTEX
8
Layer 1
10
664.709225
20
311.206170
70
0
0
VERTEX
8
Layer 1
10
662.862927
20
310.091873
70
0
0
VERTEX
8
Layer 1
10
661.427362
20
308.658153
70
0
0
VERTEX
8
Layer 1
10
660.422841
20
306.991642
70
0
0
VERTEX
8
Layer 1
10
659.869671
20
305.178970
70
0
0
VERTEX
8
Layer 1
10
659.788162
20
303.306766
70
0
0
VERTEX
8
Layer 1
10
660.198622
20
301.461661
70
0
0
VERTEX
8
Layer 1
10
661.121361
20
299.730286
70
0
0
VERTEX
8
Layer 1
10
662.576686
20
298.199270
70
0
0
VERTEX
8
Layer 1
10
665.948755
20
295.689948
70
0
0
VERTEX
8
Layer 1
10
669.491232
20
293.388490
70
0
0
VERTEX
8
Layer 1
10
676.768918
20
289.049990
70
0
0
VERTEX
8
Layer 1
10
683.042181
20
285.551541
70
0
0
VERTEX
8
Layer 1
10
689.323382
20
282.064999
70
0
0
VERTEX
8
Layer 1
10
691.426281
20
280.566774
70
0
0
VERTEX
8
Layer 1
10
693.259565
20
278.753634
70
0
0
VERTEX
8
Layer 1
10
694.814813
20
276.671201
70
0
0
VERTEX
8
Layer 1
10
696.083601
20
274.365096
70
0
0
VERTEX
8
Layer 1
10
697.057509
20
271.880940
70
0
0
VERTEX
8
Layer 1
10
697.728114
20
269.264354
70
0
0
VERTEX
8
Layer 1
10
698.086994
20
266.560960
70
0
0
VERTEX
8
Layer 1
10
698.125727
20
263.816379
70
0
0
VERTEX
8
Layer 1
10
697.835892
20
261.076231
70
0
0
VERTEX
8
Layer 1
10
697.209066
20
258.386138
70
0
0
VERTEX
8
Layer 1
10
696.236827
20
255.791722
70
0
0
VERTEX
8
Layer 1
10
694.910754
20
253.338602
70
0
0
VERTEX
8
Layer 1
10
693.222425
20
251.072402
70
0
0
VERTEX
8
Layer 1
10
691.163417
20
249.038741
70
0
0
VERTEX
8
Layer 1
10
688.725308
20
247.283241
70
0
0
VERTEX
8
Layer 1
10
685.899678
20
245.851524
70
0
0
VERTEX
8
Layer 1
10
681.878155
20
244.445513
70
0
0
VERTEX
8
Layer 1
10
677.854494
20
243.530139
70
0
0
VERTEX
8
Layer 1
10
673.829034
20
243.052814
70
0
0
VERTEX
8
Layer 1
10
669.802117
20
242.960954
70
0
0
VERTEX
8
Layer 1
10
665.774084
20
243.201973
70
0
0
VERTEX
8
Layer 1
10
661.745275
20
243.723284
70
0
0
VERTEX
8
Layer 1
10
657.716033
20
244.472302
70
0
0
VERTEX
8
Layer 1
10
653.686697
20
245.396441
70
0
0
VERTEX
8
Layer 1
10
652.634546
20
245.744362
70
0
0
VERTEX
8
Layer 1
10
651.698852
20
246.234135
70
0
0
VERTEX
8
Layer 1
10
650.882965
20
246.856303
70
0
0
VERTEX
8
Layer 1
10
650.190233
20
247.601409
70
0
0
VERTEX
8
Layer 1
10
649.624005
20
248.459997
70
0
0
VERTEX
8
Layer 1
10
649.187629
20
249.422609
70
0
0
VERTEX
8
Layer 1
10
648.884454
20
250.479788
70
0
0
VERTEX
8
Layer 1
10
648.717829
20
251.622079
70
0
0
VERTEX
8
Layer 1
10
648.260761
20
257.312598
70
0
0
VERTEX
8
Layer 1
10
647.998163
20
263.007085
70
0
0
VERTEX
8
Layer 1
10
648.155300
20
263.906502
70
0
0
VERTEX
8
Layer 1
10
648.554779
20
264.878349
70
0
0
VERTEX
8
Layer 1
10
649.052981
20
265.654734
70
0
0
VERTEX
8
Layer 1
10
649.506286
20
265.967769
70
0
0
VERTEX
8
Layer 1
10
651.028052
20
266.138053
70
0
0
VERTEX
8
Layer 1
10
652.588016
20
266.312058
70
0
0
VERTEX
8
Layer 1
10
653.329769
20
266.214653
70
0
0
VERTEX
8
Layer 1
10
654.018005
20
265.895215
70
0
0
VERTEX
8
Layer 1
10
654.631703
20
265.279424
70
0
0
VERTEX
8
Layer 1
10
655.149841
20
264.292959
70
0
0
VERTEX
8
Layer 1
10
657.015813
20
259.885667
70
0
0
VERTEX
8
Layer 1
10
658.137562
20
257.782481
70
0
0
VERTEX
8
Layer 1
10
659.449315
20
255.831594
70
0
0
VERTEX
8
Layer 1
10
661.163405
20
253.875189
70
0
0
VERTEX
8
Layer 1
10
663.024369
20
252.267661
70
0
0
VERTEX
8
Layer 1
10
665.024549
20
251.004918
70
0
0
VERTEX
8
Layer 1
10
667.156287
20
250.082867
70
0
0
VERTEX
8
Layer 1
10
669.411924
20
249.497415
70
0
0
VERTEX
8
Layer 1
10
671.783802
20
249.244470
70
0
0
VERTEX
8
Layer 1
10
674.264263
20
249.319938
70
0
0
VERTEX
8
Layer 1
10
676.845647
20
249.719727
70
0
0
VERTEX
8
Layer 1
10
678.345941
20
250.121609
70
0
0
VERTEX
8
Layer 1
10
679.724848
20
250.666149
70
0
0
VERTEX
8
Layer 1
10
680.975576
20
251.358834
70
0
0
VERTEX
8
Layer 1
10
682.091336
20
252.205154
70
0
0
VERTEX
8
Layer 1
10
683.065337
20
253.210595
70
0
0
VERTEX
8
Layer 1
10
683.890790
20
254.380646
70
0
0
VERTEX
8
Layer 1
10
684.560903
20
255.720795
70
0
0
VERTEX
8
Layer 1
10
685.068887
20
257.236530
70
0
0
VERTEX
8
Layer 1
10
685.388324
20
258.867095
70
0
0
VERTEX
8
Layer 1
10
685.472335
20
260.431122
70
0
0
VERTEX
8
Layer 1
10
685.328080
20
261.922843
70
0
0
VERTEX
8
Layer 1
10
684.962723
20
263.336491
70
0
0
VERTEX
8
Layer 1
10
684.383426
20
264.666300
70
0
0
VERTEX
8
Layer 1
10
683.597351
20
265.906502
70
0
0
VERTEX
8
Layer 1
10
682.611660
20
267.051329
70
0
0
VERTEX
8
Layer 1
10
681.433516
20
268.095016
70
0
0
VERTEX
8
Layer 1
10
678.970704
20
269.832335
70
0
0
VERTEX
8
Layer 1
10
676.373697
20
271.398997
70
0
0
VERTEX
8
Layer 1
10
671.045988
20
274.341821
70
0
0
VERTEX
8
Layer 1
10
664.864337
20
277.641171
70
0
0
VERTEX
8
Layer 1
10
661.783309
20
279.303000
70
0
0
VERTEX
8
Layer 1
10
658.771983
20
281.075458
70
0
0
VERTEX
8
Layer 1
10
655.872902
20
283.192438
70
0
0
VERTEX
8
Layer 1
10
653.524020
20
285.550921
70
0
0
VERTEX
8
Layer 1
10
651.702051
20
288.133205
70
0
0
VERTEX
8
Layer 1
10
650.383709
20
290.921584
70
0
0
VERTEX
8
Layer 1
10
649.545710
20
293.898355
70
0
0
VERTEX
8
Layer 1
10
649.164767
20
297.045812
70
0
0
VERTEX
8
Layer 1
10
649.217596
20
300.346253
70
0
0
VERTEX
8
Layer 1
10
649.680911
20
303.781971
70
0
0
VERTEX
8
Layer 1
10
650.528124
20
306.937020
70
0
0
VERTEX
8
Layer 1
10
651.780956
20
309.692094
70
0
0
VERTEX
8
Layer 1
10
653.411190
20
312.066665
70
0
0
VERTEX
8
Layer 1
10
655.390612
20
314.080203
70
0
0
VERTEX
8
Layer 1
10
657.691006
20
315.752182
70
0
0
VERTEX
8
Layer 1
10
660.284157
20
317.102072
70
0
0
VERTEX
8
Layer 1
10
663.141850
20
318.149345
70
0
0
VERTEX
8
Layer 1
10
666.235869
20
318.913473
70
0
0
VERTEX
8
Layer 1
10
671.139584
20
319.593782
70
0
0
VERTEX
8
Layer 1
10
677.073189
20
320.196701
70
0
0
VERTEX
8
Layer 1
10
677.073189
20
320.196701
70
0
0
SEQEND
8
Layer 1
0
POLYLINE
8
Layer 1
62
7
70
0
10
0.000000
20
0.000000
66
1
0
VERTEX
8
Layer 1
10
368.249265
20
254.823533
70
0
0
VERTEX
8
Layer 1
10
368.991214
20
253.937966
70
0
0
VERTEX
8
Layer 1
10
369.468001
20
252.944002
70
0
0
VERTEX
8
Layer 1
10
369.495880
20
252.408154
70
0
0
VERTEX
8
Layer 1
10
369.324175
20
251.847346
70
0
0
VERTEX
8
Layer 1
10
368.908454
20
251.262292
70
0
0
VERTEX
8
Layer 1
10
368.204286
20
250.653705
70
0
0
VERTEX
8
Layer 1
10
363.881579
20
247.790007
70
0
0
VERTEX
8
Layer 1
10
361.648881
20
246.530520
70
0
0
VERTEX
8
Layer 1
10
359.355969
20
245.414962
70
0
0
VERTEX
8
Layer 1
10
356.993357
20
244.465098
70
0
0
VERTEX
8
Layer 1
10
354.551555
20
243.702696
70
0
0
VERTEX
8
Layer 1
10
352.021077
20
243.149521
70
0
0
VERTEX
8
Layer 1
10
349.392435
20
242.827340
70
0
0
VERTEX
8
Layer 1
10
345.618029
20
242.822255
70
0
0
VERTEX
8
Layer 1
10
343.870296
20
243.034536
70
0
0
VERTEX
8
Layer 1
10
342.219879
20
243.387925
70
0
0
VERTEX
8
Layer 1
10
340.670029
20
243.880840
70
0
0
VERTEX
8
Layer 1
10
339.223999
20
244.511700
70
0
0
VERTEX
8
Layer 1
10
337.885039
20
245.278924
70
0
0
VERTEX
8
Layer 1
10
336.656401
20
246.180929
70
0
0
VERTEX
8
Layer 1
10
335.541338
20
247.216136
70
0
0
VERTEX
8
Layer 1
10
334.543102
20
248.382963
70
0
0
VERTEX
8
Layer 1
10
333.664942
20
249.679828
70
0
0
VERTEX
8
Layer 1
10
332.910113
20
251.105150
70
0
0
VERTEX
8
Layer 1
10
332.281864
20
252.657348
70
0
0
VERTEX
8
Layer 1
10
331.783449
20
254.334840
70
0
0
VERTEX
8
Layer 1
10
331.418119
20
256.136046
70
0
0
VERTEX
8
Layer 1
10
331.189124
20
258.059383
70
0
0
VERTEX
8
Layer 1
10
330.879810
20
263.288742
70
0
0
VERTEX
8
Layer 1
10
330.746609
20
268.533232
70
0
0
VERTEX
8
Layer 1
10
330.728750
20
279.032878
70
0
0
VERTEX
8
Layer 1
10
330.887831
20
289.339708
70
0
0
VERTEX
8
Layer 1
10
331.144145
20
299.646539
70
0
0
VERTEX
8
Layer 1
10
331.097213
20
301.884379
70
0
0
VERTEX
8
Layer 1
10
330.839627
20
303.745467
70
0
0
VERTEX
8
Layer 1
10
330.339079
20
305.267538
70
0
0
VERTEX
8
Layer 1
10
329.563262
20
306.488325
70
0
0
VERTEX
8
Layer 1
10
328.479867
20
307.445562
70
0
0
VERTEX
8
Layer 1
10
327.056586
20
308.176984
70
0
0
VERTEX
8
Layer 1
10
325.261111
20
308.720325
70
0
0
VERTEX
8
Layer 1
10
323.061135
20
309.113319
70
0
0
VERTEX
8
Layer 1
10
318.690224
20
309.481089
70
0
0
VERTEX
8
Layer 1
10
318.690224
20
315.357478
70
0
0
VERTEX
8
Layer 1
10
323.372020
20
315.902519
70
0
0
VERTEX
8
Layer 1
10
327.934754
20
316.280872
70
0
0
VERTEX
8
Layer 1
10
329.496785
20
316.523379
70
0
0
VERTEX
8
Layer 1
10
330.648052
20
317.141429
70
0
0
VERTEX
8
Layer 1
10
331.432210
20
318.173220
70
0
0
VERTEX
8
Layer 1
10
331.892915
20
319.656951
70
0
0
VERTEX
8
Layer 1
10
332.820609
20
324.159493
70
0
0
VERTEX
8
Layer 1
10
333.845538
20
328.642190
70
0
0
VERTEX
8
Layer 1
10
334.402407
20
330.813254
70
0
0
VERTEX
8
Layer 1
10
335.018839
20
332.512998
70
0
0
VERTEX
8
Layer 1
10
335.768534
20
333.790009
70
0
0
VERTEX
8
Layer 1
10
336.725193
20
334.692873
70
0
0
VERTEX
8
Layer 1
10
337.962516
20
335.270175
70
0
0
VERTEX
8
Layer 1
10
339.554205
20
335.570503
70
0
0
VERTEX
8
Layer 1
10
341.573961
20
335.642441
70
0
0
VERTEX
8
Layer 1
10
344.095483
20
335.534577
70
0
0
VERTEX
8
Layer 1
10
344.103421
20
322.829302
70
0
0
VERTEX
8
Layer 1
10
344.232322
20
319.530034
70
0
0
VERTEX
8
Layer 1
10
344.458096
20
318.534778
70
0
0
VERTEX
8
Layer 1
10
344.880633
20
317.890198
70
0
0
VERTEX
8
Layer 1
10
345.566844
20
317.532112
70
0
0
VERTEX
8
Layer 1
10
346.583638
20
317.396338
70
0
0
VERTEX
8
Layer 1
10
349.876622
20
317.534996
70
0
0
VERTEX
8
Layer 1
10
355.033675
20
317.801563
70
0
0
VERTEX
8
Layer 1
10
360.192713
20
317.833975
70
0
0
VERTEX
8
Layer 1
10
362.027968
20
317.973170
70
0
0
VERTEX
8
Layer 1
10
363.512237
20
318.540742
70
0
0
VERTEX
8
Layer 1
10
364.133372
20
319.008966
70
0
0
VERTEX
8
Layer 1
10
364.679503
20
319.612841
70
0
0
VERTEX
8
Layer 1
10
365.563748
20
321.265616
70
0
0
VERTEX
8
Layer 1
10
366.033589
20
321.976104
70
0
0
VERTEX
8
Layer 1
10
366.752718
20
322.591838
70
0
0
VERTEX
8
Layer 1
10
368.368328
20
323.755342
70
0
0
VERTEX
8
Layer 1
10
368.988775
20
321.891686
70
0
0
VERTEX
8
Layer 1
10
369.235994
20
320.963702
70
0
0
VERTEX
8
Layer 1
10
369.307597
20
320.045888
70
0
0
VERTEX
8
Layer 1
10
368.815804
20
315.663071
70
0
0
VERTEX
8
Layer 1
10
368.310119
20
311.280254
70
0
0
VERTEX
8
Layer 1
10
368.022675
20
309.700528
70
0
0
VERTEX
8
Layer 1
10
367.738853
20
309.113133
70
0
0
VERTEX
8
Layer 1
10
367.351998
20
308.651622
70
0
0
VERTEX
8
Layer 1
10
366.854887
20
308.309173
70
0
0
VERTEX
8
Layer 1
10
366.240295
20
308.078965
70
0
0
VERTEX
8
Layer 1
10
364.629770
20
307.927987
70
0
0
VERTEX
8
Layer 1
10
356.145916
20
307.951469
70
0
0
VERTEX
8
Layer 1
10
347.662062
20
307.988841
70
0
0
VERTEX
8
Layer 1
10
345.935658
20
307.827032
70
0
0
VERTEX
8
Layer 1
10
345.293279
20
307.576495
70
0
0
VERTEX
8
Layer 1
10
344.786706
20
307.204353
70
0
0
VERTEX
8
Layer 1
10
344.407381
20
306.704218
70
0
0
VERTEX
8
Layer 1
10
344.146746
20
306.069705
70
0
0
VERTEX
8
Layer 1
10
343.947317
20
304.371992
70
0
0
VERTEX
8
Layer 1
10
343.829577
20
284.663865
70
0
0
VERTEX
8
Layer 1
10
343.815025
20
264.959708
70
0
0
VERTEX
8
Layer 1
10
344.072637
20
262.277126
70
0
0
VERTEX
8
Layer 1
10
344.776082
20
259.896912
70
0
0
VERTEX
8
Layer 1
10
345.904616
20
257.837175
70
0
0
VERTEX
8
Layer 1
10
347.437497
20
256.116021
70
0
0
VERTEX
8
Layer 1
10
349.353982
20
254.751558
70
0
0
VERTEX
8
Layer 1
10
351.633329
20
253.761894
70
0
0
VERTEX
8
Layer 1
10
354.254793
20
253.165135
70
0
0
VERTEX
8
Layer 1
10
357.197633
20
252.979390
70
0
0
VERTEX
8
Layer 1
10
359.813698
20
253.174892
70
0
0
VERTEX
8
Layer 1
10
362.487309
20
253.638532
70
0
0
VERTEX
8
Layer 1
10
368.249265
20
254.823533
70
0
0
VERTEX
8
Layer 1
10
368.249265
20
254.823533
70
0
0
SEQEND
8
Layer 1
0
POLYLINE
8
Layer 1
62
7
70
0
10
0.000000
20
0.000000
66
1
0
VERTEX
8
Layer 1
10
731.587870
20
335.534577
70
0
0
VERTEX
8
Layer 1
10
731.547190
20
329.440900
70
0
0
VERTEX
8
Layer 1
10
731.619620
20
323.551613
70
0
0
VERTEX
8
Layer 1
10
731.759844
20
321.920149
70
0
0
VERTEX
8
Layer 1
10
732.058290
20
320.556699
70
0
0
VERTEX
8
Layer 1
10
732.534028
20
319.444520
70
0
0
VERTEX
8
Layer 1
10
733.206126
20
318.566869
70
0
0
VERTEX
8
Layer 1
10
734.093652
20
317.907004
70
0
0
VERTEX
8
Layer 1
10
735.215675
20
317.448179
70
0
0
VERTEX
8
Layer 1
10
736.591264
20
317.173654
70
0
0
VERTEX
8
Layer 1
10
738.239487
20
317.066684
70
0
0
VERTEX
8
Layer 1
10
743.008595
20
317.252223
70
0
0
VERTEX
8
Layer 1
10
747.777704
20
317.693746
70
0
0
VERTEX
8
Layer 1
10
749.717345
20
318.053248
70
0
0
VERTEX
8
Layer 1
10
751.356850
20
318.823515
70
0
0
VERTEX
8
Layer 1
10
752.047154
20
319.394932
70
0
0
VERTEX
8
Layer 1
10
752.642145
20
320.107735
70
0
0
VERTEX
8
Layer 1
10
753.135065
20
320.974823
70
0
0
VERTEX
8
Layer 1
10
753.519155
20
322.009094
70
0
0
VERTEX
8
Layer 1
10
753.885230
20
322.527057
70
0
0
VERTEX
8
Layer 1
10
754.536807
20
322.961924
70
0
0
VERTEX
8
Layer 1
10
756.040631
20
323.773863
70
0
0
VERTEX
8
Layer 1
10
756.745745
20
322.436396
70
0
0
VERTEX
8
Layer 1
10
757.029592
20
321.772871
70
0
0
VERTEX
8
Layer 1
10
757.117484
20
321.122741
70
0
0
VERTEX
8
Layer 1
10
756.581703
20
316.186945
70
0
0
VERTEX
8
Layer 1
10
756.006235
20
311.251150
70
0
0
VERTEX
8
Layer 1
10
755.688818
20
309.709416
70
0
0
VERTEX
8
Layer 1
10
755.397808
20
309.126119
70
0
0
VERTEX
8
Layer 1
10
755.006773
20
308.662536
70
0
0
VERTEX
8
Layer 1
10
754.506845
20
308.314666
70
0
0
VERTEX
8
Layer 1
10
753.889158
20
308.078510
70
0
0
VERTEX
8
Layer 1
10
752.265031
20
307.925341
70
0
0
VERTEX
8
Layer 1
10
743.781178
20
307.961060
70
0
0
VERTEX
8
Layer 1
10
735.297324
20
307.988841
70
0
0
VERTEX
8
Layer 1
10
733.555995
20
307.804212
70
0
0
VERTEX
8
Layer 1
10
732.934541
20
307.531288
70
0
0
VERTEX
8
Layer 1
10
732.459340
20
307.134900
70
0
0
VERTEX
8
Layer 1
10
732.115481
20
306.612751
70
0
0
VERTEX
8
Layer 1
10
731.888048
20
305.962549
70
0
0
VERTEX
8
Layer 1
10
731.722807
20
304.268804
70
0
0
VERTEX
8
Layer 1
10
731.593492
20
286.217629
70
0
0
VERTEX
8
Layer 1
10
731.521724
20
268.166454
70
0
0
VERTEX
8
Layer 1
10
731.615941
20
265.949474
70
0
0
VERTEX
8
Layer 1
10
731.868168
20
263.899298
70
0
0
VERTEX
8
Layer 1
10
732.275927
20
262.017407
70
0
0
VERTEX
8
Layer 1
10
732.836743
20
260.305279
70
0
0
VERTEX
8
Layer 1
10
733.548139
20
258.764397
70
0
0
VERTEX
8
Layer 1
10
734.407637
20
257.396241
70
0
0
VERTEX
8
Layer 1
10
735.412763
20
256.202291
70
0
0
VERTEX
8
Layer 1
10
736.561038
20
255.184027
70
0
0
VERTEX
8
Layer 1
10
737.849987
20
254.342931
70
0
0
VERTEX
8
Layer 1
10
739.277133
20
253.680483
70
0
0
VERTEX
8
Layer 1
10
740.839998
20
253.198163
70
0
0
VERTEX
8
Layer 1
10
742.536108
20
252.897452
70
0
0
VERTEX
8
Layer 1
10
744.362984
20
252.779830
70
0
0
VERTEX
8
Layer 1
10
746.318151
20
252.846778
70
0
0
VERTEX
8
Layer 1
10
748.399132
20
253.099776
70
0
0
VERTEX
8
Layer 1
10
750.603450
20
253.540306
70
0
0
VERTEX
8
Layer 1
10
752.359289
20
254.132971
70
0
0
VERTEX
8
Layer 1
10
753.232124
20
254.423599
70
0
0
VERTEX
8
Layer 1
10
754.117112
20
254.590700
70
0
0
VERTEX
8
Layer 1
10
755.604730
20
254.422028
70
0
0
VERTEX
8
Layer 1
10
756.269909
20
254.143472
70
0
0
VERTEX
8
Layer 1
10
756.691505
20
253.749326
70
0
0
VERTEX
8
Layer 1
10
756.872372
20
253.099651
70
0
0
VERTEX
8
Layer 1
10
756.862492
20
252.290482
70
0
0
VERTEX
8
Layer 1
10
756.678483
20
251.525465
70
0
0
VERTEX
8
Layer 1
10
756.336964
20
251.008246
70
0
0
VERTEX
8
Layer 1
10
753.302507
20
248.792172
70
0
0
VERTEX
8
Layer 1
10
750.178133
20
246.882033
70
0
0
VERTEX
8
Layer 1
10
746.958013
20
245.312648
70
0
0
VERTEX
8
Layer 1
10
743.636318
20
244.118836
70
0
0
VERTEX
8
Layer 1
10
740.207219
20
243.335417
70
0
0
VERTEX
8
Layer 1
10
736.664887
20
242.997210
70
0
0
VERTEX
8
Layer 1
10
733.003492
20
243.139036
70
0
0
VERTEX
8
Layer 1
10
729.217206
20
243.795714
70
0
0
VERTEX
8
Layer 1
10
727.269069
20
244.424424
70
0
0
VERTEX
8
Layer 1
10
725.555212
20
245.301646
70
0
0
VERTEX
8
Layer 1
10
724.068318
20
246.405272
70
0
0
VERTEX
8
Layer 1
10
722.801069
20
247.713196
70
0
0
VERTEX
8
Layer 1
10
721.746147
20
249.203310
70
0
0
VERTEX
8
Layer 1
10
720.896236
20
250.853507
70
0
0
VERTEX
8
Layer 1
10
720.244019
20
252.641679
70
0
0
VERTEX
8
Layer 1
10
719.782177
20
254.545721
70
0
0
VERTEX
8
Layer 1
10
719.174793
20
258.252901
70
0
0
VERTEX
8
Layer 1
10
718.741042
20
261.998032
70
0
0
VERTEX
8
Layer 1
10
718.479932
20
265.759534
70
0
0
VERTEX
8
Layer 1
10
718.390470
20
269.515827
70
0
0
VERTEX
8
Layer 1
10
718.666628
20
284.421441
70
0
0
VERTEX
8
Layer 1
10
719.059865
20
299.329040
70
0
0
VERTEX
8
Layer 1
10
718.981307
20
301.779853
70
0
0
VERTEX
8
Layer 1
10
718.647694
20
303.819096
70
0
0
VERTEX
8
Layer 1
10
718.031185
20
305.477959
70
0
0
VERTEX
8
Layer 1
10
717.103935
20
306.787634
70
0
0
VERTEX
8
Layer 1
10
715.838102
20
307.779314
70
0
0
VERTEX
8
Layer 1
10
714.205842
20
308.484190
70
0
0
VERTEX
8
Layer 1
10
712.179312
20
308.933454
70
0
0
VERTEX
8
Layer 1
10
709.730668
20
309.158298
70
0
0
VERTEX
8
Layer 1
10
708.240405
20
309.245776
70
0
0
VERTEX
8
Layer 1
10
707.039859
20
309.568402
70
0
0
VERTEX
8
Layer 1
10
706.583578
20
309.914943
70
0
0
VERTEX
8
Layer 1
10
706.242141
20
310.436730
70
0
0
VERTEX
8
Layer 1
10
706.029690
20
311.172581
70
0
0
VERTEX
8
Layer 1
10
705.960361
20
312.161315
70
0
0
VERTEX
8
Layer 1
10
706.208903
20
313.949441
70
0
0
VERTEX
8
Layer 1
10
706.509164
20
314.581583
70
0
0
VERTEX
8
Layer 1
10
706.926750
20
315.056184
70
0
0
VERTEX
8
Layer 1
10
707.461662
20
315.386050
70
0
0
VERTEX
8
Layer 1
10
708.113901
20
315.583986
70
0
0
VERTEX
8
Layer 1
10
709.770356
20
315.635290
70
0
0
VERTEX
8
Layer 1
10
710.505897
20
315.690852
70
0
0
VERTEX
8
Layer 1
10
713.369961
20
316.038236
70
0
0
VERTEX
8
Layer 1
10
715.566997
20
316.427013
70
0
0
VERTEX
8
Layer 1
10
717.207851
20
316.960587
70
0
0
VERTEX
8
Layer 1
10
718.403368
20
317.742363
70
0
0
VERTEX
8
Layer 1
10
719.264395
20
318.875744
70
0
0
VERTEX
8
Layer 1
10
719.901776
20
320.464136
70
0
0
VERTEX
8
Layer 1
10
720.426359
20
322.610943
70
0
0
VERTEX
8
Layer 1
10
720.948988
20
325.419569
70
0
0
VERTEX
8
Layer 1
10
721.306175
20
327.972795
70
0
0
VERTEX
8
Layer 1
10
721.780197
20
330.349836
70
0
0
VERTEX
8
Layer 1
10
722.344539
20
332.213482
70
0
0
VERTEX
8
Layer 1
10
723.069925
20
333.615885
70
0
0
VERTEX
8
Layer 1
10
724.027080
20
334.609198
70
0
0
VERTEX
8
Layer 1
10
725.286728
20
335.245572
70
0
0
VERTEX
8
Layer 1
10
726.919592
20
335.577159
70
0
0
VERTEX
8
Layer 1
10
728.996398
20
335.656110
70
0
0
VERTEX
8
Layer 1
10
731.587870
20
335.534577
70
0
0
VERTEX
8
Layer 1
10
731.587870
20
335.534577
70
0
0
SEQEND
8
Layer 1
0
POLYLINE
8
Layer 1
62
7
70
0
10
0.000000
20
0.000000
66
1
0
VERTEX
8
Layer 1
10
278.494774
20
320.172888
70
0
0
VERTEX
8
Layer 1
10
278.494774
20
302.982931
70
0
0
VERTEX
8
Layer 1
10
282.061353
20
306.975488
70
0
0
VERTEX
8
Layer 1
10
286.973006
20
311.965524
70
0
0
VERTEX
8
Layer 1
10
289.492704
20
314.381166
70
0
0
VERTEX
8
Layer 1
10
292.152549
20
316.614247
70
0
0
VERTEX
8
Layer 1
10
293.984130
20
317.828135
70
0
0
VERTEX
8
Layer 1
10
295.913968
20
318.750507
70
0
0
VERTEX
8
Layer 1
10
297.931677
20
319.389237
70
0
0
VERTEX
8
Layer 1
10
300.026869
20
319.752201
70
0
0
VERTEX
8
Layer 1
10
302.189158
20
319.847276
70
0
0
VERTEX
8
Layer 1
10
304.408157
20
319.682335
70
0
0
VERTEX
8
Layer 1
10
306.673479
20
319.265255
70
0
0
VERTEX
8
Layer 1
10
308.974736
20
318.603911
70
0
0
VERTEX
8
Layer 1
10
306.805155
20
301.040892
70
0
0
VERTEX
8
Layer 1
10
304.696759
20
301.758573
70
0
0
VERTEX
8
Layer 1
10
303.872129
20
302.105011
70
0
0
VERTEX
8
Layer 1
10
303.304722
20
302.583410
70
0
0
VERTEX
8
Layer 1
10
301.859618
20
304.230956
70
0
0
VERTEX
8
Layer 1
10
300.308444
20
305.334412
70
0
0
VERTEX
8
Layer 1
10
298.672127
20
305.975013
70
0
0
VERTEX
8
Layer 1
10
296.971597
20
306.233994
70
0
0
VERTEX
8
Layer 1
10
295.227783
20
306.192591
70
0
0
VERTEX
8
Layer 1
10
293.461614
20
305.932039
70
0
0
VERTEX
8
Layer 1
10
289.945926
20
305.078428
70
0
0
VERTEX
8
Layer 1
10
287.607426
20
304.253854
70
0
0
VERTEX
8
Layer 1
10
285.497129
20
303.094014
70
0
0
VERTEX
8
Layer 1
10
283.638598
20
301.631992
70
0
0
VERTEX
8
Layer 1
10
282.055400
20
299.900870
70
0
0
VERTEX
8
Layer 1
10
280.771097
20
297.933731
70
0
0
VERTEX
8
Layer 1
10
279.809256
20
295.763660
70
0
0
VERTEX
8
Layer 1
10
279.193439
20
293.423738
70
0
0
VERTEX
8
Layer 1
10
278.947211
20
290.947050
70
0
0
VERTEX
8
Layer 1
10
278.748443
20
274.548857
70
0
0
VERTEX
8
Layer 1
10
278.821079
20
266.351745
70
0
0
VERTEX
8
Layer 1
10
279.063628
20
258.162571
70
0
0
VERTEX
8
Layer 1
10
279.207303
20
257.329863
70
0
0
VERTEX
8
Layer 1
10
279.545293
20
256.486644
70
0
0
VERTEX
8
Layer 1
10
280.662701
20
254.815926
70
0
0
VERTEX
8
Layer 1
10
282.132832
20
253.244923
70
0
0
VERTEX
8
Layer 1
10
283.672663
20
251.868141
70
0
0
VERTEX
8
Layer 1
10
284.929474
20
251.087911
70
0
0
VERTEX
8
Layer 1
10
286.398861
20
250.553494
70
0
0
VERTEX
8
Layer 1
10
289.527885
20
249.796456
70
0
0
VERTEX
8
Layer 1
10
291.046840
20
249.191347
70
0
0
VERTEX
8
Layer 1
10
291.574176
20
248.771450
70
0
0
VERTEX
8
Layer 1
10
291.946174
20
248.265513
70
0
0
VERTEX
8
Layer 1
10
292.162398
20
247.667674
70
0
0
VERTEX
8
Layer 1
10
292.222415
20
246.972074
70
0
0
VERTEX
8
Layer 1
10
291.872091
20
245.264149
70
0
0
VERTEX
8
Layer 1
10
291.137211
20
245.023379
70
0
0
VERTEX
8
Layer 1
10
290.311051
20
244.869921
70
0
0
VERTEX
8
Layer 1
10
258.952674
20
245.002212
70
0
0
VERTEX
8
Layer 1
10
258.198364
20
245.146741
70
0
0
VERTEX
8
Layer 1
10
257.446535
20
245.485738
70
0
0
VERTEX
8
Layer 1
10
255.944365
20
246.298669
70
0
0
VERTEX
8
Layer 1
10
256.966648
20
248.013497
70
0
0
VERTEX
8
Layer 1
10
258.074258
20
249.658873
70
0
0
VERTEX
8
Layer 1
10
258.811783
20
250.115609
70
0
0
VERTEX
8
Layer 1
10
259.727902
20
250.423518
70
0
0
VERTEX
8
Layer 1
10
263.498954
20
252.041112
70
0
0
VERTEX
8
Layer 1
10
264.658292
20
252.770906
70
0
0
VERTEX
8
Layer 1
10
265.434957
20
253.601160
70
0
0
VERTEX
8
Layer 1
10
265.905037
20
254.646717
70
0
0
VERTEX
8
Layer 1
10
266.144618
20
256.022425
70
0
0
VERTEX
8
Layer 1
10
266.236644
20
260.223672
70
0
0
VERTEX
8
Layer 1
10
266.232344
20
275.148138
70
0
0
VERTEX
8
Layer 1
10
266.075248
20
290.068635
70
0
0
VERTEX
8
Layer 1
10
265.914886
20
292.712770
70
0
0
VERTEX
8
Layer 1
10
265.580147
20
295.356657
70
0
0
VERTEX
8
Layer 1
10
264.527438
20
300.583163
70
0
0
VERTEX
8
Layer 1
10
264.141224
20
301.856557
70
0
0
VERTEX
8
Layer 1
10
263.619050
20
303.024809
70
0
0
VERTEX
8
Layer 1
10
262.963116
20
304.086712
70
0
0
VERTEX
8
Layer 1
10
262.175625
20
305.041056
70
0
0
VERTEX
8
Layer 1
10
261.258778
20
305.886631
70
0
0
VERTEX
8
Layer 1
10
260.214776
20
306.622229
70
0
0
VERTEX
8
Layer 1
10
259.045820
20
307.246639
70
0
0
VERTEX
8
Layer 1
10
257.754113
20
307.758654
70
0
0
VERTEX
8
Layer 1
10
256.941884
20
308.163342
70
0
0
VERTEX
8
Layer 1
10
256.153716
20
308.779614
70
0
0
VERTEX
8
Layer 1
10
255.558529
20
309.484686
70
0
0
VERTEX
8
Layer 1
10
255.325241
20
310.155776
70
0
0
VERTEX
8
Layer 1
10
255.539594
20
310.893549
70
0
0
VERTEX
8
Layer 1
10
256.081617
20
311.662576
70
0
0
VERTEX
8
Layer 1
10
256.811660
20
312.338338
70
0
0
VERTEX
8
Layer 1
10
257.590071
20
312.796314
70
0
0
VERTEX
8
Layer 1
10
266.344792
20
316.218695
70
0
0
VERTEX
8
Layer 1
10
275.153091
20
319.506139
70
0
0
VERTEX
8
Layer 1
10
276.596722
20
319.852412
70
0
0
VERTEX
8
Layer 1
10
278.494774
20
320.172888
70
0
0
VERTEX
8
Layer 1
10
278.494774
20
320.172888
70
0
0
SEQEND
8
Layer 1
0
POLYLINE
8
Layer 1
62
7
70
0
10
0.000000
20
0.000000
66
1
0
VERTEX
8
Layer 1
10
858.100877
20
320.712638
70
0
0
VERTEX
8
Layer 1
10
858.100877
20
303.276618
70
0
0
VERTEX
8
Layer 1
10
862.747947
20
308.458145
70
0
0
VERTEX
8
Layer 1
10
867.139033
20
313.153501
70
0
0
VERTEX
8
Layer 1
10
869.036310
20
314.899424
70
0
0
VERTEX
8
Layer 1
10
871.024682
20
316.402291
70
0
0
VERTEX
8
Layer 1
10
873.109172
20
317.649733
70
0
0
VERTEX
8
Layer 1
10
875.294804
20
318.629377
70
0
0
VERTEX
8
Layer 1
10
877.586599
20
319.328853
70
0
0
VERTEX
8
Layer 1
10
879.989581
20
319.735789
70
0
0
VERTEX
8
Layer 1
10
882.508773
20
319.837814
70
0
0
VERTEX
8
Layer 1
10
885.149197
20
319.622556
70
0
0
VERTEX
8
Layer 1
10
886.724128
20
319.272355
70
0
0
VERTEX
8
Layer 1
10
887.783121
20
318.638638
70
0
0
VERTEX
8
Layer 1
10
888.112320
20
318.170889
70
0
0
VERTEX
8
Layer 1
10
888.304350
20
317.578776
70
0
0
VERTEX
8
Layer 1
10
888.265985
20
315.950144
70
0
0
VERTEX
8
Layer 1
10
887.521845
20
310.478898
70
0
0
VERTEX
8
Layer 1
10
886.741987
20
305.017574
70
0
0
VERTEX
8
Layer 1
10
886.493811
20
304.045516
70
0
0
VERTEX
8
Layer 1
10
886.140185
20
303.278561
70
0
0
VERTEX
8
Layer 1
10
885.690006
20
302.716927
70
0
0
VERTEX
8
Layer 1
10
885.152174
20
302.360830
70
0
0
VERTEX
8
Layer 1
10
884.535587
20
302.210488
70
0
0
VERTEX
8
Layer 1
10
883.849144
20
302.266118
70
0
0
VERTEX
8
Layer 1
10
883.101744
20
302.527936
70
0
0
VERTEX
8
Layer 1
10
882.302284
20
302.996160
70
0
0
VERTEX
8
Layer 1
10
880.872980
20
303.876130
70
0
0
VERTEX
8
Layer 1
10
879.380187
20
304.580263
70
0
0
VERTEX
8
Layer 1
10
877.838987
20
305.111499
70
0
0
VERTEX
8
Layer 1
10
876.264459
20
305.472781
70
0
0
VERTEX
8
Layer 1
10
874.671684
20
305.667050
70
0
0
VERTEX
8
Layer 1
10
873.075743
20
305.697247
70
0
0
VERTEX
8
Layer 1
10
871.491716
20
305.566316
70
0
0
VERTEX
8
Layer 1
10
869.934683
20
305.277196
70
0
0
VERTEX
8
Layer 1
10
868.419725
20
304.832830
70
0
0
VERTEX
8
Layer 1
10
866.961922
20
304.236160
70
0
0
VERTEX
8
Layer 1
10
865.576355
20
303.490127
70
0
0
VERTEX
8
Layer 1
10
864.278105
20
302.597673
70
0
0
VERTEX
8
Layer 1
10
863.082251
20
301.561740
70
0
0
VERTEX
8
Layer 1
10
862.003874
20
300.385268
70
0
0
VERTEX
8
Layer 1
10
861.058055
20
299.071201
70
0
0
VERTEX
8
Layer 1
10
860.259875
20
297.622479
70
0
0
VERTEX
8
Layer 1
10
859.392497
20
295.440786
70
0
0
VERTEX
8
Layer 1
10
858.767957
20
293.126883
70
0
0
VERTEX
8
Layer 1
10
858.376085
20
290.752954
70
0
0
VERTEX
8
Layer 1
10
858.206710
20
288.391178
70
0
0
VERTEX
8
Layer 1
10
858.042008
20
273.482588
70
0
0
VERTEX
8
Layer 1
10
858.111461
20
258.570028
70
0
0
VERTEX
8
Layer 1
10
858.205119
20
257.385740
70
0
0
VERTEX
8
Layer 1
10
858.465340
20
256.303958
70
0
0
VERTEX
8
Layer 1
10
858.881831
20
255.322510
70
0
0
VERTEX
8
Layer 1
10
859.444297
20
254.439226
70
0
0
VERTEX
8
Layer 1
10
860.142445
20
253.651937
70
0
0
VERTEX
8
Layer 1
10
860.965980
20
252.958471
70
0
0
VERTEX
8
Layer 1
10
862.948038
20
251.844329
70
0
0
VERTEX
8
Layer 1
10
865.882263
20
250.755239
70
0
0
VERTEX
8
Layer 1
10
868.872051
20
249.807039
70
0
0
VERTEX
8
Layer 1
10
870.333542
20
249.105109
70
0
0
VERTEX
8
Layer 1
10
870.827836
20
248.645949
70
0
0
VERTEX
8
Layer 1
10
871.164001
20
248.110732
70
0
0
VERTEX
8
Layer 1
10
871.341665
20
247.496512
70
0
0
VERTEX
8
Layer 1
10
871.360454
20
246.800343
70
0
0
VERTEX
8
Layer 1
10
870.919924
20
245.150379
70
0
0
VERTEX
8
Layer 1
10
869.711441
20
244.947973
70
0
0
VERTEX
8
Layer 1
10
868.467239
20
244.824942
70
0
0
VERTEX
8
Layer 1
10
853.527891
20
244.797822
70
0
0
VERTEX
8
Layer 1
10
838.590527
20
244.877858
70
0
0
VERTEX
8
Layer 1
10
837.789047
20
245.049796
70
0
0
VERTEX
8
Layer 1
10
836.990792
20
245.455641
70
0
0
VERTEX
8
Layer 1
10
835.397010
20
246.428315
70
0
0
VERTEX
8
Layer 1
10
836.412678
20
248.367377
70
0
0
VERTEX
8
Layer 1
10
836.945937
20
249.192421
70
0
0
VERTEX
8
Layer 1
10
837.553361
20
249.598019
70
0
0
VERTEX
8
Layer 1
10
839.990021
20
250.213087
70
0
0
VERTEX
8
Layer 1
10
841.918278
20
251.109408
70
0
0
VERTEX
8
Layer 1
10
843.388579
20
252.277526
70
0
0
VERTEX
8
Layer 1
10
844.451371
20
253.707985
70
0
0
VERTEX
8
Layer 1
10
845.157100
20
255.391327
70
0
0
VERTEX
8
Layer 1
10
845.556212
20
257.318096
70
0
0
VERTEX
8
Layer 1
10
845.699154
20
259.478835
70
0
0
VERTEX
8
Layer 1
10
845.636372
20
261.864087
70
0
0
VERTEX
8
Layer 1
10
845.339171
20
269.941434
70
0
0
VERTEX
8
Layer 1
10
845.294729
20
278.034408
70
0
0
VERTEX
8
Layer 1
10
845.284477
20
294.230525
70
0
0
VERTEX
8
Layer 1
10
845.132011
20
295.941054
70
0
0
VERTEX
8
Layer 1
10
844.779123
20
297.653568
70
0
0
VERTEX
8
Layer 1
10
843.718145
20
301.001204
70
0
0
VERTEX
8
Layer 1
10
842.631329
20
303.464513
70
0
0
VERTEX
8
Layer 1
10
841.948070
20
304.567075
70
0
0
VERTEX
8
Layer 1
10
841.147391
20
305.556993
70
0
0
VERTEX
8
Layer 1
10
840.211155
20
306.414329
70
0
0
VERTEX
8
Layer 1
10
839.121222
20
307.119149
70
0
0
VERTEX
8
Layer 1
10
837.859456
20
307.651513
70
0
0
VERTEX
8
Layer 1
10
836.407717
20
307.991487
70
0
0
VERTEX
8
Layer 1
10
835.858914
20
308.226718
70
0
0
VERTEX
8
Layer 1
10
835.319289
20
308.694616
70
0
0
VERTEX
8
Layer 1
10
834.889300
20
309.276616
70
0
0
VERTEX
8
Layer 1
10
834.669407
20
309.854151
70
0
0
VERTEX
8
Layer 1
10
834.696527
20
310.517924
70
0
0
VERTEX
8
Layer 1
10
834.912162
20
311.253134
70
0
0
VERTEX
8
Layer 1
10
835.261742
20
311.890117
70
0
0
VERTEX
8
Layer 1
10
835.690697
20
312.259211
70
0
0
VERTEX
8
Layer 1
10
858.100877
20
320.712638
70
0
0
VERTEX
8
Layer 1
10
858.100877
20
320.712638
70
0
0
SEQEND
8
Layer 1
0
POLYLINE
8
Layer 1
62
7
70
0
10
0.000000
20
0.000000
66
1
0
VERTEX
8
Layer 1
10
291.358800
20
132.570312
70
0
0
VERTEX
8
Layer 1
10
285.033282
20
131.084017
70
0
0
VERTEX
8
Layer 1
10
279.592794
20
129.601691
70
0
0
VERTEX
8
Layer 1
10
278.795035
20
129.164509
70
0
0
VERTEX
8
Layer 1
10
278.064496
20
128.465638
70
0
0
VERTEX
8
Layer 1
10
276.923151
20
126.744194
70
0
0
VERTEX
8
Layer 1
10
275.607951
20
124.411689
70
0
0
VERTEX
8
Layer 1
10
274.134157
20
122.225778
70
0
0
VERTEX
8
Layer 1
10
272.518542
20
120.170837
70
0
0
VERTEX
8
Layer 1
10
270.777880
20
118.231236
70
0
0
VERTEX
8
Layer 1
10
266.988514
20
114.635553
70
0
0
VERTEX
8
Layer 1
10
262.900252
20
111.313714
70
0
0
VERTEX
8
Layer 1
10
261.539029
20
110.392391
70
0
0
VERTEX
8
Layer 1
10
260.178148
20
109.721131
70
0
0
VERTEX
8
Layer 1
10
258.823901
20
109.298723
70
0
0
VERTEX
8
Layer 1
10
257.482584
20
109.123959
70
0
0
VERTEX
8
Layer 1
10
256.160491
20
109.195629
70
0
0
VERTEX
8
Layer 1
10
254.863916
20
109.512524
70
0
0
VERTEX
8
Layer 1
10
253.599152
20
110.073435
70
0
0
VERTEX
8
Layer 1
10
252.372495
20
110.877152
70
0
0
VERTEX
8
Layer 1
10
251.424998
20
111.758250
70
0
0
VERTEX
8
Layer 1
10
250.684620
20
112.776982
70
0
0
VERTEX
8
Layer 1
10
250.146401
20
113.916451
70
0
0
VERTEX
8
Layer 1
10
249.805378
20
115.159759
70
0
0
VERTEX
8
Layer 1
10
249.656591
20
116.490006
70
0
0
VERTEX
8
Layer 1
10
249.695080
20
117.890296
70
0
0
VERTEX
8
Layer 1
10
249.915883
20
119.343730
70
0
0
VERTEX
8
Layer 1
10
250.314039
20
120.833410
70
0
0
VERTEX
8
Layer 1
10
252.856433
20
127.959375
70
0
0
VERTEX
8
Layer 1
10
255.857714
20
134.849695
70
0
0
VERTEX
8
Layer 1
10
257.555396
20
138.198272
70
0
0
VERTEX
8
Layer 1
10
259.397752
20
141.478078
70
0
0
VERTEX
8
Layer 1
10
261.394765
20
144.685826
70
0
0
VERTEX
8
Layer 1
10
263.556418
20
147.818230
70
0
0
VERTEX
8
Layer 1
10
264.668390
20
149.072416
70
0
0
VERTEX
8
Layer 1
10
266.075413
20
150.219321
70
0
0
VERTEX
8
Layer 1
10
267.708903
20
151.222856
70
0
0
VERTEX
8
Layer 1
10
269.500275
20
152.046928
70
0
0
VERTEX
8
Layer 1
10
271.380943
20
152.655448
70
0
0
VERTEX
8
Layer 1
10
273.282324
20
153.012325
70
0
0
VERTEX
8
Layer 1
10
275.135831
20
153.081468
70
0
0
VERTEX
8
Layer 1
10
276.872880
20
152.826787
70
0
0
VERTEX
8
Layer 1
10
278.262592
20
152.301899
70
0
0
VERTEX
8
Layer 1
10
279.517305
20
151.498084
70
0
0
VERTEX
8
Layer 1
10
280.623065
20
150.443493
70
0
0
VERTEX
8
Layer 1
10
281.565921
20
149.166281
70
0
0
VERTEX
8
Layer 1
10
282.331920
20
147.694600
70
0
0
VERTEX
8
Layer 1
10
282.907109
20
146.056604
70
0
0
VERTEX
8
Layer 1
10
283.277536
20
144.280446
70
0
0
VERTEX
8
Layer 1
10
283.429247
20
142.394279
70
0
0
VERTEX
8
Layer 1
10
283.301627
20
140.944819
70
0
0
VERTEX
8
Layer 1
10
283.259583
20
139.482212
70
0
0
VERTEX
8
Layer 1
10
283.454594
20
138.842950
70
0
0
VERTEX
8
Layer 1
10
283.891730
20
138.316766
70
0
0
VERTEX
8
Layer 1
10
284.644567
20
137.942448
70
0
0
VERTEX
8
Layer 1
10
285.786682
20
137.758785
70
0
0
VERTEX
8
Layer 1
10
289.298897
20
137.758785
70
0
0
VERTEX
8
Layer 1
10
290.576662
20
137.963609
70
0
0
VERTEX
8
Layer 1
10
291.580057
20
138.332268
70
0
0
VERTEX
8
Layer 1
10
292.342475
20
138.885226
70
0
0
VERTEX
8
Layer 1
10
292.897308
20
139.642946
70
0
0
VERTEX
8
Layer 1
10
293.277951
20
140.625893
70
0
0
VERTEX
8
Layer 1
10
293.517797
20
141.854530
70
0
0
VERTEX
8
Layer 1
10
293.925270
20
144.135245
70
0
0
VERTEX
8
Layer 1
10
294.489106
20
145.839563
70
0
0
VERTEX
8
Layer 1
10
295.245364
20
146.975978
70
0
0
VERTEX
8
Layer 1
10
295.706920
20
147.333877
70
0
0
VERTEX
8
Layer 1
10
296.230103
20
147.552986
70
0
0
VERTEX
8
Layer 1
10
297.479385
20
147.579083
70
0
0
VERTEX
8
Layer 1
10
299.029267
20
147.062763
70
0
0
VERTEX
8
Layer 1
10
300.915811
20
146.012524
70
0
0
VERTEX
8
Layer 1
10
303.175076
20
144.436860
70
0
0
VERTEX
8
Layer 1
10
307.673649
20
148.028905
70
0
0
VERTEX
8
Layer 1
10
312.295252
20
151.511809
70
0
0
VERTEX
8
Layer 1
10
313.999275
20
152.580239
70
0
0
VERTEX
8
Layer 1
10
315.752567
20
153.446820
70
0
0
VERTEX
8
Layer 1
10
317.550320
20
154.103927
70
0
0
VERTEX
8
Layer 1
10
319.387730
20
154.543930
70
0
0
VERTEX
8
Layer 1
10
321.259991
20
154.759204
70
0
0
VERTEX
8
Layer 1
10
323.162296
20
154.742120
70
0
0
VERTEX
8
Layer 1
10
325.089840
20
154.485050
70
0
0
VERTEX
8
Layer 1
10
327.037817
20
153.980369
70
0
0
VERTEX
8
Layer 1
10
328.245556
20
153.373192
70
0
0
VERTEX
8
Layer 1
10
329.419064
20
152.418998
70
0
0
VERTEX
8
Layer 1
10
330.306823
20
151.317465
70
0
0
VERTEX
8
Layer 1
10
330.564946
20
150.773845
70
0
0
VERTEX
8
Layer 1
10
330.657313
20
150.268269
70
0
0
VERTEX
8
Layer 1
10
330.540204
20
149.397874
70
0
0
VERTEX
8
Layer 1
10
330.218022
20
148.773044
70
0
0
VERTEX
8
Layer 1
10
329.728533
20
148.358062
70
0
0
VERTEX
8
Layer 1
10
329.109502
20
148.117209
70
0
0
VERTEX
8
Layer 1
10
327.633873
20
148.015014
70
0
0
VERTEX
8
Layer 1
10
326.093256
20
148.180709
70
0
0
VERTEX
8
Layer 1
10
324.498058
20
148.315579
70
0
0
VERTEX
8
Layer 1
10
322.980189
20
148.265996
70
0
0
VERTEX
8
Layer 1
10
321.532889
20
148.035276
70
0
0
VERTEX
8
Layer 1
10
320.149399
20
147.626738
70
0
0
VERTEX
8
Layer 1
10
318.822959
20
147.043700
70
0
0
VERTEX
8
Layer 1
10
317.546812
20
146.289478
70
0
0
VERTEX
8
Layer 1
10
316.314196
20
145.367391
70
0
0
VERTEX
8
Layer 1
10
315.118353
20
144.280756
70
0
0
VERTEX
8
Layer 1
10
309.569097
20
138.598340
70
0
0
VERTEX
8
Layer 1
10
306.931468
20
135.663432
70
0
0
VERTEX
8
Layer 1
10
304.426885
20
132.631166
70
0
0
VERTEX
8
Layer 1
10
302.086633
20
129.475373
70
0
0
VERTEX
8
Layer 1
10
299.941996
20
126.169884
70
0
0
VERTEX
8
Layer 1
10
298.024260
20
122.688530
70
0
0
VERTEX
8
Layer 1
10
296.364710
20
119.005142
70
0
0
VERTEX
8
Layer 1
10
295.686303
20
117.477531
70
0
0
VERTEX
8
Layer 1
10
295.008391
20
116.309248
70
0
0
VERTEX
8
Layer 1
10
294.304187
20
115.475641
70
0
0
VERTEX
8
Layer 1
10
293.546901
20
114.952061
70
0
0
VERTEX
8
Layer 1
10
292.709744
20
114.713859
70
0
0
VERTEX
8
Layer 1
10
291.765927
20
114.736384
70
0
0
VERTEX
8
Layer 1
10
290.688660
20
114.994988
70
0
0
VERTEX
8
Layer 1
10
289.451156
20
115.465021
70
0
0
VERTEX
8
Layer 1
10
287.662782
20
116.480193
70
0
0
VERTEX
8
Layer 1
10
287.034516
20
117.085385
70
0
0
VERTEX
8
Layer 1
10
286.597959
20
117.770201
70
0
0
VERTEX
8
Layer 1
10
286.363932
20
118.545553
70
0
0
VERTEX
8
Layer 1
10
286.343257
20
119.422356
70
0
0
VERTEX
8
Layer 1
10
286.546753
20
120.411524
70
0
0
VERTEX
8
Layer 1
10
286.985243
20
121.523972
70
0
0
VERTEX
8
Layer 1
10
289.132334
20
126.676064
70
0
0
VERTEX
8
Layer 1
10
291.358800
20
132.570312
70
0
0
VERTEX
8
Layer 1
10
291.358800
20
132.570312
70
0
0
SEQEND
8
Layer 1
0
POLYLINE
8
Layer 1
62
7
70
0
10
0.000000
20
0.000000
66
1
0
VERTEX
8
Layer 1
10
257.515988
20
118.920475
70
0
0
VERTEX
8
Layer 1
10
258.365630
20
118.705501
70
0
0
VERTEX
8
Layer 1
10
258.891820
20
118.669121
70
0
0
VERTEX
8
Layer 1
10
261.075074
20
119.625413
70
0
0
VERTEX
8
Layer 1
10
263.015925
20
120.828201
70
0
0
VERTEX
8
Layer 1
10
264.736386
20
122.245922
70
0
0
VERTEX
8
Layer 1
10
266.258472
20
123.847011
70
0
0
VERTEX
8
Layer 1
10
267.604197
20
125.599904
70
0
0
VERTEX
8
Layer 1
10
268.795575
20
127.473038
70
0
0
VERTEX
8
Layer 1
10
270.803346
20
131.453772
70
0
0
VERTEX
8
Layer 1
10
270.893966
20
132.088017
70
0
0
VERTEX
8
Layer 1
10
270.707766
20
132.844734
70
0
0
VERTEX
8
Layer 1
10
269.745014
20
134.612231
70
0
0
VERTEX
8
Layer 1
10
267.138872
20
138.369972
70
0
0
VERTEX
8
Layer 1
10
266.239290
20
138.136146
70
0
0
VERTEX
8
Layer 1
10
265.567993
20
137.815960
70
0
0
VERTEX
8
Layer 1
10
265.101583
20
137.420119
70
0
0
VERTEX
8
Layer 1
10
262.534838
20
133.099313
70
0
0
VERTEX
8
Layer 1
10
260.416810
20
128.583046
70
0
0
VERTEX
8
Layer 1
10
258.744769
20
123.860405
70
0
0
VERTEX
8
Layer 1
10
257.515988
20
118.920475
70
0
0
VERTEX
8
Layer 1
10
257.515988
20
118.920475
70
0
0
SEQEND
8
Layer 1
0
POLYLINE
8
Layer 1
62
7
70
0
10
0.000000
20
0.000000
66
1
0
VERTEX
8
Layer 1
10
273.176656
20
139.063179
70
0
0
VERTEX
8
Layer 1
10
274.496925
20
138.560471
70
0
0
VERTEX
8
Layer 1
10
275.487251
20
139.278948
70
0
0
VERTEX
8
Layer 1
10
276.278892
20
140.098939
70
0
0
VERTEX
8
Layer 1
10
276.862173
20
141.023481
70
0
0
VERTEX
8
Layer 1
10
277.227422
20
142.055613
70
0
0
VERTEX
8
Layer 1
10
277.364963
20
143.198374
70
0
0
VERTEX
8
Layer 1
10
277.265125
20
144.454802
70
0
0
VERTEX
8
Layer 1
10
276.918232
20
145.827936
70
0
0
VERTEX
8
Layer 1
10
276.314610
20
147.320814
70
0
0
VERTEX
8
Layer 1
10
273.176656
20
139.063179
70
0
0
VERTEX
8
Layer 1
10
273.176656
20
139.063179
70
0
0
SEQEND
8
Layer 1
 0 
ENDSEC
 0 
EOF