  0
SECTION
  2
HEADER
  9
$ACADVER
  1
AC1015
  9
$ACADMAINTVER
 70
     6
  9
$DWGCODEPAGE
  3
ANSI_1252
  9
$INSBASE
 10
0.0
 20
0.0
 30
0.0
  9
$EXTMIN
 10
-47.499524813
 20
5.5692937008
 30
0.0
  9
$EXTMAX
 10
-25.6142219254
 20
25.5690780028
 30
0.0
  9
$LIMMIN
 10
0.0
 20
0.0
  9
$LIMMAX
 10
12.0
 20
9.0
  9
$ORTHOMODE
 70
     0
  9
$REGENMODE
 70
     1
  9
$FILLMODE
 70
     1
  9
$QTEXTMODE
 70
     0
  9
$MIRRTEXT
 70
     1
  9
$LTSCALE
 40
1.0
  9
$ATTMODE
 70
     1
  9
$TEXTSIZE
 40
0.125
  9
$TRACEWID
 40
0.05
  9
$TEXTSTYLE
  7
Standard
  9
$CLAYER
  8
0
  9
$CELTYPE
  6
ByLayer
  9
$CECOLOR
 62
   256
  9
$CELTSCALE
 40
1.0
  9
$DISPSILH
 70
     0
  9
$DIMSCALE
 40
1.0
  9
$DIMASZ
 40
0.13
  9
$DIMEXO
 40
0.0
  9
$DIMDLI
 40
0.38
  9
$DIMRND
 40
0.0
  9
$DIMDLE
 40
0.0
  9
$DIMEXE
 40
0.125
  9
$DIMTP
 40
0.0
  9
$DIMTM
 40
0.0
  9
$DIMTXT
 40
0.125
  9
$DIMCEN
 40
0.09
  9
$DIMTSZ
 40
0.0
  9
$DIMTOL
 70
     0
  9
$DIMLIM
 70
     0
  9
$DIMTIH
 70
     1
  9
$DIMTOH
 70
     1
  9
$DIMSE1
 70
     0
  9
$DIMSE2
 70
     0
  9
$DIMTAD
 70
     0
  9
$DIMZIN
 70
     1
  9
$DIMBLK
  1

  9
$DIMASO
 70
     1
  9
$DIMSHO
 70
     1
  9
$DIMPOST
  1

  9
$DIMAPOST
  1

  9
$DIMALT
 70
     0
  9
$DIMALTD
 70
     2
  9
$DIMALTF
 40
25.4
  9
$DIMLFAC
 40
1.0
  9
$DIMTOFL
 70
     0
  9
$DIMTVP
 40
0.0
  9
$DIMTIX
 70
     0
  9
$DIMSOXD
 70
     0
  9
$DIMSAH
 70
     0
  9
$DIMBLK1
  1

  9
$DIMBLK2
  1

  9
$DIMSTYLE
  2
Standard
  9
$DIMCLRD
 70
     0
  9
$DIMCLRE
 70
     0
  9
$DIMCLRT
 70
     0
  9
$DIMTFAC
 40
1.0
  9
$DIMGAP
 40
0.06
  9
$DIMJUST
 70
     0
  9
$DIMSD1
 70
     0
  9
$DIMSD2
 70
     0
  9
$DIMTOLJ
 70
     1
  9
$DIMTZIN
 70
     1
  9
$DIMALTZ
 70
     0
  9
$DIMALTTZ
 70
     0
  9
$DIMUPT
 70
     0
  9
$DIMDEC
 70
     2
  9
$DIMTDEC
 70
     2
  9
$DIMALTU
 70
     2
  9
$DIMALTTD
 70
     2
  9
$DIMTXSTY
  7
Standard
  9
$DIMAUNIT
 70
     0
  9
$DIMADEC
 70
     2
  9
$DIMALTRND
 40
0.0
  9
$DIMAZIN
 70
     0
  9
$DIMDSEP
 70
    46
  9
$DIMATFIT
 70
     3
  9
$DIMFRAC
 70
     0
  9
$DIMLDRBLK
  1

  9
$DIMLUNIT
 70
     2
  9
$DIMLWD
 70
    -2
  9
$DIMLWE
 70
    -2
  9
$DIMTMOVE
 70
     0
  9
$LUNITS
 70
     2
  9
$LUPREC
 70
     6
  9
$SKETCHINC
 40
0.1
  9
$FILLETRAD
 40
0.0
  9
$AUNITS
 70
     0
  9
$AUPREC
 70
     2
  9
$MENU
  1
.
  9
$ELEVATION
 40
0.0
  9
$PELEVATION
 40
0.0
  9
$THICKNESS
 40
0.0
  9
$LIMCHECK
 70
     0
  9
$CHAMFERA
 40
0.0
  9
$CHAMFERB
 40
0.0
  9
$CHAMFERC
 40
0.0
  9
$CHAMFERD
 40
0.0
  9
$SKPOLY
 70
     0
  9
$TDCREATE
 40
2460604.491470857
  9
$TDUCREATE
 40
2460604.658137523
  9
$TDUPDATE
 40
2460604.491511621
  9
$TDUUPDATE
 40
2460604.658178287
  9
$TDINDWG
 40
0.0000000116
  9
$TDUSRTIMER
 40
0.0000000116
  9
$USRTIMER
 70
     1
  9
$ANGBASE
 50
0.0
  9
$ANGDIR
 70
     0
  9
$PDMODE
 70
     0
  9
$PDSIZE
 40
-1.0
  9
$PLINEWID
 40
0.0
  9
$SPLFRAME
 70
     0
  9
$SPLINETYPE
 70
     6
  9
$SPLINESEGS
 70
     8
  9
$HANDSEED
  5
70
  9
$SURFTAB1
 70
     6
  9
$SURFTAB2
 70
     6
  9
$SURFTYPE
 70
     6
  9
$SURFU
 70
     6
  9
$SURFV
 70
     6
  9
$UCSBASE
  2

  9
$UCSNAME
  2

  9
$UCSORG
 10
0.0
 20
0.0
 30
0.0
  9
$UCSXDIR
 10
1.0
 20
0.0
 30
0.0
  9
$UCSYDIR
 10
0.0
 20
1.0
 30
0.0
  9
$UCSORTHOREF
  2

  9
$UCSORTHOVIEW
 70
     0
  9
$UCSORGTOP
 10
0.0
 20
0.0
 30
0.0
  9
$UCSORGBOTTOM
 10
0.0
 20
0.0
 30
0.0
  9
$UCSORGLEFT
 10
0.0
 20
0.0
 30
0.0
  9
$UCSORGRIGHT
 10
0.0
 20
0.0
 30
0.0
  9
$UCSORGFRONT
 10
0.0
 20
0.0
 30
0.0
  9
$UCSORGBACK
 10
0.0
 20
0.0
 30
0.0
  9
$PUCSBASE
  2

  9
$PUCSNAME
  2

  9
$PUCSORG
 10
0.0
 20
0.0
 30
0.0
  9
$PUCSXDIR
 10
1.0
 20
0.0
 30
0.0
  9
$PUCSYDIR
 10
0.0
 20
1.0
 30
0.0
  9
$PUCSORTHOREF
  2

  9
$PUCSORTHOVIEW
 70
     0
  9
$PUCSORGTOP
 10
0.0
 20
0.0
 30
0.0
  9
$PUCSORGBOTTOM
 10
0.0
 20
0.0
 30
0.0
  9
$PUCSORGLEFT
 10
0.0
 20
0.0
 30
0.0
  9
$PUCSORGRIGHT
 10
0.0
 20
0.0
 30
0.0
  9
$PUCSORGFRONT
 10
0.0
 20
0.0
 30
0.0
  9
$PUCSORGBACK
 10
0.0
 20
0.0
 30
0.0
  9
$USERI1
 70
     0
  9
$USERI2
 70
     0
  9
$USERI3
 70
     0
  9
$USERI4
 70
     0
  9
$USERI5
 70
     0
  9
$USERR1
 40
0.0
  9
$USERR2
 40
0.0
  9
$USERR3
 40
0.0
  9
$USERR4
 40
0.0
  9
$USERR5
 40
0.0
  9
$WORLDVIEW
 70
     1
  9
$SHADEDGE
 70
     3
  9
$SHADEDIF
 70
    70
  9
$TILEMODE
 70
     1
  9
$MAXACTVP
 70
    64
  9
$PINSBASE
 10
0.0
 20
0.0
 30
0.0
  9
$PLIMCHECK
 70
     0
  9
$PEXTMIN
 10
1.0000000000E+20
 20
1.0000000000E+20
 30
1.0000000000E+20
  9
$PEXTMAX
 10
-1.0000000000E+20
 20
-1.0000000000E+20
 30
-1.0000000000E+20
  9
$PLIMMIN
 10
0.0
 20
0.0
  9
$PLIMMAX
 10
12.0
 20
9.0
  9
$UNITMODE
 70
     0
  9
$VISRETAIN
 70
     1
  9
$PLINEGEN
 70
     0
  9
$PSLTSCALE
 70
     1
  9
$TREEDEPTH
 70
  3020
  9
$CMLSTYLE
  2
Standard
  9
$CMLJUST
 70
     0
  9
$CMLSCALE
 40
1.0
  9
$PROXYGRAPHICS
 70
     1
  9
$MEASUREMENT
 70
     0
  9
$CELWEIGHT
370
    -1
  9
$ENDCAPS
280
     0
  9
$JOINSTYLE
280
     0
  9
$LWDISPLAY
290
     1
  9
$INSUNITS
 70
     1
  9
$HYPERLINKBASE
  1

  9
$STYLESHEET
  1

  9
$XEDIT
290
     1
  9
$CEPSNTYPE
380
     0
  9
$PSTYLEMODE
290
     1
  9
$FINGERPRINTGUID
  2
{3d4135fb-6408-44f4-b9e1-b2d19af61fbe}
  9
$VERSIONGUID
  2
{FAEB1C32-E019-11D5-929B-00C0DF256EC4}
  9
$EXTNAMES
290
     1
  9
$PSVPSCALE
 40
0.0
  9
$OLESTARTUP
290
     0
  0
ENDSEC
  0
SECTION
  2
CLASSES
  0
CLASS
  1
ACDBDICTIONARYWDFLT
  2
AcDbDictionaryWithDefault
  3
ObjectDBX Classes
 90
        0
280
     0
281
     0
  0
CLASS
  1
VISUALSTYLE
  2
AcDbVisualStyle
  3
ObjectDBX Classes
 90
     4095
280
     0
281
     0
  0
CLASS
  1
MATERIAL
  2
AcDbMaterial
  3
ObjectDBX Classes
 90
     1153
280
     0
281
     0
  0
CLASS
  1
SCALE
  2
AcDbScale
  3
ObjectDBX Classes
 90
     1153
280
     0
281
     0
  0
CLASS
  1
TABLESTYLE
  2
AcDbTableStyle
  3
ObjectDBX Classes
 90
     4095
280
     0
281
     0
  0
CLASS
  1
MLEADERSTYLE
  2
AcDbMLeaderStyle
  3
ACDB_MLEADERSTYLE_CLASS
 90
     4095
280
     0
281
     0
  0
CLASS
  1
SUN
  2
AcDbSun
  3
SCENEOE
 90
     1153
280
     0
281
     0
  0
CLASS
  1
ACDBPLACEHOLDER
  2
AcDbPlaceHolder
  3
ObjectDBX Classes
 90
        0
280
     0
281
     0
  0
CLASS
  1
LAYOUT
  2
AcDbLayout
  3
ObjectDBX Classes
 90
        0
280
     0
281
     0
  0
ENDSEC
  0
SECTION
  2
TABLES
  0
TABLE
  2
VPORT
  5
8
330
0
100
AcDbSymbolTable
 70
     1
  0
VPORT
  5
29
330
8
100
AcDbSymbolTableRecord
100
AcDbViewportTableRecord
  2
*Active
 70
     0
 10
0.0
 20
0.0
 11
1.0
 21
1.0
 12
-36.5568733692
 22
15.5691858518
 13
0.0
 23
0.0
 14
0.5
 24
0.5
 15
0.5
 25
0.5
 16
0.0
 26
0.0
 36
1.0
 17
0.0
 27
0.0
 37
0.0
 40
20.3997799881
 41
1.094276946
 42
50.0
 43
0.0
 44
0.0
 50
0.0
 51
0.0
 71
     0
 72
   100
 73
     1
 74
     3
 75
     0
 76
     0
 77
     0
 78
     0
281
     0
 65
     1
110
0.0
120
0.0
130
0.0
111
1.0
121
0.0
131
0.0
112
0.0
122
1.0
132
0.0
 79
     0
146
0.0
  0
ENDTAB
  0
TABLE
  2
LTYPE
  5
5
330
0
100
AcDbSymbolTable
 70
     6
  0
LTYPE
  5
14
330
5
100
AcDbSymbolTableRecord
100
AcDbLinetypeTableRecord
  2
ByBlock
 70
     0
  3

 72
    65
 73
     0
 40
0.0
  0
LTYPE
  5
15
330
5
100
AcDbSymbolTableRecord
100
AcDbLinetypeTableRecord
  2
ByLayer
 70
     0
  3

 72
    65
 73
     0
 40
0.0
  0
LTYPE
  5
16
330
5
100
AcDbSymbolTableRecord
100
AcDbLinetypeTableRecord
  2
Continuous
 70
     0
  3
Solid line
 72
    65
 73
     0
 40
0.0
  0
LTYPE
  5
5E
330
5
100
AcDbSymbolTableRecord
100
AcDbLinetypeTableRecord
  2
HIDDEN
 70
     0
  3
Hidden __ __ __ __ __ __ __ __ __ __ __ __ __ __
 72
    65
 73
     2
 40
0.075
 49
0.05
 74
     0
 49
-0.025
 74
     0
  0
LTYPE
  5
5F
330
5
100
AcDbSymbolTableRecord
100
AcDbLinetypeTableRecord
  2
PHANTOM
 70
     0
  3
Phantom ______  __  __  ______  __  __  ______
 72
    65
 73
     6
 40
0.5
 49
0.25
 74
     0
 49
-0.05
 74
     0
 49
0.05
 74
     0
 49
-0.05
 74
     0
 49
0.05
 74
     0
 49
-0.05
 74
     0
  0
LTYPE
  5
60
330
5
100
AcDbSymbolTableRecord
100
AcDbLinetypeTableRecord
  2
CENTER
 70
     0
  3
Center ____ _ ____ _ ____ _ ____ _ ____ _ ____
 72
    65
 73
     4
 40
0.4
 49
0.25
 74
     0
 49
-0.05
 74
     0
 49
0.05
 74
     0
 49
-0.05
 74
     0
  0
LTYPE
  5
61
330
5
100
AcDbSymbolTableRecord
100
AcDbLinetypeTableRecord
  2
CENTERX2
 70
     0
  3
Center (2x) ________  __  ________  __  _____
 72
    65
 73
     4
 40
0.8
 49
0.5
 74
     0
 49
-0.1
 74
     0
 49
0.1
 74
     0
 49
-0.1
 74
     0
  0
LTYPE
  5
62
330
5
100
AcDbSymbolTableRecord
100
AcDbLinetypeTableRecord
  2
DOT2
 70
     0
  3
Dot (.5x) ........................................
 72
    65
 73
     2
 40
0.025
 49
0.0
 74
     0
 49
-0.025
 74
     0
  0
ENDTAB
  0
TABLE
  2
LAYER
  5
2
330
0
100
AcDbSymbolTable
 70
     1
  0
LAYER
  5
10
330
2
100
AcDbSymbolTableRecord
100
AcDbLayerTableRecord
  2
0
 70
     0
 62
     7
  6
Continuous
370
    -3
390
F
  0
ENDTAB
  0
TABLE
  2
STYLE
  5
3
330
0
100
AcDbSymbolTable
 70
     2
  0
STYLE
  5
11
330
3
100
AcDbSymbolTableRecord
100
AcDbTextStyleTableRecord
  2
Standard
 70
     0
 40
0.0
 41
1.0
 50
0.0
 71
     0
 42
0.125
  3
txt
  4

  0
STYLE
  5
6C
330
3
100
AcDbSymbolTableRecord
100
AcDbTextStyleTableRecord
  2
SLDTEXTSTYLE0
 70
     0
 40
0.0
 41
0.7
 50
0.0
 71
     0
 42
0.125
  3
TXT
  4

  0
ENDTAB
  0
TABLE
  2
VIEW
  5
6
330
0
100
AcDbSymbolTable
 70
     0
  0
ENDTAB
  0
TABLE
  2
UCS
  5
7
330
0
100
AcDbSymbolTable
 70
     0
  0
ENDTAB
  0
TABLE
  2
APPID
  5
9
330
0
100
AcDbSymbolTable
 70
     1
  0
APPID
  5
12
330
9
100
AcDbSymbolTableRecord
100
AcDbRegAppTableRecord
  2
ACAD
 70
     0
  0
ENDTAB
  0
TABLE
  2
DIMSTYLE
  5
A
330
0
100
AcDbSymbolTable
 70
     1
100
AcDbDimStyleTable
  0
DIMSTYLE
105
27
330
A
100
AcDbSymbolTableRecord
100
AcDbDimStyleTableRecord
  2
Standard
 70
     0
178
     0
340
11
  0
ENDTAB
  0
TABLE
  2
BLOCK_RECORD
  5
1
330
0
100
AcDbSymbolTable
 70
     1
  0
BLOCK_RECORD
  5
1F
330
1
100
AcDbSymbolTableRecord
100
AcDbBlockTableRecord
  2
*Model_Space
340
22
  0
BLOCK_RECORD
  5
1B
330
1
100
AcDbSymbolTableRecord
100
AcDbBlockTableRecord
  2
*Paper_Space
340
1E
  0
BLOCK_RECORD
  5
23
330
1
100
AcDbSymbolTableRecord
100
AcDbBlockTableRecord
  2
*Paper_Space0
340
26
  0
ENDTAB
  0
ENDSEC
  0
SECTION
  2
BLOCKS
  0
BLOCK
  5
20
330
1F
100
AcDbEntity
  8
0
100
AcDbBlockBegin
  2
*Model_Space
 70
     0
 10
0.0
 20
0.0
 30
0.0
  3
*Model_Space
  1

  0
ENDBLK
  5
21
330
1F
100
AcDbEntity
  8
0
100
AcDbBlockEnd
  0
BLOCK
  5
1C
330
1B
100
AcDbEntity
 67
     1
  8
0
100
AcDbBlockBegin
  2
*Paper_Space
 70
     0
 10
0.0
 20
0.0
 30
0.0
  3
*Paper_Space
  1

  0
ENDBLK
  5
1D
330
1B
100
AcDbEntity
 67
     1
  8
0
100
AcDbBlockEnd
  0
BLOCK
  5
24
330
23
100
AcDbEntity
  8
0
100
AcDbBlockBegin
  2
*Paper_Space0
 70
     0
 10
0.0
 20
0.0
 30
0.0
  3
*Paper_Space0
  1

  0
ENDBLK
  5
25
330
23
100
AcDbEntity
  8
0
100
AcDbBlockEnd
  0
ENDSEC
  0
SECTION
  2
ENTITIES
  0
SPLINE
  5
65
330
1F
100
AcDbEntity
  8
0
  6
Continuous
 62
     7
370
    25
100
AcDbSpline
210
0.0
220
0.0
230
1.0
 70
     8
 71
     3
 72
    62
 73
    58
 74
     0
 42
0.00000001
 43
0.00000001
 40
0.0
 40
0.0
 40
0.0
 40
0.0
 40
0.1250000000000188
 40
0.1250000000000188
 40
0.2500000000000375
 40
0.2500000000000375
 40
0.5000000000000745
 40
0.5000000000000745
 40
0.6250000000000927
 40
0.6250000000000927
 40
0.7500000000001109
 40
0.7500000000001109
 40
0.7656250000001131
 40
0.7656250000001131
 40
0.7734375000001141
 40
0.7734375000001141
 40
0.7753906250001144
 40
0.7753906250001144
 40
0.7758789062501141
 40
0.7758789062501141
 40
0.7763671875001139
 40
0.7763671875001139
 40
0.7773437500001134
 40
0.7773437500001134
 40
0.7812500000001115
 40
0.7812500000001115
 40
0.7890625000001074
 40
0.7890625000001074
 40
0.7968750000001031
 40
0.7968750000001031
 40
0.8125000000000948
 40
0.8125000000000948
 40
0.8281250000000866
 40
0.8281250000000866
 40
0.8437500000000783
 40
0.8437500000000783
 40
0.8750000000000614
 40
0.8750000000000614
 40
0.9062500000000445
 40
0.9062500000000445
 40
0.9375000000000276
 40
0.9375000000000276
 40
0.9453125000000236
 40
0.9453125000000236
 40
0.9531250000000197
 40
0.9531250000000197
 40
0.9550781250000187
 40
0.9550781250000187
 40
0.9570312500000178
 40
0.9570312500000178
 40
0.9589843750000169
 40
0.9589843750000169
 40
0.9609375000000159
 40
0.9609375000000159
 40
0.9687500000000124
 40
0.9687500000000124
 40
1.0
 40
1.0
 40
1.0
 40
1.0
 10
-25.61422192540818
 20
22.98610867707411
 30
0.0
 10
-26.08391279983434
 20
22.47799805320422
 30
0.0
 10
-26.55355119973279
 20
21.96983896341758
 30
0.0
 10
-27.49250262518558
 20
20.95322026536099
 30
0.0
 10
-27.96185893664208
 20
20.444800636314
 30
0.0
 10
-29.36954933908424
 20
18.91919213389624
 30
0.0
 10
-30.30751373237406
 20
17.90166271425484
 30
0.0
 10
-31.7136164202275
 20
16.37459071529348
 30
0.0
 10
-32.18218330403439
 20
15.86544526849862
 30
0.0
 10
-33.11894724403239
 20
14.84681948714235
 30
0.0
 10
-33.58702872855469
 20
14.33723444269819
 30
0.0
 10
-34.1133702520976
 20
13.76372470658496
 30
0.0
 10
-34.17184969576294
 20
13.6999987326743
 30
0.0
 10
-34.25950046910885
 20
13.60434782810981
 30
0.0
 10
-34.28871188677373
 20
13.57245920568635
 30
0.0
 10
-34.3252883190958
 20
13.53265472702918
 30
0.0
 10
-34.33257460205843
 20
13.52466756243335
 30
0.0
 10
-34.3417084931177
 20
13.51470718907454
 30
0.0
 10
-34.34358262482355
 20
13.51275800310365
 30
0.0
 10
-34.34712705780783
 20
13.50867501918304
 30
0.0
 10
-34.34884156788985
 20
13.50658126174552
 30
0.0
 10
-34.35406200079243
 20
13.50036964121053
 30
0.0
 10
-34.357551591309
 20
13.49623698572416
 30
0.0
 10
-34.37496401057821
 20
13.47554152528877
 30
0.0
 10
-34.38882684801654
 20
13.45892438539389
 30
0.0
 10
-34.43043621131537
 20
13.4090918507277
 30
0.0
 10
-34.45823859098267
 20
13.37592704350571
 30
0.0
 10
-34.51446898781142
 20
13.31016407741386
 30
0.0
 10
-34.54257075768714
 20
13.27727043195859
 30
0.0
 10
-34.62693073043032
 20
13.17863900471735
 30
0.0
 10
-34.68335041871732
 20
13.11304748246301
 30
0.0
 10
-34.79671703916024
 20
12.98234196986746
 30
0.0
 10
-34.85350767940502
 20
12.91708642382548
 30
0.0
 10
-34.96745450804065
 20
12.78690641364845
 30
0.0
 10
-35.02458865167409
 20
12.72196198327804
 30
0.0
 10
-35.1962837434496
 20
12.52739375908527
 30
0.0
 10
-35.31118516851738
 20
12.39807833982597
 30
0.0
 10
-35.54110269111779
 20
12.13955136171192
 30
0.0
 10
-35.65609677666577
 20
12.01031986630454
 30
0.0
 10
-35.88525617285764
 20
11.75110624283416
 30
0.0
 10
-35.99935616424286
 20
11.62106495423388
 30
0.0
 10
-36.14228302081055
 20
11.4587867488184
 30
0.0
 10
-36.17091629982216
 20
11.42637449838632
 30
0.0
 10
-36.22819815206911
 20
11.36156384970772
 30
0.0
 10
-36.25682023000189
 20
11.32914145430686
 30
0.0
 10
-36.29274567758744
 20
11.28874736995682
 30
0.0
 10
-36.29994271028019
 20
11.28067937018277
 30
0.0
 10
-36.31435121408535
 20
11.26455644770687
 30
0.0
 10
-36.32153417869588
 20
11.25647570628018
 30
0.0
 10
-36.33636302907152
 20
11.24073349738639
 30
0.0
 10
-36.34389764189287
 20
11.23297124850699
 30
0.0
 10
-36.35881566656037
 20
11.2173098059771
 30
0.0
 10
-36.36624264617275
 20
11.20945007224256
 30
0.0
 10
-36.40333683459572
 20
11.1701145322985
 30
0.0
 10
-36.4330630131073
 20
11.13869213574586
 30
0.0
 10
-36.58178556075039
 20
10.98166316623471
 30
0.0
 10
-36.70031008384512
 20
10.85562923592994
 30
0.0
 10
-36.81885557870264
 20
10.7296143000348
 30
0.0
  0
SPLINE
  5
66
330
1F
100
AcDbEntity
  8
0
  6
Continuous
 62
     7
370
    25
100
AcDbSpline
210
0.0
220
0.0
230
1.0
 70
     8
 71
     3
 72
    24
 73
    20
 74
     0
 42
0.00000001
 43
0.00000001
 40
0.0
 40
0.0
 40
0.0
 40
0.0
 40
0.1249999999999992
 40
0.1249999999999992
 40
0.2499999999999984
 40
0.2499999999999984
 40
0.3124999999999977
 40
0.3124999999999977
 40
0.3437499999999977
 40
0.3437499999999977
 40
0.3749999999999976
 40
0.3749999999999976
 40
0.4999999999999981
 40
0.4999999999999981
 40
0.6249999999999987
 40
0.6249999999999987
 40
0.7499999999999991
 40
0.7499999999999991
 40
1.0
 40
1.0
 40
1.0
 40
1.0
 10
-36.57784972688217
 20
5.56929373153995
 30
0.0
 10
-36.58137466788954
 20
5.78452668253607
 30
0.0
 10
-36.58514721665827
 20
5.999753853268149
 30
0.0
 10
-36.59359321994846
 20
6.430187163593782
 30
0.0
 10
-36.59824162740522
 20
6.645393887896994
 30
0.0
 10
-36.60647981453914
 20
6.968174430192491
 30
0.0
 10
-36.60938568670898
 20
7.075764213621208
 30
0.0
 10
-36.61458307692585
 20
7.23712931253963
 30
0.0
 10
-36.61636218512403
 20
7.290916589949301
 30
0.0
 10
-36.62069432235247
 20
7.398473078021732
 30
0.0
 10
-36.62331597679662
 20
7.452236840440334
 30
0.0
 10
-36.63593604646371
 20
7.721062336637394
 30
0.0
 10
-36.64672529569911
 20
7.936085295503378
 30
0.0
 10
-36.6696253666011
 20
8.366059837566512
 30
0.0
 10
-36.68177557940753
 20
8.581009293321474
 30
0.0
 10
-36.70744225112038
 20
9.010834416420789
 30
0.0
 10
-36.7209714862261
 20
9.225709762425275
 30
0.0
 10
-36.76288185947205
 20
9.870243081578346
 30
0.0
 10
-36.79270085582539
 20
10.29981024408599
 30
0.0
 10
-36.81885557870262
 20
10.7296143000348
 30
0.0
  0
SPLINE
  5
67
330
1F
100
AcDbEntity
  8
0
  6
Continuous
 62
     7
370
    25
100
AcDbSpline
210
0.0
220
0.0
230
1.0
 70
     8
 71
     3
 72
    18
 73
    14
 74
     0
 42
0.00000001
 43
0.00000001
 40
0.0
 40
0.0
 40
0.0
 40
0.0
 40
0.125
 40
0.125
 40
0.25
 40
0.25
 40
0.375
 40
0.375
 40
0.5
 40
0.5
 40
0.75
 40
0.75
 40
1.0
 40
1.0
 40
1.0
 40
1.0
 10
-37.30769125988746
 20
22.29097168134667
 30
0.0
 10
-36.83312050083822
 20
22.44767424451739
 30
0.0
 10
-36.35687291801784
 20
22.59911841772364
 30
0.0
 10
-35.40213135976527
 20
22.89496225023477
 30
0.0
 10
-34.92371699850629
 20
23.03940594098126
 30
0.0
 10
-33.96542576959747
 20
23.32330123839005
 30
0.0
 10
-33.48553689546839
 20
23.46273620559445
 30
0.0
 10
-32.52465395320964
 20
23.73786989463197
 30
0.0
 10
-32.04367472589703
 20
23.87356284151278
 30
0.0
 10
-30.59957334614373
 20
24.27637698962825
 30
0.0
 10
-29.63526904645251
 20
24.53931967628596
 30
0.0
 10
-27.70490697455764
 20
25.05857864478238
 30
0.0
 10
-26.7388246918173
 20
25.31483358646358
 30
0.0
 10
-25.77220239721908
 20
25.56906655922842
 30
0.0
  0
SPLINE
  5
68
330
1F
100
AcDbEntity
  8
0
  6
Continuous
 62
     7
370
    25
100
AcDbSpline
210
0.0
220
0.0
230
1.0
 70
     8
 71
     3
 72
   188
 73
   184
 74
     0
 42
0.00000001
 43
0.00000001
 40
0.0
 40
0.0
 40
0.0
 40
0.0
 40
0.0625000000000867
 40
0.0625000000000867
 40
0.0703125000000973
 40
0.0703125000000973
 40
0.0742187500001026
 40
0.0742187500001026
 40
0.0781250000001079
 40
0.0781250000001079
 40
0.0937500000001295
 40
0.0937500000001295
 40
0.1093750000001511
 40
0.1093750000001511
 40
0.1132812500001559
 40
0.1132812500001559
 40
0.1171875000001606
 40
0.1250000000001701
 40
0.1250000000001701
 40
0.14062500000019
 40
0.14062500000019
 40
0.1562500000002099
 40
0.1562500000002099
 40
0.1875000000002497
 40
0.1875000000002497
 40
0.2187500000002895
 40
0.2187500000002895
 40
0.2500000000003293
 40
0.2500000000003293
 40
0.2656250000003493
 40
0.2656250000003493
 40
0.2812500000003692
 40
0.2812500000003692
 40
0.2890625000003787
 40
0.2890625000003787
 40
0.2968750000003882
 40
0.2968750000003882
 40
0.300781250000393
 40
0.300781250000393
 40
0.3027343750003954
 40
0.3027343750003954
 40
0.3046875000003977
 40
0.3046875000003977
 40
0.3066406250004001
 40
0.3066406250004001
 40
0.3085937500004025
 40
0.3085937500004025
 40
0.3090820312504029
 40
0.3090820312504029
 40
0.3095703125004033
 40
0.3095703125004033
 40
0.3105468750004037
 40
0.3125000000004035
 40
0.3125000000004035
 40
0.3164062500004024
 40
0.3164062500004024
 40
0.3203125000004013
 40
0.3203125000004013
 40
0.3281250000003998
 40
0.3281250000003998
 40
0.3437500000003968
 40
0.3437500000003968
 40
0.3515625000003953
 40
0.3515625000003953
 40
0.3554687500003947
 40
0.3554687500003947
 40
0.3593750000003942
 40
0.3593750000003942
 40
0.3750000000003911
 40
0.3750000000003911
 40
0.3828125000003895
 40
0.3828125000003895
 40
0.390625000000388
 40
0.390625000000388
 40
0.406250000000385
 40
0.406250000000385
 40
0.4140625000003835
 40
0.4140625000003835
 40
0.4218750000003821
 40
0.4218750000003821
 40
0.4296875000003807
 40
0.4296875000003807
 40
0.4375000000003793
 40
0.4375000000003793
 40
0.445312500000378
 40
0.445312500000378
 40
0.4531250000003766
 40
0.4531250000003766
 40
0.4570312500003758
 40
0.4570312500003758
 40
0.460937500000375
 40
0.460937500000375
 40
0.4687500000003732
 40
0.4687500000003732
 40
0.4843750000003701
 40
0.4843750000003701
 40
0.4921875000003688
 40
0.4921875000003688
 40
0.4931640625003685
 40
0.4931640625003685
 40
0.4941406250003683
 40
0.4941406250003683
 40
0.4960937500003679
 40
0.4960937500003679
 40
0.5000000000003666
 40
0.5000000000003666
 40
0.5039062500003654
 40
0.5039062500003654
 40
0.5058593750003646
 40
0.5058593750003646
 40
0.5078125000003639
 40
0.5078125000003639
 40
0.5156250000003606
 40
0.5156250000003606
 40
0.5234375000003574
 40
0.5234375000003574
 40
0.531250000000354
 40
0.531250000000354
 40
0.5390625000003508
 40
0.5390625000003508
 40
0.5468750000003476
 40
0.5468750000003476
 40
0.5546875000003443
 40
0.5546875000003443
 40
0.5585937500003426
 40
0.5585937500003426
 40
0.562500000000341
 40
0.562500000000341
 40
0.5664062500003393
 40
0.5664062500003393
 40
0.5683593750003383
 40
0.5683593750003383
 40
0.5693359375003377
 40
0.5693359375003377
 40
0.5703125000003372
 40
0.5703125000003372
 40
0.5781250000003316
 40
0.5781250000003316
 40
0.5937500000003207
 40
0.5937500000003207
 40
0.6093750000003099
 40
0.6093750000003099
 40
0.625000000000299
 40
0.625000000000299
 40
0.6406250000002882
 40
0.6406250000002882
 40
0.6562500000002773
 40
0.6562500000002773
 40
0.6875000000002556
 40
0.6875000000002556
 40
0.7187500000002339
 40
0.7187500000002339
 40
0.7500000000002122
 40
0.7500000000002122
 40
0.7812500000001904
 40
0.7812500000001904
 40
0.8125000000001688
 40
0.8125000000001688
 40
0.8281250000001574
 40
0.8281250000001574
 40
0.835937500000152
 40
0.8398437500001488
 40
0.8417968750001473
 40
0.8417968750001473
 40
0.8437500000001458
 40
0.8437500000001458
 40
0.8515625000001384
 40
0.8515625000001384
 40
0.859375000000131
 40
0.859375000000131
 40
0.8671875000001237
 40
0.8671875000001237
 40
0.8750000000001162
 40
0.8750000000001162
 40
0.8906250000001016
 40
0.8906250000001016
 40
0.9062500000000868
 40
0.9062500000000868
 40
0.9375000000000581
 40
0.9375000000000581
 40
0.9687500000000291
 40
0.9687500000000291
 40
1.0
 40
1.0
 40
1.0
 40
1.0
 10
-36.57784972420941
 20
5.569293700806634
 30
0.0
 10
-37.18132298911497
 20
5.602576845697198
 30
0.0
 10
-37.78397890300788
 20
5.640876000846545
 30
0.0
 10
-38.46142189767255
 20
5.687306605033933
 30
0.0
 10
-38.53668549157149
 20
5.69251373551411
 30
0.0
 10
-38.64956976185713
 20
5.700392677136377
 30
0.0
 10
-38.68720557539135
 20
5.702971592954417
 30
0.0
 10
-38.76240809838285
 20
5.708553510146164
 30
0.0
 10
-38.79997817298688
 20
5.711535859914812
 30
0.0
 10
-38.98767946350628
 20
5.727362514767155
 30
0.0
 10
-39.13736999306288
 20
5.742911272726624
 30
0.0
 10
-39.43587235381872
 20
5.779401282086829
 30
0.0
 10
-39.58468417948355
 20
5.80034256745189
 30
0.0
 10
-39.77008880534402
 20
5.830263648459042
 30
0.0
 10
-39.80714039587393
 20
5.836427888743149
 30
0.0
 10
-39.88125753887448
 20
5.848670686126235
 30
0.0
 10
-39.99242577017805
 20
5.867080805914798
 30
0.0
 10
-40.10357111408164
 20
5.885631383635723
 30
0.0
 10
-40.32582998988269
 20
5.922927766521494
 30
0.0
 10
-40.47396187871108
 20
5.948041763603139
 30
0.0
 10
-40.77011125944417
 20
5.998971801482696
 30
0.0
 10
-40.91812133018399
 20
6.024833385307844
 30
0.0
 10
-41.36200275055408
 20
6.103331259090951
 30
0.0
 10
-41.65772155577172
 20
6.156903700502819
 30
0.0
 10
-42.24862587827489
 20
6.267321323797632
 30
0.0
 10
-42.54381461723582
 20
6.324146734546204
 30
0.0
 10
-43.13343391326258
 20
6.442450450705665
 30
0.0
 10
-43.42787533259526
 20
6.503862095353728
 30
0.0
 10
-43.86860165320926
 20
6.601722534912883
 30
0.0
 10
-44.01535255500854
 20
6.635311526211011
 30
0.0
 10
-44.30838947564755
 20
6.70534245406431
 30
0.0
 10
-44.45468447827636
 20
6.741729257906943
 30
0.0
 10
-44.67352170282067
 20
6.800024009352327
 30
0.0
 10
-44.74636512720071
 20
6.820083504296774
 30
0.0
 10
-44.8917314499018
 20
6.862169534019694
 30
0.0
 10
-44.96426264412944
 20
6.884145157559432
 30
0.0
 10
-45.07260429506024
 20
6.919901748971586
 30
0.0
 10
-45.10864144554433
 20
6.932291517331269
 30
0.0
 10
-45.16250235388781
 20
6.952071746770729
 30
0.0
 10
-45.18042305191967
 20
6.9588672946592
 30
0.0
 10
-45.21617050924913
 20
6.973034884068857
 30
0.0
 10
-45.23405755441393
 20
6.980429071709318
 30
0.0
 10
-45.26929134940099
 20
6.99594775673568
 30
0.0
 10
-45.28665543880826
 20
7.00406084872144
 30
0.0
 10
-45.32046317294073
 20
7.021574993159812
 30
0.0
 10
-45.33697091873653
 20
7.030886350222351
 30
0.0
 10
-45.35616517905805
 20
7.044541101128548
 30
0.0
 10
-45.35992566664004
 20
7.047381705216424
 30
0.0
 10
-45.36721175101026
 20
7.053391591543395
 30
0.0
 10
-45.37071733983674
 20
7.056588870536904
 30
0.0
 10
-45.38134179465855
 20
7.066030021299938
 30
0.0
 10
-45.40253871992307
 20
7.084985063563633
 30
0.0
 10
-45.42357676189201
 20
7.104162428154303
 30
0.0
 10
-45.46543272428239
 20
7.142825169165759
 30
0.0
 10
-45.49307687434867
 20
7.169044874828986
 30
0.0
 10
-45.54743628813083
 20
7.222080417018316
 30
0.0
 10
-45.57417799522013
 20
7.248918983594556
 30
0.0
 10
-45.65301559494414
 20
7.330450918125261
 30
0.0
 10
-45.70372620531932
 20
7.386158880807266
 30
0.0
 10
-45.84965132385062
 20
7.557828627886952
 30
0.0
 10
-45.93870013168534
 20
7.67830623351503
 30
0.0
 10
-46.05657774511464
 20
7.870518256799779
 30
0.0
 10
-46.09324345120492
 20
7.936512849328068
 30
0.0
 10
-46.14380403977245
 20
8.038755152617744
 30
0.0
 10
-46.15993879078167
 20
8.073427289459708
 30
0.0
 10
-46.19055195073682
 20
8.143708400593077
 30
0.0
 10
-46.20491755267789
 20
8.179052736850949
 30
0.0
 10
-46.27209893488548
 20
8.356780704075252
 30
0.0
 10
-46.31080143737636
 20
8.502220743787147
 30
0.0
 10
-46.34935359153802
 20
8.72460412131407
 30
0.0
 10
-46.35898843897533
 20
8.799428351265359
 30
0.0
 10
-46.3729222390203
 20
8.950232366658431
 30
0.0
 10
-46.37722141164647
 20
9.02626608221003
 30
0.0
 10
-46.38449946042577
 20
9.255177267828977
 30
0.0
 10
-46.38177115369511
 20
9.408713257295734
 30
0.0
 10
-46.37950359812365
 20
9.638793704936454
 30
0.0
 10
-46.37909667951502
 20
9.715444445884108
 30
0.0
 10
-46.38126693617435
 20
9.868380399572839
 30
0.0
 10
-46.38385409358968
 20
9.944664389578767
 30
0.0
 10
-46.39391448819273
 20
10.09663386295833
 30
0.0
 10
-46.40139240603072
 20
10.17231877298883
 30
0.0
 10
-46.42249660136329
 20
10.32293546698487
 30
0.0
 10
-46.43612155847527
 20
10.39786741268695
 30
0.0
 10
-46.47009273855215
 20
10.54690800148906
 30
0.0
 10
-46.49043051950551
 20
10.62101767866961
 30
0.0
 10
-46.53783765906944
 20
10.76841246731313
 30
0.0
 10
-46.56490561522313
 20
10.84169775056614
 30
0.0
 10
-46.61026105619521
 20
10.95104340797477
 30
0.0
 10
-46.62617112457976
 20
10.98738858064766
 30
0.0
 10
-46.65914530296896
 20
11.05918336106036
 30
0.0
 10
-46.67624759420128
 20
11.09472874568036
 30
0.0
 10
-46.72922274686947
 20
11.20041034561907
 30
0.0
 10
-46.7667595485719
 20
11.26959448953154
 30
0.0
 10
-46.8847451971554
 20
11.47407132070902
 30
0.0
 10
-46.97050222953874
 20
11.60632162076915
 30
0.0
 10
-47.10586243231724
 20
11.80086508348024
 30
0.0
 10
-47.15213436949293
 20
11.86508547851211
 30
0.0
 10
-47.20521084477219
 20
11.93677752931656
 30
0.0
 10
-47.21117913118933
 20
11.94470469320501
 30
0.0
 10
-47.22283078399112
 20
11.96071421754445
 30
0.0
 10
-47.22849695450861
 20
11.96880594462176
 30
0.0
 10
-47.2450217729569
 20
11.99333914751971
 30
0.0
 10
-47.2554033250792
 20
12.0100404984669
 30
0.0
 10
-47.28479727816185
 20
12.06109816320228
 30
0.0
 10
-47.30213518985884
 20
12.09636657494108
 30
0.0
 10
-47.33335567137346
 20
12.16878553066983
 30
0.0
 10
-47.34716710995096
 20
12.20597482000126
 30
0.0
 10
-47.36573632054753
 20
12.26292874555675
 30
0.0
 10
-47.37156470279481
 20
12.28211021805657
 30
0.0
 10
-47.38257883441003
 20
12.32082320658588
 30
0.0
 10
-47.38777438747709
 20
12.34039485055565
 30
0.0
 10
-47.41218984504525
 20
12.43830386033038
 30
0.0
 10
-47.42684315747546
 20
12.5170757938269
 30
0.0
 10
-47.4508564293593
 20
12.67510214987745
 30
0.0
 10
-47.46027872857633
 20
12.75435089016282
 30
0.0
 10
-47.47597856941968
 20
12.91313501534856
 30
0.0
 10
-47.48221610704822
 20
12.99267404661283
 30
0.0
 10
-47.49213085061605
 20
13.15198548334276
 30
0.0
 10
-47.49581402385349
 20
13.23175734488927
 30
0.0
 10
-47.50022954616423
 20
13.3915700355679
 30
0.0
 10
-47.5009707081685
 20
13.47161006140147
 30
0.0
 10
-47.49807891778648
 20
13.6320888135405
 30
0.0
 10
-47.49456331710567
 20
13.71217784745647
 30
0.0
 10
-47.48364228560876
 20
13.83135488893431
 30
0.0
 10
-47.47903655072339
 20
13.87093620700309
 30
0.0
 10
-47.46727124582323
 20
13.94971694833413
 30
0.0
 10
-47.46007047784956
 20
13.98891021094558
 30
0.0
 10
-47.44168659898597
 20
14.0667012254952
 30
0.0
 10
-47.43056701314874
 20
14.105308476828
 30
0.0
 10
-47.40957225062562
 20
14.16257404096823
 30
0.0
 10
-47.40175173202929
 20
14.18146181079437
 30
0.0
 10
-47.38874597491743
 20
14.20873866296073
 30
0.0
 10
-47.38419294641892
 20
14.2176854812386
 30
0.0
 10
-47.37465191641441
 20
14.23528857315399
 30
0.0
 10
-47.36968311215183
 20
14.24395766978532
 30
0.0
 10
-47.32542564069698
 20
14.32228798136604
 30
0.0
 10
-47.28514172149764
 20
14.39128440762401
 30
0.0
 10
-47.16163337201303
 20
14.59649918885201
 30
0.0
 10
-47.0757439011167
 20
14.7309374028649
 30
0.0
 10
-46.89810122141204
 20
14.99589708756759
 30
0.0
 10
-46.8063587377732
 20
15.12642572224333
 30
0.0
 10
-46.61840185655899
 20
15.38449593123918
 30
0.0
 10
-46.52222560896477
 20
15.51206298822688
 30
0.0
 10
-46.32648145341285
 20
15.76493160819791
 30
0.0
 10
-46.2270548633124
 20
15.88994217078315
 30
0.0
 10
-46.02565647099719
 20
16.1372866151502
 30
0.0
 10
-45.92365638151516
 20
16.25965573338532
 30
0.0
 10
-45.61422554046056
 20
16.62332668586803
 30
0.0
 10
-45.40337561660778
 20
16.86120353759402
 30
0.0
 10
-44.97445674892285
 20
17.32972595369741
 30
0.0
 10
-44.75640924480926
 20
17.56039299422614
 30
0.0
 10
-44.31457833873903
 20
18.01598143035896
 30
0.0
 10
-44.09078657269384
 20
18.24089444766132
 30
0.0
 10
-43.63839894359864
 20
18.68590822160023
 30
0.0
 10
-43.4097960815348
 20
18.90600196732943
 30
0.0
 10
-42.948719061668
 20
19.34231158450838
 30
0.0
 10
-42.71624048497672
 20
19.55852302956075
 30
0.0
 10
-42.36504437533301
 20
19.88035774122105
 30
0.0
 10
-42.24756353384374
 20
19.9872198008171
 30
0.0
 10
-42.07075490826968
 20
20.14692452875731
 30
0.0
 10
-41.98220359545085
 20
20.22662964289665
 30
0.0
 10
-41.87864280328595
 20
20.31936758911258
 30
0.0
 10
-41.8342064288641
 20
20.35905915505974
 30
0.0
 10
-41.80457042594825
 20
20.38550842575068
 30
0.0
 10
-41.78981724731369
 20
20.39879799407376
 30
0.0
 10
-41.71435391162215
 20
20.46354550868544
 30
0.0
 10
-41.64985579779089
 20
20.51120906127833
 30
0.0
 10
-41.51633756158434
 20
20.60200647361552
 30
0.0
 10
-41.44725873949482
 20
20.64508153389639
 30
0.0
 10
-41.30604630587882
 20
20.72817167398006
 30
0.0
 10
-41.23451912673888
 20
20.76779026792581
 30
0.0
 10
-41.09053623306816
 20
20.84427201729184
 30
0.0
 10
-41.01801067450719
 20
20.8811567390005
 30
0.0
 10
-40.79924238860875
 20
20.98878530917937
 30
0.0
 10
-40.65183280070674
 20
21.05656640407307
 30
0.0
 10
-40.35507428061274
 20
21.18720444147612
 30
0.0
 10
-40.20570769229303
 20
21.25001655364569
 30
0.0
 10
-39.7555884561039
 20
21.4333252889728
 30
0.0
 10
-39.45283626663006
 20
21.54874491388398
 30
0.0
 10
-38.84421986440153
 20
21.7716824842894
 30
0.0
 10
-38.53832343496691
 20
21.87911862902116
 30
0.0
 10
-37.92444416211945
 20
22.08869334423812
 30
0.0
 10
-37.61644731090543
 20
22.19079634778038
 30
0.0
 10
-37.30769125989218
 20
22.29097168148046
 30
0.0
  0
SPLINE
  5
69
330
1F
100
AcDbEntity
  8
0
  6
Continuous
 62
     7
370
    25
100
AcDbSpline
210
0.0
220
0.0
230
1.0
 70
     8
 71
     3
 72
    13
 73
     9
 74
     0
 42
0.00000001
 43
0.00000001
 40
0.0
 40
0.0
 40
0.0
 40
0.0
 40
0.1865971442592637
 40
0.3733548151804618
 40
0.5603165943551814
 40
0.7475382315410363
 40
0.9349157870286312
 40
1.0
 40
1.0
 40
1.0
 40
1.0
 10
-36.57784972724737
 20
5.569293705876647
 30
0.0
 10
-36.57586248953471
 20
5.719651309070644
 30
0.0
 10
-36.57188630451929
 20
6.020495865799097
 30
0.0
 10
-36.56490971403468
 20
6.476921977508706
 30
0.0
 10
-36.58735993940152
 20
6.966530481879015
 30
0.0
 10
-36.60911002191382
 20
7.450696755793995
 30
0.0
 10
-36.6300664779373
 20
7.831906535140263
 30
0.0
 10
-36.64487872322972
 20
8.051047444533513
 30
0.0
 10
-36.64869729478247
 20
8.107541596914478
 30
0.0
  0
LINE
  5
6A
330
1F
100
AcDbEntity
  8
0
  6
Continuous
 62
     7
370
    25
100
AcDbLine
 10
-36.6480806371
 20
8.1062371504
 30
0.0
 11
-36.7356339174
 21
9.4511959101
 31
0.0
  0
LINE
  5
6B
330
1F
100
AcDbEntity
  8
0
  6
Continuous
 62
     7
370
    25
100
AcDbLine
 10
-25.7722030971
 20
25.5690780028
 30
0.0
 11
-25.6142219254
 21
22.9861086771
 31
0.0
  0
MTEXT
  5
6D
330
1F
100
AcDbEntity
  8
0
  6
Continuous
 62
     7
100
AcDbMText
 10
-47.499524813
 20
5.5291532917
 30
0.0
 40
0.1903
 41
0.0
 71
     1
 72
     1
  1
SOLIDWORKS Educational Product.
  7
SLDTEXTSTYLE0
 73
     1
 44
1.0
  0
MTEXT
  5
6E
330
1F
100
AcDbEntity
  8
0
  6
Continuous
 62
     7
100
AcDbMText
 10
-47.499524813
 20
5.2437032917
 30
0.0
 40
0.1903
 41
0.0
 71
     1
 72
     1
  1
For Instructional Use Only.
  7
SLDTEXTSTYLE0
 73
     1
 44
1.0
  0
ENDSEC
  0
SECTION
  2
OBJECTS
  0
DICTIONARY
  5
C
330
0
100
AcDbDictionary
281
     1
  3
ACAD_GROUP
350
D
  3
ACAD_LAYOUT
350
1A
  3
ACAD_MLINESTYLE
350
17
  3
ACAD_PLOTSETTINGS
350
19
  3
ACAD_PLOTSTYLENAME
350
E
  3
ACAD_SCALELIST
350
47
  3
DWGPROPS
350
6F
  0
DICTIONARY
  5
D
102
{ACAD_REACTORS
330
C
102
}
330
C
100
AcDbDictionary
281
     1
  0
DICTIONARY
  5
1A
102
{ACAD_REACTORS
330
C
102
}
330
C
100
AcDbDictionary
281
     1
  3
Layout1
350
1E
  3
Layout2
350
26
  3
Model
350
22
  0
DICTIONARY
  5
17
102
{ACAD_REACTORS
330
C
102
}
330
C
100
AcDbDictionary
281
     1
  3
Standard
350
18
  0
DICTIONARY
  5
19
102
{ACAD_REACTORS
330
C
102
}
330
C
100
AcDbDictionary
281
     1
  0
ACDBDICTIONARYWDFLT
  5
E
102
{ACAD_REACTORS
330
C
102
}
330
C
100
AcDbDictionary
281
     1
  3
Normal
350
F
100
AcDbDictionaryWithDefault
340
F
  0
DICTIONARY
  5
47
102
{ACAD_REACTORS
330
C
102
}
330
C
100
AcDbDictionary
281
     1
  3
A0
350
48
  3
A1
350
49
  3
A2
350
4A
  3
A3
350
4B
  3
A4
350
4C
  3
A5
350
4D
  3
A6
350
4E
  3
A7
350
4F
  3
A8
350
50
  3
A9
350
51
  3
B1
350
52
  3
B2
350
53
  3
B3
350
54
  3
B4
350
55
  3
B5
350
56
  3
B6
350
57
  3
B7
350
58
  0
XRECORD
  5
6F
102
{ACAD_REACTORS
330
C
102
}
330
C
100
AcDbXrecord
280
     1
  1
DWGPROPS COOKIE
  2

  3

  4

  6

  7

  8
taewon
  9

300
=
301
=
302
=
303
=
304
=
305
=
306
=
307
=
308
=
309
=
 40
0.0
 41
2460604.658137523
 42
2460604.658178287
  1

 90
        0
  0
LAYOUT
  5
1E
102
{ACAD_REACTORS
330
1A
102
}
330
1A
100
AcDbPlotSettings
  1

  2
none_device
  4

  6

 40
0.0
 41
0.0
 42
0.0
 43
0.0
 44
0.0
 45
0.0
 46
0.0
 47
0.0
 48
0.0
 49
0.0
140
0.0
141
0.0
142
1.0
143
1.0
 70
   688
 72
     0
 73
     0
 74
     5
  7

 75
    16
147
1.0
148
0.0
149
0.0
100
AcDbLayout
  1
Layout1
 70
     1
 71
     1
 10
0.0
 20
0.0
 11
12.0
 21
9.0
 12
0.0
 22
0.0
 32
0.0
 14
1.0000000000E+20
 24
1.0000000000E+20
 34
1.0000000000E+20
 15
-1.0000000000E+20
 25
-1.0000000000E+20
 35
-1.0000000000E+20
146
0.0
 13
0.0
 23
0.0
 33
0.0
 16
1.0
 26
0.0
 36
0.0
 17
0.0
 27
1.0
 37
0.0
 76
     0
330
1B
  0
LAYOUT
  5
26
102
{ACAD_REACTORS
330
1A
102
}
330
1A
100
AcDbPlotSettings
  1

  2
none_device
  4

  6

 40
0.0
 41
0.0
 42
0.0
 43
0.0
 44
0.0
 45
0.0
 46
0.0
 47
0.0
 48
0.0
 49
0.0
140
0.0
141
0.0
142
1.0
143
1.0
 70
   688
 72
     0
 73
     0
 74
     5
  7

 75
    16
147
1.0
148
0.0
149
0.0
100
AcDbLayout
  1
Layout2
 70
     1
 71
     2
 10
0.0
 20
0.0
 11
0.0
 21
0.0
 12
0.0
 22
0.0
 32
0.0
 14
0.0
 24
0.0
 34
0.0
 15
0.0
 25
0.0
 35
0.0
146
0.0
 13
0.0
 23
0.0
 33
0.0
 16
1.0
 26
0.0
 36
0.0
 17
0.0
 27
1.0
 37
0.0
 76
     0
330
23
  0
LAYOUT
  5
22
102
{ACAD_REACTORS
330
1A
102
}
330
1A
100
AcDbPlotSettings
  1

  2
none_device
  4
ANSI_A_(11.00_x_8.50_Inches)
  6

 40
6.35
 41
19.05
 42
6.35000508
 43
19.05000254
 44
279.4
 45
215.9
 46
524.039344545
 47
-77.4904634319
 48
0.0
 49
0.0
140
0.0
141
0.0
142
0.4207545378
143
1.0
 70
  1696
 72
     0
 73
     0
 74
     0
  7

 75
     0
147
0.5913241897
148
-39.4088153714
149
0.0
100
AcDbLayout
  1
Model
 70
     1
 71
     0
 10
0.0
 20
0.0
 11
12.0
 21
9.0
 12
0.0
 22
0.0
 32
0.0
 14
-47.499524813
 24
5.5692937008
 34
0.0
 15
-25.6142219254
 25
25.5690780028
 35
0.0
146
0.0
 13
0.0
 23
0.0
 33
0.0
 16
1.0
 26
0.0
 36
0.0
 17
0.0
 27
1.0
 37
0.0
 76
     0
330
1F
331
29
  0
MLINESTYLE
  5
18
102
{ACAD_REACTORS
330
17
102
}
330
17
100
AcDbMlineStyle
  2
Standard
 70
     0
  3

 62
   256
 51
90.0
 52
90.0
 71
     2
 49
0.5
 62
   256
  6
BYLAYER
 49
-0.5
 62
   256
  6
BYLAYER
  0
ACDBPLACEHOLDER
  5
F
102
{ACAD_REACTORS
330
E
102
}
330
E
  0
SCALE
  5
48
102
{ACAD_REACTORS
330
47
102
}
330
47
100
AcDbScale
 70
     0
300
1:1
140
1.0
141
1.0
290
     1
  0
SCALE
  5
49
102
{ACAD_REACTORS
330
47
102
}
330
47
100
AcDbScale
 70
     0
300
1/128" = 1'-0"
140
0.0078125
141
12.0
290
     0
  0
SCALE
  5
4A
102
{ACAD_REACTORS
330
47
102
}
330
47
100
AcDbScale
 70
     0
300
1/64" = 1'-0"
140
0.015625
141
12.0
290
     0
  0
SCALE
  5
4B
102
{ACAD_REACTORS
330
47
102
}
330
47
100
AcDbScale
 70
     0
300
1/32" = 1'-0"
140
0.03125
141
12.0
290
     0
  0
SCALE
  5
4C
102
{ACAD_REACTORS
330
47
102
}
330
47
100
AcDbScale
 70
     0
300
1/16" = 1'-0"
140
0.0625
141
12.0
290
     0
  0
SCALE
  5
4D
102
{ACAD_REACTORS
330
47
102
}
330
47
100
AcDbScale
 70
     0
300
3/32" = 1'-0"
140
0.09375
141
12.0
290
     0
  0
SCALE
  5
4E
102
{ACAD_REACTORS
330
47
102
}
330
47
100
AcDbScale
 70
     0
300
1/8" = 1'-0"
140
0.125
141
12.0
290
     0
  0
SCALE
  5
4F
102
{ACAD_REACTORS
330
47
102
}
330
47
100
AcDbScale
 70
     0
300
3/16" = 1'-0"
140
0.1875
141
12.0
290
     0
  0
SCALE
  5
50
102
{ACAD_REACTORS
330
47
102
}
330
47
100
AcDbScale
 70
     0
300
1/4" = 1'-0"
140
0.25
141
12.0
290
     0
  0
SCALE
  5
51
102
{ACAD_REACTORS
330
47
102
}
330
47
100
AcDbScale
 70
     0
300
3/8" = 1'-0"
140
0.375
141
12.0
290
     0
  0
SCALE
  5
52
102
{ACAD_REACTORS
330
47
102
}
330
47
100
AcDbScale
 70
     0
300
1/2" = 1'-0"
140
0.5
141
12.0
290
     0
  0
SCALE
  5
53
102
{ACAD_REACTORS
330
47
102
}
330
47
100
AcDbScale
 70
     0
300
3/4" = 1'-0"
140
0.75
141
12.0
290
     0
  0
SCALE
  5
54
102
{ACAD_REACTORS
330
47
102
}
330
47
100
AcDbScale
 70
     0
300
1" = 1'-0"
140
1.0
141
12.0
290
     0
  0
SCALE
  5
55
102
{ACAD_REACTORS
330
47
102
}
330
47
100
AcDbScale
 70
     0
300
1-1/2" = 1'-0"
140
1.5
141
12.0
290
     0
  0
SCALE
  5
56
102
{ACAD_REACTORS
330
47
102
}
330
47
100
AcDbScale
 70
     0
300
3" = 1'-0"
140
3.0
141
12.0
290
     0
  0
SCALE
  5
57
102
{ACAD_REACTORS
330
47
102
}
330
47
100
AcDbScale
 70
     0
300
6" = 1'-0"
140
6.0
141
12.0
290
     0
  0
SCALE
  5
58
102
{ACAD_REACTORS
330
47
102
}
330
47
100
AcDbScale
 70
     0
300
1'-0" = 1'-0"
140
12.0
141
12.0
290
     0
  0
ENDSEC
  0
EOF
