**ABCDEFGHIJKLMNOPQRSTUVWXYZabcdefghijklmnopqrstuvwxyz**************************
**PARASOLID !"#$%&'()*+,-./:;<=>?@[\]^_`{|}~0123456789**************************
**PART1;
MC=AMD64;
MC_MODEL=ARMv8 (64-bit) Family 8 Model 0 Revision   0,  ;
MC_ID=unknown;
OS=Windows_NT;
OS_RELEASE=unknown;
FRU=Parasolid Version 35.1, build 251, 11- 4-2023;
APPL=SOLIDWORKS 2024-2024203;
SITE=;
USER=unknown;
FORMAT=text;
GUISE=transmit;
KEY=Rear Mount Chassis side Solid File;
FILE=Rear Mount Chassis side Solid File.x_t;
DATE=Tue Dec 17 22:08:13 2024;
**PART2;
SCH=SCH_3501251_35102;
USFLD_SIZE=0;
**PART3;
**END_OF_HEADER*****************************************************************
T51 : TRANSMIT FILE created by modeller version 350125123 SCH_3501251_35102_1300
6231 0 12 36 CCCI7 lattice222 0 CCCI4 mesh1006 0 I8 polyline1008 0 CCCCCCCDI5 ow
ner1040 0 CCCI16 boundary_lattice222 0 CCCI13 boundary_mesh1006 0 I17 boundary_p
olyline1008 0 CCCA16 index_map_offset0 0 1 dA9 index_map82 0 A17 node_id_index_m
ap82 0 A20 schema_embedding_map82 0 A5 child12 0 A14 lowest_node_id0 0 1 dA16 me
sh_offset_data206 0 Z1 588 2 3 0 0 0 0 0 0 0 1e3 1e-8 0 4 0 1 0 1 1 5 0 6 7 8 0
 0 9 10 11 0 0 0 0 0 0 0 81 255 2 2 566 12 1 13 0 0 0 0 14 70 11 CI9 list_type0
 0 1 uI10 notransmit0 0 1 lCCCDCCDI12 finger_index0 0 1 dI12 finger_block1012 0
 CZ3 0 4 T1 0 0 10 20 1 15 15 13 255 5 141 0 1 0 16 0 0 17 0 50 255 6 134 0 18 1
9 0 0 +0 .0254 .04445 1 106346303207585e-28 0 -106346303207585e-28 1 0 31 255 7
 363 0 20 21 0 0 +.03048 .0127 .022225 0 0 -1 -1 0 0 .00508 29 255 8 204 0 11 22
 0 .01905 -.00127 0 19 9 CCCCCCI5 frame230 0 CA5 owner12 0 Z9 47 0 1 17 0 23 0 V
0 16 255 10 116 0 ?24 0 25 21 0 0 1 18 255 11 202 0 26 0 27 8 ?1 17 255 26 0 28
 29 30 11 31 32 0 33 +18 27 44 0 34 11 35 36 ?1 17 34 0 37 38 39 27 40 41 0 42 +
18 35 41 0 39 27 43 44 ?1 29 36 46 0 27 44 45 -1350598050736336e-32 .02667 .0444
5 29 44 43 0 35 46 36 .02904674204803145 .02667 .04445 29 45 110 0 47 36 48 7776
50717458569e-33 .0254 0 18 47 97 0 49 50 51 45 ?1 29 48 109 0 50 45 52 0 0 0 18
 50 96 0 53 54 47 48 ?1 29 52 108 0 54 48 22 0 -.00127 0 18 54 95 0 55 56 50 52
 ?1 29 22 105 0 56 52 8 -1350598050736336e-32 .02667 0 18 56 92 0 57 58 54 22 ?1
 17 57 0 59 42 60 56 61 62 0 63 +18 58 29 0 64 65 56 66 ?1 17 64 0 67 24 68 58 6
9 70 0 38 -18 65 32 0 69 71 58 72 ?1 29 66 31 0 58 73 72 777650717458569e-33 .02
54 .04445 29 73 324 0 74 75 66 .01905 .02667 0 29 72 34 0 65 66 76 0 0 .04445 29
 76 37 0 71 72 46 0 -.00127 .04445 18 71 35 0 77 43 65 76 ?1 29 46 40 0 43 76 44
 .02904674204803145 -.00127 .04445 18 43 38 0 78 35 71 46 ?1 17 78 0 37 39 77 43
 79 80 0 81 +15 255 37 4 0 38 82 0 17 39 0 37 34 78 35 83 84 0 85 +17 77 0 37 78
 69 71 86 87 0 88 +17 79 0 89 90 81 71 78 80 0 0 -16 80 17 0 ?78 84 87 91 0 0 1
 17 81 0 89 79 92 43 93 94 0 83 -15 89 121 0 95 96 0 17 92 0 89 81 31 51 97 98 0
 93 -17 93 0 99 100 83 51 81 94 0 0 +16 94 113 0 ?93 101 102 103 0 0 1 17 83 0 9
9 93 85 43 39 84 0 0 -15 99 228 0 100 16 0 17 85 0 99 83 100 35 104 102 0 40 -16
 84 21 0 ?39 41 80 105 0 0 1 16 41 25 0 ?34 106 84 107 0 0 1 31 105 23 0 84 91 1
07 0 +.0278923885019855 .0127 .04445 0 0 1 1 0 0 .01401761149801452 30 255 91 19
 0 80 108 105 0 +0 -.00127 .04445 1 0 0 30 107 27 0 41 105 109 0 +-1350598050736
336e-32 .02667 .04445 -1 -358330749749824e-30 0 30 109 104 0 110 107 111 0 +0 .0
254 0 106346303207585e-28 -1 0 16 110 88 0 ?112 113 114 109 0 0 1 31 111 103 0 1
13 109 115 0 +0 .0127 0 0 0 -1 1 0 0 .0127 16 113 84 0 ?53 116 110 111 0 0 1 30
 115 102 0 116 111 117 0 +0 0 0 0 -1 0 16 116 80 0 ?55 118 113 115 0 0 1 30 117
 101 0 118 115 119 0 +0 -.00127 0 1 0 0 16 118 76 0 ?95 62 116 117 0 0 1 30 119
 99 0 62 117 120 0 +-1350598050736336e-32 .02667 0 -1 -358330749749824e-30 0 16
 62 200 0 ?57 121 118 119 0 0 1 30 120 135 0 106 119 122 0 +-1350598050736336e-3
2 .02667 .04445 0 0 -1 16 106 111 0 ?63 102 41 120 0 0 1 30 122 136 0 102 120 10
3 0 +.02904674204803145 .02667 .04445 0 0 -1 16 102 112 0 ?104 94 106 122 0 0 1
 30 103 137 0 94 122 123 0 +.02904674204803145 -.00127 .04445 0 0 -1 30 123 138
 0 101 103 124 0 +0 -.00127 .04445 0 0 -1 16 101 114 0 ?90 25 94 123 0 0 1 30 12
4 139 0 25 123 21 0 +0 0 .04445 0 0 -1 16 25 115 0 ?125 10 101 124 0 0 1 30 21 1
40 0 10 124 7 0 +777650717458569e-33 .0254 .04445 0 0 -1 17 125 0 126 55 86 50 6
8 25 0 127 +15 126 123 0 55 128 0 17 55 0 126 88 125 54 127 116 0 90 +17 86 0 12
6 125 88 65 77 87 0 0 -17 68 0 67 64 53 65 125 25 0 86 -17 127 0 129 49 130 50 5
5 116 0 0 -15 129 67 0 61 131 0 17 49 0 129 132 127 47 53 113 0 24 -17 130 0 129
 127 33 54 95 118 0 0 -17 33 0 129 130 61 11 29 133 0 95 -17 95 0 89 31 90 11 13
0 118 0 0 +17 31 0 89 92 95 134 26 32 0 0 -17 90 0 89 95 79 54 88 101 0 130 +17
 88 0 126 86 55 71 90 101 0 79 -18 134 278 0 30 135 74 136 ?1 16 32 247 0 ?26 11
4 137 138 0 0 1 16 114 259 0 ?60 110 32 139 0 0 1 16 137 248 0 ?140 32 141 142 0
 0 1 30 138 310 0 32 139 143 0 +.01905 -.00127 .022225 0 0 -1 30 139 311 0 114 1
44 138 0 +.01905 .02667 .022225 0 0 -1 30 143 7 0 121 138 145 0 +0 .0254 .04445
 106346303207585e-28 -1 0 16 121 5 0 ?38 70 62 143 0 0 1 31 145 11 0 70 143 108
 0 +0 .0127 .04445 0 0 -1 1 0 0 .0127 16 70 9 0 ?69 87 121 145 0 0 1 30 108 15 0
 87 145 91 0 +0 0 .04445 0 -1 0 16 87 13 0 ?77 80 70 108 0 0 1 17 69 0 37 77 38
 65 64 70 0 68 +17 38 0 37 69 34 58 146 121 0 147 +17 146 0 148 63 147 27 38 121
 0 0 -17 147 0 148 146 112 58 24 10 0 0 -15 148 127 0 112 18 0 17 112 0 148 147
 63 47 132 110 0 0 +17 24 0 67 53 64 47 147 10 0 112 +15 67 125 0 53 149 0 17 53
 0 67 68 24 50 49 113 0 125 +14 255 149 126 150 ?128 18 67 5 19 -0 0 128 18 23 8
1 1 150 568 151 149 152 0 0 153 154 14 128 124 153 ?96 149 126 5 155 -0 0 96 149
 23 14 18 128 156 ?149 16 148 5 6 -0 0 149 16 23 51 255 19 133 0 149 155 6 0 +0
 .0127 .04445 0 0 -1 .0127 -1 0 0 13 23 48 0 0 0 0 0 0 9 16 14 16 230 157 ?18 0
 99 5 158 -0 0 18 0 23 81 1 157 574 151 16 159 0 156 160 161 51 158 130 0 16 162
 163 0 -.0278923885019855 .0127 .04445 0 0 -1 .01401761149801452 -1 0 0 50 162 1
29 0 164 165 158 0 +-1350598050736336e-32 .02667 .04445 358330749749824e-30 -1 0
 1 358330749749824e-30 0 50 163 131 0 96 158 155 0 +0 -.00127 .04445 0 1 0 0 0 1
 14 96 122 160 ?164 128 89 5 163 -0 0 164 128 23 50 155 132 0 128 163 19 0 +0 0
 .04445 1 0 0 0 0 -1 81 1 160 576 151 96 166 0 157 167 168 14 164 118 167 ?82 96
 59 5 162 -0 0 82 96 23 81 1 167 578 151 164 169 0 160 170 171 14 82 1 170 ?131
 164 172 5 173 +0 0 131 164 23 15 59 117 0 174 164 0 17 174 0 59 60 104 135 175
 141 0 0 -17 60 0 59 57 174 74 176 114 0 61 +17 104 0 59 174 40 177 85 102 0 0 +
18 135 276 0 176 177 134 178 ?1 17 175 0 179 140 180 177 174 141 0 100 +16 141 2
52 0 ?175 137 181 182 0 0 1 16 181 256 0 ?180 141 98 183 0 0 1 30 182 319 0 141
 183 142 0 +.02904674204803145 .02667 .022225 1 3470577649482135e-31 0 30 183 32
0 0 181 184 182 0 +.01905 -.00127 .022225 0 1 0 31 142 318 0 137 182 144 0 +.027
8923885019855 .0127 .022225 0 0 -1 -1 0 0 .01401761149801452 30 144 316 0 133 14
2 139 0 +.01905 -.00127 0 0 1 0 16 133 263 0 ?29 98 20 144 0 0 1 17 29 0 28 176
 26 74 33 133 0 60 +16 98 244 0 ?97 181 133 184 0 0 1 16 20 380 0 ?185 133 186 7
 0 0 1 17 185 0 187 185 185 0 188 20 0 0 +16 186 381 0 ?189 20 0 190 0 0 1 17 18
9 0 191 189 189 0 192 186 0 0 +31 190 406 0 186 0 184 0 +.03048 .0127 .04445 0 0
 1 1 0 0 .00508 30 184 321 0 98 190 183 0 +.01905 -.00127 .022225 -1 19521999278
337e-29 0 15 191 399 0 189 193 0 17 192 0 172 192 192 0 189 186 0 0 -15 172 371
 0 192 82 37 14 193 395 194 ?0 195 187 5 196 -0 0 0 195 23 81 1 194 582 151 193
 197 0 170 198 199 14 195 296 198 ?193 200 201 5 202 +0 0 193 200 23 15 187 398
 0 185 193 191 51 196 404 0 193 0 202 0 +.03048 .0127 .04445 0 0 1 .00508 1 0 0
 50 202 309 0 195 196 203 0 +.0278923885019855 .0127 .022225 0 0 -1 -1 0 0 50 20
3 305 0 200 202 173 0 +.01905 -.00127 .022225 -1 0 0 0 0 1 14 200 292 204 ?195 1
31 28 5 203 -0 0 195 131 23 50 173 3 0 82 203 165 0 +.0278923885019855 .0127 .04
445 0 0 1 1 0 0 50 165 98 0 131 173 162 0 +.0278923885019855 .0127 0 0 0 1 1 0 0
 14 131 66 205 ?200 82 129 5 165 -0 0 200 82 23 81 1 205 588 151 131 206 0 204 0
 207 80 7 CCCCCDI12 legal_owners0 16 1 lCZ1 151 208 209 9000 1 1 1 1 1 1 1 1 0 F
FFFTFTFFFFFFFFF1 81 3 206 587 210 131 211 205 212 0 213 0 0 81 1 204 586 151 200
 212 0 198 205 214 82 255 1 207 -2003697002 81 3 212 585 210 200 215 204 216 206
 217 0 0 81 1 198 584 151 195 216 0 194 204 218 82 1 214 -1710751082 81 3 216 58
3 210 195 219 198 197 212 220 0 0 82 1 218 -1717566824 80 3 210 221 222 9000 0 0
 0 0 3 5 0 0 0 FFFFTFFFFFFFFFFF1 1 1 81 1 219 530 223 195 0 216 215 224 225 81 3
 197 581 210 193 224 194 226 216 227 0 0 82 6 220 0 521898841 31149293 0 0 0 81
 1 224 531 223 193 0 197 219 0 228 81 3 226 579 210 82 229 170 169 197 230 0 0 8
2 6 227 0 521898841 31149293 0 0 0 81 1 229 527 223 82 0 226 231 211 232 81 1 17
0 580 151 82 226 0 167 194 233 81 3 169 577 210 164 231 167 166 226 234 0 0 82 6
 230 0 521898841 31149293 0 0 0 81 1 231 526 223 164 0 169 235 229 236 81 3 166
 575 210 96 235 160 159 169 237 0 0 82 6 234 0 521828766 31149293 0 0 0 81 1 235
 525 223 96 0 166 238 231 239 81 3 159 573 210 16 240 157 241 166 242 0 0 82 6 2
37 0 521828766 31149293 0 0 0 81 1 240 521 223 16 0 159 0 243 244 81 3 241 571 2
10 18 243 156 245 159 246 0 0 82 6 242 0 521828766 31149293 0 0 0 81 1 243 522 2
23 18 0 241 240 247 248 81 1 156 572 151 18 241 0 153 157 249 81 3 245 569 210 1
28 238 153 152 241 250 0 0 82 6 246 0 444460415 31149293 0 0 0 81 1 238 524 223
 128 0 245 247 235 251 81 1 153 570 151 128 245 0 150 156 252 81 3 152 567 210 1
49 247 150 0 245 253 0 0 82 6 250 0 444460415 31149293 0 0 0 81 1 247 523 223 14
9 0 152 243 238 254 82 6 253 0 444460415 31149293 0 0 0 80 1 223 0 255 8001 0 0
 0 0 3 5 0 0 0 FFFFTFTFFFFFFFFF2 83 255 3 254 1 1 1 79 255 15 255 SDL/TYSA_COLOU
R82 1 252 -2001599859 83 3 251 1 1 1 82 1 249 -2001075571 83 3 248 1 1 1 83 3 24
4 1 1 1 83 3 239 1 1 1 83 3 236 1 1 1 82 1 233 -2011692392 81 1 211 528 223 131
 0 206 229 215 256 83 3 232 1 1 1 81 1 215 529 223 200 0 212 211 219 257 83 3 25
6 1 1 1 83 3 257 1 1 1 83 3 228 1 1 1 83 3 225 1 1 1 79 18 222 DOWNSTREAM_FACE_I
D82 6 217 0 521828766 31149293 0 0 0 82 6 213 0 521828766 31149293 0 0 0 79 14 2
09 SWEntUnchanged15 28 295 0 29 200 0 15 201 362 0 188 195 179 17 188 0 201 188
 188 0 185 20 0 0 -15 179 298 0 97 195 0 17 97 0 179 180 140 134 92 98 0 31 +17
 180 0 179 175 97 135 30 181 0 174 +17 140 0 179 97 175 51 100 137 0 92 +18 51 2
72 0 140 47 177 75 ?1 17 100 0 99 85 93 177 140 137 0 104 -18 177 274 0 175 51 1
35 258 ?1 29 258 327 0 177 178 75 .02904674204803145 .02667 .022225 29 178 328 0
 135 136 258 .01905 .02667 .022225 29 75 326 0 51 258 73 .02904674204803145 -.00
127 .022225 29 136 329 0 134 0 178 .01905 -.00127 .022225 17 30 0 28 26 176 134
 180 181 0 97 -17 176 0 28 30 29 135 60 114 0 180 -82 1 199 -1677262184 18 74 27
9 0 29 134 0 73 ?1 17 40 0 59 104 42 35 34 41 0 0 -17 42 0 59 40 57 27 63 106 0
 146 -17 63 0 148 112 146 56 42 106 0 132 +17 132 0 129 61 49 56 112 110 0 0 -17
 61 0 129 33 132 74 57 62 0 0 -82 1 171 -2002386282 82 1 168 -2001861994 82 1 16
1 -1697447274 82 1 154 -2001337715 19 17 142 0 1 0 9 5 0 S0 74 4 CI16 index_map_
offset0 0 1 dCCZ20 15 10 0 0 206 259 260 261 205 262 263 13 224 2 0 0 0 0 0 0 0
 0 0 0 81 2 259 182 264 1 0 260 0 0 0 265 81 2 260 186 266 1 259 261 0 0 0 267 8
1 2 261 187 268 1 260 262 0 0 269 0 81 2 262 419 270 1 261 263 0 0 0 271 81 2 26
3 423 272 1 262 13 0 0 0 0 81 2 13 446 273 1 263 2 0 0 274 0 80 2 273 275 276 80
04 0 0 0 0 3 5 0 0 0 FFTFFFFFFFFFFFFF2 3 83 1 274 1 79 16 276 SDL/TYSA_DENSITY80
 2 272 277 278 9000 0 0 0 0 3 5 0 0 0 FFTFFFFFFFFFFFFF9 1 79 16 278 BODY_RECIPE_
200180 2 270 279 280 9000 0 0 0 0 3 5 0 0 0 FFTFFFFFFFFFFFFF9 1 82 1 271 1 79 24
 280 BODY_IN_LIGHTWEIGHT_PERM80 2 268 281 282 9000 0 0 0 0 3 5 0 0 0 FFTFTTTFFTF
FFFFF10 10 98 255 26 269 51 47 56 32 40 48 46 51 55 53 41 32 68 105 97 109 101 1
16 101 114 32 72 111 108 101 49 79 23 282 SWIMPLICITBODYNAME_ID_U80 2 266 283 28
4 9000 0 0 0 0 3 5 0 0 0 FFTFFFFFFFFFFFFF9 1 82 1 267 179 79 30 284 LAST_BODY_MO
DIFYING_FEATURE_ID80 2 264 285 286 9000 0 0 0 0 3 5 0 0 0 FFTFFFFFFFFFFTFF9 1 82
 1 265 619 79 19 286 ENT_TIME_STAMP_200180 2 12 287 288 9000 0 0 0 0 3 5 0 0 0 F
FTFFFFFFFFFFFFF9 1 82 1 14 105 79 12 288 ATOM_ID_20011 0 
