**ABCDEFGHIJKLMNOPQRSTUVWXYZabcdefghijklmnopqrstuvwxyz**************************
**PARASOLID !"#$%&'()*+,-./:;<=>?@[\]^_`{|}~0123456789**************************
**PART1;
MC=AMD64;
MC_MODEL=ARMv8 (64-bit) Family 8 Model 0 Revision   0,  ;
MC_ID=unknown;
OS=Windows_NT;
OS_RELEASE=unknown;
FRU=Parasolid Version 35.1, build 251, 11- 4-2023;
APPL=SOLIDWORKS 2024-2024203;
SITE=;
USER=unknown;
FORMAT=text;
GUISE=transmit;
KEY=Rear Mount Container side Solid File;
FILE=Rear Mount Container side Solid File.x_t;
DATE=Tue Dec 17 22:08:58 2024;
**PART2;
SCH=SCH_3501251_35102;
USFLD_SIZE=0;
**PART3;
**END_OF_HEADER*****************************************************************
T51 : TRANSMIT FILE created by modeller version 350125123 SCH_3501251_35102_1300
6231 0 12 36 CCCI7 lattice222 0 CCCI4 mesh1006 0 I8 polyline1008 0 CCCCCCCDI5 ow
ner1040 0 CCCI16 boundary_lattice222 0 CCCI13 boundary_mesh1006 0 I17 boundary_p
olyline1008 0 CCCA16 index_map_offset0 0 1 dA9 index_map82 0 A17 node_id_index_m
ap82 0 A20 schema_embedding_map82 0 A5 child12 0 A14 lowest_node_id0 0 1 dA16 me
sh_offset_data206 0 Z1 1045 2 3 0 0 0 0 0 0 0 1e3 1e-8 0 4 0 1 0 1 1 5 0 6 7 8 0
 0 9 10 11 0 0 0 0 0 0 0 81 255 2 2 1009 12 1 13 0 0 0 0 14 70 11 CI9 list_type0
 0 1 uI10 notransmit0 0 1 lCCCDCCDI12 finger_index0 0 1 dI12 finger_block1012 0
 CZ3 0 4 T1 0 0 11 20 1 15 15 13 255 5 267 0 1 0 16 0 0 17 0 51 255 6 692 0 18 1
9 0 0 +-.02433379973636505 .0352454976 .04445 0 0 1 .00254 1 0 0 31 255 7 717 0
 20 21 0 0 +-.0356902 .0212754976 .022225 0 0 1 1 0 0 .00508 29 255 8 655 0 11 2
2 0 -.0222341231534909 .03381617669574865 0 19 9 CCCCCCI5 frame230 0 CA5 owner12
 0 Z9 89 0 1 17 0 23 0 V0 16 255 10 667 0 ?24 0 25 21 0 0 1 18 255 11 653 0 26 0
 27 8 ?1 17 255 26 0 28 29 30 11 31 25 0 32 +18 27 650 0 33 11 34 22 ?1 17 33 0
 35 36 32 27 37 38 0 39 +18 34 641 0 31 27 40 41 ?1 29 22 652 0 27 41 8 -.022234
1231534909 .03381617669574865 .022225 29 41 643 0 34 42 22 -.02433379973636505 .
0327054976 0 29 42 640 0 40 43 41 -.02433379973636505 .0327054976 .022225 18 40
 638 0 24 34 44 42 ?1 29 43 378 0 44 45 42 .00635 0 .04445 18 44 376 0 46 40 47
 43 ?1 29 45 375 0 47 48 43 .00635 0 0 18 47 373 0 49 44 50 45 ?1 29 48 366 0 50
 51 45 -172811270546349e-33 .00635 .04445 18 50 364 0 52 47 53 48 ?1 29 51 363 0
 53 54 48 -172811270546349e-33 .00635 0 18 53 361 0 55 50 56 51 ?1 29 54 196 0 5
7 58 51 .05715 0 0 18 57 171 0 59 60 61 54 ?1 29 58 197 0 61 62 54 .05715 -.0095
25 0 18 61 172 0 63 57 64 58 ?1 29 62 198 0 64 65 58 0 -.0117445024 0 18 64 173
 0 66 61 67 62 ?1 29 65 199 0 67 68 62 -.0204502 -.0117445024 0 18 67 174 0 69 6
4 70 65 ?1 29 68 200 0 70 71 65 -.0204502 .00984549760000001 0 18 70 175 0 72 67
 73 68 ?1 29 71 201 0 73 74 68 -.0483902 .0098454976 0 18 73 176 0 75 70 76 71 ?
1 29 74 202 0 76 77 71 -.0483902 .0200054976 0 18 76 177 0 78 73 79 74 ?1 29 77
 203 0 79 80 74 -.0356902 .0327054976 0 18 79 178 0 81 76 82 77 ?1 29 80 205 0 8
2 83 77 -.00635 .05715 0 18 82 180 0 84 79 85 80 ?1 29 83 206 0 85 86 80 -155530
143491714e-32 .05715 0 18 85 181 0 87 82 88 83 ?1 29 86 85 0 56 89 83 .05715 0 .
04445 18 56 83 0 90 53 91 86 ?1 29 89 82 0 91 92 86 .05715 -.009525 .04445 18 91
 80 0 93 56 94 89 ?1 29 92 79 0 94 95 89 0 -.0117445024 .04445 18 94 77 0 96 91
 97 92 ?1 29 95 76 0 97 98 92 -.0204502 -.0117445024 .04445 18 97 74 0 99 94 100
 95 ?1 29 98 58 0 100 101 95 -.00635 .05715 .04445 18 100 56 0 102 97 60 98 ?1 2
9 101 55 0 60 103 98 -155530143491714e-32 .05715 .04445 18 60 53 0 104 100 57 10
1 ?1 29 103 605 0 105 106 101 -.0204502 .03643676501842045 .04445 18 105 541 0 1
07 108 0 103 ?1 29 106 608 0 88 109 103 -.0483902 .0200054976 .022225 18 88 532
 0 110 85 111 106 ?1 29 109 609 0 111 112 106 -.0356902 .0327054976 .022225 18 1
11 534 0 113 88 114 109 ?1 29 112 611 0 114 115 109 -.0204502 .03643676501842045
 .022225 18 114 538 0 116 111 117 112 ?1 29 115 612 0 117 118 112 -.0204502 .009
84549760000001 .022225 18 117 540 0 119 114 108 115 ?1 29 118 613 0 108 0 115 -.
0483902 .0098454976 .022225 18 108 542 0 120 117 105 118 ?1 17 120 0 121 122 110
 108 123 124 0 125 +15 255 121 570 0 120 126 0 17 122 0 121 127 120 117 125 128
 0 129 +17 110 0 121 120 113 88 130 131 0 123 +17 123 0 132 78 133 88 120 124 0
 134 -16 124 490 0 ?120 128 20 135 0 0 1 17 125 0 136 75 129 108 122 128 0 133 -
15 136 447 0 125 137 0 17 75 0 136 138 125 73 133 139 0 140 +17 129 0 136 125 13
8 117 72 141 0 0 -16 128 510 0 ?122 142 124 143 0 0 1 17 133 0 132 123 140 108 7
5 139 0 0 -15 132 456 0 123 144 0 17 140 0 132 133 78 73 145 146 0 147 +16 139 4
44 0 ?75 148 141 149 0 0 1 16 148 453 0 ?78 150 139 151 0 0 1 16 141 441 0 ?72 1
39 152 153 0 0 1 30 255 149 261 0 139 153 151 0 +-.0483902 .0098454976 .04445 0
 0 -1 30 153 260 0 141 154 149 0 +-.0204502 .00984549760000001 .04445 0 0 -1 30
 151 262 0 148 149 155 0 +-.0483902 .0200054976 .04445 0 0 -1 30 155 263 0 150 1
51 156 0 +-.0356902 .0327054976 .04445 0 0 -1 16 150 462 0 ?157 158 148 155 0 0
 1 30 156 265 0 158 155 159 0 +-.00635 .05715 .04445 0 0 -1 16 158 217 0 ?160 16
1 150 156 0 0 1 30 159 266 0 161 156 162 0 +-155530143491714e-32 .05715 .04445 0
 0 -1 16 161 218 0 ?163 164 158 159 0 0 1 30 162 369 0 164 159 165 0 +-172811270
546349e-33 .00635 0 0 0 -1 16 164 367 0 ?166 167 161 162 0 0 1 30 165 381 0 167
 162 168 0 -.00635 0 .04445 0 0 -1 16 167 379 0 ?46 169 164 165 0 0 1 31 168 395
 0 169 165 170 0 +.00635 .00635 0 0 0 1 1 0 0 .00635 16 169 385 0 ?49 171 167 16
8 0 0 1 31 170 396 0 171 168 172 0 -.00635 .00635 .04445 0 0 1 1 0 0 .00635 16 1
71 390 0 ?52 173 169 170 0 0 1 30 172 646 0 173 170 174 0 +-.02433379973636505 .
0327054976 0 0 0 -1 16 173 644 0 ?175 38 171 172 0 0 1 30 174 658 0 38 172 176 0
 --.0222341231534909 .03381617669574865 .022225 0 0 -1 16 38 656 0 ?33 25 173 17
4 0 0 1 31 176 672 0 25 174 21 0 +-.02433379973636505 .0352454976 0 0 0 1 1 0 0
 .00254 16 25 662 0 ?26 10 38 176 0 0 1 31 21 673 0 10 176 7 0 --.02433379973636
505 .0352454976 .022225 0 0 1 1 0 0 .00254 17 175 0 177 81 178 34 179 173 0 30 +
15 177 474 0 178 16 0 17 81 0 177 180 175 79 30 181 0 157 +17 178 0 177 175 180
 40 113 182 0 179 -17 179 0 183 184 31 40 175 173 0 0 -17 30 0 28 26 185 34 81 1
81 0 0 -15 28 121 0 186 187 0 17 185 0 28 30 145 79 188 189 0 0 -16 181 642 0 ?8
1 189 190 191 0 0 1 16 189 150 0 ?188 146 181 192 0 0 1 16 190 158 0 ?32 181 193
 194 0 0 1 30 191 191 0 181 194 192 0 +-.0356902 .0327054976 0 -1 10927391974657
06e-30 0 30 194 192 0 190 195 191 0 +-.0229902 .0327054976 0 -.56272476545329 -.
826644323966202 0 31 192 190 0 189 191 196 0 +-.0356902 .0200054976 0 0 0 1 1 0
 0 .0127 30 196 189 0 146 192 197 0 +-.0483902 .0098454976 0 -682961998416066e-3
0 -1 0 16 146 146 0 ?140 198 189 196 0 0 1 30 197 188 0 198 196 199 0 +-.0204502
 .00984549760000001 0 1 1862623632043815e-31 0 16 198 142 0 ?138 200 146 197 0 0
 1 30 199 187 0 200 197 201 0 +-.0204502 .00984549760000001 0 16069694080378e-29
 -1 0 16 200 138 0 ?69 202 198 199 0 0 1 30 201 186 0 202 199 203 0 +-.0204502 -
.0117445024 0 1 -3393068969451265e-31 0 16 202 134 0 ?66 204 200 201 0 0 1 30 20
3 185 0 204 201 205 0 +0 -.0117445024 0 .999246717570588 .03880718263937075 0 16
 204 130 0 ?63 206 202 203 0 0 1 30 205 184 0 206 203 207 0 +.05715 0 0 -7284927
9831047e-29 1 0 16 206 126 0 ?59 208 204 205 0 0 1 30 207 183 0 208 205 209 0 +0
 0 0 -1 0 0 16 208 122 0 ?210 211 206 207 0 0 1 30 209 256 0 212 207 213 0 +.057
15 0 .04445 0 0 -1 16 212 208 0 ?214 215 216 209 0 0 1 30 213 257 0 215 209 217
 0 +.05715 -.009525 .04445 0 0 -1 16 215 209 0 ?218 219 212 213 0 0 1 30 217 258
 0 219 213 154 0 +0 -.0117445024 .04445 0 0 -1 16 219 210 0 ?220 152 215 217 0 0
 1 30 154 259 0 152 217 153 0 +-.0204502 -.0117445024 .04445 0 0 -1 16 152 211 0
 ?221 141 219 154 0 0 1 17 221 0 222 66 223 67 224 152 0 225 +15 222 225 0 66 22
6 0 17 66 0 222 227 221 64 225 202 0 220 +17 223 0 222 221 227 97 96 228 0 0 -17
 224 0 229 107 69 97 221 152 0 223 -17 225 0 28 230 231 67 66 202 0 0 -17 230 0
 28 147 225 70 69 200 0 0 -17 231 0 28 225 232 64 63 204 0 0 -17 232 0 28 231 23
3 61 59 206 0 0 -17 63 0 234 235 220 61 231 204 0 218 +15 234 223 0 63 236 0 17
 235 0 234 237 63 91 218 215 0 238 -17 220 0 234 63 237 64 227 219 0 231 +17 218
 0 239 59 238 61 235 215 0 232 +15 239 221 0 59 240 0 17 59 0 239 241 218 57 232
 206 0 214 +17 238 0 239 218 241 91 90 242 0 0 -17 241 0 239 238 59 56 214 212 0
 243 -17 90 0 244 245 93 56 238 242 0 241 +16 242 45 0 ?90 216 246 247 0 0 1 16
 216 49 0 ?245 212 242 248 0 0 1 16 246 41 0 ?93 242 228 249 0 0 1 30 247 47 0 2
42 249 248 0 +.05715 0 .04445 -72849279831047e-29 1 0 30 249 43 0 246 250 247 0
 +0 -.0117445024 .04445 .999246717570588 .03880718263937075 0 30 248 51 0 216 24
7 251 0 +0 0 .04445 -1 0 0 30 251 194 0 252 248 195 0 +-155530143491714e-32 .057
15 0 -2721437331438565e-32 1 0 16 252 362 0 ?87 193 253 251 0 0 1 30 195 193 0 1
93 251 194 0 +-.00635 .05715 0 -1 0 0 16 193 162 0 ?84 190 252 195 0 0 1 17 84 0
 254 255 163 82 256 193 0 160 +15 254 239 0 84 257 0 17 255 0 254 258 84 100 160
 158 0 259 -17 163 0 254 84 258 85 260 161 0 0 +17 256 0 28 186 29 85 84 193 0 1
63 -17 160 0 35 32 259 82 255 158 0 29 +15 35 237 0 32 261 0 17 32 0 35 33 160 1
1 29 190 0 37 +17 259 0 35 160 262 100 263 264 0 0 -17 29 0 28 256 26 82 32 190
 0 0 -17 262 0 35 259 36 105 116 253 0 263 +17 263 0 244 99 102 105 259 264 0 0
 +16 264 13 0 ?263 265 266 267 0 0 1 16 265 33 0 ?99 228 264 268 0 0 1 16 266 9
 0 ?102 264 211 269 0 0 1 30 267 15 0 264 269 268 0 +-.0229902 .0327054976 .0444
5 -.56272476545329 -.826644323966202 0 30 269 11 0 266 270 267 0 +-.00635 .05715
 .04445 -1 0 0 30 268 35 0 265 267 250 0 +-.0204502 .00984549760000001 .04445 16
069694080378e-29 -1 0 30 250 39 0 228 268 249 0 +-.0204502 -.0117445024 .04445 1
 -3393068969451265e-31 0 16 228 37 0 ?96 246 265 250 0 0 1 17 96 0 244 93 99 94
 223 228 0 227 +15 244 435 0 263 271 0 17 93 0 244 90 96 91 237 246 0 235 +17 99
 0 244 96 263 97 107 265 0 224 +17 227 0 222 223 66 94 220 219 0 237 -17 237 0 2
34 220 235 94 93 246 0 0 -17 107 0 229 116 224 105 99 265 0 262 -15 229 227 0 69
 272 0 17 116 0 229 119 107 114 262 253 0 127 -17 119 0 229 72 116 117 127 142 0
 122 -16 253 509 0 ?262 252 131 273 0 0 1 17 127 0 121 39 122 114 119 142 0 36 +
17 39 0 121 24 127 27 36 274 0 184 +16 142 506 0 ?127 274 128 275 0 0 1 17 36 0
 35 262 33 114 39 274 0 0 -16 274 502 0 ?39 182 142 276 0 0 1 16 182 639 0 ?113
 131 274 277 0 0 1 30 276 598 0 274 275 277 0 +-.0204502 .03643676501842045 .022
225 -.562724765453292 -.826644323966202 0 30 275 599 0 142 143 276 0 +-.0204502
 .00984549760000001 .022225 0 1 0 30 277 597 0 182 276 278 0 +-.0229902 .0327054
976 .022225 -1 546369598732853e-30 0 31 278 596 0 131 277 273 0 +-.0356902 .0200
054976 .022225 0 0 1 1 0 0 .0127 16 131 494 0 ?110 253 182 278 0 0 1 30 273 586
 0 253 278 270 0 +-.0204502 .03643676501842045 .022225 0 0 1 30 270 7 0 211 273
 269 0 +-155530143491714e-32 .05715 .04445 -2721437331438565e-32 1 0 16 211 365
 0 ?104 266 208 270 0 0 1 17 104 0 244 102 52 60 279 211 0 258 +17 102 0 244 263
 104 100 258 266 0 255 +17 52 0 244 104 245 50 280 171 0 279 +17 279 0 281 166 2
60 50 104 211 0 282 -17 258 0 254 163 255 60 102 266 0 260 -17 260 0 281 279 87
 60 163 161 0 0 -15 281 241 0 279 283 0 17 87 0 281 260 166 85 186 252 0 256 +17
 166 0 281 87 279 53 282 164 0 186 +17 186 0 28 49 256 53 87 252 0 0 -17 49 0 28
 233 186 47 55 169 0 210 +17 233 0 28 232 49 57 210 208 0 0 -17 55 0 284 282 285
 53 49 169 0 166 -17 210 0 286 46 214 47 233 208 0 285 +15 286 219 0 210 287 0 1
7 46 0 286 243 210 44 285 167 0 245 +17 214 0 286 210 243 57 241 212 0 233 +17 2
85 0 284 55 280 47 46 167 0 0 -15 284 404 0 280 288 0 17 280 0 284 285 282 44 52
 171 0 0 -17 282 0 284 280 55 50 166 164 0 0 -14 255 288 403 289 ?126 187 284 5
 19 -0 0 126 187 23 81 1 289 1011 290 288 291 0 0 292 293 14 126 568 292 ?18 288
 294 5 295 +0 0 18 288 23 14 187 120 296 ?288 271 297 5 298 -0 0 288 271 23 51 1
9 415 0 288 299 6 0 +.00635 .00635 .04445 0 0 1 .00635 1 0 0 13 23 90 0 0 0 0 0
 0 9 16 14 16 476 300 ?301 0 177 5 302 -0 0 301 0 23 81 1 300 1017 290 16 303 0
 296 304 305 14 301 467 304 ?144 16 306 5 307 -0 0 144 16 23 50 255 302 251 0 16
 307 308 0 +-.0356902 .0327054976 .04445 -1092739197465706e-30 -1 0 1 -109273919
7465706e-30 0 51 307 250 0 301 309 302 0 --.0356902 .0200054976 .04445 0 0 -1 .0
127 -1 0 0 50 308 252 0 261 302 310 0 +-.0229902 .0327054976 .04445 .82664432396
6202 -.56272476545329 0 .56272476545329 .826644323966202 0 14 261 238 311 ?272 2
57 35 5 308 -0 0 272 257 23 50 310 253 0 257 308 299 0 +-.00635 .05715 .04445 0
 -1 0 0 0 -1 14 257 240 312 ?261 283 254 5 310 -0 0 261 283 23 50 299 254 0 283
 310 19 0 +-155530143491714e-32 .05715 .04445 -1 -2721437331438565e-32 0 2721437
331438565e-32 -1 0 14 283 242 313 ?257 137 281 5 299 -0 0 257 137 23 81 1 313 10
25 290 283 314 0 312 315 316 14 137 449 315 ?283 144 136 5 317 -0 0 283 144 23 8
1 1 315 1027 290 137 318 0 313 319 320 14 144 458 319 ?137 301 132 5 309 -0 0 13
7 301 23 50 317 248 0 137 321 309 0 +-.0204502 .00984549760000001 .04445 -186262
3632043815e-31 1 0 -1 -1862623632043815e-31 0 50 321 247 0 272 322 317 0 +-.0204
502 .00984549760000001 .04445 1 16069694080378e-29 0 -16069694080378e-29 1 0 50
 309 249 0 144 317 307 0 +-.0483902 .0098454976 .04445 1 -682961998416066e-30 0
 682961998416066e-30 1 0 14 272 228 323 ?226 261 229 5 321 -0 0 226 261 23 50 32
2 246 0 226 324 321 0 +-.0204502 -.0117445024 .04445 3393068969451265e-31 1 0 -1
 3393068969451265e-31 0 14 226 226 325 ?236 272 222 5 322 -0 0 236 272 23 50 324
 245 0 236 326 322 0 +0 -.0117445024 .04445 -.03880718263937075 .999246717570588
 0 -.999246717570588 -.03880718263937075 0 14 236 224 327 ?240 226 234 5 324 -0
 0 240 226 23 50 326 244 0 240 328 324 0 +.05715 0 .04445 -1 -72849279831047e-29
 0 72849279831047e-29 -1 0 14 240 222 329 ?287 236 239 5 326 -0 0 287 236 23 50
 328 243 0 287 298 326 0 +0 0 .04445 0 -1 0 0 0 -1 14 287 220 330 ?271 240 286 5
 328 -0 0 271 240 23 50 298 182 0 187 331 328 0 +-.0356902 .0200054976 0 0 0 1 1
 0 0 50 331 3 0 271 295 298 0 +-.0356902 .0200054976 .04445 0 0 1 1 0 0 14 271 1
 332 ?187 287 244 5 331 +0 0 187 287 23 50 295 583 0 126 333 331 0 +-.0356902 .0
200054976 .022225 0 0 1 1 0 0 51 333 758 0 334 0 295 0 +-.0356902 .0212754976 0
 0 0 -1 .00508 -1 0 0 14 334 749 335 ?0 18 336 5 333 -0 0 0 18 23 81 1 335 1043
 290 334 337 0 332 338 339 14 18 680 338 ?334 126 183 5 6 -0 0 334 126 23 15 336
 752 0 340 334 341 17 340 0 336 340 340 0 342 20 0 0 +15 341 753 0 343 334 0 17
 343 0 341 343 343 0 344 345 0 0 +17 344 0 297 344 344 0 343 345 0 0 -16 345 735
 0 ?343 20 0 346 0 0 1 16 20 734 0 ?340 124 345 7 0 0 1 31 346 760 0 345 0 135 0
 +-.0356902 .0212754976 3888253587292845e-35 0 0 -1 -1 0 0 .00508 30 135 601 0 1
24 346 143 0 +-.0483902 .0200054976 .022225 -682961998416066e-30 -1 0 30 143 600
 0 128 135 275 0 +-.0483902 .0098454976 .022225 1 1862623632043815e-31 0 15 297
 724 0 344 187 28 17 342 0 294 342 342 0 340 20 0 0 -15 294 716 0 342 126 121 81
 1 338 1045 290 18 347 0 335 0 348 15 183 681 0 184 18 0 17 184 0 183 37 179 27
 24 10 0 0 -17 37 0 183 31 184 11 33 38 0 0 -17 24 0 121 113 39 40 184 10 0 178
 +17 113 0 121 110 24 111 178 182 0 130 +17 130 0 306 157 134 111 110 131 0 180
 -15 306 465 0 130 301 0 17 157 0 306 188 130 79 180 150 0 185 +17 134 0 306 130
 188 88 78 148 0 0 -17 180 0 177 178 81 111 157 150 0 0 -17 188 0 306 134 157 76
 185 189 0 145 +17 78 0 132 140 123 76 134 148 0 188 +17 145 0 28 185 147 76 140
 146 0 0 -17 147 0 28 145 230 73 138 198 0 0 -17 138 0 136 129 75 70 147 198 0 2
30 +17 31 0 183 179 37 34 26 25 0 175 -80 7 CCCCCDI12 legal_owners0 16 1 lCZ1 29
0 349 350 9000 1 1 1 1 1 1 1 1 0 FFFFTFTFFFFFFFFF1 81 3 347 1044 351 18 352 338
 337 0 353 0 0 82 255 1 348 947127454 80 3 351 354 355 9000 0 0 0 0 3 5 0 0 0 FF
FFTFFFFFFFFFFF1 1 1 81 1 352 951 356 18 0 347 357 358 359 81 3 337 1042 351 334
 358 335 360 347 361 0 0 82 6 353 0 -350877770 31149292 0 0 0 81 1 358 952 356 3
34 0 337 352 0 362 81 3 360 1040 351 271 363 332 364 337 365 0 0 82 6 361 0 1906
281744 31149852 0 0 0 81 1 363 947 356 271 0 360 366 367 368 81 1 332 1041 290 2
71 360 0 330 335 369 81 3 364 1038 351 287 366 330 370 360 371 0 0 82 6 365 0 -3
50958747 31149292 0 0 0 81 1 366 946 356 287 0 364 372 363 373 81 1 330 1039 290
 287 364 0 329 332 374 81 3 370 1036 351 240 372 329 375 364 376 0 0 82 6 371 0
 -441677745 31149292 0 0 0 81 1 372 945 356 240 0 370 377 366 378 81 1 329 1037
 290 240 370 0 327 330 379 81 3 375 1034 351 236 377 327 380 370 381 0 0 82 6 37
6 0 -441707715 31149292 0 0 0 81 1 377 944 356 236 0 375 382 372 383 81 1 327 10
35 290 236 375 0 325 329 384 81 3 380 1032 351 226 382 325 385 375 386 0 0 82 6
 381 0 -441707715 31149292 0 0 0 81 1 382 943 356 226 0 380 387 377 388 81 1 325
 1033 290 226 380 0 323 327 389 81 3 385 1030 351 272 387 323 390 380 391 0 0 82
 6 386 0 -441707715 31149292 0 0 0 81 1 387 942 356 272 0 385 392 382 393 81 1 3
23 1031 290 272 385 0 319 325 394 81 3 390 1028 351 144 395 319 318 385 396 0 0
 82 6 391 0 -350958747 31149292 0 0 0 81 1 395 937 356 144 0 390 397 398 399 81
 1 319 1029 290 144 390 0 315 323 400 81 3 318 1026 351 137 398 315 314 390 401
 0 0 82 6 396 0 -350958747 31149292 0 0 0 81 1 398 938 356 137 0 318 395 402 403
 81 3 314 1024 351 283 402 313 404 318 405 0 0 82 6 401 0 -350958747 31149292 0
 0 0 81 1 402 939 356 283 0 314 398 406 407 81 3 404 1022 351 257 406 312 408 31
4 409 0 0 82 6 405 0 -441677745 31149292 0 0 0 81 1 406 940 356 257 0 404 402 39
2 410 81 1 312 1023 290 257 404 0 311 313 411 81 3 408 1020 351 261 392 311 412
 404 413 0 0 82 6 409 0 -441707715 31149292 0 0 0 81 1 392 941 356 261 0 408 406
 387 414 81 1 311 1021 290 261 408 0 304 312 415 81 3 412 1018 351 301 397 304 3
03 408 416 0 0 82 6 413 0 -350877770 31149292 0 0 0 81 1 397 936 356 301 0 412 4
17 395 418 81 1 304 1019 290 301 412 0 300 311 419 81 3 303 1016 351 16 417 300
 420 412 421 0 0 82 6 416 0 -350958747 31149292 0 0 0 81 1 417 935 356 16 0 303
 0 397 422 81 3 420 1014 351 187 367 296 423 303 424 0 0 82 6 421 0 -350877770 3
1149292 0 0 0 81 1 367 948 356 187 0 420 363 425 426 81 1 296 1015 290 187 420 0
 292 300 427 81 3 423 1012 351 126 357 292 291 420 428 0 0 82 6 424 0 1906281744
 31149852 0 0 0 81 1 357 950 356 126 0 423 425 352 429 81 1 292 1013 290 126 423
 0 289 296 430 81 3 291 1010 351 288 425 289 0 423 431 0 0 82 6 428 0 1906281744
 31149852 0 0 0 81 1 425 949 356 288 0 291 367 357 432 82 6 431 0 -441677745 311
49292 0 0 0 80 1 356 0 433 8001 0 0 0 0 3 5 0 0 0 FFFFTFTFFFFFFFFF2 83 255 3 432
 .866666666666667 .909803921568627 1 79 255 15 433 SDL/TYSA_COLOUR82 1 430 85656
751 83 3 429 .866666666666667 .909803921568627 1 82 1 427 67962031 83 3 426 .866
666666666667 .909803921568627 1 83 3 422 .866666666666667 .909803921568627 1 82
 1 419 941163677 83 3 418 .866666666666667 .909803921568627 1 82 1 415 502006942
 83 3 414 .866666666666667 .909803921568627 1 82 1 411 502269075 83 3 410 .86666
6666666667 .909803921568627 1 83 3 407 .866666666666667 .909803921568627 1 83 3
 403 .866666666666667 .909803921568627 1 82 1 400 940311709 83 3 399 .8666666666
66667 .909803921568627 1 82 1 394 500696221 83 3 393 .866666666666667 .909803921
568627 1 82 1 389 500434067 83 3 388 .866666666666667 .909803921568627 1 82 1 38
4 500171923 83 3 383 .866666666666667 .909803921568627 1 82 1 379 499909779 83 3
 378 .866666666666667 .909803921568627 1 82 1 374 499647636 83 3 373 .8666666666
66667 .909803921568627 1 82 1 369 482083997 83 3 368 .866666666666667 .909803921
568627 1 83 3 362 .866666666666667 .909803921568627 1 83 3 359 .866666666666667
 .909803921568627 1 79 18 355 DOWNSTREAM_FACE_ID79 14 350 SWEntUnchanged82 1 339
 -439155537 82 1 320 939459741 82 1 316 502531220 82 1 305 942015646 82 1 293 53
4447252 17 243 0 286 214 46 56 245 216 0 0 -17 245 0 244 52 90 44 243 216 0 280
 +17 72 0 229 69 119 70 129 141 0 138 +17 69 0 229 224 72 67 230 200 0 221 +19 1
7 268 0 1 0 9 5 0 S0 74 4 CI16 index_map_offset0 0 1 dCCZ20 15 11 0 0 347 434 43
5 436 338 437 438 439 13 358 2 0 0 0 0 0 0 0 0 0 81 2 434 338 440 1 0 435 0 0 0
 441 81 2 435 342 442 1 434 436 0 0 0 443 81 2 436 343 444 1 435 437 0 0 445 0 8
1 1 437 767 446 1 436 438 0 0 447 81 2 438 773 448 1 437 439 0 0 0 449 81 2 439
 785 450 1 438 13 0 0 0 0 81 2 13 806 451 1 439 2 0 0 452 0 80 2 451 453 454 800
4 0 0 0 0 3 5 0 0 0 FFTFFFFFFFFFFFFF2 3 83 1 452 1 79 16 454 SDL/TYSA_DENSITY80
 2 450 455 456 9000 0 0 0 0 3 5 0 0 0 FFTFFFFFFFFFFFFF9 1 79 16 456 BODY_RECIPE_
200180 2 448 457 458 9000 0 0 0 0 3 5 0 0 0 FFTFFFFFFFFFFFFF9 1 82 1 449 1 79 24
 458 BODY_IN_LIGHTWEIGHT_PERM80 1 446 459 460 9000 1 1 1 1 1 1 1 1 0 FFTFFFFFFFF
FFFFF1 82 1 447 647 79 10 460 BODY_MATCH80 2 444 461 462 9000 0 0 0 0 3 5 0 0 0
 FFTFTTTFFTFFFFFF10 10 98 255 26 445 51 47 56 32 40 48 46 51 55 53 41 32 68 105
 97 109 101 116 101 114 32 72 111 108 101 49 79 23 462 SWIMPLICITBODYNAME_ID_U80
 2 442 463 464 9000 0 0 0 0 3 5 0 0 0 FFTFFFFFFFFFFFFF9 1 82 1 443 185 79 30 464
 LAST_BODY_MODIFYING_FEATURE_ID80 2 440 465 466 9000 0 0 0 0 3 5 0 0 0 FFTFFFFFF
FFFFTFF9 1 82 1 441 1346 79 19 466 ENT_TIME_STAMP_200180 2 12 467 468 9000 0 0 0
 0 3 5 0 0 0 FFTFFFFFFFFFFFFF9 1 82 1 14 104 79 12 468 ATOM_ID_20011 0 
