**ABCDEFGHIJKLMNOPQRSTUVWXYZabcdefghijklmnopqrstuvwxyz**************************
**PARASOLID !"#$%&'()*+,-./:;<=>?@[\]^_`{|}~0123456789**************************
**PART1;
MC=AMD64;
MC_MODEL=ARMv8 (64-bit) Family 8 Model 0 Revision   0,  ;
MC_ID=unknown;
OS=Windows_NT;
OS_RELEASE=unknown;
FRU=Parasolid Version 35.1, build 251, 11- 4-2023;
APPL=SOLIDWORKS 2024-2024203;
SITE=;
USER=unknown;
FORMAT=text;
GUISE=transmit;
KEY=Side Mount Container side Solid File;
FILE=Side Mount Container side Solid File.x_t;
DATE=Tue Dec 17 22:05:28 2024;
**PART2;
SCH=SCH_3501251_35102;
USFLD_SIZE=0;
**PART3;
**END_OF_HEADER*****************************************************************
T51 : TRANSMIT FILE created by modeller version 350125123 SCH_3501251_35102_1300
6231 0 12 36 CCCI7 lattice222 0 CCCI4 mesh1006 0 I8 polyline1008 0 CCCCCCCDI5 ow
ner1040 0 CCCI16 boundary_lattice222 0 CCCI13 boundary_mesh1006 0 I17 boundary_p
olyline1008 0 CCCA16 index_map_offset0 0 1 dA9 index_map82 0 A17 node_id_index_m
ap82 0 A20 schema_embedding_map82 0 A5 child12 0 A14 lowest_node_id0 0 1 dA16 me
sh_offset_data206 0 Z1 634 2 3 0 0 0 0 0 0 0 1e3 1e-8 0 4 0 1 0 1 1 5 0 6 7 8 0
 0 9 10 11 0 0 0 0 0 0 0 81 255 2 2 602 12 1 13 0 0 0 0 14 70 11 CI9 list_type0
 0 1 uI10 notransmit0 0 1 lCCCDCCDI12 finger_index0 0 1 dI12 finger_block1012 0
 CZ3 0 4 T1 0 0 10 20 1 15 15 13 255 5 246 0 1 0 16 0 0 17 0 51 255 6 518 0 18 1
9 0 0 +.00635 .00635 .03175 0 0 1 .00635 1 0 0 31 255 7 499 0 10 20 0 0 -.00635
 .00635 .03175 0 0 1 1 0 0 .00635 29 255 8 481 0 11 21 0 .00635 0 .03175 19 9 CC
CCCCI5 frame230 0 CA5 owner12 0 Z9 82 0 1 17 0 22 0 V0 16 255 10 493 0 ?23 0 24
 7 0 0 1 18 255 11 479 0 25 0 26 8 ?1 17 255 25 0 27 28 29 11 30 31 0 32 +18 26
 476 0 33 11 34 21 ?1 17 33 0 35 36 37 26 38 24 0 29 +18 34 467 0 23 26 39 40 ?1
 29 21 478 0 26 40 8 .00635 0 0 29 40 469 0 34 41 21 -583238038093927e-34 .00635
 .03175 29 41 466 0 39 42 40 -583238038093927e-34 .00635 0 18 39 464 0 38 34 43
 41 ?1 29 42 411 0 43 44 41 -.01510070714349215 .00588084229886333 .03175 18 43
 409 0 45 39 46 42 ?1 29 44 408 0 46 47 42 -.01510070714349215 .0058808422988633
3 0 18 46 406 0 48 43 49 44 ?1 29 47 399 0 49 50 44 -.0163472732014362 .00485368
6 .03175 18 49 397 0 51 46 52 47 ?1 29 50 396 0 52 53 47 -.0163472732014362 .004
853686 0 18 52 394 0 54 49 55 50 ?1 29 53 181 0 56 57 50 .0508 0 0 18 56 158 0 5
8 59 60 53 ?1 29 57 182 0 60 61 53 .0508 -.009525 0 18 60 159 0 62 56 63 57 ?1 2
9 61 183 0 63 64 57 -.003362807599999995 -.023086314 0 18 63 160 0 65 60 66 61 ?
1 29 64 184 0 66 67 61 -.0116178076 -.023086314 0 18 66 161 0 68 63 69 64 ?1 29
 67 185 0 69 70 64 -.0116178076 -.005941314 0 18 69 162 0 71 66 72 67 ?1 29 70 1
86 0 72 73 67 -.0381608076 -.005941314 0 18 72 163 0 74 69 75 70 ?1 29 73 187 0
 75 76 70 -.0381608076 .004853686 0 18 75 164 0 77 72 78 73 ?1 29 76 189 0 78 79
 73 -.00635 .0508 0 18 78 166 0 80 75 81 76 ?1 29 79 190 0 81 82 76 -46659043047
5141e-33 .0508 0 18 81 167 0 83 78 0 79 ?1 29 82 78 0 55 84 79 .0508 0 .03175 18
 55 76 0 85 52 86 82 ?1 29 84 75 0 86 87 82 .0508 -.009525 .03175 18 86 73 0 88
 55 89 84 ?1 29 87 72 0 89 90 84 -.003362807599999995 -.023086314 .03175 18 89 7
0 0 91 86 92 87 ?1 29 90 69 0 92 93 87 -.0116178076 -.023086314 .03175 18 92 67
 0 94 89 95 90 ?1 29 93 66 0 95 96 90 -.0116178076 -.005941314 .03175 18 95 64 0
 97 92 98 93 ?1 29 96 63 0 98 99 93 -.0381608076 -.005941314 .03175 18 98 61 0 1
00 95 101 96 ?1 29 99 60 0 101 102 96 -.0381608076 .004853686 .03175 18 101 58 0
 103 98 104 99 ?1 29 102 54 0 104 105 99 -.00635 .0508 .03175 18 104 52 0 106 10
1 59 102 ?1 29 105 51 0 59 0 102 -466590430475141e-33 .0508 .03175 18 59 49 0 10
7 104 56 105 ?1 17 107 0 108 106 23 59 109 110 0 111 +15 255 108 4 0 32 112 0 17
 106 0 108 113 107 104 111 114 0 115 +17 23 0 108 107 32 34 116 10 0 109 +17 109
 0 117 118 119 34 107 110 0 120 -16 110 468 0 ?107 114 121 122 0 0 1 17 111 0 12
3 124 115 59 106 114 0 119 -15 123 220 0 80 125 0 17 124 0 123 80 111 81 119 126
 0 0 +17 115 0 123 111 80 104 127 128 0 129 -16 114 9 0 ?106 130 110 131 0 0 1 1
7 119 0 117 109 83 59 124 126 0 0 -15 117 222 0 109 16 0 17 83 0 117 119 118 81
 37 132 0 133 +16 126 201 0 ?124 134 128 135 0 0 1 16 134 400 0 ?136 137 126 138
 0 0 1 16 128 200 0 ?127 126 139 140 0 0 1 30 255 135 245 0 126 140 138 0 +-4665
90430475141e-33 .0508 .03175 0 0 -1 30 140 244 0 128 141 135 0 +-.00635 .0508 .0
3175 0 0 -1 30 138 402 0 134 135 142 0 +-.0163472732014362 .004853686 1387778780
781446e-32 0 0 -1 30 142 414 0 137 138 143 0 --.01510070714349215 .0058808422988
6333 .03175 0 0 -1 16 137 412 0 ?45 144 134 142 0 0 1 31 143 428 0 144 142 145 0
 +-.0163472732014362 .006123686 0 0 0 1 1 0 0 .00127 16 144 418 0 ?48 146 137 14
3 0 0 1 31 145 429 0 146 143 147 0 --.0163472732014362 .006123686 .03175 0 0 1 1
 0 0 .00127 16 146 423 0 ?51 148 144 145 0 0 1 30 147 472 0 148 145 149 0 +-5832
38038093926e-34 .00635 0 0 0 -1 16 148 470 0 ?118 31 146 147 0 0 1 30 149 484 0
 31 147 20 0 -.00635 0 .03175 0 0 -1 16 31 482 0 ?25 24 148 149 0 0 1 31 20 498
 0 24 149 7 0 +.00635 .00635 0 0 0 1 1 0 0 .00635 16 24 488 0 ?33 10 31 20 0 0 1
 17 118 0 117 83 109 39 120 148 0 37 +17 120 0 150 116 38 34 118 148 0 0 -17 37
 0 35 33 133 39 83 132 0 0 -15 35 112 0 37 151 0 17 133 0 35 37 152 81 80 153 0
 124 -16 132 465 0 ?83 153 154 155 0 0 1 16 153 149 0 ?80 156 132 157 0 0 1 16 1
54 356 0 ?158 132 159 160 0 0 1 30 155 179 0 132 161 157 0 +-466590430475141e-33
 .0508 0 -918485099360514e-32 1 0 30 161 47 0 162 163 155 0 +0 0 .03175 -1 0 0 3
0 157 178 0 153 155 164 0 +-.00635 .0508 0 -1 0 0 30 164 177 0 156 157 165 0 +-.
0153008076 .004853686 0 -.1912155127060445 -.981548077121322 0 16 156 145 0 ?166
 167 153 164 0 0 1 30 165 176 0 167 164 168 0 +-.0381608076 .004853686 0 -1 0 0
 16 167 395 0 ?77 169 156 165 0 0 1 30 168 175 0 169 165 170 0 +-.0381608076 -.0
05941314 0 0 -1 0 16 169 137 0 ?74 171 167 168 0 0 1 30 170 174 0 171 168 172 0
 +-.0116178076 -.005941314 0 1 980328227391482e-31 0 16 171 133 0 ?71 173 169 17
0 0 0 1 30 172 173 0 173 170 174 0 +-.0116178076 -.005941314 0 1011795553208986e
-31 -1 0 16 173 129 0 ?68 175 171 172 0 0 1 30 174 172 0 175 172 176 0 +-.011617
8076 -.023086314 0 1 -420284306717579e-30 0 16 175 125 0 ?65 177 173 174 0 0 1 3
0 176 171 0 177 174 178 0 +-.003362807599999995 -.023086314 0 .970055576141137 .
242883056629082 0 16 177 121 0 ?62 179 175 176 0 0 1 30 178 170 0 179 176 180 0
 +.0508 0 0 -72849279831047e-29 1 0 16 179 117 0 ?58 121 177 178 0 0 1 30 180 16
9 0 121 178 181 0 +0 0 0 -1 0 0 16 121 113 0 ?29 110 179 180 0 0 1 30 181 236 0
 182 180 183 0 +.0508 0 .03175 0 0 -1 16 182 192 0 ?184 185 162 181 0 0 1 30 183
 237 0 185 181 186 0 +.0508 -.009525 .03175 0 0 -1 16 185 193 0 ?187 188 182 183
 0 0 1 30 186 238 0 188 183 189 0 +-.003362807599999995 -.023086314 .03175 0 0 -
1 16 188 194 0 ?190 191 185 186 0 0 1 30 189 239 0 191 186 192 0 +-.0116178076 -
.023086314 .03175 0 0 -1 16 191 195 0 ?193 194 188 189 0 0 1 30 192 240 0 194 18
9 195 0 +-.0116178076 -.005941314 .03175 0 0 -1 16 194 196 0 ?196 197 191 192 0
 0 1 30 195 241 0 197 192 141 0 +-.0381608076 -.005941314 .03175 0 0 -1 16 197 1
97 0 ?198 139 194 195 0 0 1 30 141 242 0 139 195 140 0 +-.0381608076 .004853686
 .03175 0 0 -1 16 139 198 0 ?199 128 197 141 0 0 1 17 199 0 200 74 201 75 202 13
9 0 203 +15 200 214 0 74 204 0 17 74 0 200 205 199 72 203 169 0 198 +17 201 0 20
0 199 205 101 100 206 0 0 -17 202 0 207 208 77 101 199 139 0 201 -17 203 0 35 20
9 210 75 74 169 0 0 -17 209 0 35 48 203 52 77 167 0 0 -17 210 0 35 203 211 72 71
 171 0 0 -17 211 0 35 210 212 69 68 173 0 0 -17 71 0 213 214 198 69 210 171 0 19
6 +15 213 212 0 71 215 0 17 214 0 213 216 71 95 196 194 0 217 -17 198 0 213 71 2
16 72 205 197 0 210 +17 196 0 218 68 217 69 214 194 0 211 +15 218 210 0 68 219 0
 17 68 0 218 220 196 66 211 173 0 193 +17 217 0 218 196 220 95 94 221 0 0 -17 22
0 0 218 217 68 92 193 191 0 222 -17 94 0 108 91 97 92 217 221 0 220 +16 221 29 0
 ?94 223 224 225 0 0 1 16 223 33 0 ?91 226 221 227 0 0 1 16 224 25 0 ?97 221 206
 228 0 0 1 30 225 31 0 221 228 227 0 +-.0116178076 -.005941314 .03175 1011795553
208986e-31 -1 0 30 228 27 0 224 229 225 0 +-.0116178076 -.005941314 .03175 1 980
328227391482e-31 0 30 227 35 0 223 225 230 0 +-.0116178076 -.023086314 .03175 1
 -420284306717579e-30 0 30 230 39 0 226 227 163 0 +-.003362807599999995 -.023086
314 .03175 .970055576141137 .242883056629082 0 16 226 37 0 ?88 231 223 230 0 0 1
 30 163 43 0 231 230 161 0 +.0508 0 .03175 -72849279831047e-29 1 0 16 231 41 0 ?
85 162 226 163 0 0 1 17 85 0 108 32 88 55 232 231 0 233 +16 162 45 0 ?32 182 231
 161 0 0 1 17 32 0 108 23 85 11 28 162 0 116 +17 28 0 27 184 25 55 32 162 0 0 -1
7 116 0 150 30 120 11 23 10 0 0 -15 150 507 0 116 18 0 17 30 0 150 38 116 26 25
 31 0 0 -17 38 0 150 120 30 39 33 24 0 118 -14 255 18 506 234 ?0 235 150 5 6 -0
 0 0 235 22 81 1 234 604 236 18 237 0 0 238 239 14 235 436 238 ?18 240 241 5 19
 -0 0 18 240 22 13 22 83 0 0 0 0 0 0 9 16 14 16 223 242 ?125 0 117 5 243 -0 0 12
5 0 22 81 1 242 608 236 16 244 0 238 245 246 14 125 221 245 ?247 16 123 5 248 -0
 0 247 16 22 50 255 243 234 0 16 248 19 0 +-466590430475141e-33 .0508 .03175 -1
 -918485099360514e-32 0 918485099360514e-32 -1 0 50 248 233 0 125 249 243 0 +-.0
0635 .0508 .03175 0 -1 0 0 0 -1 51 19 448 0 235 243 6 0 +-.0163472732014362 .006
123686 .03175 0 0 1 .00127 1 0 0 50 249 232 0 247 250 248 0 +-.0153008076 .00485
3686 .03175 .981548077121322 -.1912155127060445 0 .1912155127060445 .98154807712
1322 0 14 247 219 251 ?252 125 253 5 249 -0 0 252 125 22 50 250 231 0 252 254 24
9 0 +-.0381608076 .004853686 .03175 0 -1 0 0 0 -1 14 252 217 255 ?204 247 256 5
 250 -0 0 204 247 22 50 254 230 0 204 257 250 0 +-.0381608076 -.005941314 .03175
 1 0 0 0 0 -1 14 204 215 258 ?215 252 200 5 254 -0 0 215 252 22 50 257 229 0 215
 259 254 0 +-.0116178076 -.005941314 .03175 -980328227391482e-31 1 0 -1 -9803282
27391482e-31 0 14 215 213 260 ?219 204 261 5 257 -0 0 219 204 22 50 259 228 0 21
9 262 257 0 +-.0116178076 -.005941314 .03175 1 1011795553208986e-31 0 -101179555
3208986e-31 1 0 14 219 211 263 ?264 215 218 5 259 -0 0 264 215 22 50 262 227 0 2
64 265 259 0 +-.0116178076 -.023086314 .03175 420284306717579e-30 1 0 -1 4202843
06717579e-30 0 14 264 209 266 ?267 219 268 5 262 -0 0 267 219 22 50 265 226 0 26
7 269 262 0 +-.003362807599999995 -.023086314 .03175 -.242883056629082 .97005557
6141137 0 -.970055576141137 -.242883056629082 0 14 267 207 270 ?271 264 272 5 26
5 -0 0 271 264 22 50 269 225 0 271 273 265 0 +.0508 0 .03175 -1 -72849279831047e
-29 0 72849279831047e-29 -1 0 14 271 205 274 ?275 267 276 5 269 -0 0 275 267 22
 50 273 224 0 275 277 269 0 +0 0 .03175 0 -1 0 0 0 -1 14 275 203 278 ?112 271 27
 5 273 -0 0 112 271 22 50 277 168 0 151 279 273 0 +0 0 0 0 0 1 1 0 0 14 151 111
 280 ?240 112 35 5 277 -0 0 240 112 22 50 279 3 0 112 281 277 0 +0 0 .03175 0 0
 1 1 0 0 14 112 1 282 ?151 275 108 5 279 +0 0 151 275 22 51 281 381 0 240 0 279
 0 +-.0268578076 .004853686 .015875 0 1 0 .0053975 0 0 1 14 240 359 283 ?235 151
 284 5 281 -0 0 235 151 22 81 1 283 634 236 240 285 0 282 0 286 15 284 362 0 287
 240 288 17 287 0 284 287 287 0 289 159 0 0 +15 288 363 0 290 240 0 17 290 0 288
 290 290 0 158 154 0 0 -17 158 0 261 158 158 0 290 154 0 0 +15 261 348 0 158 215
 213 17 289 0 256 289 289 0 287 159 0 0 -16 159 357 0 ?287 154 0 291 0 0 1 31 29
1 384 0 159 0 160 0 +-.0268578076 .004853686 .015875 0 1 0 0 0 1 .0053975 31 160
 382 0 154 291 122 0 +-.0268578076 -.005941314 .015875 -980328227391482e-31 1 0
 -1 -980328227391482e-31 0 .0053975 30 122 7 0 110 160 131 0 +-466590430475141e-
33 .0508 .03175 -918485099360514e-32 1 0 30 131 11 0 114 122 292 0 +-.00635 .050
8 .03175 -1 0 0 30 292 15 0 130 131 293 0 +-.0153008076 .004853686 .03175 -.1912
155127060445 -.981548077121322 0 16 130 13 0 ?113 294 114 292 0 0 1 30 293 19 0
 294 292 229 0 +-.0381608076 .004853686 .03175 -1 0 0 16 294 398 0 ?103 206 130
 293 0 0 1 30 229 23 0 206 293 228 0 +-.0381608076 -.005941314 .03175 0 -1 0 16
 206 21 0 ?100 224 294 229 0 0 1 17 100 0 108 97 103 98 201 206 0 205 +17 97 0 1
08 94 100 95 216 224 0 214 +17 103 0 108 100 51 101 208 294 0 202 +17 205 0 200
 201 74 98 198 197 0 216 -17 216 0 213 198 214 98 97 224 0 0 -17 51 0 108 103 11
3 49 295 146 0 208 +17 208 0 207 136 202 49 103 294 0 296 -15 207 216 0 208 252
 0 17 136 0 207 77 208 52 296 134 0 209 +17 296 0 241 295 54 49 136 134 0 0 -15
 241 437 0 295 235 0 17 295 0 241 297 296 43 51 146 0 0 -17 54 0 241 296 297 52
 48 144 0 136 -17 297 0 241 54 295 46 45 137 0 0 -17 48 0 35 152 209 46 54 144 0
 166 +17 152 0 35 133 48 78 166 156 0 0 -17 166 0 253 45 127 46 152 156 0 297 +1
5 253 218 0 166 247 0 17 45 0 253 129 166 43 297 137 0 113 +17 127 0 253 166 129
 78 115 128 0 152 +17 129 0 253 127 45 104 113 130 0 0 -17 113 0 108 51 106 43 1
29 130 0 295 +17 77 0 207 202 136 75 209 167 0 199 +15 256 339 0 289 252 207 80
 7 CCCCCDI12 legal_owners0 16 1 lCZ1 236 298 299 9000 1 1 1 1 1 1 1 1 0 FFFFTFTF
FFFFFFFF1 81 3 285 633 300 240 301 283 302 0 303 0 0 81 1 282 632 236 112 302 0
 280 283 304 82 255 1 286 171967589 81 3 302 631 300 112 305 282 306 285 307 0 0
 81 1 280 630 236 151 306 0 278 282 308 82 1 304 439420031 81 3 306 629 300 151
 309 280 310 302 311 0 0 81 1 278 628 236 275 310 0 274 280 312 82 1 308 4391578
87 81 3 310 627 300 275 313 278 314 306 315 0 0 81 1 274 626 236 271 314 0 270 2
78 316 82 1 312 439616639 81 3 314 625 300 271 317 274 318 310 319 0 0 81 1 270
 624 236 267 318 0 266 274 320 82 1 316 -614136758 81 3 318 623 300 267 321 270
 322 314 323 0 0 81 1 266 622 236 264 322 0 263 270 324 82 1 320 -613874614 81 3
 322 621 300 264 325 266 326 318 327 0 0 81 1 263 620 236 219 326 0 260 266 328
 82 1 324 -613612470 81 3 326 619 300 219 329 263 330 322 331 0 0 81 1 260 618 2
36 215 330 0 258 263 332 82 1 328 -613350326 81 3 330 617 300 215 333 260 334 32
6 335 0 0 81 1 258 616 236 204 334 0 255 260 336 82 1 332 440271973 81 3 334 615
 300 204 337 258 338 330 339 0 0 81 1 255 614 236 252 338 0 251 258 340 82 1 336
 -612826038 81 3 338 613 300 252 341 255 342 334 343 0 0 81 1 251 612 236 247 34
2 0 245 255 344 82 1 340 440534142 81 3 342 611 300 247 345 251 346 338 347 0 0
 81 1 245 610 236 125 346 0 242 251 348 82 1 344 440665214 81 3 346 609 300 125
 349 245 244 342 350 0 0 82 1 348 -612039606 80 3 300 351 352 9000 0 0 0 0 3 5 0
 0 0 FFFFTFFFFFFFFFFF1 1 1 81 1 349 537 353 125 0 346 354 345 355 81 3 244 607 3
00 16 354 242 356 346 357 0 0 82 6 350 0 -354766118 31149275 0 0 0 81 1 354 536
 353 16 0 244 0 349 358 81 3 356 605 300 235 359 238 237 244 360 0 0 82 6 357 0
 1203426831 31149851 0 0 0 81 1 359 550 353 235 0 356 301 361 362 81 1 238 606 2
36 235 356 0 234 242 363 81 3 237 603 300 18 361 234 0 356 364 0 0 82 6 360 0 12
03115338 31149851 0 0 0 81 1 361 551 353 18 0 237 359 0 365 82 6 364 0 120342683
1 31149851 0 0 0 80 1 353 0 366 8001 0 0 0 0 3 5 0 0 0 FFFFTFTFFFFFFFFF2 83 255
 3 365 .866666666666667 .909803921568627 1 79 255 15 366 SDL/TYSA_COLOUR82 1 363
 -1808137090 81 1 301 549 353 240 0 285 309 359 367 83 3 362 .866666666666667 .9
09803921568627 1 81 1 309 548 353 151 0 306 305 301 368 83 3 367 .86666666666666
7 .909803921568627 1 81 1 305 547 353 112 0 302 313 309 369 83 3 368 .8666666666
66667 .909803921568627 1 81 1 313 546 353 275 0 310 317 305 370 83 3 369 .866666
666666667 .909803921568627 1 81 1 317 545 353 271 0 314 321 313 371 83 3 370 .86
6666666666667 .909803921568627 1 81 1 321 544 353 267 0 318 325 317 372 83 3 371
 .866666666666667 .909803921568627 1 81 1 325 543 353 264 0 322 329 321 373 83 3
 372 .866666666666667 .909803921568627 1 81 1 329 542 353 219 0 326 333 325 374
 83 3 373 .866666666666667 .909803921568627 1 81 1 333 541 353 215 0 330 337 329
 375 83 3 374 .866666666666667 .909803921568627 1 81 1 337 540 353 204 0 334 341
 333 376 83 3 375 .866666666666667 .909803921568627 1 81 1 341 539 353 252 0 338
 345 337 377 83 3 376 .866666666666667 .909803921568627 1 81 1 345 538 353 247 0
 342 349 341 378 83 3 377 .866666666666667 .909803921568627 1 83 3 378 .86666666
6666667 .909803921568627 1 83 3 358 .866666666666667 .909803921568627 1 83 3 355
 .866666666666667 .909803921568627 1 79 18 352 DOWNSTREAM_FACE_ID82 6 347 0 1203
115338 31149851 0 0 0 82 6 343 0 1203115338 31149851 0 0 0 82 6 339 0 -354766118
 31149275 0 0 0 82 6 335 0 1921084094 31149850 0 0 0 82 6 331 0 -354766118 31149
275 0 0 0 82 6 327 0 -354766118 31149275 0 0 0 82 6 323 0 -354766118 31149275 0
 0 0 82 6 319 0 -354766118 31149275 0 0 0 82 6 315 0 1203426831 31149851 0 0 0 8
2 6 311 0 1203426831 31149851 0 0 0 82 6 307 0 1203426831 31149851 0 0 0 82 6 30
3 0 1921084094 31149850 0 0 0 79 14 299 SWEntUnchanged15 27 202 0 29 275 0 17 29
 0 27 25 184 26 36 121 0 30 +17 184 0 27 29 28 56 233 182 0 36 +17 36 0 35 379 3
3 56 29 121 0 0 -17 379 0 35 380 36 60 58 179 0 0 -17 380 0 35 212 379 63 62 177
 0 0 -17 58 0 276 233 187 56 379 179 0 184 +15 276 204 0 58 271 0 17 233 0 276 2
32 58 55 184 182 0 28 -17 187 0 276 58 232 60 381 185 0 379 +17 232 0 276 187 23
3 86 85 231 0 0 -17 381 0 272 382 62 86 187 185 0 232 -15 272 206 0 62 267 0 17
 382 0 272 190 381 89 88 226 0 0 -17 62 0 272 381 190 60 380 177 0 187 +17 190 0
 272 62 382 63 383 188 0 380 +17 383 0 268 222 65 89 190 188 0 382 -15 268 208 0
 65 264 0 17 222 0 268 193 383 92 91 223 0 0 -17 65 0 268 383 193 63 212 175 0 1
90 +17 193 0 268 65 222 66 220 191 0 212 +17 212 0 35 211 380 66 65 175 0 0 -17
 91 0 108 88 94 89 222 223 0 383 +17 88 0 108 85 91 86 382 226 0 381 +82 1 246 4
28475519 82 1 239 -1798896513 17 80 0 123 115 124 78 133 153 0 127 +19 17 247 0
 1 0 9 5 0 S0 74 4 CI16 index_map_offset0 0 1 dCCZ20 15 10 0 0 285 384 385 386 2
83 387 388 361 13 2 0 0 0 0 0 0 0 0 0 0 81 2 384 312 389 1 0 385 0 0 0 390 81 2
 385 316 391 1 384 386 0 0 0 392 81 2 386 317 393 1 385 387 0 0 394 0 81 1 387 5
32 395 1 386 388 0 0 396 81 2 388 534 397 1 387 13 0 0 0 0 81 2 13 601 398 1 388
 2 0 0 399 0 80 2 398 400 401 8004 0 0 0 0 3 5 0 0 0 FFTFFFFFFFFFFFFF2 3 83 1 39
9 2810 79 16 401 SDL/TYSA_DENSITY80 2 397 402 403 9000 0 0 0 0 3 5 0 0 0 FFTFFFF
FFFFFFFFF9 1 79 16 403 BODY_RECIPE_200180 1 395 404 405 9000 1 1 1 1 1 1 1 1 0 F
FTFFFFFFFFFFFFF1 82 1 396 6165 79 10 405 BODY_MATCH80 2 393 406 407 9000 0 0 0 0
 3 5 0 0 0 FFTFTTTFFTFFFFFF10 10 98 255 7 394 70 105 108 108 101 116 50 79 23 40
7 SWIMPLICITBODYNAME_ID_U80 2 391 408 409 9000 0 0 0 0 3 5 0 0 0 FFTFFFFFFFFFFFF
F9 1 82 1 392 77 79 30 409 LAST_BODY_MODIFYING_FEATURE_ID80 2 389 410 411 9000 0
 0 0 0 3 5 0 0 0 FFTFFFFFFFFFFTFF9 1 82 1 390 1399 79 19 411 ENT_TIME_STAMP_2001
80 2 12 412 413 9000 0 0 0 0 3 5 0 0 0 FFTFFFFFFFFFFFFF9 1 82 1 14 102 79 12 413
 ATOM_ID_20011 0 
