**ABCDEFGHIJKLMNOPQRSTUVWXYZabcdefghijklmnopqrstuvwxyz**************************
**PARASOLID !"#$%&'()*+,-./:;<=>?@[\]^_`{|}~0123456789**************************
**PART1;
MC=AMD64;
MC_MODEL=ARMv8 (64-bit) Family 8 Model 0 Revision   0,  ;
MC_ID=unknown;
OS=Windows_NT;
OS_RELEASE=unknown;
FRU=Parasolid Version 35.1, build 251, 11- 4-2023;
APPL=SOLIDWORKS 2024-2024203;
SITE=;
USER=unknown;
FORMAT=text;
GUISE=transmit;
KEY=Side Mount Chassis side Solid File;
FILE=Side Mount Chassis side Solid File.x_t;
DATE=Tue Dec 17 22:06:39 2024;
**PART2;
SCH=SCH_3501251_35102;
USFLD_SIZE=0;
**PART3;
**END_OF_HEADER*****************************************************************
T51 : TRANSMIT FILE created by modeller version 350125123 SCH_3501251_35102_1300
6231 0 12 36 CCCI7 lattice222 0 CCCI4 mesh1006 0 I8 polyline1008 0 CCCCCCCDI5 ow
ner1040 0 CCCI16 boundary_lattice222 0 CCCI13 boundary_mesh1006 0 I17 boundary_p
olyline1008 0 CCCA16 index_map_offset0 0 1 dA9 index_map82 0 A17 node_id_index_m
ap82 0 A20 schema_embedding_map82 0 A5 child12 0 A14 lowest_node_id0 0 1 dA16 me
sh_offset_data206 0 Z1 1264 2 3 0 0 4 0 0 0 0 1e3 1e-8 0 5 0 1 0 1 1 6 0 7 8 9 0
 0 10 11 12 0 0 0 0 0 0 0 81 255 2 2 1240 13 1 14 0 0 0 0 15 70 11 CI9 list_type
0 0 1 uI10 notransmit0 0 1 lCCCDCCDI12 finger_index0 0 1 dI12 finger_block1012 0
 CZ3 0 4 T1 0 0 11 20 1 16 16 133 255 4 724 0 1 0 0 0 +17 .03302 -69388939039072
3e-32 .0212725 .03302 -693889390390723e-32 .0212725 0 6.28318530717959 13 255 6
 183 0 1 0 18 0 0 19 0 50 255 7 364 20 21 22 0 0 -.045466 .017145 .03175 -.70710
678118655 -.707106781186546 0 0 0 -1 30 255 8 342 0 11 23 0 0 -.0243205 .0382905
 .03175 .707106781186546 -.70710678118655 0 29 255 9 333 0 12 24 0 .046736 .0158
75 .03175 19 9 CCCCCCI5 frame230 0 CA5 owner12 0 Z10 61 0 1 19 0 25 0 V0 16 255
 11 340 0 ?26 0 27 8 0 0 1 18 255 12 331 0 28 0 29 9 ?1 17 255 28 0 30 31 32 12
 33 27 0 34 +18 29 322 0 35 12 36 24 ?1 17 35 0 37 38 39 29 40 41 0 32 +18 36 31
3 0 26 29 42 43 ?1 29 24 324 0 29 43 9 .046736 .015875 0 29 43 315 0 36 44 24 .0
45466 .017145 .03175 29 44 312 0 42 45 43 .045466 .017145 0 18 42 310 0 40 36 46
 44 ?1 29 45 135 0 47 48 44 .020193 .02794 0 18 47 118 0 49 50 51 45 ?1 29 48 13
6 0 51 52 45 .020193 .017145 0 18 51 119 0 53 47 54 48 ?1 29 52 138 0 54 55 48 .
046736 0 0 18 54 121 0 56 51 57 52 ?1 29 55 139 0 57 58 52 0 0 0 18 57 122 0 59
 54 60 55 ?1 29 58 140 0 60 61 55 -233295215237571e-32 .00127 0 18 60 123 0 62 5
7 63 58 ?1 29 61 141 0 63 64 58 0 .02667 0 18 63 124 0 65 60 66 61 ?1 29 64 142
 0 66 67 61 0 .02794 0 18 66 125 0 68 63 0 64 ?1 29 67 60 0 46 69 64 .020193 .02
794 .03175 18 46 58 0 70 42 71 67 ?1 29 69 57 0 71 72 67 .020193 .017145 .03175
 18 71 55 0 73 46 74 69 ?1 29 72 51 0 74 75 69 .046736 0 .03175 18 74 49 0 76 71
 77 72 ?1 29 75 48 0 77 78 72 0 0 .03175 18 77 46 0 79 74 80 75 ?1 29 78 45 0 80
 81 75 -233295215237571e-32 .00127 .03175 18 80 43 0 82 77 83 78 ?1 29 81 42 0 8
3 84 78 0 .02667 .03175 18 83 40 0 85 80 50 81 ?1 29 84 39 0 50 0 81 0 .02794 .0
3175 18 50 37 0 86 83 47 84 ?1 17 86 0 87 88 89 50 85 90 0 91 -15 255 87 163 0 6
5 92 0 17 88 0 87 65 86 66 93 94 0 95 +17 89 0 87 86 65 83 96 97 0 98 -17 85 0 9
9 82 91 83 86 90 0 89 +16 90 9 0 ?85 100 101 102 0 0 1 17 91 0 99 85 70 50 103 1
01 0 93 +15 99 4 0 34 104 0 17 70 0 99 91 73 46 105 106 0 107 +17 103 0 108 109
 93 46 91 101 0 0 -16 101 5 0 ?91 90 110 111 0 0 1 17 93 0 108 103 95 50 88 94 0
 0 -15 108 165 0 95 18 0 17 95 0 108 93 109 66 112 113 0 0 +16 94 150 0 ?88 114
 97 115 0 0 1 16 114 316 0 ?116 41 94 117 0 0 1 16 97 149 0 ?96 94 118 119 0 0 1
 30 115 182 0 94 119 117 0 +0 .02794 .03175 0 0 -1 30 119 181 0 97 120 115 0 +0
 .02667 .03175 0 0 -1 30 117 318 0 114 115 121 0 +.045466 .017145 .03175 0 0 -1
 30 121 327 0 41 117 23 0 -.045466 .017145 0 -.707106781186546 .70710678118655 0
 16 41 325 0 ?35 27 114 121 0 0 1 30 23 336 0 27 121 8 0 +.046736 .015875 .03175
 0 0 1 16 27 334 0 ?28 11 41 23 0 0 1 30 120 180 0 118 122 119 0 +-2332952152375
71e-32 .00127 .03175 0 0 -1 16 118 148 0 ?123 97 124 120 0 0 1 30 122 179 0 124
 125 120 0 +0 0 .03175 0 0 -1 16 124 147 0 ?126 118 127 122 0 0 1 30 125 178 0 1
27 128 122 0 +.046736 0 .03175 0 0 -1 16 127 146 0 ?129 124 130 125 0 0 1 30 128
 176 0 130 131 125 0 +.020193 .017145 .03175 0 0 -1 16 130 144 0 ?132 127 133 12
8 0 0 1 30 131 175 0 133 134 128 0 +.020193 .02794 .03175 0 0 -1 16 133 143 0 ?1
09 130 106 131 0 0 1 30 134 127 0 110 135 131 0 +.020193 .02794 0 0 1 0 16 110 8
6 0 ?49 101 136 134 0 0 1 30 135 128 0 136 137 134 0 +.020193 .017145 0 -1 0 0 1
6 136 311 0 ?53 110 138 135 0 0 1 30 137 129 0 138 139 135 0 +.046736 0 0 0 1 0
 16 138 94 0 ?32 136 140 137 0 0 1 30 139 130 0 140 141 137 0 +0 0 0 1 0 0 16 14
0 98 0 ?56 138 142 139 0 0 1 30 141 131 0 142 143 139 0 +558415768542969e-33 .00
127 0 -439697455545645e-30 -1 0 16 142 102 0 ?59 140 144 141 0 0 1 31 255 143 13
2 0 144 145 141 0 +0 .01397 0 0 0 -1 1 0 0 .0127 16 144 106 0 ?62 142 146 143 0
 0 1 30 145 133 0 146 147 143 0 +0 .02667 0 0 -1 0 16 146 110 0 ?65 144 113 145
 0 0 1 30 147 134 0 113 148 145 0 +0 .02794 0 -1 0 0 16 113 114 0 ?95 146 149 14
7 0 0 1 30 148 35 0 106 150 147 0 +.020193 .02794 .03175 0 1 0 16 106 33 0 ?70 1
33 151 148 0 0 1 30 150 31 0 151 152 148 0 +.020193 .017145 .03175 -1 0 0 16 151
 314 0 ?73 106 153 150 0 0 1 30 152 27 0 153 154 150 0 +.046736 0 .03175 0 1 0 1
6 153 25 0 ?34 151 155 152 0 0 1 30 154 23 0 155 156 152 0 +0 0 .03175 1 0 0 16
 155 21 0 ?76 153 157 154 0 0 1 30 156 19 0 157 158 154 0 +558415768542969e-33 .
00127 .03175 -439697455545645e-30 -1 0 16 157 17 0 ?79 155 100 156 0 0 1 31 158
 15 0 100 102 156 0 +0 .01397 .03175 0 0 -1 1 0 0 .0127 16 100 13 0 ?82 157 90 1
58 0 0 1 30 102 11 0 90 111 158 0 +0 .02667 .03175 0 -1 0 30 111 7 0 101 17 102
 0 +0 .02794 .03175 -1 0 0 31 17 300 0 149 159 111 160 +.03302 -693889390390723e
-32 .015875 0 1 0 0 0 1 .0053975 16 149 281 0 ?161 113 162 17 0 0 1 31 159 301 0
 162 0 17 0 +.03302 .017145 .015875 0 1 0 0 0 1 .0053975 141 255 160 4 160 160 1
7 16 162 280 0 ?163 149 0 159 0 0 1 17 163 0 164 163 163 0 165 162 0 0 +15 164 2
94 0 163 166 0 17 165 0 167 165 165 0 163 162 0 0 -15 167 262 0 165 168 169 14 2
55 168 154 170 ?171 172 167 6 173 -0 0 171 172 25 15 169 153 0 174 168 0 17 174
 0 169 116 175 36 73 151 0 176 -17 116 0 169 53 174 42 176 114 0 39 +17 175 0 16
9 174 53 71 132 130 0 105 -17 73 0 99 70 26 71 174 151 0 175 +17 176 0 177 178 4
0 36 116 114 0 0 -15 177 353 0 178 21 0 17 178 0 177 33 176 12 26 11 0 0 -17 40
 0 177 176 33 42 35 41 0 116 -17 33 0 177 40 178 29 28 27 0 0 -17 26 0 99 73 34
 36 178 11 0 174 +17 34 0 99 26 76 12 31 153 0 178 +17 76 0 99 34 79 74 179 155
 0 180 +17 31 0 30 129 28 74 34 153 0 0 -15 30 155 0 32 172 0 17 129 0 30 32 31
 54 180 127 0 38 +17 32 0 30 28 129 29 38 138 0 33 +17 180 0 181 179 56 74 129 1
27 0 31 -17 38 0 37 182 35 54 32 138 0 0 -15 37 85 0 39 183 0 17 182 0 37 184 38
 57 56 140 0 0 -17 184 0 37 185 182 60 59 142 0 0 -17 56 0 181 180 126 54 182 14
0 0 129 +15 181 157 0 56 186 0 17 126 0 181 56 179 57 187 124 0 182 +17 179 0 18
1 126 180 77 76 155 0 0 -17 187 0 188 189 59 77 126 124 0 179 -15 188 159 0 59 1
90 0 17 189 0 188 123 187 80 79 157 0 0 -17 59 0 188 187 123 57 184 142 0 126 +1
7 123 0 188 59 189 60 191 118 0 184 +17 191 0 192 98 62 80 123 118 0 189 -15 192
 161 0 62 193 0 17 98 0 192 96 191 83 82 100 0 0 -17 62 0 192 191 96 60 185 144
 0 123 +17 96 0 192 62 98 63 89 97 0 185 +17 185 0 37 68 184 63 62 144 0 0 -17 6
8 0 37 112 185 66 65 146 0 88 -17 112 0 37 194 68 47 95 113 0 0 -17 65 0 87 89 8
8 63 68 146 0 96 +17 194 0 37 39 112 51 49 110 0 0 -17 39 0 37 35 194 42 53 136
 0 0 -17 49 0 195 107 132 47 194 110 0 109 +15 195 151 0 49 171 0 17 107 0 195 1
05 49 46 109 133 0 103 -17 132 0 195 49 105 51 175 130 0 194 +17 109 0 108 95 10
3 47 107 133 0 112 +17 105 0 195 132 107 71 70 106 0 0 -14 171 152 196 ?104 168
 195 6 197 -0 0 104 168 25 81 1 196 1244 198 171 199 0 170 200 201 14 104 1 200
 ?183 171 99 6 202 +0 0 183 171 25 50 197 167 0 171 203 173 0 +.020193 .02794 .0
3175 -1 0 0 0 0 1 13 25 62 0 0 0 0 0 0 10 18 14 18 166 204 ?92 0 108 6 22 -0 0 9
2 0 25 81 1 204 1248 198 18 205 0 200 206 207 14 92 164 206 ?193 18 87 6 208 -0
 0 193 18 25 50 22 174 0 18 208 7 0 +0 .02794 .03175 0 -1 0 0 0 -1 50 208 173 0
 92 209 22 0 +0 .02667 .03175 1 0 0 0 0 -1 51 255 209 172 0 193 210 208 0 +0 .01
397 .03175 0 0 -1 .0127 -1 0 0 14 193 162 211 ?190 92 192 6 209 -0 0 190 92 25 5
0 210 171 0 190 212 209 0 +558415768542969e-33 .00127 .03175 1 -439697455545645e
-30 0 439697455545645e-30 1 0 14 190 160 213 ?186 193 188 6 210 -0 0 186 193 25
 50 212 170 0 186 214 210 0 +0 0 .03175 0 1 0 0 0 1 14 186 158 215 ?172 190 216
 6 212 -0 0 172 190 25 50 214 169 0 172 173 212 0 +.046736 0 .03175 -1 0 0 0 0 1
 14 172 156 217 ?168 186 30 6 214 -0 0 168 186 25 50 173 168 0 168 197 214 0 +.0
20193 .017145 .03175 0 -1 0 0 0 -1 81 1 217 1258 198 172 218 0 215 219 220 80 7
 CCCCCDI12 legal_owners0 16 1 lCZ1 198 221 222 9000 1 1 1 1 1 1 1 1 0 FFFFTFTFFF
FFFFFF1 81 3 218 1257 223 172 224 217 225 226 227 0 0 81 1 215 1256 198 186 225
 0 213 217 228 81 1 219 1260 198 21 226 0 217 229 230 82 255 1 220 -1413676328 1
4 21 352 219 ?0 166 177 6 7 +0 0 0 166 25 81 3 226 1259 223 21 231 219 218 232 2
33 0 0 81 1 229 1262 198 166 232 0 219 234 235 82 1 230 871760600 14 166 290 229
 ?21 183 236 6 237 -0 0 21 183 25 81 3 232 1261 223 166 238 229 226 239 240 0 0
 81 1 234 1264 198 183 239 0 229 0 241 82 1 235 863109847 14 183 84 234 ?166 104
 37 6 203 -0 0 166 104 25 81 3 239 1263 223 183 242 234 232 0 243 0 0 82 1 241 -
1415904552 80 3 223 244 245 9000 0 0 0 0 3 5 0 0 0 FFFFTFFFFFFFFFFF1 1 1 81 1 24
2 1200 246 183 0 239 247 238 248 82 6 243 0 1744744447 31149089 0 0 0 80 1 246 0
 249 8001 0 0 0 0 3 5 0 0 0 FFFFTFTFFFFFFFFF2 81 1 247 1199 246 104 0 250 251 24
2 252 81 1 238 1201 246 166 0 232 242 231 253 83 255 3 248 .776470588235294 .756
862745098039 .737254901960784 81 1 231 1202 246 21 0 226 238 0 254 83 3 253 .776
470588235294 .756862745098039 .737254901960784 83 3 254 .776470588235294 .756862
745098039 .737254901960784 81 3 250 1245 223 104 247 200 199 205 255 0 0 81 1 25
1 1198 246 171 0 199 256 247 257 83 3 252 .776470588235294 .756862745098039 .737
254901960784 81 3 199 1243 223 171 251 196 258 250 259 0 0 81 1 256 1197 246 168
 0 258 224 251 260 83 3 257 .776470588235294 .756862745098039 .737254901960784 8
1 3 258 1241 223 168 256 170 0 199 261 0 0 81 1 224 1196 246 172 0 218 262 256 2
63 83 3 260 .776470588235294 .756862745098039 .737254901960784 81 1 262 1195 246
 186 0 225 264 224 265 83 3 263 .776470588235294 .756862745098039 .7372549019607
84 81 3 225 1255 223 186 262 215 266 218 267 0 0 81 1 264 1194 246 190 0 266 268
 262 269 83 3 265 .776470588235294 .756862745098039 .737254901960784 81 3 266 12
53 223 190 264 213 270 225 271 0 0 81 1 268 1193 246 193 0 270 272 264 273 83 3
 269 .776470588235294 .756862745098039 .737254901960784 81 3 270 1251 223 193 26
8 211 274 266 275 0 0 81 1 272 1192 246 92 0 274 276 268 277 83 3 273 .776470588
235294 .756862745098039 .737254901960784 81 3 274 1249 223 92 272 206 205 270 27
8 0 0 81 1 276 1191 246 18 0 205 0 272 279 83 3 277 .776470588235294 .7568627450
98039 .737254901960784 81 3 205 1247 223 18 276 204 250 274 280 0 0 83 3 279 .77
6470588235294 .756862745098039 .737254901960784 82 6 280 0 -453820268 31149084 0
 0 0 81 1 206 1250 198 92 274 0 204 211 281 82 6 278 0 -453820268 31149084 0 0 0
 81 1 211 1252 198 193 270 0 206 213 282 82 1 281 -1412627785 81 1 213 1254 198
 190 266 0 211 215 283 82 1 282 -1412889929 82 1 283 -1413152073 82 6 275 0 -453
820268 31149084 0 0 0 82 6 271 0 -453820268 31149084 0 0 0 82 6 267 0 1744588706
 31149089 0 0 0 81 1 170 1242 198 168 258 0 0 196 284 82 6 261 0 1744744447 3114
9089 0 0 0 82 1 284 -1413938472 82 6 259 0 -453820268 31149084 0 0 0 81 1 200 12
46 198 104 250 0 196 204 285 82 6 255 0 1744744447 31149089 0 0 0 82 1 285 -1426
259240 79 255 15 249 SDL/TYSA_COLOUR79 18 245 DOWNSTREAM_FACE_ID50 203 126 0 183
 202 197 0 +0 .01397 0 0 0 1 1 0 0 50 202 3 0 104 237 203 0 +0 .01397 .03175 0 0
 1 1 0 0 51 237 299 0 166 0 202 0 +.03302 .017145 .015875 0 1 0 .0053975 0 0 1 8
2 6 240 0 1744588706 31149089 0 0 0 15 236 293 0 286 166 164 17 286 0 236 286 28
6 0 161 149 0 0 -17 161 0 216 161 161 0 286 149 0 0 +15 216 271 0 161 186 181 82
 6 233 0 1744744447 31149089 0 0 0 82 1 228 -1413414185 82 6 227 0 1744744447 31
149089 0 0 0 79 14 222 SWEntUnchanged82 1 207 -1412365641 82 1 201 -1414200649 1
7 53 0 169 175 116 51 39 136 0 132 +17 82 0 99 79 85 80 98 100 0 191 +17 79 0 99
 76 82 77 189 157 0 187 +19 19 184 0 1 0 10 6 0 S0 81 2 20 365 287 7 0 0 0 0 288
 289 80 2 287 290 291 8044 0 0 0 0 3 5 0 0 0 FFFFTFFFTTFFFFFF3 2 84 255 6 288 BA
AAAB83 3 289 0 .001796051224213835 .00127 79 17 291 SDL/TYSA_BLEND_ID74 4 CI16 i
ndex_map_offset0 0 1 dCCZ20 16 11 0 0 239 292 293 294 234 20 295 296 14 231 2 0
 0 0 0 0 0 0 0 0 81 2 292 234 297 1 0 293 0 0 0 298 81 2 293 238 299 1 292 294 0
 0 0 300 81 2 294 239 301 1 293 295 0 0 302 0 81 2 295 385 303 1 294 296 0 0 0 3
04 81 2 296 398 305 1 295 14 0 0 0 0 81 2 14 413 306 1 296 2 0 0 307 0 80 2 306
 308 309 8004 0 0 0 0 3 5 0 0 0 FFTFFFFFFFFFFFFF2 3 83 1 307 1 79 16 309 SDL/TYS
A_DENSITY80 2 305 310 311 9000 0 0 0 0 3 5 0 0 0 FFTFFFFFFFFFFFFF9 1 79 16 311 B
ODY_RECIPE_200180 2 303 312 313 9000 0 0 0 0 3 5 0 0 0 FFTFFFFFFFFFFFFF9 1 82 1
 304 1 79 24 313 BODY_IN_LIGHTWEIGHT_PERM80 2 301 314 315 9000 0 0 0 0 3 5 0 0 0
 FFTFTTTFFTFFFFFF10 10 98 255 8 302 67 104 97 109 102 101 114 49 79 23 315 SWIMP
LICITBODYNAME_ID_U80 2 299 316 317 9000 0 0 0 0 3 5 0 0 0 FFTFFFFFFFFFFFFF9 1 82
 1 300 101 79 30 317 LAST_BODY_MODIFYING_FEATURE_ID80 2 297 318 319 9000 0 0 0 0
 3 5 0 0 0 FFTFFFFFFFFFFTFF9 1 82 1 298 798 79 19 319 ENT_TIME_STAMP_200180 2 13
 320 321 9000 0 0 0 0 3 5 0 0 0 FFTFFFFFFFFFFFFF9 1 82 1 15 103 79 12 321 ATOM_I
D_20011 0 
