<?xml version="1.0" encoding="UTF-8" standalone="no"?>
<!-- Created with Inkscape (http://www.inkscape.org/) -->

<svg
   width="210mm"
   height="297mm"
   viewBox="0 0 210 297"
   version="1.1"
   id="svg1"
   inkscape:export-filename="Car Number.png"
   inkscape:export-xdpi="96"
   inkscape:export-ydpi="96"
   inkscape:version="1.3.1 (91b66b0783, 2023-11-16)"
   sodipodi:docname="Car Number Lines.svg"
   xmlns:inkscape="http://www.inkscape.org/namespaces/inkscape"
   xmlns:sodipodi="http://sodipodi.sourceforge.net/DTD/sodipodi-0.dtd"
   xmlns="http://www.w3.org/2000/svg"
   xmlns:svg="http://www.w3.org/2000/svg">
  <sodipodi:namedview
     id="namedview1"
     pagecolor="#ffffff"
     bordercolor="#000000"
     borderopacity="0.25"
     inkscape:showpageshadow="2"
     inkscape:pageopacity="0.0"
     inkscape:pagecheckerboard="0"
     inkscape:deskcolor="#d1d1d1"
     inkscape:document-units="mm"
     inkscape:export-bgcolor="#00000000"
     inkscape:zoom="0.2102413"
     inkscape:cx="1229.5396"
     inkscape:cy="-8411.7631"
     inkscape:window-width="1920"
     inkscape:window-height="1111"
     inkscape:window-x="-9"
     inkscape:window-y="-9"
     inkscape:window-maximized="1"
     inkscape:current-layer="layer2" />
  <defs
     id="defs1" />
  <g
     inkscape:groupmode="layer"
     id="layer2"
     inkscape:label="Layer 2">
    <path
       id="path2"
       style="fill:#ffd700;fill-opacity:1;stroke:none;stroke-width:37.912;stroke-dasharray:none;stroke-opacity:1;paint-order:stroke fill markers"
       d="m 580.38897,-2353.8989 a 208.82935,208.82935 0 0 0 -208.8291,208.8291 208.82935,208.82935 0 0 0 208.8291,208.8296 208.82935,208.82935 0 0 0 208.82966,-208.8296 208.82935,208.82935 0 0 0 -208.82966,-208.8291 z m -132.2554,133.9024 c 14.3914,0 27.0774,3.6086 36.5373,11.6799 9.3974,7.9637 14.4022,19.815 14.4022,32.6466 0,5.5924 -0.7285,11.0001 -2.2464,16.121 -1.4402,4.9897 -3.605,9.7539 -6.4311,14.1955 v 0 c -2.4732,3.9262 -5.3507,7.7299 -8.6057,11.4195 -3.1414,3.623 -6.86,7.5107 -11.1895,11.7248 v 0 c -5.2994,5.1994 -10.8146,10.2106 -16.4119,15.1505 h 50.1638 l 0.5271,0.1401 c -0.3658,0.5607 -0.5803,1.2305 -0.5803,1.9528 v 32.2254 h -104.339 v -32.0977 l 21.0918,-18.078 0.018,-0.015 c 5.7529,-4.8846 11.0785,-9.7253 15.9747,-14.5139 l 0.015,-0.015 0.018,-0.018 c 10.4536,-10.1268 17.4575,-18.155 20.592,-22.965 2.9994,-4.6566 4.33,-9.1777 4.33,-14.3924 0,-4.2619 -0.8414,-5.7751 -2.8985,-7.5117 l -0.053,-0.047 -0.053,-0.045 c -1.996,-1.7333 -5.2345,-3.0763 -11.2753,-3.0763 -3.907,0 -8.4449,0.6948 -13.6033,2.2521 -4.9367,1.4903 -9.8342,3.7914 -14.75,7.0037 l -2.4944,1.6289 h -13.8142 v -33.8026 l 5.578,-2.7497 c 4.951,-2.4407 10.8191,-4.3697 17.8593,-6.0999 h 0.01 0.01 c 7.3369,-1.788 14.5567,-2.7125 21.623,-2.7125 z m 259.23526,0 c 6.6955,0 12.8162,0.603 18.418,1.9529 5.6605,1.3639 10.9628,3.6067 15.705,6.721 l 0.029,0.019 0.029,0.019 c 5.1743,3.4495 9.467,7.9322 12.3615,13.2519 2.9602,5.4404 4.3145,11.6575 4.3145,18.0919 0,9.2867 -3.6671,18.2384 -10.1038,25.0409 -0.8686,0.9183 -1.8432,1.6987 -2.7771,2.5331 0.9679,0.6967 1.9986,1.3192 2.8887,2.1059 l 0.025,0.024 0.025,0.022 c 3.7474,3.357 6.7421,7.5205 8.9669,12.1853 2.6137,5.4803 3.5703,11.6188 3.5703,18.3709 0,6.9023 -1.2801,13.5605 -3.9295,19.6469 -2.5859,5.9406 -6.3202,11.2608 -11.0257,15.6853 l -0.013,0.012 -0.014,0.013 c -5.2488,4.8989 -11.5318,8.5668 -18.4805,10.8831 l -0.027,0.01 -0.027,0.01 c -6.7579,2.208 -14.0305,3.2561 -21.6932,3.2561 -7.7142,0 -15.3425,-0.9363 -22.8142,-2.8008 -7.0986,-1.7173 -13.1218,-3.6366 -18.2443,-5.9651 l -5.8632,-2.6639 v -33.9374 h 14.2544 l 2.5037,1.6505 c 3.8591,2.5424 8.6044,4.7825 14.3067,6.6172 5.5579,1.7882 10.704,2.6169 15.5236,2.6169 2.4052,0 5.1915,-0.4038 8.3829,-1.3478 2.7756,-0.8209 4.4841,-1.857 5.6012,-2.8866 1.6565,-1.5978 2.6693,-3.1056 3.3187,-4.67 l 0.031,-0.074 0.031,-0.074 c 0.5431,-1.2516 1.0997,-3.6618 1.0997,-7.2363 0,-3.3818 -0.5871,-5.5122 -1.1209,-6.5799 l -0.051,-0.1018 -0.049,-0.1034 c -0.7183,-1.5228 -1.4018,-2.2535 -2.3632,-2.8944 l -0.065,-0.043 -0.062,-0.043 c -1.1429,-0.7872 -2.7343,-1.4819 -5.1465,-1.8965 l -0.074,-0.011 -0.074,-0.015 c -2.886,-0.5411 -6.1212,-0.832 -9.711,-0.832 h -17.5349 v -33.8987 h 15.8611 c 7.0952,0 11.6587,-1.4642 14.5159,-3.4608 2.6261,-1.8485 3.3631,-3.0685 3.3631,-7.3866 0,-1.5942 -0.2793,-2.3382 -0.5938,-2.8851 l -0.027,-0.045 -0.025,-0.047 c -0.4693,-0.8367 -0.9947,-1.3853 -1.9296,-1.9926 -1.4087,-0.8359 -2.8202,-1.4021 -4.41,-1.7265 -1.9253,-0.393 -4.3702,-0.6346 -7.2931,-0.6346 -4.1095,0 -8.7248,0.738 -13.8829,2.3771 -5.1143,1.6251 -9.9126,3.9021 -14.4767,6.8807 l -2.4903,1.6268 h -13.8125 v -33.7184 l 5.58,-2.7502 c 4.9366,-2.4335 10.788,-4.3575 17.801,-6.0839 0,0 0,0 0.01,0 7.3545,-1.8536 14.5988,-2.8143 21.6932,-2.8143 z m -130.11966,5e-4 c 14.3914,0 27.0774,3.6081 36.5373,11.6794 9.3974,7.9637 14.4022,19.815 14.4022,32.6466 0,5.5924 -0.728,11.0001 -2.2458,16.121 -1.4403,4.9897 -3.6055,9.7539 -6.4317,14.1955 v 0 c -2.4732,3.9262 -5.3506,7.7305 -8.6057,11.42 -3.1414,3.623 -6.86,7.5102 -11.1895,11.7243 v 0 c -5.2994,5.1994 -10.8146,10.2106 -16.4119,15.1505 h 50.1639 v 24.3184 9.9999 h -104.3926 -0.1251 v -27.7812 l 0.1251,0.033 v -4.3496 l 21.0917,-18.078 0.018,-0.016 c 5.7529,-4.8845 11.0781,-9.7247 15.9742,-14.5133 l 0.016,-0.015 0.018,-0.018 c 10.4536,-10.1269 17.4571,-18.1551 20.5915,-22.965 2.9995,-4.6567 4.33,-9.1777 4.33,-14.3924 0,-4.2619 -0.8408,-5.7756 -2.898,-7.5122 l -0.053,-0.046 -0.053,-0.045 c -1.9959,-1.7333 -5.235,-3.0763 -11.2758,-3.0763 -3.907,0 -8.4449,0.6948 -13.6033,2.252 -4.9367,1.4904 -9.8342,3.7915 -14.75,7.0038 l -2.4939,1.6288 h -13.8147 v -33.8026 l 5.578,-2.7497 c 4.951,-2.4407 10.8191,-4.3697 17.8594,-6.0999 h 0.01 0.01 c 7.3369,-1.788 14.5587,-2.7125 21.625,-2.7125 z m -105.2473,22.3707 c 0.015,0.014 0.025,0.032 0.041,0.045 0.019,0.017 0.043,0.026 0.062,0.043 z m 129.1151,0 c 0.015,0.014 0.025,0.032 0.041,0.045 0.019,0.017 0.043,0.026 0.062,0.043 z m 136.85726,6.5898 c 0.01,0.014 0.01,0.031 0.017,0.045 0.01,0.017 0.025,0.03 0.035,0.047 z m -1.4139,33.721 c 0.01,0 0.017,0.01 0.027,0.013 0.035,0.014 0.067,0.023 0.1013,0.037 z m 3.9491,20.8767 c 0.023,0.045 0.036,0.094 0.058,0.139 0.011,0.023 0.03,0.043 0.041,0.066 z m 0.5431,30.5765 c -0.011,0.027 -0.03,0.049 -0.041,0.076 -0.01,0.023 -0.011,0.048 -0.021,0.07 z"
       inkscape:export-filename="Car Number.png"
       inkscape:export-xdpi="96"
       inkscape:export-ydpi="96" />
  </g>
  <g
     inkscape:groupmode="layer"
     id="layer4"
     inkscape:label="Layer 4" />
</svg>
