<?xml version="1.0" encoding="UTF-8" standalone="no"?>
<!-- Created with Inkscape (http://www.inkscape.org/) -->

<svg
   width="210mm"
   height="297mm"
   viewBox="0 0 210 297"
   version="1.1"
   id="svg1"
   inkscape:export-filename="Car Number.png"
   inkscape:export-xdpi="96"
   inkscape:export-ydpi="96"
   inkscape:version="1.3.1 (91b66b0783, 2023-11-16)"
   sodipodi:docname="Car Number.svg"
   xmlns:inkscape="http://www.inkscape.org/namespaces/inkscape"
   xmlns:sodipodi="http://sodipodi.sourceforge.net/DTD/sodipodi-0.dtd"
   xmlns="http://www.w3.org/2000/svg"
   xmlns:svg="http://www.w3.org/2000/svg">
  <sodipodi:namedview
     id="namedview1"
     pagecolor="#ffffff"
     bordercolor="#000000"
     borderopacity="0.25"
     inkscape:showpageshadow="2"
     inkscape:pageopacity="0.0"
     inkscape:pagecheckerboard="0"
     inkscape:deskcolor="#d1d1d1"
     inkscape:document-units="mm"
     inkscape:export-bgcolor="#00000000"
     inkscape:zoom="0.095209912"
     inkscape:cx="2226.6589"
     inkscape:cy="-2126.8794"
     inkscape:window-width="1920"
     inkscape:window-height="1111"
     inkscape:window-x="-9"
     inkscape:window-y="-9"
     inkscape:window-maximized="1"
     inkscape:current-layer="layer2" />
  <defs
     id="defs1" />
  <g
     inkscape:groupmode="layer"
     id="layer2"
     inkscape:label="Layer 2">
    <g
       id="g4"
       inkscape:export-filename="Car Number.jpg"
       inkscape:export-xdpi="96"
       inkscape:export-ydpi="96">
      <path
         id="path2"
         style="fill:#ffffff;fill-opacity:1;stroke:none;stroke-width:37.912;stroke-dasharray:none;stroke-opacity:1;paint-order:stroke fill markers"
         d="m 895.20527,-608.81667 a 208.82935,208.82935 0 0 0 -208.82912,208.82911 208.82935,208.82935 0 0 0 208.82912,208.82963 208.82935,208.82935 0 0 0 208.82963,-208.82963 208.82935,208.82935 0 0 0 -208.82963,-208.82911 z m -132.25549,133.90242 c 14.39143,0 27.07744,3.60856 36.5373,11.6799 9.39744,7.96373 14.40222,19.81496 14.40222,32.64659 0,5.59239 -0.72851,11.00006 -2.24637,16.12098 -1.44024,4.98972 -3.60499,9.75396 -6.43113,14.19552 l -0.002,0.002 c -2.47322,3.92616 -5.35065,7.72994 -8.60568,11.41946 -3.14141,3.623 -6.86004,7.51077 -11.1895,11.72487 l -0.002,0.002 c -5.29942,5.19937 -10.81464,10.21057 -16.41192,15.1505 h 50.16386 l 0.5271,0.14004 c -0.36587,0.56076 -0.58032,1.23054 -0.58032,1.95285 v 32.22543 H 714.77235 v -32.09778 l 21.09174,-18.07797 0.0176,-0.0155 c 5.75291,-4.88455 11.07854,-9.72527 15.97474,-14.51385 l 0.0155,-0.0155 0.0176,-0.0176 c 10.45355,-10.12687 17.45752,-18.15506 20.59202,-22.96501 2.99941,-4.65665 4.32997,-9.17772 4.32997,-14.3924 0,-4.2619 -0.84136,-5.77512 -2.89853,-7.51169 l -0.0527,-0.047 -0.0527,-0.045 c -1.99593,-1.7333 -5.23447,-3.0763 -11.27528,-3.0763 -3.907,0 -8.44487,0.69479 -13.6033,2.25206 -4.93668,1.49031 -9.83421,3.79141 -14.75001,7.00371 l -2.49442,1.62884 h -13.81414 v -33.80259 l 5.57795,-2.7497 c 4.95104,-2.44066 10.81917,-4.36967 17.85938,-6.09989 l 0.01,-0.002 0.0103,-0.002 c 7.33688,-1.78799 14.55665,-2.7125 21.62297,-2.7125 z m 259.23532,0 c 6.6955,0 12.8162,0.60302 18.418,1.95285 5.6605,1.36399 10.9628,3.60675 15.705,6.72104 l 0.029,0.0191 0.029,0.0191 c 5.1743,3.44953 9.467,7.93218 12.3615,13.2519 2.9602,5.44041 4.3145,11.65746 4.3145,18.09192 0,9.28664 -3.6671,18.23839 -10.1038,25.04085 -0.8686,0.91838 -1.8432,1.69877 -2.7771,2.53318 0.9679,0.6967 1.9986,1.3192 2.8887,2.10581 l 0.025,0.0238 0.025,0.0217 c 3.7474,3.35707 6.7421,7.52059 8.9669,12.1853 2.6137,5.48039 3.5703,11.6188 3.5703,18.37097 0,6.90226 -1.2801,13.56044 -3.9295,19.64686 -2.5859,5.94062 -6.3202,11.26083 -11.0257,15.68535 l -0.013,0.0119 -0.014,0.0129 c -5.2488,4.89891 -11.5318,8.5668 -18.4805,10.88305 l -0.027,0.0103 -0.027,0.01 c -6.7579,2.20803 -14.0305,3.25613 -21.6932,3.25613 -7.7142,0 -15.3425,-0.9363 -22.81413,-2.80086 -7.09861,-1.71723 -13.12186,-3.6366 -18.24436,-5.96501 l -5.86321,-2.66393 v -33.93746 h 14.25443 l 2.50372,1.65055 c 3.85907,2.54243 8.60434,4.78252 14.30665,6.61716 5.5579,1.78821 10.704,2.6169 15.5236,2.6169 2.4052,0 5.1915,-0.40378 8.3829,-1.34772 2.7756,-0.82097 4.4841,-1.85708 5.6012,-2.88665 1.6565,-1.59779 2.6693,-3.10556 3.3187,-4.67 l 0.031,-0.0739 0.031,-0.0744 c 0.5431,-1.25159 1.0997,-3.66175 1.0997,-7.23625 0,-3.38187 -0.5871,-5.51229 -1.1209,-6.57996 l -0.051,-0.1018 -0.049,-0.10336 c -0.7183,-1.52279 -1.4018,-2.25348 -2.3632,-2.89439 l -0.065,-0.0429 -0.062,-0.0434 c -1.1429,-0.78728 -2.7343,-1.48193 -5.1465,-1.89653 l -0.074,-0.0114 -0.074,-0.0155 c -2.886,-0.54113 -6.1212,-0.83199 -9.711,-0.83199 h -17.5349 v -33.89871 h 15.8611 c 7.0952,0 11.6587,-1.46419 14.5159,-3.46077 2.6261,-1.84851 3.3631,-3.06853 3.3631,-7.38663 0,-1.59425 -0.2793,-2.33825 -0.5938,-2.88509 l -0.027,-0.045 -0.025,-0.0465 c -0.4693,-0.8367 -0.9947,-1.38531 -1.9296,-1.99264 -1.4087,-0.83586 -2.8202,-1.40207 -4.41,-1.72651 -1.9253,-0.39292 -4.3702,-0.63459 -7.2931,-0.63459 -4.1095,0 -8.7248,0.73807 -13.8829,2.37712 -5.1143,1.62509 -9.91258,3.90206 -14.47664,6.88072 l -2.49029,1.62677 h -13.81259 v -33.71836 l 5.58002,-2.75022 c 4.93663,-2.43354 10.78805,-4.35751 17.801,-6.08386 0,-10e-4 0,-0.002 0.01,-0.002 7.3545,-1.85361 14.5988,-2.8143 21.6932,-2.8143 z m -130.11969,5.1e-4 c 14.39144,0 27.07744,3.60805 36.5373,11.67939 9.39745,7.96373 14.40223,19.81496 14.40223,32.64659 0,5.59238 -0.72801,11.00006 -2.24586,16.12098 -1.44024,4.98972 -3.60549,9.75396 -6.43165,14.19552 l -0.002,0.002 c -2.47321,3.92616 -5.35064,7.73047 -8.60567,11.41998 -3.14143,3.623 -6.86004,7.51025 -11.1895,11.72435 l -0.002,0.002 c -5.2994,5.19937 -10.81462,10.21057 -16.41192,15.1505 h 50.16387 v 24.31841 9.99991 h -104.3926 -0.12506 v -27.78125 l 0.12506,0.0331 v -4.3496 l 21.09174,-18.07797 0.0176,-0.016 c 5.7529,-4.88456 11.07803,-9.72475 15.97422,-14.51333 l 0.016,-0.0155 0.0176,-0.0176 c 10.45354,-10.12687 17.45701,-18.15507 20.5915,-22.96501 2.99941,-4.65665 4.32997,-9.17772 4.32997,-14.3924 0,-4.2619 -0.84084,-5.77563 -2.89801,-7.5122 l -0.0527,-0.0465 -0.0527,-0.045 c -1.99593,-1.7333 -5.23498,-3.0763 -11.2758,-3.0763 -3.90699,0 -8.44488,0.69479 -13.6033,2.25206 -4.93668,1.49031 -9.8342,3.79141 -14.75001,7.00371 l -2.4939,1.62884 h -13.81466 v -33.80259 l 5.57795,-2.7497 c 4.95104,-2.44066 10.81916,-4.36967 17.85938,-6.09989 l 0.0103,-0.002 0.008,-0.002 c 7.33689,-1.78799 14.55873,-2.7125 21.62504,-2.7125 z m -105.24732,22.37073 c 0.0151,0.0137 0.0252,0.0318 0.0408,0.045 0.0193,0.0167 0.0432,0.0261 0.0625,0.0429 z m 129.11511,0 c 0.0151,0.0137 0.0252,0.0318 0.0408,0.045 0.0193,0.0167 0.0432,0.0261 0.0625,0.0429 z m 136.8573,6.58978 c 0.01,0.0142 0.01,0.0309 0.017,0.045 0.01,0.0171 0.025,0.0299 0.035,0.047 z m -1.4139,33.72094 c 0.01,0.003 0.017,0.009 0.027,0.0134 0.035,0.0145 0.067,0.0227 0.1013,0.0372 z m 3.9491,20.87676 c 0.023,0.0453 0.036,0.0937 0.058,0.13901 0.011,0.0235 0.03,0.0426 0.041,0.0661 z m 0.5431,30.57643 c -0.011,0.0267 -0.03,0.0493 -0.041,0.076 -0.01,0.0225 -0.011,0.0478 -0.021,0.0703 z" />
      <g
         id="g3"
         transform="translate(5.1496549)">
        <rect
           style="fill:#ffffff;fill-opacity:1;stroke:none;stroke-width:15.8785;stroke-dasharray:none;stroke-opacity:1;paint-order:stroke fill markers"
           id="rect2-5"
           width="67.014938"
           height="668.33685"
           x="723.51465"
           y="-294.8103"
           ry="13.642769" />
        <rect
           style="fill:#ffffff;fill-opacity:1;stroke:none;stroke-width:15.8785;stroke-dasharray:none;stroke-opacity:1;paint-order:stroke fill markers"
           id="rect2-5-2"
           width="67.014938"
           height="668.33685"
           x="866.47797"
           y="-294.8103"
           ry="13.642769" />
        <rect
           style="fill:#ffffff;fill-opacity:1;stroke:none;stroke-width:15.8785;stroke-dasharray:none;stroke-opacity:1;paint-order:stroke fill markers"
           id="rect2-5-2-2"
           width="67.014938"
           height="668.33685"
           x="992.16156"
           y="-294.8103"
           ry="13.642769" />
        <g
           id="g2">
          <rect
             style="fill:#ffffff;fill-opacity:1;stroke:none;stroke-width:15.0654;stroke-dasharray:none;stroke-opacity:1;paint-order:stroke fill markers"
             id="rect2"
             width="67.014938"
             height="601.64209"
             x="720.93524"
             y="-1099.1753"
             ry="12.281328" />
          <rect
             style="fill:#ffffff;fill-opacity:1;stroke:none;stroke-width:15.0654;stroke-dasharray:none;stroke-opacity:1;paint-order:stroke fill markers"
             id="rect2-5-7"
             width="67.014938"
             height="601.64209"
             x="859.12646"
             y="-1099.1753"
             ry="12.281328" />
          <rect
             style="fill:#ffffff;fill-opacity:1;stroke:none;stroke-width:15.0654;stroke-dasharray:none;stroke-opacity:1;paint-order:stroke fill markers"
             id="rect2-1-6"
             width="67.014938"
             height="601.64209"
             x="988.91425"
             y="-1099.1753"
             ry="12.281328" />
        </g>
      </g>
    </g>
  </g>
  <g
     inkscape:label="Layer 1"
     inkscape:groupmode="layer"
     id="layer1" />
  <g
     inkscape:groupmode="layer"
     id="layer3"
     inkscape:label="Layer 3" />
</svg>
