<?xml version="1.0" encoding="UTF-8" standalone="no"?>
<!-- Created with Inkscape (http://www.inkscape.org/) -->

<svg
   width="210mm"
   height="297mm"
   viewBox="0 0 210 297"
   version="1.1"
   id="svg1"
   inkscape:export-filename="Car Number.png"
   inkscape:export-xdpi="96"
   inkscape:export-ydpi="96"
   inkscape:version="1.3.1 (91b66b0783, 2023-11-16)"
   sodipodi:docname="Car Number Lines.svg"
   xmlns:inkscape="http://www.inkscape.org/namespaces/inkscape"
   xmlns:sodipodi="http://sodipodi.sourceforge.net/DTD/sodipodi-0.dtd"
   xmlns="http://www.w3.org/2000/svg"
   xmlns:svg="http://www.w3.org/2000/svg">
  <sodipodi:namedview
     id="namedview1"
     pagecolor="#ffffff"
     bordercolor="#000000"
     borderopacity="0.25"
     inkscape:showpageshadow="2"
     inkscape:pageopacity="0.0"
     inkscape:pagecheckerboard="0"
     inkscape:deskcolor="#d1d1d1"
     inkscape:document-units="mm"
     inkscape:export-bgcolor="#00000000"
     inkscape:zoom="0.10512065"
     inkscape:cx="2135.6413"
     inkscape:cy="-718.22235"
     inkscape:window-width="1920"
     inkscape:window-height="1111"
     inkscape:window-x="-9"
     inkscape:window-y="-9"
     inkscape:window-maximized="1"
     inkscape:current-layer="layer2" />
  <defs
     id="defs1" />
  <g
     inkscape:groupmode="layer"
     id="layer2"
     inkscape:label="Layer 2">
    <path
       id="path2"
       style="fill:#ffd700;fill-opacity:1;stroke:none;stroke-width:37.912;stroke-dasharray:none;stroke-opacity:1;paint-order:stroke fill markers"
       d="m 1503.7947,-647.72193 a 208.82935,208.82935 0 0 0 -208.8291,208.82911 208.82935,208.82935 0 0 0 208.8291,208.82963 208.82935,208.82935 0 0 0 208.8297,-208.82963 208.82935,208.82935 0 0 0 -208.8297,-208.82911 z m -132.2554,133.90242 c 14.3914,0 27.0774,3.60856 36.5373,11.6799 9.3974,7.96373 14.4022,19.81496 14.4022,32.64659 0,5.59239 -0.7285,11.00006 -2.2464,16.12098 -1.4402,4.98972 -3.605,9.75396 -6.4311,14.19552 v 0.002 c -2.4732,3.92616 -5.3507,7.72994 -8.6057,11.41946 -3.1414,3.623 -6.86,7.51077 -11.1895,11.72487 v 0.002 c -5.2994,5.19937 -10.8146,10.21057 -16.4119,15.1505 h 50.1638 l 0.5271,0.14004 c -0.3658,0.56076 -0.5803,1.23054 -0.5803,1.95285 v 32.22543 h -104.339 v -32.09778 l 21.0918,-18.07797 0.018,-0.0155 c 5.7529,-4.88455 11.0785,-9.72527 15.9747,-14.51385 l 0.015,-0.0155 0.018,-0.0176 c 10.4536,-10.12687 17.4575,-18.15506 20.592,-22.96501 2.9994,-4.65665 4.33,-9.17772 4.33,-14.3924 0,-4.2619 -0.8414,-5.77512 -2.8985,-7.51169 l -0.053,-0.047 -0.053,-0.045 c -1.996,-1.7333 -5.2345,-3.0763 -11.2753,-3.0763 -3.907,0 -8.4449,0.69479 -13.6033,2.25206 -4.9367,1.49031 -9.8342,3.79141 -14.75,7.00371 l -2.4944,1.62884 h -13.8142 v -33.80259 l 5.578,-2.7497 c 4.951,-2.44066 10.8191,-4.36967 17.8593,-6.09989 l 0.01,-0.002 0.01,-0.002 c 7.3369,-1.78799 14.5567,-2.7125 21.623,-2.7125 z m 259.2353,0 c 6.6955,0 12.8162,0.60302 18.418,1.95285 5.6605,1.36399 10.9628,3.60675 15.705,6.72104 l 0.029,0.0191 0.029,0.0191 c 5.1743,3.44953 9.467,7.93218 12.3615,13.2519 2.9602,5.44041 4.3145,11.65746 4.3145,18.09192 0,9.28664 -3.6671,18.23839 -10.1038,25.04085 -0.8686,0.91838 -1.8432,1.69877 -2.7771,2.53318 0.9679,0.6967 1.9986,1.3192 2.8887,2.10581 l 0.025,0.0238 0.025,0.0217 c 3.7474,3.35707 6.7421,7.52059 8.9669,12.1853 2.6137,5.48039 3.5703,11.6188 3.5703,18.37097 0,6.90226 -1.2801,13.56044 -3.9295,19.64686 -2.5859,5.94062 -6.3202,11.26083 -11.0257,15.68535 l -0.013,0.0119 -0.014,0.0129 c -5.2488,4.89891 -11.5318,8.5668 -18.4805,10.88305 l -0.027,0.0103 -0.027,0.01 c -6.7579,2.20803 -14.0305,3.25613 -21.6932,3.25613 -7.7142,0 -15.3425,-0.9363 -22.8142,-2.80086 -7.0986,-1.71723 -13.1218,-3.6366 -18.2443,-5.96501 l -5.8632,-2.66393 v -33.93746 h 14.2544 l 2.5037,1.65055 c 3.8591,2.54243 8.6044,4.78252 14.3067,6.61716 5.5579,1.78821 10.704,2.6169 15.5236,2.6169 2.4052,0 5.1915,-0.40378 8.3829,-1.34772 2.7756,-0.82097 4.4841,-1.85708 5.6012,-2.88665 1.6565,-1.59779 2.6693,-3.10556 3.3187,-4.67 l 0.031,-0.0739 0.031,-0.0744 c 0.5431,-1.25159 1.0997,-3.66175 1.0997,-7.23625 0,-3.38187 -0.5871,-5.51229 -1.1209,-6.57996 l -0.051,-0.1018 -0.049,-0.10336 c -0.7183,-1.52279 -1.4018,-2.25348 -2.3632,-2.89439 l -0.065,-0.0429 -0.062,-0.0434 c -1.1429,-0.78728 -2.7343,-1.48193 -5.1465,-1.89653 l -0.074,-0.0114 -0.074,-0.0155 c -2.886,-0.54113 -6.1212,-0.83199 -9.711,-0.83199 h -17.5349 v -33.89871 h 15.8611 c 7.0952,0 11.6587,-1.46419 14.5159,-3.46077 2.6261,-1.84851 3.3631,-3.06853 3.3631,-7.38663 0,-1.59425 -0.2793,-2.33825 -0.5938,-2.88509 l -0.027,-0.045 -0.025,-0.0465 c -0.4693,-0.8367 -0.9947,-1.38531 -1.9296,-1.99264 -1.4087,-0.83586 -2.8202,-1.40207 -4.41,-1.72651 -1.9253,-0.39292 -4.3702,-0.63459 -7.2931,-0.63459 -4.1095,0 -8.7248,0.73807 -13.8829,2.37712 -5.1143,1.62509 -9.9126,3.90206 -14.4767,6.88072 l -2.4903,1.62677 h -13.8125 v -33.71836 l 5.58,-2.75022 c 4.9366,-2.43354 10.788,-4.35751 17.801,-6.08386 0,-0.001 0,-0.002 0.01,-0.002 7.3545,-1.85361 14.5988,-2.8143 21.6932,-2.8143 z m -130.1197,5.1e-4 c 14.3914,0 27.0774,3.60805 36.5373,11.67939 9.3974,7.96373 14.4022,19.81496 14.4022,32.64659 0,5.59238 -0.728,11.00006 -2.2458,16.12098 -1.4403,4.98972 -3.6055,9.75396 -6.4317,14.19552 v 0.002 c -2.4732,3.92616 -5.3506,7.73047 -8.6057,11.41998 -3.1414,3.623 -6.86,7.51025 -11.1895,11.72435 v 0.002 c -5.2994,5.19937 -10.8146,10.21057 -16.4119,15.1505 h 50.1639 v 24.31841 9.99991 h -104.3926 -0.1251 v -27.78125 l 0.1251,0.0331 v -4.3496 l 21.0917,-18.07797 0.018,-0.016 c 5.7529,-4.88456 11.0781,-9.72475 15.9742,-14.51333 l 0.016,-0.0155 0.018,-0.0176 c 10.4536,-10.12687 17.4571,-18.15507 20.5915,-22.96501 2.9995,-4.65665 4.33,-9.17772 4.33,-14.3924 0,-4.2619 -0.8408,-5.77563 -2.898,-7.5122 l -0.053,-0.0465 -0.053,-0.045 c -1.9959,-1.7333 -5.235,-3.0763 -11.2758,-3.0763 -3.907,0 -8.4449,0.69479 -13.6033,2.25206 -4.9367,1.49031 -9.8342,3.79141 -14.75,7.00371 l -2.4939,1.62884 h -13.8147 v -33.80259 l 5.578,-2.7497 c 4.951,-2.44066 10.8191,-4.36967 17.8594,-6.09989 l 0.01,-0.002 0.01,-0.002 c 7.3369,-1.78799 14.5587,-2.7125 21.625,-2.7125 z m -105.2473,22.37073 c 0.015,0.0137 0.025,0.0318 0.041,0.045 0.019,0.0167 0.043,0.0261 0.062,0.0429 z m 129.1151,0 c 0.015,0.0137 0.025,0.0318 0.041,0.045 0.019,0.0167 0.043,0.0261 0.062,0.0429 z m 136.8573,6.58978 c 0.01,0.0142 0.01,0.0309 0.017,0.045 0.01,0.0171 0.025,0.0299 0.035,0.047 z m -1.4139,33.72094 c 0.01,0.003 0.017,0.009 0.027,0.0134 0.035,0.0145 0.067,0.0227 0.1013,0.0372 z m 3.9491,20.87676 c 0.023,0.0453 0.036,0.0937 0.058,0.13901 0.011,0.0235 0.03,0.0426 0.041,0.0661 z m 0.5431,30.57643 c -0.011,0.0267 -0.03,0.0493 -0.041,0.076 -0.01,0.0225 -0.011,0.0478 -0.021,0.0703 z"
       inkscape:export-filename="Car Number.png"
       inkscape:export-xdpi="96"
       inkscape:export-ydpi="96" />
    <path
       id="rect2-5"
       style="fill:#ffd700;fill-opacity:1;stroke-width:15.8785;paint-order:stroke fill markers"
       d="m 1350.8965,-333.71556 h 39.7294 c 7.5581,0 13.6428,6.08467 13.6428,13.64277 v 641.05131 c 0,7.5581 -6.0847,13.64277 -13.6428,13.64277 h -39.7294 c -7.5581,0 -13.6427,-6.08467 -13.6427,-13.64277 v -641.05131 c 0,-7.5581 6.0846,-13.64277 13.6427,-13.64277 z" />
    <path
       id="rect2-5-2"
       style="fill:#ffd700;fill-opacity:1;stroke-width:15.8785;paint-order:stroke fill markers"
       d="m 1493.8599,-333.71556 h 39.7294 c 7.5581,0 13.6427,6.08467 13.6427,13.64277 v 641.05131 c 0,7.5581 -6.0846,13.64277 -13.6427,13.64277 h -39.7294 c -7.5581,0 -13.6428,-6.08467 -13.6428,-13.64277 v -641.05131 c 0,-7.5581 6.0847,-13.64277 13.6428,-13.64277 z" />
    <path
       id="rect2-5-2-2"
       style="fill:#ffd700;fill-opacity:1;stroke-width:15.8785;paint-order:stroke fill markers"
       d="m 1619.5434,-333.71556 h 39.7294 c 7.5581,0 13.6428,6.08467 13.6428,13.64277 v 641.05131 c 0,7.5581 -6.0847,13.64277 -13.6428,13.64277 h -39.7294 c -7.558,0 -13.6427,-6.08467 -13.6427,-13.64277 v -641.05131 c 0,-7.5581 6.0847,-13.64277 13.6427,-13.64277 z" />
    <path
       id="rect2"
       style="fill:#ffd700;fill-opacity:1;stroke-width:15.0654;paint-order:stroke fill markers"
       d="m 1346.9557,-1138.0806 h 42.4523 c 6.8038,0 12.2813,5.4775 12.2813,12.2813 v 577.07951 c 0,6.80385 -5.4775,12.28133 -12.2813,12.28133 h -42.4523 c -6.8039,0 -12.2813,-5.47748 -12.2813,-12.28133 v -577.07951 c 0,-6.8038 5.4774,-12.2813 12.2813,-12.2813 z" />
    <path
       id="rect2-5-7"
       style="fill:#ffd700;fill-opacity:1;stroke-width:15.0654;paint-order:stroke fill markers"
       d="m 1485.1469,-1138.0806 h 42.4523 c 6.8038,0 12.2813,5.4775 12.2813,12.2813 v 577.07951 c 0,6.80385 -5.4775,12.28133 -12.2813,12.28133 h -42.4523 c -6.8038,0 -12.2813,-5.47748 -12.2813,-12.28133 v -577.07951 c 0,-6.8038 5.4775,-12.2813 12.2813,-12.2813 z" />
    <path
       id="rect2-1-6"
       style="fill:#ffd700;fill-opacity:1;stroke-width:15.0654;paint-order:stroke fill markers"
       d="m 1614.9347,-1138.0806 h 42.4523 c 6.8038,0 12.2813,5.4775 12.2813,12.2813 v 577.07951 c 0,6.80385 -5.4775,12.28133 -12.2813,12.28133 h -42.4523 c -6.8039,0 -12.2813,-5.47748 -12.2813,-12.28133 v -577.07951 c 0,-6.8038 5.4774,-12.2813 12.2813,-12.2813 z" />
  </g>
  <g
     inkscape:groupmode="layer"
     id="layer4"
     inkscape:label="Layer 4" />
</svg>
