<?xml version="1.0" encoding="UTF-8" standalone="no"?>
<!-- Created with Inkscape (http://www.inkscape.org/) -->

<svg
   width="210mm"
   height="297mm"
   viewBox="0 0 210 297"
   version="1.1"
   id="svg1"
   inkscape:version="1.3.1 (91b66b0783, 2023-11-16)"
   sodipodi:docname="School_Name.svg"
   xmlns:inkscape="http://www.inkscape.org/namespaces/inkscape"
   xmlns:sodipodi="http://sodipodi.sourceforge.net/DTD/sodipodi-0.dtd"
   xmlns="http://www.w3.org/2000/svg"
   xmlns:svg="http://www.w3.org/2000/svg">
  <sodipodi:namedview
     id="namedview1"
     pagecolor="#ffffff"
     bordercolor="#000000"
     borderopacity="0.25"
     inkscape:showpageshadow="2"
     inkscape:pageopacity="0.0"
     inkscape:pagecheckerboard="0"
     inkscape:deskcolor="#d1d1d1"
     inkscape:document-units="mm"
     inkscape:export-bgcolor="#0000000e"
     inkscape:zoom="0.38083965"
     inkscape:cx="1335.2076"
     inkscape:cy="-865.19353"
     inkscape:window-width="1920"
     inkscape:window-height="1111"
     inkscape:window-x="-9"
     inkscape:window-y="-9"
     inkscape:window-maximized="1"
     inkscape:current-layer="layer1" />
  <defs
     id="defs1" />
  <g
     inkscape:label="Layer 1"
     inkscape:groupmode="layer"
     id="layer1">
    <path
       style="font-size:72.0822px;font-family:'Times New Roman';-inkscape-font-specification:'Times New Roman, Normal';letter-spacing:11.4431px;fill:#4e2a84;stroke:#ffd700;stroke-width:10.0915;stroke-opacity:0.996661;paint-order:stroke fill markers"
       d="m 17.560273,-267.4359 h 12.95227 l 29.177806,35.79473 v -27.52357 q 0,-4.39955 -0.9855,-5.49064 -1.30227,-1.47825 -4.11798,-1.47825 h -1.65423 v -1.30227 h 16.6127 v 1.30227 h -1.68943 q -3.02689,0 -4.29396,1.83021 -0.77432,1.12629 -0.77432,5.13868 v 40.22946 h -1.26707 L 30.05499,-257.36973 v 29.38898 q 0,4.39955 0.950302,5.49064 1.337463,1.47825 4.117978,1.47825 h 1.689426 v 1.30226 H 20.200002 v -1.30226 h 1.65423 q 3.062086,0 4.329155,-1.83021 0.774321,-1.12629 0.774321,-5.13868 v -33.19019 q -2.076587,-2.42855 -3.167675,-3.20287 -1.055891,-0.77432 -3.132478,-1.44305 -1.020695,-0.31677 -3.097282,-0.31677 z m 90.810947,-1.09108 q 9.29185,0 16.08475,7.07447 6.8281,7.03928 6.8281,17.59819 0,10.87569 -6.86329,18.05575 -6.8633,7.18006 -16.6127,7.18006 -9.854991,0 -16.577501,-7.00408 -6.68731,-7.00408 -6.68731,-18.12614 0,-11.36843 7.74321,-18.54849 6.72251,-6.22976 16.084741,-6.22976 z m -0.66873,2.56933 q -6.40574,0 -10.277341,4.75152 -4.82191,5.91299 -4.82191,17.31662 0,11.6852 4.99789,17.98535 3.836411,4.78671 10.136561,4.78671 6.72251,0 11.08686,-5.24426 4.39955,-5.24426 4.39955,-16.5423 0,-12.24835 -4.82191,-18.26693 -3.8716,-4.78671 -10.6997,-4.78671 z m 86.51699,46.24805 h -12.74109 l -16.15514,-22.3145 q -1.79502,0.0704 -2.9213,0.0704 -0.45755,0 -0.9855,0 -0.52794,-0.0352 -1.09109,-0.0704 v 13.86737 q 0,4.50514 0.9855,5.59623 1.33746,1.54864 4.01239,1.54864 h 1.86541 v 1.30226 h -20.4491 v -1.30226 h 1.79501 q 3.02689,0 4.32916,-1.971 0.73912,-1.09109 0.73912,-5.17387 v -30.83203 q 0,-4.50514 -0.9855,-5.59623 -1.37265,-1.54864 -4.08278,-1.54864 h -1.79501 v -1.30227 h 17.38701 q 7.60242,0 11.19245,1.12629 3.62523,1.09109 6.12418,4.08278 2.53413,2.9565 2.53413,7.07447 0,4.39955 -2.8861,7.63762 -2.85091,3.23807 -8.86949,4.57553 l 9.85499,13.69139 q 3.37885,4.71632 5.8074,6.26496 2.42855,1.54864 6.33535,1.971 z m -33.89412,-24.53188 q 0.66873,0 1.16148,0.0352 0.49275,0 0.80952,0 6.8281,0 10.27735,-2.9565 3.48444,-2.95649 3.48444,-7.53202 0,-4.46994 -2.81571,-7.25046 -2.78052,-2.81571 -7.39124,-2.81571 -2.04139,0 -5.52584,0.66873 z m 82.08225,-23.19442 0.52795,11.19246 h -1.33747 q -0.38716,-2.9565 -1.05589,-4.22357 -1.09109,-2.04139 -2.9213,-2.99169 -1.79501,-0.9855 -4.75151,-0.9855 h -6.72251 v 36.46345 q 0,4.39955 0.9503,5.49064 1.33746,1.47825 4.11798,1.47825 h 1.65423 v 1.30226 h -20.23792 v -1.30226 h 1.68942 q 3.02689,0 4.29396,-1.83021 0.77432,-1.12629 0.77432,-5.13868 v -36.46345 h -5.73701 q -3.34365,0 -4.75151,0.49275 -1.83021,0.66873 -3.13248,2.56933 -1.30226,1.90061 -1.54864,5.13868 h -1.33746 l 0.56314,-11.19246 z m 28.58373,22.13853 h 22.17372 v -13.6562 q 0,-3.66042 -0.45755,-4.8219 -0.35196,-0.87991 -1.47825,-1.51345 -1.51344,-0.84471 -3.20287,-0.84471 h -1.68942 v -1.30227 h 20.4139 v 1.30227 h -1.68943 q -1.68942,0 -3.20287,0.80952 -1.12628,0.56314 -1.54864,1.72462 -0.38716,1.12629 -0.38716,4.64592 v 30.79684 q 0,3.62523 0.45755,4.78671 0.35197,0.87991 1.44306,1.51344 1.54864,0.84472 3.23806,0.84472 h 1.68943 v 1.30226 h -20.4139 v -1.30226 h 1.68942 q 2.9213,0 4.25876,-1.72462 0.87991,-1.12629 0.87991,-5.42025 v -14.53611 h -22.17372 v 14.53611 q 0,3.62523 0.45755,4.78671 0.35197,0.87991 1.47825,1.51344 1.51345,0.84472 3.20287,0.84472 h 1.72463 v 1.30226 h -20.4491 v -1.30226 h 1.68942 q 2.9565,0 4.29396,-1.72462 0.84471,-1.12629 0.84471,-5.42025 v -30.79684 q 0,-3.66042 -0.45755,-4.8219 -0.35196,-0.87991 -1.44305,-1.51345 -1.54864,-0.84471 -3.23807,-0.84471 h -1.68942 v -1.30227 h 20.4491 v 1.30227 h -1.72463 q -1.68942,0 -3.20287,0.80952 -1.09109,0.56314 -1.51344,1.72462 -0.42236,1.12629 -0.42236,4.64592 z M 387.1437,-267.4359 v 1.30227 q -1.86541,0 -3.02689,0.66873 -1.16148,0.66873 -2.21737,2.49895 -0.70393,1.23187 -2.21737,5.87779 l -13.30424,38.46965 h -1.40785 l -10.87569,-30.51526 -10.80529,30.51526 h -1.26707 l -14.18414,-39.63113 q -1.58384,-4.43474 -2.00619,-5.24426 -0.70393,-1.33746 -1.93581,-1.971 -1.19667,-0.66873 -3.27326,-0.66873 v -1.30227 h 17.66859 v 1.30227 h -0.84472 q -1.86541,0 -2.8509,0.84471 -0.9855,0.84472 -0.9855,2.04139 0,1.23188 1.54864,5.66662 l 9.39743,26.78445 7.91919,-22.77206 -1.40786,-4.01239 -1.12628,-3.20287 q -0.73912,-1.75982 -1.65423,-3.09728 -0.45755,-0.66873 -1.12628,-1.12628 -0.87991,-0.63354 -1.75982,-0.91511 -0.66874,-0.21118 -2.11179,-0.21118 v -1.30227 h 18.5837 v 1.30227 h -1.26707 q -1.971,0 -2.88611,0.84471 -0.9151,0.84472 -0.9151,2.28777 0,1.79502 1.58383,6.26496 l 9.15106,25.93973 9.08067,-26.2917 q 1.54864,-4.36435 1.54864,-6.05378 0,-0.80951 -0.52794,-1.51344 -0.49275,-0.70393 -1.26707,-0.9855 -1.33747,-0.49275 -3.48445,-0.49275 v -1.30227 z m 27.0703,2.60454 v 18.86526 h 10.48853 q 4.08278,0 5.45544,-1.23187 1.83021,-1.61904 2.04139,-5.70182 h 1.30226 v 16.6127 h -1.30226 q -0.49275,-3.48445 -0.9855,-4.46994 -0.63354,-1.23188 -2.07659,-1.93581 -1.44305,-0.70392 -4.43474,-0.70392 H 414.214 v 15.73278 q 0,3.16768 0.28157,3.8716 0.28158,0.66873 0.9855,1.09109 0.70393,0.38716 2.67493,0.38716 h 8.09517 q 4.04758,0 5.87779,-0.56314 1.83022,-0.56314 3.51964,-2.21737 2.18218,-2.18218 4.46994,-6.58173 h 1.40786 l -4.11798,11.96677 H 400.6282 v -1.30226 h 1.68942 q 1.68943,0 3.20288,-0.80952 1.12628,-0.56314 1.51344,-1.68943 0.42236,-1.12628 0.42236,-4.61072 v -31.00802 q 0,-4.54033 -0.91511,-5.59622 -1.26707,-1.40786 -4.22357,-1.40786 h -1.68942 v -1.30227 h 36.78022 l 0.52795,10.45333 h -1.37266 q -0.73913,-3.76601 -1.65423,-5.17387 -0.87991,-1.40785 -2.63973,-2.14698 -1.40786,-0.52794 -4.96269,-0.52794 z m 73.45911,-3.69562 v 16.5071 h -1.30226 q -0.63354,-4.75151 -2.28777,-7.56722 -1.61903,-2.81571 -4.64592,-4.46994 -3.02689,-1.65423 -6.26496,-1.65423 -3.66042,0 -6.05378,2.25257 -2.39335,2.21737 -2.39335,5.06828 0,2.18217 1.51344,3.97719 2.18218,2.63973 10.38294,7.03927 6.68731,3.59004 9.11586,5.52584 2.46375,1.9006 3.76601,4.50513 1.33747,2.60454 1.33747,5.45544 0,5.42025 -4.22357,9.36224 -4.18837,3.9068 -10.80529,3.9068 -2.07659,0 -3.9068,-0.31677 -1.09109,-0.17598 -4.54033,-1.26706 -3.41405,-1.12629 -4.32916,-1.12629 -0.87991,0 -1.40785,0.52795 -0.49275,0.52794 -0.73913,2.18217 h -1.30226 v -16.36632 h 1.30226 q 0.91511,5.13868 2.46375,7.70801 1.54864,2.53414 4.71631,4.22357 3.20288,1.68942 7.00409,1.68942 4.39954,0 6.93368,-2.32296 2.56934,-2.32296 2.56934,-5.49063 0,-1.75982 -0.9855,-3.55484 -0.9503,-1.79501 -2.99169,-3.34366 -1.37266,-1.05589 -7.49683,-4.46994 -6.12417,-3.44924 -8.72871,-5.49063 -2.56933,-2.04139 -3.90679,-4.50514 -1.33747,-2.46375 -1.33747,-5.42024 0,-5.13868 3.942,-8.8343 3.94199,-3.73081 10.03097,-3.73081 3.80121,0 8.05997,1.86541 1.971,0.8799 2.78051,0.8799 0.91511,0 1.47825,-0.52794 0.59834,-0.56314 0.95031,-2.21737 z m 60.19011,1.09108 0.52795,11.19246 h -1.33746 q -0.38717,-2.9565 -1.0559,-4.22357 -1.09108,-2.04139 -2.9213,-2.99169 -1.79501,-0.9855 -4.75151,-0.9855 h -6.72251 v 36.46345 q 0,4.39955 0.9503,5.49064 1.33747,1.47825 4.11798,1.47825 h 1.65423 v 1.30226 h -20.23792 v -1.30226 h 1.68943 q 3.02688,0 4.29395,-1.83021 0.77433,-1.12629 0.77433,-5.13868 v -36.46345 h -5.73702 q -3.34365,0 -4.75151,0.49275 -1.83021,0.66873 -3.13248,2.56933 -1.30226,1.90061 -1.54864,5.13868 h -1.33746 l 0.56314,-11.19246 z m 28.83012,2.60454 v 18.86526 h 10.48853 q 4.08278,0 5.45544,-1.23187 1.83021,-1.61904 2.04139,-5.70182 h 1.30226 v 16.6127 h -1.30226 q -0.49275,-3.48445 -0.9855,-4.46994 -0.63354,-1.23188 -2.07659,-1.93581 -1.44305,-0.70392 -4.43474,-0.70392 h -10.48853 v 15.73278 q 0,3.16768 0.28157,3.8716 0.28158,0.66873 0.9855,1.09109 0.70393,0.38716 2.67493,0.38716 h 8.09517 q 4.04758,0 5.87779,-0.56314 1.83022,-0.56314 3.51964,-2.21737 2.18218,-2.18218 4.46994,-6.58173 h 1.40786 l -4.11798,11.96677 h -36.78022 v -1.30226 h 1.68942 q 1.68943,0 3.20288,-0.80952 1.12628,-0.56314 1.51344,-1.68943 0.42236,-1.12628 0.42236,-4.61072 v -31.00802 q 0,-4.54033 -0.91511,-5.59622 -1.26707,-1.40786 -4.22357,-1.40786 h -1.68942 v -1.30227 h 36.78022 l 0.52795,10.45333 h -1.37266 q -0.73913,-3.76601 -1.65423,-5.17387 -0.87991,-1.40785 -2.63973,-2.14698 -1.40786,-0.52794 -4.96269,-0.52794 z m 89.1215,45.12176 h -12.74109 l -16.15514,-22.3145 q -1.79502,0.0704 -2.9213,0.0704 -0.45755,0 -0.9855,0 -0.52794,-0.0352 -1.09109,-0.0704 v 13.86737 q 0,4.50514 0.9855,5.59623 1.33746,1.54864 4.01239,1.54864 h 1.86541 v 1.30226 h -20.4491 v -1.30226 h 1.79501 q 3.02689,0 4.32916,-1.971 0.73912,-1.09109 0.73912,-5.17387 v -30.83203 q 0,-4.50514 -0.9855,-5.59623 -1.37265,-1.54864 -4.08278,-1.54864 h -1.79501 v -1.30227 h 17.38701 q 7.60242,0 11.19245,1.12629 3.62523,1.09109 6.12417,4.08278 2.53414,2.9565 2.53414,7.07447 0,4.39955 -2.8861,7.63762 -2.85091,3.23807 -8.86949,4.57553 l 9.85499,13.69139 q 3.37885,4.71632 5.8074,6.26496 2.42855,1.54864 6.33535,1.971 z m -33.89412,-24.53188 q 0.66873,0 1.16148,0.0352 0.49275,0 0.80952,0 6.8281,0 10.27735,-2.9565 3.48444,-2.95649 3.48444,-7.53202 0,-4.46994 -2.81571,-7.25046 -2.78052,-2.81571 -7.39124,-2.81571 -2.04139,0 -5.52584,0.66873 z m 43.75338,-23.19442 h 12.95227 l 29.17781,35.79473 v -27.52357 q 0,-4.39955 -0.9855,-5.49064 -1.30227,-1.47825 -4.11798,-1.47825 h -1.65423 v -1.30227 h 16.6127 v 1.30227 h -1.68943 q -3.02689,0 -4.29396,1.83021 -0.77432,1.12629 -0.77432,5.13868 v 40.22946 h -1.26707 l -31.46557,-38.43445 v 29.38898 q 0,4.39955 0.9503,5.49064 1.33747,1.47825 4.11798,1.47825 h 1.68943 v 1.30226 h -16.6127 v -1.30226 h 1.65423 q 3.06209,0 4.32916,-1.83021 0.77432,-1.12629 0.77432,-5.13868 v -33.19019 q -2.07659,-2.42855 -3.16768,-3.20287 -1.05589,-0.77432 -3.13247,-1.44305 -1.0207,-0.31677 -3.09729,-0.31677 z"
       id="text1"
       aria-label="NORTHWESTERN"
       inkscape:export-filename="School Name.png"
       inkscape:export-xdpi="96"
       inkscape:export-ydpi="96" />
    <text
       xml:space="preserve"
       style="font-style:normal;font-variant:normal;font-weight:normal;font-stretch:normal;font-size:98.1915px;font-family:'Old English Text MT';-inkscape-font-specification:'Old English Text MT, Normal';font-variant-ligatures:normal;font-variant-caps:normal;font-variant-numeric:normal;font-variant-east-asian:normal;letter-spacing:15.588px;fill:#4e2a84;fill-opacity:1;stroke:#ffd700;stroke-width:13.7468;stroke-opacity:0.996661;paint-order:stroke fill markers"
       x="14.771574"
       y="-331.27176"
       id="text2"><tspan
         sodipodi:role="line"
         id="tspan1"
         style="font-style:normal;font-variant:normal;font-weight:normal;font-stretch:normal;font-size:98.1915px;font-family:'Old English Text MT';-inkscape-font-specification:'Old English Text MT, Normal';font-variant-ligatures:normal;font-variant-caps:normal;font-variant-numeric:normal;font-variant-east-asian:normal;fill:#4e2a84;fill-opacity:1;stroke-width:13.7468"
         x="14.771574"
         y="-331.27176">Northwestern</tspan></text>
  </g>
</svg>
