<?xml version="1.0" encoding="UTF-8" standalone="no"?>
<!-- Created with Inkscape (http://www.inkscape.org/) -->

<svg
   width="210mm"
   height="297mm"
   viewBox="0 0 210 297"
   version="1.1"
   id="svg1"
   xml:space="preserve"
   inkscape:version="1.3.1 (91b66b0783, 2023-11-16)"
   sodipodi:docname="Wildcat.svg"
   xmlns:inkscape="http://www.inkscape.org/namespaces/inkscape"
   xmlns:sodipodi="http://sodipodi.sourceforge.net/DTD/sodipodi-0.dtd"
   xmlns="http://www.w3.org/2000/svg"
   xmlns:svg="http://www.w3.org/2000/svg"><sodipodi:namedview
     id="namedview1"
     pagecolor="#ffffff"
     bordercolor="#000000"
     borderopacity="0.25"
     inkscape:showpageshadow="2"
     inkscape:pageopacity="0.0"
     inkscape:pagecheckerboard="0"
     inkscape:deskcolor="#d1d1d1"
     inkscape:document-units="mm"
     inkscape:zoom="0.76167929"
     inkscape:cx="2508.93"
     inkscape:cy="292.1177"
     inkscape:window-width="1920"
     inkscape:window-height="1111"
     inkscape:window-x="-9"
     inkscape:window-y="-9"
     inkscape:window-maximized="1"
     inkscape:current-layer="layer1" /><defs
     id="defs1" /><g
     inkscape:label="Layer 1"
     inkscape:groupmode="layer"
     id="layer1"><path
       style="fill:#ffd700;fill-opacity:1;stroke:none;stroke-width:1.31996"
       d="m 691.83761,13.588421 c 0.82296,4.522671 -4.93928,4.528052 -8.38174,5.238609 0.68326,4.766139 -5.02946,6.369558 -8.731,8.479857 -6.55752,3.738243 -13.04899,7.607952 -19.55749,11.430626 -2.49174,1.462775 -6.65709,2.945257 -8.51484,5.160997 -1.31064,1.563929 1.10998,4.06687 1.43764,5.661686 0.34036,1.663103 -0.47244,3.562631 -0.60452,5.238608 7.03478,0 15.50924,0.117221 22.35124,1.746204 -3.98247,8.515562 1.01854,13.691734 5.37819,20.954432 5.18236,8.632855 10.42162,17.235693 15.64716,25.8438 2.4511,4.03885 5.81152,8.19529 7.58622,12.57266 1.35382,3.34019 0.37592,8.64479 0.37592,12.22342 v 27.59 l 10.47725,-7.08641 27.24074,-19.45587 c 0,5.88771 0.25908,11.11779 2.0955,16.76354 3.61315,-1.38984 6.81786,-4.8012 9.77874,-7.24673 6.62178,-5.46917 13.51433,-12.22155 20.95449,-16.50162 -0.65024,2.7334 -1.29032,9.99636 2.4511,11.0035 1.77038,0.47656 4.02895,-2.4653 5.23316,-3.45468 3.77292,-3.10021 8.2959,-6.40159 13.271,-7.09448 7.50265,-1.04491 10.5857,7.14994 15.71599,10.72135 0.0135,-4.91136 0.0508,-10.65768 1.57734,-15.36658 1.3716,-4.25324 4.60426,-9.40372 4.24485,-13.96962 -0.30988,-3.9518 -3.41808,-6.29118 -4.11582,-9.778735 -0.75184,-3.752034 0.51054,-7.209823 -0.9017,-11.175697 -1.64084,-4.610029 -4.75208,-8.936591 -3.33933,-13.969622 1.14046,-4.063565 4.00126,-7.154409 5.91134,-10.826455 1.59512,-3.06826 1.83388,-6.316523 3.60908,-9.429495 1.00076,-1.754762 0.53594,-5.167262 2.51714,-6.208718 1.62052,-0.851518 4.22072,1.061428 5.51307,1.930256 4.33985,2.917748 8.57174,7.19555 10.8265,11.961754 h 0.34798 c -1.50114,-5.210162 -5.63524,-10.706022 -9.77875,-14.103815 -1.57734,-1.294497 -6.76224,-3.201976 -7.21639,-5.141865 -0.8509,-3.638688 4.66217,-1.405819 6.16864,-0.85802 6.4102,2.330856 11.40867,6.762847 17.462,9.626486 -3.04775,-4.326723 -9.06374,-8.762721 -13.9695,-10.793855 -4.53009,-1.875612 -9.59891,-1.495196 -11.87424,-6.668172 12.04011,0.0013 20.07997,6.650501 30.38399,11.524937 -7.44271,-10.347753 -20.93037,-10.360042 -31.42666,-14.966408 -2.80975,-1.23314 -4.32105,-4.946058 -6.98983,-6.639887 C 797.86153,13.999141 789.17422,11.006552 781.59283,7.2158607 777.30582,5.0723039 772.35231,1.5095069 767.62334,0.66652412 V 2.4127233 C 762.89361,0.60228752 755.9401,-1.750677 750.85985,-1.750677 c -3.12268,0 -6.43077,1.42620998 -9.4295,2.19730316 C 734.90077,2.1255915 728.39253,3.882098 721.87286,5.5963059 712.0009,8.1918404 701.36973,9.939909 691.83812,13.588421 m 82.07146,-3.8416459 v 0.3492499 h -18.50974 c -2.88721,0 -6.25246,-0.4740147 -9.08024,0.136398 -4.21437,0.909701 -8.72465,3.791969 -12.57275,5.714497 -3.00228,1.500005 -6.06247,2.885082 -9.08024,4.354997 -0.94996,0.462193 -2.97409,1.236581 -2.1336,2.651918 0.93726,1.57675 3.63804,0.22164 4.9276,-0.136906 4.55498,-1.266467 9.28319,-3.009024 13.96974,-3.640616 4.556,6.409269 9.7249,-1.431026 14.66799,-3.155017 2.85954,-0.997331 6.77342,-0.337388 9.77875,-0.337388 v 0.34925 c -4.97662,2.64871 -9.83971,5.964449 -13.96975,9.809995 -2.39014,2.225449 -4.37007,5.457982 -7.01598,7.314644 -3.57734,2.510228 -8.04037,4.039223 -11.84301,6.2222 -10.43991,5.993416 -22.20569,14.172645 -28.28849,24.848354 7.46608,-7.14533 15.48232,-13.95828 24.09775,-19.673619 4.24053,-2.813076 9.55446,-6.102692 14.66799,-6.868661 -0.1778,2.290752 0.2032,7.505773 -0.72136,9.398235 -1.52654,3.111809 -6.8039,5.831479 -9.40613,8.117956 -7.2738,6.391865 -15.40358,13.431585 -20.25574,21.947989 7.98068,-7.980893 15.55877,-16.299316 24.79599,-22.900578 1.21666,-0.870105 4.56921,-3.98022 6.15036,-3.236144 1.09728,0.516593 1.85674,2.49874 2.58597,3.436088 0.65786,0.845465 2.02184,1.986529 2.02184,3.143165 0,2.554663 -5.24916,7.033347 -6.78434,9.080254 -5.59587,7.461206 -11.88644,15.625434 -15.84681,24.097597 6.87197,-7.941412 12.90371,-16.577831 19.88922,-24.446838 1.651,-1.859156 5.30631,-7.713656 8.31952,-5.826065 2.1336,1.336083 0.48514,4.332755 0.2032,6.175306 -0.4826,3.035785 0.72644,6.899531 1.64338,9.778733 3.64515,11.456611 14.4056,19.433443 26.18308,20.954433 l -0.35052,3.143168 c 3.57632,-0.16383 6.5852,-2.430731 10.12799,-2.940793 2.07518,-0.298628 4.19024,-0.548234 6.28625,-0.551612 1.61036,-0.0026 3.32587,-0.145542 4.88823,0.329311 3.01015,0.914984 4.27253,4.847514 4.17703,7.703234 -0.2286,6.47405 -4.52501,11.81926 -4.52501,18.50975 -1.651,-1.33094 -2.88036,-3.34552 -4.88925,-4.21245 -1.53162,-0.66068 -3.60629,-0.32769 -5.23875,-0.32769 -9.32078,0 -13.05509,4.71113 -20.25599,9.77874 -0.48006,-2.58231 -0.26416,-5.13989 0.40386,-7.68329 0.27686,-1.05939 1.17602,-2.67379 0.40132,-3.68993 -1.72974,-2.26553 -6.83209,1.71419 -8.48766,2.71335 -8.11251,4.8961 -14.95273,12.01287 -23.04974,16.69239 -1.6002,-5.26774 -0.29972,-11.55436 1.04648,-16.76354 -3.52552,-0.15722 -8.36371,4.68269 -11.17549,6.68489 -5.8961,4.19841 -11.88136,8.27468 -17.8115,12.42552 -3.06756,2.14727 -6.26618,5.05287 -9.77849,6.38415 v -20.60525 c 0,-2.94796 0.70866,-6.98251 -0.28702,-9.77873 -1.38938,-3.90202 -4.47345,-7.59588 -6.55091,-11.1757 -5.30733,-9.144705 -11.001,-18.070268 -16.26566,-27.240762 -2.25552,-3.930833 -7.78103,-9.952727 -7.2169,-14.668103 0.65532,-5.474107 6.45414,-9.6622 10.06323,-13.27114 -3.82981,0.0025 -6.80898,1.941063 -10.47725,2.380277 -6.09524,0.729793 -14.56715,-0.560865 -20.60524,-1.681798 l -0.6985,-4.540126 c 8.61644,-5.682396 18.25117,-10.086985 27.24074,-15.165553 2.80594,-1.58513 8.38962,-3.068666 8.03249,-6.836601 l 9.4295,-2.095444 -0.34798,-3.492405 c 13.4079,-1.80551 27.04795,-6.975549 40.16273,-10.3478718 4.556,-1.1715242 9.95122,-3.609152 14.66825,-3.5939958 2.53746,0.00814 5.26212,1.2302998 7.68325,1.9205447 5.00913,1.4281658 10.05535,2.7513864 15.01724,4.3380177 M 796.272,16.731572 c -3.45669,2.073849 -8.45719,1.291054 -12.2235,2.725201 -1.3335,0.50816 -3.48742,1.624925 -3.68401,3.216737 -0.29972,2.426256 2.87401,3.662165 4.73049,2.726555 1.67132,-0.842289 2.41808,-2.842642 4.19354,-3.519616 4.51765,-1.722508 5.01803,4.928249 5.16408,7.773022 0.127,2.406549 -0.2032,6.426087 -1.81864,8.3171 -3.33274,3.883468 -9.6007,3.431069 -13.46023,6.535864 -6.58901,5.300372 -13.48739,18.150074 -23.7622,12.387797 1.76022,-5.177432 9.5791,-10.98138 13.96974,-14.067174 1.40208,-0.985659 5.99872,-2.187315 5.0894,-4.427216 -1.44018,-3.545066 -5.47268,1.395801 -6.83565,2.577536 -3.6576,3.17129 -7.21537,6.463849 -10.82649,9.688462 -1.08204,0.966635 -2.94742,3.382948 -4.53492,3.363592 -1.524,-0.01857 -2.86055,-2.572484 -3.36956,-3.77077 -1.29794,-3.052583 1.83388,-4.435071 4.06273,-5.779991 4.17423,-2.518202 8.48893,-4.998611 12.92199,-7.034114 2.5019,-1.148982 6.30962,-2.143244 8.28421,-4.086876 1.25984,-1.240759 1.01092,-4.177221 -1.30048,-3.593186 -2.47396,0.625378 -5.61136,3.463181 -8.03122,4.693187 -2.36474,1.20145 -4.6609,2.54378 -6.98475,3.820084 -3.46354,1.902161 -6.82549,4.17379 -10.47724,5.694567 0,-2.560461 -0.46736,-6.149588 1.29286,-8.285841 1.19126,-1.445189 3.67588,-1.858749 5.34238,-2.544388 4.48259,-1.844053 8.94461,-3.766039 13.62049,-5.085272 2.08788,-0.5891 6.74929,-0.276032 8.16966,-2.006513 1.03632,-1.262449 0.2032,-3.566021 -1.54178,-3.438509 -3.36042,0.246076 -7.21131,2.447626 -10.4709,3.401045 -2.79984,0.819013 -5.54075,1.935628 -8.38174,2.592894 8.3025,-11.77863 27.81147,-19.4893232 40.86123,-11.874177 m 10.47725,7.683291 3.84149,5.937088 c -1.82372,0.203733 -5.24611,3.31219 -2.0574,4.39811 0.92456,0.315189 2.1971,-0.342196 3.10515,-0.556463 l 0.35052,3.143164 c -4.39166,-1.841208 -4.98627,4.298608 -0.35052,3.492406 l -0.6985,5.238608 c -3.78333,-2.633245 -11.36218,-4.773942 -13.42034,-9.080254 -1.016,-2.127684 -0.54864,-5.040198 -0.54864,-7.334051 0,-1.999744 -0.53848,-7.278982 2.16154,-7.907493 2.51206,-0.584888 5.13791,2.295804 7.61771,2.668886 m -17.81149,35.971774 c -3.81889,-1.981147 -10.18363,-9.425051 -7.32435,-14.244214 1.40716,-2.369119 6.747,-2.415375 7.81076,0.307472 1.4605,3.739137 -1.27,9.716514 -0.48768,13.936741 m 14.31899,-1.396961 c 0.98552,-4.135455 -2.3241,-7.935748 -1.2446,-11.873911 0.80264,-2.933661 4.16154,-2.891382 5.73405,-0.634075 2.59995,3.732209 -0.87122,10.816895 -4.48843,12.507985 m -98.83496,5.238608 0.34798,0.349242 -0.34798,-0.349242 m 8.38175,12.921899 -0.35052,0.698475 0.35052,-0.698475 m 90.10396,4.843016 c 1.3208,0 1.5494,1.887753 1.74498,2.840276 0.43434,2.121941 1.3208,8.679856 -2.0955,8.628344 -4.75514,-0.07163 -1.84658,-5.292803 -1.44272,-7.929862 0.1524,-1.062812 0.2286,-3.538758 1.79324,-3.538758 m -13.6205,11.92053 c -5.83209,2.806639 -9.59536,-2.007743 -8.05764,-7.683292 0.29972,-1.11092 1.57988,-4.49547 3.28981,-3.462221 1.0541,0.636677 1.14046,2.739962 1.40716,3.811461 0.69596,2.815989 1.78562,4.91855 3.36169,7.334052 m -63.56172,-3.143164 -0.6985,1.396949 0.6985,-1.396949"
       id="path1"
       sodipodi:nodetypes="ccssssccssssccccscssscsssssssssccssscsccsssccssscccsssssscsccssscscsscssssscssssccsssscsscsssccsscssssscsccscccsssccssssssscsssssssssssscssssssccccsccccsssccssccssccccccccsssccssscccc"
       inkscape:export-filename="Wildcat.png"
       inkscape:export-xdpi="96"
       inkscape:export-ydpi="96" /><path
       style="fill:#ffd700;fill-opacity:1;stroke:none;stroke-width:1.31996"
       d="m 691.83761,13.588421 c 0.82296,4.522671 -4.93928,4.528052 -8.38174,5.238609 0.68326,4.766139 -5.02946,6.369558 -8.731,8.479857 -6.55752,3.738243 -13.04899,7.607952 -19.55749,11.430626 -2.49174,1.462775 -6.65709,2.945257 -8.51484,5.160997 -1.31064,1.563929 1.10998,4.06687 1.43764,5.661686 0.34036,1.663103 -0.47244,3.562631 -0.60452,5.238608 7.03478,0 15.50924,0.117221 22.35124,1.746204 -3.98247,8.515562 1.01854,13.691734 5.37819,20.954432 5.18236,8.632855 10.42162,17.235693 15.64716,25.8438 2.4511,4.03885 5.81152,8.19529 7.58622,12.57266 1.35382,3.34019 0.37592,8.64479 0.37592,12.22342 v 27.59 l 10.47725,-7.08641 27.24074,-19.45587 c 0,5.88771 0.25908,11.11779 2.0955,16.76354 3.61315,-1.38984 6.81786,-4.8012 9.77874,-7.24673 6.62178,-5.46917 13.51433,-12.22155 20.95449,-16.50162 -0.65024,2.7334 -1.29032,9.99636 2.4511,11.0035 1.77038,0.47656 4.02895,-2.4653 5.23316,-3.45468 3.77292,-3.10021 8.2959,-6.40159 13.271,-7.09448 7.50265,-1.04491 10.5857,7.14994 15.71599,10.72135 0.0135,-4.91136 0.0508,-10.65768 1.57734,-15.36658 1.3716,-4.25324 4.60426,-9.40372 4.24485,-13.96962 -0.30988,-3.9518 -3.41808,-6.29118 -4.11582,-9.778735 -0.75184,-3.752034 0.51054,-7.209823 -0.9017,-11.175697 -1.64084,-4.610029 -4.75208,-8.936591 -3.33933,-13.969622 1.14046,-4.063565 4.00126,-7.154409 5.91134,-10.826455 1.59512,-3.06826 1.83388,-6.316523 3.60908,-9.429495 1.00076,-1.754762 0.53594,-5.167262 2.51714,-6.208718 1.62052,-0.851518 4.22072,1.061428 5.51307,1.930256 4.33985,2.917748 8.57174,7.19555 10.8265,11.961754 h 0.34798 c -1.50114,-5.210162 -5.63524,-10.706022 -9.77875,-14.103815 -1.57734,-1.294497 -6.76224,-3.201976 -7.21639,-5.141865 -0.8509,-3.638688 4.66217,-1.405819 6.16864,-0.85802 6.4102,2.330856 11.40867,6.762847 17.462,9.626486 -3.04775,-4.326723 -9.06374,-8.762721 -13.9695,-10.793855 -4.53009,-1.875612 -9.59891,-1.495196 -11.87424,-6.668172 12.04011,0.0013 20.07997,6.650501 30.38399,11.524937 -7.44271,-10.347753 -20.93037,-10.360042 -31.42666,-14.966408 -2.80975,-1.23314 -4.32105,-4.946058 -6.98983,-6.639887 C 797.86153,13.999141 789.17422,11.006552 781.59283,7.2158607 777.30582,5.0723039 772.35231,1.5095069 767.62334,0.66652412 V 2.4127233 C 762.89361,0.60228752 755.9401,-1.750677 750.85985,-1.750677 c -3.12268,0 -6.43077,1.42620998 -9.4295,2.19730316 C 734.90077,2.1255915 728.39253,3.882098 721.87286,5.5963059 712.0009,8.1918404 701.36973,9.939909 691.83812,13.588421 m 82.07146,-3.8416459 v 0.3492499 h -18.50974 c -2.88721,0 -6.25246,-0.4740147 -9.08024,0.136398 -4.21437,0.909701 -8.72465,3.791969 -12.57275,5.714497 -3.00228,1.500005 -6.06247,2.885082 -9.08024,4.354997 -0.94996,0.462193 -2.97409,1.236581 -2.1336,2.651918 0.93726,1.57675 3.63804,0.22164 4.9276,-0.136906 4.55498,-1.266467 9.28319,-3.009024 13.96974,-3.640616 4.556,6.409269 9.7249,-1.431026 14.66799,-3.155017 2.85954,-0.997331 6.77342,-0.337388 9.77875,-0.337388 v 0.34925 c -4.97662,2.64871 -9.83971,5.964449 -13.96975,9.809995 -2.39014,2.225449 -4.37007,5.457982 -7.01598,7.314644 -3.57734,2.510228 -8.04037,4.039223 -11.84301,6.2222 -10.43991,5.993416 -22.20569,14.172645 -28.28849,24.848354 7.46608,-7.14533 15.48232,-13.95828 24.09775,-19.673619 4.24053,-2.813076 9.55446,-6.102692 14.66799,-6.868661 -0.1778,2.290752 0.2032,7.505773 -0.72136,9.398235 -1.52654,3.111809 -6.8039,5.831479 -9.40613,8.117956 -7.2738,6.391865 -15.40358,13.431585 -20.25574,21.947989 7.98068,-7.980893 15.55877,-16.299316 24.79599,-22.900578 1.21666,-0.870105 4.56921,-3.98022 6.15036,-3.236144 1.09728,0.516593 1.85674,2.49874 2.58597,3.436088 0.65786,0.845465 2.02184,1.986529 2.02184,3.143165 0,2.554663 -5.24916,7.033347 -6.78434,9.080254 -5.59587,7.461206 -11.88644,15.625434 -15.84681,24.097597 6.87197,-7.941412 12.90371,-16.577831 19.88922,-24.446838 1.651,-1.859156 5.30631,-7.713656 8.31952,-5.826065 2.1336,1.336083 0.48514,4.332755 0.2032,6.175306 -0.4826,3.035785 0.72644,6.899531 1.64338,9.778733 3.64515,11.456611 14.4056,19.433443 26.18308,20.954433 l -0.35052,3.143168 c 3.57632,-0.16383 6.5852,-2.430731 10.12799,-2.940793 2.07518,-0.298628 4.19024,-0.548234 6.28625,-0.551612 1.61036,-0.0026 3.32587,-0.145542 4.88823,0.329311 3.01015,0.914984 4.27253,4.847514 4.17703,7.703234 -0.2286,6.47405 -4.52501,11.81926 -4.52501,18.50975 -1.651,-1.33094 -2.88036,-3.34552 -4.88925,-4.21245 -1.53162,-0.66068 -3.60629,-0.32769 -5.23875,-0.32769 -9.32078,0 -13.05509,4.71113 -20.25599,9.77874 -0.48006,-2.58231 -0.26416,-5.13989 0.40386,-7.68329 0.27686,-1.05939 1.17602,-2.67379 0.40132,-3.68993 -1.72974,-2.26553 -6.83209,1.71419 -8.48766,2.71335 -8.11251,4.8961 -14.95273,12.01287 -23.04974,16.69239 -1.6002,-5.26774 -0.29972,-11.55436 1.04648,-16.76354 -3.52552,-0.15722 -8.36371,4.68269 -11.17549,6.68489 -5.8961,4.19841 -11.88136,8.27468 -17.8115,12.42552 -3.06756,2.14727 -6.26618,5.05287 -9.77849,6.38415 v -20.60525 c 0,-2.94796 0.70866,-6.98251 -0.28702,-9.77873 -1.38938,-3.90202 -4.47345,-7.59588 -6.55091,-11.1757 -5.30733,-9.144705 -11.001,-18.070268 -16.26566,-27.240762 -2.25552,-3.930833 -7.78103,-9.952727 -7.2169,-14.668103 0.65532,-5.474107 6.45414,-9.6622 10.06323,-13.27114 -3.82981,0.0025 -6.80898,1.941063 -10.47725,2.380277 -6.09524,0.729793 -14.56715,-0.560865 -20.60524,-1.681798 l -0.6985,-4.540126 c 8.61644,-5.682396 18.25117,-10.086985 27.24074,-15.165553 2.80594,-1.58513 8.38962,-3.068666 8.03249,-6.836601 l 9.4295,-2.095444 -0.34798,-3.492405 c 13.4079,-1.80551 27.04795,-6.975549 40.16273,-10.3478718 4.556,-1.1715242 9.95122,-3.609152 14.66825,-3.5939958 2.53746,0.00814 5.26212,1.2302998 7.68325,1.9205447 5.00913,1.4281658 10.05535,2.7513864 15.01724,4.3380177 M 796.272,16.731572 c -3.45669,2.073849 -8.45719,1.291054 -12.2235,2.725201 -1.3335,0.50816 -3.48742,1.624925 -3.68401,3.216737 -0.29972,2.426256 2.87401,3.662165 4.73049,2.726555 1.67132,-0.842289 2.41808,-2.842642 4.19354,-3.519616 4.51765,-1.722508 5.01803,4.928249 5.16408,7.773022 0.127,2.406549 -0.2032,6.426087 -1.81864,8.3171 -3.33274,3.883468 -9.6007,3.431069 -13.46023,6.535864 -6.58901,5.300372 -13.48739,18.150074 -23.7622,12.387797 1.76022,-5.177432 9.5791,-10.98138 13.96974,-14.067174 1.40208,-0.985659 5.99872,-2.187315 5.0894,-4.427216 -1.44018,-3.545066 -5.47268,1.395801 -6.83565,2.577536 -3.6576,3.17129 -7.21537,6.463849 -10.82649,9.688462 -1.08204,0.966635 -2.94742,3.382948 -4.53492,3.363592 -1.524,-0.01857 -2.86055,-2.572484 -3.36956,-3.77077 -1.29794,-3.052583 1.83388,-4.435071 4.06273,-5.779991 4.17423,-2.518202 8.48893,-4.998611 12.92199,-7.034114 2.5019,-1.148982 6.30962,-2.143244 8.28421,-4.086876 1.25984,-1.240759 1.01092,-4.177221 -1.30048,-3.593186 -2.47396,0.625378 -5.61136,3.463181 -8.03122,4.693187 -2.36474,1.20145 -4.6609,2.54378 -6.98475,3.820084 -3.46354,1.902161 -6.82549,4.17379 -10.47724,5.694567 0,-2.560461 -0.46736,-6.149588 1.29286,-8.285841 1.19126,-1.445189 3.67588,-1.858749 5.34238,-2.544388 4.48259,-1.844053 8.94461,-3.766039 13.62049,-5.085272 2.08788,-0.5891 6.74929,-0.276032 8.16966,-2.006513 1.03632,-1.262449 0.2032,-3.566021 -1.54178,-3.438509 -3.36042,0.246076 -7.21131,2.447626 -10.4709,3.401045 -2.79984,0.819013 -5.54075,1.935628 -8.38174,2.592894 8.3025,-11.77863 27.81147,-19.4893232 40.86123,-11.874177 m 10.47725,7.683291 3.84149,5.937088 c -1.82372,0.203733 -5.24611,3.31219 -2.0574,4.39811 0.92456,0.315189 2.1971,-0.342196 3.10515,-0.556463 l 0.35052,3.143164 c -4.39166,-1.841208 -4.98627,4.298608 -0.35052,3.492406 l -0.6985,5.238608 c -3.78333,-2.633245 -11.36218,-4.773942 -13.42034,-9.080254 -1.016,-2.127684 -0.54864,-5.040198 -0.54864,-7.334051 0,-1.999744 -0.53848,-7.278982 2.16154,-7.907493 2.51206,-0.584888 5.13791,2.295804 7.61771,2.668886 m -17.81149,35.971774 c -3.81889,-1.981147 -10.18363,-9.425051 -7.32435,-14.244214 1.40716,-2.369119 6.747,-2.415375 7.81076,0.307472 1.4605,3.739137 -1.27,9.716514 -0.48768,13.936741 m 14.31899,-1.396961 c 0.98552,-4.135455 -2.3241,-7.935748 -1.2446,-11.873911 0.80264,-2.933661 4.16154,-2.891382 5.73405,-0.634075 2.59995,3.732209 -0.87122,10.816895 -4.48843,12.507985 m -98.83496,5.238608 0.34798,0.349242 -0.34798,-0.349242 m 8.38175,12.921899 -0.35052,0.698475 0.35052,-0.698475 m 90.10396,4.843016 c 1.3208,0 1.5494,1.887753 1.74498,2.840276 0.43434,2.121941 1.3208,8.679856 -2.0955,8.628344 -4.75514,-0.07163 -1.84658,-5.292803 -1.44272,-7.929862 0.1524,-1.062812 0.2286,-3.538758 1.79324,-3.538758 m -13.6205,11.92053 c -5.83209,2.806639 -9.59536,-2.007743 -8.05764,-7.683292 0.29972,-1.11092 1.57988,-4.49547 3.28981,-3.462221 1.0541,0.636677 1.14046,2.739962 1.40716,3.811461 0.69596,2.815989 1.78562,4.91855 3.36169,7.334052 m -63.56172,-3.143164 -0.6985,1.396949 0.6985,-1.396949"
       id="path2"
       sodipodi:nodetypes="ccssssccssssccccscssscsssssssssccssscsccsssccssscccsssssscsccssscscsscssssscssssccsssscsscsssccsscssssscsccscccsssccssssssscsssssssssssscssssssccccsccccsssccssccssccccccccsssccssscccc"
       inkscape:export-filename="Wildcat.png"
       inkscape:export-xdpi="96"
       inkscape:export-ydpi="96" /></g></svg>
