  0
SECTION
  2
HEADER
  9
$ACADVER
  1
AC1015
  9
$ACADMAINTVER
 70
     6
  9
$DWGCODEPAGE
  3
ANSI_1252
  9
$INSBASE
 10
0.0
 20
0.0
 30
0.0
  9
$EXTMIN
 10
-4.2907912318
 20
-2.9209402122
 30
0.0
  9
$EXTMAX
 10
5.285058492
 20
8.6290597878
 30
0.0
  9
$LIMMIN
 10
0.0
 20
0.0
  9
$LIMMAX
 10
12.0
 20
9.0
  9
$ORTHOMODE
 70
     0
  9
$REGENMODE
 70
     1
  9
$FILLMODE
 70
     1
  9
$QTEXTMODE
 70
     0
  9
$MIRRTEXT
 70
     1
  9
$LTSCALE
 40
1.0
  9
$ATTMODE
 70
     1
  9
$TEXTSIZE
 40
0.1377952756
  9
$TRACEWID
 40
0.05
  9
$TEXTSTYLE
  7
Standard
  9
$CLAYER
  8
0
  9
$CELTYPE
  6
ByLayer
  9
$CECOLOR
 62
   256
  9
$CELTSCALE
 40
1.0
  9
$DISPSILH
 70
     0
  9
$DIMSCALE
 40
1.0
  9
$DIMASZ
 40
0.13
  9
$DIMEXO
 40
0.0
  9
$DIMDLI
 40
0.38
  9
$DIMRND
 40
0.0
  9
$DIMDLE
 40
0.0
  9
$DIMEXE
 40
0.0393700787
  9
$DIMTP
 40
0.0
  9
$DIMTM
 40
0.0
  9
$DIMTXT
 40
0.1377952756
  9
$DIMCEN
 40
0.09
  9
$DIMTSZ
 40
0.0
  9
$DIMTOL
 70
     0
  9
$DIMLIM
 70
     0
  9
$DIMTIH
 70
     1
  9
$DIMTOH
 70
     1
  9
$DIMSE1
 70
     0
  9
$DIMSE2
 70
     0
  9
$DIMTAD
 70
     1
  9
$DIMZIN
 70
     1
  9
$DIMBLK
  1

  9
$DIMASO
 70
     1
  9
$DIMSHO
 70
     1
  9
$DIMPOST
  1

  9
$DIMAPOST
  1

  9
$DIMALT
 70
     0
  9
$DIMALTD
 70
     2
  9
$DIMALTF
 40
25.4
  9
$DIMLFAC
 40
1.0
  9
$DIMTOFL
 70
     0
  9
$DIMTVP
 40
0.0
  9
$DIMTIX
 70
     0
  9
$DIMSOXD
 70
     0
  9
$DIMSAH
 70
     0
  9
$DIMBLK1
  1

  9
$DIMBLK2
  1

  9
$DIMSTYLE
  2
Standard
  9
$DIMCLRD
 70
     0
  9
$DIMCLRE
 70
     0
  9
$DIMCLRT
 70
     0
  9
$DIMTFAC
 40
1.0
  9
$DIMGAP
 40
0.06
  9
$DIMJUST
 70
     0
  9
$DIMSD1
 70
     0
  9
$DIMSD2
 70
     0
  9
$DIMTOLJ
 70
     1
  9
$DIMTZIN
 70
     1
  9
$DIMALTZ
 70
     0
  9
$DIMALTTZ
 70
     0
  9
$DIMUPT
 70
     0
  9
$DIMDEC
 70
     2
  9
$DIMTDEC
 70
     2
  9
$DIMALTU
 70
     2
  9
$DIMALTTD
 70
     2
  9
$DIMTXSTY
  7
Standard
  9
$DIMAUNIT
 70
     0
  9
$DIMADEC
 70
     2
  9
$DIMALTRND
 40
0.0
  9
$DIMAZIN
 70
     0
  9
$DIMDSEP
 70
    46
  9
$DIMATFIT
 70
     3
  9
$DIMFRAC
 70
     0
  9
$DIMLDRBLK
  1

  9
$DIMLUNIT
 70
     2
  9
$DIMLWD
 70
    -2
  9
$DIMLWE
 70
    -2
  9
$DIMTMOVE
 70
     0
  9
$LUNITS
 70
     2
  9
$LUPREC
 70
     2
  9
$SKETCHINC
 40
0.1
  9
$FILLETRAD
 40
0.0
  9
$AUNITS
 70
     0
  9
$AUPREC
 70
     2
  9
$MENU
  1
.
  9
$ELEVATION
 40
0.0
  9
$PELEVATION
 40
0.0
  9
$THICKNESS
 40
0.0
  9
$LIMCHECK
 70
     0
  9
$CHAMFERA
 40
0.0
  9
$CHAMFERB
 40
0.0
  9
$CHAMFERC
 40
0.0
  9
$CHAMFERD
 40
0.0
  9
$SKPOLY
 70
     0
  9
$TDCREATE
 40
2460752.708702824
  9
$TDUCREATE
 40
2460752.917036158
  9
$TDUPDATE
 40
2460752.708735579
  9
$TDUUPDATE
 40
2460752.917068912
  9
$TDINDWG
 40
0.0000000116
  9
$TDUSRTIMER
 40
0.0000000116
  9
$USRTIMER
 70
     1
  9
$ANGBASE
 50
0.0
  9
$ANGDIR
 70
     0
  9
$PDMODE
 70
     0
  9
$PDSIZE
 40
-1.0
  9
$PLINEWID
 40
0.0
  9
$SPLFRAME
 70
     0
  9
$SPLINETYPE
 70
     6
  9
$SPLINESEGS
 70
     8
  9
$HANDSEED
  5
165
  9
$SURFTAB1
 70
     6
  9
$SURFTAB2
 70
     6
  9
$SURFTYPE
 70
     6
  9
$SURFU
 70
     6
  9
$SURFV
 70
     6
  9
$UCSBASE
  2

  9
$UCSNAME
  2

  9
$UCSORG
 10
0.0
 20
0.0
 30
0.0
  9
$UCSXDIR
 10
1.0
 20
0.0
 30
0.0
  9
$UCSYDIR
 10
0.0
 20
1.0
 30
0.0
  9
$UCSORTHOREF
  2

  9
$UCSORTHOVIEW
 70
     0
  9
$UCSORGTOP
 10
0.0
 20
0.0
 30
0.0
  9
$UCSORGBOTTOM
 10
0.0
 20
0.0
 30
0.0
  9
$UCSORGLEFT
 10
0.0
 20
0.0
 30
0.0
  9
$UCSORGRIGHT
 10
0.0
 20
0.0
 30
0.0
  9
$UCSORGFRONT
 10
0.0
 20
0.0
 30
0.0
  9
$UCSORGBACK
 10
0.0
 20
0.0
 30
0.0
  9
$PUCSBASE
  2

  9
$PUCSNAME
  2

  9
$PUCSORG
 10
0.0
 20
0.0
 30
0.0
  9
$PUCSXDIR
 10
1.0
 20
0.0
 30
0.0
  9
$PUCSYDIR
 10
0.0
 20
1.0
 30
0.0
  9
$PUCSORTHOREF
  2

  9
$PUCSORTHOVIEW
 70
     0
  9
$PUCSORGTOP
 10
0.0
 20
0.0
 30
0.0
  9
$PUCSORGBOTTOM
 10
0.0
 20
0.0
 30
0.0
  9
$PUCSORGLEFT
 10
0.0
 20
0.0
 30
0.0
  9
$PUCSORGRIGHT
 10
0.0
 20
0.0
 30
0.0
  9
$PUCSORGFRONT
 10
0.0
 20
0.0
 30
0.0
  9
$PUCSORGBACK
 10
0.0
 20
0.0
 30
0.0
  9
$USERI1
 70
     0
  9
$USERI2
 70
     0
  9
$USERI3
 70
     0
  9
$USERI4
 70
     0
  9
$USERI5
 70
     0
  9
$USERR1
 40
0.0
  9
$USERR2
 40
0.0
  9
$USERR3
 40
0.0
  9
$USERR4
 40
0.0
  9
$USERR5
 40
0.0
  9
$WORLDVIEW
 70
     1
  9
$SHADEDGE
 70
     3
  9
$SHADEDIF
 70
    70
  9
$TILEMODE
 70
     1
  9
$MAXACTVP
 70
    64
  9
$PINSBASE
 10
0.0
 20
0.0
 30
0.0
  9
$PLIMCHECK
 70
     0
  9
$PEXTMIN
 10
1.0000000000E+20
 20
1.0000000000E+20
 30
1.0000000000E+20
  9
$PEXTMAX
 10
-1.0000000000E+20
 20
-1.0000000000E+20
 30
-1.0000000000E+20
  9
$PLIMMIN
 10
0.0
 20
0.0
  9
$PLIMMAX
 10
12.0
 20
9.0
  9
$UNITMODE
 70
     0
  9
$VISRETAIN
 70
     1
  9
$PLINEGEN
 70
     0
  9
$PSLTSCALE
 70
     1
  9
$TREEDEPTH
 70
  3020
  9
$CMLSTYLE
  2
Standard
  9
$CMLJUST
 70
     0
  9
$CMLSCALE
 40
1.0
  9
$PROXYGRAPHICS
 70
     1
  9
$MEASUREMENT
 70
     0
  9
$CELWEIGHT
370
    -1
  9
$ENDCAPS
280
     0
  9
$JOINSTYLE
280
     0
  9
$LWDISPLAY
290
     1
  9
$INSUNITS
 70
     1
  9
$HYPERLINKBASE
  1

  9
$STYLESHEET
  1

  9
$XEDIT
290
     1
  9
$CEPSNTYPE
380
     0
  9
$PSTYLEMODE
290
     1
  9
$FINGERPRINTGUID
  2
{ed36b34b-dc19-474c-9706-dfa7ec8c9c1e}
  9
$VERSIONGUID
  2
{FAEB1C32-E019-11D5-929B-00C0DF256EC4}
  9
$EXTNAMES
290
     1
  9
$PSVPSCALE
 40
0.0
  9
$OLESTARTUP
290
     0
  0
ENDSEC
  0
SECTION
  2
CLASSES
  0
CLASS
  1
ACDBDICTIONARYWDFLT
  2
AcDbDictionaryWithDefault
  3
ObjectDBX Classes
 90
        0
280
     0
281
     0
  0
CLASS
  1
VISUALSTYLE
  2
AcDbVisualStyle
  3
ObjectDBX Classes
 90
     4095
280
     0
281
     0
  0
CLASS
  1
MATERIAL
  2
AcDbMaterial
  3
ObjectDBX Classes
 90
     1153
280
     0
281
     0
  0
CLASS
  1
SCALE
  2
AcDbScale
  3
ObjectDBX Classes
 90
     1153
280
     0
281
     0
  0
CLASS
  1
TABLESTYLE
  2
AcDbTableStyle
  3
ObjectDBX Classes
 90
     4095
280
     0
281
     0
  0
CLASS
  1
MLEADERSTYLE
  2
AcDbMLeaderStyle
  3
ACDB_MLEADERSTYLE_CLASS
 90
     4095
280
     0
281
     0
  0
CLASS
  1
SUN
  2
AcDbSun
  3
SCENEOE
 90
     1153
280
     0
281
     0
  0
CLASS
  1
ACDBPLACEHOLDER
  2
AcDbPlaceHolder
  3
ObjectDBX Classes
 90
        0
280
     0
281
     0
  0
CLASS
  1
LAYOUT
  2
AcDbLayout
  3
ObjectDBX Classes
 90
        0
280
     0
281
     0
  0
ENDSEC
  0
SECTION
  2
TABLES
  0
TABLE
  2
VPORT
  5
8
330
0
100
AcDbSymbolTable
 70
     1
  0
VPORT
  5
29
330
8
100
AcDbSymbolTableRecord
100
AcDbViewportTableRecord
  2
*Active
 70
     0
 10
0.0
 20
0.0
 11
1.0
 21
1.0
 12
0.4971336301
 22
2.8540597878
 13
0.0
 23
0.0
 14
0.5
 24
0.5
 15
0.5
 25
0.5
 16
0.0
 26
0.0
 36
1.0
 17
0.0
 27
0.0
 37
0.0
 40
11.781
 41
0.8290778982
 42
50.0
 43
0.0
 44
0.0
 50
0.0
 51
0.0
 71
     0
 72
   100
 73
     1
 74
     3
 75
     0
 76
     0
 77
     0
 78
     0
281
     0
 65
     1
110
0.0
120
0.0
130
0.0
111
1.0
121
0.0
131
0.0
112
0.0
122
1.0
132
0.0
 79
     0
146
0.0
  0
ENDTAB
  0
TABLE
  2
LTYPE
  5
5
330
0
100
AcDbSymbolTable
 70
     6
  0
LTYPE
  5
14
330
5
100
AcDbSymbolTableRecord
100
AcDbLinetypeTableRecord
  2
ByBlock
 70
     0
  3

 72
    65
 73
     0
 40
0.0
  0
LTYPE
  5
15
330
5
100
AcDbSymbolTableRecord
100
AcDbLinetypeTableRecord
  2
ByLayer
 70
     0
  3

 72
    65
 73
     0
 40
0.0
  0
LTYPE
  5
16
330
5
100
AcDbSymbolTableRecord
100
AcDbLinetypeTableRecord
  2
Continuous
 70
     0
  3
Solid line
 72
    65
 73
     0
 40
0.0
  0
LTYPE
  5
5E
330
5
100
AcDbSymbolTableRecord
100
AcDbLinetypeTableRecord
  2
HIDDEN
 70
     0
  3
Hidden __ __ __ __ __ __ __ __ __ __ __ __ __ __
 72
    65
 73
     2
 40
0.075
 49
0.05
 74
     0
 49
-0.025
 74
     0
  0
LTYPE
  5
5F
330
5
100
AcDbSymbolTableRecord
100
AcDbLinetypeTableRecord
  2
PHANTOM
 70
     0
  3
Phantom ______  __  __  ______  __  __  ______
 72
    65
 73
     6
 40
0.5
 49
0.25
 74
     0
 49
-0.05
 74
     0
 49
0.05
 74
     0
 49
-0.05
 74
     0
 49
0.05
 74
     0
 49
-0.05
 74
     0
  0
LTYPE
  5
60
330
5
100
AcDbSymbolTableRecord
100
AcDbLinetypeTableRecord
  2
CENTER
 70
     0
  3
Center ____ _ ____ _ ____ _ ____ _ ____ _ ____
 72
    65
 73
     4
 40
0.4
 49
0.25
 74
     0
 49
-0.05
 74
     0
 49
0.05
 74
     0
 49
-0.05
 74
     0
  0
LTYPE
  5
61
330
5
100
AcDbSymbolTableRecord
100
AcDbLinetypeTableRecord
  2
CENTERX2
 70
     0
  3
Center (2x) ________  __  ________  __  _____
 72
    65
 73
     4
 40
0.8
 49
0.5
 74
     0
 49
-0.1
 74
     0
 49
0.1
 74
     0
 49
-0.1
 74
     0
  0
LTYPE
  5
62
330
5
100
AcDbSymbolTableRecord
100
AcDbLinetypeTableRecord
  2
DOT2
 70
     0
  3
Dot (.5x) ........................................
 72
    65
 73
     2
 40
0.025
 49
0.0
 74
     0
 49
-0.025
 74
     0
  0
ENDTAB
  0
TABLE
  2
LAYER
  5
2
330
0
100
AcDbSymbolTable
 70
     1
  0
LAYER
  5
10
330
2
100
AcDbSymbolTableRecord
100
AcDbLayerTableRecord
  2
0
 70
     0
 62
     7
  6
Continuous
370
    -3
390
F
  0
ENDTAB
  0
TABLE
  2
STYLE
  5
3
330
0
100
AcDbSymbolTable
 70
     2
  0
STYLE
  5
11
330
3
100
AcDbSymbolTableRecord
100
AcDbTextStyleTableRecord
  2
Standard
 70
     0
 40
0.0
 41
1.0
 50
0.0
 71
     0
 42
0.1377952756
  3
txt
  4

  0
STYLE
  5
161
330
3
100
AcDbSymbolTableRecord
100
AcDbTextStyleTableRecord
  2
SLDTEXTSTYLE0
 70
     0
 40
0.0
 41
0.7
 50
0.0
 71
     0
 42
0.1377952756
  3
TXT
  4

  0
ENDTAB
  0
TABLE
  2
VIEW
  5
6
330
0
100
AcDbSymbolTable
 70
     0
  0
ENDTAB
  0
TABLE
  2
UCS
  5
7
330
0
100
AcDbSymbolTable
 70
     0
  0
ENDTAB
  0
TABLE
  2
APPID
  5
9
330
0
100
AcDbSymbolTable
 70
     1
  0
APPID
  5
12
330
9
100
AcDbSymbolTableRecord
100
AcDbRegAppTableRecord
  2
ACAD
 70
     0
  0
ENDTAB
  0
TABLE
  2
DIMSTYLE
  5
A
330
0
100
AcDbSymbolTable
 70
     1
100
AcDbDimStyleTable
  0
DIMSTYLE
105
27
330
A
100
AcDbSymbolTableRecord
100
AcDbDimStyleTableRecord
  2
Standard
 70
     0
178
     0
340
11
  0
ENDTAB
  0
TABLE
  2
BLOCK_RECORD
  5
1
330
0
100
AcDbSymbolTable
 70
     1
  0
BLOCK_RECORD
  5
1F
330
1
100
AcDbSymbolTableRecord
100
AcDbBlockTableRecord
  2
*Model_Space
340
22
  0
BLOCK_RECORD
  5
1B
330
1
100
AcDbSymbolTableRecord
100
AcDbBlockTableRecord
  2
*Paper_Space
340
1E
  0
BLOCK_RECORD
  5
23
330
1
100
AcDbSymbolTableRecord
100
AcDbBlockTableRecord
  2
*Paper_Space0
340
26
  0
ENDTAB
  0
ENDSEC
  0
SECTION
  2
BLOCKS
  0
BLOCK
  5
20
330
1F
100
AcDbEntity
  8
0
100
AcDbBlockBegin
  2
*Model_Space
 70
     0
 10
0.0
 20
0.0
 30
0.0
  3
*Model_Space
  1

  0
ENDBLK
  5
21
330
1F
100
AcDbEntity
  8
0
100
AcDbBlockEnd
  0
BLOCK
  5
1C
330
1B
100
AcDbEntity
 67
     1
  8
0
100
AcDbBlockBegin
  2
*Paper_Space
 70
     0
 10
0.0
 20
0.0
 30
0.0
  3
*Paper_Space
  1

  0
ENDBLK
  5
1D
330
1B
100
AcDbEntity
 67
     1
  8
0
100
AcDbBlockEnd
  0
BLOCK
  5
24
330
23
100
AcDbEntity
  8
0
100
AcDbBlockBegin
  2
*Paper_Space0
 70
     0
 10
0.0
 20
0.0
 30
0.0
  3
*Paper_Space0
  1

  0
ENDBLK
  5
25
330
23
100
AcDbEntity
  8
0
100
AcDbBlockEnd
  0
ENDSEC
  0
SECTION
  2
ENTITIES
  0
CIRCLE
  5
69
330
1F
100
AcDbEntity
  8
0
  6
Continuous
 62
     7
370
    25
100
AcDbCircle
 10
-1.0384610522
 20
1.7292253302
 30
0.0
 40
0.0674999999999997
  0
CIRCLE
  5
6A
330
1F
100
AcDbEntity
  8
0
  6
Continuous
 62
     7
370
    25
100
AcDbCircle
 10
0.3615239306
 20
1.7273948403
 30
0.0
 40
0.0675000000000001
  0
SPLINE
  5
6B
330
1F
100
AcDbEntity
  8
0
  6
Continuous
 62
     7
370
    25
100
AcDbSpline
210
0.0
220
0.0
230
1.0
 70
    11
 71
     3
 72
    31
 73
    27
 74
     0
 42
0.00000001
 43
0.00000001
 40
0.0
 40
0.0
 40
0.0
 40
0.0
 40
0.0451528282107685
 40
0.1022701624464889
 40
0.1356981438872695
 40
0.1719581754457828
 40
0.210387038861295
 40
0.2499999513801841
 40
0.2896128697796401
 40
0.3280417488005008
 40
0.3643018008031539
 40
0.3977298023546771
 40
0.454847164160264
 40
0.5000000000000001
 40
0.5451528282107686
 40
0.6022701624464888
 40
0.6356981438872696
 40
0.6719581754457828
 40
0.7103870388612951
 40
0.7499999513801842
 40
0.7896128697796402
 40
0.8280417488005009
 40
0.864301800803154
 40
0.897729802354677
 40
0.9548471641602639
 40
1.0
 40
1.0
 40
1.0
 40
1.0
 10
-0.1184640105644414
 20
1.729928949523567
 30
0.0
 10
-0.1201508511938816
 20
1.750724972241691
 30
0.0
 10
-0.1239715081057566
 20
1.7978275061449
 30
0.0
 10
-0.153637334304624
 20
1.854959717396733
 30
0.0
 10
-0.1932461780844164
 20
1.897952586059323
 30
0.0
 10
-0.2344721497981905
 20
1.926483954054561
 30
0.0
 10
-0.2838483393239412
 20
1.945711051396955
 30
0.0
 10
-0.3380095942663843
 20
1.952593842413606
 30
0.0
 10
-0.392193404738899
 20
1.945932744939803
 30
0.0
 10
-0.4416626375400881
 20
1.926907904595696
 30
0.0
 10
-0.4829555451314274
 20
1.89854538796237
 30
0.0
 10
-0.5229473387527799
 20
1.855715401334791
 30
0.0
 10
-0.5516350096811752
 20
1.798702601920211
 30
0.0
 10
-0.5614163745340818
 20
1.730835322937732
 30
0.0
 10
-0.5519129155736521
 20
1.662928583711582
 30
0.0
 10
-0.5234588707994147
 20
1.60579885278185
 30
0.0
 10
-0.4836427370301835
 20
1.562805559829919
 30
0.0
 10
-0.4424662767132147
 20
1.534274293176565
 30
0.0
 10
-0.393075334788079
 20
1.515047165638376
 30
0.0
 10
-0.3389192444747591
 20
1.508164385192892
 30
0.0
 10
-0.2847302693716198
 20
1.514825472095526
 30
0.0
 10
-0.2352757889801633
 20
1.533850342635448
 30
0.0
 10
-0.1939333699464136
 20
1.562212757926796
 30
0.0
 10
-0.1541488665093209
 20
1.605043168844117
 30
0.0
 10
-0.1242494132892386
 20
1.662053487934819
 30
0.0
 10
-0.1202359679941872
 20
1.709140002896894
 30
0.0
 10
-0.1184640105644414
 20
1.729928949523566
 30
0.0
  0
CIRCLE
  5
72
330
1F
100
AcDbEntity
  8
0
  6
Continuous
 62
     7
370
    25
100
AcDbCircle
 10
1.4615389478
 20
7.0292253302
 30
0.0
 40
0.0675000000000001
  0
CIRCLE
  5
73
330
1F
100
AcDbEntity
  8
0
  6
Continuous
 62
     7
370
    25
100
AcDbCircle
 10
2.8615239306
 20
7.0273948403
 30
0.0
 40
0.067499999999999
  0
SPLINE
  5
74
330
1F
100
AcDbEntity
  8
0
  6
Continuous
 62
     7
370
    25
100
AcDbSpline
210
0.0
220
0.0
230
1.0
 70
    11
 71
     3
 72
    31
 73
    27
 74
     0
 42
0.00000001
 43
0.00000001
 40
0.0
 40
0.0
 40
0.0
 40
0.0
 40
0.0451528282107683
 40
0.1022701624464885
 40
0.1356981438872693
 40
0.1719581754457824
 40
0.2103870388612947
 40
0.2499999513801836
 40
0.2896128697796397
 40
0.3280417488005005
 40
0.3643018008031536
 40
0.3977298023546767
 40
0.4548471641602637
 40
0.5
 40
0.5451528282107683
 40
0.6022701624464885
 40
0.6356981438872692
 40
0.6719581754457824
 40
0.7103870388612947
 40
0.7499999513801837
 40
0.7896128697796396
 40
0.8280417488005004
 40
0.8643018008031537
 40
0.8977298023546767
 40
0.9548471641602637
 40
1.0
 40
1.0
 40
1.0
 40
1.0
 10
2.381535989435559
 20
7.029928949523567
 30
0.0
 10
2.379849148806119
 20
7.050724972241691
 30
0.0
 10
2.376028491894243
 20
7.097827506144899
 30
0.0
 10
2.346362665695377
 20
7.154959717396734
 30
0.0
 10
2.306753821915584
 20
7.197952586059323
 30
0.0
 10
2.26552785020181
 20
7.226483954054563
 30
0.0
 10
2.216151660676059
 20
7.245711051396955
 30
0.0
 10
2.161990405733616
 20
7.252593842413607
 30
0.0
 10
2.107806595261101
 20
7.245932744939804
 30
0.0
 10
2.058337362459912
 20
7.226907904595694
 30
0.0
 10
2.017044454868573
 20
7.198545387962373
 30
0.0
 10
1.97705266124722
 20
7.155715401334792
 30
0.0
 10
1.948364990318825
 20
7.098702601920211
 30
0.0
 10
1.938583625465919
 20
7.030835322937735
 30
0.0
 10
1.948087084426349
 20
6.962928583711582
 30
0.0
 10
1.976541129200585
 20
6.905798852781851
 30
0.0
 10
2.016357262969818
 20
6.86280555982992
 30
0.0
 10
2.057533723286785
 20
6.834274293176566
 30
0.0
 10
2.106924665211922
 20
6.815047165638377
 30
0.0
 10
2.161080755525242
 20
6.808164385192895
 30
0.0
 10
2.215269730628381
 20
6.814825472095525
 30
0.0
 10
2.264724211019838
 20
6.833850342635449
 30
0.0
 10
2.306066630053586
 20
6.862212757926797
 30
0.0
 10
2.34585113349068
 20
6.905043168844116
 30
0.0
 10
2.375750586710762
 20
6.962053487934819
 30
0.0
 10
2.379764032005813
 20
7.009140002896896
 30
0.0
 10
2.381535989435559
 20
7.029928949523567
 30
0.0
  0
CIRCLE
  5
7B
330
1F
100
AcDbEntity
  8
0
  6
Continuous
 62
     7
370
    25
100
AcDbCircle
 10
-1.0384610522
 20
-0.9207746698
 30
0.0
 40
0.0674999999999999
  0
CIRCLE
  5
7C
330
1F
100
AcDbEntity
  8
0
  6
Continuous
 62
     7
370
    25
100
AcDbCircle
 10
0.3615239306
 20
-0.9226051597
 30
0.0
 40
0.0675000000000001
  0
SPLINE
  5
7D
330
1F
100
AcDbEntity
  8
0
  6
Continuous
 62
     7
370
    25
100
AcDbSpline
210
0.0
220
0.0
230
1.0
 70
    11
 71
     3
 72
    31
 73
    27
 74
     0
 42
0.00000001
 43
0.00000001
 40
0.0
 40
0.0
 40
0.0
 40
0.0
 40
0.0451528282107686
 40
0.1022701624464888
 40
0.1356981438872695
 40
0.1719581754457827
 40
0.210387038861295
 40
0.249999951380184
 40
0.2896128697796401
 40
0.3280417488005008
 40
0.3643018008031541
 40
0.397729802354677
 40
0.4548471641602639
 40
0.5000000000000001
 40
0.5451528282107686
 40
0.6022701624464887
 40
0.6356981438872695
 40
0.6719581754457827
 40
0.710387038861295
 40
0.749999951380184
 40
0.7896128697796401
 40
0.8280417488005009
 40
0.864301800803154
 40
0.8977298023546769
 40
0.9548471641602638
 40
1.0
 40
1.0
 40
1.0
 40
1.0
 10
-0.1184640105644417
 20
-0.9200710504764336
 30
0.0
 10
-0.1201508511938817
 20
-0.8992750277583085
 30
0.0
 10
-0.1239715081057566
 20
-0.8521724938551002
 30
0.0
 10
-0.1536373343046245
 20
-0.795040282603267
 30
0.0
 10
-0.1932461780844165
 20
-0.7520474139406772
 30
0.0
 10
-0.2344721497981906
 20
-0.7235160459454386
 30
0.0
 10
-0.2838483393239412
 20
-0.7042889486030447
 30
0.0
 10
-0.3380095942663845
 20
-0.6974061575863935
 30
0.0
 10
-0.392193404738899
 20
-0.7040672550601971
 30
0.0
 10
-0.4416626375400883
 20
-0.7230920954043034
 30
0.0
 10
-0.4829555451314275
 20
-0.7514546120376295
 30
0.0
 10
-0.5229473387527802
 20
-0.7942845986652084
 30
0.0
 10
-0.5516350096811754
 20
-0.8512973980797894
 30
0.0
 10
-0.5614163745340822
 20
-0.9191646770622672
 30
0.0
 10
-0.551912915573652
 20
-0.9870714162884179
 30
0.0
 10
-0.523458870799415
 20
-1.04420114721815
 30
0.0
 10
-0.4836427370301836
 20
-1.08719444017008
 30
0.0
 10
-0.442466276713215
 20
-1.115725706823435
 30
0.0
 10
-0.3930753347880793
 20
-1.134952834361623
 30
0.0
 10
-0.3389192444747594
 20
-1.141835614807108
 30
0.0
 10
-0.2847302693716198
 20
-1.135174527904474
 30
0.0
 10
-0.2352757889801636
 20
-1.116149657364552
 30
0.0
 10
-0.193933369946414
 20
-1.087787242073203
 30
0.0
 10
-0.1541488665093209
 20
-1.044956831155884
 30
0.0
 10
-0.1242494132892387
 20
-0.987946512065181
 30
0.0
 10
-0.1202359679941875
 20
-0.9408599971031059
 30
0.0
 10
-0.1184640105644417
 20
-0.9200710504764336
 30
0.0
  0
CIRCLE
  5
84
330
1F
100
AcDbEntity
  8
0
  6
Continuous
 62
     7
370
    25
100
AcDbCircle
 10
1.4615389478
 20
4.3792253302
 30
0.0
 40
0.0675000000000003
  0
CIRCLE
  5
85
330
1F
100
AcDbEntity
  8
0
  6
Continuous
 62
     7
370
    25
100
AcDbCircle
 10
2.8615239306
 20
4.3773948403
 30
0.0
 40
0.0675000000000003
  0
SPLINE
  5
86
330
1F
100
AcDbEntity
  8
0
  6
Continuous
 62
     7
370
    25
100
AcDbSpline
210
0.0
220
0.0
230
1.0
 70
    11
 71
     3
 72
    31
 73
    27
 74
     0
 42
0.00000001
 43
0.00000001
 40
0.0
 40
0.0
 40
0.0
 40
0.0
 40
0.0451528282107687
 40
0.1022701624464889
 40
0.1356981438872696
 40
0.1719581754457828
 40
0.2103870388612951
 40
0.249999951380184
 40
0.2896128697796401
 40
0.3280417488005009
 40
0.3643018008031541
 40
0.3977298023546769
 40
0.454847164160264
 40
0.5000000000000003
 40
0.5451528282107686
 40
0.6022701624464888
 40
0.6356981438872694
 40
0.6719581754457826
 40
0.710387038861295
 40
0.7499999513801842
 40
0.7896128697796401
 40
0.8280417488005009
 40
0.8643018008031541
 40
0.897729802354677
 40
0.9548471641602642
 40
1.0
 40
1.0
 40
1.0
 40
1.0
 10
2.381535989435559
 20
4.379928949523566
 30
0.0
 10
2.379849148806118
 20
4.400724972241691
 30
0.0
 10
2.376028491894243
 20
4.4478275061449
 30
0.0
 10
2.346362665695376
 20
4.504959717396734
 30
0.0
 10
2.306753821915584
 20
4.547952586059322
 30
0.0
 10
2.265527850201809
 20
4.57648395405456
 30
0.0
 10
2.216151660676059
 20
4.595711051396956
 30
0.0
 10
2.161990405733616
 20
4.602593842413606
 30
0.0
 10
2.107806595261101
 20
4.595932744939804
 30
0.0
 10
2.058337362459912
 20
4.576907904595696
 30
0.0
 10
2.017044454868573
 20
4.548545387962369
 30
0.0
 10
1.97705266124722
 20
4.505715401334793
 30
0.0
 10
1.948364990318825
 20
4.44870260192021
 30
0.0
 10
1.938583625465918
 20
4.380835322937732
 30
0.0
 10
1.948087084426349
 20
4.312928583711583
 30
0.0
 10
1.976541129200585
 20
4.25579885278185
 30
0.0
 10
2.016357262969817
 20
4.21280555982992
 30
0.0
 10
2.057533723286785
 20
4.184274293176564
 30
0.0
 10
2.106924665211921
 20
4.165047165638375
 30
0.0
 10
2.161080755525241
 20
4.158164385192891
 30
0.0
 10
2.21526973062838
 20
4.164825472095526
 30
0.0
 10
2.264724211019837
 20
4.183850342635448
 30
0.0
 10
2.306066630053586
 20
4.212212757926796
 30
0.0
 10
2.345851133490679
 20
4.255043168844115
 30
0.0
 10
2.375750586710763
 20
4.31205348793482
 30
0.0
 10
2.379764032005812
 20
4.359140002896894
 30
0.0
 10
2.381535989435559
 20
4.379928949523566
 30
0.0
  0
CIRCLE
  5
8D
330
1F
100
AcDbEntity
  8
0
  6
Continuous
 62
     7
370
    25
100
AcDbCircle
 10
1.4615389478
 20
-0.9207746698
 30
0.0
 40
0.0675000000000003
  0
CIRCLE
  5
8E
330
1F
100
AcDbEntity
  8
0
  6
Continuous
 62
     7
370
    25
100
AcDbCircle
 10
2.8615239306
 20
-0.9226051597
 30
0.0
 40
0.0675000000000003
  0
SPLINE
  5
8F
330
1F
100
AcDbEntity
  8
0
  6
Continuous
 62
     7
370
    25
100
AcDbSpline
210
0.0
220
0.0
230
1.0
 70
    11
 71
     3
 72
    31
 73
    27
 74
     0
 42
0.00000001
 43
0.00000001
 40
0.0
 40
0.0
 40
0.0
 40
0.0
 40
0.0451528282107685
 40
0.1022701624464888
 40
0.1356981438872694
 40
0.1719581754457827
 40
0.210387038861295
 40
0.249999951380184
 40
0.2896128697796401
 40
0.3280417488005008
 40
0.3643018008031539
 40
0.397729802354677
 40
0.4548471641602639
 40
0.5
 40
0.5451528282107685
 40
0.6022701624464886
 40
0.6356981438872693
 40
0.6719581754457825
 40
0.7103870388612948
 40
0.749999951380184
 40
0.78961286977964
 40
0.8280417488005007
 40
0.864301800803154
 40
0.8977298023546769
 40
0.9548471641602638
 40
1.0
 40
1.0
 40
1.0
 40
1.0
 10
2.381535989435566
 20
-0.9200710504764914
 30
0.0
 10
2.379849148806126
 20
-0.899275027758367
 30
0.0
 10
2.37602849189425
 20
-0.8521724938551587
 30
0.0
 10
2.346362665695382
 20
-0.7950402826033244
 30
0.0
 10
2.30675382191559
 20
-0.7520474139407346
 30
0.0
 10
2.265527850201817
 20
-0.7235160459454965
 30
0.0
 10
2.216151660676066
 20
-0.7042889486031025
 30
0.0
 10
2.161990405733623
 20
-0.6974061575864514
 30
0.0
 10
2.107806595261108
 20
-0.704067255060255
 30
0.0
 10
2.058337362459919
 20
-0.7230920954043614
 30
0.0
 10
2.017044454868579
 20
-0.7514546120376875
 30
0.0
 10
1.977052661247227
 20
-0.7942845986652664
 30
0.0
 10
1.948364990318832
 20
-0.8512973980798473
 30
0.0
 10
1.938583625465925
 20
-0.9191646770623246
 30
0.0
 10
1.948087084426355
 20
-0.9870714162884758
 30
0.0
 10
1.976541129200592
 20
-1.044201147218207
 30
0.0
 10
2.016357262969824
 20
-1.087194440170138
 30
0.0
 10
2.057533723286792
 20
-1.115725706823492
 30
0.0
 10
2.106924665211928
 20
-1.134952834361681
 30
0.0
 10
2.161080755525248
 20
-1.141835614807165
 30
0.0
 10
2.215269730628387
 20
-1.135174527904532
 30
0.0
 10
2.264724211019844
 20
-1.11614965736461
 30
0.0
 10
2.306066630053593
 20
-1.087787242073261
 30
0.0
 10
2.345851133490687
 20
-1.044956831155942
 30
0.0
 10
2.375750586710769
 20
-0.987946512065239
 30
0.0
 10
2.37976403200582
 20
-0.9408599971031638
 30
0.0
 10
2.381535989435565
 20
-0.9200710504764908
 30
0.0
  0
CIRCLE
  5
96
330
1F
100
AcDbEntity
  8
0
  6
Continuous
 62
     7
370
    25
100
AcDbCircle
 10
1.4615389478
 20
1.7292253302
 30
0.0
 40
0.0674999999999999
  0
CIRCLE
  5
97
330
1F
100
AcDbEntity
  8
0
  6
Continuous
 62
     7
370
    25
100
AcDbCircle
 10
2.8615239306
 20
1.7273948403
 30
0.0
 40
0.0675000000000003
  0
SPLINE
  5
98
330
1F
100
AcDbEntity
  8
0
  6
Continuous
 62
     7
370
    25
100
AcDbSpline
210
0.0
220
0.0
230
1.0
 70
    11
 71
     3
 72
    31
 73
    27
 74
     0
 42
0.00000001
 43
0.00000001
 40
0.0
 40
0.0
 40
0.0
 40
0.0
 40
0.0451528282107685
 40
0.1022701624464889
 40
0.1356981438872695
 40
0.1719581754457827
 40
0.210387038861295
 40
0.249999951380184
 40
0.2896128697796401
 40
0.3280417488005007
 40
0.3643018008031539
 40
0.397729802354677
 40
0.4548471641602639
 40
0.5
 40
0.5451528282107685
 40
0.6022701624464886
 40
0.6356981438872693
 40
0.6719581754457826
 40
0.7103870388612948
 40
0.749999951380184
 40
0.78961286977964
 40
0.8280417488005007
 40
0.864301800803154
 40
0.8977298023546769
 40
0.9548471641602638
 40
1.0
 40
1.0
 40
1.0
 40
1.0
 10
2.381535989435559
 20
1.729928949523567
 30
0.0
 10
2.379849148806119
 20
1.750724972241691
 30
0.0
 10
2.376028491894243
 20
1.797827506144899
 30
0.0
 10
2.346362665695377
 20
1.854959717396734
 30
0.0
 10
2.306753821915584
 20
1.897952586059322
 30
0.0
 10
2.265527850201809
 20
1.926483954054561
 30
0.0
 10
2.216151660676059
 20
1.945711051396955
 30
0.0
 10
2.161990405733616
 20
1.952593842413606
 30
0.0
 10
2.107806595261102
 20
1.945932744939803
 30
0.0
 10
2.058337362459912
 20
1.926907904595696
 30
0.0
 10
2.017044454868572
 20
1.898545387962371
 30
0.0
 10
1.97705266124722
 20
1.855715401334791
 30
0.0
 10
1.948364990318825
 20
1.798702601920211
 30
0.0
 10
1.938583625465918
 20
1.730835322937732
 30
0.0
 10
1.948087084426349
 20
1.662928583711583
 30
0.0
 10
1.976541129200585
 20
1.60579885278185
 30
0.0
 10
2.016357262969817
 20
1.56280555982992
 30
0.0
 10
2.057533723286785
 20
1.534274293176565
 30
0.0
 10
2.106924665211921
 20
1.515047165638377
 30
0.0
 10
2.161080755525241
 20
1.508164385192892
 30
0.0
 10
2.21526973062838
 20
1.514825472095526
 30
0.0
 10
2.264724211019837
 20
1.533850342635448
 30
0.0
 10
2.306066630053586
 20
1.562212757926796
 30
0.0
 10
2.34585113349068
 20
1.605043168844116
 30
0.0
 10
2.375750586710763
 20
1.66205348793482
 30
0.0
 10
2.379764032005813
 20
1.709140002896894
 30
0.0
 10
2.381535989435559
 20
1.729928949523566
 30
0.0
  0
CIRCLE
  5
9F
330
1F
100
AcDbEntity
  8
0
  6
Continuous
 62
     7
370
    25
100
AcDbCircle
 10
-1.0384610522
 20
4.3792253302
 30
0.0
 40
0.0675000000000001
  0
CIRCLE
  5
A0
330
1F
100
AcDbEntity
  8
0
  6
Continuous
 62
     7
370
    25
100
AcDbCircle
 10
0.3615239306
 20
4.3773948403
 30
0.0
 40
0.0674999999999998
  0
SPLINE
  5
A1
330
1F
100
AcDbEntity
  8
0
  6
Continuous
 62
     7
370
    25
100
AcDbSpline
210
0.0
220
0.0
230
1.0
 70
    11
 71
     3
 72
    31
 73
    27
 74
     0
 42
0.00000001
 43
0.00000001
 40
0.0
 40
0.0
 40
0.0
 40
0.0
 40
0.0451528282107687
 40
0.1022701624464889
 40
0.1356981438872696
 40
0.1719581754457828
 40
0.2103870388612951
 40
0.2499999513801841
 40
0.2896128697796401
 40
0.3280417488005009
 40
0.3643018008031541
 40
0.3977298023546769
 40
0.4548471641602639
 40
0.5000000000000003
 40
0.5451528282107686
 40
0.6022701624464887
 40
0.6356981438872695
 40
0.6719581754457826
 40
0.7103870388612948
 40
0.7499999513801839
 40
0.7896128697796401
 40
0.8280417488005007
 40
0.8643018008031539
 40
0.8977298023546769
 40
0.954847164160264
 40
1.0
 40
1.0
 40
1.0
 40
1.0
 10
-0.1184640105644412
 20
4.379928949523567
 30
0.0
 10
-0.1201508511938814
 20
4.400724972241693
 30
0.0
 10
-0.1239715081057563
 20
4.4478275061449
 30
0.0
 10
-0.153637334304624
 20
4.504959717396731
 30
0.0
 10
-0.193246178084416
 20
4.547952586059324
 30
0.0
 10
-0.2344721497981906
 20
4.57648395405456
 30
0.0
 10
-0.2838483393239407
 20
4.595711051396957
 30
0.0
 10
-0.3380095942663843
 20
4.602593842413604
 30
0.0
 10
-0.3921934047388989
 20
4.595932744939804
 30
0.0
 10
-0.4416626375400876
 20
4.576907904595694
 30
0.0
 10
-0.4829555451314271
 20
4.548545387962371
 30
0.0
 10
-0.5229473387527802
 20
4.505715401334792
 30
0.0
 10
-0.551635009681175
 20
4.44870260192021
 30
0.0
 10
-0.5614163745340818
 20
4.380835322937732
 30
0.0
 10
-0.5519129155736517
 20
4.312928583711582
 30
0.0
 10
-0.5234588707994144
 20
4.25579885278185
 30
0.0
 10
-0.4836427370301833
 20
4.212805559829921
 30
0.0
 10
-0.4424662767132146
 20
4.184274293176565
 30
0.0
 10
-0.393075334788079
 20
4.165047165638376
 30
0.0
 10
-0.3389192444747589
 20
4.158164385192892
 30
0.0
 10
-0.2847302693716197
 20
4.164825472095526
 30
0.0
 10
-0.235275788980163
 20
4.183850342635446
 30
0.0
 10
-0.1939333699464136
 20
4.212212757926796
 30
0.0
 10
-0.1541488665093207
 20
4.255043168844116
 30
0.0
 10
-0.1242494132892385
 20
4.312053487934818
 30
0.0
 10
-0.1202359679941871
 20
4.359140002896895
 30
0.0
 10
-0.1184640105644412
 20
4.379928949523566
 30
0.0
  0
CIRCLE
  5
A8
330
1F
100
AcDbEntity
  8
0
  6
Continuous
 62
     7
370
    25
100
AcDbCircle
 10
-1.0384610522
 20
7.0292253302
 30
0.0
 40
0.0675000000000004
  0
CIRCLE
  5
A9
330
1F
100
AcDbEntity
  8
0
  6
Continuous
 62
     7
370
    25
100
AcDbCircle
 10
0.3615239306
 20
7.0273948403
 30
0.0
 40
0.0674999999999995
  0
SPLINE
  5
AA
330
1F
100
AcDbEntity
  8
0
  6
Continuous
 62
     7
370
    25
100
AcDbSpline
210
0.0
220
0.0
230
1.0
 70
    11
 71
     3
 72
    31
 73
    27
 74
     0
 42
0.00000001
 43
0.00000001
 40
0.0
 40
0.0
 40
0.0
 40
0.0
 40
0.0451528282107683
 40
0.1022701624464885
 40
0.1356981438872692
 40
0.1719581754457824
 40
0.2103870388612947
 40
0.2499999513801837
 40
0.2896128697796396
 40
0.3280417488005004
 40
0.3643018008031536
 40
0.3977298023546766
 40
0.4548471641602638
 40
0.5000000000000001
 40
0.5451528282107684
 40
0.6022701624464886
 40
0.6356981438872693
 40
0.6719581754457824
 40
0.7103870388612947
 40
0.7499999513801837
 40
0.7896128697796397
 40
0.8280417488005004
 40
0.8643018008031536
 40
0.8977298023546766
 40
0.9548471641602636
 40
1.0
 40
1.0
 40
1.0
 40
1.0
 10
-0.1184640105644411
 20
7.029928949523567
 30
0.0
 10
-0.1201508511938812
 20
7.050724972241691
 30
0.0
 10
-0.1239715081057562
 20
7.097827506144899
 30
0.0
 10
-0.1536373343046239
 20
7.154959717396731
 30
0.0
 10
-0.1932461780844158
 20
7.197952586059324
 30
0.0
 10
-0.2344721497981904
 20
7.226483954054562
 30
0.0
 10
-0.2838483393239406
 20
7.245711051396957
 30
0.0
 10
-0.338009594266384
 20
7.252593842413606
 30
0.0
 10
-0.3921934047388985
 20
7.245932744939801
 30
0.0
 10
-0.4416626375400878
 20
7.2269079045957
 30
0.0
 10
-0.4829555451314271
 20
7.198545387962371
 30
0.0
 10
-0.5229473387527797
 20
7.155715401334792
 30
0.0
 10
-0.5516350096811746
 20
7.098702601920208
 30
0.0
 10
-0.5614163745340818
 20
7.030835322937735
 30
0.0
 10
-0.5519129155736515
 20
6.962928583711584
 30
0.0
 10
-0.5234588707994142
 20
6.905798852781848
 30
0.0
 10
-0.4836427370301832
 20
6.862805559829921
 30
0.0
 10
-0.4424662767132141
 20
6.834274293176563
 30
0.0
 10
-0.3930753347880792
 20
6.815047165638377
 30
0.0
 10
-0.3389192444747586
 20
6.808164385192893
 30
0.0
 10
-0.2847302693716194
 20
6.814825472095526
 30
0.0
 10
-0.2352757889801629
 20
6.833850342635449
 30
0.0
 10
-0.1939333699464133
 20
6.862212757926797
 30
0.0
 10
-0.1541488665093205
 20
6.905043168844117
 30
0.0
 10
-0.1242494132892382
 20
6.962053487934819
 30
0.0
 10
-0.1202359679941868
 20
7.009140002896893
 30
0.0
 10
-0.1184640105644411
 20
7.029928949523567
 30
0.0
  0
CIRCLE
  5
B7
330
1F
100
AcDbEntity
  8
0
  6
Continuous
 62
     7
370
    25
100
AcDbCircle
 10
4.360796796
 20
8.3659092443
 30
0.0
 40
0.1005000000000766
  0
CIRCLE
  5
B8
330
1F
100
AcDbEntity
  8
0
  6
Continuous
 62
     7
370
    25
100
AcDbCircle
 10
4.360796796
 20
5.1140597878
 30
0.0
 40
0.1005000000000802
  0
CIRCLE
  5
C3
330
1F
100
AcDbEntity
  8
0
  6
Continuous
 62
     7
370
    25
100
AcDbCircle
 10
-2.5377265959
 20
5.7409092443
 30
0.0
 40
0.1005000000000762
  0
CIRCLE
  5
C4
330
1F
100
AcDbEntity
  8
0
  6
Continuous
 62
     7
370
    25
100
AcDbCircle
 10
-2.5377265959
 20
2.4890597878
 30
0.0
 40
0.1005000000000793
  0
CIRCLE
  5
D3
330
1F
100
AcDbEntity
  8
0
  6
Continuous
 62
     7
370
    25
100
AcDbCircle
 10
4.360796796
 20
0.5659092443
 30
0.0
 40
0.1005000000000758
  0
CIRCLE
  5
D4
330
1F
100
AcDbEntity
  8
0
  6
Continuous
 62
     7
370
    25
100
AcDbCircle
 10
4.360796796
 20
-2.6859402122
 30
0.0
 40
0.1005000000000811
  0
CIRCLE
  5
E1
330
1F
100
AcDbEntity
  8
0
  6
Continuous
 62
     7
370
    25
100
AcDbCircle
 10
4.360796796
 20
4.4659092443
 30
0.0
 40
0.1005000000000749
  0
CIRCLE
  5
E2
330
1F
100
AcDbEntity
  8
0
  6
Continuous
 62
     7
370
    25
100
AcDbCircle
 10
4.360796796
 20
1.2140597878
 30
0.0
 40
0.1005000000000793
  0
CIRCLE
  5
E3
330
1F
100
AcDbEntity
  8
0
  6
Continuous
 62
     7
370
    25
100
AcDbCircle
 10
-3.4259648999
 20
0.9165597878
 30
0.0
 40
0.1285000000000001
  0
CIRCLE
  5
E4
330
1F
100
AcDbEntity
  8
0
  6
Continuous
 62
     7
370
    25
100
AcDbCircle
 10
-1.9259648999
 20
0.9165597878
 30
0.0
 40
0.1284999999999999
  0
CIRCLE
  5
E9
330
1F
100
AcDbEntity
  8
0
  6
Continuous
 62
     7
370
    25
100
AcDbCircle
 10
-3.4259648999
 20
1.7915597878
 30
0.0
 40
0.1285000000000001
  0
CIRCLE
  5
EA
330
1F
100
AcDbEntity
  8
0
  6
Continuous
 62
     7
370
    25
100
AcDbCircle
 10
-1.9259648999
 20
1.7915597878
 30
0.0
 40
0.1285000000000001
  0
CIRCLE
  5
EF
330
1F
100
AcDbEntity
  8
0
  6
Continuous
 62
     7
370
    25
100
AcDbCircle
 10
-3.4259648999
 20
0.0415597878
 30
0.0
 40
0.1285000000000001
  0
CIRCLE
  5
F0
330
1F
100
AcDbEntity
  8
0
  6
Continuous
 62
     7
370
    25
100
AcDbCircle
 10
-1.9259648999
 20
0.0415597878
 30
0.0
 40
0.1285
  0
LINE
  5
F5
330
1F
100
AcDbEntity
  8
0
  6
Continuous
 62
     7
370
    25
100
AcDbLine
 10
-1.4634648999
 20
-0.2709402122
 30
0.0
 11
0.7865351001
 21
-0.2709402122
 31
0.0
  0
LINE
  5
F6
330
1F
100
AcDbEntity
  8
0
  6
Continuous
 62
     7
370
    25
100
AcDbLine
 10
-1.4634648999
 20
1.7290597878
 30
0.0
 11
-1.4634648999
 21
-0.2709402122
 31
0.0
  0
LINE
  5
F7
330
1F
100
AcDbEntity
  8
0
  6
Continuous
 62
     7
370
    25
100
AcDbLine
 10
-0.9634648999
 20
2.2290597878
 30
0.0
 11
0.2865351001
 21
2.2290597878
 31
0.0
  0
LINE
  5
F8
330
1F
100
AcDbEntity
  8
0
  6
Continuous
 62
     7
370
    25
100
AcDbLine
 10
0.7865351001
 20
1.7290597878
 30
0.0
 11
0.7865351001
 21
-0.2709402122
 31
0.0
  0
LINE
  5
F9
330
1F
100
AcDbEntity
  8
0
  6
Continuous
 62
     7
370
    25
100
AcDbLine
 10
1.0365351001
 20
5.0290597878
 30
0.0
 11
3.2865351001
 21
5.0290597878
 31
0.0
  0
LINE
  5
FA
330
1F
100
AcDbEntity
  8
0
  6
Continuous
 62
     7
370
    25
100
AcDbLine
 10
1.0365351001
 20
7.0290597878
 30
0.0
 11
1.0365351001
 21
5.0290597878
 31
0.0
  0
LINE
  5
FB
330
1F
100
AcDbEntity
  8
0
  6
Continuous
 62
     7
370
    25
100
AcDbLine
 10
1.5365351001
 20
7.5290597878
 30
0.0
 11
2.7865351001
 21
7.5290597878
 31
0.0
  0
LINE
  5
FC
330
1F
100
AcDbEntity
  8
0
  6
Continuous
 62
     7
370
    25
100
AcDbLine
 10
3.2865351001
 20
7.0290597878
 30
0.0
 11
3.2865351001
 21
5.0290597878
 31
0.0
  0
LINE
  5
FD
330
1F
100
AcDbEntity
  8
0
  6
Continuous
 62
     7
370
    25
100
AcDbLine
 10
-1.4634648999
 20
-2.9209402122
 30
0.0
 11
0.7865351001
 21
-2.9209402122
 31
0.0
  0
LINE
  5
FE
330
1F
100
AcDbEntity
  8
0
  6
Continuous
 62
     7
370
    25
100
AcDbLine
 10
-1.4634648999
 20
-0.9209402122
 30
0.0
 11
-1.4634648999
 21
-2.9209402122
 31
0.0
  0
LINE
  5
FF
330
1F
100
AcDbEntity
  8
0
  6
Continuous
 62
     7
370
    25
100
AcDbLine
 10
-0.9634648999
 20
-0.4209402122
 30
0.0
 11
0.2865351001
 21
-0.4209402122
 31
0.0
  0
LINE
  5
100
330
1F
100
AcDbEntity
  8
0
  6
Continuous
 62
     7
370
    25
100
AcDbLine
 10
0.7865351001
 20
-0.9209402122
 30
0.0
 11
0.7865351001
 21
-2.9209402122
 31
0.0
  0
LINE
  5
101
330
1F
100
AcDbEntity
  8
0
  6
Continuous
 62
     7
370
    25
100
AcDbLine
 10
1.0365351001
 20
2.3790597878
 30
0.0
 11
3.2865351001
 21
2.3790597878
 31
0.0
  0
LINE
  5
102
330
1F
100
AcDbEntity
  8
0
  6
Continuous
 62
     7
370
    25
100
AcDbLine
 10
1.0365351001
 20
4.3790597878
 30
0.0
 11
1.0365351001
 21
2.3790597878
 31
0.0
  0
LINE
  5
103
330
1F
100
AcDbEntity
  8
0
  6
Continuous
 62
     7
370
    25
100
AcDbLine
 10
1.5365351001
 20
4.8790597878
 30
0.0
 11
2.7865351001
 21
4.8790597878
 31
0.0
  0
LINE
  5
104
330
1F
100
AcDbEntity
  8
0
  6
Continuous
 62
     7
370
    25
100
AcDbLine
 10
3.2865351001
 20
4.3790597878
 30
0.0
 11
3.2865351001
 21
2.3790597878
 31
0.0
  0
LINE
  5
105
330
1F
100
AcDbEntity
  8
0
  6
Continuous
 62
     7
370
    25
100
AcDbLine
 10
1.0365351001
 20
-2.9209402122
 30
0.0
 11
3.2865351001
 21
-2.9209402122
 31
0.0
  0
LINE
  5
106
330
1F
100
AcDbEntity
  8
0
  6
Continuous
 62
     7
370
    25
100
AcDbLine
 10
1.0365351001
 20
-0.9209402122
 30
0.0
 11
1.0365351001
 21
-2.9209402122
 31
0.0
  0
LINE
  5
107
330
1F
100
AcDbEntity
  8
0
  6
Continuous
 62
     7
370
    25
100
AcDbLine
 10
1.5365351001
 20
-0.4209402122
 30
0.0
 11
2.7865351001
 21
-0.4209402122
 31
0.0
  0
LINE
  5
108
330
1F
100
AcDbEntity
  8
0
  6
Continuous
 62
     7
370
    25
100
AcDbLine
 10
3.2865351001
 20
-0.9209402122
 30
0.0
 11
3.2865351001
 21
-2.9209402122
 31
0.0
  0
LINE
  5
109
330
1F
100
AcDbEntity
  8
0
  6
Continuous
 62
     7
370
    25
100
AcDbLine
 10
1.0365351001
 20
-0.2709402122
 30
0.0
 11
3.2865351001
 21
-0.2709402122
 31
0.0
  0
LINE
  5
10A
330
1F
100
AcDbEntity
  8
0
  6
Continuous
 62
     7
370
    25
100
AcDbLine
 10
1.0365351001
 20
1.7290597878
 30
0.0
 11
1.0365351001
 21
-0.2709402122
 31
0.0
  0
LINE
  5
10B
330
1F
100
AcDbEntity
  8
0
  6
Continuous
 62
     7
370
    25
100
AcDbLine
 10
1.5365351001
 20
2.2290597878
 30
0.0
 11
2.7865351001
 21
2.2290597878
 31
0.0
  0
LINE
  5
10C
330
1F
100
AcDbEntity
  8
0
  6
Continuous
 62
     7
370
    25
100
AcDbLine
 10
3.2865351001
 20
1.7290597878
 30
0.0
 11
3.2865351001
 21
-0.2709402122
 31
0.0
  0
LINE
  5
10D
330
1F
100
AcDbEntity
  8
0
  6
Continuous
 62
     7
370
    25
100
AcDbLine
 10
-1.4634648999
 20
2.3790597878
 30
0.0
 11
0.7865351001
 21
2.3790597878
 31
0.0
  0
LINE
  5
10E
330
1F
100
AcDbEntity
  8
0
  6
Continuous
 62
     7
370
    25
100
AcDbLine
 10
-1.4634648999
 20
4.3790597878
 30
0.0
 11
-1.4634648999
 21
2.3790597878
 31
0.0
  0
LINE
  5
10F
330
1F
100
AcDbEntity
  8
0
  6
Continuous
 62
     7
370
    25
100
AcDbLine
 10
-0.9634648999
 20
4.8790597878
 30
0.0
 11
0.2865351001
 21
4.8790597878
 31
0.0
  0
LINE
  5
110
330
1F
100
AcDbEntity
  8
0
  6
Continuous
 62
     7
370
    25
100
AcDbLine
 10
0.7865351001
 20
4.3790597878
 30
0.0
 11
0.7865351001
 21
2.3790597878
 31
0.0
  0
LINE
  5
111
330
1F
100
AcDbEntity
  8
0
  6
Continuous
 62
     7
370
    25
100
AcDbLine
 10
-1.4634648999
 20
5.0290597878
 30
0.0
 11
0.7865351001
 21
5.0290597878
 31
0.0
  0
LINE
  5
112
330
1F
100
AcDbEntity
  8
0
  6
Continuous
 62
     7
370
    25
100
AcDbLine
 10
-1.4634648999
 20
7.0290597878
 30
0.0
 11
-1.4634648999
 21
5.0290597878
 31
0.0
  0
LINE
  5
113
330
1F
100
AcDbEntity
  8
0
  6
Continuous
 62
     7
370
    25
100
AcDbLine
 10
-0.9634648999
 20
7.5290597878
 30
0.0
 11
0.2865351001
 21
7.5290597878
 31
0.0
  0
LINE
  5
114
330
1F
100
AcDbEntity
  8
0
  6
Continuous
 62
     7
370
    25
100
AcDbLine
 10
0.7865351001
 20
7.0290597878
 30
0.0
 11
0.7865351001
 21
5.0290597878
 31
0.0
  0
LINE
  5
115
330
1F
100
AcDbEntity
  8
0
  6
Continuous
 62
     7
370
    25
100
AcDbLine
 10
4.797008071
 20
8.6290597878
 30
0.0
 11
5.2790155715
 21
7.4289937886
 31
0.0
  0
LINE
  5
116
330
1F
100
AcDbEntity
  8
0
  6
Continuous
 62
     7
370
    25
100
AcDbLine
 10
4.797008071
 20
4.8790597878
 30
0.0
 11
5.2830167104
 21
6.3287808267
 31
0.0
  0
LINE
  5
117
330
1F
100
AcDbEntity
  8
0
  6
Continuous
 62
     7
370
    25
100
AcDbLine
 10
3.924585521
 20
4.8790597878
 30
0.0
 11
4.797008071
 21
4.8790597878
 31
0.0
  0
LINE
  5
118
330
1F
100
AcDbEntity
  8
0
  6
Continuous
 62
     7
370
    25
100
AcDbLine
 10
3.4385768817
 20
6.3287808267
 30
0.0
 11
3.924585521
 21
4.8790597878
 31
0.0
  0
LINE
  5
119
330
1F
100
AcDbEntity
  8
0
  6
Continuous
 62
     7
370
    25
100
AcDbLine
 10
3.4425780205
 20
7.4289937886
 30
0.0
 11
3.924585521
 21
8.6290597878
 31
0.0
  0
LINE
  5
11A
330
1F
100
AcDbEntity
  8
0
  6
Continuous
 62
     7
370
    25
100
AcDbLine
 10
4.797008071
 20
8.6290597878
 30
0.0
 11
3.924585521
 21
8.6290597878
 31
0.0
  0
LINE
  5
11B
330
1F
100
AcDbEntity
  8
0
  6
Continuous
 62
     7
370
    25
100
AcDbLine
 10
-2.1015153209
 20
6.0040597878
 30
0.0
 11
-1.6195078204
 21
4.8039937886
 31
0.0
  0
LINE
  5
11C
330
1F
100
AcDbEntity
  8
0
  6
Continuous
 62
     7
370
    25
100
AcDbLine
 10
-2.1015153209
 20
2.2540597878
 30
0.0
 11
-1.6155066815
 21
3.7037808267
 31
0.0
  0
LINE
  5
11D
330
1F
100
AcDbEntity
  8
0
  6
Continuous
 62
     7
370
    25
100
AcDbLine
 10
-2.9739378709
 20
2.2540597878
 30
0.0
 11
-2.1015153209
 21
2.2540597878
 31
0.0
  0
LINE
  5
11E
330
1F
100
AcDbEntity
  8
0
  6
Continuous
 62
     7
370
    25
100
AcDbLine
 10
-3.4599465102
 20
3.7037808267
 30
0.0
 11
-2.9739378709
 21
2.2540597878
 31
0.0
  0
LINE
  5
11F
330
1F
100
AcDbEntity
  8
0
  6
Continuous
 62
     7
370
    25
100
AcDbLine
 10
-2.1015153209
 20
6.0040597878
 30
0.0
 11
-2.9739378709
 21
6.0040597878
 31
0.0
  0
LINE
  5
120
330
1F
100
AcDbEntity
  8
0
  6
Continuous
 62
     7
370
    25
100
AcDbLine
 10
-3.4559453714
 20
4.8039937886
 30
0.0
 11
-2.9739378709
 21
6.0040597878
 31
0.0
  0
LINE
  5
121
330
1F
100
AcDbEntity
  8
0
  6
Continuous
 62
     7
370
    25
100
AcDbLine
 10
4.797008071
 20
0.8290597878
 30
0.0
 11
5.2790155715
 21
-0.3710062114
 31
0.0
  0
LINE
  5
122
330
1F
100
AcDbEntity
  8
0
  6
Continuous
 62
     7
370
    25
100
AcDbLine
 10
4.797008071
 20
-2.9209402122
 30
0.0
 11
5.2830167104
 21
-1.4712191733
 31
0.0
  0
LINE
  5
123
330
1F
100
AcDbEntity
  8
0
  6
Continuous
 62
     7
370
    25
100
AcDbLine
 10
3.924585521
 20
-2.9209402122
 30
0.0
 11
4.797008071
 21
-2.9209402122
 31
0.0
  0
LINE
  5
124
330
1F
100
AcDbEntity
  8
0
  6
Continuous
 62
     7
370
    25
100
AcDbLine
 10
3.4385768817
 20
-1.4712191733
 30
0.0
 11
3.924585521
 21
-2.9209402122
 31
0.0
  0
LINE
  5
125
330
1F
100
AcDbEntity
  8
0
  6
Continuous
 62
     7
370
    25
100
AcDbLine
 10
3.4425780205
 20
-0.3710062114
 30
0.0
 11
3.924585521
 21
0.8290597878
 31
0.0
  0
LINE
  5
126
330
1F
100
AcDbEntity
  8
0
  6
Continuous
 62
     7
370
    25
100
AcDbLine
 10
4.797008071
 20
0.8290597878
 30
0.0
 11
3.924585521
 21
0.8290597878
 31
0.0
  0
LINE
  5
127
330
1F
100
AcDbEntity
  8
0
  6
Continuous
 62
     7
370
    25
100
AcDbLine
 10
4.797008071
 20
4.7290597878
 30
0.0
 11
5.2790155715
 21
3.5289937886
 31
0.0
  0
LINE
  5
128
330
1F
100
AcDbEntity
  8
0
  6
Continuous
 62
     7
370
    25
100
AcDbLine
 10
4.797008071
 20
0.9790597878
 30
0.0
 11
5.2830167104
 21
2.4287808267
 31
0.0
  0
LINE
  5
129
330
1F
100
AcDbEntity
  8
0
  6
Continuous
 62
     7
370
    25
100
AcDbLine
 10
3.924585521
 20
0.9790597878
 30
0.0
 11
4.797008071
 21
0.9790597878
 31
0.0
  0
LINE
  5
12A
330
1F
100
AcDbEntity
  8
0
  6
Continuous
 62
     7
370
    25
100
AcDbLine
 10
3.4385768817
 20
2.4287808267
 30
0.0
 11
3.924585521
 21
0.9790597878
 31
0.0
  0
LINE
  5
12B
330
1F
100
AcDbEntity
  8
0
  6
Continuous
 62
     7
370
    25
100
AcDbLine
 10
3.4425780205
 20
3.5289937886
 30
0.0
 11
3.924585521
 21
4.7290597878
 31
0.0
  0
LINE
  5
12C
330
1F
100
AcDbEntity
  8
0
  6
Continuous
 62
     7
370
    25
100
AcDbLine
 10
4.797008071
 20
4.7290597878
 30
0.0
 11
3.924585521
 21
4.7290597878
 31
0.0
  0
LINE
  5
12D
330
1F
100
AcDbEntity
  8
0
  6
Continuous
 62
     7
370
    25
100
AcDbLine
 10
-4.2907912318
 20
1.2290597878
 30
0.0
 11
-4.2907912318
 21
0.6040597878
 31
0.0
  0
LINE
  5
12E
330
1F
100
AcDbEntity
  8
0
  6
Continuous
 62
     7
370
    25
100
AcDbLine
 10
-1.9259648999
 20
1.2290597878
 30
0.0
 11
-4.2907912318
 21
1.2290597878
 31
0.0
  0
LINE
  5
12F
330
1F
100
AcDbEntity
  8
0
  6
Continuous
 62
     7
370
    25
100
AcDbLine
 10
-4.2907912318
 20
0.6040597878
 30
0.0
 11
-1.9259648999
 21
0.6040597878
 31
0.0
  0
LINE
  5
130
330
1F
100
AcDbEntity
  8
0
  6
Continuous
 62
     7
370
    25
100
AcDbLine
 10
-4.2907912318
 20
2.1040597878
 30
0.0
 11
-4.2907912318
 21
1.4790597878
 31
0.0
  0
LINE
  5
131
330
1F
100
AcDbEntity
  8
0
  6
Continuous
 62
     7
370
    25
100
AcDbLine
 10
-1.9259648999
 20
2.1040597878
 30
0.0
 11
-4.2907912318
 21
2.1040597878
 31
0.0
  0
LINE
  5
132
330
1F
100
AcDbEntity
  8
0
  6
Continuous
 62
     7
370
    25
100
AcDbLine
 10
-4.2907912318
 20
1.4790597878
 30
0.0
 11
-1.9259648999
 21
1.4790597878
 31
0.0
  0
LINE
  5
133
330
1F
100
AcDbEntity
  8
0
  6
Continuous
 62
     7
370
    25
100
AcDbLine
 10
-4.2907912318
 20
0.3540597878
 30
0.0
 11
-4.2907912318
 21
-0.2709402122
 31
0.0
  0
LINE
  5
134
330
1F
100
AcDbEntity
  8
0
  6
Continuous
 62
     7
370
    25
100
AcDbLine
 10
-1.9259648999
 20
0.3540597878
 30
0.0
 11
-4.2907912318
 21
0.3540597878
 31
0.0
  0
LINE
  5
135
330
1F
100
AcDbEntity
  8
0
  6
Continuous
 62
     7
370
    25
100
AcDbLine
 10
-4.2907912318
 20
-0.2709402122
 30
0.0
 11
-1.9259648999
 21
-0.2709402122
 31
0.0
  0
ARC
  5
136
330
1F
100
AcDbEntity
  8
0
  6
Continuous
 62
     7
370
    25
100
AcDbCircle
 10
-0.9634648999
 20
1.7290597878
 30
0.0
 40
0.4999999999999996
100
AcDbArc
 50
90.0
 51
180.0
  0
ARC
  5
137
330
1F
100
AcDbEntity
  8
0
  6
Continuous
 62
     7
370
    25
100
AcDbCircle
 10
0.2865351001
 20
1.7290597878
 30
0.0
 40
0.4999999999999989
100
AcDbArc
 50
0.0
 51
90.0
  0
ARC
  5
138
330
1F
100
AcDbEntity
  8
0
  6
Continuous
 62
     7
370
    25
100
AcDbCircle
 10
1.5365351001
 20
7.0290597878
 30
0.0
 40
0.5
100
AcDbArc
 50
90.0
 51
180.0
  0
ARC
  5
139
330
1F
100
AcDbEntity
  8
0
  6
Continuous
 62
     7
370
    25
100
AcDbCircle
 10
2.7865351001
 20
7.0290597878
 30
0.0
 40
0.5000000000000027
100
AcDbArc
 50
0.0
 51
90.0
  0
ARC
  5
13A
330
1F
100
AcDbEntity
  8
0
  6
Continuous
 62
     7
370
    25
100
AcDbCircle
 10
-0.9634648999
 20
-0.9209402122
 30
0.0
 40
0.5
100
AcDbArc
 50
90.0
 51
180.0
  0
ARC
  5
13B
330
1F
100
AcDbEntity
  8
0
  6
Continuous
 62
     7
370
    25
100
AcDbCircle
 10
0.2865351001
 20
-0.9209402122
 30
0.0
 40
0.4999999999999994
100
AcDbArc
 50
0.0
 51
90.0
  0
ARC
  5
13C
330
1F
100
AcDbEntity
  8
0
  6
Continuous
 62
     7
370
    25
100
AcDbCircle
 10
1.5365351001
 20
4.3790597878
 30
0.0
 40
0.5
100
AcDbArc
 50
90.0
 51
180.0
  0
ARC
  5
13D
330
1F
100
AcDbEntity
  8
0
  6
Continuous
 62
     7
370
    25
100
AcDbCircle
 10
2.7865351001
 20
4.3790597878
 30
0.0
 40
0.5000000000000013
100
AcDbArc
 50
0.0
 51
90.0
  0
ARC
  5
13E
330
1F
100
AcDbEntity
  8
0
  6
Continuous
 62
     7
370
    25
100
AcDbCircle
 10
1.5365351001
 20
-0.9209402122
 30
0.0
 40
0.4999999999999998
100
AcDbArc
 50
90.0
 51
180.0
  0
ARC
  5
13F
330
1F
100
AcDbEntity
  8
0
  6
Continuous
 62
     7
370
    25
100
AcDbCircle
 10
2.7865351001
 20
-0.9209402122
 30
0.0
 40
0.5
100
AcDbArc
 50
0.0
 51
90.0
  0
ARC
  5
140
330
1F
100
AcDbEntity
  8
0
  6
Continuous
 62
     7
370
    25
100
AcDbCircle
 10
1.5365351001
 20
1.7290597878
 30
0.0
 40
0.4999999999999996
100
AcDbArc
 50
90.0
 51
180.0
  0
ARC
  5
141
330
1F
100
AcDbEntity
  8
0
  6
Continuous
 62
     7
370
    25
100
AcDbCircle
 10
2.7865351001
 20
1.7290597878
 30
0.0
 40
0.4999999999999998
100
AcDbArc
 50
0.0
 51
90.0
  0
ARC
  5
142
330
1F
100
AcDbEntity
  8
0
  6
Continuous
 62
     7
370
    25
100
AcDbCircle
 10
-0.9634648999
 20
4.3790597878
 30
0.0
 40
0.5000000000000001
100
AcDbArc
 50
90.0
 51
180.0
  0
ARC
  5
143
330
1F
100
AcDbEntity
  8
0
  6
Continuous
 62
     7
370
    25
100
AcDbCircle
 10
0.2865351001
 20
4.3790597878
 30
0.0
 40
0.5
100
AcDbArc
 50
0.0
 51
90.0
  0
ARC
  5
144
330
1F
100
AcDbEntity
  8
0
  6
Continuous
 62
     7
370
    25
100
AcDbCircle
 10
-0.9634648999
 20
7.0290597878
 30
0.0
 40
0.5000000000000003
100
AcDbArc
 50
90.0
 51
180.0
  0
ARC
  5
145
330
1F
100
AcDbEntity
  8
0
  6
Continuous
 62
     7
370
    25
100
AcDbCircle
 10
0.2865351001
 20
7.0290597878
 30
0.0
 40
0.5000000000000018
100
AcDbArc
 50
0.0
 51
90.0
  0
ARC
  5
146
330
1F
100
AcDbEntity
  8
0
  6
Continuous
 62
     7
370
    25
100
AcDbCircle
 10
5.2424822047
 20
7.4143201316
 30
0.0
 40
0.0393700787401578
100
AcDbArc
 50
276.0690415714
 51
21.8829021738
  0
ARC
  5
147
330
1F
100
AcDbEntity
  8
0
  6
Continuous
 62
     7
370
    25
100
AcDbCircle
 10
5.299508071
 20
6.8779731055
 30
0.0
 40
0.5000000000000009
100
AcDbArc
 50
96.0690415714
 51
264.2733579555
  0
ARC
  5
148
330
1F
100
AcDbEntity
  8
0
  6
Continuous
 62
     7
370
    25
100
AcDbCircle
 10
5.2456884132
 20
6.3412948721
 30
0.0
 40
0.0393700787401573
100
AcDbArc
 50
341.4666401838
 51
84.2733579555
  0
ARC
  5
149
330
1F
100
AcDbEntity
  8
0
  6
Continuous
 62
     7
370
    25
100
AcDbCircle
 10
3.4759051788
 20
6.3412948721
 30
0.0
 40
0.0393700787401576
100
AcDbArc
 50
95.7266420445
 51
198.5333598162
  0
ARC
  5
14A
330
1F
100
AcDbEntity
  8
0
  6
Continuous
 62
     7
370
    25
100
AcDbCircle
 10
3.422085521
 20
6.8779731055
 30
0.0
 40
0.5
100
AcDbArc
 50
275.7266420445
 51
83.9309584286
  0
ARC
  5
14B
330
1F
100
AcDbEntity
  8
0
  6
Continuous
 62
     7
370
    25
100
AcDbCircle
 10
3.4791113873
 20
7.4143201316
 30
0.0
 40
0.0393700787401571
100
AcDbArc
 50
158.1170978262
 51
263.9309584286
  0
ARC
  5
14C
330
1F
100
AcDbEntity
  8
0
  6
Continuous
 62
     7
370
    25
100
AcDbCircle
 10
-1.6560411872
 20
4.7893201316
 30
0.0
 40
0.0393700787401581
100
AcDbArc
 50
276.0690415714
 51
21.8829021738
  0
ARC
  5
14D
330
1F
100
AcDbEntity
  8
0
  6
Continuous
 62
     7
370
    25
100
AcDbCircle
 10
-1.5990153209
 20
4.2529731055
 30
0.0
 40
0.5000000000000003
100
AcDbArc
 50
96.0690415714
 51
264.2733579555
  0
ARC
  5
14E
330
1F
100
AcDbEntity
  8
0
  6
Continuous
 62
     7
370
    25
100
AcDbCircle
 10
-1.6528349787
 20
3.7162948721
 30
0.0
 40
0.0393700787401584
100
AcDbArc
 50
341.4666401838
 51
84.2733579555
  0
ARC
  5
14F
330
1F
100
AcDbEntity
  8
0
  6
Continuous
 62
     7
370
    25
100
AcDbCircle
 10
-3.4226182131
 20
3.7162948721
 30
0.0
 40
0.0393700787401578
100
AcDbArc
 50
95.7266420445
 51
198.5333598162
  0
ARC
  5
150
330
1F
100
AcDbEntity
  8
0
  6
Continuous
 62
     7
370
    25
100
AcDbCircle
 10
-3.4764378709
 20
4.2529731055
 30
0.0
 40
0.5000000000000004
100
AcDbArc
 50
275.7266420445
 51
83.9309584286
  0
ARC
  5
151
330
1F
100
AcDbEntity
  8
0
  6
Continuous
 62
     7
370
    25
100
AcDbCircle
 10
-3.4194120046
 20
4.7893201316
 30
0.0
 40
0.0393700787401583
100
AcDbArc
 50
158.1170978262
 51
263.9309584286
  0
ARC
  5
152
330
1F
100
AcDbEntity
  8
0
  6
Continuous
 62
     7
370
    25
100
AcDbCircle
 10
5.2424822047
 20
-0.3856798684
 30
0.0
 40
0.0393700787401558
100
AcDbArc
 50
276.0690415714
 51
21.8829021738
  0
ARC
  5
153
330
1F
100
AcDbEntity
  8
0
  6
Continuous
 62
     7
370
    25
100
AcDbCircle
 10
5.299508071
 20
-0.9220268945
 30
0.0
 40
0.5000000000000008
100
AcDbArc
 50
96.0690415714
 51
264.2733579555
  0
ARC
  5
154
330
1F
100
AcDbEntity
  8
0
  6
Continuous
 62
     7
370
    25
100
AcDbCircle
 10
5.2456884132
 20
-1.4587051279
 30
0.0
 40
0.0393700787401561
100
AcDbArc
 50
341.4666401838
 51
84.2733579555
  0
ARC
  5
155
330
1F
100
AcDbEntity
  8
0
  6
Continuous
 62
     7
370
    25
100
AcDbCircle
 10
3.4759051788
 20
-1.4587051279
 30
0.0
 40
0.0393700787401568
100
AcDbArc
 50
95.7266420445
 51
198.5333598162
  0
ARC
  5
156
330
1F
100
AcDbEntity
  8
0
  6
Continuous
 62
     7
370
    25
100
AcDbCircle
 10
3.422085521
 20
-0.9220268945
 30
0.0
 40
0.5000000000000002
100
AcDbArc
 50
275.7266420445
 51
83.9309584286
  0
ARC
  5
157
330
1F
100
AcDbEntity
  8
0
  6
Continuous
 62
     7
370
    25
100
AcDbCircle
 10
3.4791113873
 20
-0.3856798684
 30
0.0
 40
0.0393700787401582
100
AcDbArc
 50
158.1170978262
 51
263.9309584286
  0
ARC
  5
158
330
1F
100
AcDbEntity
  8
0
  6
Continuous
 62
     7
370
    25
100
AcDbCircle
 10
5.2424822047
 20
3.5143201316
 30
0.0
 40
0.0393700787401565
100
AcDbArc
 50
276.0690415714
 51
21.8829021738
  0
ARC
  5
159
330
1F
100
AcDbEntity
  8
0
  6
Continuous
 62
     7
370
    25
100
AcDbCircle
 10
5.299508071
 20
2.9779731055
 30
0.0
 40
0.5000000000000004
100
AcDbArc
 50
96.0690415714
 51
264.2733579555
  0
ARC
  5
15A
330
1F
100
AcDbEntity
  8
0
  6
Continuous
 62
     7
370
    25
100
AcDbCircle
 10
5.2456884132
 20
2.4412948721
 30
0.0
 40
0.0393700787401568
100
AcDbArc
 50
341.4666401838
 51
84.2733579555
  0
ARC
  5
15B
330
1F
100
AcDbEntity
  8
0
  6
Continuous
 62
     7
370
    25
100
AcDbCircle
 10
3.4759051788
 20
2.4412948721
 30
0.0
 40
0.0393700787401573
100
AcDbArc
 50
95.7266420445
 51
198.5333598162
  0
ARC
  5
15C
330
1F
100
AcDbEntity
  8
0
  6
Continuous
 62
     7
370
    25
100
AcDbCircle
 10
3.422085521
 20
2.9779731055
 30
0.0
 40
0.5000000000000006
100
AcDbArc
 50
275.7266420445
 51
83.9309584286
  0
ARC
  5
15D
330
1F
100
AcDbEntity
  8
0
  6
Continuous
 62
     7
370
    25
100
AcDbCircle
 10
3.4791113873
 20
3.5143201316
 30
0.0
 40
0.0393700787401577
100
AcDbArc
 50
158.1170978262
 51
263.9309584286
  0
ARC
  5
15E
330
1F
100
AcDbEntity
  8
0
  6
Continuous
 62
     7
370
    25
100
AcDbCircle
 10
-1.9259648999
 20
0.9165597878
 30
0.0
 40
0.3125000000000001
100
AcDbArc
 50
270.0
 51
90.0
  0
ARC
  5
15F
330
1F
100
AcDbEntity
  8
0
  6
Continuous
 62
     7
370
    25
100
AcDbCircle
 10
-1.9259648999
 20
1.7915597878
 30
0.0
 40
0.3125
100
AcDbArc
 50
270.0
 51
90.0
  0
ARC
  5
160
330
1F
100
AcDbEntity
  8
0
  6
Continuous
 62
     7
370
    25
100
AcDbCircle
 10
-1.9259648999
 20
0.0415597878
 30
0.0
 40
0.3125
100
AcDbArc
 50
270.0
 51
90.0
  0
MTEXT
  5
162
330
1F
100
AcDbEntity
  8
0
  6
Continuous
 62
     7
100
AcDbMText
 10
-4.2907912318
 20
-2.9610806213
 30
0.0
 40
0.1903
 41
0.0
 71
     1
 72
     1
  1
SOLIDWORKS Educational Product.
  7
SLDTEXTSTYLE0
 73
     1
 44
1.0
  0
MTEXT
  5
163
330
1F
100
AcDbEntity
  8
0
  6
Continuous
 62
     7
100
AcDbMText
 10
-4.2907912318
 20
-3.2465306213
 30
0.0
 40
0.1903
 41
0.0
 71
     1
 72
     1
  1
For Instructional Use Only.
  7
SLDTEXTSTYLE0
 73
     1
 44
1.0
  0
ENDSEC
  0
SECTION
  2
OBJECTS
  0
DICTIONARY
  5
C
330
0
100
AcDbDictionary
281
     1
  3
ACAD_GROUP
350
D
  3
ACAD_LAYOUT
350
1A
  3
ACAD_MLINESTYLE
350
17
  3
ACAD_PLOTSETTINGS
350
19
  3
ACAD_PLOTSTYLENAME
350
E
  3
ACAD_SCALELIST
350
47
  3
DWGPROPS
350
164
  0
DICTIONARY
  5
D
102
{ACAD_REACTORS
330
C
102
}
330
C
100
AcDbDictionary
281
     1
  0
DICTIONARY
  5
1A
102
{ACAD_REACTORS
330
C
102
}
330
C
100
AcDbDictionary
281
     1
  3
Layout1
350
1E
  3
Layout2
350
26
  3
Model
350
22
  0
DICTIONARY
  5
17
102
{ACAD_REACTORS
330
C
102
}
330
C
100
AcDbDictionary
281
     1
  3
Standard
350
18
  0
DICTIONARY
  5
19
102
{ACAD_REACTORS
330
C
102
}
330
C
100
AcDbDictionary
281
     1
  0
ACDBDICTIONARYWDFLT
  5
E
102
{ACAD_REACTORS
330
C
102
}
330
C
100
AcDbDictionary
281
     1
  3
Normal
350
F
100
AcDbDictionaryWithDefault
340
F
  0
DICTIONARY
  5
47
102
{ACAD_REACTORS
330
C
102
}
330
C
100
AcDbDictionary
281
     1
  3
A0
350
48
  3
A1
350
49
  3
A2
350
4A
  3
A3
350
4B
  3
A4
350
4C
  3
A5
350
4D
  3
A6
350
4E
  3
A7
350
4F
  3
A8
350
50
  3
A9
350
51
  3
B1
350
52
  3
B2
350
53
  3
B3
350
54
  3
B4
350
55
  3
B5
350
56
  3
B6
350
57
  3
B7
350
58
  0
XRECORD
  5
164
102
{ACAD_REACTORS
330
C
102
}
330
C
100
AcDbXrecord
280
     1
  1
DWGPROPS COOKIE
  2

  3

  4

  6

  7

  8
ryanchung
  9

300
=
301
=
302
=
303
=
304
=
305
=
306
=
307
=
308
=
309
=
 40
0.0
 41
2460752.917036158
 42
2460752.917068912
  1

 90
        0
  0
LAYOUT
  5
1E
102
{ACAD_REACTORS
330
1A
102
}
330
1A
100
AcDbPlotSettings
  1

  2
none_device
  4

  6

 40
0.0
 41
0.0
 42
0.0
 43
0.0
 44
0.0
 45
0.0
 46
0.0
 47
0.0
 48
0.0
 49
0.0
140
0.0
141
0.0
142
1.0
143
1.0
 70
   688
 72
     0
 73
     0
 74
     5
  7

 75
    16
147
1.0
148
0.0
149
0.0
100
AcDbLayout
  1
Layout1
 70
     1
 71
     1
 10
0.0
 20
0.0
 11
12.0
 21
9.0
 12
0.0
 22
0.0
 32
0.0
 14
1.0000000000E+20
 24
1.0000000000E+20
 34
1.0000000000E+20
 15
-1.0000000000E+20
 25
-1.0000000000E+20
 35
-1.0000000000E+20
146
0.0
 13
0.0
 23
0.0
 33
0.0
 16
1.0
 26
0.0
 36
0.0
 17
0.0
 27
1.0
 37
0.0
 76
     0
330
1B
  0
LAYOUT
  5
26
102
{ACAD_REACTORS
330
1A
102
}
330
1A
100
AcDbPlotSettings
  1

  2
none_device
  4

  6

 40
0.0
 41
0.0
 42
0.0
 43
0.0
 44
0.0
 45
0.0
 46
0.0
 47
0.0
 48
0.0
 49
0.0
140
0.0
141
0.0
142
1.0
143
1.0
 70
   688
 72
     0
 73
     0
 74
     5
  7

 75
    16
147
1.0
148
0.0
149
0.0
100
AcDbLayout
  1
Layout2
 70
     1
 71
     2
 10
0.0
 20
0.0
 11
0.0
 21
0.0
 12
0.0
 22
0.0
 32
0.0
 14
0.0
 24
0.0
 34
0.0
 15
0.0
 25
0.0
 35
0.0
146
0.0
 13
0.0
 23
0.0
 33
0.0
 16
1.0
 26
0.0
 36
0.0
 17
0.0
 27
1.0
 37
0.0
 76
     0
330
23
  0
LAYOUT
  5
22
102
{ACAD_REACTORS
330
1A
102
}
330
1A
100
AcDbPlotSettings
  1

  2
none_device
  4
ANSI_A_(11.00_x_8.50_Inches)
  6

 40
6.35
 41
19.05
 42
6.35000508
 43
19.05000254
 44
279.4
 45
215.9
 46
124.1501845397
 47
36.083583743
 48
0.0
 49
0.0
140
0.0
141
0.0
142
0.7285714286
143
1.0
 70
  1696
 72
     0
 73
     0
 74
     0
  7

 75
     0
147
0.5913241897
148
-39.4088153714
149
0.0
100
AcDbLayout
  1
Model
 70
     1
 71
     0
 10
0.0
 20
0.0
 11
12.0
 21
9.0
 12
0.0
 22
0.0
 32
0.0
 14
-4.2907912318
 24
-2.9209402122
 34
0.0
 15
5.285058492
 25
8.6290597878
 35
0.0
146
0.0
 13
0.0
 23
0.0
 33
0.0
 16
1.0
 26
0.0
 36
0.0
 17
0.0
 27
1.0
 37
0.0
 76
     0
330
1F
331
29
  0
MLINESTYLE
  5
18
102
{ACAD_REACTORS
330
17
102
}
330
17
100
AcDbMlineStyle
  2
Standard
 70
     0
  3

 62
   256
 51
90.0
 52
90.0
 71
     2
 49
0.5
 62
   256
  6
BYLAYER
 49
-0.5
 62
   256
  6
BYLAYER
  0
ACDBPLACEHOLDER
  5
F
102
{ACAD_REACTORS
330
E
102
}
330
E
  0
SCALE
  5
48
102
{ACAD_REACTORS
330
47
102
}
330
47
100
AcDbScale
 70
     0
300
1:1
140
1.0
141
1.0
290
     1
  0
SCALE
  5
49
102
{ACAD_REACTORS
330
47
102
}
330
47
100
AcDbScale
 70
     0
300
1/128" = 1'-0"
140
0.0078125
141
12.0
290
     0
  0
SCALE
  5
4A
102
{ACAD_REACTORS
330
47
102
}
330
47
100
AcDbScale
 70
     0
300
1/64" = 1'-0"
140
0.015625
141
12.0
290
     0
  0
SCALE
  5
4B
102
{ACAD_REACTORS
330
47
102
}
330
47
100
AcDbScale
 70
     0
300
1/32" = 1'-0"
140
0.03125
141
12.0
290
     0
  0
SCALE
  5
4C
102
{ACAD_REACTORS
330
47
102
}
330
47
100
AcDbScale
 70
     0
300
1/16" = 1'-0"
140
0.0625
141
12.0
290
     0
  0
SCALE
  5
4D
102
{ACAD_REACTORS
330
47
102
}
330
47
100
AcDbScale
 70
     0
300
3/32" = 1'-0"
140
0.09375
141
12.0
290
     0
  0
SCALE
  5
4E
102
{ACAD_REACTORS
330
47
102
}
330
47
100
AcDbScale
 70
     0
300
1/8" = 1'-0"
140
0.125
141
12.0
290
     0
  0
SCALE
  5
4F
102
{ACAD_REACTORS
330
47
102
}
330
47
100
AcDbScale
 70
     0
300
3/16" = 1'-0"
140
0.1875
141
12.0
290
     0
  0
SCALE
  5
50
102
{ACAD_REACTORS
330
47
102
}
330
47
100
AcDbScale
 70
     0
300
1/4" = 1'-0"
140
0.25
141
12.0
290
     0
  0
SCALE
  5
51
102
{ACAD_REACTORS
330
47
102
}
330
47
100
AcDbScale
 70
     0
300
3/8" = 1'-0"
140
0.375
141
12.0
290
     0
  0
SCALE
  5
52
102
{ACAD_REACTORS
330
47
102
}
330
47
100
AcDbScale
 70
     0
300
1/2" = 1'-0"
140
0.5
141
12.0
290
     0
  0
SCALE
  5
53
102
{ACAD_REACTORS
330
47
102
}
330
47
100
AcDbScale
 70
     0
300
3/4" = 1'-0"
140
0.75
141
12.0
290
     0
  0
SCALE
  5
54
102
{ACAD_REACTORS
330
47
102
}
330
47
100
AcDbScale
 70
     0
300
1" = 1'-0"
140
1.0
141
12.0
290
     0
  0
SCALE
  5
55
102
{ACAD_REACTORS
330
47
102
}
330
47
100
AcDbScale
 70
     0
300
1-1/2" = 1'-0"
140
1.5
141
12.0
290
     0
  0
SCALE
  5
56
102
{ACAD_REACTORS
330
47
102
}
330
47
100
AcDbScale
 70
     0
300
3" = 1'-0"
140
3.0
141
12.0
290
     0
  0
SCALE
  5
57
102
{ACAD_REACTORS
330
47
102
}
330
47
100
AcDbScale
 70
     0
300
6" = 1'-0"
140
6.0
141
12.0
290
     0
  0
SCALE
  5
58
102
{ACAD_REACTORS
330
47
102
}
330
47
100
AcDbScale
 70
     0
300
1'-0" = 1'-0"
140
12.0
141
12.0
290
     0
  0
ENDSEC
  0
EOF
