  0
SECTION
  2
HEADER
  9
$ACADVER
  1
AC1015
  9
$ACADMAINTVER
 70
     6
  9
$DWGCODEPAGE
  3
ANSI_1252
  9
$INSBASE
 10
0.0
 20
0.0
 30
0.0
  9
$EXTMIN
 10
0.0
 20
0.0
 30
0.0
  9
$EXTMAX
 10
10.125
 20
13.8264901473
 30
0.0
  9
$LIMMIN
 10
0.0
 20
0.0
  9
$LIMMAX
 10
12.0
 20
9.0
  9
$ORTHOMODE
 70
     0
  9
$REGENMODE
 70
     1
  9
$FILLMODE
 70
     1
  9
$QTEXTMODE
 70
     0
  9
$MIRRTEXT
 70
     1
  9
$LTSCALE
 40
1.0
  9
$ATTMODE
 70
     1
  9
$TEXTSIZE
 40
0.1377952756
  9
$TRACEWID
 40
0.05
  9
$TEXTSTYLE
  7
Standard
  9
$CLAYER
  8
0
  9
$CELTYPE
  6
ByLayer
  9
$CECOLOR
 62
   256
  9
$CELTSCALE
 40
1.0
  9
$DISPSILH
 70
     0
  9
$DIMSCALE
 40
1.0
  9
$DIMASZ
 40
0.13
  9
$DIMEXO
 40
0.0
  9
$DIMDLI
 40
0.38
  9
$DIMRND
 40
0.0
  9
$DIMDLE
 40
0.0
  9
$DIMEXE
 40
0.0393700787
  9
$DIMTP
 40
0.0
  9
$DIMTM
 40
0.0
  9
$DIMTXT
 40
0.1377952756
  9
$DIMCEN
 40
0.09
  9
$DIMTSZ
 40
0.0
  9
$DIMTOL
 70
     0
  9
$DIMLIM
 70
     0
  9
$DIMTIH
 70
     1
  9
$DIMTOH
 70
     1
  9
$DIMSE1
 70
     0
  9
$DIMSE2
 70
     0
  9
$DIMTAD
 70
     1
  9
$DIMZIN
 70
     1
  9
$DIMBLK
  1

  9
$DIMASO
 70
     1
  9
$DIMSHO
 70
     1
  9
$DIMPOST
  1

  9
$DIMAPOST
  1

  9
$DIMALT
 70
     0
  9
$DIMALTD
 70
     2
  9
$DIMALTF
 40
25.4
  9
$DIMLFAC
 40
1.0
  9
$DIMTOFL
 70
     0
  9
$DIMTVP
 40
0.0
  9
$DIMTIX
 70
     0
  9
$DIMSOXD
 70
     0
  9
$DIMSAH
 70
     0
  9
$DIMBLK1
  1

  9
$DIMBLK2
  1

  9
$DIMSTYLE
  2
Standard
  9
$DIMCLRD
 70
     0
  9
$DIMCLRE
 70
     0
  9
$DIMCLRT
 70
     0
  9
$DIMTFAC
 40
1.0
  9
$DIMGAP
 40
0.06
  9
$DIMJUST
 70
     0
  9
$DIMSD1
 70
     0
  9
$DIMSD2
 70
     0
  9
$DIMTOLJ
 70
     1
  9
$DIMTZIN
 70
     1
  9
$DIMALTZ
 70
     0
  9
$DIMALTTZ
 70
     0
  9
$DIMUPT
 70
     0
  9
$DIMDEC
 70
     2
  9
$DIMTDEC
 70
     2
  9
$DIMALTU
 70
     2
  9
$DIMALTTD
 70
     2
  9
$DIMTXSTY
  7
Standard
  9
$DIMAUNIT
 70
     0
  9
$DIMADEC
 70
     2
  9
$DIMALTRND
 40
0.0
  9
$DIMAZIN
 70
     0
  9
$DIMDSEP
 70
    46
  9
$DIMATFIT
 70
     3
  9
$DIMFRAC
 70
     0
  9
$DIMLDRBLK
  1

  9
$DIMLUNIT
 70
     2
  9
$DIMLWD
 70
    -2
  9
$DIMLWE
 70
    -2
  9
$DIMTMOVE
 70
     0
  9
$LUNITS
 70
     2
  9
$LUPREC
 70
     2
  9
$SKETCHINC
 40
0.1
  9
$FILLETRAD
 40
0.0
  9
$AUNITS
 70
     0
  9
$AUPREC
 70
     2
  9
$MENU
  1
.
  9
$ELEVATION
 40
0.0
  9
$PELEVATION
 40
0.0
  9
$THICKNESS
 40
0.0
  9
$LIMCHECK
 70
     0
  9
$CHAMFERA
 40
0.0
  9
$CHAMFERB
 40
0.0
  9
$CHAMFERC
 40
0.0
  9
$CHAMFERD
 40
0.0
  9
$SKPOLY
 70
     0
  9
$TDCREATE
 40
2460749.558902315
  9
$TDUCREATE
 40
2460749.767235649
  9
$TDUPDATE
 40
2460749.558995035
  9
$TDUUPDATE
 40
2460749.767328368
  9
$TDINDWG
 40
0.0000000116
  9
$TDUSRTIMER
 40
0.0000000116
  9
$USRTIMER
 70
     1
  9
$ANGBASE
 50
0.0
  9
$ANGDIR
 70
     0
  9
$PDMODE
 70
     0
  9
$PDSIZE
 40
-1.0
  9
$PLINEWID
 40
0.0
  9
$SPLFRAME
 70
     0
  9
$SPLINETYPE
 70
     6
  9
$SPLINESEGS
 70
     8
  9
$HANDSEED
  5
485
  9
$SURFTAB1
 70
     6
  9
$SURFTAB2
 70
     6
  9
$SURFTYPE
 70
     6
  9
$SURFU
 70
     6
  9
$SURFV
 70
     6
  9
$UCSBASE
  2

  9
$UCSNAME
  2

  9
$UCSORG
 10
0.0
 20
0.0
 30
0.0
  9
$UCSXDIR
 10
1.0
 20
0.0
 30
0.0
  9
$UCSYDIR
 10
0.0
 20
1.0
 30
0.0
  9
$UCSORTHOREF
  2

  9
$UCSORTHOVIEW
 70
     0
  9
$UCSORGTOP
 10
0.0
 20
0.0
 30
0.0
  9
$UCSORGBOTTOM
 10
0.0
 20
0.0
 30
0.0
  9
$UCSORGLEFT
 10
0.0
 20
0.0
 30
0.0
  9
$UCSORGRIGHT
 10
0.0
 20
0.0
 30
0.0
  9
$UCSORGFRONT
 10
0.0
 20
0.0
 30
0.0
  9
$UCSORGBACK
 10
0.0
 20
0.0
 30
0.0
  9
$PUCSBASE
  2

  9
$PUCSNAME
  2

  9
$PUCSORG
 10
0.0
 20
0.0
 30
0.0
  9
$PUCSXDIR
 10
1.0
 20
0.0
 30
0.0
  9
$PUCSYDIR
 10
0.0
 20
1.0
 30
0.0
  9
$PUCSORTHOREF
  2

  9
$PUCSORTHOVIEW
 70
     0
  9
$PUCSORGTOP
 10
0.0
 20
0.0
 30
0.0
  9
$PUCSORGBOTTOM
 10
0.0
 20
0.0
 30
0.0
  9
$PUCSORGLEFT
 10
0.0
 20
0.0
 30
0.0
  9
$PUCSORGRIGHT
 10
0.0
 20
0.0
 30
0.0
  9
$PUCSORGFRONT
 10
0.0
 20
0.0
 30
0.0
  9
$PUCSORGBACK
 10
0.0
 20
0.0
 30
0.0
  9
$USERI1
 70
     0
  9
$USERI2
 70
     0
  9
$USERI3
 70
     0
  9
$USERI4
 70
     0
  9
$USERI5
 70
     0
  9
$USERR1
 40
0.0
  9
$USERR2
 40
0.0
  9
$USERR3
 40
0.0
  9
$USERR4
 40
0.0
  9
$USERR5
 40
0.0
  9
$WORLDVIEW
 70
     1
  9
$SHADEDGE
 70
     3
  9
$SHADEDIF
 70
    70
  9
$TILEMODE
 70
     1
  9
$MAXACTVP
 70
    64
  9
$PINSBASE
 10
0.0
 20
0.0
 30
0.0
  9
$PLIMCHECK
 70
     0
  9
$PEXTMIN
 10
0.0
 20
0.0
 30
0.0
  9
$PEXTMAX
 10
10.125
 20
13.8264901473
 30
0.0
  9
$PLIMMIN
 10
-0.4320785188
 20
-0.4320778384
  9
$PLIMMAX
 10
18.5793463693
 20
14.2585686661
  9
$UNITMODE
 70
     0
  9
$VISRETAIN
 70
     1
  9
$PLINEGEN
 70
     0
  9
$PSLTSCALE
 70
     1
  9
$TREEDEPTH
 70
  3020
  9
$CMLSTYLE
  2
Standard
  9
$CMLJUST
 70
     0
  9
$CMLSCALE
 40
1.0
  9
$PROXYGRAPHICS
 70
     1
  9
$MEASUREMENT
 70
     0
  9
$CELWEIGHT
370
    -1
  9
$ENDCAPS
280
     0
  9
$JOINSTYLE
280
     0
  9
$LWDISPLAY
290
     1
  9
$INSUNITS
 70
     1
  9
$HYPERLINKBASE
  1

  9
$STYLESHEET
  1

  9
$XEDIT
290
     1
  9
$CEPSNTYPE
380
     0
  9
$PSTYLEMODE
290
     1
  9
$FINGERPRINTGUID
  2
{f7f62454-a3cf-46b5-8f61-ade2753b8ac1}
  9
$VERSIONGUID
  2
{FAEB1C32-E019-11D5-929B-00C0DF256EC4}
  9
$EXTNAMES
290
     1
  9
$PSVPSCALE
 40
0.0
  9
$OLESTARTUP
290
     0
  0
ENDSEC
  0
SECTION
  2
CLASSES
  0
CLASS
  1
ACDBDICTIONARYWDFLT
  2
AcDbDictionaryWithDefault
  3
ObjectDBX Classes
 90
        0
280
     0
281
     0
  0
CLASS
  1
VISUALSTYLE
  2
AcDbVisualStyle
  3
ObjectDBX Classes
 90
     4095
280
     0
281
     0
  0
CLASS
  1
MATERIAL
  2
AcDbMaterial
  3
ObjectDBX Classes
 90
     1153
280
     0
281
     0
  0
CLASS
  1
SCALE
  2
AcDbScale
  3
ObjectDBX Classes
 90
     1153
280
     0
281
     0
  0
CLASS
  1
TABLESTYLE
  2
AcDbTableStyle
  3
ObjectDBX Classes
 90
     4095
280
     0
281
     0
  0
CLASS
  1
MLEADERSTYLE
  2
AcDbMLeaderStyle
  3
ACDB_MLEADERSTYLE_CLASS
 90
     4095
280
     0
281
     0
  0
CLASS
  1
SUN
  2
AcDbSun
  3
SCENEOE
 90
     1153
280
     0
281
     0
  0
CLASS
  1
ACDBPLACEHOLDER
  2
AcDbPlaceHolder
  3
ObjectDBX Classes
 90
        0
280
     0
281
     0
  0
CLASS
  1
LAYOUT
  2
AcDbLayout
  3
ObjectDBX Classes
 90
        0
280
     0
281
     0
  0
ENDSEC
  0
SECTION
  2
TABLES
  0
TABLE
  2
VPORT
  5
8
330
0
100
AcDbSymbolTable
 70
     1
  0
VPORT
  5
29
330
8
100
AcDbSymbolTableRecord
100
AcDbViewportTableRecord
  2
*Active
 70
     0
 10
0.0
 20
0.0
 11
1.0
 21
1.0
 12
5.0625
 22
6.9132450736
 13
0.0
 23
0.0
 14
0.5
 24
0.5
 15
0.5
 25
0.5
 16
0.0
 26
0.0
 36
1.0
 17
0.0
 27
0.0
 37
0.0
 40
14.1030199502
 41
0.732289966
 42
50.0
 43
0.0
 44
0.0
 50
0.0
 51
0.0
 71
     0
 72
   100
 73
     1
 74
     3
 75
     0
 76
     0
 77
     0
 78
     0
281
     0
 65
     1
110
0.0
120
0.0
130
0.0
111
1.0
121
0.0
131
0.0
112
0.0
122
1.0
132
0.0
 79
     0
146
0.0
  0
ENDTAB
  0
TABLE
  2
LTYPE
  5
5
330
0
100
AcDbSymbolTable
 70
     6
  0
LTYPE
  5
14
330
5
100
AcDbSymbolTableRecord
100
AcDbLinetypeTableRecord
  2
ByBlock
 70
     0
  3

 72
    65
 73
     0
 40
0.0
  0
LTYPE
  5
15
330
5
100
AcDbSymbolTableRecord
100
AcDbLinetypeTableRecord
  2
ByLayer
 70
     0
  3

 72
    65
 73
     0
 40
0.0
  0
LTYPE
  5
16
330
5
100
AcDbSymbolTableRecord
100
AcDbLinetypeTableRecord
  2
Continuous
 70
     0
  3
Solid line
 72
    65
 73
     0
 40
0.0
  0
LTYPE
  5
5E
330
5
100
AcDbSymbolTableRecord
100
AcDbLinetypeTableRecord
  2
HIDDEN
 70
     0
  3
Hidden __ __ __ __ __ __ __ __ __ __ __ __ __ __
 72
    65
 73
     2
 40
0.075
 49
0.05
 74
     0
 49
-0.025
 74
     0
  0
LTYPE
  5
5F
330
5
100
AcDbSymbolTableRecord
100
AcDbLinetypeTableRecord
  2
PHANTOM
 70
     0
  3
Phantom ______  __  __  ______  __  __  ______
 72
    65
 73
     6
 40
0.5
 49
0.25
 74
     0
 49
-0.05
 74
     0
 49
0.05
 74
     0
 49
-0.05
 74
     0
 49
0.05
 74
     0
 49
-0.05
 74
     0
  0
LTYPE
  5
60
330
5
100
AcDbSymbolTableRecord
100
AcDbLinetypeTableRecord
  2
CENTER
 70
     0
  3
Center ____ _ ____ _ ____ _ ____ _ ____ _ ____
 72
    65
 73
     4
 40
0.4
 49
0.25
 74
     0
 49
-0.05
 74
     0
 49
0.05
 74
     0
 49
-0.05
 74
     0
  0
LTYPE
  5
61
330
5
100
AcDbSymbolTableRecord
100
AcDbLinetypeTableRecord
  2
CENTERX2
 70
     0
  3
Center (2x) ________  __  ________  __  _____
 72
    65
 73
     4
 40
0.8
 49
0.5
 74
     0
 49
-0.1
 74
     0
 49
0.1
 74
     0
 49
-0.1
 74
     0
  0
LTYPE
  5
62
330
5
100
AcDbSymbolTableRecord
100
AcDbLinetypeTableRecord
  2
DOT2
 70
     0
  3
Dot (.5x) ........................................
 72
    65
 73
     2
 40
0.025
 49
0.0
 74
     0
 49
-0.025
 74
     0
  0
ENDTAB
  0
TABLE
  2
LAYER
  5
2
330
0
100
AcDbSymbolTable
 70
     1
  0
LAYER
  5
10
330
2
100
AcDbSymbolTableRecord
100
AcDbLayerTableRecord
  2
0
 70
     0
 62
     7
  6
Continuous
370
    -3
390
F
  0
ENDTAB
  0
TABLE
  2
STYLE
  5
3
330
0
100
AcDbSymbolTable
 70
     2
  0
STYLE
  5
11
330
3
100
AcDbSymbolTableRecord
100
AcDbTextStyleTableRecord
  2
Standard
 70
     0
 40
0.0
 41
1.0
 50
0.0
 71
     0
 42
0.1377952756
  3
txt
  4

  0
STYLE
  5
47F
330
3
100
AcDbSymbolTableRecord
100
AcDbTextStyleTableRecord
  2
SLDTEXTSTYLE0
 70
     0
 40
0.0
 41
0.7
 50
0.0
 71
     0
 42
0.1377952756
  3
TXT
  4

  0
ENDTAB
  0
TABLE
  2
VIEW
  5
6
330
0
100
AcDbSymbolTable
 70
     0
  0
ENDTAB
  0
TABLE
  2
UCS
  5
7
330
0
100
AcDbSymbolTable
 70
     0
  0
ENDTAB
  0
TABLE
  2
APPID
  5
9
330
0
100
AcDbSymbolTable
 70
     1
  0
APPID
  5
12
330
9
100
AcDbSymbolTableRecord
100
AcDbRegAppTableRecord
  2
ACAD
 70
     0
  0
ENDTAB
  0
TABLE
  2
DIMSTYLE
  5
A
330
0
100
AcDbSymbolTable
 70
     1
100
AcDbDimStyleTable
  0
DIMSTYLE
105
27
330
A
100
AcDbSymbolTableRecord
100
AcDbDimStyleTableRecord
  2
Standard
 70
     0
178
     0
340
11
  0
ENDTAB
  0
TABLE
  2
BLOCK_RECORD
  5
1
330
0
100
AcDbSymbolTable
 70
     1
  0
BLOCK_RECORD
  5
1F
330
1
100
AcDbSymbolTableRecord
100
AcDbBlockTableRecord
  2
*Model_Space
340
22
  0
BLOCK_RECORD
  5
1B
330
1
100
AcDbSymbolTableRecord
100
AcDbBlockTableRecord
  2
*Paper_Space
340
1E
  0
BLOCK_RECORD
  5
23
330
1
100
AcDbSymbolTableRecord
100
AcDbBlockTableRecord
  2
*Paper_Space0
340
26
  0
ENDTAB
  0
ENDSEC
  0
SECTION
  2
BLOCKS
  0
BLOCK
  5
20
330
1F
100
AcDbEntity
  8
0
100
AcDbBlockBegin
  2
*Model_Space
 70
     0
 10
0.0
 20
0.0
 30
0.0
  3
*Model_Space
  1

  0
ENDBLK
  5
21
330
1F
100
AcDbEntity
  8
0
100
AcDbBlockEnd
  0
BLOCK
  5
1C
330
1B
100
AcDbEntity
 67
     1
  8
0
100
AcDbBlockBegin
  2
*Paper_Space
 70
     0
 10
0.0
 20
0.0
 30
0.0
  3
*Paper_Space
  1

  0
ENDBLK
  5
1D
330
1B
100
AcDbEntity
 67
     1
  8
0
100
AcDbBlockEnd
  0
BLOCK
  5
24
330
23
100
AcDbEntity
  8
0
100
AcDbBlockBegin
  2
*Paper_Space0
 70
     0
 10
0.0
 20
0.0
 30
0.0
  3
*Paper_Space0
  1

  0
ENDBLK
  5
25
330
23
100
AcDbEntity
  8
0
100
AcDbBlockEnd
  0
ENDSEC
  0
SECTION
  2
ENTITIES
  0
CIRCLE
  5
67
330
1F
100
AcDbEntity
  8
0
  6
Continuous
 62
     7
370
    25
100
AcDbCircle
 10
3.0
 20
13.5064694517
 30
0.0
 40
0.1284999999999994
  0
CIRCLE
  5
69
330
1F
100
AcDbEntity
  8
0
  6
Continuous
 62
     7
370
    25
100
AcDbCircle
 10
6.4625
 20
13.5064694517
 30
0.0
 40
0.1284999999999989
  0
CIRCLE
  5
71
330
1F
100
AcDbEntity
  8
0
  6
Continuous
 62
     7
370
    25
100
AcDbCircle
 10
3.0
 20
12.7314694517
 30
0.0
 40
0.1285000000000007
  0
CIRCLE
  5
72
330
1F
100
AcDbEntity
  8
0
  6
Continuous
 62
     7
370
    25
100
AcDbCircle
 10
8.5
 20
5.405
 30
0.0
 40
0.1285000000000018
  0
CIRCLE
  5
79
330
1F
100
AcDbEntity
  8
0
  6
Continuous
 62
     7
370
    25
100
AcDbCircle
 10
8.5
 20
6.155
 30
0.0
 40
0.1285000000000021
  0
CIRCLE
  5
7A
330
1F
100
AcDbEntity
  8
0
  6
Continuous
 62
     7
370
    25
100
AcDbCircle
 10
9.6875
 20
6.3146980585
 30
0.0
 40
0.1285000000000001
  0
CIRCLE
  5
80
330
1F
100
AcDbEntity
  8
0
  6
Continuous
 62
     7
370
    25
100
AcDbCircle
 10
9.6875
 20
5.5646980585
 30
0.0
 40
0.1285000000000024
  0
CIRCLE
  5
87
330
1F
100
AcDbEntity
  8
0
  6
Continuous
 62
     7
370
    25
100
AcDbCircle
 10
6.95
 20
1.5
 30
0.0
 40
0.100500000000002
  0
CIRCLE
  5
88
330
1F
100
AcDbEntity
  8
0
  6
Continuous
 62
     7
370
    25
100
AcDbCircle
 10
6.95
 20
4.5
 30
0.0
 40
0.1005000000000047
  0
CIRCLE
  5
89
330
1F
100
AcDbEntity
  8
0
  6
Continuous
 62
     7
370
    25
100
AcDbCircle
 10
6.95
 20
4.875
 30
0.0
 40
0.1005000000000047
  0
CIRCLE
  5
8A
330
1F
100
AcDbEntity
  8
0
  6
Continuous
 62
     7
370
    25
100
AcDbCircle
 10
6.95
 20
5.25
 30
0.0
 40
0.1005000000000029
  0
CIRCLE
  5
8B
330
1F
100
AcDbEntity
  8
0
  6
Continuous
 62
     7
370
    25
100
AcDbCircle
 10
6.95
 20
5.625
 30
0.0
 40
0.1005000000000029
  0
CIRCLE
  5
8C
330
1F
100
AcDbEntity
  8
0
  6
Continuous
 62
     7
370
    25
100
AcDbCircle
 10
6.95
 20
4.125
 30
0.0
 40
0.1005000000000038
  0
CIRCLE
  5
8D
330
1F
100
AcDbEntity
  8
0
  6
Continuous
 62
     7
370
    25
100
AcDbCircle
 10
6.95
 20
3.75
 30
0.0
 40
0.1005000000000029
  0
CIRCLE
  5
8E
330
1F
100
AcDbEntity
  8
0
  6
Continuous
 62
     7
370
    25
100
AcDbCircle
 10
6.95
 20
3.375
 30
0.0
 40
0.100500000000002
  0
CIRCLE
  5
8F
330
1F
100
AcDbEntity
  8
0
  6
Continuous
 62
     7
370
    25
100
AcDbCircle
 10
6.95
 20
1.875
 30
0.0
 40
0.1005000000000029
  0
CIRCLE
  5
90
330
1F
100
AcDbEntity
  8
0
  6
Continuous
 62
     7
370
    25
100
AcDbCircle
 10
6.95
 20
2.25
 30
0.0
 40
0.100500000000002
  0
CIRCLE
  5
91
330
1F
100
AcDbEntity
  8
0
  6
Continuous
 62
     7
370
    25
100
AcDbCircle
 10
6.95
 20
2.625
 30
0.0
 40
0.100500000000002
  0
CIRCLE
  5
92
330
1F
100
AcDbEntity
  8
0
  6
Continuous
 62
     7
370
    25
100
AcDbCircle
 10
6.95
 20
1.125
 30
0.0
 40
0.100500000000002
  0
CIRCLE
  5
93
330
1F
100
AcDbEntity
  8
0
  6
Continuous
 62
     7
370
    25
100
AcDbCircle
 10
6.95
 20
0.75
 30
0.0
 40
0.100500000000002
  0
CIRCLE
  5
94
330
1F
100
AcDbEntity
  8
0
  6
Continuous
 62
     7
370
    25
100
AcDbCircle
 10
6.95
 20
0.375
 30
0.0
 40
0.100500000000002
  0
CIRCLE
  5
9B
330
1F
100
AcDbEntity
  8
0
  6
Continuous
 62
     7
370
    25
100
AcDbCircle
 10
4.65
 20
1.5
 30
0.0
 40
0.1005000000000029
  0
CIRCLE
  5
9C
330
1F
100
AcDbEntity
  8
0
  6
Continuous
 62
     7
370
    25
100
AcDbCircle
 10
4.65
 20
4.5
 30
0.0
 40
0.1005000000000038
  0
CIRCLE
  5
9D
330
1F
100
AcDbEntity
  8
0
  6
Continuous
 62
     7
370
    25
100
AcDbCircle
 10
4.65
 20
4.875
 30
0.0
 40
0.1005000000000038
  0
CIRCLE
  5
9E
330
1F
100
AcDbEntity
  8
0
  6
Continuous
 62
     7
370
    25
100
AcDbCircle
 10
4.65
 20
5.25
 30
0.0
 40
0.1005000000000029
  0
CIRCLE
  5
9F
330
1F
100
AcDbEntity
  8
0
  6
Continuous
 62
     7
370
    25
100
AcDbCircle
 10
4.65
 20
5.625
 30
0.0
 40
0.1005000000000038
  0
CIRCLE
  5
A0
330
1F
100
AcDbEntity
  8
0
  6
Continuous
 62
     7
370
    25
100
AcDbCircle
 10
4.65
 20
4.125
 30
0.0
 40
0.100500000000002
  0
CIRCLE
  5
A1
330
1F
100
AcDbEntity
  8
0
  6
Continuous
 62
     7
370
    25
100
AcDbCircle
 10
4.65
 20
3.75
 30
0.0
 40
0.100500000000002
  0
CIRCLE
  5
A2
330
1F
100
AcDbEntity
  8
0
  6
Continuous
 62
     7
370
    25
100
AcDbCircle
 10
4.65
 20
3.375
 30
0.0
 40
0.100500000000002
  0
CIRCLE
  5
A3
330
1F
100
AcDbEntity
  8
0
  6
Continuous
 62
     7
370
    25
100
AcDbCircle
 10
4.65
 20
1.875
 30
0.0
 40
0.1005000000000029
  0
CIRCLE
  5
A4
330
1F
100
AcDbEntity
  8
0
  6
Continuous
 62
     7
370
    25
100
AcDbCircle
 10
4.65
 20
2.25
 30
0.0
 40
0.1005000000000029
  0
CIRCLE
  5
A5
330
1F
100
AcDbEntity
  8
0
  6
Continuous
 62
     7
370
    25
100
AcDbCircle
 10
4.65
 20
2.625
 30
0.0
 40
0.100500000000002
  0
CIRCLE
  5
A6
330
1F
100
AcDbEntity
  8
0
  6
Continuous
 62
     7
370
    25
100
AcDbCircle
 10
4.65
 20
1.125
 30
0.0
 40
0.1005000000000029
  0
CIRCLE
  5
A7
330
1F
100
AcDbEntity
  8
0
  6
Continuous
 62
     7
370
    25
100
AcDbCircle
 10
4.65
 20
0.75
 30
0.0
 40
0.1005000000000029
  0
CIRCLE
  5
A8
330
1F
100
AcDbEntity
  8
0
  6
Continuous
 62
     7
370
    25
100
AcDbCircle
 10
4.65
 20
0.375
 30
0.0
 40
0.1005000000000029
  0
CIRCLE
  5
AA
330
1F
100
AcDbEntity
  8
0
  6
Continuous
 62
     7
370
    25
100
AcDbCircle
 10
9.625
 20
3.2788935804
 30
0.0
 40
0.0979999999999933
  0
CIRCLE
  5
AF
330
1F
100
AcDbEntity
  8
0
  6
Continuous
 62
     7
370
    25
100
AcDbCircle
 10
9.625
 20
4.7896980585
 30
0.0
 40
0.097999999999989
  0
CIRCLE
  5
B4
330
1F
100
AcDbEntity
  8
0
  6
Continuous
 62
     7
370
    25
100
AcDbCircle
 10
8.625
 20
2.905
 30
0.0
 40
0.0979999999999933
  0
CIRCLE
  5
B9
330
1F
100
AcDbEntity
  8
0
  6
Continuous
 62
     7
370
    25
100
AcDbCircle
 10
8.625
 20
4.63
 30
0.0
 40
0.0979999999999978
  0
CIRCLE
  5
CE
330
1F
100
AcDbEntity
  8
0
  6
Continuous
 62
     7
370
    25
100
AcDbCircle
 10
9.6247822847
 20
1.0843210571
 30
0.0
 40
0.1284999999999992
  0
CIRCLE
  5
D3
330
1F
100
AcDbEntity
  8
0
  6
Continuous
 62
     7
370
    25
100
AcDbCircle
 10
8.625
 20
1.18
 30
0.0
 40
0.1285000000000005
  0
CIRCLE
  5
F4
330
1F
100
AcDbEntity
  8
0
  6
Continuous
 62
     7
370
    25
100
AcDbCircle
 10
2.125
 20
7.8547903684
 30
0.0
 40
0.4749999999999991
  0
CIRCLE
  5
FA
330
1F
100
AcDbEntity
  8
0
  6
Continuous
 62
     7
370
    25
100
AcDbCircle
 10
2.125
 20
5.2957352503
 30
0.0
 40
0.4749999999999993
  0
CIRCLE
  5
FB
330
1F
100
AcDbEntity
  8
0
  6
Continuous
 62
     7
370
    25
100
AcDbCircle
 10
3.125
 20
3.1125
 30
0.0
 40
0.1285000000000016
  0
CIRCLE
  5
102
330
1F
100
AcDbEntity
  8
0
  6
Continuous
 62
     7
370
    25
100
AcDbCircle
 10
0.375
 20
3.1125
 30
0.0
 40
0.1285000000000021
  0
CIRCLE
  5
103
330
1F
100
AcDbEntity
  8
0
  6
Continuous
 62
     7
370
    25
100
AcDbCircle
 10
3.125
 20
1.8375
 30
0.0
 40
0.1285000000000016
  0
CIRCLE
  5
107
330
1F
100
AcDbEntity
  8
0
  6
Continuous
 62
     7
370
    25
100
AcDbCircle
 10
0.375
 20
1.8375
 30
0.0
 40
0.1285000000000027
  0
CIRCLE
  5
10B
330
1F
100
AcDbEntity
  8
0
  6
Continuous
 62
     7
370
    25
100
AcDbCircle
 10
0.3125
 20
0.625
 30
0.0
 40
0.1285000000000005
  0
CIRCLE
  5
111
330
1F
100
AcDbEntity
  8
0
  6
Continuous
 62
     7
370
    25
100
AcDbCircle
 10
1.1875
 20
0.625
 30
0.0
 40
0.1285000000000006
  0
CIRCLE
  5
113
330
1F
100
AcDbEntity
  8
0
  6
Continuous
 62
     7
370
    25
100
AcDbCircle
 10
2.0625
 20
0.625
 30
0.0
 40
0.1285000000000002
  0
CIRCLE
  5
117
330
1F
100
AcDbEntity
  8
0
  6
Continuous
 62
     7
370
    25
100
AcDbCircle
 10
2.9375
 20
0.625
 30
0.0
 40
0.1285000000000005
  0
CIRCLE
  5
12F
330
1F
100
AcDbEntity
  8
0
  6
Continuous
 62
     7
370
    25
100
AcDbCircle
 10
6.5561304813
 20
12.3697487714
 30
0.0
 40
0.1285000000000016
  0
CIRCLE
  5
130
330
1F
100
AcDbEntity
  8
0
  6
Continuous
 62
     7
370
    25
100
AcDbCircle
 10
9.3061304813
 20
12.3697487714
 30
0.0
 40
0.1285000000000051
  0
CIRCLE
  5
14D
330
1F
100
AcDbEntity
  8
0
  6
Continuous
 62
     7
370
    25
100
AcDbCircle
 10
8.6682586242
 20
7.0896980585
 30
0.0
 40
0.1285000000000104
  0
CIRCLE
  5
14E
330
1F
100
AcDbEntity
  8
0
  6
Continuous
 62
     7
370
    25
100
AcDbCircle
 10
8.6682586242
 20
9.8396980585
 30
0.0
 40
0.1285000000000033
  0
CIRCLE
  5
16B
330
1F
100
AcDbEntity
  8
0
  6
Continuous
 62
     7
370
    25
100
AcDbCircle
 10
6.4229329506
 20
10.8706876463
 30
0.0
 40
0.1285000000000016
  0
CIRCLE
  5
16C
330
1F
100
AcDbEntity
  8
0
  6
Continuous
 62
     7
370
    25
100
AcDbCircle
 10
3.6729329506
 20
10.8706876463
 30
0.0
 40
0.1285000000000068
  0
CIRCLE
  5
175
330
1F
100
AcDbEntity
  8
0
  6
Continuous
 62
     7
370
    25
100
AcDbCircle
 10
2.5403543307
 20
9.6047903684
 30
0.0
 40
0.125
  0
CIRCLE
  5
176
330
1F
100
AcDbEntity
  8
0
  6
Continuous
 62
     7
370
    25
100
AcDbCircle
 10
0.375
 20
9.6047903684
 30
0.0
 40
0.1249999999999982
  0
LINE
  5
187
330
1F
100
AcDbEntity
  8
0
  6
Continuous
 62
     7
370
    25
100
AcDbLine
 10
0.0
 20
13.8189694517
 30
0.0
 11
3.0
 21
13.8189694517
 31
0.0
  0
LINE
  5
188
330
1F
100
AcDbEntity
  8
0
  6
Continuous
 62
     7
370
    25
100
AcDbLine
 10
3.0
 20
13.1939694517
 30
0.0
 11
0.0
 21
13.1939694517
 31
0.0
  0
LINE
  5
189
330
1F
100
AcDbEntity
  8
0
  6
Continuous
 62
     7
370
    25
100
AcDbLine
 10
0.0
 20
13.1939694517
 30
0.0
 11
0.0
 21
13.8189694517
 31
0.0
  0
LINE
  5
18A
330
1F
100
AcDbEntity
  8
0
  6
Continuous
 62
     7
370
    25
100
AcDbLine
 10
6.4625
 20
13.1939694517
 30
0.0
 11
3.4625
 21
13.1939694517
 31
0.0
  0
LINE
  5
18B
330
1F
100
AcDbEntity
  8
0
  6
Continuous
 62
     7
370
    25
100
AcDbLine
 10
3.4625
 20
13.1939694517
 30
0.0
 11
3.4625
 21
13.8189694517
 31
0.0
  0
LINE
  5
18C
330
1F
100
AcDbEntity
  8
0
  6
Continuous
 62
     7
370
    25
100
AcDbLine
 10
3.4625
 20
13.8189694517
 30
0.0
 11
6.4625
 21
13.8189694517
 31
0.0
  0
LINE
  5
18D
330
1F
100
AcDbEntity
  8
0
  6
Continuous
 62
     7
370
    25
100
AcDbLine
 10
0.0
 20
13.0439694517
 30
0.0
 11
3.0
 21
13.0439694517
 31
0.0
  0
LINE
  5
18E
330
1F
100
AcDbEntity
  8
0
  6
Continuous
 62
     7
370
    25
100
AcDbLine
 10
3.0
 20
12.4189694517
 30
0.0
 11
0.0
 21
12.4189694517
 31
0.0
  0
LINE
  5
18F
330
1F
100
AcDbEntity
  8
0
  6
Continuous
 62
     7
370
    25
100
AcDbLine
 10
0.0
 20
12.4189694517
 30
0.0
 11
0.0
 21
13.0439694517
 31
0.0
  0
LINE
  5
190
330
1F
100
AcDbEntity
  8
0
  6
Continuous
 62
     7
370
    25
100
AcDbLine
 10
8.9375
 20
5.155
 30
0.0
 11
8.5
 21
5.155
 31
0.0
  0
LINE
  5
191
330
1F
100
AcDbEntity
  8
0
  6
Continuous
 62
     7
370
    25
100
AcDbLine
 10
8.25
 20
5.405
 30
0.0
 11
8.25
 21
6.155
 31
0.0
  0
LINE
  5
192
330
1F
100
AcDbEntity
  8
0
  6
Continuous
 62
     7
370
    25
100
AcDbLine
 10
8.5
 20
6.405
 30
0.0
 11
8.9375
 21
6.405
 31
0.0
  0
LINE
  5
193
330
1F
100
AcDbEntity
  8
0
  6
Continuous
 62
     7
370
    25
100
AcDbLine
 10
8.9375
 20
6.405
 30
0.0
 11
8.9375
 21
5.155
 31
0.0
  0
LINE
  5
194
330
1F
100
AcDbEntity
  8
0
  6
Continuous
 62
     7
370
    25
100
AcDbLine
 10
9.25
 20
6.5646980585
 30
0.0
 11
9.6875
 21
6.5646980585
 31
0.0
  0
LINE
  5
195
330
1F
100
AcDbEntity
  8
0
  6
Continuous
 62
     7
370
    25
100
AcDbLine
 10
9.9375
 20
6.3146980585
 30
0.0
 11
9.9375
 21
5.5646980585
 31
0.0
  0
LINE
  5
196
330
1F
100
AcDbEntity
  8
0
  6
Continuous
 62
     7
370
    25
100
AcDbLine
 10
9.6875
 20
5.3146980585
 30
0.0
 11
9.25
 21
5.3146980585
 31
0.0
  0
LINE
  5
197
330
1F
100
AcDbEntity
  8
0
  6
Continuous
 62
     7
370
    25
100
AcDbLine
 10
9.25
 20
5.3146980585
 30
0.0
 11
9.25
 21
6.5646980585
 31
0.0
  0
LINE
  5
198
330
1F
100
AcDbEntity
  8
0
  6
Continuous
 62
     7
370
    25
100
AcDbLine
 10
5.95
 20
0.5
 30
0.0
 11
5.95
 21
5.5
 31
0.0
  0
LINE
  5
199
330
1F
100
AcDbEntity
  8
0
  6
Continuous
 62
     7
370
    25
100
AcDbLine
 10
8.1
 20
6.0
 30
0.0
 11
8.1
 21
0.0
 31
0.0
  0
LINE
  5
19A
330
1F
100
AcDbEntity
  8
0
  6
Continuous
 62
     7
370
    25
100
AcDbLine
 10
8.1
 20
0.0
 30
0.0
 11
6.45
 21
0.0
 31
0.0
  0
LINE
  5
19B
330
1F
100
AcDbEntity
  8
0
  6
Continuous
 62
     7
370
    25
100
AcDbLine
 10
8.1
 20
6.0
 30
0.0
 11
6.45
 21
6.0
 31
0.0
  0
LINE
  5
19C
330
1F
100
AcDbEntity
  8
0
  6
Continuous
 62
     7
370
    25
100
AcDbLine
 10
3.65
 20
0.5
 30
0.0
 11
3.65
 21
5.5
 31
0.0
  0
LINE
  5
19D
330
1F
100
AcDbEntity
  8
0
  6
Continuous
 62
     7
370
    25
100
AcDbLine
 10
5.8
 20
6.0
 30
0.0
 11
4.15
 21
6.0
 31
0.0
  0
LINE
  5
19E
330
1F
100
AcDbEntity
  8
0
  6
Continuous
 62
     7
370
    25
100
AcDbLine
 10
5.8
 20
0.0
 30
0.0
 11
4.15
 21
0.0
 31
0.0
  0
LINE
  5
19F
330
1F
100
AcDbEntity
  8
0
  6
Continuous
 62
     7
370
    25
100
AcDbLine
 10
5.8
 20
6.0
 30
0.0
 11
5.8
 21
0.0
 31
0.0
  0
LINE
  5
1A0
330
1F
100
AcDbEntity
  8
0
  6
Continuous
 62
     7
370
    25
100
AcDbLine
 10
10.0
 20
2.2930891023
 30
0.0
 11
10.0
 21
3.2788935804
 31
0.0
  0
LINE
  5
1A1
330
1F
100
AcDbEntity
  8
0
  6
Continuous
 62
     7
370
    25
100
AcDbLine
 10
9.25
 20
2.2930891023
 30
0.0
 11
10.0
 21
2.2930891023
 31
0.0
  0
LINE
  5
1A2
330
1F
100
AcDbEntity
  8
0
  6
Continuous
 62
     7
370
    25
100
AcDbLine
 10
9.25
 20
3.2788935804
 30
0.0
 11
9.25
 21
2.2930891023
 31
0.0
  0
LINE
  5
1A3
330
1F
100
AcDbEntity
  8
0
  6
Continuous
 62
     7
370
    25
100
AcDbLine
 10
10.0
 20
3.8038935804
 30
0.0
 11
10.0
 21
4.7896980585
 31
0.0
  0
LINE
  5
1A4
330
1F
100
AcDbEntity
  8
0
  6
Continuous
 62
     7
370
    25
100
AcDbLine
 10
9.25
 20
3.8038935804
 30
0.0
 11
10.0
 21
3.8038935804
 31
0.0
  0
LINE
  5
1A5
330
1F
100
AcDbEntity
  8
0
  6
Continuous
 62
     7
370
    25
100
AcDbLine
 10
9.25
 20
4.7896980585
 30
0.0
 11
9.25
 21
3.8038935804
 31
0.0
  0
LINE
  5
1A6
330
1F
100
AcDbEntity
  8
0
  6
Continuous
 62
     7
370
    25
100
AcDbLine
 10
8.25
 20
2.905
 30
0.0
 11
8.25
 21
1.705
 31
0.0
  0
LINE
  5
1A7
330
1F
100
AcDbEntity
  8
0
  6
Continuous
 62
     7
370
    25
100
AcDbLine
 10
9.0
 20
1.705
 30
0.0
 11
9.0
 21
2.905
 31
0.0
  0
LINE
  5
1A8
330
1F
100
AcDbEntity
  8
0
  6
Continuous
 62
     7
370
    25
100
AcDbLine
 10
8.25
 20
1.705
 30
0.0
 11
9.0
 21
1.705
 31
0.0
  0
LINE
  5
1A9
330
1F
100
AcDbEntity
  8
0
  6
Continuous
 62
     7
370
    25
100
AcDbLine
 10
8.25
 20
4.63
 30
0.0
 11
8.25
 21
3.43
 31
0.0
  0
LINE
  5
1AA
330
1F
100
AcDbEntity
  8
0
  6
Continuous
 62
     7
370
    25
100
AcDbLine
 10
9.0
 20
3.43
 30
0.0
 11
9.0
 21
4.63
 31
0.0
  0
LINE
  5
1AB
330
1F
100
AcDbEntity
  8
0
  6
Continuous
 62
     7
370
    25
100
AcDbLine
 10
8.25
 20
3.43
 30
0.0
 11
9.0
 21
3.43
 31
0.0
  0
LINE
  5
1AC
330
1F
100
AcDbEntity
  8
0
  6
Continuous
 62
     7
370
    25
100
AcDbLine
 10
5.3830873259
 20
7.3507874016
 30
0.0
 11
5.6412541969
 21
7.3507874016
 31
0.0
  0
LINE
  5
1AD
330
1F
100
AcDbEntity
  8
0
  6
Continuous
 62
     7
370
    25
100
AcDbLine
 10
5.6412541969
 20
6.524015748
 30
0.0
 11
5.3830873259
 21
6.524015748
 31
0.0
  0
LINE
  5
1AE
330
1F
100
AcDbEntity
  8
0
  6
Continuous
 62
     7
370
    25
100
AcDbLine
 10
4.0749059318
 20
6.15
 30
0.0
 11
3.5
 21
7.7248031496
 31
0.0
  0
LINE
  5
1AF
330
1F
100
AcDbEntity
  8
0
  6
Continuous
 62
     7
370
    25
100
AcDbLine
 10
3.5
 20
7.7248031496
 30
0.0
 11
7.5243415228
 21
7.7248031496
 31
0.0
  0
LINE
  5
1B0
330
1F
100
AcDbEntity
  8
0
  6
Continuous
 62
     7
370
    25
100
AcDbLine
 10
7.5243415228
 20
7.7248031496
 30
0.0
 11
6.9494355909
 21
6.15
 31
0.0
  0
LINE
  5
1B1
330
1F
100
AcDbEntity
  8
0
  6
Continuous
 62
     7
370
    25
100
AcDbLine
 10
6.9494355909
 20
6.15
 30
0.0
 11
4.0749059318
 21
6.15
 31
0.0
  0
LINE
  5
1B2
330
1F
100
AcDbEntity
  8
0
  6
Continuous
 62
     7
370
    25
100
AcDbLine
 10
5.6412541969
 20
8.2488188976
 30
0.0
 11
5.3830873259
 21
8.2488188976
 31
0.0
  0
LINE
  5
1B3
330
1F
100
AcDbEntity
  8
0
  6
Continuous
 62
     7
370
    25
100
AcDbLine
 10
5.3830873259
 20
9.0755905512
 30
0.0
 11
5.6412541969
 21
9.0755905512
 31
0.0
  0
LINE
  5
1B4
330
1F
100
AcDbEntity
  8
0
  6
Continuous
 62
     7
370
    25
100
AcDbLine
 10
6.9494355909
 20
9.4496062992
 30
0.0
 11
7.5243415228
 21
7.8748031496
 31
0.0
  0
LINE
  5
1B5
330
1F
100
AcDbEntity
  8
0
  6
Continuous
 62
     7
370
    25
100
AcDbLine
 10
7.5243415228
 20
7.8748031496
 30
0.0
 11
3.5
 21
7.8748031496
 31
0.0
  0
LINE
  5
1B6
330
1F
100
AcDbEntity
  8
0
  6
Continuous
 62
     7
370
    25
100
AcDbLine
 10
3.5
 20
7.8748031496
 30
0.0
 11
4.0749059318
 21
9.4496062992
 31
0.0
  0
LINE
  5
1B7
330
1F
100
AcDbEntity
  8
0
  6
Continuous
 62
     7
370
    25
100
AcDbLine
 10
4.0749059318
 20
9.4496062992
 30
0.0
 11
6.9494355909
 21
9.4496062992
 31
0.0
  0
LINE
  5
1B8
330
1F
100
AcDbEntity
  8
0
  6
Continuous
 62
     7
370
    25
100
AcDbLine
 10
9.9995645693
 20
0.3321889394
 30
0.0
 11
9.9995645693
 21
1.8620061869
 31
0.0
  0
LINE
  5
1B9
330
1F
100
AcDbEntity
  8
0
  6
Continuous
 62
     7
370
    25
100
AcDbLine
 10
9.25
 20
0.0
 30
0.0
 11
9.9995645693
 21
0.3321889394
 31
0.0
  0
LINE
  5
1BA
330
1F
100
AcDbEntity
  8
0
  6
Continuous
 62
     7
370
    25
100
AcDbLine
 10
9.25
 20
2.1430891023
 30
0.0
 11
9.25
 21
0.0
 31
0.0
  0
LINE
  5
1BB
330
1F
100
AcDbEntity
  8
0
  6
Continuous
 62
     7
370
    25
100
AcDbLine
 10
9.9995645693
 20
1.8620061869
 30
0.0
 11
9.25
 21
2.1430891023
 31
0.0
  0
LINE
  5
1BC
330
1F
100
AcDbEntity
  8
0
  6
Continuous
 62
     7
370
    25
100
AcDbLine
 10
8.25
 20
1.18
 30
0.0
 11
8.25
 21
0.0
 31
0.0
  0
LINE
  5
1BD
330
1F
100
AcDbEntity
  8
0
  6
Continuous
 62
     7
370
    25
100
AcDbLine
 10
9.0
 20
0.0
 30
0.0
 11
9.0
 21
1.18
 31
0.0
  0
LINE
  5
1BE
330
1F
100
AcDbEntity
  8
0
  6
Continuous
 62
     7
370
    25
100
AcDbLine
 10
8.25
 20
0.0
 30
0.0
 11
9.0
 21
0.0
 31
0.0
  0
LINE
  5
1BF
330
1F
100
AcDbEntity
  8
0
  6
Continuous
 62
     7
370
    25
100
AcDbLine
 10
1.9965
 20
4.6412076912
 30
0.0
 11
1.9965
 21
4.3912076912
 31
0.0
  0
LINE
  5
1C0
330
1F
100
AcDbEntity
  8
0
  6
Continuous
 62
     7
370
    25
100
AcDbLine
 10
2.2535
 20
4.3912076912
 30
0.0
 11
2.2535
 21
4.6412076912
 31
0.0
  0
LINE
  5
1C1
330
1F
100
AcDbEntity
  8
0
  6
Continuous
 62
     7
370
    25
100
AcDbLine
 10
2.2535
 20
5.9502628093
 30
0.0
 11
2.2535
 21
6.2002628093
 31
0.0
  0
LINE
  5
1C2
330
1F
100
AcDbEntity
  8
0
  6
Continuous
 62
     7
370
    25
100
AcDbLine
 10
1.9965
 20
6.2002628093
 30
0.0
 11
1.9965
 21
5.9502628093
 31
0.0
  0
LINE
  5
1C3
330
1F
100
AcDbEntity
  8
0
  6
Continuous
 62
     7
370
    25
100
AcDbLine
 10
1.9965
 20
7.2002628093
 30
0.0
 11
1.9965
 21
6.9502628093
 31
0.0
  0
LINE
  5
1C4
330
1F
100
AcDbEntity
  8
0
  6
Continuous
 62
     7
370
    25
100
AcDbLine
 10
2.2535
 20
6.9502628093
 30
0.0
 11
2.2535
 21
7.2002628093
 31
0.0
  0
LINE
  5
1C5
330
1F
100
AcDbEntity
  8
0
  6
Continuous
 62
     7
370
    25
100
AcDbLine
 10
0.7141045486
 20
5.1931742928
 30
0.0
 11
0.7141045486
 21
5.3982962077
 31
0.0
  0
LINE
  5
1C6
330
1F
100
AcDbEntity
  8
0
  6
Continuous
 62
     7
370
    25
100
AcDbLine
 10
0.2858954514
 20
5.3982962077
 30
0.0
 11
0.2858954514
 21
5.1931742928
 31
0.0
  0
LINE
  5
1C7
330
1F
100
AcDbEntity
  8
0
  6
Continuous
 62
     7
370
    25
100
AcDbLine
 10
0.7141045486
 20
7.2522294109
 30
0.0
 11
0.7141045486
 21
7.4573513258
 31
0.0
  0
LINE
  5
1C8
330
1F
100
AcDbEntity
  8
0
  6
Continuous
 62
     7
370
    25
100
AcDbLine
 10
0.2858954514
 20
7.4573513258
 30
0.0
 11
0.2858954514
 21
7.2522294109
 31
0.0
  0
LINE
  5
1C9
330
1F
100
AcDbEntity
  8
0
  6
Continuous
 62
     7
370
    25
100
AcDbLine
 10
0.7225
 20
8.2522294109
 30
0.0
 11
0.7225
 21
8.4573513258
 31
0.0
  0
LINE
  5
1CA
330
1F
100
AcDbEntity
  8
0
  6
Continuous
 62
     7
370
    25
100
AcDbLine
 10
0.2775
 20
8.4573513258
 30
0.0
 11
0.2775
 21
8.2522294109
 31
0.0
  0
LINE
  5
1CB
330
1F
100
AcDbEntity
  8
0
  6
Continuous
 62
     7
370
    25
100
AcDbLine
 10
2.2535
 20
8.5093179274
 30
0.0
 11
2.2535
 21
8.7593179274
 31
0.0
  0
LINE
  5
1CC
330
1F
100
AcDbEntity
  8
0
  6
Continuous
 62
     7
370
    25
100
AcDbLine
 10
1.9965
 20
8.7593179274
 30
0.0
 11
1.9965
 21
8.5093179274
 31
0.0
  0
LINE
  5
1CD
330
1F
100
AcDbEntity
  8
0
  6
Continuous
 62
     7
370
    25
100
AcDbLine
 10
3.35
 20
3.8930850482
 30
0.0
 11
3.35
 21
7.8547903684
 31
0.0
  0
LINE
  5
1CE
330
1F
100
AcDbEntity
  8
0
  6
Continuous
 62
     7
370
    25
100
AcDbLine
 10
0.0
 20
3.6125
 30
0.0
 11
3.35
 21
3.8930850482
 31
0.0
  0
LINE
  5
1CF
330
1F
100
AcDbEntity
  8
0
  6
Continuous
 62
     7
370
    25
100
AcDbLine
 10
0.0
 20
9.0797903684
 30
0.0
 11
0.0
 21
3.6125
 31
0.0
  0
LINE
  5
1D0
330
1F
100
AcDbEntity
  8
0
  6
Continuous
 62
     7
370
    25
100
AcDbLine
 10
2.125
 20
9.0797903684
 30
0.0
 11
0.0
 21
9.0797903684
 31
0.0
  0
LINE
  5
1D1
330
1F
100
AcDbEntity
  8
0
  6
Continuous
 62
     7
370
    25
100
AcDbLine
 10
0.0
 20
2.3625
 30
0.0
 11
3.5
 21
2.3625
 31
0.0
  0
LINE
  5
1D2
330
1F
100
AcDbEntity
  8
0
  6
Continuous
 62
     7
370
    25
100
AcDbLine
 10
0.0
 20
3.1125
 30
0.0
 11
0.0
 21
2.3625
 31
0.0
  0
LINE
  5
1D3
330
1F
100
AcDbEntity
  8
0
  6
Continuous
 62
     7
370
    25
100
AcDbLine
 10
3.125
 20
3.4875
 30
0.0
 11
0.375
 21
3.4875
 31
0.0
  0
LINE
  5
1D4
330
1F
100
AcDbEntity
  8
0
  6
Continuous
 62
     7
370
    25
100
AcDbLine
 10
3.5
 20
2.3625
 30
0.0
 11
3.5
 21
3.1125
 31
0.0
  0
LINE
  5
1D5
330
1F
100
AcDbEntity
  8
0
  6
Continuous
 62
     7
370
    25
100
AcDbLine
 10
0.0
 20
1.0875
 30
0.0
 11
3.5
 21
1.0875
 31
0.0
  0
LINE
  5
1D6
330
1F
100
AcDbEntity
  8
0
  6
Continuous
 62
     7
370
    25
100
AcDbLine
 10
0.0
 20
1.8375
 30
0.0
 11
0.0
 21
1.0875
 31
0.0
  0
LINE
  5
1D7
330
1F
100
AcDbEntity
  8
0
  6
Continuous
 62
     7
370
    25
100
AcDbLine
 10
3.5
 20
1.0875
 30
0.0
 11
3.5
 21
1.8375
 31
0.0
  0
LINE
  5
1D8
330
1F
100
AcDbEntity
  8
0
  6
Continuous
 62
     7
370
    25
100
AcDbLine
 10
3.125
 20
2.2125
 30
0.0
 11
0.375
 21
2.2125
 31
0.0
  0
LINE
  5
1D9
330
1F
100
AcDbEntity
  8
0
  6
Continuous
 62
     7
370
    25
100
AcDbLine
 10
0.0
 20
0.0
 30
0.0
 11
1.5
 21
0.0
 31
0.0
  0
LINE
  5
1DA
330
1F
100
AcDbEntity
  8
0
  6
Continuous
 62
     7
370
    25
100
AcDbLine
 10
0.0
 20
0.625
 30
0.0
 11
0.0
 21
0.0
 31
0.0
  0
LINE
  5
1DB
330
1F
100
AcDbEntity
  8
0
  6
Continuous
 62
     7
370
    25
100
AcDbLine
 10
1.1875
 20
0.9375
 30
0.0
 11
0.3125
 21
0.9375
 31
0.0
  0
LINE
  5
1DC
330
1F
100
AcDbEntity
  8
0
  6
Continuous
 62
     7
370
    25
100
AcDbLine
 10
1.5
 20
0.0
 30
0.0
 11
1.5
 21
0.625
 31
0.0
  0
LINE
  5
1DD
330
1F
100
AcDbEntity
  8
0
  6
Continuous
 62
     7
370
    25
100
AcDbLine
 10
1.75
 20
0.0
 30
0.0
 11
3.25
 21
0.0
 31
0.0
  0
LINE
  5
1DE
330
1F
100
AcDbEntity
  8
0
  6
Continuous
 62
     7
370
    25
100
AcDbLine
 10
1.75
 20
0.625
 30
0.0
 11
1.75
 21
0.0
 31
0.0
  0
LINE
  5
1DF
330
1F
100
AcDbEntity
  8
0
  6
Continuous
 62
     7
370
    25
100
AcDbLine
 10
3.25
 20
0.0
 30
0.0
 11
3.25
 21
0.625
 31
0.0
  0
LINE
  5
1E0
330
1F
100
AcDbEntity
  8
0
  6
Continuous
 62
     7
370
    25
100
AcDbLine
 10
2.9375
 20
0.9375
 30
0.0
 11
2.0625
 21
0.9375
 31
0.0
  0
LINE
  5
1E1
330
1F
100
AcDbEntity
  8
0
  6
Continuous
 62
     7
370
    25
100
AcDbLine
 10
6.2898147073
 20
13.0173389189
 30
0.0
 11
8.8305606967
 21
13.3518344742
 31
0.0
  0
LINE
  5
1E2
330
1F
100
AcDbEntity
  8
0
  6
Continuous
 62
     7
370
    25
100
AcDbLine
 10
9.1748736227
 20
13.5607686867
 30
0.0
 11
9.3422722304
 21
13.7998386746
 31
0.0
  0
LINE
  5
1E3
330
1F
100
AcDbEntity
  8
0
  6
Continuous
 62
     7
370
    25
100
AcDbLine
 10
9.9833469232
 20
13.2878513078
 30
0.0
 11
9.6973481275
 21
12.9727091481
 31
0.0
  0
LINE
  5
1E4
330
1F
100
AcDbEntity
  8
0
  6
Continuous
 62
     7
370
    25
100
AcDbLine
 10
9.6811304813
 20
12.930706842
 30
0.0
 11
9.6811304813
 21
11.8087907009
 31
0.0
  0
LINE
  5
1E5
330
1F
100
AcDbEntity
  8
0
  6
Continuous
 62
     7
370
    25
100
AcDbLine
 10
9.9833469232
 20
11.4516462351
 30
0.0
 11
9.6973481275
 21
11.7667883947
 31
0.0
  0
LINE
  5
1E6
330
1F
100
AcDbEntity
  8
0
  6
Continuous
 62
     7
370
    25
100
AcDbLine
 10
9.1748736227
 20
11.1787288562
 30
0.0
 11
9.3422722304
 21
10.9396588683
 31
0.0
  0
LINE
  5
1E7
330
1F
100
AcDbEntity
  8
0
  6
Continuous
 62
     7
370
    25
100
AcDbLine
 10
6.2898147073
 20
11.7221586239
 30
0.0
 11
8.8305606967
 21
11.3876630687
 31
0.0
  0
LINE
  5
1E8
330
1F
100
AcDbEntity
  8
0
  6
Continuous
 62
     7
370
    25
100
AcDbLine
 10
6.1811304813
 20
11.8460892316
 30
0.0
 11
6.1811304813
 21
12.8934083113
 31
0.0
  0
LINE
  5
1E9
330
1F
100
AcDbEntity
  8
0
  6
Continuous
 62
     7
370
    25
100
AcDbLine
 10
6.930637305
 20
12.4634987714
 30
0.0
 11
6.930637305
 21
12.2759987714
 31
0.0
  0
LINE
  5
1EA
330
1F
100
AcDbEntity
  8
0
  6
Continuous
 62
     7
370
    25
100
AcDbLine
 10
7.055637305
 20
12.1509987714
 30
0.0
 11
8.8066236577
 21
12.1509987714
 31
0.0
  0
LINE
  5
1EB
330
1F
100
AcDbEntity
  8
0
  6
Continuous
 62
     7
370
    25
100
AcDbLine
 10
8.9316236577
 20
12.2759987714
 30
0.0
 11
8.9316236577
 21
12.4634987714
 31
0.0
  0
LINE
  5
1EC
330
1F
100
AcDbEntity
  8
0
  6
Continuous
 62
     7
370
    25
100
AcDbLine
 10
8.8066236577
 20
12.5884987714
 30
0.0
 11
7.055637305
 21
12.5884987714
 31
0.0
  0
LINE
  5
1ED
330
1F
100
AcDbEntity
  8
0
  6
Continuous
 62
     7
370
    25
100
AcDbLine
 10
9.2712190009
 20
10.2309157046
 30
0.0
 11
9.5863611605
 21
10.5169145003
 31
0.0
  0
LINE
  5
1EE
330
1F
100
AcDbEntity
  8
0
  6
Continuous
 62
     7
370
    25
100
AcDbLine
 10
10.0983485273
 20
9.8758398075
 30
0.0
 11
9.8592785394
 21
9.7084411998
 31
0.0
  0
LINE
  5
1EF
330
1F
100
AcDbEntity
  8
0
  6
Continuous
 62
     7
370
    25
100
AcDbLine
 10
9.6503443269
 20
9.3641282738
 30
0.0
 11
9.3158487717
 21
6.8233822844
 31
0.0
  0
LINE
  5
1F0
330
1F
100
AcDbEntity
  8
0
  6
Continuous
 62
     7
370
    25
100
AcDbLine
 10
8.1445990843
 20
6.7146980585
 30
0.0
 11
9.191918164
 21
6.7146980585
 31
0.0
  0
LINE
  5
1F1
330
1F
100
AcDbEntity
  8
0
  6
Continuous
 62
     7
370
    25
100
AcDbLine
 10
7.6861729214
 20
9.3641282738
 30
0.0
 11
8.0206684766
 21
6.8233822844
 31
0.0
  0
LINE
  5
1F2
330
1F
100
AcDbEntity
  8
0
  6
Continuous
 62
     7
370
    25
100
AcDbLine
 10
7.238168721
 20
9.8758398075
 30
0.0
 11
7.4772387089
 21
9.7084411998
 31
0.0
  0
LINE
  5
1F3
330
1F
100
AcDbEntity
  8
0
  6
Continuous
 62
     7
370
    25
100
AcDbLine
 10
8.0652982474
 20
10.2309157046
 30
0.0
 11
7.7501560878
 21
10.5169145003
 31
0.0
  0
LINE
  5
1F4
330
1F
100
AcDbEntity
  8
0
  6
Continuous
 62
     7
370
    25
100
AcDbLine
 10
9.2292166947
 20
10.2146980585
 30
0.0
 11
8.1073005536
 21
10.2146980585
 31
0.0
  0
LINE
  5
1F5
330
1F
100
AcDbEntity
  8
0
  6
Continuous
 62
     7
370
    25
100
AcDbLine
 10
8.7620086242
 20
7.4642048822
 30
0.0
 11
8.5745086242
 21
7.4642048822
 31
0.0
  0
LINE
  5
1F6
330
1F
100
AcDbEntity
  8
0
  6
Continuous
 62
     7
370
    25
100
AcDbLine
 10
8.8870086242
 20
9.3401912348
 30
0.0
 11
8.8870086242
 21
7.5892048822
 31
0.0
  0
LINE
  5
1F7
330
1F
100
AcDbEntity
  8
0
  6
Continuous
 62
     7
370
    25
100
AcDbLine
 10
8.5745086242
 20
9.4651912348
 30
0.0
 11
8.7620086242
 21
9.4651912348
 31
0.0
  0
LINE
  5
1F8
330
1F
100
AcDbEntity
  8
0
  6
Continuous
 62
     7
370
    25
100
AcDbLine
 10
8.4495086242
 20
7.5892048822
 30
0.0
 11
8.4495086242
 21
9.3401912348
 31
0.0
  0
LINE
  5
1F9
330
1F
100
AcDbEntity
  8
0
  6
Continuous
 62
     7
370
    25
100
AcDbLine
 10
6.6892487246
 20
10.2230974988
 30
0.0
 11
4.1485027353
 21
9.8886019436
 31
0.0
  0
LINE
  5
1FA
330
1F
100
AcDbEntity
  8
0
  6
Continuous
 62
     7
370
    25
100
AcDbLine
 10
3.8041898093
 20
9.6796677311
 30
0.0
 11
3.6367912016
 21
9.4405977432
 31
0.0
  0
LINE
  5
1FB
330
1F
100
AcDbEntity
  8
0
  6
Continuous
 62
     7
370
    25
100
AcDbLine
 10
2.9957165088
 20
9.95258511
 30
0.0
 11
3.2817153045
 21
10.2677272696
 31
0.0
  0
LINE
  5
1FC
330
1F
100
AcDbEntity
  8
0
  6
Continuous
 62
     7
370
    25
100
AcDbLine
 10
3.2979329506
 20
10.3097295757
 30
0.0
 11
3.2979329506
 21
11.4316457169
 31
0.0
  0
LINE
  5
1FD
330
1F
100
AcDbEntity
  8
0
  6
Continuous
 62
     7
370
    25
100
AcDbLine
 10
2.9957165088
 20
11.7887901827
 30
0.0
 11
3.2817153045
 21
11.473648023
 31
0.0
  0
LINE
  5
1FE
330
1F
100
AcDbEntity
  8
0
  6
Continuous
 62
     7
370
    25
100
AcDbLine
 10
3.8041898093
 20
12.0617075616
 30
0.0
 11
3.6367912016
 21
12.3007775494
 31
0.0
  0
LINE
  5
1FF
330
1F
100
AcDbEntity
  8
0
  6
Continuous
 62
     7
370
    25
100
AcDbLine
 10
6.6892487246
 20
11.5182777938
 30
0.0
 11
4.1485027353
 21
11.8527733491
 31
0.0
  0
LINE
  5
200
330
1F
100
AcDbEntity
  8
0
  6
Continuous
 62
     7
370
    25
100
AcDbLine
 10
6.7979329506
 20
11.3943471862
 30
0.0
 11
6.7979329506
 21
10.3470281065
 31
0.0
  0
LINE
  5
201
330
1F
100
AcDbEntity
  8
0
  6
Continuous
 62
     7
370
    25
100
AcDbLine
 10
6.0484261269
 20
10.7769376463
 30
0.0
 11
6.0484261269
 21
10.9644376463
 31
0.0
  0
LINE
  5
202
330
1F
100
AcDbEntity
  8
0
  6
Continuous
 62
     7
370
    25
100
AcDbLine
 10
5.9234261269
 20
11.0894376463
 30
0.0
 11
4.1724397743
 21
11.0894376463
 31
0.0
  0
LINE
  5
203
330
1F
100
AcDbEntity
  8
0
  6
Continuous
 62
     7
370
    25
100
AcDbLine
 10
4.0474397743
 20
10.9644376463
 30
0.0
 11
4.0474397743
 21
10.7769376463
 31
0.0
  0
LINE
  5
204
330
1F
100
AcDbEntity
  8
0
  6
Continuous
 62
     7
370
    25
100
AcDbLine
 10
4.1724397743
 20
10.6519376463
 30
0.0
 11
5.9234261269
 21
10.6519376463
 31
0.0
  0
LINE
  5
205
330
1F
100
AcDbEntity
  8
0
  6
Continuous
 62
     7
370
    25
100
AcDbLine
 10
1.8951771654
 20
11.3927911716
 30
0.0
 11
1.0201771654
 21
11.3927911716
 31
0.0
  0
LINE
  5
206
330
1F
100
AcDbEntity
  8
0
  6
Continuous
 62
     7
370
    25
100
AcDbLine
 10
0.7701771654
 20
11.1427911716
 30
0.0
 11
0.7701771654
 21
9.7297903684
 31
0.0
  0
LINE
  5
207
330
1F
100
AcDbEntity
  8
0
  6
Continuous
 62
     7
370
    25
100
AcDbLine
 10
1.0201771654
 20
9.4797903684
 30
0.0
 11
1.8951771654
 21
9.4797903684
 31
0.0
  0
LINE
  5
208
330
1F
100
AcDbEntity
  8
0
  6
Continuous
 62
     7
370
    25
100
AcDbLine
 10
2.1451771654
 20
9.7297903684
 30
0.0
 11
2.1451771654
 21
11.1427911716
 31
0.0
  0
LINE
  5
209
330
1F
100
AcDbEntity
  8
0
  6
Continuous
 62
     7
370
    25
100
AcDbLine
 10
2.3951771654
 20
12.2689694517
 30
0.0
 11
0.5201771654
 21
12.2689694517
 31
0.0
  0
LINE
  5
20A
330
1F
100
AcDbEntity
  8
0
  6
Continuous
 62
     7
370
    25
100
AcDbLine
 10
2.3951771654
 20
10.3208020771
 30
0.0
 11
2.3951771654
 21
12.2689694517
 31
0.0
  0
LINE
  5
20B
330
1F
100
AcDbEntity
  8
0
  6
Continuous
 62
     7
370
    25
100
AcDbLine
 10
2.5403543307
 20
9.2297903684
 30
0.0
 11
0.375
 21
9.2297903684
 31
0.0
  0
LINE
  5
20C
330
1F
100
AcDbEntity
  8
0
  6
Continuous
 62
     7
370
    25
100
AcDbLine
 10
0.5201771654
 20
12.2689694517
 30
0.0
 11
0.5201771654
 21
10.3208020771
 31
0.0
  0
ARC
  5
20D
330
1F
100
AcDbEntity
  8
0
  6
Continuous
 62
     7
370
    25
100
AcDbCircle
 10
3.0
 20
13.5064694517
 30
0.0
 40
0.3125000000000018
100
AcDbArc
 50
270.0
 51
90.0
  0
ARC
  5
20E
330
1F
100
AcDbEntity
  8
0
  6
Continuous
 62
     7
370
    25
100
AcDbCircle
 10
6.4625
 20
13.5064694517
 30
0.0
 40
0.3125000000000018
100
AcDbArc
 50
270.0
 51
90.0
  0
ARC
  5
20F
330
1F
100
AcDbEntity
  8
0
  6
Continuous
 62
     7
370
    25
100
AcDbCircle
 10
3.0
 20
12.7314694517
 30
0.0
 40
0.3125000000000018
100
AcDbArc
 50
270.0
 51
90.0
  0
ARC
  5
210
330
1F
100
AcDbEntity
  8
0
  6
Continuous
 62
     7
370
    25
100
AcDbCircle
 10
8.5
 20
5.405
 30
0.0
 40
0.2500000000000018
100
AcDbArc
 50
180.0
 51
270.0
  0
ARC
  5
211
330
1F
100
AcDbEntity
  8
0
  6
Continuous
 62
     7
370
    25
100
AcDbCircle
 10
8.5
 20
6.155
 30
0.0
 40
0.2499999999999787
100
AcDbArc
 50
90.0
 51
180.0
  0
ARC
  5
212
330
1F
100
AcDbEntity
  8
0
  6
Continuous
 62
     7
370
    25
100
AcDbCircle
 10
9.6875
 20
6.3146980585
 30
0.0
 40
0.2499999999999956
100
AcDbArc
 50
0.0
 51
90.0
  0
ARC
  5
213
330
1F
100
AcDbEntity
  8
0
  6
Continuous
 62
     7
370
    25
100
AcDbCircle
 10
9.6875
 20
5.5646980585
 30
0.0
 40
0.2499999999999716
100
AcDbArc
 50
270.0
 51
0.0
  0
ARC
  5
214
330
1F
100
AcDbEntity
  8
0
  6
Continuous
 62
     7
370
    25
100
AcDbCircle
 10
6.45
 20
0.5
 30
0.0
 40
0.5000000000000036
100
AcDbArc
 50
180.0
 51
270.0
  0
ARC
  5
215
330
1F
100
AcDbEntity
  8
0
  6
Continuous
 62
     7
370
    25
100
AcDbCircle
 10
6.45
 20
5.5
 30
0.0
 40
0.4999999999999973
100
AcDbArc
 50
90.0
 51
180.0
  0
ARC
  5
216
330
1F
100
AcDbEntity
  8
0
  6
Continuous
 62
     7
370
    25
100
AcDbCircle
 10
4.15
 20
0.5
 30
0.0
 40
0.5000000000000022
100
AcDbArc
 50
180.0
 51
270.0
  0
ARC
  5
217
330
1F
100
AcDbEntity
  8
0
  6
Continuous
 62
     7
370
    25
100
AcDbCircle
 10
4.15
 20
5.5
 30
0.0
 40
0.4999999999999973
100
AcDbArc
 50
90.0
 51
180.0
  0
ARC
  5
218
330
1F
100
AcDbEntity
  8
0
  6
Continuous
 62
     7
370
    25
100
AcDbCircle
 10
9.625
 20
3.2788935804
 30
0.0
 40
0.3750000000000018
100
AcDbArc
 50
0.0
 51
180.0
  0
ARC
  5
219
330
1F
100
AcDbEntity
  8
0
  6
Continuous
 62
     7
370
    25
100
AcDbCircle
 10
9.625
 20
4.7896980585
 30
0.0
 40
0.3750000000000018
100
AcDbArc
 50
0.0
 51
180.0
  0
ARC
  5
21A
330
1F
100
AcDbEntity
  8
0
  6
Continuous
 62
     7
370
    25
100
AcDbCircle
 10
8.625
 20
2.905
 30
0.0
 40
0.3750000000000053
100
AcDbArc
 50
0.0
 51
180.0
  0
ARC
  5
21B
330
1F
100
AcDbEntity
  8
0
  6
Continuous
 62
     7
370
    25
100
AcDbCircle
 10
8.625
 20
4.63
 30
0.0
 40
0.3750000000000071
100
AcDbArc
 50
0.0
 51
180.0
  0
ARC
  5
21C
330
1F
100
AcDbEntity
  8
0
  6
Continuous
 62
     7
370
    25
100
AcDbCircle
 10
5.5121707614
 20
6.9374015748
 30
0.0
 40
0.4330708661417363
100
AcDbArc
 50
287.3414428028
 51
72.6585571972
  0
ARC
  5
21D
330
1F
100
AcDbEntity
  8
0
  6
Continuous
 62
     7
370
    25
100
AcDbCircle
 10
5.5121707614
 20
6.9374015748
 30
0.0
 40
0.4330708661417306
100
AcDbArc
 50
107.3414428028
 51
252.6585571972
  0
ARC
  5
21E
330
1F
100
AcDbEntity
  8
0
  6
Continuous
 62
     7
370
    25
100
AcDbCircle
 10
5.5121707614
 20
8.6622047244
 30
0.0
 40
0.4330708661417352
100
AcDbArc
 50
107.3414428028
 51
252.6585571972
  0
ARC
  5
21F
330
1F
100
AcDbEntity
  8
0
  6
Continuous
 62
     7
370
    25
100
AcDbCircle
 10
5.5121707614
 20
8.6622047244
 30
0.0
 40
0.4330708661417292
100
AcDbArc
 50
287.3414428028
 51
72.6585571972
  0
ARC
  5
220
330
1F
100
AcDbEntity
  8
0
  6
Continuous
 62
     7
370
    25
100
AcDbCircle
 10
8.625
 20
1.18
 30
0.0
 40
0.3750000000000018
100
AcDbArc
 50
0.0
 51
180.0
  0
ARC
  5
221
330
1F
100
AcDbEntity
  8
0
  6
Continuous
 62
     7
370
    25
100
AcDbCircle
 10
2.125
 20
4.6412076912
 30
0.0
 40
0.1285000000000007
100
AcDbArc
 50
0.0
 51
180.0
  0
ARC
  5
222
330
1F
100
AcDbEntity
  8
0
  6
Continuous
 62
     7
370
    25
100
AcDbCircle
 10
2.125
 20
4.3912076912
 30
0.0
 40
0.1285000000000012
100
AcDbArc
 50
180.0
 51
0.0
  0
ARC
  5
223
330
1F
100
AcDbEntity
  8
0
  6
Continuous
 62
     7
370
    25
100
AcDbCircle
 10
2.125
 20
5.9502628093
 30
0.0
 40
0.1284999999999985
100
AcDbArc
 50
180.0
 51
360.0
  0
ARC
  5
224
330
1F
100
AcDbEntity
  8
0
  6
Continuous
 62
     7
370
    25
100
AcDbCircle
 10
2.125
 20
6.2002628093
 30
0.0
 40
0.1284999999999994
100
AcDbArc
 50
0.0
 51
180.0
  0
ARC
  5
225
330
1F
100
AcDbEntity
  8
0
  6
Continuous
 62
     7
370
    25
100
AcDbCircle
 10
2.125
 20
7.2002628093
 30
0.0
 40
0.1284999999999985
100
AcDbArc
 50
0.0
 51
180.0
  0
ARC
  5
226
330
1F
100
AcDbEntity
  8
0
  6
Continuous
 62
     7
370
    25
100
AcDbCircle
 10
2.125
 20
6.9502628093
 30
0.0
 40
0.1285000000000012
100
AcDbArc
 50
180.0
 51
0.0
  0
ARC
  5
227
330
1F
100
AcDbEntity
  8
0
  6
Continuous
 62
     7
370
    25
100
AcDbCircle
 10
0.5
 20
5.2957352503
 30
0.0
 40
0.2374015748031473
100
AcDbArc
 50
205.5954827879
 51
334.4045172121
  0
ARC
  5
228
330
1F
100
AcDbEntity
  8
0
  6
Continuous
 62
     7
370
    25
100
AcDbCircle
 10
0.5
 20
5.2957352503
 30
0.0
 40
0.2374015748031494
100
AcDbArc
 50
25.5954827879
 51
154.4045172121
  0
ARC
  5
229
330
1F
100
AcDbEntity
  8
0
  6
Continuous
 62
     7
370
    25
100
AcDbCircle
 10
0.5
 20
7.3547903684
 30
0.0
 40
0.2374015748031441
100
AcDbArc
 50
205.5954827879
 51
334.4045172121
  0
ARC
  5
22A
330
1F
100
AcDbEntity
  8
0
  6
Continuous
 62
     7
370
    25
100
AcDbCircle
 10
0.5
 20
7.3547903684
 30
0.0
 40
0.2374015748031456
100
AcDbArc
 50
25.5954827879
 51
154.4045172121
  0
ARC
  5
22B
330
1F
100
AcDbEntity
  8
0
  6
Continuous
 62
     7
370
    25
100
AcDbCircle
 10
0.5
 20
8.3547903684
 30
0.0
 40
0.2450000000000234
100
AcDbArc
 50
204.7472502324
 51
335.2527497676
  0
ARC
  5
22C
330
1F
100
AcDbEntity
  8
0
  6
Continuous
 62
     7
370
    25
100
AcDbCircle
 10
0.5
 20
8.3547903684
 30
0.0
 40
0.2450000000000203
100
AcDbArc
 50
24.7472502324
 51
155.2527497676
  0
ARC
  5
22D
330
1F
100
AcDbEntity
  8
0
  6
Continuous
 62
     7
370
    25
100
AcDbCircle
 10
2.125
 20
8.5093179274
 30
0.0
 40
0.1285000000000023
100
AcDbArc
 50
180.0
 51
0.0
  0
ARC
  5
22E
330
1F
100
AcDbEntity
  8
0
  6
Continuous
 62
     7
370
    25
100
AcDbCircle
 10
2.125
 20
8.7593179274
 30
0.0
 40
0.1285000000000025
100
AcDbArc
 50
0.0
 51
180.0
  0
ARC
  5
22F
330
1F
100
AcDbEntity
  8
0
  6
Continuous
 62
     7
370
    25
100
AcDbCircle
 10
2.125
 20
7.8547903684
 30
0.0
 40
1.225000000000006
100
AcDbArc
 50
0.0
 51
90.0
  0
ARC
  5
230
330
1F
100
AcDbEntity
  8
0
  6
Continuous
 62
     7
370
    25
100
AcDbCircle
 10
0.375
 20
3.1125
 30
0.0
 40
0.3749999999999983
100
AcDbArc
 50
90.0
 51
180.0
  0
ARC
  5
231
330
1F
100
AcDbEntity
  8
0
  6
Continuous
 62
     7
370
    25
100
AcDbCircle
 10
3.125
 20
3.1125
 30
0.0
 40
0.3750000000000004
100
AcDbArc
 50
0.0
 51
90.0
  0
ARC
  5
232
330
1F
100
AcDbEntity
  8
0
  6
Continuous
 62
     7
370
    25
100
AcDbCircle
 10
3.125
 20
1.8375
 30
0.0
 40
0.3750000000000004
100
AcDbArc
 50
0.0
 51
90.0
  0
ARC
  5
233
330
1F
100
AcDbEntity
  8
0
  6
Continuous
 62
     7
370
    25
100
AcDbCircle
 10
0.375
 20
1.8375
 30
0.0
 40
0.3749999999999984
100
AcDbArc
 50
90.0
 51
180.0
  0
ARC
  5
234
330
1F
100
AcDbEntity
  8
0
  6
Continuous
 62
     7
370
    25
100
AcDbCircle
 10
1.1875
 20
0.625
 30
0.0
 40
0.3125000000000011
100
AcDbArc
 50
0.0
 51
90.0
  0
ARC
  5
235
330
1F
100
AcDbEntity
  8
0
  6
Continuous
 62
     7
370
    25
100
AcDbCircle
 10
0.3125
 20
0.625
 30
0.0
 40
0.3124999999999993
100
AcDbArc
 50
90.0
 51
180.0
  0
ARC
  5
236
330
1F
100
AcDbEntity
  8
0
  6
Continuous
 62
     7
370
    25
100
AcDbCircle
 10
2.9375
 20
0.625
 30
0.0
 40
0.3125000000000018
100
AcDbArc
 50
0.0
 51
90.0
  0
ARC
  5
237
330
1F
100
AcDbEntity
  8
0
  6
Continuous
 62
     7
370
    25
100
AcDbCircle
 10
2.0625
 20
0.625
 30
0.0
 40
0.3124999999999996
100
AcDbArc
 50
90.0
 51
180.0
  0
ARC
  5
238
330
1F
100
AcDbEntity
  8
0
  6
Continuous
 62
     7
370
    25
100
AcDbCircle
 10
6.3061304813
 20
12.8934083113
 30
0.0
 40
0.1249999999999973
100
AcDbArc
 50
97.5
 51
180.0
  0
ARC
  5
239
330
1F
100
AcDbEntity
  8
0
  6
Continuous
 62
     7
370
    25
100
AcDbCircle
 10
8.7652976005
 20
13.8475569049
 30
0.0
 40
0.5000000000000067
100
AcDbArc
 50
277.5
 51
325.0
  0
ARC
  5
23A
330
1F
100
AcDbEntity
  8
0
  6
Continuous
 62
     7
370
    25
100
AcDbCircle
 10
9.3934692331
 20
13.7639901473
 30
0.0
 40
0.0625000000000046
100
AcDbArc
 50
13.1896851042
 51
145.0
  0
ARC
  5
23B
330
1F
100
AcDbEntity
  8
0
  6
Continuous
 62
     7
370
    25
100
AcDbCircle
 10
9.9411304813
 20
13.8923389189
 30
0.0
 40
0.4999999999999666
100
AcDbArc
 50
193.1896851042
 51
269.5858459948
  0
ARC
  5
23C
330
1F
100
AcDbEntity
  8
0
  6
Continuous
 62
     7
370
    25
100
AcDbCircle
 10
9.9370645693
 20
13.3298536139
 30
0.0
 40
0.0624999999999937
100
AcDbArc
 50
317.775531099
 51
89.5858459948
  0
ARC
  5
23D
330
1F
100
AcDbEntity
  8
0
  6
Continuous
 62
     7
370
    25
100
AcDbCircle
 10
9.7436304813
 20
12.930706842
 30
0.0
 40
0.0625000000000071
100
AcDbArc
 50
137.775531099
 51
180.0
  0
ARC
  5
23E
330
1F
100
AcDbEntity
  8
0
  6
Continuous
 62
     7
370
    25
100
AcDbCircle
 10
9.7436304813
 20
11.8087907009
 30
0.0
 40
0.0625000000000002
100
AcDbArc
 50
180.0
 51
222.224468901
  0
ARC
  5
23F
330
1F
100
AcDbEntity
  8
0
  6
Continuous
 62
     7
370
    25
100
AcDbCircle
 10
9.9370645693
 20
11.4096439289
 30
0.0
 40
0.0625000000000059
100
AcDbArc
 50
270.4141540052
 51
42.224468901
  0
ARC
  5
240
330
1F
100
AcDbEntity
  8
0
  6
Continuous
 62
     7
370
    25
100
AcDbCircle
 10
9.9411304813
 20
10.8471586239
 30
0.0
 40
0.4999999999999507
100
AcDbArc
 50
90.4141540052
 51
166.8103148958
  0
ARC
  5
241
330
1F
100
AcDbEntity
  8
0
  6
Continuous
 62
     7
370
    25
100
AcDbCircle
 10
9.3934692331
 20
10.9755073956
 30
0.0
 40
0.0624999999999985
100
AcDbArc
 50
215.0
 51
346.8103148958
  0
ARC
  5
242
330
1F
100
AcDbEntity
  8
0
  6
Continuous
 62
     7
370
    25
100
AcDbCircle
 10
8.7652976005
 20
10.891940638
 30
0.0
 40
0.5000000000000567
100
AcDbArc
 50
35.0
 51
82.5
  0
ARC
  5
243
330
1F
100
AcDbEntity
  8
0
  6
Continuous
 62
     7
370
    25
100
AcDbCircle
 10
6.3061304813
 20
11.8460892316
 30
0.0
 40
0.1249999999999964
100
AcDbArc
 50
180.0
 51
262.5
  0
ARC
  5
244
330
1F
100
AcDbEntity
  8
0
  6
Continuous
 62
     7
370
    25
100
AcDbCircle
 10
7.055637305
 20
12.4634987714
 30
0.0
 40
0.1249999999999947
100
AcDbArc
 50
90.0
 51
180.0
  0
ARC
  5
245
330
1F
100
AcDbEntity
  8
0
  6
Continuous
 62
     7
370
    25
100
AcDbCircle
 10
7.055637305
 20
12.2759987714
 30
0.0
 40
0.125
100
AcDbArc
 50
180.0
 51
270.0
  0
ARC
  5
246
330
1F
100
AcDbEntity
  8
0
  6
Continuous
 62
     7
370
    25
100
AcDbCircle
 10
8.8066236577
 20
12.2759987714
 30
0.0
 40
0.1250000000000053
100
AcDbArc
 50
270.0
 51
0.0
  0
ARC
  5
247
330
1F
100
AcDbEntity
  8
0
  6
Continuous
 62
     7
370
    25
100
AcDbCircle
 10
8.8066236577
 20
12.4634987714
 30
0.0
 40
0.1250000000000018
100
AcDbArc
 50
0.0
 51
90.0
  0
ARC
  5
248
330
1F
100
AcDbEntity
  8
0
  6
Continuous
 62
     7
370
    25
100
AcDbCircle
 10
9.2292166947
 20
10.2771980585
 30
0.0
 40
0.0624999999999886
100
AcDbArc
 50
270.0
 51
312.224468901
  0
ARC
  5
249
330
1F
100
AcDbEntity
  8
0
  6
Continuous
 62
     7
370
    25
100
AcDbCircle
 10
9.6283634667
 20
10.4706321464
 30
0.0
 40
0.062500000000007
100
AcDbArc
 50
0.4141540052
 51
132.224468901
  0
ARC
  5
24A
330
1F
100
AcDbEntity
  8
0
  6
Continuous
 62
     7
370
    25
100
AcDbCircle
 10
10.1908487717
 20
10.4746980585
 30
0.0
 40
0.4999999999999744
100
AcDbArc
 50
180.4141540052
 51
256.8103148958
  0
ARC
  5
24B
330
1F
100
AcDbEntity
  8
0
  6
Continuous
 62
     7
370
    25
100
AcDbCircle
 10
10.0625
 20
9.9270368102
 30
0.0
 40
0.0625000000000022
100
AcDbArc
 50
305.0
 51
76.8103148958
  0
ARC
  5
24C
330
1F
100
AcDbEntity
  8
0
  6
Continuous
 62
     7
370
    25
100
AcDbCircle
 10
10.1460667576
 20
9.2988651777
 30
0.0
 40
0.4999999999999581
100
AcDbArc
 50
125.0
 51
172.5
  0
ARC
  5
24D
330
1F
100
AcDbEntity
  8
0
  6
Continuous
 62
     7
370
    25
100
AcDbCircle
 10
9.191918164
 20
6.8396980585
 30
0.0
 40
0.1249999999999859
100
AcDbArc
 50
270.0
 51
352.5
  0
ARC
  5
24E
330
1F
100
AcDbEntity
  8
0
  6
Continuous
 62
     7
370
    25
100
AcDbCircle
 10
8.1445990843
 20
6.8396980585
 30
0.0
 40
0.1250000000000089
100
AcDbArc
 50
187.5
 51
270.0
  0
ARC
  5
24F
330
1F
100
AcDbEntity
  8
0
  6
Continuous
 62
     7
370
    25
100
AcDbCircle
 10
7.1904504907
 20
9.2988651777
 30
0.0
 40
0.4999999999999433
100
AcDbArc
 50
7.5
 51
55.0
  0
ARC
  5
250
330
1F
100
AcDbEntity
  8
0
  6
Continuous
 62
     7
370
    25
100
AcDbCircle
 10
7.2740172483
 20
9.9270368102
 30
0.0
 40
0.0624999999999893
100
AcDbArc
 50
103.1896851042
 51
235.0
  0
ARC
  5
251
330
1F
100
AcDbEntity
  8
0
  6
Continuous
 62
     7
370
    25
100
AcDbCircle
 10
7.1456684766
 20
10.4746980585
 30
0.0
 40
0.4999999999999784
100
AcDbArc
 50
283.1896851042
 51
359.5858459948
  0
ARC
  5
252
330
1F
100
AcDbEntity
  8
0
  6
Continuous
 62
     7
370
    25
100
AcDbCircle
 10
7.7081537817
 20
10.4706321464
 30
0.0
 40
0.0624999999999997
100
AcDbArc
 50
47.775531099
 51
179.5858459948
  0
ARC
  5
253
330
1F
100
AcDbEntity
  8
0
  6
Continuous
 62
     7
370
    25
100
AcDbCircle
 10
8.1073005536
 20
10.2771980585
 30
0.0
 40
0.0624999999999361
100
AcDbArc
 50
227.775531099
 51
270.0
  0
ARC
  5
254
330
1F
100
AcDbEntity
  8
0
  6
Continuous
 62
     7
370
    25
100
AcDbCircle
 10
8.5745086242
 20
7.5892048822
 30
0.0
 40
0.1250000000000018
100
AcDbArc
 50
180.0
 51
270.0
  0
ARC
  5
255
330
1F
100
AcDbEntity
  8
0
  6
Continuous
 62
     7
370
    25
100
AcDbCircle
 10
8.7620086242
 20
7.5892048822
 30
0.0
 40
0.1250000000000107
100
AcDbArc
 50
270.0
 51
360.0
  0
ARC
  5
256
330
1F
100
AcDbEntity
  8
0
  6
Continuous
 62
     7
370
    25
100
AcDbCircle
 10
8.7620086242
 20
9.3401912348
 30
0.0
 40
0.1249999999999751
100
AcDbArc
 50
360.0
 51
90.0
  0
ARC
  5
257
330
1F
100
AcDbEntity
  8
0
  6
Continuous
 62
     7
370
    25
100
AcDbCircle
 10
8.5745086242
 20
9.3401912348
 30
0.0
 40
0.1249999999999929
100
AcDbArc
 50
90.0
 51
180.0
  0
ARC
  5
258
330
1F
100
AcDbEntity
  8
0
  6
Continuous
 62
     7
370
    25
100
AcDbCircle
 10
6.6729329506
 20
10.3470281065
 30
0.0
 40
0.1249999999999956
100
AcDbArc
 50
277.5
 51
0.0
  0
ARC
  5
259
330
1F
100
AcDbEntity
  8
0
  6
Continuous
 62
     7
370
    25
100
AcDbCircle
 10
4.2137658314
 20
9.3928795129
 30
0.0
 40
0.4999999999999865
100
AcDbArc
 50
97.5
 51
145.0
  0
ARC
  5
25A
330
1F
100
AcDbEntity
  8
0
  6
Continuous
 62
     7
370
    25
100
AcDbCircle
 10
3.5855941988
 20
9.4764462705
 30
0.0
 40
0.0625000000000029
100
AcDbArc
 50
193.1896851042
 51
325.0
  0
ARC
  5
25B
330
1F
100
AcDbEntity
  8
0
  6
Continuous
 62
     7
370
    25
100
AcDbCircle
 10
3.0379329506
 20
9.3480974988
 30
0.0
 40
0.4999999999999812
100
AcDbArc
 50
13.1896851042
 51
89.5858459948
  0
ARC
  5
25C
330
1F
100
AcDbEntity
  8
0
  6
Continuous
 62
     7
370
    25
100
AcDbCircle
 10
3.0419988626
 20
9.9105828038
 30
0.0
 40
0.0624999999999944
100
AcDbArc
 50
137.775531099
 51
269.5858459948
  0
ARC
  5
25D
330
1F
100
AcDbEntity
  8
0
  6
Continuous
 62
     7
370
    25
100
AcDbCircle
 10
3.2354329506
 20
10.3097295757
 30
0.0
 40
0.0625000000000059
100
AcDbArc
 50
317.775531099
 51
360.0
  0
ARC
  5
25E
330
1F
100
AcDbEntity
  8
0
  6
Continuous
 62
     7
370
    25
100
AcDbCircle
 10
3.2354329506
 20
11.4316457169
 30
0.0
 40
0.0624999999999902
100
AcDbArc
 50
360.0
 51
42.224468901
  0
ARC
  5
25F
330
1F
100
AcDbEntity
  8
0
  6
Continuous
 62
     7
370
    25
100
AcDbCircle
 10
3.0419988626
 20
11.8307924888
 30
0.0
 40
0.0625000000000041
100
AcDbArc
 50
90.4141540052
 51
222.224468901
  0
ARC
  5
260
330
1F
100
AcDbEntity
  8
0
  6
Continuous
 62
     7
370
    25
100
AcDbCircle
 10
3.0379329506
 20
12.3932777938
 30
0.0
 40
0.4999999999999632
100
AcDbArc
 50
270.4141540052
 51
346.8103148958
  0
ARC
  5
261
330
1F
100
AcDbEntity
  8
0
  6
Continuous
 62
     7
370
    25
100
AcDbCircle
 10
3.5855941988
 20
12.2649290222
 30
0.0
 40
0.0624999999999991
100
AcDbArc
 50
35.0
 51
166.8103148958
  0
ARC
  5
262
330
1F
100
AcDbEntity
  8
0
  6
Continuous
 62
     7
370
    25
100
AcDbCircle
 10
4.2137658314
 20
12.3484957797
 30
0.0
 40
0.5000000000000818
100
AcDbArc
 50
215.0
 51
262.5
  0
ARC
  5
263
330
1F
100
AcDbEntity
  8
0
  6
Continuous
 62
     7
370
    25
100
AcDbCircle
 10
6.6729329506
 20
11.3943471862
 30
0.0
 40
0.1249999999999938
100
AcDbArc
 50
360.0
 51
82.5
  0
ARC
  5
264
330
1F
100
AcDbEntity
  8
0
  6
Continuous
 62
     7
370
    25
100
AcDbCircle
 10
5.9234261269
 20
10.7769376463
 30
0.0
 40
0.124999999999984
100
AcDbArc
 50
270.0
 51
0.0
  0
ARC
  5
265
330
1F
100
AcDbEntity
  8
0
  6
Continuous
 62
     7
370
    25
100
AcDbCircle
 10
5.9234261269
 20
10.9644376463
 30
0.0
 40
0.1249999999999876
100
AcDbArc
 50
360.0
 51
90.0
  0
ARC
  5
266
330
1F
100
AcDbEntity
  8
0
  6
Continuous
 62
     7
370
    25
100
AcDbCircle
 10
4.1724397743
 20
10.9644376463
 30
0.0
 40
0.125
100
AcDbArc
 50
90.0
 51
180.0
  0
ARC
  5
267
330
1F
100
AcDbEntity
  8
0
  6
Continuous
 62
     7
370
    25
100
AcDbCircle
 10
4.1724397743
 20
10.7769376463
 30
0.0
 40
0.125
100
AcDbArc
 50
180.0
 51
270.0
  0
ARC
  5
268
330
1F
100
AcDbEntity
  8
0
  6
Continuous
 62
     7
370
    25
100
AcDbCircle
 10
1.0201771654
 20
11.1427911716
 30
0.0
 40
0.2500000000000006
100
AcDbArc
 50
90.0
 51
180.0
  0
ARC
  5
269
330
1F
100
AcDbEntity
  8
0
  6
Continuous
 62
     7
370
    25
100
AcDbCircle
 10
1.0201771654
 20
9.7297903684
 30
0.0
 40
0.249999999999992
100
AcDbArc
 50
180.0
 51
270.0
  0
ARC
  5
26A
330
1F
100
AcDbEntity
  8
0
  6
Continuous
 62
     7
370
    25
100
AcDbCircle
 10
1.8951771654
 20
9.7297903684
 30
0.0
 40
0.2500000000000053
100
AcDbArc
 50
270.0
 51
0.0
  0
ARC
  5
26B
330
1F
100
AcDbEntity
  8
0
  6
Continuous
 62
     7
370
    25
100
AcDbCircle
 10
1.8951771654
 20
11.1427911716
 30
0.0
 40
0.2499999999999984
100
AcDbArc
 50
0.0
 51
90.0
  0
ARC
  5
26C
330
1F
100
AcDbEntity
  8
0
  6
Continuous
 62
     7
370
    25
100
AcDbCircle
 10
2.773052438
 20
10.3208020771
 30
0.0
 40
0.377875272606524
100
AcDbArc
 50
180.0
 51
251.9962507988
  0
ARC
  5
26D
330
1F
100
AcDbEntity
  8
0
  6
Continuous
 62
     7
370
    25
100
AcDbCircle
 10
2.5403543307
 20
9.6047903684
 30
0.0
 40
0.3750000000000018
100
AcDbArc
 50
270.0
 51
71.9962507988
  0
ARC
  5
26E
330
1F
100
AcDbEntity
  8
0
  6
Continuous
 62
     7
370
    25
100
AcDbCircle
 10
0.375
 20
9.6047903684
 30
0.0
 40
0.3750000000000018
100
AcDbArc
 50
108.0037492012
 51
270.0
  0
ARC
  5
26F
330
1F
100
AcDbEntity
  8
0
  6
Continuous
 62
     7
370
    25
100
AcDbCircle
 10
0.1423018927
 20
10.3208020771
 30
0.0
 40
0.3778752726065292
100
AcDbArc
 50
288.0037492012
 51
0.0
  0
MTEXT
  5
482
330
1F
100
AcDbEntity
  8
0
  6
Continuous
 62
     7
100
AcDbMText
 10
0.0
 20
-0.0401404091
 30
0.0
 40
0.1903
 41
0.0
 71
     1
 72
     1
  1
SOLIDWORKS Educational Product.
  7
SLDTEXTSTYLE0
 73
     1
 44
1.0
  0
MTEXT
  5
483
330
1F
100
AcDbEntity
  8
0
  6
Continuous
 62
     7
100
AcDbMText
 10
0.0
 20
-0.3255904091
 30
0.0
 40
0.1903
 41
0.0
 71
     1
 72
     1
  1
For Instructional Use Only.
  7
SLDTEXTSTYLE0
 73
     1
 44
1.0
  0
CIRCLE
  5
274
330
1B
100
AcDbEntity
 67
     1
  8
0
  6
Continuous
 62
     7
370
    25
100
AcDbCircle
 10
3.0
 20
13.5064694517
 30
0.0
 40
0.1285000000000003
  0
CIRCLE
  5
276
330
1B
100
AcDbEntity
 67
     1
  8
0
  6
Continuous
 62
     7
370
    25
100
AcDbCircle
 10
6.4625
 20
13.5064694517
 30
0.0
 40
0.1284999999999998
  0
CIRCLE
  5
27E
330
1B
100
AcDbEntity
 67
     1
  8
0
  6
Continuous
 62
     7
370
    25
100
AcDbCircle
 10
3.0
 20
12.7314694517
 30
0.0
 40
0.1284999999999994
  0
CIRCLE
  5
27F
330
1B
100
AcDbEntity
 67
     1
  8
0
  6
Continuous
 62
     7
370
    25
100
AcDbCircle
 10
8.5
 20
5.405
 30
0.0
 40
0.1285000000000008
  0
CIRCLE
  5
286
330
1B
100
AcDbEntity
 67
     1
  8
0
  6
Continuous
 62
     7
370
    25
100
AcDbCircle
 10
8.5
 20
6.155
 30
0.0
 40
0.1285000000000021
  0
CIRCLE
  5
287
330
1B
100
AcDbEntity
 67
     1
  8
0
  6
Continuous
 62
     7
370
    25
100
AcDbCircle
 10
9.6875
 20
6.3146980585
 30
0.0
 40
0.1285000000000022
  0
CIRCLE
  5
28D
330
1B
100
AcDbEntity
 67
     1
  8
0
  6
Continuous
 62
     7
370
    25
100
AcDbCircle
 10
9.6875
 20
5.5646980585
 30
0.0
 40
0.1285000000000037
  0
CIRCLE
  5
294
330
1B
100
AcDbEntity
 67
     1
  8
0
  6
Continuous
 62
     7
370
    25
100
AcDbCircle
 10
6.95
 20
1.5
 30
0.0
 40
0.1005000000000038
  0
CIRCLE
  5
295
330
1B
100
AcDbEntity
 67
     1
  8
0
  6
Continuous
 62
     7
370
    25
100
AcDbCircle
 10
6.95
 20
4.5
 30
0.0
 40
0.1005000000000029
  0
CIRCLE
  5
296
330
1B
100
AcDbEntity
 67
     1
  8
0
  6
Continuous
 62
     7
370
    25
100
AcDbCircle
 10
6.95
 20
4.875
 30
0.0
 40
0.100500000000002
  0
CIRCLE
  5
297
330
1B
100
AcDbEntity
 67
     1
  8
0
  6
Continuous
 62
     7
370
    25
100
AcDbCircle
 10
6.95
 20
5.25
 30
0.0
 40
0.100500000000002
  0
CIRCLE
  5
298
330
1B
100
AcDbEntity
 67
     1
  8
0
  6
Continuous
 62
     7
370
    25
100
AcDbCircle
 10
6.95
 20
5.625
 30
0.0
 40
0.1005000000000029
  0
CIRCLE
  5
299
330
1B
100
AcDbEntity
 67
     1
  8
0
  6
Continuous
 62
     7
370
    25
100
AcDbCircle
 10
6.95
 20
4.125
 30
0.0
 40
0.1005000000000029
  0
CIRCLE
  5
29A
330
1B
100
AcDbEntity
 67
     1
  8
0
  6
Continuous
 62
     7
370
    25
100
AcDbCircle
 10
6.95
 20
3.75
 30
0.0
 40
0.100500000000002
  0
CIRCLE
  5
29B
330
1B
100
AcDbEntity
 67
     1
  8
0
  6
Continuous
 62
     7
370
    25
100
AcDbCircle
 10
6.95
 20
3.375
 30
0.0
 40
0.100500000000002
  0
CIRCLE
  5
29C
330
1B
100
AcDbEntity
 67
     1
  8
0
  6
Continuous
 62
     7
370
    25
100
AcDbCircle
 10
6.95
 20
1.875
 30
0.0
 40
0.1005000000000029
  0
CIRCLE
  5
29D
330
1B
100
AcDbEntity
 67
     1
  8
0
  6
Continuous
 62
     7
370
    25
100
AcDbCircle
 10
6.95
 20
2.25
 30
0.0
 40
0.100500000000002
  0
CIRCLE
  5
29E
330
1B
100
AcDbEntity
 67
     1
  8
0
  6
Continuous
 62
     7
370
    25
100
AcDbCircle
 10
6.95
 20
2.625
 30
0.0
 40
0.100500000000002
  0
CIRCLE
  5
29F
330
1B
100
AcDbEntity
 67
     1
  8
0
  6
Continuous
 62
     7
370
    25
100
AcDbCircle
 10
6.95
 20
1.125
 30
0.0
 40
0.100500000000002
  0
CIRCLE
  5
2A0
330
1B
100
AcDbEntity
 67
     1
  8
0
  6
Continuous
 62
     7
370
    25
100
AcDbCircle
 10
6.95
 20
0.75
 30
0.0
 40
0.100500000000002
  0
CIRCLE
  5
2A1
330
1B
100
AcDbEntity
 67
     1
  8
0
  6
Continuous
 62
     7
370
    25
100
AcDbCircle
 10
6.95
 20
0.375
 30
0.0
 40
0.100500000000002
  0
CIRCLE
  5
2A8
330
1B
100
AcDbEntity
 67
     1
  8
0
  6
Continuous
 62
     7
370
    25
100
AcDbCircle
 10
4.65
 20
1.5
 30
0.0
 40
0.1005000000000029
  0
CIRCLE
  5
2A9
330
1B
100
AcDbEntity
 67
     1
  8
0
  6
Continuous
 62
     7
370
    25
100
AcDbCircle
 10
4.65
 20
4.5
 30
0.0
 40
0.1005000000000038
  0
CIRCLE
  5
2AA
330
1B
100
AcDbEntity
 67
     1
  8
0
  6
Continuous
 62
     7
370
    25
100
AcDbCircle
 10
4.65
 20
4.875
 30
0.0
 40
0.1005000000000011
  0
CIRCLE
  5
2AB
330
1B
100
AcDbEntity
 67
     1
  8
0
  6
Continuous
 62
     7
370
    25
100
AcDbCircle
 10
4.65
 20
5.25
 30
0.0
 40
0.1005000000000029
  0
CIRCLE
  5
2AC
330
1B
100
AcDbEntity
 67
     1
  8
0
  6
Continuous
 62
     7
370
    25
100
AcDbCircle
 10
4.65
 20
5.625
 30
0.0
 40
0.1005000000000029
  0
CIRCLE
  5
2AD
330
1B
100
AcDbEntity
 67
     1
  8
0
  6
Continuous
 62
     7
370
    25
100
AcDbCircle
 10
4.65
 20
4.125
 30
0.0
 40
0.1005000000000047
  0
CIRCLE
  5
2AE
330
1B
100
AcDbEntity
 67
     1
  8
0
  6
Continuous
 62
     7
370
    25
100
AcDbCircle
 10
4.65
 20
3.75
 30
0.0
 40
0.100500000000002
  0
CIRCLE
  5
2AF
330
1B
100
AcDbEntity
 67
     1
  8
0
  6
Continuous
 62
     7
370
    25
100
AcDbCircle
 10
4.65
 20
3.375
 30
0.0
 40
0.1005000000000029
  0
CIRCLE
  5
2B0
330
1B
100
AcDbEntity
 67
     1
  8
0
  6
Continuous
 62
     7
370
    25
100
AcDbCircle
 10
4.65
 20
1.875
 30
0.0
 40
0.1005000000000029
  0
CIRCLE
  5
2B1
330
1B
100
AcDbEntity
 67
     1
  8
0
  6
Continuous
 62
     7
370
    25
100
AcDbCircle
 10
4.65
 20
2.25
 30
0.0
 40
0.1005000000000029
  0
CIRCLE
  5
2B2
330
1B
100
AcDbEntity
 67
     1
  8
0
  6
Continuous
 62
     7
370
    25
100
AcDbCircle
 10
4.65
 20
2.625
 30
0.0
 40
0.100500000000002
  0
CIRCLE
  5
2B3
330
1B
100
AcDbEntity
 67
     1
  8
0
  6
Continuous
 62
     7
370
    25
100
AcDbCircle
 10
4.65
 20
1.125
 30
0.0
 40
0.1005000000000029
  0
CIRCLE
  5
2B4
330
1B
100
AcDbEntity
 67
     1
  8
0
  6
Continuous
 62
     7
370
    25
100
AcDbCircle
 10
4.65
 20
0.75
 30
0.0
 40
0.1005000000000029
  0
CIRCLE
  5
2B5
330
1B
100
AcDbEntity
 67
     1
  8
0
  6
Continuous
 62
     7
370
    25
100
AcDbCircle
 10
4.65
 20
0.375
 30
0.0
 40
0.1005000000000029
  0
CIRCLE
  5
2B7
330
1B
100
AcDbEntity
 67
     1
  8
0
  6
Continuous
 62
     7
370
    25
100
AcDbCircle
 10
9.625
 20
3.2788935804
 30
0.0
 40
0.0979999999999916
  0
CIRCLE
  5
2BC
330
1B
100
AcDbEntity
 67
     1
  8
0
  6
Continuous
 62
     7
370
    25
100
AcDbCircle
 10
9.625
 20
4.7896980585
 30
0.0
 40
0.097999999999992
  0
CIRCLE
  5
2C1
330
1B
100
AcDbEntity
 67
     1
  8
0
  6
Continuous
 62
     7
370
    25
100
AcDbCircle
 10
8.625
 20
2.905
 30
0.0
 40
0.0979999999999969
  0
CIRCLE
  5
2C6
330
1B
100
AcDbEntity
 67
     1
  8
0
  6
Continuous
 62
     7
370
    25
100
AcDbCircle
 10
8.625
 20
4.63
 30
0.0
 40
0.0979999999999942
  0
CIRCLE
  5
2DB
330
1B
100
AcDbEntity
 67
     1
  8
0
  6
Continuous
 62
     7
370
    25
100
AcDbCircle
 10
9.6247822847
 20
1.0843210571
 30
0.0
 40
0.1284999999999979
  0
CIRCLE
  5
2E0
330
1B
100
AcDbEntity
 67
     1
  8
0
  6
Continuous
 62
     7
370
    25
100
AcDbCircle
 10
8.625
 20
1.18
 30
0.0
 40
0.1284999999999954
  0
CIRCLE
  5
301
330
1B
100
AcDbEntity
 67
     1
  8
0
  6
Continuous
 62
     7
370
    25
100
AcDbCircle
 10
2.125
 20
7.8547903684
 30
0.0
 40
0.4749999999999989
  0
CIRCLE
  5
307
330
1B
100
AcDbEntity
 67
     1
  8
0
  6
Continuous
 62
     7
370
    25
100
AcDbCircle
 10
2.125
 20
5.2957352503
 30
0.0
 40
0.4749999999999988
  0
CIRCLE
  5
308
330
1B
100
AcDbEntity
 67
     1
  8
0
  6
Continuous
 62
     7
370
    25
100
AcDbCircle
 10
3.125
 20
3.1125
 30
0.0
 40
0.1285000000000016
  0
CIRCLE
  5
30F
330
1B
100
AcDbEntity
 67
     1
  8
0
  6
Continuous
 62
     7
370
    25
100
AcDbCircle
 10
0.375
 20
3.1125
 30
0.0
 40
0.1285000000000029
  0
CIRCLE
  5
310
330
1B
100
AcDbEntity
 67
     1
  8
0
  6
Continuous
 62
     7
370
    25
100
AcDbCircle
 10
3.125
 20
1.8375
 30
0.0
 40
0.1285000000000012
  0
CIRCLE
  5
314
330
1B
100
AcDbEntity
 67
     1
  8
0
  6
Continuous
 62
     7
370
    25
100
AcDbCircle
 10
0.375
 20
1.8375
 30
0.0
 40
0.1285000000000027
  0
CIRCLE
  5
318
330
1B
100
AcDbEntity
 67
     1
  8
0
  6
Continuous
 62
     7
370
    25
100
AcDbCircle
 10
0.3125
 20
0.625
 30
0.0
 40
0.1285000000000005
  0
CIRCLE
  5
31E
330
1B
100
AcDbEntity
 67
     1
  8
0
  6
Continuous
 62
     7
370
    25
100
AcDbCircle
 10
1.1875
 20
0.625
 30
0.0
 40
0.1285000000000006
  0
CIRCLE
  5
320
330
1B
100
AcDbEntity
 67
     1
  8
0
  6
Continuous
 62
     7
370
    25
100
AcDbCircle
 10
2.0625
 20
0.625
 30
0.0
 40
0.1285000000000002
  0
CIRCLE
  5
324
330
1B
100
AcDbEntity
 67
     1
  8
0
  6
Continuous
 62
     7
370
    25
100
AcDbCircle
 10
2.9375
 20
0.625
 30
0.0
 40
0.1285000000000005
  0
CIRCLE
  5
33C
330
1B
100
AcDbEntity
 67
     1
  8
0
  6
Continuous
 62
     7
370
    25
100
AcDbCircle
 10
6.5561304813
 20
12.3697487714
 30
0.0
 40
0.1285000000000052
  0
CIRCLE
  5
33D
330
1B
100
AcDbEntity
 67
     1
  8
0
  6
Continuous
 62
     7
370
    25
100
AcDbCircle
 10
9.3061304813
 20
12.3697487714
 30
0.0
 40
0.1285000000000053
  0
CIRCLE
  5
35A
330
1B
100
AcDbEntity
 67
     1
  8
0
  6
Continuous
 62
     7
370
    25
100
AcDbCircle
 10
8.6682586242
 20
7.0896980585
 30
0.0
 40
0.1285000000000087
  0
CIRCLE
  5
35B
330
1B
100
AcDbEntity
 67
     1
  8
0
  6
Continuous
 62
     7
370
    25
100
AcDbCircle
 10
8.6682586242
 20
9.8396980585
 30
0.0
 40
0.1285000000000068
  0
CIRCLE
  5
378
330
1B
100
AcDbEntity
 67
     1
  8
0
  6
Continuous
 62
     7
370
    25
100
AcDbCircle
 10
6.4229329506
 20
10.8706876463
 30
0.0
 40
0.1285000000000017
  0
CIRCLE
  5
379
330
1B
100
AcDbEntity
 67
     1
  8
0
  6
Continuous
 62
     7
370
    25
100
AcDbCircle
 10
3.6729329506
 20
10.8706876463
 30
0.0
 40
0.1285000000000068
  0
CIRCLE
  5
382
330
1B
100
AcDbEntity
 67
     1
  8
0
  6
Continuous
 62
     7
370
    25
100
AcDbCircle
 10
2.5403543307
 20
9.6047903684
 30
0.0
 40
0.125
  0
CIRCLE
  5
383
330
1B
100
AcDbEntity
 67
     1
  8
0
  6
Continuous
 62
     7
370
    25
100
AcDbCircle
 10
0.375
 20
9.6047903684
 30
0.0
 40
0.1249999999999982
  0
LINE
  5
394
330
1B
100
AcDbEntity
 67
     1
  8
0
  6
Continuous
 62
     7
370
    25
100
AcDbLine
 10
0.0
 20
13.8189694517
 30
0.0
 11
3.0
 21
13.8189694517
 31
0.0
  0
LINE
  5
395
330
1B
100
AcDbEntity
 67
     1
  8
0
  6
Continuous
 62
     7
370
    25
100
AcDbLine
 10
3.0
 20
13.1939694517
 30
0.0
 11
0.0
 21
13.1939694517
 31
0.0
  0
LINE
  5
396
330
1B
100
AcDbEntity
 67
     1
  8
0
  6
Continuous
 62
     7
370
    25
100
AcDbLine
 10
0.0
 20
13.1939694517
 30
0.0
 11
0.0
 21
13.8189694517
 31
0.0
  0
LINE
  5
397
330
1B
100
AcDbEntity
 67
     1
  8
0
  6
Continuous
 62
     7
370
    25
100
AcDbLine
 10
6.4625
 20
13.1939694517
 30
0.0
 11
3.4625
 21
13.1939694517
 31
0.0
  0
LINE
  5
398
330
1B
100
AcDbEntity
 67
     1
  8
0
  6
Continuous
 62
     7
370
    25
100
AcDbLine
 10
3.4625
 20
13.1939694517
 30
0.0
 11
3.4625
 21
13.8189694517
 31
0.0
  0
LINE
  5
399
330
1B
100
AcDbEntity
 67
     1
  8
0
  6
Continuous
 62
     7
370
    25
100
AcDbLine
 10
3.4625
 20
13.8189694517
 30
0.0
 11
6.4625
 21
13.8189694517
 31
0.0
  0
LINE
  5
39A
330
1B
100
AcDbEntity
 67
     1
  8
0
  6
Continuous
 62
     7
370
    25
100
AcDbLine
 10
0.0
 20
13.0439694517
 30
0.0
 11
3.0
 21
13.0439694517
 31
0.0
  0
LINE
  5
39B
330
1B
100
AcDbEntity
 67
     1
  8
0
  6
Continuous
 62
     7
370
    25
100
AcDbLine
 10
3.0
 20
12.4189694517
 30
0.0
 11
0.0
 21
12.4189694517
 31
0.0
  0
LINE
  5
39C
330
1B
100
AcDbEntity
 67
     1
  8
0
  6
Continuous
 62
     7
370
    25
100
AcDbLine
 10
0.0
 20
12.4189694517
 30
0.0
 11
0.0
 21
13.0439694517
 31
0.0
  0
LINE
  5
39D
330
1B
100
AcDbEntity
 67
     1
  8
0
  6
Continuous
 62
     7
370
    25
100
AcDbLine
 10
8.9375
 20
5.155
 30
0.0
 11
8.5
 21
5.155
 31
0.0
  0
LINE
  5
39E
330
1B
100
AcDbEntity
 67
     1
  8
0
  6
Continuous
 62
     7
370
    25
100
AcDbLine
 10
8.25
 20
5.405
 30
0.0
 11
8.25
 21
6.155
 31
0.0
  0
LINE
  5
39F
330
1B
100
AcDbEntity
 67
     1
  8
0
  6
Continuous
 62
     7
370
    25
100
AcDbLine
 10
8.5
 20
6.405
 30
0.0
 11
8.9375
 21
6.405
 31
0.0
  0
LINE
  5
3A0
330
1B
100
AcDbEntity
 67
     1
  8
0
  6
Continuous
 62
     7
370
    25
100
AcDbLine
 10
8.9375
 20
6.405
 30
0.0
 11
8.9375
 21
5.155
 31
0.0
  0
LINE
  5
3A1
330
1B
100
AcDbEntity
 67
     1
  8
0
  6
Continuous
 62
     7
370
    25
100
AcDbLine
 10
9.25
 20
6.5646980585
 30
0.0
 11
9.6875
 21
6.5646980585
 31
0.0
  0
LINE
  5
3A2
330
1B
100
AcDbEntity
 67
     1
  8
0
  6
Continuous
 62
     7
370
    25
100
AcDbLine
 10
9.9375
 20
6.3146980585
 30
0.0
 11
9.9375
 21
5.5646980585
 31
0.0
  0
LINE
  5
3A3
330
1B
100
AcDbEntity
 67
     1
  8
0
  6
Continuous
 62
     7
370
    25
100
AcDbLine
 10
9.6875
 20
5.3146980585
 30
0.0
 11
9.25
 21
5.3146980585
 31
0.0
  0
LINE
  5
3A4
330
1B
100
AcDbEntity
 67
     1
  8
0
  6
Continuous
 62
     7
370
    25
100
AcDbLine
 10
9.25
 20
5.3146980585
 30
0.0
 11
9.25
 21
6.5646980585
 31
0.0
  0
LINE
  5
3A5
330
1B
100
AcDbEntity
 67
     1
  8
0
  6
Continuous
 62
     7
370
    25
100
AcDbLine
 10
5.95
 20
0.5
 30
0.0
 11
5.95
 21
5.5
 31
0.0
  0
LINE
  5
3A6
330
1B
100
AcDbEntity
 67
     1
  8
0
  6
Continuous
 62
     7
370
    25
100
AcDbLine
 10
8.1
 20
6.0
 30
0.0
 11
8.1
 21
0.0
 31
0.0
  0
LINE
  5
3A7
330
1B
100
AcDbEntity
 67
     1
  8
0
  6
Continuous
 62
     7
370
    25
100
AcDbLine
 10
8.1
 20
0.0
 30
0.0
 11
6.45
 21
0.0
 31
0.0
  0
LINE
  5
3A8
330
1B
100
AcDbEntity
 67
     1
  8
0
  6
Continuous
 62
     7
370
    25
100
AcDbLine
 10
8.1
 20
6.0
 30
0.0
 11
6.45
 21
6.0
 31
0.0
  0
LINE
  5
3A9
330
1B
100
AcDbEntity
 67
     1
  8
0
  6
Continuous
 62
     7
370
    25
100
AcDbLine
 10
3.65
 20
0.5
 30
0.0
 11
3.65
 21
5.5
 31
0.0
  0
LINE
  5
3AA
330
1B
100
AcDbEntity
 67
     1
  8
0
  6
Continuous
 62
     7
370
    25
100
AcDbLine
 10
5.8
 20
6.0
 30
0.0
 11
4.15
 21
6.0
 31
0.0
  0
LINE
  5
3AB
330
1B
100
AcDbEntity
 67
     1
  8
0
  6
Continuous
 62
     7
370
    25
100
AcDbLine
 10
5.8
 20
0.0
 30
0.0
 11
4.15
 21
0.0
 31
0.0
  0
LINE
  5
3AC
330
1B
100
AcDbEntity
 67
     1
  8
0
  6
Continuous
 62
     7
370
    25
100
AcDbLine
 10
5.8
 20
6.0
 30
0.0
 11
5.8
 21
0.0
 31
0.0
  0
LINE
  5
3AD
330
1B
100
AcDbEntity
 67
     1
  8
0
  6
Continuous
 62
     7
370
    25
100
AcDbLine
 10
10.0
 20
2.2930891023
 30
0.0
 11
10.0
 21
3.2788935804
 31
0.0
  0
LINE
  5
3AE
330
1B
100
AcDbEntity
 67
     1
  8
0
  6
Continuous
 62
     7
370
    25
100
AcDbLine
 10
9.25
 20
2.2930891023
 30
0.0
 11
10.0
 21
2.2930891023
 31
0.0
  0
LINE
  5
3AF
330
1B
100
AcDbEntity
 67
     1
  8
0
  6
Continuous
 62
     7
370
    25
100
AcDbLine
 10
9.25
 20
3.2788935804
 30
0.0
 11
9.25
 21
2.2930891023
 31
0.0
  0
LINE
  5
3B0
330
1B
100
AcDbEntity
 67
     1
  8
0
  6
Continuous
 62
     7
370
    25
100
AcDbLine
 10
10.0
 20
3.8038935804
 30
0.0
 11
10.0
 21
4.7896980585
 31
0.0
  0
LINE
  5
3B1
330
1B
100
AcDbEntity
 67
     1
  8
0
  6
Continuous
 62
     7
370
    25
100
AcDbLine
 10
9.25
 20
3.8038935804
 30
0.0
 11
10.0
 21
3.8038935804
 31
0.0
  0
LINE
  5
3B2
330
1B
100
AcDbEntity
 67
     1
  8
0
  6
Continuous
 62
     7
370
    25
100
AcDbLine
 10
9.25
 20
4.7896980585
 30
0.0
 11
9.25
 21
3.8038935804
 31
0.0
  0
LINE
  5
3B3
330
1B
100
AcDbEntity
 67
     1
  8
0
  6
Continuous
 62
     7
370
    25
100
AcDbLine
 10
8.25
 20
2.905
 30
0.0
 11
8.25
 21
1.705
 31
0.0
  0
LINE
  5
3B4
330
1B
100
AcDbEntity
 67
     1
  8
0
  6
Continuous
 62
     7
370
    25
100
AcDbLine
 10
9.0
 20
1.705
 30
0.0
 11
9.0
 21
2.905
 31
0.0
  0
LINE
  5
3B5
330
1B
100
AcDbEntity
 67
     1
  8
0
  6
Continuous
 62
     7
370
    25
100
AcDbLine
 10
8.25
 20
1.705
 30
0.0
 11
9.0
 21
1.705
 31
0.0
  0
LINE
  5
3B6
330
1B
100
AcDbEntity
 67
     1
  8
0
  6
Continuous
 62
     7
370
    25
100
AcDbLine
 10
8.25
 20
4.63
 30
0.0
 11
8.25
 21
3.43
 31
0.0
  0
LINE
  5
3B7
330
1B
100
AcDbEntity
 67
     1
  8
0
  6
Continuous
 62
     7
370
    25
100
AcDbLine
 10
9.0
 20
3.43
 30
0.0
 11
9.0
 21
4.63
 31
0.0
  0
LINE
  5
3B8
330
1B
100
AcDbEntity
 67
     1
  8
0
  6
Continuous
 62
     7
370
    25
100
AcDbLine
 10
8.25
 20
3.43
 30
0.0
 11
9.0
 21
3.43
 31
0.0
  0
LINE
  5
3B9
330
1B
100
AcDbEntity
 67
     1
  8
0
  6
Continuous
 62
     7
370
    25
100
AcDbLine
 10
5.3830873259
 20
7.3507874016
 30
0.0
 11
5.6412541969
 21
7.3507874016
 31
0.0
  0
LINE
  5
3BA
330
1B
100
AcDbEntity
 67
     1
  8
0
  6
Continuous
 62
     7
370
    25
100
AcDbLine
 10
5.6412541969
 20
6.524015748
 30
0.0
 11
5.3830873259
 21
6.524015748
 31
0.0
  0
LINE
  5
3BB
330
1B
100
AcDbEntity
 67
     1
  8
0
  6
Continuous
 62
     7
370
    25
100
AcDbLine
 10
4.0749059318
 20
6.15
 30
0.0
 11
3.5
 21
7.7248031496
 31
0.0
  0
LINE
  5
3BC
330
1B
100
AcDbEntity
 67
     1
  8
0
  6
Continuous
 62
     7
370
    25
100
AcDbLine
 10
3.5
 20
7.7248031496
 30
0.0
 11
7.5243415228
 21
7.7248031496
 31
0.0
  0
LINE
  5
3BD
330
1B
100
AcDbEntity
 67
     1
  8
0
  6
Continuous
 62
     7
370
    25
100
AcDbLine
 10
7.5243415228
 20
7.7248031496
 30
0.0
 11
6.9494355909
 21
6.15
 31
0.0
  0
LINE
  5
3BE
330
1B
100
AcDbEntity
 67
     1
  8
0
  6
Continuous
 62
     7
370
    25
100
AcDbLine
 10
6.9494355909
 20
6.15
 30
0.0
 11
4.0749059318
 21
6.15
 31
0.0
  0
LINE
  5
3BF
330
1B
100
AcDbEntity
 67
     1
  8
0
  6
Continuous
 62
     7
370
    25
100
AcDbLine
 10
5.6412541969
 20
8.2488188976
 30
0.0
 11
5.3830873259
 21
8.2488188976
 31
0.0
  0
LINE
  5
3C0
330
1B
100
AcDbEntity
 67
     1
  8
0
  6
Continuous
 62
     7
370
    25
100
AcDbLine
 10
5.3830873259
 20
9.0755905512
 30
0.0
 11
5.6412541969
 21
9.0755905512
 31
0.0
  0
LINE
  5
3C1
330
1B
100
AcDbEntity
 67
     1
  8
0
  6
Continuous
 62
     7
370
    25
100
AcDbLine
 10
6.9494355909
 20
9.4496062992
 30
0.0
 11
7.5243415228
 21
7.8748031496
 31
0.0
  0
LINE
  5
3C2
330
1B
100
AcDbEntity
 67
     1
  8
0
  6
Continuous
 62
     7
370
    25
100
AcDbLine
 10
7.5243415228
 20
7.8748031496
 30
0.0
 11
3.5
 21
7.8748031496
 31
0.0
  0
LINE
  5
3C3
330
1B
100
AcDbEntity
 67
     1
  8
0
  6
Continuous
 62
     7
370
    25
100
AcDbLine
 10
3.5
 20
7.8748031496
 30
0.0
 11
4.0749059318
 21
9.4496062992
 31
0.0
  0
LINE
  5
3C4
330
1B
100
AcDbEntity
 67
     1
  8
0
  6
Continuous
 62
     7
370
    25
100
AcDbLine
 10
4.0749059318
 20
9.4496062992
 30
0.0
 11
6.9494355909
 21
9.4496062992
 31
0.0
  0
LINE
  5
3C5
330
1B
100
AcDbEntity
 67
     1
  8
0
  6
Continuous
 62
     7
370
    25
100
AcDbLine
 10
9.9995645693
 20
0.3321889394
 30
0.0
 11
9.9995645693
 21
1.8620061869
 31
0.0
  0
LINE
  5
3C6
330
1B
100
AcDbEntity
 67
     1
  8
0
  6
Continuous
 62
     7
370
    25
100
AcDbLine
 10
9.25
 20
0.0
 30
0.0
 11
9.9995645693
 21
0.3321889394
 31
0.0
  0
LINE
  5
3C7
330
1B
100
AcDbEntity
 67
     1
  8
0
  6
Continuous
 62
     7
370
    25
100
AcDbLine
 10
9.25
 20
2.1430891023
 30
0.0
 11
9.25
 21
0.0
 31
0.0
  0
LINE
  5
3C8
330
1B
100
AcDbEntity
 67
     1
  8
0
  6
Continuous
 62
     7
370
    25
100
AcDbLine
 10
9.9995645693
 20
1.8620061869
 30
0.0
 11
9.25
 21
2.1430891023
 31
0.0
  0
LINE
  5
3C9
330
1B
100
AcDbEntity
 67
     1
  8
0
  6
Continuous
 62
     7
370
    25
100
AcDbLine
 10
8.25
 20
1.18
 30
0.0
 11
8.25
 21
0.0
 31
0.0
  0
LINE
  5
3CA
330
1B
100
AcDbEntity
 67
     1
  8
0
  6
Continuous
 62
     7
370
    25
100
AcDbLine
 10
9.0
 20
0.0
 30
0.0
 11
9.0
 21
1.18
 31
0.0
  0
LINE
  5
3CB
330
1B
100
AcDbEntity
 67
     1
  8
0
  6
Continuous
 62
     7
370
    25
100
AcDbLine
 10
8.25
 20
0.0
 30
0.0
 11
9.0
 21
0.0
 31
0.0
  0
LINE
  5
3CC
330
1B
100
AcDbEntity
 67
     1
  8
0
  6
Continuous
 62
     7
370
    25
100
AcDbLine
 10
1.9965
 20
4.6412076912
 30
0.0
 11
1.9965
 21
4.3912076912
 31
0.0
  0
LINE
  5
3CD
330
1B
100
AcDbEntity
 67
     1
  8
0
  6
Continuous
 62
     7
370
    25
100
AcDbLine
 10
2.2535
 20
4.3912076912
 30
0.0
 11
2.2535
 21
4.6412076912
 31
0.0
  0
LINE
  5
3CE
330
1B
100
AcDbEntity
 67
     1
  8
0
  6
Continuous
 62
     7
370
    25
100
AcDbLine
 10
2.2535
 20
5.9502628093
 30
0.0
 11
2.2535
 21
6.2002628093
 31
0.0
  0
LINE
  5
3CF
330
1B
100
AcDbEntity
 67
     1
  8
0
  6
Continuous
 62
     7
370
    25
100
AcDbLine
 10
1.9965
 20
6.2002628093
 30
0.0
 11
1.9965
 21
5.9502628093
 31
0.0
  0
LINE
  5
3D0
330
1B
100
AcDbEntity
 67
     1
  8
0
  6
Continuous
 62
     7
370
    25
100
AcDbLine
 10
1.9965
 20
7.2002628093
 30
0.0
 11
1.9965
 21
6.9502628093
 31
0.0
  0
LINE
  5
3D1
330
1B
100
AcDbEntity
 67
     1
  8
0
  6
Continuous
 62
     7
370
    25
100
AcDbLine
 10
2.2535
 20
6.9502628093
 30
0.0
 11
2.2535
 21
7.2002628093
 31
0.0
  0
LINE
  5
3D2
330
1B
100
AcDbEntity
 67
     1
  8
0
  6
Continuous
 62
     7
370
    25
100
AcDbLine
 10
0.7141045486
 20
5.1931742928
 30
0.0
 11
0.7141045486
 21
5.3982962077
 31
0.0
  0
LINE
  5
3D3
330
1B
100
AcDbEntity
 67
     1
  8
0
  6
Continuous
 62
     7
370
    25
100
AcDbLine
 10
0.2858954514
 20
5.3982962077
 30
0.0
 11
0.2858954514
 21
5.1931742928
 31
0.0
  0
LINE
  5
3D4
330
1B
100
AcDbEntity
 67
     1
  8
0
  6
Continuous
 62
     7
370
    25
100
AcDbLine
 10
0.7141045486
 20
7.2522294109
 30
0.0
 11
0.7141045486
 21
7.4573513258
 31
0.0
  0
LINE
  5
3D5
330
1B
100
AcDbEntity
 67
     1
  8
0
  6
Continuous
 62
     7
370
    25
100
AcDbLine
 10
0.2858954514
 20
7.4573513258
 30
0.0
 11
0.2858954514
 21
7.2522294109
 31
0.0
  0
LINE
  5
3D6
330
1B
100
AcDbEntity
 67
     1
  8
0
  6
Continuous
 62
     7
370
    25
100
AcDbLine
 10
0.7225
 20
8.2522294109
 30
0.0
 11
0.7225
 21
8.4573513258
 31
0.0
  0
LINE
  5
3D7
330
1B
100
AcDbEntity
 67
     1
  8
0
  6
Continuous
 62
     7
370
    25
100
AcDbLine
 10
0.2775
 20
8.4573513258
 30
0.0
 11
0.2775
 21
8.2522294109
 31
0.0
  0
LINE
  5
3D8
330
1B
100
AcDbEntity
 67
     1
  8
0
  6
Continuous
 62
     7
370
    25
100
AcDbLine
 10
2.2535
 20
8.5093179274
 30
0.0
 11
2.2535
 21
8.7593179274
 31
0.0
  0
LINE
  5
3D9
330
1B
100
AcDbEntity
 67
     1
  8
0
  6
Continuous
 62
     7
370
    25
100
AcDbLine
 10
1.9965
 20
8.7593179274
 30
0.0
 11
1.9965
 21
8.5093179274
 31
0.0
  0
LINE
  5
3DA
330
1B
100
AcDbEntity
 67
     1
  8
0
  6
Continuous
 62
     7
370
    25
100
AcDbLine
 10
3.35
 20
3.8930850482
 30
0.0
 11
3.35
 21
7.8547903684
 31
0.0
  0
LINE
  5
3DB
330
1B
100
AcDbEntity
 67
     1
  8
0
  6
Continuous
 62
     7
370
    25
100
AcDbLine
 10
0.0
 20
3.6125
 30
0.0
 11
3.35
 21
3.8930850482
 31
0.0
  0
LINE
  5
3DC
330
1B
100
AcDbEntity
 67
     1
  8
0
  6
Continuous
 62
     7
370
    25
100
AcDbLine
 10
0.0
 20
9.0797903684
 30
0.0
 11
0.0
 21
3.6125
 31
0.0
  0
LINE
  5
3DD
330
1B
100
AcDbEntity
 67
     1
  8
0
  6
Continuous
 62
     7
370
    25
100
AcDbLine
 10
2.125
 20
9.0797903684
 30
0.0
 11
0.0
 21
9.0797903684
 31
0.0
  0
LINE
  5
3DE
330
1B
100
AcDbEntity
 67
     1
  8
0
  6
Continuous
 62
     7
370
    25
100
AcDbLine
 10
0.0
 20
2.3625
 30
0.0
 11
3.5
 21
2.3625
 31
0.0
  0
LINE
  5
3DF
330
1B
100
AcDbEntity
 67
     1
  8
0
  6
Continuous
 62
     7
370
    25
100
AcDbLine
 10
0.0
 20
3.1125
 30
0.0
 11
0.0
 21
2.3625
 31
0.0
  0
LINE
  5
3E0
330
1B
100
AcDbEntity
 67
     1
  8
0
  6
Continuous
 62
     7
370
    25
100
AcDbLine
 10
3.125
 20
3.4875
 30
0.0
 11
0.375
 21
3.4875
 31
0.0
  0
LINE
  5
3E1
330
1B
100
AcDbEntity
 67
     1
  8
0
  6
Continuous
 62
     7
370
    25
100
AcDbLine
 10
3.5
 20
2.3625
 30
0.0
 11
3.5
 21
3.1125
 31
0.0
  0
LINE
  5
3E2
330
1B
100
AcDbEntity
 67
     1
  8
0
  6
Continuous
 62
     7
370
    25
100
AcDbLine
 10
0.0
 20
1.0875
 30
0.0
 11
3.5
 21
1.0875
 31
0.0
  0
LINE
  5
3E3
330
1B
100
AcDbEntity
 67
     1
  8
0
  6
Continuous
 62
     7
370
    25
100
AcDbLine
 10
0.0
 20
1.8375
 30
0.0
 11
0.0
 21
1.0875
 31
0.0
  0
LINE
  5
3E4
330
1B
100
AcDbEntity
 67
     1
  8
0
  6
Continuous
 62
     7
370
    25
100
AcDbLine
 10
3.5
 20
1.0875
 30
0.0
 11
3.5
 21
1.8375
 31
0.0
  0
LINE
  5
3E5
330
1B
100
AcDbEntity
 67
     1
  8
0
  6
Continuous
 62
     7
370
    25
100
AcDbLine
 10
3.125
 20
2.2125
 30
0.0
 11
0.375
 21
2.2125
 31
0.0
  0
LINE
  5
3E6
330
1B
100
AcDbEntity
 67
     1
  8
0
  6
Continuous
 62
     7
370
    25
100
AcDbLine
 10
0.0
 20
0.0
 30
0.0
 11
1.5
 21
0.0
 31
0.0
  0
LINE
  5
3E7
330
1B
100
AcDbEntity
 67
     1
  8
0
  6
Continuous
 62
     7
370
    25
100
AcDbLine
 10
0.0
 20
0.625
 30
0.0
 11
0.0
 21
0.0
 31
0.0
  0
LINE
  5
3E8
330
1B
100
AcDbEntity
 67
     1
  8
0
  6
Continuous
 62
     7
370
    25
100
AcDbLine
 10
1.1875
 20
0.9375
 30
0.0
 11
0.3125
 21
0.9375
 31
0.0
  0
LINE
  5
3E9
330
1B
100
AcDbEntity
 67
     1
  8
0
  6
Continuous
 62
     7
370
    25
100
AcDbLine
 10
1.5
 20
0.0
 30
0.0
 11
1.5
 21
0.625
 31
0.0
  0
LINE
  5
3EA
330
1B
100
AcDbEntity
 67
     1
  8
0
  6
Continuous
 62
     7
370
    25
100
AcDbLine
 10
1.75
 20
0.0
 30
0.0
 11
3.25
 21
0.0
 31
0.0
  0
LINE
  5
3EB
330
1B
100
AcDbEntity
 67
     1
  8
0
  6
Continuous
 62
     7
370
    25
100
AcDbLine
 10
1.75
 20
0.625
 30
0.0
 11
1.75
 21
0.0
 31
0.0
  0
LINE
  5
3EC
330
1B
100
AcDbEntity
 67
     1
  8
0
  6
Continuous
 62
     7
370
    25
100
AcDbLine
 10
3.25
 20
0.0
 30
0.0
 11
3.25
 21
0.625
 31
0.0
  0
LINE
  5
3ED
330
1B
100
AcDbEntity
 67
     1
  8
0
  6
Continuous
 62
     7
370
    25
100
AcDbLine
 10
2.9375
 20
0.9375
 30
0.0
 11
2.0625
 21
0.9375
 31
0.0
  0
LINE
  5
3EE
330
1B
100
AcDbEntity
 67
     1
  8
0
  6
Continuous
 62
     7
370
    25
100
AcDbLine
 10
6.2898147073
 20
13.0173389189
 30
0.0
 11
8.8305606967
 21
13.3518344742
 31
0.0
  0
LINE
  5
3EF
330
1B
100
AcDbEntity
 67
     1
  8
0
  6
Continuous
 62
     7
370
    25
100
AcDbLine
 10
9.1748736227
 20
13.5607686867
 30
0.0
 11
9.3422722304
 21
13.7998386746
 31
0.0
  0
LINE
  5
3F0
330
1B
100
AcDbEntity
 67
     1
  8
0
  6
Continuous
 62
     7
370
    25
100
AcDbLine
 10
9.9833469232
 20
13.2878513078
 30
0.0
 11
9.6973481275
 21
12.9727091481
 31
0.0
  0
LINE
  5
3F1
330
1B
100
AcDbEntity
 67
     1
  8
0
  6
Continuous
 62
     7
370
    25
100
AcDbLine
 10
9.6811304813
 20
12.930706842
 30
0.0
 11
9.6811304813
 21
11.8087907009
 31
0.0
  0
LINE
  5
3F2
330
1B
100
AcDbEntity
 67
     1
  8
0
  6
Continuous
 62
     7
370
    25
100
AcDbLine
 10
9.9833469232
 20
11.4516462351
 30
0.0
 11
9.6973481275
 21
11.7667883947
 31
0.0
  0
LINE
  5
3F3
330
1B
100
AcDbEntity
 67
     1
  8
0
  6
Continuous
 62
     7
370
    25
100
AcDbLine
 10
9.1748736227
 20
11.1787288562
 30
0.0
 11
9.3422722304
 21
10.9396588683
 31
0.0
  0
LINE
  5
3F4
330
1B
100
AcDbEntity
 67
     1
  8
0
  6
Continuous
 62
     7
370
    25
100
AcDbLine
 10
6.2898147073
 20
11.7221586239
 30
0.0
 11
8.8305606967
 21
11.3876630687
 31
0.0
  0
LINE
  5
3F5
330
1B
100
AcDbEntity
 67
     1
  8
0
  6
Continuous
 62
     7
370
    25
100
AcDbLine
 10
6.1811304813
 20
11.8460892316
 30
0.0
 11
6.1811304813
 21
12.8934083113
 31
0.0
  0
LINE
  5
3F6
330
1B
100
AcDbEntity
 67
     1
  8
0
  6
Continuous
 62
     7
370
    25
100
AcDbLine
 10
6.930637305
 20
12.4634987714
 30
0.0
 11
6.930637305
 21
12.2759987714
 31
0.0
  0
LINE
  5
3F7
330
1B
100
AcDbEntity
 67
     1
  8
0
  6
Continuous
 62
     7
370
    25
100
AcDbLine
 10
7.055637305
 20
12.1509987714
 30
0.0
 11
8.8066236577
 21
12.1509987714
 31
0.0
  0
LINE
  5
3F8
330
1B
100
AcDbEntity
 67
     1
  8
0
  6
Continuous
 62
     7
370
    25
100
AcDbLine
 10
8.9316236577
 20
12.2759987714
 30
0.0
 11
8.9316236577
 21
12.4634987714
 31
0.0
  0
LINE
  5
3F9
330
1B
100
AcDbEntity
 67
     1
  8
0
  6
Continuous
 62
     7
370
    25
100
AcDbLine
 10
8.8066236577
 20
12.5884987714
 30
0.0
 11
7.055637305
 21
12.5884987714
 31
0.0
  0
LINE
  5
3FA
330
1B
100
AcDbEntity
 67
     1
  8
0
  6
Continuous
 62
     7
370
    25
100
AcDbLine
 10
9.2712190009
 20
10.2309157046
 30
0.0
 11
9.5863611605
 21
10.5169145003
 31
0.0
  0
LINE
  5
3FB
330
1B
100
AcDbEntity
 67
     1
  8
0
  6
Continuous
 62
     7
370
    25
100
AcDbLine
 10
10.0983485273
 20
9.8758398075
 30
0.0
 11
9.8592785394
 21
9.7084411998
 31
0.0
  0
LINE
  5
3FC
330
1B
100
AcDbEntity
 67
     1
  8
0
  6
Continuous
 62
     7
370
    25
100
AcDbLine
 10
9.6503443269
 20
9.3641282738
 30
0.0
 11
9.3158487717
 21
6.8233822844
 31
0.0
  0
LINE
  5
3FD
330
1B
100
AcDbEntity
 67
     1
  8
0
  6
Continuous
 62
     7
370
    25
100
AcDbLine
 10
8.1445990843
 20
6.7146980585
 30
0.0
 11
9.191918164
 21
6.7146980585
 31
0.0
  0
LINE
  5
3FE
330
1B
100
AcDbEntity
 67
     1
  8
0
  6
Continuous
 62
     7
370
    25
100
AcDbLine
 10
7.6861729214
 20
9.3641282738
 30
0.0
 11
8.0206684766
 21
6.8233822844
 31
0.0
  0
LINE
  5
3FF
330
1B
100
AcDbEntity
 67
     1
  8
0
  6
Continuous
 62
     7
370
    25
100
AcDbLine
 10
7.238168721
 20
9.8758398075
 30
0.0
 11
7.4772387089
 21
9.7084411998
 31
0.0
  0
LINE
  5
400
330
1B
100
AcDbEntity
 67
     1
  8
0
  6
Continuous
 62
     7
370
    25
100
AcDbLine
 10
8.0652982474
 20
10.2309157046
 30
0.0
 11
7.7501560878
 21
10.5169145003
 31
0.0
  0
LINE
  5
401
330
1B
100
AcDbEntity
 67
     1
  8
0
  6
Continuous
 62
     7
370
    25
100
AcDbLine
 10
9.2292166947
 20
10.2146980585
 30
0.0
 11
8.1073005536
 21
10.2146980585
 31
0.0
  0
LINE
  5
402
330
1B
100
AcDbEntity
 67
     1
  8
0
  6
Continuous
 62
     7
370
    25
100
AcDbLine
 10
8.7620086242
 20
7.4642048822
 30
0.0
 11
8.5745086242
 21
7.4642048822
 31
0.0
  0
LINE
  5
403
330
1B
100
AcDbEntity
 67
     1
  8
0
  6
Continuous
 62
     7
370
    25
100
AcDbLine
 10
8.8870086242
 20
9.3401912348
 30
0.0
 11
8.8870086242
 21
7.5892048822
 31
0.0
  0
LINE
  5
404
330
1B
100
AcDbEntity
 67
     1
  8
0
  6
Continuous
 62
     7
370
    25
100
AcDbLine
 10
8.5745086242
 20
9.4651912348
 30
0.0
 11
8.7620086242
 21
9.4651912348
 31
0.0
  0
LINE
  5
405
330
1B
100
AcDbEntity
 67
     1
  8
0
  6
Continuous
 62
     7
370
    25
100
AcDbLine
 10
8.4495086242
 20
7.5892048822
 30
0.0
 11
8.4495086242
 21
9.3401912348
 31
0.0
  0
LINE
  5
406
330
1B
100
AcDbEntity
 67
     1
  8
0
  6
Continuous
 62
     7
370
    25
100
AcDbLine
 10
6.6892487246
 20
10.2230974988
 30
0.0
 11
4.1485027353
 21
9.8886019436
 31
0.0
  0
LINE
  5
407
330
1B
100
AcDbEntity
 67
     1
  8
0
  6
Continuous
 62
     7
370
    25
100
AcDbLine
 10
3.8041898093
 20
9.6796677311
 30
0.0
 11
3.6367912016
 21
9.4405977432
 31
0.0
  0
LINE
  5
408
330
1B
100
AcDbEntity
 67
     1
  8
0
  6
Continuous
 62
     7
370
    25
100
AcDbLine
 10
2.9957165088
 20
9.95258511
 30
0.0
 11
3.2817153045
 21
10.2677272696
 31
0.0
  0
LINE
  5
409
330
1B
100
AcDbEntity
 67
     1
  8
0
  6
Continuous
 62
     7
370
    25
100
AcDbLine
 10
3.2979329506
 20
10.3097295757
 30
0.0
 11
3.2979329506
 21
11.4316457169
 31
0.0
  0
LINE
  5
40A
330
1B
100
AcDbEntity
 67
     1
  8
0
  6
Continuous
 62
     7
370
    25
100
AcDbLine
 10
2.9957165088
 20
11.7887901827
 30
0.0
 11
3.2817153045
 21
11.473648023
 31
0.0
  0
LINE
  5
40B
330
1B
100
AcDbEntity
 67
     1
  8
0
  6
Continuous
 62
     7
370
    25
100
AcDbLine
 10
3.8041898093
 20
12.0617075616
 30
0.0
 11
3.6367912016
 21
12.3007775494
 31
0.0
  0
LINE
  5
40C
330
1B
100
AcDbEntity
 67
     1
  8
0
  6
Continuous
 62
     7
370
    25
100
AcDbLine
 10
6.6892487246
 20
11.5182777938
 30
0.0
 11
4.1485027353
 21
11.8527733491
 31
0.0
  0
LINE
  5
40D
330
1B
100
AcDbEntity
 67
     1
  8
0
  6
Continuous
 62
     7
370
    25
100
AcDbLine
 10
6.7979329506
 20
11.3943471862
 30
0.0
 11
6.7979329506
 21
10.3470281065
 31
0.0
  0
LINE
  5
40E
330
1B
100
AcDbEntity
 67
     1
  8
0
  6
Continuous
 62
     7
370
    25
100
AcDbLine
 10
6.0484261269
 20
10.7769376463
 30
0.0
 11
6.0484261269
 21
10.9644376463
 31
0.0
  0
LINE
  5
40F
330
1B
100
AcDbEntity
 67
     1
  8
0
  6
Continuous
 62
     7
370
    25
100
AcDbLine
 10
5.9234261269
 20
11.0894376463
 30
0.0
 11
4.1724397743
 21
11.0894376463
 31
0.0
  0
LINE
  5
410
330
1B
100
AcDbEntity
 67
     1
  8
0
  6
Continuous
 62
     7
370
    25
100
AcDbLine
 10
4.0474397743
 20
10.9644376463
 30
0.0
 11
4.0474397743
 21
10.7769376463
 31
0.0
  0
LINE
  5
411
330
1B
100
AcDbEntity
 67
     1
  8
0
  6
Continuous
 62
     7
370
    25
100
AcDbLine
 10
4.1724397743
 20
10.6519376463
 30
0.0
 11
5.9234261269
 21
10.6519376463
 31
0.0
  0
LINE
  5
412
330
1B
100
AcDbEntity
 67
     1
  8
0
  6
Continuous
 62
     7
370
    25
100
AcDbLine
 10
1.8951771654
 20
11.3927911716
 30
0.0
 11
1.0201771654
 21
11.3927911716
 31
0.0
  0
LINE
  5
413
330
1B
100
AcDbEntity
 67
     1
  8
0
  6
Continuous
 62
     7
370
    25
100
AcDbLine
 10
0.7701771654
 20
11.1427911716
 30
0.0
 11
0.7701771654
 21
9.7297903684
 31
0.0
  0
LINE
  5
414
330
1B
100
AcDbEntity
 67
     1
  8
0
  6
Continuous
 62
     7
370
    25
100
AcDbLine
 10
1.0201771654
 20
9.4797903684
 30
0.0
 11
1.8951771654
 21
9.4797903684
 31
0.0
  0
LINE
  5
415
330
1B
100
AcDbEntity
 67
     1
  8
0
  6
Continuous
 62
     7
370
    25
100
AcDbLine
 10
2.1451771654
 20
9.7297903684
 30
0.0
 11
2.1451771654
 21
11.1427911716
 31
0.0
  0
LINE
  5
416
330
1B
100
AcDbEntity
 67
     1
  8
0
  6
Continuous
 62
     7
370
    25
100
AcDbLine
 10
2.3951771654
 20
12.2689694517
 30
0.0
 11
0.5201771654
 21
12.2689694517
 31
0.0
  0
LINE
  5
417
330
1B
100
AcDbEntity
 67
     1
  8
0
  6
Continuous
 62
     7
370
    25
100
AcDbLine
 10
2.3951771654
 20
10.3208020771
 30
0.0
 11
2.3951771654
 21
12.2689694517
 31
0.0
  0
LINE
  5
418
330
1B
100
AcDbEntity
 67
     1
  8
0
  6
Continuous
 62
     7
370
    25
100
AcDbLine
 10
2.5403543307
 20
9.2297903684
 30
0.0
 11
0.375
 21
9.2297903684
 31
0.0
  0
LINE
  5
419
330
1B
100
AcDbEntity
 67
     1
  8
0
  6
Continuous
 62
     7
370
    25
100
AcDbLine
 10
0.5201771654
 20
12.2689694517
 30
0.0
 11
0.5201771654
 21
10.3208020771
 31
0.0
  0
ARC
  5
41A
330
1B
100
AcDbEntity
 67
     1
  8
0
  6
Continuous
 62
     7
370
    25
100
AcDbCircle
 10
3.0
 20
13.5064694517
 30
0.0
 40
0.3125000000000018
100
AcDbArc
 50
270.0
 51
90.0
  0
ARC
  5
41B
330
1B
100
AcDbEntity
 67
     1
  8
0
  6
Continuous
 62
     7
370
    25
100
AcDbCircle
 10
6.4625
 20
13.5064694517
 30
0.0
 40
0.3125000000000018
100
AcDbArc
 50
270.0
 51
90.0
  0
ARC
  5
41C
330
1B
100
AcDbEntity
 67
     1
  8
0
  6
Continuous
 62
     7
370
    25
100
AcDbCircle
 10
3.0
 20
12.7314694517
 30
0.0
 40
0.3125000000000018
100
AcDbArc
 50
270.0
 51
90.0
  0
ARC
  5
41D
330
1B
100
AcDbEntity
 67
     1
  8
0
  6
Continuous
 62
     7
370
    25
100
AcDbCircle
 10
8.5
 20
5.405
 30
0.0
 40
0.2500000000000036
100
AcDbArc
 50
180.0
 51
270.0
  0
ARC
  5
41E
330
1B
100
AcDbEntity
 67
     1
  8
0
  6
Continuous
 62
     7
370
    25
100
AcDbCircle
 10
8.5
 20
6.155
 30
0.0
 40
0.2500000000000124
100
AcDbArc
 50
90.0
 51
180.0
  0
ARC
  5
41F
330
1B
100
AcDbEntity
 67
     1
  8
0
  6
Continuous
 62
     7
370
    25
100
AcDbCircle
 10
9.6875
 20
6.3146980585
 30
0.0
 40
0.2499999999999964
100
AcDbArc
 50
0.0
 51
90.0
  0
ARC
  5
420
330
1B
100
AcDbEntity
 67
     1
  8
0
  6
Continuous
 62
     7
370
    25
100
AcDbCircle
 10
9.6875
 20
5.5646980585
 30
0.0
 40
0.2499999999999964
100
AcDbArc
 50
270.0
 51
360.0
  0
ARC
  5
421
330
1B
100
AcDbEntity
 67
     1
  8
0
  6
Continuous
 62
     7
370
    25
100
AcDbCircle
 10
6.45
 20
0.5
 30
0.0
 40
0.5000000000000036
100
AcDbArc
 50
180.0
 51
270.0
  0
ARC
  5
422
330
1B
100
AcDbEntity
 67
     1
  8
0
  6
Continuous
 62
     7
370
    25
100
AcDbCircle
 10
6.45
 20
5.5
 30
0.0
 40
0.4999999999999956
100
AcDbArc
 50
90.0
 51
180.0
  0
ARC
  5
423
330
1B
100
AcDbEntity
 67
     1
  8
0
  6
Continuous
 62
     7
370
    25
100
AcDbCircle
 10
4.15
 20
0.5
 30
0.0
 40
0.5000000000000022
100
AcDbArc
 50
180.0
 51
270.0
  0
ARC
  5
424
330
1B
100
AcDbEntity
 67
     1
  8
0
  6
Continuous
 62
     7
370
    25
100
AcDbCircle
 10
4.15
 20
5.5
 30
0.0
 40
0.4999999999999964
100
AcDbArc
 50
90.0
 51
180.0
  0
ARC
  5
425
330
1B
100
AcDbEntity
 67
     1
  8
0
  6
Continuous
 62
     7
370
    25
100
AcDbCircle
 10
9.625
 20
3.2788935804
 30
0.0
 40
0.3750000000000036
100
AcDbArc
 50
0.0
 51
180.0
  0
ARC
  5
426
330
1B
100
AcDbEntity
 67
     1
  8
0
  6
Continuous
 62
     7
370
    25
100
AcDbCircle
 10
9.625
 20
4.7896980585
 30
0.0
 40
0.3750000000000036
100
AcDbArc
 50
0.0
 51
180.0
  0
ARC
  5
427
330
1B
100
AcDbEntity
 67
     1
  8
0
  6
Continuous
 62
     7
370
    25
100
AcDbCircle
 10
8.625
 20
2.905
 30
0.0
 40
0.3750000000000071
100
AcDbArc
 50
0.0
 51
180.0
  0
ARC
  5
428
330
1B
100
AcDbEntity
 67
     1
  8
0
  6
Continuous
 62
     7
370
    25
100
AcDbCircle
 10
8.625
 20
4.63
 30
0.0
 40
0.3750000000000089
100
AcDbArc
 50
0.0
 51
180.0
  0
ARC
  5
429
330
1B
100
AcDbEntity
 67
     1
  8
0
  6
Continuous
 62
     7
370
    25
100
AcDbCircle
 10
5.5121707614
 20
6.9374015748
 30
0.0
 40
0.4330708661417368
100
AcDbArc
 50
287.3414428028
 51
72.6585571972
  0
ARC
  5
42A
330
1B
100
AcDbEntity
 67
     1
  8
0
  6
Continuous
 62
     7
370
    25
100
AcDbCircle
 10
5.5121707614
 20
6.9374015748
 30
0.0
 40
0.4330708661417294
100
AcDbArc
 50
107.3414428028
 51
252.6585571972
  0
ARC
  5
42B
330
1B
100
AcDbEntity
 67
     1
  8
0
  6
Continuous
 62
     7
370
    25
100
AcDbCircle
 10
5.5121707614
 20
8.6622047244
 30
0.0
 40
0.4330708661417335
100
AcDbArc
 50
107.3414428028
 51
252.6585571972
  0
ARC
  5
42C
330
1B
100
AcDbEntity
 67
     1
  8
0
  6
Continuous
 62
     7
370
    25
100
AcDbCircle
 10
5.5121707614
 20
8.6622047244
 30
0.0
 40
0.4330708661417312
100
AcDbArc
 50
287.3414428028
 51
72.6585571972
  0
ARC
  5
42D
330
1B
100
AcDbEntity
 67
     1
  8
0
  6
Continuous
 62
     7
370
    25
100
AcDbCircle
 10
8.625
 20
1.18
 30
0.0
 40
0.375
100
AcDbArc
 50
0.0
 51
180.0
  0
ARC
  5
42E
330
1B
100
AcDbEntity
 67
     1
  8
0
  6
Continuous
 62
     7
370
    25
100
AcDbCircle
 10
2.125
 20
4.6412076912
 30
0.0
 40
0.1285000000000007
100
AcDbArc
 50
0.0
 51
180.0
  0
ARC
  5
42F
330
1B
100
AcDbEntity
 67
     1
  8
0
  6
Continuous
 62
     7
370
    25
100
AcDbCircle
 10
2.125
 20
4.3912076912
 30
0.0
 40
0.1285000000000025
100
AcDbArc
 50
180.0
 51
0.0
  0
ARC
  5
430
330
1B
100
AcDbEntity
 67
     1
  8
0
  6
Continuous
 62
     7
370
    25
100
AcDbCircle
 10
2.125
 20
5.9502628093
 30
0.0
 40
0.1284999999999985
100
AcDbArc
 50
180.0
 51
360.0
  0
ARC
  5
431
330
1B
100
AcDbEntity
 67
     1
  8
0
  6
Continuous
 62
     7
370
    25
100
AcDbCircle
 10
2.125
 20
6.2002628093
 30
0.0
 40
0.1284999999999989
100
AcDbArc
 50
0.0
 51
180.0
  0
ARC
  5
432
330
1B
100
AcDbEntity
 67
     1
  8
0
  6
Continuous
 62
     7
370
    25
100
AcDbCircle
 10
2.125
 20
7.2002628093
 30
0.0
 40
0.1284999999999976
100
AcDbArc
 50
0.0
 51
180.0
  0
ARC
  5
433
330
1B
100
AcDbEntity
 67
     1
  8
0
  6
Continuous
 62
     7
370
    25
100
AcDbCircle
 10
2.125
 20
6.9502628093
 30
0.0
 40
0.1285000000000018
100
AcDbArc
 50
180.0
 51
0.0
  0
ARC
  5
434
330
1B
100
AcDbEntity
 67
     1
  8
0
  6
Continuous
 62
     7
370
    25
100
AcDbCircle
 10
0.5
 20
5.2957352503
 30
0.0
 40
0.2374015748031497
100
AcDbArc
 50
205.5954827879
 51
334.4045172121
  0
ARC
  5
435
330
1B
100
AcDbEntity
 67
     1
  8
0
  6
Continuous
 62
     7
370
    25
100
AcDbCircle
 10
0.5
 20
5.2957352503
 30
0.0
 40
0.2374015748031486
100
AcDbArc
 50
25.5954827879
 51
154.4045172121
  0
ARC
  5
436
330
1B
100
AcDbEntity
 67
     1
  8
0
  6
Continuous
 62
     7
370
    25
100
AcDbCircle
 10
0.5
 20
7.3547903684
 30
0.0
 40
0.2374015748031416
100
AcDbArc
 50
205.5954827879
 51
334.4045172121
  0
ARC
  5
437
330
1B
100
AcDbEntity
 67
     1
  8
0
  6
Continuous
 62
     7
370
    25
100
AcDbCircle
 10
0.5
 20
7.3547903684
 30
0.0
 40
0.2374015748031477
100
AcDbArc
 50
25.5954827879
 51
154.4045172121
  0
ARC
  5
438
330
1B
100
AcDbEntity
 67
     1
  8
0
  6
Continuous
 62
     7
370
    25
100
AcDbCircle
 10
0.5
 20
8.3547903684
 30
0.0
 40
0.2450000000000227
100
AcDbArc
 50
204.7472502324
 51
335.2527497676
  0
ARC
  5
439
330
1B
100
AcDbEntity
 67
     1
  8
0
  6
Continuous
 62
     7
370
    25
100
AcDbCircle
 10
0.5
 20
8.3547903684
 30
0.0
 40
0.2450000000000192
100
AcDbArc
 50
24.7472502324
 51
155.2527497676
  0
ARC
  5
43A
330
1B
100
AcDbEntity
 67
     1
  8
0
  6
Continuous
 62
     7
370
    25
100
AcDbCircle
 10
2.125
 20
8.5093179274
 30
0.0
 40
0.1285000000000021
100
AcDbArc
 50
180.0
 51
0.0
  0
ARC
  5
43B
330
1B
100
AcDbEntity
 67
     1
  8
0
  6
Continuous
 62
     7
370
    25
100
AcDbCircle
 10
2.125
 20
8.7593179274
 30
0.0
 40
0.1285000000000029
100
AcDbArc
 50
0.0
 51
180.0
  0
ARC
  5
43C
330
1B
100
AcDbEntity
 67
     1
  8
0
  6
Continuous
 62
     7
370
    25
100
AcDbCircle
 10
2.125
 20
7.8547903684
 30
0.0
 40
1.225
100
AcDbArc
 50
0.0
 51
90.0
  0
ARC
  5
43D
330
1B
100
AcDbEntity
 67
     1
  8
0
  6
Continuous
 62
     7
370
    25
100
AcDbCircle
 10
0.375
 20
3.1125
 30
0.0
 40
0.3749999999999991
100
AcDbArc
 50
90.0
 51
180.0
  0
ARC
  5
43E
330
1B
100
AcDbEntity
 67
     1
  8
0
  6
Continuous
 62
     7
370
    25
100
AcDbCircle
 10
3.125
 20
3.1125
 30
0.0
 40
0.3750000000000004
100
AcDbArc
 50
0.0
 51
90.0
  0
ARC
  5
43F
330
1B
100
AcDbEntity
 67
     1
  8
0
  6
Continuous
 62
     7
370
    25
100
AcDbCircle
 10
3.125
 20
1.8375
 30
0.0
 40
0.3750000000000004
100
AcDbArc
 50
0.0
 51
90.0
  0
ARC
  5
440
330
1B
100
AcDbEntity
 67
     1
  8
0
  6
Continuous
 62
     7
370
    25
100
AcDbCircle
 10
0.375
 20
1.8375
 30
0.0
 40
0.3749999999999989
100
AcDbArc
 50
90.0
 51
180.0
  0
ARC
  5
441
330
1B
100
AcDbEntity
 67
     1
  8
0
  6
Continuous
 62
     7
370
    25
100
AcDbCircle
 10
1.1875
 20
0.625
 30
0.0
 40
0.3125000000000009
100
AcDbArc
 50
0.0
 51
90.0
  0
ARC
  5
442
330
1B
100
AcDbEntity
 67
     1
  8
0
  6
Continuous
 62
     7
370
    25
100
AcDbCircle
 10
0.3125
 20
0.625
 30
0.0
 40
0.3124999999999993
100
AcDbArc
 50
90.0
 51
180.0
  0
ARC
  5
443
330
1B
100
AcDbEntity
 67
     1
  8
0
  6
Continuous
 62
     7
370
    25
100
AcDbCircle
 10
2.9375
 20
0.625
 30
0.0
 40
0.3125000000000018
100
AcDbArc
 50
0.0
 51
90.0
  0
ARC
  5
444
330
1B
100
AcDbEntity
 67
     1
  8
0
  6
Continuous
 62
     7
370
    25
100
AcDbCircle
 10
2.0625
 20
0.625
 30
0.0
 40
0.3124999999999996
100
AcDbArc
 50
90.0
 51
180.0
  0
ARC
  5
445
330
1B
100
AcDbEntity
 67
     1
  8
0
  6
Continuous
 62
     7
370
    25
100
AcDbCircle
 10
6.3061304813
 20
12.8934083113
 30
0.0
 40
0.1249999999999973
100
AcDbArc
 50
97.5
 51
180.0
  0
ARC
  5
446
330
1B
100
AcDbEntity
 67
     1
  8
0
  6
Continuous
 62
     7
370
    25
100
AcDbCircle
 10
8.7652976005
 20
13.8475569049
 30
0.0
 40
0.4999999999999317
100
AcDbArc
 50
277.5
 51
325.0
  0
ARC
  5
447
330
1B
100
AcDbEntity
 67
     1
  8
0
  6
Continuous
 62
     7
370
    25
100
AcDbCircle
 10
9.3934692331
 20
13.7639901473
 30
0.0
 40
0.0625000000000043
100
AcDbArc
 50
13.1896851042
 51
145.0
  0
ARC
  5
448
330
1B
100
AcDbEntity
 67
     1
  8
0
  6
Continuous
 62
     7
370
    25
100
AcDbCircle
 10
9.9411304813
 20
13.8923389189
 30
0.0
 40
0.4999999999999778
100
AcDbArc
 50
193.1896851042
 51
269.5858459948
  0
ARC
  5
449
330
1B
100
AcDbEntity
 67
     1
  8
0
  6
Continuous
 62
     7
370
    25
100
AcDbCircle
 10
9.9370645693
 20
13.3298536139
 30
0.0
 40
0.0624999999999883
100
AcDbArc
 50
317.775531099
 51
89.5858459948
  0
ARC
  5
44A
330
1B
100
AcDbEntity
 67
     1
  8
0
  6
Continuous
 62
     7
370
    25
100
AcDbCircle
 10
9.7436304813
 20
12.930706842
 30
0.0
 40
0.0625000000000369
100
AcDbArc
 50
137.775531099
 51
180.0
  0
ARC
  5
44B
330
1B
100
AcDbEntity
 67
     1
  8
0
  6
Continuous
 62
     7
370
    25
100
AcDbCircle
 10
9.7436304813
 20
11.8087907009
 30
0.0
 40
0.0625000000000348
100
AcDbArc
 50
180.0
 51
222.224468901
  0
ARC
  5
44C
330
1B
100
AcDbEntity
 67
     1
  8
0
  6
Continuous
 62
     7
370
    25
100
AcDbCircle
 10
9.9370645693
 20
11.4096439289
 30
0.0
 40
0.0625000000000079
100
AcDbArc
 50
270.4141540052
 51
42.224468901
  0
ARC
  5
44D
330
1B
100
AcDbEntity
 67
     1
  8
0
  6
Continuous
 62
     7
370
    25
100
AcDbCircle
 10
9.9411304813
 20
10.8471586239
 30
0.0
 40
0.4999999999999471
100
AcDbArc
 50
90.4141540052
 51
166.8103148958
  0
ARC
  5
44E
330
1B
100
AcDbEntity
 67
     1
  8
0
  6
Continuous
 62
     7
370
    25
100
AcDbCircle
 10
9.3934692331
 20
10.9755073956
 30
0.0
 40
0.0624999999999985
100
AcDbArc
 50
215.0
 51
346.8103148958
  0
ARC
  5
44F
330
1B
100
AcDbEntity
 67
     1
  8
0
  6
Continuous
 62
     7
370
    25
100
AcDbCircle
 10
8.7652976005
 20
10.891940638
 30
0.0
 40
0.5000000000000419
100
AcDbArc
 50
35.0
 51
82.5
  0
ARC
  5
450
330
1B
100
AcDbEntity
 67
     1
  8
0
  6
Continuous
 62
     7
370
    25
100
AcDbCircle
 10
6.3061304813
 20
11.8460892316
 30
0.0
 40
0.1249999999999831
100
AcDbArc
 50
180.0
 51
262.5
  0
ARC
  5
451
330
1B
100
AcDbEntity
 67
     1
  8
0
  6
Continuous
 62
     7
370
    25
100
AcDbCircle
 10
7.055637305
 20
12.4634987714
 30
0.0
 40
0.125000000000016
100
AcDbArc
 50
90.0
 51
180.0
  0
ARC
  5
452
330
1B
100
AcDbEntity
 67
     1
  8
0
  6
Continuous
 62
     7
370
    25
100
AcDbCircle
 10
7.055637305
 20
12.2759987714
 30
0.0
 40
0.124999999999992
100
AcDbArc
 50
180.0
 51
270.0
  0
ARC
  5
453
330
1B
100
AcDbEntity
 67
     1
  8
0
  6
Continuous
 62
     7
370
    25
100
AcDbCircle
 10
8.8066236577
 20
12.2759987714
 30
0.0
 40
0.1249999999999947
100
AcDbArc
 50
270.0
 51
0.0
  0
ARC
  5
454
330
1B
100
AcDbEntity
 67
     1
  8
0
  6
Continuous
 62
     7
370
    25
100
AcDbCircle
 10
8.8066236577
 20
12.4634987714
 30
0.0
 40
0.1250000000000053
100
AcDbArc
 50
360.0
 51
90.0
  0
ARC
  5
455
330
1B
100
AcDbEntity
 67
     1
  8
0
  6
Continuous
 62
     7
370
    25
100
AcDbCircle
 10
9.2292166947
 20
10.2771980585
 30
0.0
 40
0.0625000000000195
100
AcDbArc
 50
270.0
 51
312.224468901
  0
ARC
  5
456
330
1B
100
AcDbEntity
 67
     1
  8
0
  6
Continuous
 62
     7
370
    25
100
AcDbCircle
 10
9.6283634667
 20
10.4706321464
 30
0.0
 40
0.0625000000000077
100
AcDbArc
 50
0.4141540052
 51
132.224468901
  0
ARC
  5
457
330
1B
100
AcDbEntity
 67
     1
  8
0
  6
Continuous
 62
     7
370
    25
100
AcDbCircle
 10
10.1908487717
 20
10.4746980585
 30
0.0
 40
0.4999999999999791
100
AcDbArc
 50
180.4141540052
 51
256.8103148958
  0
ARC
  5
458
330
1B
100
AcDbEntity
 67
     1
  8
0
  6
Continuous
 62
     7
370
    25
100
AcDbCircle
 10
10.0625
 20
9.9270368102
 30
0.0
 40
0.0625000000000013
100
AcDbArc
 50
305.0
 51
76.8103148958
  0
ARC
  5
459
330
1B
100
AcDbEntity
 67
     1
  8
0
  6
Continuous
 62
     7
370
    25
100
AcDbCircle
 10
10.1460667576
 20
9.2988651777
 30
0.0
 40
0.4999999999999222
100
AcDbArc
 50
125.0
 51
172.5
  0
ARC
  5
45A
330
1B
100
AcDbEntity
 67
     1
  8
0
  6
Continuous
 62
     7
370
    25
100
AcDbCircle
 10
9.191918164
 20
6.8396980585
 30
0.0
 40
0.1249999999999756
100
AcDbArc
 50
270.0
 51
352.5
  0
ARC
  5
45B
330
1B
100
AcDbEntity
 67
     1
  8
0
  6
Continuous
 62
     7
370
    25
100
AcDbCircle
 10
8.1445990843
 20
6.8396980585
 30
0.0
 40
0.1250000000000366
100
AcDbArc
 50
187.5
 51
270.0
  0
ARC
  5
45C
330
1B
100
AcDbEntity
 67
     1
  8
0
  6
Continuous
 62
     7
370
    25
100
AcDbCircle
 10
7.1904504907
 20
9.2988651777
 30
0.0
 40
0.49999999999991
100
AcDbArc
 50
7.5
 51
55.0
  0
ARC
  5
45D
330
1B
100
AcDbEntity
 67
     1
  8
0
  6
Continuous
 62
     7
370
    25
100
AcDbCircle
 10
7.2740172483
 20
9.9270368102
 30
0.0
 40
0.0624999999999979
100
AcDbArc
 50
103.1896851042
 51
235.0
  0
ARC
  5
45E
330
1B
100
AcDbEntity
 67
     1
  8
0
  6
Continuous
 62
     7
370
    25
100
AcDbCircle
 10
7.1456684766
 20
10.4746980585
 30
0.0
 40
0.4999999999999705
100
AcDbArc
 50
283.1896851042
 51
359.5858459948
  0
ARC
  5
45F
330
1B
100
AcDbEntity
 67
     1
  8
0
  6
Continuous
 62
     7
370
    25
100
AcDbCircle
 10
7.7081537817
 20
10.4706321464
 30
0.0
 40
0.0625000000000052
100
AcDbArc
 50
47.775531099
 51
179.5858459948
  0
ARC
  5
460
330
1B
100
AcDbEntity
 67
     1
  8
0
  6
Continuous
 62
     7
370
    25
100
AcDbCircle
 10
8.1073005536
 20
10.2771980585
 30
0.0
 40
0.0624999999998676
100
AcDbArc
 50
227.775531099
 51
270.0
  0
ARC
  5
461
330
1B
100
AcDbEntity
 67
     1
  8
0
  6
Continuous
 62
     7
370
    25
100
AcDbCircle
 10
8.5745086242
 20
7.5892048822
 30
0.0
 40
0.1249999999999902
100
AcDbArc
 50
180.0
 51
270.0
  0
ARC
  5
462
330
1B
100
AcDbEntity
 67
     1
  8
0
  6
Continuous
 62
     7
370
    25
100
AcDbCircle
 10
8.7620086242
 20
7.5892048822
 30
0.0
 40
0.1250000000000178
100
AcDbArc
 50
270.0
 51
360.0
  0
ARC
  5
463
330
1B
100
AcDbEntity
 67
     1
  8
0
  6
Continuous
 62
     7
370
    25
100
AcDbCircle
 10
8.7620086242
 20
9.3401912348
 30
0.0
 40
0.124999999999984
100
AcDbArc
 50
360.0
 51
90.0
  0
ARC
  5
464
330
1B
100
AcDbEntity
 67
     1
  8
0
  6
Continuous
 62
     7
370
    25
100
AcDbCircle
 10
8.5745086242
 20
9.3401912348
 30
0.0
 40
0.1249999999999964
100
AcDbArc
 50
90.0
 51
180.0
  0
ARC
  5
465
330
1B
100
AcDbEntity
 67
     1
  8
0
  6
Continuous
 62
     7
370
    25
100
AcDbCircle
 10
6.6729329506
 20
10.3470281065
 30
0.0
 40
0.1250000000000053
100
AcDbArc
 50
277.5
 51
0.0
  0
ARC
  5
466
330
1B
100
AcDbEntity
 67
     1
  8
0
  6
Continuous
 62
     7
370
    25
100
AcDbCircle
 10
4.2137658314
 20
9.3928795129
 30
0.0
 40
0.4999999999999394
100
AcDbArc
 50
97.5
 51
145.0
  0
ARC
  5
467
330
1B
100
AcDbEntity
 67
     1
  8
0
  6
Continuous
 62
     7
370
    25
100
AcDbCircle
 10
3.5855941988
 20
9.4764462705
 30
0.0
 40
0.0625000000000068
100
AcDbArc
 50
193.1896851042
 51
325.0
  0
ARC
  5
468
330
1B
100
AcDbEntity
 67
     1
  8
0
  6
Continuous
 62
     7
370
    25
100
AcDbCircle
 10
3.0379329506
 20
9.3480974988
 30
0.0
 40
0.4999999999999796
100
AcDbArc
 50
13.1896851042
 51
89.5858459948
  0
ARC
  5
469
330
1B
100
AcDbEntity
 67
     1
  8
0
  6
Continuous
 62
     7
370
    25
100
AcDbCircle
 10
3.0419988626
 20
9.9105828038
 30
0.0
 40
0.0624999999999892
100
AcDbArc
 50
137.775531099
 51
269.5858459948
  0
ARC
  5
46A
330
1B
100
AcDbEntity
 67
     1
  8
0
  6
Continuous
 62
     7
370
    25
100
AcDbCircle
 10
3.2354329506
 20
10.3097295757
 30
0.0
 40
0.0625000000000326
100
AcDbArc
 50
317.775531099
 51
360.0
  0
ARC
  5
46B
330
1B
100
AcDbEntity
 67
     1
  8
0
  6
Continuous
 62
     7
370
    25
100
AcDbCircle
 10
3.2354329506
 20
11.4316457169
 30
0.0
 40
0.0625000000000111
100
AcDbArc
 50
0.0
 51
42.224468901
  0
ARC
  5
46C
330
1B
100
AcDbEntity
 67
     1
  8
0
  6
Continuous
 62
     7
370
    25
100
AcDbCircle
 10
3.0419988626
 20
11.8307924888
 30
0.0
 40
0.0625000000000041
100
AcDbArc
 50
90.4141540052
 51
222.224468901
  0
ARC
  5
46D
330
1B
100
AcDbEntity
 67
     1
  8
0
  6
Continuous
 62
     7
370
    25
100
AcDbCircle
 10
3.0379329506
 20
12.3932777938
 30
0.0
 40
0.4999999999999601
100
AcDbArc
 50
270.4141540052
 51
346.8103148958
  0
ARC
  5
46E
330
1B
100
AcDbEntity
 67
     1
  8
0
  6
Continuous
 62
     7
370
    25
100
AcDbCircle
 10
3.5855941988
 20
12.2649290222
 30
0.0
 40
0.0624999999999984
100
AcDbArc
 50
35.0
 51
166.8103148958
  0
ARC
  5
46F
330
1B
100
AcDbEntity
 67
     1
  8
0
  6
Continuous
 62
     7
370
    25
100
AcDbCircle
 10
4.2137658314
 20
12.3484957797
 30
0.0
 40
0.5000000000000744
100
AcDbArc
 50
215.0
 51
262.5
  0
ARC
  5
470
330
1B
100
AcDbEntity
 67
     1
  8
0
  6
Continuous
 62
     7
370
    25
100
AcDbCircle
 10
6.6729329506
 20
11.3943471862
 30
0.0
 40
0.1249999999999813
100
AcDbArc
 50
360.0
 51
82.5
  0
ARC
  5
471
330
1B
100
AcDbEntity
 67
     1
  8
0
  6
Continuous
 62
     7
370
    25
100
AcDbCircle
 10
5.9234261269
 20
10.7769376463
 30
0.0
 40
0.1250000000000044
100
AcDbArc
 50
270.0
 51
360.0
  0
ARC
  5
472
330
1B
100
AcDbEntity
 67
     1
  8
0
  6
Continuous
 62
     7
370
    25
100
AcDbCircle
 10
5.9234261269
 20
10.9644376463
 30
0.0
 40
0.1249999999999822
100
AcDbArc
 50
360.0
 51
90.0
  0
ARC
  5
473
330
1B
100
AcDbEntity
 67
     1
  8
0
  6
Continuous
 62
     7
370
    25
100
AcDbCircle
 10
4.1724397743
 20
10.9644376463
 30
0.0
 40
0.1249999999999947
100
AcDbArc
 50
90.0
 51
180.0
  0
ARC
  5
474
330
1B
100
AcDbEntity
 67
     1
  8
0
  6
Continuous
 62
     7
370
    25
100
AcDbCircle
 10
4.1724397743
 20
10.7769376463
 30
0.0
 40
0.1250000000000071
100
AcDbArc
 50
180.0
 51
270.0
  0
ARC
  5
475
330
1B
100
AcDbEntity
 67
     1
  8
0
  6
Continuous
 62
     7
370
    25
100
AcDbCircle
 10
1.0201771654
 20
11.1427911716
 30
0.0
 40
0.2500000000000039
100
AcDbArc
 50
90.0
 51
180.0
  0
ARC
  5
476
330
1B
100
AcDbEntity
 67
     1
  8
0
  6
Continuous
 62
     7
370
    25
100
AcDbCircle
 10
1.0201771654
 20
9.7297903684
 30
0.0
 40
0.2499999999999929
100
AcDbArc
 50
180.0
 51
270.0
  0
ARC
  5
477
330
1B
100
AcDbEntity
 67
     1
  8
0
  6
Continuous
 62
     7
370
    25
100
AcDbCircle
 10
1.8951771654
 20
9.7297903684
 30
0.0
 40
0.2500000000000053
100
AcDbArc
 50
270.0
 51
0.0
  0
ARC
  5
478
330
1B
100
AcDbEntity
 67
     1
  8
0
  6
Continuous
 62
     7
370
    25
100
AcDbCircle
 10
1.8951771654
 20
11.1427911716
 30
0.0
 40
0.2499999999999984
100
AcDbArc
 50
0.0
 51
90.0
  0
ARC
  5
479
330
1B
100
AcDbEntity
 67
     1
  8
0
  6
Continuous
 62
     7
370
    25
100
AcDbCircle
 10
2.773052438
 20
10.3208020771
 30
0.0
 40
0.377875272606524
100
AcDbArc
 50
180.0
 51
251.9962507988
  0
ARC
  5
47A
330
1B
100
AcDbEntity
 67
     1
  8
0
  6
Continuous
 62
     7
370
    25
100
AcDbCircle
 10
2.5403543307
 20
9.6047903684
 30
0.0
 40
0.3750000000000036
100
AcDbArc
 50
270.0
 51
71.9962507988
  0
ARC
  5
47B
330
1B
100
AcDbEntity
 67
     1
  8
0
  6
Continuous
 62
     7
370
    25
100
AcDbCircle
 10
0.375
 20
9.6047903684
 30
0.0
 40
0.3750000000000022
100
AcDbArc
 50
108.0037492012
 51
270.0
  0
ARC
  5
47C
330
1B
100
AcDbEntity
 67
     1
  8
0
  6
Continuous
 62
     7
370
    25
100
AcDbCircle
 10
0.1423018927
 20
10.3208020771
 30
0.0
 40
0.3778752726065292
100
AcDbArc
 50
288.0037492012
 51
0.0
  0
VIEWPORT
  5
47D
330
1B
100
AcDbEntity
 67
     1
  8
0
100
AcDbViewport
 10
0.0
 20
0.0
 30
0.0
 40
8.4
 41
6.4
 68
     1
 69
     1
 12
5.0625
 22
6.9132450736
 13
0.0
 23
0.0
 14
0.5
 24
0.5
 15
0.5
 25
0.5
 16
0.0
 26
0.0
 36
1.0
 17
0.0
 27
0.0
 37
0.0
 42
50.0
 43
0.0
 44
0.0
 45
14.1030199502
 50
0.0
 51
0.0
 72
   100
 90
   557152
  1

281
     0
 71
     1
 74
     0
110
0.0
120
0.0
130
0.0
111
1.0
121
0.0
131
0.0
112
0.0
122
1.0
132
0.0
 79
     0
146
0.0
  0
MTEXT
  5
480
330
1B
100
AcDbEntity
 67
     1
  8
0
  6
Continuous
 62
     7
100
AcDbMText
 10
0.0
 20
-0.0401404091
 30
0.0
 40
0.1903
 41
0.0
 71
     1
 72
     1
  1
SOLIDWORKS Educational Product.
  7
SLDTEXTSTYLE0
 73
     1
 44
1.0
  0
MTEXT
  5
481
330
1B
100
AcDbEntity
 67
     1
  8
0
  6
Continuous
 62
     7
100
AcDbMText
 10
0.0
 20
-0.3255904091
 30
0.0
 40
0.1903
 41
0.0
 71
     1
 72
     1
  1
For Instructional Use Only.
  7
SLDTEXTSTYLE0
 73
     1
 44
1.0
  0
ENDSEC
  0
SECTION
  2
OBJECTS
  0
DICTIONARY
  5
C
330
0
100
AcDbDictionary
281
     1
  3
ACAD_GROUP
350
D
  3
ACAD_LAYOUT
350
1A
  3
ACAD_MLINESTYLE
350
17
  3
ACAD_PLOTSETTINGS
350
19
  3
ACAD_PLOTSTYLENAME
350
E
  3
ACAD_SCALELIST
350
47
  3
DWGPROPS
350
484
  0
DICTIONARY
  5
D
102
{ACAD_REACTORS
330
C
102
}
330
C
100
AcDbDictionary
281
     1
  0
DICTIONARY
  5
1A
102
{ACAD_REACTORS
330
C
102
}
330
C
100
AcDbDictionary
281
     1
  3
_Top
350
1E
  3
Layout2
350
26
  3
Model
350
22
  0
DICTIONARY
  5
17
102
{ACAD_REACTORS
330
C
102
}
330
C
100
AcDbDictionary
281
     1
  3
Standard
350
18
  0
DICTIONARY
  5
19
102
{ACAD_REACTORS
330
C
102
}
330
C
100
AcDbDictionary
281
     1
  0
ACDBDICTIONARYWDFLT
  5
E
102
{ACAD_REACTORS
330
C
102
}
330
C
100
AcDbDictionary
281
     1
  3
Normal
350
F
100
AcDbDictionaryWithDefault
340
F
  0
DICTIONARY
  5
47
102
{ACAD_REACTORS
330
C
102
}
330
C
100
AcDbDictionary
281
     1
  3
A0
350
48
  3
A1
350
49
  3
A2
350
4A
  3
A3
350
4B
  3
A4
350
4C
  3
A5
350
4D
  3
A6
350
4E
  3
A7
350
4F
  3
A8
350
50
  3
A9
350
51
  3
B1
350
52
  3
B2
350
53
  3
B3
350
54
  3
B4
350
55
  3
B5
350
56
  3
B6
350
57
  3
B7
350
58
  0
XRECORD
  5
484
102
{ACAD_REACTORS
330
C
102
}
330
C
100
AcDbXrecord
280
     1
  1
DWGPROPS COOKIE
  2

  3

  4

  6

  7

  8
ryanchung
  9

300
=
301
=
302
=
303
=
304
=
305
=
306
=
307
=
308
=
309
=
 40
0.0
 41
2460749.767235649
 42
2460749.767328368
  1

 90
        0
  0
LAYOUT
  5
1E
102
{ACAD_REACTORS
330
1A
102
}
330
1A
100
AcDbPlotSettings
  1

  2
none_device
  4
Letter_(8.50_x_11.00_Inches)
  6

 40
6.35
 41
6.35
 42
6.35001
 43
6.35001
 44
215.9
 45
279.4
 46
0.0
 47
0.0
 48
0.0
 49
0.0
140
0.0
141
0.0
142
1.0
143
1.7283113535
 70
   688
 72
     0
 73
     1
 74
     1
  7

 75
     0
147
0.5785994508
148
0.0
149
0.0000000001
100
AcDbLayout
  1
_Top
 70
     1
 71
     1
 10
-0.4320785188
 20
-0.4320778384
 11
18.5793463693
 21
14.2585686661
 12
0.0
 22
0.0
 32
0.0
 14
0.0
 24
0.0
 34
0.0
 15
10.125
 25
13.8264901473
 35
0.0
146
0.0
 13
0.0
 23
0.0
 33
0.0
 16
1.0
 26
0.0
 36
0.0
 17
0.0
 27
1.0
 37
0.0
 76
     0
330
1B
331
47D
  0
LAYOUT
  5
26
102
{ACAD_REACTORS
330
1A
102
}
330
1A
100
AcDbPlotSettings
  1

  2
none_device
  4

  6

 40
0.0
 41
0.0
 42
0.0
 43
0.0
 44
0.0
 45
0.0
 46
0.0
 47
0.0
 48
0.0
 49
0.0
140
0.0
141
0.0
142
1.0
143
1.0
 70
   688
 72
     0
 73
     0
 74
     5
  7

 75
    16
147
1.0
148
0.0
149
0.0
100
AcDbLayout
  1
Layout2
 70
     1
 71
     2
 10
0.0
 20
0.0
 11
0.0
 21
0.0
 12
0.0
 22
0.0
 32
0.0
 14
0.0
 24
0.0
 34
0.0
 15
0.0
 25
0.0
 35
0.0
146
0.0
 13
0.0
 23
0.0
 33
0.0
 16
1.0
 26
0.0
 36
0.0
 17
0.0
 27
1.0
 37
0.0
 76
     0
330
23
  0
LAYOUT
  5
22
102
{ACAD_REACTORS
330
1A
102
}
330
1A
100
AcDbPlotSettings
  1

  2
none_device
  4
ANSI_A_(11.00_x_8.50_Inches)
  6

 40
6.35
 41
19.05
 42
6.35000508
 43
19.05000254
 44
279.4
 45
215.9
 46
55.0898026475
 47
-17.9705012699
 48
0.0
 49
0.0
140
0.0
141
0.0
142
0.6086143273
143
1.0
 70
  1696
 72
     0
 73
     0
 74
     0
  7

 75
     0
147
0.5913241897
148
-39.4088153714
149
0.0
100
AcDbLayout
  1
Model
 70
     1
 71
     0
 10
0.0
 20
0.0
 11
12.0
 21
9.0
 12
0.0
 22
0.0
 32
0.0
 14
0.0
 24
0.0
 34
0.0
 15
10.125
 25
13.8264901473
 35
0.0
146
0.0
 13
0.0
 23
0.0
 33
0.0
 16
1.0
 26
0.0
 36
0.0
 17
0.0
 27
1.0
 37
0.0
 76
     0
330
1F
331
29
  0
MLINESTYLE
  5
18
102
{ACAD_REACTORS
330
17
102
}
330
17
100
AcDbMlineStyle
  2
Standard
 70
     0
  3

 62
   256
 51
90.0
 52
90.0
 71
     2
 49
0.5
 62
   256
  6
BYLAYER
 49
-0.5
 62
   256
  6
BYLAYER
  0
ACDBPLACEHOLDER
  5
F
102
{ACAD_REACTORS
330
E
102
}
330
E
  0
SCALE
  5
48
102
{ACAD_REACTORS
330
47
102
}
330
47
100
AcDbScale
 70
     0
300
1:1
140
1.0
141
1.0
290
     1
  0
SCALE
  5
49
102
{ACAD_REACTORS
330
47
102
}
330
47
100
AcDbScale
 70
     0
300
1/128" = 1'-0"
140
0.0078125
141
12.0
290
     0
  0
SCALE
  5
4A
102
{ACAD_REACTORS
330
47
102
}
330
47
100
AcDbScale
 70
     0
300
1/64" = 1'-0"
140
0.015625
141
12.0
290
     0
  0
SCALE
  5
4B
102
{ACAD_REACTORS
330
47
102
}
330
47
100
AcDbScale
 70
     0
300
1/32" = 1'-0"
140
0.03125
141
12.0
290
     0
  0
SCALE
  5
4C
102
{ACAD_REACTORS
330
47
102
}
330
47
100
AcDbScale
 70
     0
300
1/16" = 1'-0"
140
0.0625
141
12.0
290
     0
  0
SCALE
  5
4D
102
{ACAD_REACTORS
330
47
102
}
330
47
100
AcDbScale
 70
     0
300
3/32" = 1'-0"
140
0.09375
141
12.0
290
     0
  0
SCALE
  5
4E
102
{ACAD_REACTORS
330
47
102
}
330
47
100
AcDbScale
 70
     0
300
1/8" = 1'-0"
140
0.125
141
12.0
290
     0
  0
SCALE
  5
4F
102
{ACAD_REACTORS
330
47
102
}
330
47
100
AcDbScale
 70
     0
300
3/16" = 1'-0"
140
0.1875
141
12.0
290
     0
  0
SCALE
  5
50
102
{ACAD_REACTORS
330
47
102
}
330
47
100
AcDbScale
 70
     0
300
1/4" = 1'-0"
140
0.25
141
12.0
290
     0
  0
SCALE
  5
51
102
{ACAD_REACTORS
330
47
102
}
330
47
100
AcDbScale
 70
     0
300
3/8" = 1'-0"
140
0.375
141
12.0
290
     0
  0
SCALE
  5
52
102
{ACAD_REACTORS
330
47
102
}
330
47
100
AcDbScale
 70
     0
300
1/2" = 1'-0"
140
0.5
141
12.0
290
     0
  0
SCALE
  5
53
102
{ACAD_REACTORS
330
47
102
}
330
47
100
AcDbScale
 70
     0
300
3/4" = 1'-0"
140
0.75
141
12.0
290
     0
  0
SCALE
  5
54
102
{ACAD_REACTORS
330
47
102
}
330
47
100
AcDbScale
 70
     0
300
1" = 1'-0"
140
1.0
141
12.0
290
     0
  0
SCALE
  5
55
102
{ACAD_REACTORS
330
47
102
}
330
47
100
AcDbScale
 70
     0
300
1-1/2" = 1'-0"
140
1.5
141
12.0
290
     0
  0
SCALE
  5
56
102
{ACAD_REACTORS
330
47
102
}
330
47
100
AcDbScale
 70
     0
300
3" = 1'-0"
140
3.0
141
12.0
290
     0
  0
SCALE
  5
57
102
{ACAD_REACTORS
330
47
102
}
330
47
100
AcDbScale
 70
     0
300
6" = 1'-0"
140
6.0
141
12.0
290
     0
  0
SCALE
  5
58
102
{ACAD_REACTORS
330
47
102
}
330
47
100
AcDbScale
 70
     0
300
1'-0" = 1'-0"
140
12.0
141
12.0
290
     0
  0
ENDSEC
  0
EOF
