  0
SECTION
  2
HEADER
  9
$ACADVER
  1
AC1015
  9
$ACADMAINTVER
 70
     6
  9
$DWGCODEPAGE
  3
ANSI_1252
  9
$INSBASE
 10
0.0
 20
0.0
 30
0.0
  9
$EXTMIN
 10
-2.0
 20
-1.7735
 30
0.0
  9
$EXTMAX
 10
0.0
 20
4.3
 30
0.0
  9
$LIMMIN
 10
0.0
 20
0.0
  9
$LIMMAX
 10
12.0
 20
9.0
  9
$ORTHOMODE
 70
     0
  9
$REGENMODE
 70
     1
  9
$FILLMODE
 70
     1
  9
$QTEXTMODE
 70
     0
  9
$MIRRTEXT
 70
     1
  9
$LTSCALE
 40
1.0
  9
$ATTMODE
 70
     1
  9
$TEXTSIZE
 40
0.1377952756
  9
$TRACEWID
 40
0.05
  9
$TEXTSTYLE
  7
Standard
  9
$CLAYER
  8
0
  9
$CELTYPE
  6
ByLayer
  9
$CECOLOR
 62
   256
  9
$CELTSCALE
 40
1.0
  9
$DISPSILH
 70
     0
  9
$DIMSCALE
 40
1.0
  9
$DIMASZ
 40
0.13
  9
$DIMEXO
 40
0.0
  9
$DIMDLI
 40
0.38
  9
$DIMRND
 40
0.0
  9
$DIMDLE
 40
0.0
  9
$DIMEXE
 40
0.0393700787
  9
$DIMTP
 40
0.0
  9
$DIMTM
 40
0.0
  9
$DIMTXT
 40
0.1377952756
  9
$DIMCEN
 40
0.09
  9
$DIMTSZ
 40
0.0
  9
$DIMTOL
 70
     0
  9
$DIMLIM
 70
     0
  9
$DIMTIH
 70
     1
  9
$DIMTOH
 70
     1
  9
$DIMSE1
 70
     0
  9
$DIMSE2
 70
     0
  9
$DIMTAD
 70
     1
  9
$DIMZIN
 70
     1
  9
$DIMBLK
  1

  9
$DIMASO
 70
     1
  9
$DIMSHO
 70
     1
  9
$DIMPOST
  1

  9
$DIMAPOST
  1

  9
$DIMALT
 70
     0
  9
$DIMALTD
 70
     2
  9
$DIMALTF
 40
25.4
  9
$DIMLFAC
 40
1.0
  9
$DIMTOFL
 70
     0
  9
$DIMTVP
 40
0.0
  9
$DIMTIX
 70
     0
  9
$DIMSOXD
 70
     0
  9
$DIMSAH
 70
     0
  9
$DIMBLK1
  1

  9
$DIMBLK2
  1

  9
$DIMSTYLE
  2
Standard
  9
$DIMCLRD
 70
     0
  9
$DIMCLRE
 70
     0
  9
$DIMCLRT
 70
     0
  9
$DIMTFAC
 40
1.0
  9
$DIMGAP
 40
0.06
  9
$DIMJUST
 70
     0
  9
$DIMSD1
 70
     0
  9
$DIMSD2
 70
     0
  9
$DIMTOLJ
 70
     1
  9
$DIMTZIN
 70
     1
  9
$DIMALTZ
 70
     0
  9
$DIMALTTZ
 70
     0
  9
$DIMUPT
 70
     0
  9
$DIMDEC
 70
     2
  9
$DIMTDEC
 70
     2
  9
$DIMALTU
 70
     2
  9
$DIMALTTD
 70
     2
  9
$DIMTXSTY
  7
Standard
  9
$DIMAUNIT
 70
     0
  9
$DIMADEC
 70
     2
  9
$DIMALTRND
 40
0.0
  9
$DIMAZIN
 70
     0
  9
$DIMDSEP
 70
    46
  9
$DIMATFIT
 70
     3
  9
$DIMFRAC
 70
     0
  9
$DIMLDRBLK
  1

  9
$DIMLUNIT
 70
     2
  9
$DIMLWD
 70
    -2
  9
$DIMLWE
 70
    -2
  9
$DIMTMOVE
 70
     0
  9
$LUNITS
 70
     2
  9
$LUPREC
 70
     2
  9
$SKETCHINC
 40
0.1
  9
$FILLETRAD
 40
0.0
  9
$AUNITS
 70
     0
  9
$AUPREC
 70
     2
  9
$MENU
  1
.
  9
$ELEVATION
 40
0.0
  9
$PELEVATION
 40
0.0
  9
$THICKNESS
 40
0.0
  9
$LIMCHECK
 70
     0
  9
$CHAMFERA
 40
0.0
  9
$CHAMFERB
 40
0.0
  9
$CHAMFERC
 40
0.0
  9
$CHAMFERD
 40
0.0
  9
$SKPOLY
 70
     0
  9
$TDCREATE
 40
2460770.554220463
  9
$TDUCREATE
 40
2460770.762553796
  9
$TDUPDATE
 40
2460770.554335278
  9
$TDUUPDATE
 40
2460770.762668611
  9
$TDINDWG
 40
0.0000000116
  9
$TDUSRTIMER
 40
0.0000000116
  9
$USRTIMER
 70
     1
  9
$ANGBASE
 50
0.0
  9
$ANGDIR
 70
     0
  9
$PDMODE
 70
     0
  9
$PDSIZE
 40
-1.0
  9
$PLINEWID
 40
0.0
  9
$SPLFRAME
 70
     0
  9
$SPLINETYPE
 70
     6
  9
$SPLINESEGS
 70
     8
  9
$HANDSEED
  5
A9
  9
$SURFTAB1
 70
     6
  9
$SURFTAB2
 70
     6
  9
$SURFTYPE
 70
     6
  9
$SURFU
 70
     6
  9
$SURFV
 70
     6
  9
$UCSBASE
  2

  9
$UCSNAME
  2

  9
$UCSORG
 10
0.0
 20
0.0
 30
0.0
  9
$UCSXDIR
 10
1.0
 20
0.0
 30
0.0
  9
$UCSYDIR
 10
0.0
 20
1.0
 30
0.0
  9
$UCSORTHOREF
  2

  9
$UCSORTHOVIEW
 70
     0
  9
$UCSORGTOP
 10
0.0
 20
0.0
 30
0.0
  9
$UCSORGBOTTOM
 10
0.0
 20
0.0
 30
0.0
  9
$UCSORGLEFT
 10
0.0
 20
0.0
 30
0.0
  9
$UCSORGRIGHT
 10
0.0
 20
0.0
 30
0.0
  9
$UCSORGFRONT
 10
0.0
 20
0.0
 30
0.0
  9
$UCSORGBACK
 10
0.0
 20
0.0
 30
0.0
  9
$PUCSBASE
  2

  9
$PUCSNAME
  2

  9
$PUCSORG
 10
0.0
 20
0.0
 30
0.0
  9
$PUCSXDIR
 10
1.0
 20
0.0
 30
0.0
  9
$PUCSYDIR
 10
0.0
 20
1.0
 30
0.0
  9
$PUCSORTHOREF
  2

  9
$PUCSORTHOVIEW
 70
     0
  9
$PUCSORGTOP
 10
0.0
 20
0.0
 30
0.0
  9
$PUCSORGBOTTOM
 10
0.0
 20
0.0
 30
0.0
  9
$PUCSORGLEFT
 10
0.0
 20
0.0
 30
0.0
  9
$PUCSORGRIGHT
 10
0.0
 20
0.0
 30
0.0
  9
$PUCSORGFRONT
 10
0.0
 20
0.0
 30
0.0
  9
$PUCSORGBACK
 10
0.0
 20
0.0
 30
0.0
  9
$USERI1
 70
     0
  9
$USERI2
 70
     0
  9
$USERI3
 70
     0
  9
$USERI4
 70
     0
  9
$USERI5
 70
     0
  9
$USERR1
 40
0.0
  9
$USERR2
 40
0.0
  9
$USERR3
 40
0.0
  9
$USERR4
 40
0.0
  9
$USERR5
 40
0.0
  9
$WORLDVIEW
 70
     1
  9
$SHADEDGE
 70
     3
  9
$SHADEDIF
 70
    70
  9
$TILEMODE
 70
     1
  9
$MAXACTVP
 70
    64
  9
$PINSBASE
 10
0.0
 20
0.0
 30
0.0
  9
$PLIMCHECK
 70
     0
  9
$PEXTMIN
 10
1.0000000000E+20
 20
1.0000000000E+20
 30
1.0000000000E+20
  9
$PEXTMAX
 10
-1.0000000000E+20
 20
-1.0000000000E+20
 30
-1.0000000000E+20
  9
$PLIMMIN
 10
0.0
 20
0.0
  9
$PLIMMAX
 10
12.0
 20
9.0
  9
$UNITMODE
 70
     0
  9
$VISRETAIN
 70
     1
  9
$PLINEGEN
 70
     0
  9
$PSLTSCALE
 70
     1
  9
$TREEDEPTH
 70
  3020
  9
$CMLSTYLE
  2
Standard
  9
$CMLJUST
 70
     0
  9
$CMLSCALE
 40
1.0
  9
$PROXYGRAPHICS
 70
     1
  9
$MEASUREMENT
 70
     0
  9
$CELWEIGHT
370
    -1
  9
$ENDCAPS
280
     0
  9
$JOINSTYLE
280
     0
  9
$LWDISPLAY
290
     1
  9
$INSUNITS
 70
     1
  9
$HYPERLINKBASE
  1

  9
$STYLESHEET
  1

  9
$XEDIT
290
     1
  9
$CEPSNTYPE
380
     0
  9
$PSTYLEMODE
290
     1
  9
$FINGERPRINTGUID
  2
{4fc9f4e8-4b02-4741-b064-5974bf7462f6}
  9
$VERSIONGUID
  2
{FAEB1C32-E019-11D5-929B-00C0DF256EC4}
  9
$EXTNAMES
290
     1
  9
$PSVPSCALE
 40
0.0
  9
$OLESTARTUP
290
     0
  0
ENDSEC
  0
SECTION
  2
CLASSES
  0
CLASS
  1
ACDBDICTIONARYWDFLT
  2
AcDbDictionaryWithDefault
  3
ObjectDBX Classes
 90
        0
280
     0
281
     0
  0
CLASS
  1
VISUALSTYLE
  2
AcDbVisualStyle
  3
ObjectDBX Classes
 90
     4095
280
     0
281
     0
  0
CLASS
  1
MATERIAL
  2
AcDbMaterial
  3
ObjectDBX Classes
 90
     1153
280
     0
281
     0
  0
CLASS
  1
SCALE
  2
AcDbScale
  3
ObjectDBX Classes
 90
     1153
280
     0
281
     0
  0
CLASS
  1
TABLESTYLE
  2
AcDbTableStyle
  3
ObjectDBX Classes
 90
     4095
280
     0
281
     0
  0
CLASS
  1
MLEADERSTYLE
  2
AcDbMLeaderStyle
  3
ACDB_MLEADERSTYLE_CLASS
 90
     4095
280
     0
281
     0
  0
CLASS
  1
SUN
  2
AcDbSun
  3
SCENEOE
 90
     1153
280
     0
281
     0
  0
CLASS
  1
ACDBPLACEHOLDER
  2
AcDbPlaceHolder
  3
ObjectDBX Classes
 90
        0
280
     0
281
     0
  0
CLASS
  1
LAYOUT
  2
AcDbLayout
  3
ObjectDBX Classes
 90
        0
280
     0
281
     0
  0
ENDSEC
  0
SECTION
  2
TABLES
  0
TABLE
  2
VPORT
  5
8
330
0
100
AcDbSymbolTable
 70
     1
  0
VPORT
  5
29
330
8
100
AcDbSymbolTableRecord
100
AcDbViewportTableRecord
  2
*Active
 70
     0
 10
0.0
 20
0.0
 11
1.0
 21
1.0
 12
-1.0
 22
1.26325
 13
0.0
 23
0.0
 14
0.5
 24
0.5
 15
0.5
 25
0.5
 16
0.0
 26
0.0
 36
1.0
 17
0.0
 27
0.0
 37
0.0
 40
6.19497
 41
0.3292994155
 42
50.0
 43
0.0
 44
0.0
 50
0.0
 51
0.0
 71
     0
 72
   100
 73
     1
 74
     3
 75
     0
 76
     0
 77
     0
 78
     0
281
     0
 65
     1
110
0.0
120
0.0
130
0.0
111
1.0
121
0.0
131
0.0
112
0.0
122
1.0
132
0.0
 79
     0
146
0.0
  0
ENDTAB
  0
TABLE
  2
LTYPE
  5
5
330
0
100
AcDbSymbolTable
 70
     6
  0
LTYPE
  5
14
330
5
100
AcDbSymbolTableRecord
100
AcDbLinetypeTableRecord
  2
ByBlock
 70
     0
  3

 72
    65
 73
     0
 40
0.0
  0
LTYPE
  5
15
330
5
100
AcDbSymbolTableRecord
100
AcDbLinetypeTableRecord
  2
ByLayer
 70
     0
  3

 72
    65
 73
     0
 40
0.0
  0
LTYPE
  5
16
330
5
100
AcDbSymbolTableRecord
100
AcDbLinetypeTableRecord
  2
Continuous
 70
     0
  3
Solid line
 72
    65
 73
     0
 40
0.0
  0
LTYPE
  5
5E
330
5
100
AcDbSymbolTableRecord
100
AcDbLinetypeTableRecord
  2
HIDDEN
 70
     0
  3
Hidden __ __ __ __ __ __ __ __ __ __ __ __ __ __
 72
    65
 73
     2
 40
0.075
 49
0.05
 74
     0
 49
-0.025
 74
     0
  0
LTYPE
  5
5F
330
5
100
AcDbSymbolTableRecord
100
AcDbLinetypeTableRecord
  2
PHANTOM
 70
     0
  3
Phantom ______  __  __  ______  __  __  ______
 72
    65
 73
     6
 40
0.5
 49
0.25
 74
     0
 49
-0.05
 74
     0
 49
0.05
 74
     0
 49
-0.05
 74
     0
 49
0.05
 74
     0
 49
-0.05
 74
     0
  0
LTYPE
  5
60
330
5
100
AcDbSymbolTableRecord
100
AcDbLinetypeTableRecord
  2
CENTER
 70
     0
  3
Center ____ _ ____ _ ____ _ ____ _ ____ _ ____
 72
    65
 73
     4
 40
0.4
 49
0.25
 74
     0
 49
-0.05
 74
     0
 49
0.05
 74
     0
 49
-0.05
 74
     0
  0
LTYPE
  5
61
330
5
100
AcDbSymbolTableRecord
100
AcDbLinetypeTableRecord
  2
CENTERX2
 70
     0
  3
Center (2x) ________  __  ________  __  _____
 72
    65
 73
     4
 40
0.8
 49
0.5
 74
     0
 49
-0.1
 74
     0
 49
0.1
 74
     0
 49
-0.1
 74
     0
  0
LTYPE
  5
62
330
5
100
AcDbSymbolTableRecord
100
AcDbLinetypeTableRecord
  2
DOT2
 70
     0
  3
Dot (.5x) ........................................
 72
    65
 73
     2
 40
0.025
 49
0.0
 74
     0
 49
-0.025
 74
     0
  0
ENDTAB
  0
TABLE
  2
LAYER
  5
2
330
0
100
AcDbSymbolTable
 70
     1
  0
LAYER
  5
10
330
2
100
AcDbSymbolTableRecord
100
AcDbLayerTableRecord
  2
0
 70
     0
 62
     7
  6
Continuous
370
    -3
390
F
  0
ENDTAB
  0
TABLE
  2
STYLE
  5
3
330
0
100
AcDbSymbolTable
 70
     2
  0
STYLE
  5
11
330
3
100
AcDbSymbolTableRecord
100
AcDbTextStyleTableRecord
  2
Standard
 70
     0
 40
0.0
 41
1.0
 50
0.0
 71
     0
 42
0.1377952756
  3
txt
  4

  0
STYLE
  5
A5
330
3
100
AcDbSymbolTableRecord
100
AcDbTextStyleTableRecord
  2
SLDTEXTSTYLE0
 70
     0
 40
0.0
 41
0.7
 50
0.0
 71
     0
 42
0.1377952756
  3
TXT
  4

  0
ENDTAB
  0
TABLE
  2
VIEW
  5
6
330
0
100
AcDbSymbolTable
 70
     0
  0
ENDTAB
  0
TABLE
  2
UCS
  5
7
330
0
100
AcDbSymbolTable
 70
     0
  0
ENDTAB
  0
TABLE
  2
APPID
  5
9
330
0
100
AcDbSymbolTable
 70
     1
  0
APPID
  5
12
330
9
100
AcDbSymbolTableRecord
100
AcDbRegAppTableRecord
  2
ACAD
 70
     0
  0
ENDTAB
  0
TABLE
  2
DIMSTYLE
  5
A
330
0
100
AcDbSymbolTable
 70
     1
100
AcDbDimStyleTable
  0
DIMSTYLE
105
27
330
A
100
AcDbSymbolTableRecord
100
AcDbDimStyleTableRecord
  2
Standard
 70
     0
178
     0
340
11
  0
ENDTAB
  0
TABLE
  2
BLOCK_RECORD
  5
1
330
0
100
AcDbSymbolTable
 70
     1
  0
BLOCK_RECORD
  5
1F
330
1
100
AcDbSymbolTableRecord
100
AcDbBlockTableRecord
  2
*Model_Space
340
22
  0
BLOCK_RECORD
  5
1B
330
1
100
AcDbSymbolTableRecord
100
AcDbBlockTableRecord
  2
*Paper_Space
340
1E
  0
BLOCK_RECORD
  5
23
330
1
100
AcDbSymbolTableRecord
100
AcDbBlockTableRecord
  2
*Paper_Space0
340
26
  0
ENDTAB
  0
ENDSEC
  0
SECTION
  2
BLOCKS
  0
BLOCK
  5
20
330
1F
100
AcDbEntity
  8
0
100
AcDbBlockBegin
  2
*Model_Space
 70
     0
 10
0.0
 20
0.0
 30
0.0
  3
*Model_Space
  1

  0
ENDBLK
  5
21
330
1F
100
AcDbEntity
  8
0
100
AcDbBlockEnd
  0
BLOCK
  5
1C
330
1B
100
AcDbEntity
 67
     1
  8
0
100
AcDbBlockBegin
  2
*Paper_Space
 70
     0
 10
0.0
 20
0.0
 30
0.0
  3
*Paper_Space
  1

  0
ENDBLK
  5
1D
330
1B
100
AcDbEntity
 67
     1
  8
0
100
AcDbBlockEnd
  0
BLOCK
  5
24
330
23
100
AcDbEntity
  8
0
100
AcDbBlockBegin
  2
*Paper_Space0
 70
     0
 10
0.0
 20
0.0
 30
0.0
  3
*Paper_Space0
  1

  0
ENDBLK
  5
25
330
23
100
AcDbEntity
  8
0
100
AcDbBlockEnd
  0
ENDSEC
  0
SECTION
  2
ENTITIES
  0
SPLINE
  5
66
330
1F
100
AcDbEntity
  8
0
  6
Continuous
 62
     7
370
    25
100
AcDbSpline
210
0.0
220
0.0
230
1.0
 70
    11
 71
     3
 72
    31
 73
    27
 74
     0
 42
0.00000001
 43
0.00000001
 40
0.0
 40
0.0
 40
0.0
 40
0.0
 40
0.0289066748571376
 40
0.0629217904551618
 40
0.1025269488843163
 40
0.1476871546815506
 40
0.1974949490635054
 40
0.2499999513641189
 40
0.302504963934461
 40
0.3523127831617577
 40
0.3974730162020506
 40
0.4370781952181241
 40
0.4710933219973831
 40
0.4999999999999996
 40
0.5289066748571374
 40
0.5629217904551612
 40
0.6025269488843155
 40
0.6476871546815495
 40
0.6974949490635036
 40
0.7499999513641166
 40
0.8025049639344591
 40
0.8523127831617565
 40
0.8974730162020501
 40
0.937078195218124
 40
0.9710933219973832
 40
1.0
 40
1.0
 40
1.0
 40
1.0
 10
-0.425001406506713
 20
0.6513745505509215
 30
0.0
 10
-0.4246156198207474
 20
0.6589273875673837
 30
0.0
 10
-0.4237758695162007
 20
0.6753678128477225
 30
0.0
 10
-0.4158784192212053
 20
0.7012297637901653
 30
0.0
 10
-0.4004968393433457
 20
0.7284494287653742
 30
0.0
 10
-0.3753522593159827
 20
0.7536666713000366
 30
0.0
 10
-0.3408305234824743
 20
0.7720401299072349
 30
0.0
 10
-0.3002615132247333
 20
0.7788871701902389
 30
0.0
 10
-0.2596684737230952
 20
0.7722062011939601
 30
0.0
 10
-0.225061724599133
 20
0.7539741939808718
 30
0.0
 10
-0.1998461035681885
 20
0.7288600008631158
 30
0.0
 10
-0.1842549759147097
 20
0.7017037136357218
 30
0.0
 10
-0.176545031914536
 20
0.6758736988104224
 30
0.0
 10
-0.1743155778831187
 20
0.6518875045054006
 30
0.0
 10
-0.176446823231697
 20
0.6278923875674648
 30
0.0
 10
-0.1840509646743541
 20
0.6020310369745974
 30
0.0
 10
-0.1995307953255469
 20
0.5748111708980252
 30
0.0
 10
-0.2246434005043796
 20
0.5495939938100298
 30
0.0
 10
-0.2591752299793816
 20
0.5312205145429931
 30
0.0
 10
-0.299740582866742
 20
0.5243734817459577
 30
0.0
 10
-0.3403372797399378
 20
0.5310544432562655
 30
0.0
 10
-0.374933935214738
 20
0.549286471129208
 30
0.0
 10
-0.4001815311230255
 20
0.5744005988002377
 30
0.0
 10
-0.4156744079254193
 20
0.6015570871291546
 30
0.0
 10
-0.4236776609336289
 20
0.6273865016045593
 30
0.0
 10
-0.4245847047832583
 20
0.6438233552596868
 30
0.0
 10
-0.425001406506713
 20
0.6513745505509215
 30
0.0
  0
SPLINE
  5
67
330
1F
100
AcDbEntity
  8
0
  6
Continuous
 62
     7
370
    25
100
AcDbSpline
210
0.0
220
0.0
230
1.0
 70
    11
 71
     3
 72
    35
 73
    31
 74
     0
 42
0.00000001
 43
0.00000001
 40
0.0
 40
0.0
 40
0.0
 40
0.0
 40
0.0288766375176739
 40
0.0628564075223647
 40
0.1024204116646932
 40
0.1358143950764641
 40
0.1720375482608821
 40
0.2104273274853393
 40
0.2499999515724736
 40
0.2895725815341939
 40
0.3279623763481281
 40
0.3641855499558933
 40
0.3975795534579529
 40
0.4371435781658085
 40
0.4711233593401157
 40
0.5
 40
0.5288766375176739
 40
0.5628564075223648
 40
0.6024204116646931
 40
0.635814395076464
 40
0.672037548260882
 40
0.7104273274853392
 40
0.7499999515724735
 40
0.7895725815341937
 40
0.827962376348128
 40
0.8641855499558931
 40
0.8975795534579527
 40
0.9371435781658084
 40
0.9711233593401156
 40
1.0
 40
1.0
 40
1.0
 40
1.0
 10
-0.7799991106315795
 20
0.6491308382582487
 30
0.0
 10
-0.7806782748029194
 20
0.6358376371348468
 30
0.0
 10
-0.7821566262869596
 20
0.6069020359389697
 30
0.0
 10
-0.7960526159563382
 20
0.5613890816020647
 30
0.0
 10
-0.8204655645325147
 20
0.5181965093305507
 30
0.0
 10
-0.854829439117722
 20
0.4810979130662982
 30
0.0
 10
-0.8959930320116565
 20
0.4525785888563205
 30
0.0
 10
-0.9453874673873924
 20
0.4333479036487697
 30
0.0
 10
-0.9995436341844771
 20
0.4264663660382026
 30
0.0
 10
-1.053728654028601
 20
0.4331262180460822
 30
0.0
 10
-1.103198144266419
 20
0.4521546083784042
 30
0.0
 10
-1.144489045010935
 20
0.4805052130241022
 30
0.0
 10
-1.178965129634214
 20
0.5174629468319097
 30
0.0
 10
-1.203717117499195
 20
0.5605549150514673
 30
0.0
 10
-1.217281369372143
 20
0.6060116797789001
 30
0.0
 10
-1.221206609668757
 20
0.648228038396259
 30
0.0
 10
-1.217454219350183
 20
0.6904601065788041
 30
0.0
 10
-1.204076163329454
 20
0.7359720008002
 30
0.0
 10
-1.179500782787472
 20
0.7791649055402579
 30
0.0
 10
-1.145176274546505
 20
0.8162634212287996
 30
0.0
 10
-1.104001772275575
 20
0.8447827677682775
 30
0.0
 10
-1.054610587454191
 20
0.8640134463225381
 30
0.0
 10
-1.000453282678999
 20
0.8708949862623385
 30
0.0
 10
-0.9462694008132824
 20
0.8642351319252246
 30
0.0
 10
-0.8967966600189771
 20
0.8452067482461976
 30
0.0
 10
-0.8555166686610054
 20
0.8168561212709797
 30
0.0
 10
-0.8210012176574231
 20
0.7798984680389567
 30
0.0
 10
-0.7964116618849751
 20
0.7368061673505962
 30
0.0
 10
-0.7823294760883974
 20
0.6913504627392345
 30
0.0
 10
-0.780732686117594
 20
0.6624211492081465
 30
0.0
 10
-0.7799991106315792
 20
0.6491308382582486
 30
0.0
  0
SPLINE
  5
68
330
1F
100
AcDbEntity
  8
0
  6
Continuous
 62
     7
370
    25
100
AcDbSpline
210
0.0
220
0.0
230
1.0
 70
    11
 71
     3
 72
    31
 73
    27
 74
     0
 42
0.00000001
 43
0.00000001
 40
0.0
 40
0.0
 40
0.0
 40
0.0
 40
0.0289066748571377
 40
0.0629217904551615
 40
0.1025269488843157
 40
0.1476871546815495
 40
0.1974949490635036
 40
0.2499999513641164
 40
0.302504963934459
 40
0.3523127831617565
 40
0.3974730162020499
 40
0.4370781952181237
 40
0.471093321997383
 40
0.4999999999999998
 40
0.5289066748571377
 40
0.5629217904551618
 40
0.6025269488843162
 40
0.6476871546815509
 40
0.697494949063506
 40
0.749999951364119
 40
0.8025049639344609
 40
0.8523127831617577
 40
0.8974730162020508
 40
0.9370781952181243
 40
0.9710933219973833
 40
1.0
 40
1.0
 40
1.0
 40
1.0
 10
-1.8249984752371
 20
0.6485098800957996
 30
0.0
 10
-1.824612688551135
 20
0.6560627171122616
 30
0.0
 10
-1.823772938246588
 20
0.6725031423926003
 30
0.0
 10
-1.815875487951594
 20
0.6983650933350433
 30
0.0
 10
-1.800493908073735
 20
0.7255847583102526
 30
0.0
 10
-1.775349328046372
 20
0.7508020008449146
 30
0.0
 10
-1.740827592212865
 20
0.7691754594521132
 30
0.0
 10
-1.700258581955125
 20
0.7760224997351175
 30
0.0
 10
-1.659665542453486
 20
0.7693415307388382
 30
0.0
 10
-1.625058793329523
 20
0.7511095235257497
 30
0.0
 10
-1.599843172298578
 20
0.7259953304079945
 30
0.0
 10
-1.584252044645099
 20
0.6988390431805999
 30
0.0
 10
-1.576542100644924
 20
0.6730090283553005
 30
0.0
 10
-1.574312646613505
 20
0.6490228340502788
 30
0.0
 10
-1.576443891962085
 20
0.6250277171123428
 30
0.0
 10
-1.584048033404743
 20
0.5991663665194753
 30
0.0
 10
-1.599527864055936
 20
0.5719465004429031
 30
0.0
 10
-1.62464046923477
 20
0.5467293233549079
 30
0.0
 10
-1.659172298709772
 20
0.5283558440878711
 30
0.0
 10
-1.699737651597133
 20
0.5215088112908355
 30
0.0
 10
-1.740334348470328
 20
0.5281897728011438
 30
0.0
 10
-1.774931003945128
 20
0.546421800674086
 30
0.0
 10
-1.800178599853415
 20
0.5715359283451156
 30
0.0
 10
-1.815671476655808
 20
0.5986924166740323
 30
0.0
 10
-1.823674729664017
 20
0.6245218311494376
 30
0.0
 10
-1.824581773513646
 20
0.6409586848045647
 30
0.0
 10
-1.8249984752371
 20
0.6485098800957996
 30
0.0
  0
SPLINE
  5
70
330
1F
100
AcDbEntity
  8
0
  6
Continuous
 62
     7
370
    25
100
AcDbSpline
210
0.0
220
0.0
230
1.0
 70
    11
 71
     3
 72
    31
 73
    27
 74
     0
 42
0.00000001
 43
0.00000001
 40
0.0
 40
0.0
 40
0.0
 40
0.0
 40
0.0289066748571381
 40
0.062921790455162
 40
0.1025269488843166
 40
0.1476871546815509
 40
0.1974949490635059
 40
0.2499999513641193
 40
0.3025049639344614
 40
0.3523127831617583
 40
0.3974730162020512
 40
0.4370781952181242
 40
0.4710933219973831
 40
0.5000000000000001
 40
0.5289066748571375
 40
0.5629217904551616
 40
0.6025269488843159
 40
0.6476871546815498
 40
0.697494949063504
 40
0.749999951364117
 40
0.8025049639344596
 40
0.8523127831617571
 40
0.8974730162020507
 40
0.9370781952181245
 40
0.9710933219973836
 40
1.0
 40
1.0
 40
1.0
 40
1.0
 10
-0.4250014065067126
 20
2.801374550550921
 30
0.0
 10
-0.424615619820747
 20
2.808927387567383
 30
0.0
 10
-0.4237758695162001
 20
2.825367812847722
 30
0.0
 10
-0.4158784192212048
 20
2.851229763790165
 30
0.0
 10
-0.4004968393433454
 20
2.878449428765374
 30
0.0
 10
-0.375352259315982
 20
2.903666671300036
 30
0.0
 10
-0.340830523482474
 20
2.922040129907236
 30
0.0
 10
-0.3002615132247329
 20
2.928887170190238
 30
0.0
 10
-0.2596684737230944
 20
2.92220620119396
 30
0.0
 10
-0.2250617245991326
 20
2.903974193980872
 30
0.0
 10
-0.1998461035681882
 20
2.878860000863115
 30
0.0
 10
-0.1842549759147094
 20
2.851703713635722
 30
0.0
 10
-0.1765450319145356
 20
2.825873698810422
 30
0.0
 10
-0.1743155778831184
 20
2.801887504505401
 30
0.0
 10
-0.1764468232316966
 20
2.777892387567466
 30
0.0
 10
-0.1840509646743536
 20
2.752031036974597
 30
0.0
 10
-0.1995307953255465
 20
2.724811170898026
 30
0.0
 10
-0.2246434005043792
 20
2.69959399381003
 30
0.0
 10
-0.2591752299793811
 20
2.681220514542993
 30
0.0
 10
-0.2997405828667416
 20
2.674373481745958
 30
0.0
 10
-0.3403372797399375
 20
2.681054443256265
 30
0.0
 10
-0.3749339352147377
 20
2.699286471129209
 30
0.0
 10
-0.4001815311230249
 20
2.724400598800238
 30
0.0
 10
-0.415674407925419
 20
2.751557087129155
 30
0.0
 10
-0.4236776609336284
 20
2.777386501604559
 30
0.0
 10
-0.4245847047832578
 20
2.793823355259686
 30
0.0
 10
-0.4250014065067126
 20
2.801374550550921
 30
0.0
  0
SPLINE
  5
71
330
1F
100
AcDbEntity
  8
0
  6
Continuous
 62
     7
370
    25
100
AcDbSpline
210
0.0
220
0.0
230
1.0
 70
    11
 71
     3
 72
    35
 73
    31
 74
     0
 42
0.00000001
 43
0.00000001
 40
0.0
 40
0.0
 40
0.0
 40
0.0
 40
0.0288766375176739
 40
0.0628564075223647
 40
0.1024204116646932
 40
0.1358143950764642
 40
0.1720375482608821
 40
0.2104273274853394
 40
0.2499999515724736
 40
0.2895725815341939
 40
0.3279623763481282
 40
0.3641855499558934
 40
0.3975795534579529
 40
0.4371435781658087
 40
0.4711233593401159
 40
0.5000000000000002
 40
0.5288766375176741
 40
0.5628564075223649
 40
0.6024204116646934
 40
0.6358143950764643
 40
0.6720375482608822
 40
0.7104273274853395
 40
0.7499999515724737
 40
0.789572581534194
 40
0.8279623763481282
 40
0.8641855499558934
 40
0.8975795534579528
 40
0.9371435781658086
 40
0.9711233593401157
 40
1.0
 40
1.0
 40
1.0
 40
1.0
 10
-0.7799991106315791
 20
2.799130838258249
 30
0.0
 10
-0.780678274802919
 20
2.785837637134847
 30
0.0
 10
-0.7821566262869593
 20
2.75690203593897
 30
0.0
 10
-0.7960526159563378
 20
2.711389081602064
 30
0.0
 10
-0.8204655645325145
 20
2.668196509330551
 30
0.0
 10
-0.8548294391177214
 20
2.631097913066298
 30
0.0
 10
-0.8959930320116564
 20
2.602578588856321
 30
0.0
 10
-0.9453874673873921
 20
2.583347903648769
 30
0.0
 10
-0.9995436341844767
 20
2.576466366038204
 30
0.0
 10
-1.053728654028601
 20
2.583126218046082
 30
0.0
 10
-1.103198144266418
 20
2.602154608378404
 30
0.0
 10
-1.144489045010935
 20
2.630505213024102
 30
0.0
 10
-1.178965129634213
 20
2.667462946831909
 30
0.0
 10
-1.203717117499195
 20
2.710554915051468
 30
0.0
 10
-1.217281369372142
 20
2.756011679778899
 30
0.0
 10
-1.221206609668757
 20
2.798228038396259
 30
0.0
 10
-1.217454219350182
 20
2.840460106578804
 30
0.0
 10
-1.204076163329453
 20
2.8859720008002
 30
0.0
 10
-1.179500782787472
 20
2.929164905540258
 30
0.0
 10
-1.145176274546504
 20
2.966263421228799
 30
0.0
 10
-1.104001772275575
 20
2.994782767768279
 30
0.0
 10
-1.05461058745419
 20
3.014013446322537
 30
0.0
 10
-1.000453282678999
 20
3.020894986262339
 30
0.0
 10
-0.9462694008132819
 20
3.014235131925225
 30
0.0
 10
-0.8967966600189765
 20
2.995206748246197
 30
0.0
 10
-0.855516668661005
 20
2.96685612127098
 30
0.0
 10
-0.8210012176574226
 20
2.929898468038956
 30
0.0
 10
-0.796411661884975
 20
2.886806167350596
 30
0.0
 10
-0.7823294760883963
 20
2.841350462739233
 30
0.0
 10
-0.7807326861175938
 20
2.812421149208147
 30
0.0
 10
-0.779999110631579
 20
2.799130838258248
 30
0.0
  0
SPLINE
  5
72
330
1F
100
AcDbEntity
  8
0
  6
Continuous
 62
     7
370
    25
100
AcDbSpline
210
0.0
220
0.0
230
1.0
 70
    11
 71
     3
 72
    31
 73
    27
 74
     0
 42
0.00000001
 43
0.00000001
 40
0.0
 40
0.0
 40
0.0
 40
0.0
 40
0.0289066748571373
 40
0.0629217904551615
 40
0.1025269488843158
 40
0.1476871546815493
 40
0.1974949490635033
 40
0.2499999513641165
 40
0.3025049639344591
 40
0.3523127831617562
 40
0.3974730162020499
 40
0.4370781952181237
 40
0.4710933219973829
 40
0.5
 40
0.5289066748571374
 40
0.562921790455162
 40
0.6025269488843166
 40
0.6476871546815507
 40
0.697494949063506
 40
0.7499999513641188
 40
0.802504963934461
 40
0.8523127831617578
 40
0.8974730162020506
 40
0.9370781952181242
 40
0.971093321997383
 40
1.0
 40
1.0
 40
1.0
 40
1.0
 10
-1.8249984752371
 20
2.798509880095799
 30
0.0
 10
-1.824612688551134
 20
2.806062717112261
 30
0.0
 10
-1.823772938246588
 20
2.8225031423926
 30
0.0
 10
-1.815875487951594
 20
2.848365093335044
 30
0.0
 10
-1.800493908073734
 20
2.875584758310251
 30
0.0
 10
-1.775349328046372
 20
2.900802000844915
 30
0.0
 10
-1.740827592212864
 20
2.919175459452112
 30
0.0
 10
-1.700258581955123
 20
2.926022499735117
 30
0.0
 10
-1.659665542453485
 20
2.919341530738838
 30
0.0
 10
-1.625058793329523
 20
2.901109523525751
 30
0.0
 10
-1.599843172298577
 20
2.875995330407994
 30
0.0
 10
-1.584252044645098
 20
2.848839043180599
 30
0.0
 10
-1.576542100644924
 20
2.823009028355302
 30
0.0
 10
-1.574312646613504
 20
2.799022834050278
 30
0.0
 10
-1.576443891962085
 20
2.775027717112344
 30
0.0
 10
-1.584048033404743
 20
2.749166366519475
 30
0.0
 10
-1.599527864055936
 20
2.721946500442903
 30
0.0
 10
-1.624640469234769
 20
2.696729323354907
 30
0.0
 10
-1.659172298709772
 20
2.678355844087872
 30
0.0
 10
-1.699737651597132
 20
2.671508811290835
 30
0.0
 10
-1.740334348470327
 20
2.678189772801143
 30
0.0
 10
-1.774931003945128
 20
2.696421800674086
 30
0.0
 10
-1.800178599853414
 20
2.721535928345115
 30
0.0
 10
-1.815671476655808
 20
2.748692416674033
 30
0.0
 10
-1.823674729664017
 20
2.774521831149438
 30
0.0
 10
-1.824581773513646
 20
2.790958684804564
 30
0.0
 10
-1.8249984752371
 20
2.798509880095799
 30
0.0
  0
CIRCLE
  5
79
330
1F
100
AcDbEntity
  8
0
  6
Continuous
 62
     7
370
    25
100
AcDbCircle
 10
-1.0
 20
-0.5235
 30
0.0
 40
0.1484999999999996
  0
CIRCLE
  5
7E
330
1F
100
AcDbEntity
  8
0
  6
Continuous
 62
     7
370
    25
100
AcDbCircle
 10
-1.75
 20
-1.5235
 30
0.0
 40
0.1485000000000004
  0
CIRCLE
  5
83
330
1F
100
AcDbEntity
  8
0
  6
Continuous
 62
     7
370
    25
100
AcDbCircle
 10
-0.25
 20
-0.5235
 30
0.0
 40
0.1484999999999998
  0
CIRCLE
  5
88
330
1F
100
AcDbEntity
  8
0
  6
Continuous
 62
     7
370
    25
100
AcDbCircle
 10
-1.75
 20
-0.5235
 30
0.0
 40
0.1484999999999996
  0
LINE
  5
89
330
1F
100
AcDbEntity
  8
0
  6
Continuous
 62
     7
370
    25
100
AcDbLine
 10
-1.5
 20
0.15
 30
0.0
 11
-0.5
 21
0.15
 31
0.0
  0
LINE
  5
8A
330
1F
100
AcDbEntity
  8
0
  6
Continuous
 62
     7
370
    25
100
AcDbLine
 10
-2.0
 20
0.65
 30
0.0
 11
-2.0
 21
2.15
 31
0.0
  0
LINE
  5
8B
330
1F
100
AcDbEntity
  8
0
  6
Continuous
 62
     7
370
    25
100
AcDbLine
 10
0.0
 20
0.65
 30
0.0
 11
0.0
 21
2.15
 31
0.0
  0
LINE
  5
8C
330
1F
100
AcDbEntity
  8
0
  6
Continuous
 62
     7
370
    25
100
AcDbLine
 10
-2.0
 20
2.15
 30
0.0
 11
0.0
 21
2.15
 31
0.0
  0
LINE
  5
8D
330
1F
100
AcDbEntity
  8
0
  6
Continuous
 62
     7
370
    25
100
AcDbLine
 10
0.0
 20
2.8
 30
0.0
 11
0.0
 21
4.3
 31
0.0
  0
LINE
  5
8E
330
1F
100
AcDbEntity
  8
0
  6
Continuous
 62
     7
370
    25
100
AcDbLine
 10
-1.5
 20
2.3
 30
0.0
 11
-0.5
 21
2.3
 31
0.0
  0
LINE
  5
8F
330
1F
100
AcDbEntity
  8
0
  6
Continuous
 62
     7
370
    25
100
AcDbLine
 10
-2.0
 20
4.3
 30
0.0
 11
0.0
 21
4.3
 31
0.0
  0
LINE
  5
90
330
1F
100
AcDbEntity
  8
0
  6
Continuous
 62
     7
370
    25
100
AcDbLine
 10
-2.0
 20
2.8
 30
0.0
 11
-2.0
 21
4.3
 31
0.0
  0
LINE
  5
91
330
1F
100
AcDbEntity
  8
0
  6
Continuous
 62
     7
370
    25
100
AcDbLine
 10
-0.75
 20
0.0
 30
0.0
 11
-1.25
 21
0.0
 31
0.0
  0
LINE
  5
92
330
1F
100
AcDbEntity
  8
0
  6
Continuous
 62
     7
370
    25
100
AcDbLine
 10
-0.75
 20
-0.5235
 30
0.0
 11
-0.75
 21
0.0
 31
0.0
  0
LINE
  5
93
330
1F
100
AcDbEntity
  8
0
  6
Continuous
 62
     7
370
    25
100
AcDbLine
 10
-1.25
 20
0.0
 30
0.0
 11
-1.25
 21
-0.5235
 31
0.0
  0
LINE
  5
94
330
1F
100
AcDbEntity
  8
0
  6
Continuous
 62
     7
370
    25
100
AcDbLine
 10
-1.5
 20
-1.0
 30
0.0
 11
-2.0
 21
-1.0
 31
0.0
  0
LINE
  5
95
330
1F
100
AcDbEntity
  8
0
  6
Continuous
 62
     7
370
    25
100
AcDbLine
 10
-1.5
 20
-1.5235
 30
0.0
 11
-1.5
 21
-1.0
 31
0.0
  0
LINE
  5
96
330
1F
100
AcDbEntity
  8
0
  6
Continuous
 62
     7
370
    25
100
AcDbLine
 10
-2.0
 20
-1.0
 30
0.0
 11
-2.0
 21
-1.5235
 31
0.0
  0
LINE
  5
97
330
1F
100
AcDbEntity
  8
0
  6
Continuous
 62
     7
370
    25
100
AcDbLine
 10
0.0
 20
0.0
 30
0.0
 11
-0.5
 21
0.0
 31
0.0
  0
LINE
  5
98
330
1F
100
AcDbEntity
  8
0
  6
Continuous
 62
     7
370
    25
100
AcDbLine
 10
0.0
 20
-0.5235
 30
0.0
 11
0.0
 21
0.0
 31
0.0
  0
LINE
  5
99
330
1F
100
AcDbEntity
  8
0
  6
Continuous
 62
     7
370
    25
100
AcDbLine
 10
-0.5
 20
0.0
 30
0.0
 11
-0.5
 21
-0.5235
 31
0.0
  0
LINE
  5
9A
330
1F
100
AcDbEntity
  8
0
  6
Continuous
 62
     7
370
    25
100
AcDbLine
 10
-1.5
 20
0.0
 30
0.0
 11
-2.0
 21
0.0
 31
0.0
  0
LINE
  5
9B
330
1F
100
AcDbEntity
  8
0
  6
Continuous
 62
     7
370
    25
100
AcDbLine
 10
-1.5
 20
-0.5235
 30
0.0
 11
-1.5
 21
0.0
 31
0.0
  0
LINE
  5
9C
330
1F
100
AcDbEntity
  8
0
  6
Continuous
 62
     7
370
    25
100
AcDbLine
 10
-2.0
 20
0.0
 30
0.0
 11
-2.0
 21
-0.5235
 31
0.0
  0
ARC
  5
9D
330
1F
100
AcDbEntity
  8
0
  6
Continuous
 62
     7
370
    25
100
AcDbCircle
 10
-1.5
 20
0.65
 30
0.0
 40
0.4999999999999996
100
AcDbArc
 50
180.0
 51
270.0
  0
ARC
  5
9E
330
1F
100
AcDbEntity
  8
0
  6
Continuous
 62
     7
370
    25
100
AcDbCircle
 10
-0.5
 20
0.65
 30
0.0
 40
0.4999999999999997
100
AcDbArc
 50
270.0
 51
0.0
  0
ARC
  5
9F
330
1F
100
AcDbEntity
  8
0
  6
Continuous
 62
     7
370
    25
100
AcDbCircle
 10
-1.5
 20
2.8
 30
0.0
 40
0.4999999999999996
100
AcDbArc
 50
180.0
 51
270.0
  0
ARC
  5
A0
330
1F
100
AcDbEntity
  8
0
  6
Continuous
 62
     7
370
    25
100
AcDbCircle
 10
-0.5
 20
2.8
 30
0.0
 40
0.4999999999999992
100
AcDbArc
 50
270.0
 51
0.0
  0
ARC
  5
A1
330
1F
100
AcDbEntity
  8
0
  6
Continuous
 62
     7
370
    25
100
AcDbCircle
 10
-1.0
 20
-0.5235
 30
0.0
 40
0.2499999999999998
100
AcDbArc
 50
180.0
 51
0.0
  0
ARC
  5
A2
330
1F
100
AcDbEntity
  8
0
  6
Continuous
 62
     7
370
    25
100
AcDbCircle
 10
-1.75
 20
-1.5235
 30
0.0
 40
0.2500000000000004
100
AcDbArc
 50
180.0
 51
0.0
  0
ARC
  5
A3
330
1F
100
AcDbEntity
  8
0
  6
Continuous
 62
     7
370
    25
100
AcDbCircle
 10
-0.25
 20
-0.5235
 30
0.0
 40
0.2499999999999998
100
AcDbArc
 50
180.0
 51
0.0
  0
ARC
  5
A4
330
1F
100
AcDbEntity
  8
0
  6
Continuous
 62
     7
370
    25
100
AcDbCircle
 10
-1.75
 20
-0.5235
 30
0.0
 40
0.2499999999999998
100
AcDbArc
 50
180.0
 51
0.0
  0
MTEXT
  5
A6
330
1F
100
AcDbEntity
  8
0
  6
Continuous
 62
     7
100
AcDbMText
 10
-2.0
 20
-1.8136404091
 30
0.0
 40
0.1903
 41
0.0
 71
     1
 72
     1
  1
SOLIDWORKS Educational Product.
  7
SLDTEXTSTYLE0
 73
     1
 44
1.0
  0
MTEXT
  5
A7
330
1F
100
AcDbEntity
  8
0
  6
Continuous
 62
     7
100
AcDbMText
 10
-2.0
 20
-2.0990904091
 30
0.0
 40
0.1903
 41
0.0
 71
     1
 72
     1
  1
For Instructional Use Only.
  7
SLDTEXTSTYLE0
 73
     1
 44
1.0
  0
ENDSEC
  0
SECTION
  2
OBJECTS
  0
DICTIONARY
  5
C
330
0
100
AcDbDictionary
281
     1
  3
ACAD_GROUP
350
D
  3
ACAD_LAYOUT
350
1A
  3
ACAD_MLINESTYLE
350
17
  3
ACAD_PLOTSETTINGS
350
19
  3
ACAD_PLOTSTYLENAME
350
E
  3
ACAD_SCALELIST
350
47
  3
DWGPROPS
350
A8
  0
DICTIONARY
  5
D
102
{ACAD_REACTORS
330
C
102
}
330
C
100
AcDbDictionary
281
     1
  0
DICTIONARY
  5
1A
102
{ACAD_REACTORS
330
C
102
}
330
C
100
AcDbDictionary
281
     1
  3
Layout1
350
1E
  3
Layout2
350
26
  3
Model
350
22
  0
DICTIONARY
  5
17
102
{ACAD_REACTORS
330
C
102
}
330
C
100
AcDbDictionary
281
     1
  3
Standard
350
18
  0
DICTIONARY
  5
19
102
{ACAD_REACTORS
330
C
102
}
330
C
100
AcDbDictionary
281
     1
  0
ACDBDICTIONARYWDFLT
  5
E
102
{ACAD_REACTORS
330
C
102
}
330
C
100
AcDbDictionary
281
     1
  3
Normal
350
F
100
AcDbDictionaryWithDefault
340
F
  0
DICTIONARY
  5
47
102
{ACAD_REACTORS
330
C
102
}
330
C
100
AcDbDictionary
281
     1
  3
A0
350
48
  3
A1
350
49
  3
A2
350
4A
  3
A3
350
4B
  3
A4
350
4C
  3
A5
350
4D
  3
A6
350
4E
  3
A7
350
4F
  3
A8
350
50
  3
A9
350
51
  3
B1
350
52
  3
B2
350
53
  3
B3
350
54
  3
B4
350
55
  3
B5
350
56
  3
B6
350
57
  3
B7
350
58
  0
XRECORD
  5
A8
102
{ACAD_REACTORS
330
C
102
}
330
C
100
AcDbXrecord
280
     1
  1
DWGPROPS COOKIE
  2

  3

  4

  6

  7

  8
ryanchung
  9

300
=
301
=
302
=
303
=
304
=
305
=
306
=
307
=
308
=
309
=
 40
0.0
 41
2460770.762553796
 42
2460770.762668611
  1

 90
        0
  0
LAYOUT
  5
1E
102
{ACAD_REACTORS
330
1A
102
}
330
1A
100
AcDbPlotSettings
  1

  2
none_device
  4

  6

 40
0.0
 41
0.0
 42
0.0
 43
0.0
 44
0.0
 45
0.0
 46
0.0
 47
0.0
 48
0.0
 49
0.0
140
0.0
141
0.0
142
1.0
143
1.0
 70
   688
 72
     0
 73
     0
 74
     5
  7

 75
    16
147
1.0
148
0.0
149
0.0
100
AcDbLayout
  1
Layout1
 70
     1
 71
     1
 10
0.0
 20
0.0
 11
12.0
 21
9.0
 12
0.0
 22
0.0
 32
0.0
 14
1.0000000000E+20
 24
1.0000000000E+20
 34
1.0000000000E+20
 15
-1.0000000000E+20
 25
-1.0000000000E+20
 35
-1.0000000000E+20
146
0.0
 13
0.0
 23
0.0
 33
0.0
 16
1.0
 26
0.0
 36
0.0
 17
0.0
 27
1.0
 37
0.0
 76
     0
330
1B
  0
LAYOUT
  5
26
102
{ACAD_REACTORS
330
1A
102
}
330
1A
100
AcDbPlotSettings
  1

  2
none_device
  4

  6

 40
0.0
 41
0.0
 42
0.0
 43
0.0
 44
0.0
 45
0.0
 46
0.0
 47
0.0
 48
0.0
 49
0.0
140
0.0
141
0.0
142
1.0
143
1.0
 70
   688
 72
     0
 73
     0
 74
     5
  7

 75
    16
147
1.0
148
0.0
149
0.0
100
AcDbLayout
  1
Layout2
 70
     1
 71
     2
 10
0.0
 20
0.0
 11
0.0
 21
0.0
 12
0.0
 22
0.0
 32
0.0
 14
0.0
 24
0.0
 34
0.0
 15
0.0
 25
0.0
 35
0.0
146
0.0
 13
0.0
 23
0.0
 33
0.0
 16
1.0
 26
0.0
 36
0.0
 17
0.0
 27
1.0
 37
0.0
 76
     0
330
23
  0
LAYOUT
  5
22
102
{ACAD_REACTORS
330
1A
102
}
330
1A
100
AcDbPlotSettings
  1

  2
none_device
  4
ANSI_A_(11.00_x_8.50_Inches)
  6

 40
6.35
 41
19.05
 42
6.35000508
 43
19.05000254
 44
279.4
 45
215.9
 46
168.5423906435
 47
44.4432080409
 48
0.0
 49
0.0
140
0.0
141
0.0
142
1.3855272907
143
1.0
 70
  1696
 72
     0
 73
     0
 74
     0
  7

 75
     0
147
0.5913241897
148
-39.4088153714
149
0.0
100
AcDbLayout
  1
Model
 70
     1
 71
     0
 10
0.0
 20
0.0
 11
12.0
 21
9.0
 12
0.0
 22
0.0
 32
0.0
 14
-2.0
 24
-1.7735
 34
0.0
 15
0.0
 25
4.3
 35
0.0
146
0.0
 13
0.0
 23
0.0
 33
0.0
 16
1.0
 26
0.0
 36
0.0
 17
0.0
 27
1.0
 37
0.0
 76
     0
330
1F
331
29
  0
MLINESTYLE
  5
18
102
{ACAD_REACTORS
330
17
102
}
330
17
100
AcDbMlineStyle
  2
Standard
 70
     0
  3

 62
   256
 51
90.0
 52
90.0
 71
     2
 49
0.5
 62
   256
  6
BYLAYER
 49
-0.5
 62
   256
  6
BYLAYER
  0
ACDBPLACEHOLDER
  5
F
102
{ACAD_REACTORS
330
E
102
}
330
E
  0
SCALE
  5
48
102
{ACAD_REACTORS
330
47
102
}
330
47
100
AcDbScale
 70
     0
300
1:1
140
1.0
141
1.0
290
     1
  0
SCALE
  5
49
102
{ACAD_REACTORS
330
47
102
}
330
47
100
AcDbScale
 70
     0
300
1/128" = 1'-0"
140
0.0078125
141
12.0
290
     0
  0
SCALE
  5
4A
102
{ACAD_REACTORS
330
47
102
}
330
47
100
AcDbScale
 70
     0
300
1/64" = 1'-0"
140
0.015625
141
12.0
290
     0
  0
SCALE
  5
4B
102
{ACAD_REACTORS
330
47
102
}
330
47
100
AcDbScale
 70
     0
300
1/32" = 1'-0"
140
0.03125
141
12.0
290
     0
  0
SCALE
  5
4C
102
{ACAD_REACTORS
330
47
102
}
330
47
100
AcDbScale
 70
     0
300
1/16" = 1'-0"
140
0.0625
141
12.0
290
     0
  0
SCALE
  5
4D
102
{ACAD_REACTORS
330
47
102
}
330
47
100
AcDbScale
 70
     0
300
3/32" = 1'-0"
140
0.09375
141
12.0
290
     0
  0
SCALE
  5
4E
102
{ACAD_REACTORS
330
47
102
}
330
47
100
AcDbScale
 70
     0
300
1/8" = 1'-0"
140
0.125
141
12.0
290
     0
  0
SCALE
  5
4F
102
{ACAD_REACTORS
330
47
102
}
330
47
100
AcDbScale
 70
     0
300
3/16" = 1'-0"
140
0.1875
141
12.0
290
     0
  0
SCALE
  5
50
102
{ACAD_REACTORS
330
47
102
}
330
47
100
AcDbScale
 70
     0
300
1/4" = 1'-0"
140
0.25
141
12.0
290
     0
  0
SCALE
  5
51
102
{ACAD_REACTORS
330
47
102
}
330
47
100
AcDbScale
 70
     0
300
3/8" = 1'-0"
140
0.375
141
12.0
290
     0
  0
SCALE
  5
52
102
{ACAD_REACTORS
330
47
102
}
330
47
100
AcDbScale
 70
     0
300
1/2" = 1'-0"
140
0.5
141
12.0
290
     0
  0
SCALE
  5
53
102
{ACAD_REACTORS
330
47
102
}
330
47
100
AcDbScale
 70
     0
300
3/4" = 1'-0"
140
0.75
141
12.0
290
     0
  0
SCALE
  5
54
102
{ACAD_REACTORS
330
47
102
}
330
47
100
AcDbScale
 70
     0
300
1" = 1'-0"
140
1.0
141
12.0
290
     0
  0
SCALE
  5
55
102
{ACAD_REACTORS
330
47
102
}
330
47
100
AcDbScale
 70
     0
300
1-1/2" = 1'-0"
140
1.5
141
12.0
290
     0
  0
SCALE
  5
56
102
{ACAD_REACTORS
330
47
102
}
330
47
100
AcDbScale
 70
     0
300
3" = 1'-0"
140
3.0
141
12.0
290
     0
  0
SCALE
  5
57
102
{ACAD_REACTORS
330
47
102
}
330
47
100
AcDbScale
 70
     0
300
6" = 1'-0"
140
6.0
141
12.0
290
     0
  0
SCALE
  5
58
102
{ACAD_REACTORS
330
47
102
}
330
47
100
AcDbScale
 70
     0
300
1'-0" = 1'-0"
140
12.0
141
12.0
290
     0
  0
ENDSEC
  0
EOF
