  0
SECTION
  2
HEADER
  9
$ACADVER
  1
AC1015
  9
$ACADMAINTVER
 70
     6
  9
$DWGCODEPAGE
  3
ANSI_1252
  9
$INSBASE
 10
0.0
 20
0.0
 30
0.0
  9
$EXTMIN
 10
0.0
 20
0.0
 30
0.0
  9
$EXTMAX
 10
18.0
 20
14.0
 30
0.0
  9
$LIMMIN
 10
0.0
 20
0.0
  9
$LIMMAX
 10
12.0
 20
9.0
  9
$ORTHOMODE
 70
     0
  9
$REGENMODE
 70
     1
  9
$FILLMODE
 70
     1
  9
$QTEXTMODE
 70
     0
  9
$MIRRTEXT
 70
     1
  9
$LTSCALE
 40
1.0
  9
$ATTMODE
 70
     1
  9
$TEXTSIZE
 40
0.125
  9
$TRACEWID
 40
0.05
  9
$TEXTSTYLE
  7
Standard
  9
$CLAYER
  8
0
  9
$CELTYPE
  6
ByLayer
  9
$CECOLOR
 62
   256
  9
$CELTSCALE
 40
1.0
  9
$DISPSILH
 70
     0
  9
$DIMSCALE
 40
1.0
  9
$DIMASZ
 40
0.13
  9
$DIMEXO
 40
0.0
  9
$DIMDLI
 40
0.38
  9
$DIMRND
 40
0.0
  9
$DIMDLE
 40
0.0
  9
$DIMEXE
 40
0.125
  9
$DIMTP
 40
0.0
  9
$DIMTM
 40
0.0
  9
$DIMTXT
 40
0.125
  9
$DIMCEN
 40
0.09
  9
$DIMTSZ
 40
0.0
  9
$DIMTOL
 70
     0
  9
$DIMLIM
 70
     0
  9
$DIMTIH
 70
     1
  9
$DIMTOH
 70
     1
  9
$DIMSE1
 70
     0
  9
$DIMSE2
 70
     0
  9
$DIMTAD
 70
     0
  9
$DIMZIN
 70
     1
  9
$DIMBLK
  1

  9
$DIMASO
 70
     1
  9
$DIMSHO
 70
     1
  9
$DIMPOST
  1

  9
$DIMAPOST
  1

  9
$DIMALT
 70
     0
  9
$DIMALTD
 70
     2
  9
$DIMALTF
 40
25.4
  9
$DIMLFAC
 40
1.0
  9
$DIMTOFL
 70
     0
  9
$DIMTVP
 40
0.0
  9
$DIMTIX
 70
     0
  9
$DIMSOXD
 70
     0
  9
$DIMSAH
 70
     0
  9
$DIMBLK1
  1

  9
$DIMBLK2
  1

  9
$DIMSTYLE
  2
Standard
  9
$DIMCLRD
 70
     0
  9
$DIMCLRE
 70
     0
  9
$DIMCLRT
 70
     0
  9
$DIMTFAC
 40
1.0
  9
$DIMGAP
 40
0.06
  9
$DIMJUST
 70
     0
  9
$DIMSD1
 70
     0
  9
$DIMSD2
 70
     0
  9
$DIMTOLJ
 70
     1
  9
$DIMTZIN
 70
     1
  9
$DIMALTZ
 70
     0
  9
$DIMALTTZ
 70
     0
  9
$DIMUPT
 70
     0
  9
$DIMDEC
 70
     2
  9
$DIMTDEC
 70
     2
  9
$DIMALTU
 70
     2
  9
$DIMALTTD
 70
     2
  9
$DIMTXSTY
  7
Standard
  9
$DIMAUNIT
 70
     0
  9
$DIMADEC
 70
     2
  9
$DIMALTRND
 40
0.0
  9
$DIMAZIN
 70
     0
  9
$DIMDSEP
 70
    46
  9
$DIMATFIT
 70
     3
  9
$DIMFRAC
 70
     0
  9
$DIMLDRBLK
  1

  9
$DIMLUNIT
 70
     2
  9
$DIMLWD
 70
    -2
  9
$DIMLWE
 70
    -2
  9
$DIMTMOVE
 70
     0
  9
$LUNITS
 70
     2
  9
$LUPREC
 70
     2
  9
$SKETCHINC
 40
0.1
  9
$FILLETRAD
 40
0.0
  9
$AUNITS
 70
     0
  9
$AUPREC
 70
     2
  9
$MENU
  1
.
  9
$ELEVATION
 40
0.0
  9
$PELEVATION
 40
0.0
  9
$THICKNESS
 40
0.0
  9
$LIMCHECK
 70
     0
  9
$CHAMFERA
 40
0.0
  9
$CHAMFERB
 40
0.0
  9
$CHAMFERC
 40
0.0
  9
$CHAMFERD
 40
0.0
  9
$SKPOLY
 70
     0
  9
$TDCREATE
 40
2460735.528966285
  9
$TDUCREATE
 40
2460735.778966285
  9
$TDUPDATE
 40
2460735.529005996
  9
$TDUUPDATE
 40
2460735.779005996
  9
$TDINDWG
 40
0.0000000116
  9
$TDUSRTIMER
 40
0.0000000116
  9
$USRTIMER
 70
     1
  9
$ANGBASE
 50
0.0
  9
$ANGDIR
 70
     0
  9
$PDMODE
 70
     0
  9
$PDSIZE
 40
-1.0
  9
$PLINEWID
 40
0.0
  9
$SPLFRAME
 70
     0
  9
$SPLINETYPE
 70
     6
  9
$SPLINESEGS
 70
     8
  9
$HANDSEED
  5
1CF
  9
$SURFTAB1
 70
     6
  9
$SURFTAB2
 70
     6
  9
$SURFTYPE
 70
     6
  9
$SURFU
 70
     6
  9
$SURFV
 70
     6
  9
$UCSBASE
  2

  9
$UCSNAME
  2

  9
$UCSORG
 10
0.0
 20
0.0
 30
0.0
  9
$UCSXDIR
 10
1.0
 20
0.0
 30
0.0
  9
$UCSYDIR
 10
0.0
 20
1.0
 30
0.0
  9
$UCSORTHOREF
  2

  9
$UCSORTHOVIEW
 70
     0
  9
$UCSORGTOP
 10
0.0
 20
0.0
 30
0.0
  9
$UCSORGBOTTOM
 10
0.0
 20
0.0
 30
0.0
  9
$UCSORGLEFT
 10
0.0
 20
0.0
 30
0.0
  9
$UCSORGRIGHT
 10
0.0
 20
0.0
 30
0.0
  9
$UCSORGFRONT
 10
0.0
 20
0.0
 30
0.0
  9
$UCSORGBACK
 10
0.0
 20
0.0
 30
0.0
  9
$PUCSBASE
  2

  9
$PUCSNAME
  2

  9
$PUCSORG
 10
0.0
 20
0.0
 30
0.0
  9
$PUCSXDIR
 10
1.0
 20
0.0
 30
0.0
  9
$PUCSYDIR
 10
0.0
 20
1.0
 30
0.0
  9
$PUCSORTHOREF
  2

  9
$PUCSORTHOVIEW
 70
     0
  9
$PUCSORGTOP
 10
0.0
 20
0.0
 30
0.0
  9
$PUCSORGBOTTOM
 10
0.0
 20
0.0
 30
0.0
  9
$PUCSORGLEFT
 10
0.0
 20
0.0
 30
0.0
  9
$PUCSORGRIGHT
 10
0.0
 20
0.0
 30
0.0
  9
$PUCSORGFRONT
 10
0.0
 20
0.0
 30
0.0
  9
$PUCSORGBACK
 10
0.0
 20
0.0
 30
0.0
  9
$USERI1
 70
     0
  9
$USERI2
 70
     0
  9
$USERI3
 70
     0
  9
$USERI4
 70
     0
  9
$USERI5
 70
     0
  9
$USERR1
 40
0.0
  9
$USERR2
 40
0.0
  9
$USERR3
 40
0.0
  9
$USERR4
 40
0.0
  9
$USERR5
 40
0.0
  9
$WORLDVIEW
 70
     1
  9
$SHADEDGE
 70
     3
  9
$SHADEDIF
 70
    70
  9
$TILEMODE
 70
     1
  9
$MAXACTVP
 70
    64
  9
$PINSBASE
 10
0.0
 20
0.0
 30
0.0
  9
$PLIMCHECK
 70
     0
  9
$PEXTMIN
 10
1.0000000000E+20
 20
1.0000000000E+20
 30
1.0000000000E+20
  9
$PEXTMAX
 10
-1.0000000000E+20
 20
-1.0000000000E+20
 30
-1.0000000000E+20
  9
$PLIMMIN
 10
0.0
 20
0.0
  9
$PLIMMAX
 10
12.0
 20
9.0
  9
$UNITMODE
 70
     0
  9
$VISRETAIN
 70
     1
  9
$PLINEGEN
 70
     0
  9
$PSLTSCALE
 70
     1
  9
$TREEDEPTH
 70
  3020
  9
$CMLSTYLE
  2
Standard
  9
$CMLJUST
 70
     0
  9
$CMLSCALE
 40
1.0
  9
$PROXYGRAPHICS
 70
     1
  9
$MEASUREMENT
 70
     0
  9
$CELWEIGHT
370
    -1
  9
$ENDCAPS
280
     0
  9
$JOINSTYLE
280
     0
  9
$LWDISPLAY
290
     1
  9
$INSUNITS
 70
     1
  9
$HYPERLINKBASE
  1

  9
$STYLESHEET
  1

  9
$XEDIT
290
     1
  9
$CEPSNTYPE
380
     0
  9
$PSTYLEMODE
290
     1
  9
$FINGERPRINTGUID
  2
{c60c874b-8b6a-4b1b-a0af-d1e46ee5de0d}
  9
$VERSIONGUID
  2
{FAEB1C32-E019-11D5-929B-00C0DF256EC4}
  9
$EXTNAMES
290
     1
  9
$PSVPSCALE
 40
0.0
  9
$OLESTARTUP
290
     0
  0
ENDSEC
  0
SECTION
  2
CLASSES
  0
CLASS
  1
ACDBDICTIONARYWDFLT
  2
AcDbDictionaryWithDefault
  3
ObjectDBX Classes
 90
        0
280
     0
281
     0
  0
CLASS
  1
VISUALSTYLE
  2
AcDbVisualStyle
  3
ObjectDBX Classes
 90
     4095
280
     0
281
     0
  0
CLASS
  1
MATERIAL
  2
AcDbMaterial
  3
ObjectDBX Classes
 90
     1153
280
     0
281
     0
  0
CLASS
  1
SCALE
  2
AcDbScale
  3
ObjectDBX Classes
 90
     1153
280
     0
281
     0
  0
CLASS
  1
TABLESTYLE
  2
AcDbTableStyle
  3
ObjectDBX Classes
 90
     4095
280
     0
281
     0
  0
CLASS
  1
MLEADERSTYLE
  2
AcDbMLeaderStyle
  3
ACDB_MLEADERSTYLE_CLASS
 90
     4095
280
     0
281
     0
  0
CLASS
  1
SUN
  2
AcDbSun
  3
SCENEOE
 90
     1153
280
     0
281
     0
  0
CLASS
  1
ACDBPLACEHOLDER
  2
AcDbPlaceHolder
  3
ObjectDBX Classes
 90
        0
280
     0
281
     0
  0
CLASS
  1
LAYOUT
  2
AcDbLayout
  3
ObjectDBX Classes
 90
        0
280
     0
281
     0
  0
ENDSEC
  0
SECTION
  2
TABLES
  0
TABLE
  2
VPORT
  5
8
330
0
100
AcDbSymbolTable
 70
     1
  0
VPORT
  5
29
330
8
100
AcDbSymbolTableRecord
100
AcDbViewportTableRecord
  2
*Active
 70
     0
 10
0.0
 20
0.0
 11
1.0
 21
1.0
 12
9.0
 22
7.0
 13
0.0
 23
0.0
 14
0.5
 24
0.5
 15
0.5
 25
0.5
 16
0.0
 26
0.0
 36
1.0
 17
0.0
 27
0.0
 37
0.0
 40
14.28
 41
1.2857142857
 42
50.0
 43
0.0
 44
0.0
 50
0.0
 51
0.0
 71
     0
 72
   100
 73
     1
 74
     3
 75
     0
 76
     0
 77
     0
 78
     0
281
     0
 65
     1
110
0.0
120
0.0
130
0.0
111
1.0
121
0.0
131
0.0
112
0.0
122
1.0
132
0.0
 79
     0
146
0.0
  0
ENDTAB
  0
TABLE
  2
LTYPE
  5
5
330
0
100
AcDbSymbolTable
 70
     6
  0
LTYPE
  5
14
330
5
100
AcDbSymbolTableRecord
100
AcDbLinetypeTableRecord
  2
ByBlock
 70
     0
  3

 72
    65
 73
     0
 40
0.0
  0
LTYPE
  5
15
330
5
100
AcDbSymbolTableRecord
100
AcDbLinetypeTableRecord
  2
ByLayer
 70
     0
  3

 72
    65
 73
     0
 40
0.0
  0
LTYPE
  5
16
330
5
100
AcDbSymbolTableRecord
100
AcDbLinetypeTableRecord
  2
Continuous
 70
     0
  3
Solid line
 72
    65
 73
     0
 40
0.0
  0
LTYPE
  5
5E
330
5
100
AcDbSymbolTableRecord
100
AcDbLinetypeTableRecord
  2
HIDDEN
 70
     0
  3
Hidden __ __ __ __ __ __ __ __ __ __ __ __ __ __
 72
    65
 73
     2
 40
0.075
 49
0.05
 74
     0
 49
-0.025
 74
     0
  0
LTYPE
  5
5F
330
5
100
AcDbSymbolTableRecord
100
AcDbLinetypeTableRecord
  2
PHANTOM
 70
     0
  3
Phantom ______  __  __  ______  __  __  ______
 72
    65
 73
     6
 40
0.5
 49
0.25
 74
     0
 49
-0.05
 74
     0
 49
0.05
 74
     0
 49
-0.05
 74
     0
 49
0.05
 74
     0
 49
-0.05
 74
     0
  0
LTYPE
  5
60
330
5
100
AcDbSymbolTableRecord
100
AcDbLinetypeTableRecord
  2
CENTER
 70
     0
  3
Center ____ _ ____ _ ____ _ ____ _ ____ _ ____
 72
    65
 73
     4
 40
0.4
 49
0.25
 74
     0
 49
-0.05
 74
     0
 49
0.05
 74
     0
 49
-0.05
 74
     0
  0
LTYPE
  5
61
330
5
100
AcDbSymbolTableRecord
100
AcDbLinetypeTableRecord
  2
CENTERX2
 70
     0
  3
Center (2x) ________  __  ________  __  _____
 72
    65
 73
     4
 40
0.8
 49
0.5
 74
     0
 49
-0.1
 74
     0
 49
0.1
 74
     0
 49
-0.1
 74
     0
  0
LTYPE
  5
62
330
5
100
AcDbSymbolTableRecord
100
AcDbLinetypeTableRecord
  2
DOT2
 70
     0
  3
Dot (.5x) ........................................
 72
    65
 73
     2
 40
0.025
 49
0.0
 74
     0
 49
-0.025
 74
     0
  0
ENDTAB
  0
TABLE
  2
LAYER
  5
2
330
0
100
AcDbSymbolTable
 70
     1
  0
LAYER
  5
10
330
2
100
AcDbSymbolTableRecord
100
AcDbLayerTableRecord
  2
0
 70
     0
 62
     7
  6
Continuous
370
    -3
390
F
  0
ENDTAB
  0
TABLE
  2
STYLE
  5
3
330
0
100
AcDbSymbolTable
 70
     2
  0
STYLE
  5
11
330
3
100
AcDbSymbolTableRecord
100
AcDbTextStyleTableRecord
  2
Standard
 70
     0
 40
0.0
 41
1.0
 50
0.0
 71
     0
 42
0.125
  3
txt
  4

  0
STYLE
  5
1CB
330
3
100
AcDbSymbolTableRecord
100
AcDbTextStyleTableRecord
  2
SLDTEXTSTYLE0
 70
     0
 40
0.0
 41
0.7
 50
0.0
 71
     0
 42
0.125
  3
TXT
  4

  0
ENDTAB
  0
TABLE
  2
VIEW
  5
6
330
0
100
AcDbSymbolTable
 70
     0
  0
ENDTAB
  0
TABLE
  2
UCS
  5
7
330
0
100
AcDbSymbolTable
 70
     0
  0
ENDTAB
  0
TABLE
  2
APPID
  5
9
330
0
100
AcDbSymbolTable
 70
     1
  0
APPID
  5
12
330
9
100
AcDbSymbolTableRecord
100
AcDbRegAppTableRecord
  2
ACAD
 70
     0
  0
ENDTAB
  0
TABLE
  2
DIMSTYLE
  5
A
330
0
100
AcDbSymbolTable
 70
     1
100
AcDbDimStyleTable
  0
DIMSTYLE
105
27
330
A
100
AcDbSymbolTableRecord
100
AcDbDimStyleTableRecord
  2
Standard
 70
     0
178
     0
340
11
  0
ENDTAB
  0
TABLE
  2
BLOCK_RECORD
  5
1
330
0
100
AcDbSymbolTable
 70
     1
  0
BLOCK_RECORD
  5
1F
330
1
100
AcDbSymbolTableRecord
100
AcDbBlockTableRecord
  2
*Model_Space
340
22
  0
BLOCK_RECORD
  5
1B
330
1
100
AcDbSymbolTableRecord
100
AcDbBlockTableRecord
  2
*Paper_Space
340
1E
  0
BLOCK_RECORD
  5
23
330
1
100
AcDbSymbolTableRecord
100
AcDbBlockTableRecord
  2
*Paper_Space0
340
26
  0
ENDTAB
  0
ENDSEC
  0
SECTION
  2
BLOCKS
  0
BLOCK
  5
20
330
1F
100
AcDbEntity
  8
0
100
AcDbBlockBegin
  2
*Model_Space
 70
     0
 10
0.0
 20
0.0
 30
0.0
  3
*Model_Space
  1

  0
ENDBLK
  5
21
330
1F
100
AcDbEntity
  8
0
100
AcDbBlockEnd
  0
BLOCK
  5
1C
330
1B
100
AcDbEntity
 67
     1
  8
0
100
AcDbBlockBegin
  2
*Paper_Space
 70
     0
 10
0.0
 20
0.0
 30
0.0
  3
*Paper_Space
  1

  0
ENDBLK
  5
1D
330
1B
100
AcDbEntity
 67
     1
  8
0
100
AcDbBlockEnd
  0
BLOCK
  5
24
330
23
100
AcDbEntity
  8
0
100
AcDbBlockBegin
  2
*Paper_Space0
 70
     0
 10
0.0
 20
0.0
 30
0.0
  3
*Paper_Space0
  1

  0
ENDBLK
  5
25
330
23
100
AcDbEntity
  8
0
100
AcDbBlockEnd
  0
ENDSEC
  0
SECTION
  2
ENTITIES
  0
LINE
  5
63
330
1F
100
AcDbEntity
  8
0
  6
Continuous
 62
     7
100
AcDbLine
 10
0.0
 20
0.0
 30
0.0
 11
18.0
 21
0.0
 31
0.0
  0
LINE
  5
64
330
1F
100
AcDbEntity
  8
0
  6
Continuous
 62
     7
100
AcDbLine
 10
0.0
 20
0.0
 30
0.0
 11
0.0
 21
14.0
 31
0.0
  0
LINE
  5
65
330
1F
100
AcDbEntity
  8
0
  6
Continuous
 62
     7
100
AcDbLine
 10
0.0
 20
14.0
 30
0.0
 11
18.0
 21
14.0
 31
0.0
  0
LINE
  5
66
330
1F
100
AcDbEntity
  8
0
  6
Continuous
 62
     7
100
AcDbLine
 10
18.0
 20
0.0
 30
0.0
 11
18.0
 21
14.0
 31
0.0
  0
SPLINE
  5
6C
330
1F
100
AcDbEntity
  8
0
  6
Continuous
 62
     7
370
    25
100
AcDbSpline
210
0.0
220
0.0
230
1.0
 70
     8
 71
     3
 72
    11
 73
     7
 74
     0
 42
0.00000001
 43
0.00000001
 40
0.0
 40
0.0
 40
0.0
 40
0.0
 40
0.2799986607974302
 40
0.5600007332567607
 40
0.7799993327214526
 40
1.0
 40
1.0
 40
1.0
 40
1.0
 10
5.08844521177421
 20
12.08546526914813
 30
0.0
 10
4.803608847632615
 20
12.11858642831428
 30
0.0
 10
4.233932648742212
 20
12.1848291502135
 30
0.0
 10
3.441828333924572
 20
12.28762508435167
 30
0.0
 10
2.709186294823996
 20
12.37288659164523
 30
0.0
 10
2.259340144151463
 20
12.40043392512351
 30
0.0
 10
2.034416011770134
 20
12.41420765659316
 30
0.0
  0
SPLINE
  5
72
330
1F
100
AcDbEntity
  8
0
  6
Continuous
 62
     7
370
    25
100
AcDbSpline
210
0.0
220
0.0
230
1.0
 70
     8
 71
     3
 72
    17
 73
    13
 74
     0
 42
0.00000001
 43
0.00000001
 40
0.0
 40
0.0
 40
0.0
 40
0.0
 40
0.1119964269409702
 40
0.2239952717309726
 40
0.3359941769577473
 40
0.4479934720444969
 40
0.5599926074525661
 40
0.6479946781857044
 40
0.7359957805007261
 40
0.8239980565909336
 40
0.9119991283966068
 40
0.9999999999999999
 40
0.9999999999999999
 40
0.9999999999999999
 40
0.9999999999999999
 10
17.06374664529689
 20
12.68906726500522
 30
0.0
 10
16.6545088289923
 20
12.61173761853885
 30
0.0
 10
15.83602436150075
 20
12.45707665616527
 30
0.0
 10
14.60036806182991
 20
12.2705649317193
 30
0.0
 10
13.3600830399436
 20
12.11898725849836
 30
0.0
 10
12.11615514022486
 20
12.00080998775006
 30
0.0
 10
10.95865024394624
 20
11.92050470929162
 30
0.0
 10
9.888698115627077
 20
11.87282912401756
 30
0.0
 10
8.907000836147832
 20
11.85575264897713
 30
0.0
 10
7.925273353441736
 20
11.87084078322463
 30
0.0
 10
6.944460159766253
 20
11.9170497761166
 30
0.0
 10
6.292173196101457
 20
11.97069231260981
 30
0.0
 10
5.966030085257401
 20
11.99751355034722
 30
0.0
  0
SPLINE
  5
C5
330
1F
100
AcDbEntity
  8
0
  6
Continuous
 62
     7
370
    25
100
AcDbSpline
210
0.0
220
0.0
230
1.0
 70
     8
 71
     3
 72
    45
 73
    41
 74
     0
 42
0.00000001
 43
0.00000001
 40
0.0
 40
0.0
 40
0.0
 40
0.0
 40
0.0087713840383186
 40
0.0175148865561203
 40
0.0209531357425057
 40
0.0243895612873255
 40
0.0278246801795664
 40
0.0312399802555077
 40
0.0355984545517548
 40
0.0399703902751279
 40
0.0443460759776128
 40
0.0487366882076008
 40
0.055624399777664
 40
0.0625108624136019
 40
0.0775139615544086
 40
0.0925193602763519
 40
0.1075248401934312
 40
0.122529084308555
 40
0.1375323062166716
 40
0.1525358686159196
 40
0.1675380856069017
 40
0.1950382784761344
 40
0.2225387400341522
 40
0.250039237516935
 40
0.2892365642089778
 40
0.3284345579927298
 40
0.3676328918794803
 40
0.406831652707344
 40
0.4460304521600174
 40
0.4852296011139675
 40
0.5314272452293193
 40
0.577625043305269
 40
0.6238231214731474
 40
0.6700208258861903
 40
0.7250174815448803
 40
0.7800139291932598
 40
0.8350104591306302
 40
0.8900070564743098
 40
0.9450036863881934
 40
1.0
 40
1.0
 40
1.0
 40
1.0
 10
1.058646174072713
 20
12.37892293505049
 30
0.0
 10
1.004972075468048
 20
12.36974616656373
 30
0.0
 10
0.897794491639106
 20
12.35142179970266
 30
0.0
 10
0.7728751239274386
 20
12.31365489115936
 30
0.0
 10
0.6833461314544261
 20
12.27642466853772
 30
0.0
 10
0.6264386670761296
 20
12.24698080124301
 30
0.0
 10
0.5728889074547556
 20
12.21208409861092
 30
0.0
 10
0.5246929813020194
 20
12.15920858706764
 30
0.0
 10
0.5076208798405903
 20
12.08335954209845
 30
0.0
 10
0.5037508421127469
 20
12.00230450400812
 30
0.0
 10
0.5130300901259516
 20
11.92087819001452
 30
0.0
 10
0.5357587271621987
 20
11.82633387609264
 30
0.0
 10
0.5743782907938703
 20
11.72009051424521
 30
0.0
 10
0.6541425194504638
 20
11.56004037934271
 30
0.0
 10
0.7850607481279404
 20
11.37079365686783
 30
0.0
 10
0.9739588950403355
 20
11.16433409382756
 30
0.0
 10
1.18259754522304
 20
10.97806632048059
 30
0.0
 10
1.405202265442089
 20
10.80900847176566
 30
0.0
 10
1.638307977784264
 20
10.65488509582162
 30
0.0
 10
1.87958838027167
 20
10.51401463471668
 30
0.0
 10
2.196069860475301
 20
10.34899769388694
 30
0.0
 10
2.592869176274289
 20
10.17137153867216
 30
0.0
 10
3.072593420738499
 20
9.991976215680129
 30
0.0
 10
3.630505064101321
 20
9.816980812041214
 30
0.0
 10
4.268077069466603
 20
9.656295904132683
 30
0.0
 10
4.985092779067029
 20
9.519287460178733
 30
0.0
 10
5.708183848295647
 20
9.419498418123505
 30
0.0
 10
6.435223141196726
 20
9.35461016320337
 30
0.0
 10
7.164546351346252
 20
9.324708569959578
 30
0.0
 10
7.937881172006678
 20
9.329303716196542
 30
0.0
 10
8.753528394117408
 20
9.374485298331187
 30
0.0
 10
9.608900742138008
 20
9.466487759250025
 30
0.0
 10
10.45855841421776
 20
9.601319841685324
 30
0.0
 10
11.35414930602708
 20
9.788068918041377
 30
0.0
 10
12.29301776205032
 20
10.02951529568511
 30
0.0
 10
13.27549776691254
 20
10.31758782708597
 30
0.0
 10
14.25015067019452
 20
10.63105426811304
 30
0.0
 10
15.21757800830386
 20
10.96600561723367
 30
0.0
 10
16.17936443002659
 20
11.31686972768875
 30
0.0
 10
16.81557672962015
 20
11.56391095206613
 30
0.0
 10
17.13368196465248
 20
11.68743120905179
 30
0.0
  0
SPLINE
  5
CB
330
1F
100
AcDbEntity
  8
0
  6
Continuous
 62
     7
370
    25
100
AcDbSpline
210
0.0
220
0.0
230
1.0
 70
     8
 71
     3
 72
    11
 73
     7
 74
     0
 42
0.00000001
 43
0.00000001
 40
0.0
 40
0.0
 40
0.0
 40
0.0
 40
0.2799986607974302
 40
0.5600007332567607
 40
0.7799993327214526
 40
1.0
 40
1.0
 40
1.0
 40
1.0
 10
5.457021776634667
 20
7.853037137683608
 30
0.0
 10
5.172185412493072
 20
7.88615829684976
 30
0.0
 10
4.60250921360267
 20
7.952401018748981
 30
0.0
 10
3.81040489878503
 20
8.055196952887151
 30
0.0
 10
3.077762859684453
 20
8.140458460180707
 30
0.0
 10
2.62791670901192
 20
8.168005793658988
 30
0.0
 10
2.402992576630591
 20
8.181779525128643
 30
0.0
  0
SPLINE
  5
D1
330
1F
100
AcDbEntity
  8
0
  6
Continuous
 62
     7
370
    25
100
AcDbSpline
210
0.0
220
0.0
230
1.0
 70
     8
 71
     3
 72
    17
 73
    13
 74
     0
 42
0.00000001
 43
0.00000001
 40
0.0
 40
0.0
 40
0.0
 40
0.0
 40
0.1119964269409702
 40
0.2239952717309726
 40
0.3359941769577473
 40
0.4479934720444969
 40
0.5599926074525661
 40
0.6479946781857044
 40
0.7359957805007261
 40
0.8239980565909336
 40
0.9119991283966068
 40
0.9999999999999999
 40
0.9999999999999999
 40
0.9999999999999999
 40
0.9999999999999999
 10
17.43232321015735
 20
8.456639133540692
 30
0.0
 10
17.02308539385275
 20
8.379309487074329
 30
0.0
 10
16.2046009263612
 20
8.224648524700745
 30
0.0
 10
14.96894462669036
 20
8.038136800254776
 30
0.0
 10
13.72865960480405
 20
7.886559127033842
 30
0.0
 10
12.48473170508532
 20
7.768381856285536
 30
0.0
 10
11.32722680880669
 20
7.688076577827101
 30
0.0
 10
10.25727468048753
 20
7.640400992553035
 30
0.0
 10
9.275577401008292
 20
7.623324517512606
 30
0.0
 10
8.29384991830219
 20
7.63841265176011
 30
0.0
 10
7.313036724626711
 20
7.684621644652078
 30
0.0
 10
6.660749760961914
 20
7.738264181145291
 30
0.0
 10
6.334606650117857
 20
7.765085418882699
 30
0.0
  0
SPLINE
  5
121
330
1F
100
AcDbEntity
  8
0
  6
Continuous
 62
     7
370
    25
100
AcDbSpline
210
0.0
220
0.0
230
1.0
 70
     8
 71
     3
 72
    45
 73
    41
 74
     0
 42
0.00000001
 43
0.00000001
 40
0.0
 40
0.0
 40
0.0
 40
0.0
 40
0.0087713840383186
 40
0.0175148865561203
 40
0.0209531357425057
 40
0.0243895612873255
 40
0.0278246801795664
 40
0.0312399802555077
 40
0.0355984545517548
 40
0.0399703902751279
 40
0.0443460759776128
 40
0.0487366882076008
 40
0.055624399777664
 40
0.0625108624136019
 40
0.0775139615544086
 40
0.0925193602763519
 40
0.1075248401934312
 40
0.122529084308555
 40
0.1375323062166716
 40
0.1525358686159196
 40
0.1675380856069017
 40
0.1950382784761344
 40
0.2225387400341522
 40
0.250039237516935
 40
0.2892365642089778
 40
0.3284345579927298
 40
0.3676328918794803
 40
0.406831652707344
 40
0.4460304521600174
 40
0.4852296011139675
 40
0.5314272452293193
 40
0.577625043305269
 40
0.6238231214731474
 40
0.6700208258861903
 40
0.7250174815448803
 40
0.7800139291932598
 40
0.8350104591306302
 40
0.8900070564743098
 40
0.9450036863881934
 40
1.0
 40
1.0
 40
1.0
 40
1.0
 10
1.42722273893317
 20
8.146494803585965
 30
0.0
 10
1.373548640328504
 20
8.137318035099204
 30
0.0
 10
1.266371056499563
 20
8.11899366823814
 30
0.0
 10
1.141451688787896
 20
8.081226759694841
 30
0.0
 10
1.051922696314883
 20
8.043996537073197
 30
0.0
 10
0.9950152319365866
 20
8.014552669778492
 30
0.0
 10
0.9414654723152126
 20
7.979655967146394
 30
0.0
 10
0.8932695461624763
 20
7.92678045560312
 30
0.0
 10
0.8761974447010472
 20
7.850931410633924
 30
0.0
 10
0.8723274069732038
 20
7.769876372543602
 30
0.0
 10
0.8816066549864086
 20
7.688450058549996
 30
0.0
 10
0.9043352920226556
 20
7.593905744628117
 30
0.0
 10
0.9429548556543271
 20
7.487662382780685
 30
0.0
 10
1.02271908431092
 20
7.32761224787819
 30
0.0
 10
1.153637312988397
 20
7.138365525403307
 30
0.0
 10
1.342535459900792
 20
6.931905962363045
 30
0.0
 10
1.551174110083497
 20
6.745638189016073
 30
0.0
 10
1.773778830302546
 20
6.57658034030114
 30
0.0
 10
2.006884542644721
 20
6.422456964357101
 30
0.0
 10
2.248164945132127
 20
6.281586503252151
 30
0.0
 10
2.564646425335758
 20
6.116569562422427
 30
0.0
 10
2.961445741134745
 20
5.938943407207637
 30
0.0
 10
3.441169985598957
 20
5.759548084215609
 30
0.0
 10
3.999081628961778
 20
5.584552680576693
 30
0.0
 10
4.636653634327061
 20
5.423867772668161
 30
0.0
 10
5.353669343927485
 20
5.28685932871421
 30
0.0
 10
6.076760413156104
 20
5.187070286658983
 30
0.0
 10
6.803799706057184
 20
5.122182031738846
 30
0.0
 10
7.533122916206708
 20
5.092280438495057
 30
0.0
 10
8.306457736867133
 20
5.096875584732023
 30
0.0
 10
9.122104958977866
 20
5.142057166866666
 30
0.0
 10
9.977477306998464
 20
5.234059627785501
 30
0.0
 10
10.82713497907822
 20
5.368891710220804
 30
0.0
 10
11.72272587088754
 20
5.555640786576855
 30
0.0
 10
12.66159432691078
 20
5.797087164220589
 30
0.0
 10
13.64407433177299
 20
6.08515969562145
 30
0.0
 10
14.61872723505498
 20
6.398626136648512
 30
0.0
 10
15.58615457316432
 20
6.733577485769156
 30
0.0
 10
16.54794099488705
 20
7.084441596224232
 30
0.0
 10
17.18415329448062
 20
7.331482820601603
 30
0.0
 10
17.50225852951294
 20
7.455003077587267
 30
0.0
  0
LINE
  5
125
330
1F
100
AcDbEntity
  8
0
  6
Continuous
 62
     7
370
    25
100
AcDbLine
 10
1.1646617583
 20
13.1693528345
 30
0.0
 11
1.1646617583
 21
12.5024728924
 31
0.0
  0
LINE
  5
126
330
1F
100
AcDbEntity
  8
0
  6
Continuous
 62
     7
370
    25
100
AcDbLine
 10
1.9146617583
 20
12.5390975367
 30
0.0
 11
1.9146617583
 21
13.1693528345
 31
0.0
  0
LINE
  5
127
330
1F
100
AcDbEntity
  8
0
  6
Continuous
 62
     7
370
    25
100
AcDbLine
 10
5.2271617583
 20
12.7879266004
 30
0.0
 11
5.2271617583
 21
12.2097104153
 31
0.0
  0
LINE
  5
128
330
1F
100
AcDbEntity
  8
0
  6
Continuous
 62
     7
370
    25
100
AcDbLine
 10
5.8521617583
 20
12.1220169072
 30
0.0
 11
5.8521617583
 21
12.7879266004
 31
0.0
  0
LINE
  5
129
330
1F
100
AcDbEntity
  8
0
  6
Continuous
 62
     7
370
    25
100
AcDbLine
 10
17.212889122
 20
12.5664208594
 30
0.0
 11
17.212889122
 21
11.8037412067
 31
0.0
  0
LINE
  5
12A
330
1F
100
AcDbEntity
  8
0
  6
Continuous
 62
     7
370
    25
100
AcDbLine
 10
15.7955792239
 20
12.0233032481
 30
0.0
 11
15.8802194451
 21
11.6861546926
 31
0.0
  0
LINE
  5
12B
330
1F
100
AcDbEntity
  8
0
  6
Continuous
 62
     7
370
    25
100
AcDbLine
 10
14.0244378187
 20
11.8918263439
 30
0.0
 11
15.6572876422
 21
12.1166980314
 31
0.0
  0
LINE
  5
12C
330
1F
100
AcDbEntity
  8
0
  6
Continuous
 62
     7
370
    25
100
AcDbLine
 10
14.0792390388
 20
11.1099719901
 30
0.0
 11
13.9203192068
 21
11.7372987039
 31
0.0
  0
LINE
  5
12D
330
1F
100
AcDbEntity
  8
0
  6
Continuous
 62
     7
370
    25
100
AcDbLine
 10
15.7980794916
 20
11.5369901953
 30
0.0
 11
14.2585568233
 21
11.0300153285
 31
0.0
  0
LINE
  5
12E
330
1F
100
AcDbEntity
  8
0
  6
Continuous
 62
     7
370
    25
100
AcDbLine
 10
1.3195855821
 20
11.9202269142
 30
0.0
 11
1.8416984528
 21
11.9011303329
 31
0.0
  0
LINE
  5
12F
330
1F
100
AcDbEntity
  8
0
  6
Continuous
 62
     7
370
    25
100
AcDbLine
 10
1.7403305459
 20
11.0771890483
 30
0.0
 11
1.2182176752
 21
11.7162221943
 31
0.0
  0
LINE
  5
130
330
1F
100
AcDbEntity
  8
0
  6
Continuous
 62
     7
370
    25
100
AcDbLine
 10
1.9621295603
 20
11.7762138599
 30
0.0
 11
1.9621295603
 21
11.1562772953
 31
0.0
  0
LINE
  5
131
330
1F
100
AcDbEntity
  8
0
  6
Continuous
 62
     7
370
    25
100
AcDbLine
 10
4.8087954671
 20
11.4767727884
 30
0.0
 11
3.3762544182
 21
10.3342198061
 31
0.0
  0
LINE
  5
132
330
1F
100
AcDbEntity
  8
0
  6
Continuous
 62
     7
370
    25
100
AcDbLine
 10
3.313940802
 20
11.8790397067
 30
0.0
 11
4.7464818509
 21
11.6985162412
 31
0.0
  0
LINE
  5
133
330
1F
100
AcDbEntity
  8
0
  6
Continuous
 62
     7
370
    25
100
AcDbLine
 10
3.1733123712
 20
10.4319440985
 30
0.0
 11
3.1733123712
 21
11.7550205463
 31
0.0
  0
LINE
  5
134
330
1F
100
AcDbEntity
  8
0
  6
Continuous
 62
     7
370
    25
100
AcDbLine
 10
5.5474845011
 20
11.3606223823
 30
0.0
 11
5.7346888369
 21
9.9485668211
 31
0.0
  0
LINE
  5
135
330
1F
100
AcDbEntity
  8
0
  6
Continuous
 62
     7
370
    25
100
AcDbLine
 10
3.9550506474
 20
10.3348060351
 30
0.0
 11
5.3457114273
 21
11.4419859637
 31
0.0
  0
LINE
  5
136
330
1F
100
AcDbEntity
  8
0
  6
Continuous
 62
     7
370
    25
100
AcDbLine
 10
5.587059156
 20
9.8094086102
 30
0.0
 11
4.0091940403
 21
10.1142842427
 31
0.0
  0
LINE
  5
137
330
1F
100
AcDbEntity
  8
0
  6
Continuous
 62
     7
370
    25
100
AcDbLine
 10
7.2602885572
 20
11.3326374908
 30
0.0
 11
6.3274976258
 21
10.0379440669
 31
0.0
  0
LINE
  5
138
330
1F
100
AcDbEntity
  8
0
  6
Continuous
 62
     7
370
    25
100
AcDbLine
 10
6.0431574424
 20
11.5815503835
 30
0.0
 11
7.1645454473
 21
11.5305782015
 31
0.0
  0
LINE
  5
139
330
1F
100
AcDbEntity
  8
0
  6
Continuous
 62
     7
370
    25
100
AcDbLine
 10
6.1022884167
 20
10.0936643342
 30
0.0
 11
5.9136913432
 21
11.4393299401
 31
0.0
  0
LINE
  5
13A
330
1F
100
AcDbEntity
  8
0
  6
Continuous
 62
     7
370
    25
100
AcDbLine
 10
7.8616172272
 20
11.1042268077
 30
0.0
 11
7.9352641498
 21
9.8473193283
 31
0.0
  0
LINE
  5
13B
330
1F
100
AcDbEntity
  8
0
  6
Continuous
 62
     7
370
    25
100
AcDbLine
 10
6.7555364013
 20
9.9116367202
 30
0.0
 11
7.6343896779
 21
11.1685441996
 31
0.0
  0
LINE
  5
13C
330
1F
100
AcDbEntity
  8
0
  6
Continuous
 62
     7
370
    25
100
AcDbLine
 10
7.8104781756
 20
9.7150076501
 30
0.0
 11
6.8579779764
 21
9.7150076501
 31
0.0
  0
LINE
  5
13D
330
1F
100
AcDbEntity
  8
0
  6
Continuous
 62
     7
370
    25
100
AcDbLine
 10
8.8124766508
 20
9.8932507645
 30
0.0
 11
8.5923402984
 21
11.1146786933
 31
0.0
  0
LINE
  5
13E
330
1F
100
AcDbEntity
  8
0
  6
Continuous
 62
     7
370
    25
100
AcDbLine
 10
9.9881934742
 20
9.9230448393
 30
0.0
 11
8.9512353929
 21
9.7914171818
 31
0.0
  0
LINE
  5
13F
330
1F
100
AcDbEntity
  8
0
  6
Continuous
 62
     7
370
    25
100
AcDbLine
 10
8.7972382848
 20
11.2312993608
 30
0.0
 11
10.0543327186
 21
10.1414990895
 31
0.0
  0
LINE
  5
140
330
1F
100
AcDbEntity
  8
0
  6
Continuous
 62
     7
370
    25
100
AcDbLine
 10
11.2977520703
 20
11.4236657853
 30
0.0
 11
10.8148316459
 21
10.2434013844
 31
0.0
  0
LINE
  5
141
330
1F
100
AcDbEntity
  8
0
  6
Continuous
 62
     7
370
    25
100
AcDbLine
 10
9.4543676238
 20
11.5059873432
 30
0.0
 11
11.1755455467
 21
11.5958320748
 31
0.0
  0
LINE
  5
142
330
1F
100
AcDbEntity
  8
0
  6
Continuous
 62
     7
370
    25
100
AcDbLine
 10
10.6165305606
 20
10.1969267372
 30
0.0
 11
9.3782730621
 21
11.2873464065
 31
0.0
  0
LINE
  5
143
330
1F
100
AcDbEntity
  8
0
  6
Continuous
 62
     7
370
    25
100
AcDbLine
 10
12.758365134
 20
10.589001701
 30
0.0
 11
11.4770031915
 21
10.2772267525
 31
0.0
  0
LINE
  5
144
330
1F
100
AcDbEntity
  8
0
  6
Continuous
 62
     7
370
    25
100
AcDbLine
 10
11.9533974313
 20
11.5254078361
 30
0.0
 11
12.8092350363
 21
10.8061518408
 31
0.0
  0
LINE
  5
145
330
1F
100
AcDbEntity
  8
0
  6
Continuous
 62
     7
370
    25
100
AcDbLine
 10
11.3319050119
 20
10.4463710176
 30
0.0
 11
11.7574293494
 21
11.4774019614
 31
0.0
  0
LINE
  5
146
330
1F
100
AcDbEntity
  8
0
  6
Continuous
 62
     7
370
    25
100
AcDbLine
 10
13.1542077217
 20
11.6500525895
 30
0.0
 11
13.4757383578
 21
10.9081392005
 31
0.0
  0
LINE
  5
147
330
1F
100
AcDbEntity
  8
0
  6
Continuous
 62
     7
370
    25
100
AcDbLine
 10
12.4911997184
 20
11.6982094345
 30
0.0
 11
13.0333010427
 21
11.7251925659
 31
0.0
  0
LINE
  5
148
330
1F
100
AcDbEntity
  8
0
  6
Continuous
 62
     7
370
    25
100
AcDbLine
 10
13.2813366477
 20
10.7621454201
 30
0.0
 11
12.4177046873
 21
11.4770756777
 31
0.0
  0
LINE
  5
149
330
1F
100
AcDbEntity
  8
0
  6
Continuous
 62
     7
370
    25
100
AcDbLine
 10
1.5332383231
 20
8.936924703
 30
0.0
 11
1.5332383231
 21
8.2700447609
 31
0.0
  0
LINE
  5
14A
330
1F
100
AcDbEntity
  8
0
  6
Continuous
 62
     7
370
    25
100
AcDbLine
 10
2.2832383231
 20
8.3066694052
 30
0.0
 11
2.2832383231
 21
8.936924703
 31
0.0
  0
LINE
  5
14B
330
1F
100
AcDbEntity
  8
0
  6
Continuous
 62
     7
370
    25
100
AcDbLine
 10
5.5957383231
 20
8.5554984689
 30
0.0
 11
5.5957383231
 21
7.9772822839
 31
0.0
  0
LINE
  5
14C
330
1F
100
AcDbEntity
  8
0
  6
Continuous
 62
     7
370
    25
100
AcDbLine
 10
6.2207383231
 20
7.8895887757
 30
0.0
 11
6.2207383231
 21
8.5554984689
 31
0.0
  0
LINE
  5
14D
330
1F
100
AcDbEntity
  8
0
  6
Continuous
 62
     7
370
    25
100
AcDbLine
 10
16.1641557887
 20
7.7908751166
 30
0.0
 11
16.2487960099
 21
7.4537265612
 31
0.0
  0
LINE
  5
14E
330
1F
100
AcDbEntity
  8
0
  6
Continuous
 62
     7
370
    25
100
AcDbLine
 10
14.3930143835
 20
7.6593982125
 30
0.0
 11
16.0258642071
 21
7.8842698999
 31
0.0
  0
LINE
  5
14F
330
1F
100
AcDbEntity
  8
0
  6
Continuous
 62
     7
370
    25
100
AcDbLine
 10
14.4478156037
 20
6.8775438587
 30
0.0
 11
14.2888957717
 21
7.5048705724
 31
0.0
  0
LINE
  5
150
330
1F
100
AcDbEntity
  8
0
  6
Continuous
 62
     7
370
    25
100
AcDbLine
 10
16.1666560564
 20
7.3045620638
 30
0.0
 11
14.6271333881
 21
6.797587197
 31
0.0
  0
LINE
  5
151
330
1F
100
AcDbEntity
  8
0
  6
Continuous
 62
     7
370
    25
100
AcDbLine
 10
1.688162147
 20
7.6877987828
 30
0.0
 11
2.2102750177
 21
7.6687022014
 31
0.0
  0
LINE
  5
152
330
1F
100
AcDbEntity
  8
0
  6
Continuous
 62
     7
370
    25
100
AcDbLine
 10
2.1089071108
 20
6.8447609168
 30
0.0
 11
1.5867942401
 21
7.4837940628
 31
0.0
  0
LINE
  5
153
330
1F
100
AcDbEntity
  8
0
  6
Continuous
 62
     7
370
    25
100
AcDbLine
 10
2.3307061252
 20
7.5437857285
 30
0.0
 11
2.3307061252
 21
6.9238491638
 31
0.0
  0
LINE
  5
154
330
1F
100
AcDbEntity
  8
0
  6
Continuous
 62
     7
370
    25
100
AcDbLine
 10
5.1773720319
 20
7.244344657
 30
0.0
 11
3.744830983
 21
6.1017916747
 31
0.0
  0
LINE
  5
155
330
1F
100
AcDbEntity
  8
0
  6
Continuous
 62
     7
370
    25
100
AcDbLine
 10
3.6825173669
 20
7.6466115753
 30
0.0
 11
5.1150584158
 21
7.4660881098
 31
0.0
  0
LINE
  5
156
330
1F
100
AcDbEntity
  8
0
  6
Continuous
 62
     7
370
    25
100
AcDbLine
 10
3.5418889361
 20
6.199515967
 30
0.0
 11
3.5418889361
 21
7.5225924149
 31
0.0
  0
LINE
  5
157
330
1F
100
AcDbEntity
  8
0
  6
Continuous
 62
     7
370
    25
100
AcDbLine
 10
5.916061066
 20
7.1281942508
 30
0.0
 11
6.1032654018
 21
5.7161386897
 31
0.0
  0
LINE
  5
158
330
1F
100
AcDbEntity
  8
0
  6
Continuous
 62
     7
370
    25
100
AcDbLine
 10
4.3236272122
 20
6.1023779036
 30
0.0
 11
5.7142879921
 21
7.2095578322
 31
0.0
  0
LINE
  5
159
330
1F
100
AcDbEntity
  8
0
  6
Continuous
 62
     7
370
    25
100
AcDbLine
 10
5.9556357208
 20
5.5769804787
 30
0.0
 11
4.3777706052
 21
5.8818561112
 31
0.0
  0
LINE
  5
15A
330
1F
100
AcDbEntity
  8
0
  6
Continuous
 62
     7
370
    25
100
AcDbLine
 10
7.6288651221
 20
7.1002093594
 30
0.0
 11
6.6960741907
 21
5.8055159355
 31
0.0
  0
LINE
  5
15B
330
1F
100
AcDbEntity
  8
0
  6
Continuous
 62
     7
370
    25
100
AcDbLine
 10
6.4117340072
 20
7.3491222521
 30
0.0
 11
7.5331220122
 21
7.29815007
 31
0.0
  0
LINE
  5
15C
330
1F
100
AcDbEntity
  8
0
  6
Continuous
 62
     7
370
    25
100
AcDbLine
 10
6.4708649816
 20
5.8612362027
 30
0.0
 11
6.282267908
 21
7.2069018086
 31
0.0
  0
LINE
  5
15D
330
1F
100
AcDbEntity
  8
0
  6
Continuous
 62
     7
370
    25
100
AcDbLine
 10
8.2301937921
 20
6.8717986762
 30
0.0
 11
8.3038407147
 21
5.6148911968
 31
0.0
  0
LINE
  5
15E
330
1F
100
AcDbEntity
  8
0
  6
Continuous
 62
     7
370
    25
100
AcDbLine
 10
7.1241129661
 20
5.6792085888
 30
0.0
 11
8.0029662427
 21
6.9361160681
 31
0.0
  0
LINE
  5
15F
330
1F
100
AcDbEntity
  8
0
  6
Continuous
 62
     7
370
    25
100
AcDbLine
 10
8.1790547405
 20
5.4825795187
 30
0.0
 11
7.2265545413
 21
5.4825795187
 31
0.0
  0
LINE
  5
160
330
1F
100
AcDbEntity
  8
0
  6
Continuous
 62
     7
370
    25
100
AcDbLine
 10
9.1810532157
 20
5.660822633
 30
0.0
 11
8.9609168632
 21
6.8822505618
 31
0.0
  0
LINE
  5
161
330
1F
100
AcDbEntity
  8
0
  6
Continuous
 62
     7
370
    25
100
AcDbLine
 10
10.3567700391
 20
5.6906167078
 30
0.0
 11
9.3198119578
 21
5.5589890504
 31
0.0
  0
LINE
  5
162
330
1F
100
AcDbEntity
  8
0
  6
Continuous
 62
     7
370
    25
100
AcDbLine
 10
9.1658148497
 20
6.9988712294
 30
0.0
 11
10.4229092834
 21
5.909070958
 31
0.0
  0
LINE
  5
163
330
1F
100
AcDbEntity
  8
0
  6
Continuous
 62
     7
370
    25
100
AcDbLine
 10
11.6663286352
 20
7.1912376539
 30
0.0
 11
11.1834082108
 21
6.0109732529
 31
0.0
  0
LINE
  5
164
330
1F
100
AcDbEntity
  8
0
  6
Continuous
 62
     7
370
    25
100
AcDbLine
 10
9.8229441887
 20
7.2735592117
 30
0.0
 11
11.5441221116
 21
7.3634039434
 31
0.0
  0
LINE
  5
165
330
1F
100
AcDbEntity
  8
0
  6
Continuous
 62
     7
370
    25
100
AcDbLine
 10
10.9851071255
 20
5.9644986057
 30
0.0
 11
9.746849627
 21
7.054918275
 31
0.0
  0
LINE
  5
166
330
1F
100
AcDbEntity
  8
0
  6
Continuous
 62
     7
370
    25
100
AcDbLine
 10
13.1269416989
 20
6.3565735696
 30
0.0
 11
11.8455797563
 21
6.044798621
 31
0.0
  0
LINE
  5
167
330
1F
100
AcDbEntity
  8
0
  6
Continuous
 62
     7
370
    25
100
AcDbLine
 10
12.3219739962
 20
7.2929797046
 30
0.0
 11
13.1778116012
 21
6.5737237093
 31
0.0
  0
LINE
  5
168
330
1F
100
AcDbEntity
  8
0
  6
Continuous
 62
     7
370
    25
100
AcDbLine
 10
11.7004815767
 20
6.2139428862
 30
0.0
 11
12.1260059143
 21
7.2449738299
 31
0.0
  0
LINE
  5
169
330
1F
100
AcDbEntity
  8
0
  6
Continuous
 62
     7
370
    25
100
AcDbLine
 10
13.5227842866
 20
7.417624458
 30
0.0
 11
13.8443149226
 21
6.6757110691
 31
0.0
  0
LINE
  5
16A
330
1F
100
AcDbEntity
  8
0
  6
Continuous
 62
     7
370
    25
100
AcDbLine
 10
12.8597762832
 20
7.465781303
 30
0.0
 11
13.4018776076
 21
7.4927644345
 31
0.0
  0
LINE
  5
16B
330
1F
100
AcDbEntity
  8
0
  6
Continuous
 62
     7
370
    25
100
AcDbLine
 10
13.6499132126
 20
6.5297172887
 30
0.0
 11
12.7862812522
 21
7.2446475462
 31
0.0
  0
LINE
  5
16C
330
1F
100
AcDbEntity
  8
0
  6
Continuous
 62
     7
370
    25
100
AcDbLine
 10
17.5814656869
 20
8.3339927279
 30
0.0
 11
17.5814656869
 21
7.5713130753
 31
0.0
  0
ARC
  5
16D
330
1F
100
AcDbEntity
  8
0
  6
Continuous
 62
     7
370
    25
100
AcDbCircle
 10
1.0396617583
 20
12.5024728924
 30
0.0
 40
0.1249999999999882
100
AcDbArc
 50
278.7356201313
 51
0.0
  0
ARC
  5
16E
330
1F
100
AcDbEntity
  8
0
  6
Continuous
 62
     7
370
    25
100
AcDbCircle
 10
1.5396617583
 20
13.1693528345
 30
0.0
 40
0.3750000000000002
100
AcDbArc
 50
0.0
 51
180.0
  0
ARC
  5
16F
330
1F
100
AcDbEntity
  8
0
  6
Continuous
 62
     7
370
    25
100
AcDbCircle
 10
2.0396617583
 20
12.5390975367
 30
0.0
 40
0.1249999999999871
100
AcDbArc
 50
180.0
 51
267.594820586
  0
ARC
  5
170
330
1F
100
AcDbEntity
  8
0
  6
Continuous
 62
     7
370
    25
100
AcDbCircle
 10
5.1021617583
 20
12.2097104153
 30
0.0
 40
0.1250000000000317
100
AcDbArc
 50
263.7001117733
 51
360.0
  0
ARC
  5
171
330
1F
100
AcDbEntity
  8
0
  6
Continuous
 62
     7
370
    25
100
AcDbCircle
 10
5.5396617583
 20
12.7879266004
 30
0.0
 40
0.3124999999999991
100
AcDbArc
 50
0.0
 51
180.0
  0
ARC
  5
172
330
1F
100
AcDbEntity
  8
0
  6
Continuous
 62
     7
370
    25
100
AcDbCircle
 10
5.9771617583
 20
12.1220169072
 30
0.0
 40
0.1250000000000169
100
AcDbArc
 50
180.0
 51
264.8908486731
  0
ARC
  5
173
330
1F
100
AcDbEntity
  8
0
  6
Continuous
 62
     7
370
    25
100
AcDbCircle
 10
17.087889122
 20
11.8037412067
 30
0.0
 40
0.1250000000000675
100
AcDbArc
 50
291.4902406814
 51
360.0
  0
ARC
  5
174
330
1F
100
AcDbEntity
  8
0
  6
Continuous
 62
     7
370
    25
100
AcDbCircle
 10
16.6432166298
 20
12.0735655191
 30
0.0
 40
0.1900000000000013
100
AcDbArc
 50
0.0
 51
180.0
  0
ARC
  5
175
330
1F
100
AcDbEntity
  8
0
  6
Continuous
 62
     7
370
    25
100
AcDbCircle
 10
16.6432166298
 20
12.0735655191
 30
0.0
 40
0.1900000000000013
100
AcDbArc
 50
180.0
 51
0.0
  0
ARC
  5
176
330
1F
100
AcDbEntity
  8
0
  6
Continuous
 62
     7
370
    25
100
AcDbCircle
 10
2.3284067053
 20
11.3536599441
 30
0.0
 40
0.1899999999999911
100
AcDbArc
 50
360.0
 51
180.0
  0
ARC
  5
177
330
1F
100
AcDbEntity
  8
0
  6
Continuous
 62
     7
370
    25
100
AcDbCircle
 10
2.3284067053
 20
11.3536599441
 30
0.0
 40
0.1899999999999911
100
AcDbArc
 50
180.0
 51
360.0
  0
ARC
  5
178
330
1F
100
AcDbEntity
  8
0
  6
Continuous
 62
     7
370
    25
100
AcDbCircle
 10
15.674341345
 20
11.9928668107
 30
0.0
 40
0.1249999999999231
100
AcDbArc
 50
14.092703517
 51
97.8412961387
  0
ARC
  5
179
330
1F
100
AcDbEntity
  8
0
  6
Continuous
 62
     7
370
    25
100
AcDbCircle
 10
14.0414915215
 20
11.7679951232
 30
0.0
 40
0.1249999999999712
100
AcDbArc
 50
97.8412961387
 51
194.2156015354
  0
ARC
  5
17A
330
1F
100
AcDbEntity
  8
0
  6
Continuous
 62
     7
370
    25
100
AcDbCircle
 10
14.2004113535
 20
11.1406684095
 30
0.0
 40
0.1249999999999774
100
AcDbArc
 50
194.2156015353
 51
297.7208207291
  0
ARC
  5
17B
330
1F
100
AcDbEntity
  8
0
  6
Continuous
 62
     7
370
    25
100
AcDbCircle
 10
15.7589815662
 20
11.6557182553
 30
0.0
 40
0.1250000000000228
100
AcDbArc
 50
288.2270516016
 51
14.092703517
  0
ARC
  5
17C
330
1F
100
AcDbEntity
  8
0
  6
Continuous
 62
     7
370
    25
100
AcDbCircle
 10
1.3150166896
 20
11.7953104413
 30
0.0
 40
0.125000000000197
100
AcDbArc
 50
87.9053073459
 51
219.2500478998
  0
ARC
  5
17D
330
1F
100
AcDbEntity
  8
0
  6
Continuous
 62
     7
370
    25
100
AcDbCircle
 10
1.8371295603
 20
11.1562772953
 30
0.0
 40
0.1250000000000004
100
AcDbArc
 50
219.2500478998
 51
0.0
  0
ARC
  5
17E
330
1F
100
AcDbEntity
  8
0
  6
Continuous
 62
     7
370
    25
100
AcDbCircle
 10
1.8371295603
 20
11.7762138599
 30
0.0
 40
0.1249999999999857
100
AcDbArc
 50
360.0
 51
87.9053073459
  0
ARC
  5
17F
330
1F
100
AcDbEntity
  8
0
  6
Continuous
 62
     7
370
    25
100
AcDbCircle
 10
4.7308534201
 20
11.5744970808
 30
0.0
 40
0.1249999999999965
100
AcDbArc
 50
308.5748417625
 51
82.8176592285
  0
ARC
  5
180
330
1F
100
AcDbEntity
  8
0
  6
Continuous
 62
     7
370
    25
100
AcDbCircle
 10
3.2983123712
 20
11.7550205463
 30
0.0
 40
0.1250000000000218
100
AcDbArc
 50
82.8176592285
 51
180.0
  0
ARC
  5
181
330
1F
100
AcDbEntity
  8
0
  6
Continuous
 62
     7
370
    25
100
AcDbCircle
 10
3.2983123712
 20
10.4319440985
 30
0.0
 40
0.1250000000000004
100
AcDbArc
 50
180.0
 51
308.5748417625
  0
ARC
  5
182
330
1F
100
AcDbEntity
  8
0
  6
Continuous
 62
     7
370
    25
100
AcDbCircle
 10
5.4235687498
 20
11.3441941576
 30
0.0
 40
0.1250000000000085
100
AcDbArc
 50
7.5519914314
 51
128.5251849597
  0
ARC
  5
183
330
1F
100
AcDbEntity
  8
0
  6
Continuous
 62
     7
370
    25
100
AcDbCircle
 10
4.0329079699
 20
10.237014229
 30
0.0
 40
0.125000000000134
100
AcDbArc
 50
128.5251849598
 51
259.0640555534
  0
ARC
  5
184
330
1F
100
AcDbEntity
  8
0
  6
Continuous
 62
     7
370
    25
100
AcDbCircle
 10
5.6107730855
 20
9.9321385965
 30
0.0
 40
0.1250000000000045
100
AcDbArc
 50
259.0640555534
 51
7.5519914314
  0
ARC
  5
185
330
1F
100
AcDbEntity
  8
0
  6
Continuous
 62
     7
370
    25
100
AcDbCircle
 10
7.1588694897
 20
11.405707134
 30
0.0
 40
0.1249999999999967
100
AcDbArc
 50
324.2282895049
 51
87.3974377975
  0
ARC
  5
186
330
1F
100
AcDbEntity
  8
0
  6
Continuous
 62
     7
370
    25
100
AcDbCircle
 10
6.0374814848
 20
11.456679316
 30
0.0
 40
0.1250000000027942
100
AcDbArc
 50
87.3974377975
 51
187.9781245155
  0
ARC
  5
187
330
1F
100
AcDbEntity
  8
0
  6
Continuous
 62
     7
370
    25
100
AcDbCircle
 10
6.2260785583
 20
10.1110137101
 30
0.0
 40
0.1249999999999913
100
AcDbArc
 50
187.9781245156
 51
324.2282895049
  0
ARC
  5
188
330
1F
100
AcDbEntity
  8
0
  6
Continuous
 62
     7
370
    25
100
AcDbCircle
 10
7.736831253
 20
11.0969151295
 30
0.0
 40
0.1250000000000079
100
AcDbArc
 50
3.3533404943
 51
145.0380326597
  0
ARC
  5
189
330
1F
100
AcDbEntity
  8
0
  6
Continuous
 62
     7
370
    25
100
AcDbCircle
 10
6.8579779764
 20
9.8400076501
 30
0.0
 40
0.1250000000000638
100
AcDbArc
 50
145.0380326597
 51
270.0
  0
ARC
  5
18A
330
1F
100
AcDbEntity
  8
0
  6
Continuous
 62
     7
370
    25
100
AcDbCircle
 10
7.8104781756
 20
9.8400076501
 30
0.0
 40
0.1249999999999893
100
AcDbArc
 50
270.0
 51
3.3533404943
  0
ARC
  5
18B
330
1F
100
AcDbEntity
  8
0
  6
Continuous
 62
     7
370
    25
100
AcDbCircle
 10
8.9354946583
 20
9.9154221385
 30
0.0
 40
0.1250000000000171
100
AcDbArc
 50
190.2166648343
 51
277.2342271341
  0
ARC
  5
18C
330
1F
100
AcDbEntity
  8
0
  6
Continuous
 62
     7
370
    25
100
AcDbCircle
 10
9.9724527396
 20
10.0470497959
 30
0.0
 40
0.1249999999999844
100
AcDbArc
 50
277.2342271341
 51
49.077329751
  0
ARC
  5
18D
330
1F
100
AcDbEntity
  8
0
  6
Continuous
 62
     7
370
    25
100
AcDbCircle
 10
8.7153583059
 20
11.1368500673
 30
0.0
 40
0.1250000000001779
100
AcDbArc
 50
49.077329751
 51
190.2166648343
  0
ARC
  5
18E
330
1F
100
AcDbEntity
  8
0
  6
Continuous
 62
     7
370
    25
100
AcDbCircle
 10
11.1820616204
 20
11.4710020272
 30
0.0
 40
0.1249999999999861
100
AcDbArc
 50
337.7474421909
 51
92.9881025071
  0
ARC
  5
18F
330
1F
100
AcDbEntity
  8
0
  6
Continuous
 62
     7
370
    25
100
AcDbCircle
 10
9.4608836975
 20
11.3811572956
 30
0.0
 40
0.1250000000000874
100
AcDbArc
 50
92.988102507
 51
228.6325907663
  0
ARC
  5
190
330
1F
100
AcDbEntity
  8
0
  6
Continuous
 62
     7
370
    25
100
AcDbCircle
 10
10.699141196
 20
10.2907376263
 30
0.0
 40
0.125000000000003
100
AcDbArc
 50
228.6325907663
 51
337.7474421909
  0
ARC
  5
191
330
1F
100
AcDbEntity
  8
0
  6
Continuous
 62
     7
370
    25
100
AcDbCircle
 10
12.7288129253
 20
10.7104581416
 30
0.0
 40
0.1249999999999934
100
AcDbArc
 50
283.6752042709
 51
49.9559110968
  0
ARC
  5
192
330
1F
100
AcDbEntity
  8
0
  6
Continuous
 62
     7
370
    25
100
AcDbCircle
 10
11.8729753203
 20
11.4297141369
 30
0.0
 40
0.125000000000013
100
AcDbArc
 50
49.9559110968
 51
157.5732119767
  0
ARC
  5
193
330
1F
100
AcDbEntity
  8
0
  6
Continuous
 62
     7
370
    25
100
AcDbCircle
 10
11.4474509828
 20
10.3986831931
 30
0.0
 40
0.1249999999999988
100
AcDbArc
 50
157.5732119766
 51
283.6752042709
  0
ARC
  5
194
330
1F
100
AcDbEntity
  8
0
  6
Continuous
 62
     7
370
    25
100
AcDbCircle
 10
13.0395152333
 20
11.6003471261
 30
0.0
 40
0.125000000000077
100
AcDbArc
 50
23.4309576207
 51
92.8495496876
  0
ARC
  5
195
330
1F
100
AcDbEntity
  8
0
  6
Continuous
 62
     7
370
    25
100
AcDbCircle
 10
12.4974139089
 20
11.5733639947
 30
0.0
 40
0.12500000000008
100
AcDbArc
 50
92.8495496876
 51
230.3814235214
  0
ARC
  5
196
330
1F
100
AcDbEntity
  8
0
  6
Continuous
 62
     7
370
    25
100
AcDbCircle
 10
13.3610458693
 20
10.8584337372
 30
0.0
 40
0.1249999999999951
100
AcDbArc
 50
230.3814235214
 51
23.4309576207
  0
ARC
  5
197
330
1F
100
AcDbEntity
  8
0
  6
Continuous
 62
     7
370
    25
100
AcDbCircle
 10
5.5396617583
 20
12.7879266004
 30
0.0
 40
0.1330000000000009
100
AcDbArc
 50
180.0
 51
0.0
  0
ARC
  5
198
330
1F
100
AcDbEntity
  8
0
  6
Continuous
 62
     7
370
    25
100
AcDbCircle
 10
5.5396617583
 20
12.7879266004
 30
0.0
 40
0.1330000000000009
100
AcDbArc
 50
0.0
 51
180.0
  0
ARC
  5
199
330
1F
100
AcDbEntity
  8
0
  6
Continuous
 62
     7
370
    25
100
AcDbCircle
 10
1.5396617583
 20
13.1693528345
 30
0.0
 40
0.133
100
AcDbArc
 50
180.0
 51
0.0
  0
ARC
  5
19A
330
1F
100
AcDbEntity
  8
0
  6
Continuous
 62
     7
370
    25
100
AcDbCircle
 10
1.5396617583
 20
13.1693528345
 30
0.0
 40
0.133
100
AcDbArc
 50
0.0
 51
180.0
  0
ARC
  5
19B
330
1F
100
AcDbEntity
  8
0
  6
Continuous
 62
     7
370
    25
100
AcDbCircle
 10
17.087889122
 20
12.5664208594
 30
0.0
 40
0.125000000000032
100
AcDbArc
 50
0.0
 51
101.1360771226
  0
ARC
  5
19C
330
1F
100
AcDbEntity
  8
0
  6
Continuous
 62
     7
370
    25
100
AcDbCircle
 10
1.4082383231
 20
8.2700447609
 30
0.0
 40
0.1249999999999838
100
AcDbArc
 50
278.7356201313
 51
0.0
  0
ARC
  5
19D
330
1F
100
AcDbEntity
  8
0
  6
Continuous
 62
     7
370
    25
100
AcDbCircle
 10
1.9082383231
 20
8.936924703
 30
0.0
 40
0.3750000000000004
100
AcDbArc
 50
0.0
 51
180.0
  0
ARC
  5
19E
330
1F
100
AcDbEntity
  8
0
  6
Continuous
 62
     7
370
    25
100
AcDbCircle
 10
2.4082383231
 20
8.3066694052
 30
0.0
 40
0.1249999999999893
100
AcDbArc
 50
180.0
 51
267.594820586
  0
ARC
  5
19F
330
1F
100
AcDbEntity
  8
0
  6
Continuous
 62
     7
370
    25
100
AcDbCircle
 10
5.4707383231
 20
7.9772822839
 30
0.0
 40
0.1250000000000314
100
AcDbArc
 50
263.7001117733
 51
360.0
  0
ARC
  5
1A0
330
1F
100
AcDbEntity
  8
0
  6
Continuous
 62
     7
370
    25
100
AcDbCircle
 10
5.9082383231
 20
8.5554984689
 30
0.0
 40
0.3125
100
AcDbArc
 50
0.0
 51
180.0
  0
ARC
  5
1A1
330
1F
100
AcDbEntity
  8
0
  6
Continuous
 62
     7
370
    25
100
AcDbCircle
 10
6.3457383231
 20
7.8895887757
 30
0.0
 40
0.125000000000016
100
AcDbArc
 50
180.0
 51
264.8908486731
  0
ARC
  5
1A2
330
1F
100
AcDbEntity
  8
0
  6
Continuous
 62
     7
370
    25
100
AcDbCircle
 10
17.0117931946
 20
7.8411373876
 30
0.0
 40
0.1900000000000013
100
AcDbArc
 50
0.0
 51
180.0
  0
ARC
  5
1A3
330
1F
100
AcDbEntity
  8
0
  6
Continuous
 62
     7
370
    25
100
AcDbCircle
 10
17.0117931946
 20
7.8411373876
 30
0.0
 40
0.1900000000000013
100
AcDbArc
 50
180.0
 51
0.0
  0
ARC
  5
1A4
330
1F
100
AcDbEntity
  8
0
  6
Continuous
 62
     7
370
    25
100
AcDbCircle
 10
2.6969832701
 20
7.1212318126
 30
0.0
 40
0.189999999999992
100
AcDbArc
 50
360.0
 51
180.0
  0
ARC
  5
1A5
330
1F
100
AcDbEntity
  8
0
  6
Continuous
 62
     7
370
    25
100
AcDbCircle
 10
2.6969832701
 20
7.1212318126
 30
0.0
 40
0.189999999999992
100
AcDbArc
 50
180.0
 51
360.0
  0
ARC
  5
1A6
330
1F
100
AcDbEntity
  8
0
  6
Continuous
 62
     7
370
    25
100
AcDbCircle
 10
16.0429179098
 20
7.7604386792
 30
0.0
 40
0.1249999999999264
100
AcDbArc
 50
14.092703517
 51
97.8412961387
  0
ARC
  5
1A7
330
1F
100
AcDbEntity
  8
0
  6
Continuous
 62
     7
370
    25
100
AcDbCircle
 10
14.4100680863
 20
7.5355669918
 30
0.0
 40
0.1249999999999739
100
AcDbArc
 50
97.8412961387
 51
194.2156015354
  0
ARC
  5
1A8
330
1F
100
AcDbEntity
  8
0
  6
Continuous
 62
     7
370
    25
100
AcDbCircle
 10
14.5689879183
 20
6.908240278
 30
0.0
 40
0.1249999999999754
100
AcDbArc
 50
194.2156015353
 51
297.7208207291
  0
ARC
  5
1A9
330
1F
100
AcDbEntity
  8
0
  6
Continuous
 62
     7
370
    25
100
AcDbCircle
 10
16.127558131
 20
7.4232901238
 30
0.0
 40
0.1250000000000261
100
AcDbArc
 50
288.2270516016
 51
14.092703517
  0
ARC
  5
1AA
330
1F
100
AcDbEntity
  8
0
  6
Continuous
 62
     7
370
    25
100
AcDbCircle
 10
1.6835932545
 20
7.5628823098
 30
0.0
 40
0.1250000000001862
100
AcDbArc
 50
87.9053073459
 51
219.2500478998
  0
ARC
  5
1AB
330
1F
100
AcDbEntity
  8
0
  6
Continuous
 62
     7
370
    25
100
AcDbCircle
 10
2.2057061252
 20
6.9238491638
 30
0.0
 40
0.1250000000000014
100
AcDbArc
 50
219.2500478998
 51
0.0
  0
ARC
  5
1AC
330
1F
100
AcDbEntity
  8
0
  6
Continuous
 62
     7
370
    25
100
AcDbCircle
 10
2.2057061252
 20
7.5437857285
 30
0.0
 40
0.1249999999999849
100
AcDbArc
 50
360.0
 51
87.9053073459
  0
ARC
  5
1AD
330
1F
100
AcDbEntity
  8
0
  6
Continuous
 62
     7
370
    25
100
AcDbCircle
 10
5.099429985
 20
7.3420689493
 30
0.0
 40
0.1249999999999955
100
AcDbArc
 50
308.5748417625
 51
82.8176592285
  0
ARC
  5
1AE
330
1F
100
AcDbEntity
  8
0
  6
Continuous
 62
     7
370
    25
100
AcDbCircle
 10
3.6668889361
 20
7.5225924149
 30
0.0
 40
0.1250000000000175
100
AcDbArc
 50
82.8176592285
 51
180.0
  0
ARC
  5
1AF
330
1F
100
AcDbEntity
  8
0
  6
Continuous
 62
     7
370
    25
100
AcDbCircle
 10
3.6668889361
 20
6.199515967
 30
0.0
 40
0.1249999999999991
100
AcDbArc
 50
180.0
 51
308.5748417625
  0
ARC
  5
1B0
330
1F
100
AcDbEntity
  8
0
  6
Continuous
 62
     7
370
    25
100
AcDbCircle
 10
5.7921453146
 20
7.1117660262
 30
0.0
 40
0.1250000000000084
100
AcDbArc
 50
7.5519914314
 51
128.5251849597
  0
ARC
  5
1B1
330
1F
100
AcDbEntity
  8
0
  6
Continuous
 62
     7
370
    25
100
AcDbCircle
 10
4.4014845347
 20
6.0045860976
 30
0.0
 40
0.1250000000001295
100
AcDbArc
 50
128.5251849598
 51
259.0640555534
  0
ARC
  5
1B2
330
1F
100
AcDbEntity
  8
0
  6
Continuous
 62
     7
370
    25
100
AcDbCircle
 10
5.9793496504
 20
5.6997104651
 30
0.0
 40
0.125000000000005
100
AcDbArc
 50
259.0640555534
 51
7.5519914314
  0
ARC
  5
1B3
330
1F
100
AcDbEntity
  8
0
  6
Continuous
 62
     7
370
    25
100
AcDbCircle
 10
7.5274460546
 20
7.1732790025
 30
0.0
 40
0.1249999999999954
100
AcDbArc
 50
324.2282895049
 51
87.3974377975
  0
ARC
  5
1B4
330
1F
100
AcDbEntity
  8
0
  6
Continuous
 62
     7
370
    25
100
AcDbCircle
 10
6.4060580496
 20
7.2242511845
 30
0.0
 40
0.1250000000026169
100
AcDbArc
 50
87.3974377975
 51
187.9781245155
  0
ARC
  5
1B5
330
1F
100
AcDbEntity
  8
0
  6
Continuous
 62
     7
370
    25
100
AcDbCircle
 10
6.5946551232
 20
5.8785855786
 30
0.0
 40
0.1249999999999912
100
AcDbArc
 50
187.9781245156
 51
324.2282895049
  0
ARC
  5
1B6
330
1F
100
AcDbEntity
  8
0
  6
Continuous
 62
     7
370
    25
100
AcDbCircle
 10
8.1054078178
 20
6.864486998
 30
0.0
 40
0.1250000000000068
100
AcDbArc
 50
3.3533404943
 51
145.0380326597
  0
ARC
  5
1B7
330
1F
100
AcDbEntity
  8
0
  6
Continuous
 62
     7
370
    25
100
AcDbCircle
 10
7.2265545413
 20
5.6075795187
 30
0.0
 40
0.1250000000000585
100
AcDbArc
 50
145.0380326597
 51
270.0
  0
ARC
  5
1B8
330
1F
100
AcDbEntity
  8
0
  6
Continuous
 62
     7
370
    25
100
AcDbCircle
 10
8.1790547405
 20
5.6075795187
 30
0.0
 40
0.1249999999999931
100
AcDbArc
 50
270.0
 51
3.3533404943
  0
ARC
  5
1B9
330
1F
100
AcDbEntity
  8
0
  6
Continuous
 62
     7
370
    25
100
AcDbCircle
 10
9.3040712232
 20
5.682994007
 30
0.0
 40
0.1250000000000221
100
AcDbArc
 50
190.2166648343
 51
277.2342271341
  0
ARC
  5
1BA
330
1F
100
AcDbEntity
  8
0
  6
Continuous
 62
     7
370
    25
100
AcDbCircle
 10
10.3410293045
 20
5.8146216645
 30
0.0
 40
0.1249999999999837
100
AcDbArc
 50
277.2342271341
 51
49.077329751
  0
ARC
  5
1BB
330
1F
100
AcDbEntity
  8
0
  6
Continuous
 62
     7
370
    25
100
AcDbCircle
 10
9.0839348707
 20
6.9044219358
 30
0.0
 40
0.1250000000000785
100
AcDbArc
 50
49.077329751
 51
190.2166648343
  0
ARC
  5
1BC
330
1F
100
AcDbEntity
  8
0
  6
Continuous
 62
     7
370
    25
100
AcDbCircle
 10
11.5506381852
 20
7.2385738958
 30
0.0
 40
0.1249999999999852
100
AcDbArc
 50
337.7474421909
 51
92.9881025071
  0
ARC
  5
1BD
330
1F
100
AcDbEntity
  8
0
  6
Continuous
 62
     7
370
    25
100
AcDbCircle
 10
9.8294602623
 20
7.1487291641
 30
0.0
 40
0.1250000000000884
100
AcDbArc
 50
92.988102507
 51
228.6325907663
  0
ARC
  5
1BE
330
1F
100
AcDbEntity
  8
0
  6
Continuous
 62
     7
370
    25
100
AcDbCircle
 10
11.0677177608
 20
6.0583094948
 30
0.0
 40
0.1250000000000007
100
AcDbArc
 50
228.6325907663
 51
337.7474421909
  0
ARC
  5
1BF
330
1F
100
AcDbEntity
  8
0
  6
Continuous
 62
     7
370
    25
100
AcDbCircle
 10
13.0973894902
 20
6.4780300102
 30
0.0
 40
0.1249999999999968
100
AcDbArc
 50
283.6752042709
 51
49.9559110968
  0
ARC
  5
1C0
330
1F
100
AcDbEntity
  8
0
  6
Continuous
 62
     7
370
    25
100
AcDbCircle
 10
12.2415518852
 20
7.1972860054
 30
0.0
 40
0.1250000000000146
100
AcDbArc
 50
49.9559110968
 51
157.5732119767
  0
ARC
  5
1C1
330
1F
100
AcDbEntity
  8
0
  6
Continuous
 62
     7
370
    25
100
AcDbCircle
 10
11.8160275476
 20
6.1662550616
 30
0.0
 40
0.1250000000000039
100
AcDbArc
 50
157.5732119766
 51
283.6752042709
  0
ARC
  5
1C2
330
1F
100
AcDbEntity
  8
0
  6
Continuous
 62
     7
370
    25
100
AcDbCircle
 10
13.4080917981
 20
7.3679189947
 30
0.0
 40
0.1250000000000752
100
AcDbArc
 50
23.4309576207
 51
92.8495496876
  0
ARC
  5
1C3
330
1F
100
AcDbEntity
  8
0
  6
Continuous
 62
     7
370
    25
100
AcDbCircle
 10
12.8659904738
 20
7.3409358632
 30
0.0
 40
0.1250000000000865
100
AcDbArc
 50
92.8495496876
 51
230.3814235214
  0
ARC
  5
1C4
330
1F
100
AcDbEntity
  8
0
  6
Continuous
 62
     7
370
    25
100
AcDbCircle
 10
13.7296224342
 20
6.6260056057
 30
0.0
 40
0.124999999999994
100
AcDbArc
 50
230.3814235214
 51
23.4309576207
  0
ARC
  5
1C5
330
1F
100
AcDbEntity
  8
0
  6
Continuous
 62
     7
370
    25
100
AcDbCircle
 10
5.9082383231
 20
8.5554984689
 30
0.0
 40
0.133
100
AcDbArc
 50
180.0
 51
0.0
  0
ARC
  5
1C6
330
1F
100
AcDbEntity
  8
0
  6
Continuous
 62
     7
370
    25
100
AcDbCircle
 10
5.9082383231
 20
8.5554984689
 30
0.0
 40
0.133
100
AcDbArc
 50
0.0
 51
180.0
  0
ARC
  5
1C7
330
1F
100
AcDbEntity
  8
0
  6
Continuous
 62
     7
370
    25
100
AcDbCircle
 10
1.9082383231
 20
8.936924703
 30
0.0
 40
0.1330000000000002
100
AcDbArc
 50
180.0
 51
0.0
  0
ARC
  5
1C8
330
1F
100
AcDbEntity
  8
0
  6
Continuous
 62
     7
370
    25
100
AcDbCircle
 10
1.9082383231
 20
8.936924703
 30
0.0
 40
0.1330000000000002
100
AcDbArc
 50
0.0
 51
180.0
  0
ARC
  5
1C9
330
1F
100
AcDbEntity
  8
0
  6
Continuous
 62
     7
370
    25
100
AcDbCircle
 10
17.4564656869
 20
7.5713130753
 30
0.0
 40
0.1250000000000711
100
AcDbArc
 50
291.4902406814
 51
360.0
  0
ARC
  5
1CA
330
1F
100
AcDbEntity
  8
0
  6
Continuous
 62
     7
370
    25
100
AcDbCircle
 10
17.4564656869
 20
8.3339927279
 30
0.0
 40
0.1250000000000355
100
AcDbArc
 50
0.0
 51
101.1360771226
  0
MTEXT
  5
1CC
330
1F
100
AcDbEntity
  8
0
  6
Continuous
 62
     7
100
AcDbMText
 10
0.0
 20
-0.0401404091
 30
0.0
 40
0.1903
 41
0.0
 71
     1
 72
     1
  1
SOLIDWORKS Educational Product.
  7
SLDTEXTSTYLE0
 73
     1
 44
1.0
  0
MTEXT
  5
1CD
330
1F
100
AcDbEntity
  8
0
  6
Continuous
 62
     7
100
AcDbMText
 10
0.0
 20
-0.3255904091
 30
0.0
 40
0.1903
 41
0.0
 71
     1
 72
     1
  1
For Instructional Use Only.
  7
SLDTEXTSTYLE0
 73
     1
 44
1.0
  0
ENDSEC
  0
SECTION
  2
OBJECTS
  0
DICTIONARY
  5
C
330
0
100
AcDbDictionary
281
     1
  3
ACAD_GROUP
350
D
  3
ACAD_LAYOUT
350
1A
  3
ACAD_MLINESTYLE
350
17
  3
ACAD_PLOTSETTINGS
350
19
  3
ACAD_PLOTSTYLENAME
350
E
  3
ACAD_SCALELIST
350
47
  3
DWGPROPS
350
1CE
  0
DICTIONARY
  5
D
102
{ACAD_REACTORS
330
C
102
}
330
C
100
AcDbDictionary
281
     1
  0
DICTIONARY
  5
1A
102
{ACAD_REACTORS
330
C
102
}
330
C
100
AcDbDictionary
281
     1
  3
Layout1
350
1E
  3
Layout2
350
26
  3
Model
350
22
  0
DICTIONARY
  5
17
102
{ACAD_REACTORS
330
C
102
}
330
C
100
AcDbDictionary
281
     1
  3
Standard
350
18
  0
DICTIONARY
  5
19
102
{ACAD_REACTORS
330
C
102
}
330
C
100
AcDbDictionary
281
     1
  0
ACDBDICTIONARYWDFLT
  5
E
102
{ACAD_REACTORS
330
C
102
}
330
C
100
AcDbDictionary
281
     1
  3
Normal
350
F
100
AcDbDictionaryWithDefault
340
F
  0
DICTIONARY
  5
47
102
{ACAD_REACTORS
330
C
102
}
330
C
100
AcDbDictionary
281
     1
  3
A0
350
48
  3
A1
350
49
  3
A2
350
4A
  3
A3
350
4B
  3
A4
350
4C
  3
A5
350
4D
  3
A6
350
4E
  3
A7
350
4F
  3
A8
350
50
  3
A9
350
51
  3
B1
350
52
  3
B2
350
53
  3
B3
350
54
  3
B4
350
55
  3
B5
350
56
  3
B6
350
57
  3
B7
350
58
  0
XRECORD
  5
1CE
102
{ACAD_REACTORS
330
C
102
}
330
C
100
AcDbXrecord
280
     1
  1
DWGPROPS COOKIE
  2

  3

  4

  6

  7

  8
dgale
  9

300
=
301
=
302
=
303
=
304
=
305
=
306
=
307
=
308
=
309
=
 40
0.0
 41
2460735.778966285
 42
2460735.779005996
  1

 90
        0
  0
LAYOUT
  5
1E
102
{ACAD_REACTORS
330
1A
102
}
330
1A
100
AcDbPlotSettings
  1

  2
none_device
  4

  6

 40
0.0
 41
0.0
 42
0.0
 43
0.0
 44
0.0
 45
0.0
 46
0.0
 47
0.0
 48
0.0
 49
0.0
140
0.0
141
0.0
142
1.0
143
1.0
 70
   688
 72
     0
 73
     0
 74
     5
  7

 75
    16
147
1.0
148
0.0
149
0.0
100
AcDbLayout
  1
Layout1
 70
     1
 71
     1
 10
0.0
 20
0.0
 11
12.0
 21
9.0
 12
0.0
 22
0.0
 32
0.0
 14
1.0000000000E+20
 24
1.0000000000E+20
 34
1.0000000000E+20
 15
-1.0000000000E+20
 25
-1.0000000000E+20
 35
-1.0000000000E+20
146
0.0
 13
0.0
 23
0.0
 33
0.0
 16
1.0
 26
0.0
 36
0.0
 17
0.0
 27
1.0
 37
0.0
 76
     0
330
1B
  0
LAYOUT
  5
26
102
{ACAD_REACTORS
330
1A
102
}
330
1A
100
AcDbPlotSettings
  1

  2
none_device
  4

  6

 40
0.0
 41
0.0
 42
0.0
 43
0.0
 44
0.0
 45
0.0
 46
0.0
 47
0.0
 48
0.0
 49
0.0
140
0.0
141
0.0
142
1.0
143
1.0
 70
   688
 72
     0
 73
     0
 74
     5
  7

 75
    16
147
1.0
148
0.0
149
0.0
100
AcDbLayout
  1
Layout2
 70
     1
 71
     2
 10
0.0
 20
0.0
 11
0.0
 21
0.0
 12
0.0
 22
0.0
 32
0.0
 14
0.0
 24
0.0
 34
0.0
 15
0.0
 25
0.0
 35
0.0
146
0.0
 13
0.0
 23
0.0
 33
0.0
 16
1.0
 26
0.0
 36
0.0
 17
0.0
 27
1.0
 37
0.0
 76
     0
330
23
  0
LAYOUT
  5
22
102
{ACAD_REACTORS
330
1A
102
}
330
1A
100
AcDbPlotSettings
  1

  2
none_device
  4
ANSI_A_(11.00_x_8.50_Inches)
  6

 40
6.35
 41
19.05
 42
6.35000508
 43
19.05000254
 44
279.4
 45
215.9
 46
-4.0549311114
 47
-17.97050127
 48
0.0
 49
0.0
140
0.0
141
0.0
142
0.6010714286
143
1.0
 70
  1696
 72
     0
 73
     0
 74
     0
  7

 75
     0
147
0.5913241897
148
-39.4088153714
149
0.0
100
AcDbLayout
  1
Model
 70
     1
 71
     0
 10
0.0
 20
0.0
 11
12.0
 21
9.0
 12
0.0
 22
0.0
 32
0.0
 14
0.0
 24
0.0
 34
0.0
 15
18.0
 25
14.0
 35
0.0
146
0.0
 13
0.0
 23
0.0
 33
0.0
 16
1.0
 26
0.0
 36
0.0
 17
0.0
 27
1.0
 37
0.0
 76
     0
330
1F
331
29
  0
MLINESTYLE
  5
18
102
{ACAD_REACTORS
330
17
102
}
330
17
100
AcDbMlineStyle
  2
Standard
 70
     0
  3

 62
   256
 51
90.0
 52
90.0
 71
     2
 49
0.5
 62
   256
  6
BYLAYER
 49
-0.5
 62
   256
  6
BYLAYER
  0
ACDBPLACEHOLDER
  5
F
102
{ACAD_REACTORS
330
E
102
}
330
E
  0
SCALE
  5
48
102
{ACAD_REACTORS
330
47
102
}
330
47
100
AcDbScale
 70
     0
300
1:1
140
1.0
141
1.0
290
     1
  0
SCALE
  5
49
102
{ACAD_REACTORS
330
47
102
}
330
47
100
AcDbScale
 70
     0
300
1/128" = 1'-0"
140
0.0078125
141
12.0
290
     0
  0
SCALE
  5
4A
102
{ACAD_REACTORS
330
47
102
}
330
47
100
AcDbScale
 70
     0
300
1/64" = 1'-0"
140
0.015625
141
12.0
290
     0
  0
SCALE
  5
4B
102
{ACAD_REACTORS
330
47
102
}
330
47
100
AcDbScale
 70
     0
300
1/32" = 1'-0"
140
0.03125
141
12.0
290
     0
  0
SCALE
  5
4C
102
{ACAD_REACTORS
330
47
102
}
330
47
100
AcDbScale
 70
     0
300
1/16" = 1'-0"
140
0.0625
141
12.0
290
     0
  0
SCALE
  5
4D
102
{ACAD_REACTORS
330
47
102
}
330
47
100
AcDbScale
 70
     0
300
3/32" = 1'-0"
140
0.09375
141
12.0
290
     0
  0
SCALE
  5
4E
102
{ACAD_REACTORS
330
47
102
}
330
47
100
AcDbScale
 70
     0
300
1/8" = 1'-0"
140
0.125
141
12.0
290
     0
  0
SCALE
  5
4F
102
{ACAD_REACTORS
330
47
102
}
330
47
100
AcDbScale
 70
     0
300
3/16" = 1'-0"
140
0.1875
141
12.0
290
     0
  0
SCALE
  5
50
102
{ACAD_REACTORS
330
47
102
}
330
47
100
AcDbScale
 70
     0
300
1/4" = 1'-0"
140
0.25
141
12.0
290
     0
  0
SCALE
  5
51
102
{ACAD_REACTORS
330
47
102
}
330
47
100
AcDbScale
 70
     0
300
3/8" = 1'-0"
140
0.375
141
12.0
290
     0
  0
SCALE
  5
52
102
{ACAD_REACTORS
330
47
102
}
330
47
100
AcDbScale
 70
     0
300
1/2" = 1'-0"
140
0.5
141
12.0
290
     0
  0
SCALE
  5
53
102
{ACAD_REACTORS
330
47
102
}
330
47
100
AcDbScale
 70
     0
300
3/4" = 1'-0"
140
0.75
141
12.0
290
     0
  0
SCALE
  5
54
102
{ACAD_REACTORS
330
47
102
}
330
47
100
AcDbScale
 70
     0
300
1" = 1'-0"
140
1.0
141
12.0
290
     0
  0
SCALE
  5
55
102
{ACAD_REACTORS
330
47
102
}
330
47
100
AcDbScale
 70
     0
300
1-1/2" = 1'-0"
140
1.5
141
12.0
290
     0
  0
SCALE
  5
56
102
{ACAD_REACTORS
330
47
102
}
330
47
100
AcDbScale
 70
     0
300
3" = 1'-0"
140
3.0
141
12.0
290
     0
  0
SCALE
  5
57
102
{ACAD_REACTORS
330
47
102
}
330
47
100
AcDbScale
 70
     0
300
6" = 1'-0"
140
6.0
141
12.0
290
     0
  0
SCALE
  5
58
102
{ACAD_REACTORS
330
47
102
}
330
47
100
AcDbScale
 70
     0
300
1'-0" = 1'-0"
140
12.0
141
12.0
290
     0
  0
ENDSEC
  0
EOF
