  0
SECTION
  2
HEADER
  9
$ACADVER
  1
AC1015
  9
$ACADMAINTVER
 70
     6
  9
$DWGCODEPAGE
  3
ANSI_1252
  9
$INSBASE
 10
0.0
 20
0.0
 30
0.0
  9
$EXTMIN
 10
0.0
 20
0.0
 30
0.0
  9
$EXTMAX
 10
23.0
 20
10.0
 30
0.0
  9
$LIMMIN
 10
0.0
 20
0.0
  9
$LIMMAX
 10
12.0
 20
9.0
  9
$ORTHOMODE
 70
     0
  9
$REGENMODE
 70
     1
  9
$FILLMODE
 70
     1
  9
$QTEXTMODE
 70
     0
  9
$MIRRTEXT
 70
     1
  9
$LTSCALE
 40
1.0
  9
$ATTMODE
 70
     1
  9
$TEXTSIZE
 40
0.125
  9
$TRACEWID
 40
0.05
  9
$TEXTSTYLE
  7
Standard
  9
$CLAYER
  8
0
  9
$CELTYPE
  6
ByLayer
  9
$CECOLOR
 62
   256
  9
$CELTSCALE
 40
1.0
  9
$DISPSILH
 70
     0
  9
$DIMSCALE
 40
1.0
  9
$DIMASZ
 40
0.13
  9
$DIMEXO
 40
0.0
  9
$DIMDLI
 40
0.38
  9
$DIMRND
 40
0.0
  9
$DIMDLE
 40
0.0
  9
$DIMEXE
 40
0.125
  9
$DIMTP
 40
0.0
  9
$DIMTM
 40
0.0
  9
$DIMTXT
 40
0.125
  9
$DIMCEN
 40
0.09
  9
$DIMTSZ
 40
0.0
  9
$DIMTOL
 70
     0
  9
$DIMLIM
 70
     0
  9
$DIMTIH
 70
     1
  9
$DIMTOH
 70
     1
  9
$DIMSE1
 70
     0
  9
$DIMSE2
 70
     0
  9
$DIMTAD
 70
     0
  9
$DIMZIN
 70
     1
  9
$DIMBLK
  1

  9
$DIMASO
 70
     1
  9
$DIMSHO
 70
     1
  9
$DIMPOST
  1

  9
$DIMAPOST
  1

  9
$DIMALT
 70
     0
  9
$DIMALTD
 70
     2
  9
$DIMALTF
 40
25.4
  9
$DIMLFAC
 40
1.0
  9
$DIMTOFL
 70
     0
  9
$DIMTVP
 40
0.0
  9
$DIMTIX
 70
     0
  9
$DIMSOXD
 70
     0
  9
$DIMSAH
 70
     0
  9
$DIMBLK1
  1

  9
$DIMBLK2
  1

  9
$DIMSTYLE
  2
Standard
  9
$DIMCLRD
 70
     0
  9
$DIMCLRE
 70
     0
  9
$DIMCLRT
 70
     0
  9
$DIMTFAC
 40
1.0
  9
$DIMGAP
 40
0.06
  9
$DIMJUST
 70
     0
  9
$DIMSD1
 70
     0
  9
$DIMSD2
 70
     0
  9
$DIMTOLJ
 70
     1
  9
$DIMTZIN
 70
     1
  9
$DIMALTZ
 70
     0
  9
$DIMALTTZ
 70
     0
  9
$DIMUPT
 70
     0
  9
$DIMDEC
 70
     2
  9
$DIMTDEC
 70
     2
  9
$DIMALTU
 70
     2
  9
$DIMALTTD
 70
     2
  9
$DIMTXSTY
  7
Standard
  9
$DIMAUNIT
 70
     0
  9
$DIMADEC
 70
     2
  9
$DIMALTRND
 40
0.0
  9
$DIMAZIN
 70
     0
  9
$DIMDSEP
 70
    46
  9
$DIMATFIT
 70
     3
  9
$DIMFRAC
 70
     0
  9
$DIMLDRBLK
  1

  9
$DIMLUNIT
 70
     2
  9
$DIMLWD
 70
    -2
  9
$DIMLWE
 70
    -2
  9
$DIMTMOVE
 70
     0
  9
$LUNITS
 70
     2
  9
$LUPREC
 70
     2
  9
$SKETCHINC
 40
0.1
  9
$FILLETRAD
 40
0.0
  9
$AUNITS
 70
     0
  9
$AUPREC
 70
     2
  9
$MENU
  1
.
  9
$ELEVATION
 40
0.0
  9
$PELEVATION
 40
0.0
  9
$THICKNESS
 40
0.0
  9
$LIMCHECK
 70
     0
  9
$CHAMFERA
 40
0.0
  9
$CHAMFERB
 40
0.0
  9
$CHAMFERC
 40
0.0
  9
$CHAMFERD
 40
0.0
  9
$SKPOLY
 70
     0
  9
$TDCREATE
 40
2460735.526268079
  9
$TDUCREATE
 40
2460735.776268079
  9
$TDUPDATE
 40
2460735.526391112
  9
$TDUUPDATE
 40
2460735.776391112
  9
$TDINDWG
 40
0.0000000116
  9
$TDUSRTIMER
 40
0.0000000116
  9
$USRTIMER
 70
     1
  9
$ANGBASE
 50
0.0
  9
$ANGDIR
 70
     0
  9
$PDMODE
 70
     0
  9
$PDSIZE
 40
-1.0
  9
$PLINEWID
 40
0.0
  9
$SPLFRAME
 70
     0
  9
$SPLINETYPE
 70
     6
  9
$SPLINESEGS
 70
     8
  9
$HANDSEED
  5
3F8
  9
$SURFTAB1
 70
     6
  9
$SURFTAB2
 70
     6
  9
$SURFTYPE
 70
     6
  9
$SURFU
 70
     6
  9
$SURFV
 70
     6
  9
$UCSBASE
  2

  9
$UCSNAME
  2

  9
$UCSORG
 10
0.0
 20
0.0
 30
0.0
  9
$UCSXDIR
 10
1.0
 20
0.0
 30
0.0
  9
$UCSYDIR
 10
0.0
 20
1.0
 30
0.0
  9
$UCSORTHOREF
  2

  9
$UCSORTHOVIEW
 70
     0
  9
$UCSORGTOP
 10
0.0
 20
0.0
 30
0.0
  9
$UCSORGBOTTOM
 10
0.0
 20
0.0
 30
0.0
  9
$UCSORGLEFT
 10
0.0
 20
0.0
 30
0.0
  9
$UCSORGRIGHT
 10
0.0
 20
0.0
 30
0.0
  9
$UCSORGFRONT
 10
0.0
 20
0.0
 30
0.0
  9
$UCSORGBACK
 10
0.0
 20
0.0
 30
0.0
  9
$PUCSBASE
  2

  9
$PUCSNAME
  2

  9
$PUCSORG
 10
0.0
 20
0.0
 30
0.0
  9
$PUCSXDIR
 10
1.0
 20
0.0
 30
0.0
  9
$PUCSYDIR
 10
0.0
 20
1.0
 30
0.0
  9
$PUCSORTHOREF
  2

  9
$PUCSORTHOVIEW
 70
     0
  9
$PUCSORGTOP
 10
0.0
 20
0.0
 30
0.0
  9
$PUCSORGBOTTOM
 10
0.0
 20
0.0
 30
0.0
  9
$PUCSORGLEFT
 10
0.0
 20
0.0
 30
0.0
  9
$PUCSORGRIGHT
 10
0.0
 20
0.0
 30
0.0
  9
$PUCSORGFRONT
 10
0.0
 20
0.0
 30
0.0
  9
$PUCSORGBACK
 10
0.0
 20
0.0
 30
0.0
  9
$USERI1
 70
     0
  9
$USERI2
 70
     0
  9
$USERI3
 70
     0
  9
$USERI4
 70
     0
  9
$USERI5
 70
     0
  9
$USERR1
 40
0.0
  9
$USERR2
 40
0.0
  9
$USERR3
 40
0.0
  9
$USERR4
 40
0.0
  9
$USERR5
 40
0.0
  9
$WORLDVIEW
 70
     1
  9
$SHADEDGE
 70
     3
  9
$SHADEDIF
 70
    70
  9
$TILEMODE
 70
     1
  9
$MAXACTVP
 70
    64
  9
$PINSBASE
 10
0.0
 20
0.0
 30
0.0
  9
$PLIMCHECK
 70
     0
  9
$PEXTMIN
 10
1.0000000000E+20
 20
1.0000000000E+20
 30
1.0000000000E+20
  9
$PEXTMAX
 10
-1.0000000000E+20
 20
-1.0000000000E+20
 30
-1.0000000000E+20
  9
$PLIMMIN
 10
0.0
 20
0.0
  9
$PLIMMAX
 10
12.0
 20
9.0
  9
$UNITMODE
 70
     0
  9
$VISRETAIN
 70
     1
  9
$PLINEGEN
 70
     0
  9
$PSLTSCALE
 70
     1
  9
$TREEDEPTH
 70
  3020
  9
$CMLSTYLE
  2
Standard
  9
$CMLJUST
 70
     0
  9
$CMLSCALE
 40
1.0
  9
$PROXYGRAPHICS
 70
     1
  9
$MEASUREMENT
 70
     0
  9
$CELWEIGHT
370
    -1
  9
$ENDCAPS
280
     0
  9
$JOINSTYLE
280
     0
  9
$LWDISPLAY
290
     1
  9
$INSUNITS
 70
     1
  9
$HYPERLINKBASE
  1

  9
$STYLESHEET
  1

  9
$XEDIT
290
     1
  9
$CEPSNTYPE
380
     0
  9
$PSTYLEMODE
290
     1
  9
$FINGERPRINTGUID
  2
{d0ff5e97-2851-409a-b107-c17d7de06412}
  9
$VERSIONGUID
  2
{FAEB1C32-E019-11D5-929B-00C0DF256EC4}
  9
$EXTNAMES
290
     1
  9
$PSVPSCALE
 40
0.0
  9
$OLESTARTUP
290
     0
  0
ENDSEC
  0
SECTION
  2
CLASSES
  0
CLASS
  1
ACDBDICTIONARYWDFLT
  2
AcDbDictionaryWithDefault
  3
ObjectDBX Classes
 90
        0
280
     0
281
     0
  0
CLASS
  1
VISUALSTYLE
  2
AcDbVisualStyle
  3
ObjectDBX Classes
 90
     4095
280
     0
281
     0
  0
CLASS
  1
MATERIAL
  2
AcDbMaterial
  3
ObjectDBX Classes
 90
     1153
280
     0
281
     0
  0
CLASS
  1
SCALE
  2
AcDbScale
  3
ObjectDBX Classes
 90
     1153
280
     0
281
     0
  0
CLASS
  1
TABLESTYLE
  2
AcDbTableStyle
  3
ObjectDBX Classes
 90
     4095
280
     0
281
     0
  0
CLASS
  1
MLEADERSTYLE
  2
AcDbMLeaderStyle
  3
ACDB_MLEADERSTYLE_CLASS
 90
     4095
280
     0
281
     0
  0
CLASS
  1
SUN
  2
AcDbSun
  3
SCENEOE
 90
     1153
280
     0
281
     0
  0
CLASS
  1
ACDBPLACEHOLDER
  2
AcDbPlaceHolder
  3
ObjectDBX Classes
 90
        0
280
     0
281
     0
  0
CLASS
  1
LAYOUT
  2
AcDbLayout
  3
ObjectDBX Classes
 90
        0
280
     0
281
     0
  0
ENDSEC
  0
SECTION
  2
TABLES
  0
TABLE
  2
VPORT
  5
8
330
0
100
AcDbSymbolTable
 70
     1
  0
VPORT
  5
29
330
8
100
AcDbSymbolTableRecord
100
AcDbViewportTableRecord
  2
*Active
 70
     0
 10
0.0
 20
0.0
 11
1.0
 21
1.0
 12
11.5
 22
5.0
 13
0.0
 23
0.0
 14
0.5
 24
0.5
 15
0.5
 25
0.5
 16
0.0
 26
0.0
 36
1.0
 17
0.0
 27
0.0
 37
0.0
 40
10.2
 41
2.3
 42
50.0
 43
0.0
 44
0.0
 50
0.0
 51
0.0
 71
     0
 72
   100
 73
     1
 74
     3
 75
     0
 76
     0
 77
     0
 78
     0
281
     0
 65
     1
110
0.0
120
0.0
130
0.0
111
1.0
121
0.0
131
0.0
112
0.0
122
1.0
132
0.0
 79
     0
146
0.0
  0
ENDTAB
  0
TABLE
  2
LTYPE
  5
5
330
0
100
AcDbSymbolTable
 70
     6
  0
LTYPE
  5
14
330
5
100
AcDbSymbolTableRecord
100
AcDbLinetypeTableRecord
  2
ByBlock
 70
     0
  3

 72
    65
 73
     0
 40
0.0
  0
LTYPE
  5
15
330
5
100
AcDbSymbolTableRecord
100
AcDbLinetypeTableRecord
  2
ByLayer
 70
     0
  3

 72
    65
 73
     0
 40
0.0
  0
LTYPE
  5
16
330
5
100
AcDbSymbolTableRecord
100
AcDbLinetypeTableRecord
  2
Continuous
 70
     0
  3
Solid line
 72
    65
 73
     0
 40
0.0
  0
LTYPE
  5
5E
330
5
100
AcDbSymbolTableRecord
100
AcDbLinetypeTableRecord
  2
HIDDEN
 70
     0
  3
Hidden __ __ __ __ __ __ __ __ __ __ __ __ __ __
 72
    65
 73
     2
 40
0.075
 49
0.05
 74
     0
 49
-0.025
 74
     0
  0
LTYPE
  5
5F
330
5
100
AcDbSymbolTableRecord
100
AcDbLinetypeTableRecord
  2
PHANTOM
 70
     0
  3
Phantom ______  __  __  ______  __  __  ______
 72
    65
 73
     6
 40
0.5
 49
0.25
 74
     0
 49
-0.05
 74
     0
 49
0.05
 74
     0
 49
-0.05
 74
     0
 49
0.05
 74
     0
 49
-0.05
 74
     0
  0
LTYPE
  5
60
330
5
100
AcDbSymbolTableRecord
100
AcDbLinetypeTableRecord
  2
CENTER
 70
     0
  3
Center ____ _ ____ _ ____ _ ____ _ ____ _ ____
 72
    65
 73
     4
 40
0.4
 49
0.25
 74
     0
 49
-0.05
 74
     0
 49
0.05
 74
     0
 49
-0.05
 74
     0
  0
LTYPE
  5
61
330
5
100
AcDbSymbolTableRecord
100
AcDbLinetypeTableRecord
  2
CENTERX2
 70
     0
  3
Center (2x) ________  __  ________  __  _____
 72
    65
 73
     4
 40
0.8
 49
0.5
 74
     0
 49
-0.1
 74
     0
 49
0.1
 74
     0
 49
-0.1
 74
     0
  0
LTYPE
  5
62
330
5
100
AcDbSymbolTableRecord
100
AcDbLinetypeTableRecord
  2
DOT2
 70
     0
  3
Dot (.5x) ........................................
 72
    65
 73
     2
 40
0.025
 49
0.0
 74
     0
 49
-0.025
 74
     0
  0
ENDTAB
  0
TABLE
  2
LAYER
  5
2
330
0
100
AcDbSymbolTable
 70
     1
  0
LAYER
  5
10
330
2
100
AcDbSymbolTableRecord
100
AcDbLayerTableRecord
  2
0
 70
     0
 62
     7
  6
Continuous
370
    -3
390
F
  0
ENDTAB
  0
TABLE
  2
STYLE
  5
3
330
0
100
AcDbSymbolTable
 70
     2
  0
STYLE
  5
11
330
3
100
AcDbSymbolTableRecord
100
AcDbTextStyleTableRecord
  2
Standard
 70
     0
 40
0.0
 41
1.0
 50
0.0
 71
     0
 42
0.125
  3
txt
  4

  0
STYLE
  5
3F4
330
3
100
AcDbSymbolTableRecord
100
AcDbTextStyleTableRecord
  2
SLDTEXTSTYLE0
 70
     0
 40
0.0
 41
0.7
 50
0.0
 71
     0
 42
0.125
  3
TXT
  4

  0
ENDTAB
  0
TABLE
  2
VIEW
  5
6
330
0
100
AcDbSymbolTable
 70
     0
  0
ENDTAB
  0
TABLE
  2
UCS
  5
7
330
0
100
AcDbSymbolTable
 70
     0
  0
ENDTAB
  0
TABLE
  2
APPID
  5
9
330
0
100
AcDbSymbolTable
 70
     1
  0
APPID
  5
12
330
9
100
AcDbSymbolTableRecord
100
AcDbRegAppTableRecord
  2
ACAD
 70
     0
  0
ENDTAB
  0
TABLE
  2
DIMSTYLE
  5
A
330
0
100
AcDbSymbolTable
 70
     1
100
AcDbDimStyleTable
  0
DIMSTYLE
105
27
330
A
100
AcDbSymbolTableRecord
100
AcDbDimStyleTableRecord
  2
Standard
 70
     0
178
     0
340
11
  0
ENDTAB
  0
TABLE
  2
BLOCK_RECORD
  5
1
330
0
100
AcDbSymbolTable
 70
     1
  0
BLOCK_RECORD
  5
1F
330
1
100
AcDbSymbolTableRecord
100
AcDbBlockTableRecord
  2
*Model_Space
340
22
  0
BLOCK_RECORD
  5
1B
330
1
100
AcDbSymbolTableRecord
100
AcDbBlockTableRecord
  2
*Paper_Space
340
1E
  0
BLOCK_RECORD
  5
23
330
1
100
AcDbSymbolTableRecord
100
AcDbBlockTableRecord
  2
*Paper_Space0
340
26
  0
ENDTAB
  0
ENDSEC
  0
SECTION
  2
BLOCKS
  0
BLOCK
  5
20
330
1F
100
AcDbEntity
  8
0
100
AcDbBlockBegin
  2
*Model_Space
 70
     0
 10
0.0
 20
0.0
 30
0.0
  3
*Model_Space
  1

  0
ENDBLK
  5
21
330
1F
100
AcDbEntity
  8
0
100
AcDbBlockEnd
  0
BLOCK
  5
1C
330
1B
100
AcDbEntity
 67
     1
  8
0
100
AcDbBlockBegin
  2
*Paper_Space
 70
     0
 10
0.0
 20
0.0
 30
0.0
  3
*Paper_Space
  1

  0
ENDBLK
  5
1D
330
1B
100
AcDbEntity
 67
     1
  8
0
100
AcDbBlockEnd
  0
BLOCK
  5
24
330
23
100
AcDbEntity
  8
0
100
AcDbBlockBegin
  2
*Paper_Space0
 70
     0
 10
0.0
 20
0.0
 30
0.0
  3
*Paper_Space0
  1

  0
ENDBLK
  5
25
330
23
100
AcDbEntity
  8
0
100
AcDbBlockEnd
  0
ENDSEC
  0
SECTION
  2
ENTITIES
  0
LINE
  5
63
330
1F
100
AcDbEntity
  8
0
  6
Continuous
 62
     7
100
AcDbLine
 10
0.0
 20
0.0
 30
0.0
 11
23.0
 21
0.0
 31
0.0
  0
LINE
  5
64
330
1F
100
AcDbEntity
  8
0
  6
Continuous
 62
     7
100
AcDbLine
 10
0.0
 20
0.0
 30
0.0
 11
0.0
 21
10.0
 31
0.0
  0
LINE
  5
65
330
1F
100
AcDbEntity
  8
0
  6
Continuous
 62
     7
100
AcDbLine
 10
0.0
 20
10.0
 30
0.0
 11
23.0
 21
10.0
 31
0.0
  0
LINE
  5
66
330
1F
100
AcDbEntity
  8
0
  6
Continuous
 62
     7
100
AcDbLine
 10
23.0
 20
0.0
 30
0.0
 11
23.0
 21
10.0
 31
0.0
  0
SPLINE
  5
6C
330
1F
100
AcDbEntity
  8
0
  6
Continuous
 62
     7
370
    25
100
AcDbSpline
210
0.0
220
0.0
230
1.0
 70
     8
 71
     3
 72
    11
 73
     7
 74
     0
 42
0.00000001
 43
0.00000001
 40
0.0
 40
0.0
 40
0.0
 40
0.0
 40
0.280000036519759
 40
0.5600000258315111
 40
0.7799999973008264
 40
1.0
 40
1.0
 40
1.0
 40
1.0
 10
11.8255986682983
 20
4.327432385953908
 30
0.0
 10
11.10304269503222
 20
4.35727765140098
 30
0.0
 10
9.657930870323007
 20
4.416968177263212
 30
0.0
 10
7.645287760805356
 20
4.504759421767178
 30
0.0
 10
5.786994862142475
 20
4.57432030315617
 30
0.0
 10
4.65123373290463
 20
4.612815865844159
 30
0.0
 10
4.083353127979274
 20
4.632063648554302
 30
0.0
  0
LWPOLYLINE
  5
72
330
1F
100
AcDbEntity
  8
0
  6
Continuous
 62
     7
370
    25
100
AcDbPolyline
 90
        3
 70
   128
 43
0.0
 10
13.3580435554
 20
4.2676108008
 10
13.1996876605
 20
4.2736293039
 10
13.0752659684
 20
4.2783788928
  0
SPLINE
  5
75
330
1F
100
AcDbEntity
  8
0
  6
Continuous
 62
     7
370
    25
100
AcDbSpline
210
0.0
220
0.0
230
1.0
 70
     8
 71
     3
 72
    38
 73
    34
 74
     0
 42
0.00000001
 43
0.00000001
 40
0.0
 40
0.0
 40
0.0
 40
0.0
 40
0.0393150782357898
 40
0.0786528842340647
 40
0.0940653363058453
 40
0.1095394386175386
 40
0.1251379764157718
 40
0.1402153772351967
 40
0.1462632256627513
 40
0.152998810785501
 40
0.1566850815248593
 40
0.1600208438310391
 40
0.162331039828536
 40
0.16444013493853
 40
0.1672052786890219
 40
0.1703885802966808
 40
0.1761291910052136
 40
0.1828139672895564
 40
0.1887825101077155
 40
0.2092836284381045
 40
0.2302230318414071
 40
0.2509922786015038
 40
0.297977081689342
 40
0.3449512209304445
 40
0.3919292991499253
 40
0.43890607010575
 40
0.4858838612847853
 40
0.5474060140541931
 40
0.6089253353740819
 40
0.6704441050984676
 40
0.7802956677463331
 40
0.8901478531680383
 40
1.0
 40
1.0
 40
1.0
 40
1.0
 10
2.838584517066939
 20
4.659910108283011
 30
0.0
 10
2.630615794912347
 20
4.661284163973147
 30
0.0
 10
2.214558125388473
 20
4.664033069685082
 30
0.0
 10
1.716959656460328
 20
4.652046816426514
 30
0.0
 10
1.346024765817083
 20
4.632238473953106
 30
0.0
 10
1.100794543566018
 20
4.612305126085936
 30
0.0
 10
0.8590376505636476
 20
4.579136724219649
 30
0.0
 10
0.6666421623403699
 20
4.548679880168449
 30
0.0
 10
0.5255319496029246
 20
4.50532538828452
 30
0.0
 10
0.445746446774728
 20
4.469402710259322
 30
0.0
 10
0.3839585740058438
 20
4.430674558966349
 30
0.0
 10
0.3465058496927405
 20
4.397951791131587
 30
0.0
 10
0.32256130920984
 20
4.364080122466354
 30
0.0
 10
0.3119282291063453
 20
4.326452983254669
 30
0.0
 10
0.3217462726254798
 20
4.2833258566035
 30
0.0
 10
0.3546016114758156
 20
4.23039601324104
 30
0.0
 10
0.4141432443789902
 20
4.172155733999247
 30
0.0
 10
0.4937105956504159
 20
4.11550621403189
 30
0.0
 10
0.6511719083409386
 20
4.03746362942
 30
0.0
 10
0.8867498140149712
 20
3.950582394638493
 30
0.0
 10
1.199493750664567
 20
3.847479340631578
 30
0.0
 10
1.657183932989706
 20
3.742647480453953
 30
0.0
 10
2.253421922945734
 20
3.628478342070958
 30
0.0
 10
2.993018655171847
 20
3.531760778249231
 30
0.0
 10
3.735344858052791
 20
3.4620790909544
 30
0.0
 10
4.47960220491565
 20
3.416706155711561
 30
0.0
 10
5.30171827378658
 20
3.390338790905172
 30
0.0
 10
6.201227347497324
 20
3.387833668504727
 30
0.0
 10
7.177336032148284
 20
3.410145347882805
 30
0.0
 10
8.408276641677084
 20
3.461168708015959
 30
0.0
 10
9.893149474875596
 20
3.553894902645133
 30
0.0
 10
11.63021673395072
 20
3.703919734460299
 30
0.0
 10
12.78479366759698
 20
3.837207193802196
 30
0.0
 10
13.36208203302287
 20
3.903850911767573
 30
0.0
  0
SPLINE
  5
C8
330
1F
100
AcDbEntity
  8
0
  6
Continuous
 62
     7
370
    25
100
AcDbSpline
210
0.0
220
0.0
230
1.0
 70
     8
 71
     3
 72
    11
 73
     7
 74
     0
 42
0.00000001
 43
0.00000001
 40
0.0
 40
0.0
 40
0.0
 40
0.0
 40
0.2800000365197593
 40
0.5600000258315114
 40
0.779999997300826
 40
1.0
 40
1.0
 40
1.0
 40
1.0
 10
12.65606744220559
 20
1.728107809141039
 30
0.0
 10
11.93327853588855
 20
1.751646527821596
 30
0.0
 10
10.4877008451167
 20
1.79872396121408
 30
0.0
 10
8.47436825746997
 20
1.868948461355723
 30
0.0
 10
6.615539091405807
 20
1.922290235132964
 30
0.0
 10
5.479485275577268
 20
1.950873072215932
 30
0.0
 10
4.911458327346178
 20
1.965164491771776
 30
0.0
  0
LWPOLYLINE
  5
11D
330
1F
100
AcDbEntity
  8
0
  6
Continuous
 62
     7
370
    25
100
AcDbPolyline
 90
        3
 70
   128
 43
0.0
 10
14.1889760137
 20
1.6816614365
 10
14.0305736278
 20
1.6862978121
 10
13.9061152259
 20
1.6899614499
  0
SPLINE
  5
11E
330
1F
100
AcDbEntity
  8
0
  6
Continuous
 62
     7
370
    25
100
AcDbSpline
210
0.0
220
0.0
230
1.0
 70
     8
 71
     3
 72
    38
 73
    34
 74
     0
 42
0.00000001
 43
0.00000001
 40
0.0
 40
0.0
 40
0.0
 40
0.0
 40
0.0393150782357904
 40
0.0786528842340658
 40
0.094065336305846
 40
0.1095394386175388
 40
0.1251379764157725
 40
0.1402153772351973
 40
0.1462632256627514
 40
0.1529988107855015
 40
0.1566850815248602
 40
0.1600208438310394
 40
0.1623310398285366
 40
0.1644401349385306
 40
0.1672052786890226
 40
0.1703885802966814
 40
0.1761291910052139
 40
0.1828139672895571
 40
0.1887825101077163
 40
0.2092836284381047
 40
0.2302230318414071
 40
0.2509922786015042
 40
0.2979770816893416
 40
0.3449512209304451
 40
0.391929299149926
 40
0.4389060701057507
 40
0.4858838612847852
 40
0.5474060140541931
 40
0.6089253353740824
 40
0.6704441050984677
 40
0.7802956677463335
 40
0.8901478531680382
 40
1.0
 40
1.0
 40
1.0
 40
1.0
 10
3.666494110289044
 20
1.982147373722251
 30
0.0
 10
3.458521316200381
 20
1.981706530656128
 30
0.0
 10
3.042455500454406
 20
1.980824589675689
 30
0.0
 10
2.544980577015782
 20
1.964496482113887
 30
0.0
 10
2.174232668640323
 20
1.941451917390684
 30
0.0
 10
1.92918573307246
 20
1.919379318284578
 30
0.0
 10
1.687727490668102
 20
1.884102479260638
 30
0.0
 10
1.495605111006264
 20
1.851967848855037
 30
0.0
 10
1.354878605825774
 20
1.807383604496672
 30
0.0
 10
1.275409621510034
 20
1.770766043274295
 30
0.0
 10
1.213962064021047
 20
1.731500172565578
 30
0.0
 10
1.176796322188053
 20
1.698451818185303
 30
0.0
 10
1.153148275758869
 20
1.664372486366916
 30
0.0
 10
1.142843955096519
 20
1.626653989930416
 30
0.0
 10
1.15303797517631
 20
1.583614182933374
 30
0.0
 10
1.186353957153043
 20
1.530973068257955
 30
0.0
 10
1.246401558757513
 20
1.47325459880069
 30
0.0
 10
1.326460234394978
 20
1.417301583188857
 30
0.0
 10
1.484596592826199
 20
1.340636061934265
 30
0.0
 10
1.720923700594892
 20
1.255813914280451
 30
0.0
 10
2.03455546137446
 20
1.155443957186977
 30
0.0
 10
2.493143035209095
 20
1.05461013830868
 30
0.0
 10
3.090354623288364
 20
0.9456484391214572
 30
0.0
 10
3.830767203191168
 20
0.8553886751464493
 30
0.0
 10
4.573673220282692
 20
0.7921875770775568
 30
0.0
 10
5.318298176636373
 20
0.753311157654376
 30
0.0
 10
6.140613037591484
 20
0.7341190218952184
 30
0.0
 10
7.040109721792502
 20
0.739463592744993
 30
0.0
 10
8.015986535553601
 20
0.7702924696495527
 30
0.0
 10
9.246435017472354
 20
0.8320557338949263
 30
0.0
 10
10.73044213283423
 20
0.9377361932841944
 30
0.0
 10
12.46613405269033
 20
1.102913891712829
 30
0.0
 10
13.61950388583934
 20
1.24627173247374
 30
0.0
 10
14.19618870112262
 20
1.317950640264224
 30
0.0
  0
SPLINE
  5
120
330
1F
100
AcDbEntity
  8
0
  6
Continuous
 62
     7
370
    25
100
AcDbSpline
210
0.0
220
0.0
230
1.0
 70
     8
 71
     3
 72
    41
 73
    37
 74
     0
 42
0.00000001
 43
0.00000001
 40
0.0
 40
0.0
 40
0.0
 40
0.0
 40
0.0416721419612057
 40
0.0833443620322754
 40
0.1250159160442531
 40
0.1666869901135341
 40
0.2083591035996115
 40
0.250026140107531
 40
0.2656554472038582
 40
0.2812770962318289
 40
0.2969168876801564
 40
0.3056898620428501
 40
0.3100690126537293
 40
0.3144011284273198
 40
0.3202429108116255
 40
0.3261151518015109
 40
0.3319837847996419
 40
0.3467430170124025
 40
0.3615115214037569
 40
0.3762814527901653
 40
0.3910518933149822
 40
0.4142563530686064
 40
0.4374626048866182
 40
0.4727411666238864
 40
0.5080226286689644
 40
0.5433053189328525
 40
0.5785887477310767
 40
0.6138723929269454
 40
0.6600736668353255
 40
0.7062756763391462
 40
0.7524782189827551
 40
0.8019802026158317
 40
0.8514846021227027
 40
0.9009895239053237
 40
0.9504946873552773
 40
1.0
 40
1.0
 40
1.0
 40
1.0
 10
18.20127888275516
 20
7.020410624337783
 30
0.0
 10
18.06327529210171
 20
6.909408964265118
 30
0.0
 10
17.78726785212221
 20
6.687405436059336
 30
0.0
 10
17.36049783210093
 20
6.370805343228626
 30
0.0
 10
16.92661426610389
 20
6.064170649068976
 30
0.0
 10
16.48570906916537
 20
5.767730520236879
 30
0.0
 10
16.04376745167729
 20
5.472973641600438
 30
0.0
 10
15.70318000414175
 20
5.225664230080163
 30
0.0
 10
15.46592870869983
 20
5.025838641991702
 30
0.0
 10
15.32298150350473
 20
4.887364374672345
 30
0.0
 10
15.21075525180304
 20
4.757150622289442
 30
0.0
 10
15.15320765647174
 20
4.649806137837944
 30
0.0
 10
15.1294409718238
 20
4.576521212316419
 30
0.0
 10
15.15196555946301
 20
4.515213608162872
 30
0.0
 10
15.19873497581075
 20
4.464643874730995
 30
0.0
 10
15.25987520440044
 20
4.421063954372236
 30
0.0
 10
15.3606049426285
 20
4.370028811453295
 30
0.0
 10
15.5070578400323
 20
4.329573965892371
 30
0.0
 10
15.69489943723487
 20
4.311397547861176
 30
0.0
 10
15.88350999008795
 20
4.31582126499537
 30
0.0
 10
16.10640614038788
 20
4.341454832867862
 30
0.0
 10
16.36127134304355
 20
4.395204497074094
 30
0.0
 10
16.69382339807433
 20
4.495840260675518
 30
0.0
 10
17.06434142770972
 20
4.644137787400659
 30
0.0
 10
17.46730401898868
 20
4.844828150433002
 30
0.0
 10
17.85554470773812
 20
5.072590674012381
 30
0.0
 10
18.22944126073813
 20
5.323112329371845
 30
0.0
 10
18.62568876424184
 20
5.622228462649618
 30
0.0
 10
19.03703425319107
 20
5.976859854543807
 30
0.0
 10
19.45556934133866
 20
6.391952791486594
 30
0.0
 10
19.85468335856848
 20
6.844619108607446
 30
0.0
 10
20.23111930443729
 20
7.334150066700745
 30
0.0
 10
20.58624184263903
 20
7.856152196740574
 30
0.0
 10
20.92198786281869
 20
8.390663517553925
 30
0.0
 10
21.2430204470356
 20
8.93415667631501
 30
0.0
 10
21.44691970519585
 20
9.30222333561099
 30
0.0
 10
21.54886948789963
 20
9.486256942571151
 30
0.0
  0
SPLINE
  5
127
330
1F
100
AcDbEntity
  8
0
  6
Continuous
 62
     7
370
    25
100
AcDbSpline
210
0.0
220
0.0
230
1.0
 70
     8
 71
     3
 72
    11
 73
     7
 74
     0
 42
0.00000001
 43
0.00000001
 40
0.0
 40
0.0
 40
0.0
 40
0.0
 40
0.2799943093679277
 40
0.5599929346994035
 40
0.7799949387965988
 40
1.0
 40
1.0
 40
1.0
 40
1.0
 10
20.99791565725859
 20
9.833742087701562
 30
0.0
 10
20.81884575720133
 20
9.623754933025653
 30
0.0
 10
20.46070319681941
 20
9.203777386833393
 30
0.0
 10
19.93479150340968
 20
8.642848437783249
 30
0.0
 10
19.43741556422918
 20
8.136646503482838
 30
0.0
 10
19.12255758208084
 20
7.838433622916991
 30
0.0
 10
18.96512749721255
 20
7.689326146663831
 30
0.0
  0
LINE
  5
24C
330
1F
100
AcDbEntity
  8
0
  6
Continuous
 62
     7
370
    25
100
AcDbLine
 10
3.104447144
 20
5.4085612118
 30
0.0
 11
3.0912177513
 21
4.9033510859
 31
0.0
  0
LINE
  5
24D
330
1F
100
AcDbEntity
  8
0
  6
Continuous
 62
     7
370
    25
100
AcDbLine
 10
3.8541901377
 20
5.3889285005
 30
0.0
 11
3.8410857182
 21
4.8884909074
 31
0.0
  0
LINE
  5
24E
330
1F
100
AcDbEntity
  8
0
  6
Continuous
 62
     7
370
    25
100
AcDbLine
 10
12.098457177
 20
5.0619971476
 30
0.0
 11
12.0855917132
 21
4.5706849053
 31
0.0
  0
LINE
  5
24F
330
1F
100
AcDbEntity
  8
0
  6
Continuous
 62
     7
370
    25
100
AcDbLine
 10
12.8482001707
 20
5.0423644363
 30
0.0
 11
12.8349075684
 21
4.5347404315
 31
0.0
  0
LINE
  5
250
330
1F
100
AcDbEntity
  8
0
  6
Continuous
 62
     7
370
    25
100
AcDbLine
 10
13.4499106962
 20
4.000493942
 30
0.0
 11
13.4542201389
 21
4.16506492
 31
0.0
  0
LINE
  5
251
330
1F
100
AcDbEntity
  8
0
  6
Continuous
 62
     7
370
    25
100
AcDbLine
 10
1.0991332
 20
4.1748030698
 30
0.0
 11
2.1464241799
 21
3.891038003
 31
0.0
  0
LINE
  5
252
330
1F
100
AcDbEntity
  8
0
  6
Continuous
 62
     7
370
    25
100
AcDbLine
 10
2.1813410382
 20
3.9612987833
 30
0.0
 11
1.6450805301
 21
4.3756301874
 31
0.0
  0
LINE
  5
253
330
1F
100
AcDbEntity
  8
0
  6
Continuous
 62
     7
370
    25
100
AcDbLine
 10
1.5545491284
 20
4.3920811728
 30
0.0
 11
1.0978374975
 21
4.2516442443
 31
0.0
  0
LINE
  5
254
330
1F
100
AcDbEntity
  8
0
  6
Continuous
 62
     7
370
    25
100
AcDbLine
 10
1.9352561585
 20
4.4777054468
 30
0.0
 11
2.4934633698
 21
4.4630882766
 31
0.0
  0
LINE
  5
255
330
1F
100
AcDbEntity
  8
0
  6
Continuous
 62
     7
370
    25
100
AcDbLine
 10
1.9113750265
 20
4.4048770166
 30
0.0
 11
2.488484709
 21
4.0036317019
 31
0.0
  0
LINE
  5
256
330
1F
100
AcDbEntity
  8
0
  6
Continuous
 62
     7
370
    25
100
AcDbLine
 10
2.5827152296
 20
4.0513242908
 30
0.0
 11
2.5908114074
 21
4.3605048492
 31
0.0
  0
LINE
  5
257
330
1F
100
AcDbEntity
  8
0
  6
Continuous
 62
     7
370
    25
100
AcDbLine
 10
3.7469603987
 20
3.6755415636
 30
0.0
 11
4.4929866805
 21
3.6560061779
 31
0.0
  0
LINE
  5
258
330
1F
100
AcDbEntity
  8
0
  6
Continuous
 62
     7
370
    25
100
AcDbLine
 10
4.5195321233
 20
3.726811838
 30
0.0
 11
3.7617436471
 21
4.3537671899
 31
0.0
  0
LINE
  5
259
330
1F
100
AcDbEntity
  8
0
  6
Continuous
 62
     7
370
    25
100
AcDbLine
 10
3.6635166602
 20
4.3091087563
 30
0.0
 11
3.649612361
 21
3.778124991
 31
0.0
  0
LINE
  5
25A
330
1F
100
AcDbEntity
  8
0
  6
Continuous
 62
     7
370
    25
100
AcDbLine
 10
4.0702258589
 20
4.3468064736
 30
0.0
 11
4.8734509116
 21
3.7063399465
 31
0.0
  0
LINE
  5
25B
330
1F
100
AcDbEntity
  8
0
  6
Continuous
 62
     7
370
    25
100
AcDbLine
 10
5.0139820265
 20
3.7221831068
 30
0.0
 11
5.4386122878
 21
4.254722513
 31
0.0
  0
LINE
  5
25C
330
1F
100
AcDbEntity
  8
0
  6
Continuous
 62
     7
370
    25
100
AcDbLine
 10
5.3947469627
 20
4.3520514832
 30
0.0
 11
4.0971947547
 21
4.4180297178
 31
0.0
  0
LINE
  5
25D
330
1F
100
AcDbEntity
  8
0
  6
Continuous
 62
     7
370
    25
100
AcDbLine
 10
5.3306346352
 20
3.5972494905
 30
0.0
 11
6.2562417606
 21
3.5976665171
 31
0.0
  0
LINE
  5
25E
330
1F
100
AcDbEntity
  8
0
  6
Continuous
 62
     7
370
    25
100
AcDbLine
 10
6.3033835029
 20
3.6947489418
 30
0.0
 11
5.8440194803
 21
4.2790590242
 31
0.0
  0
LINE
  5
25F
330
1F
100
AcDbEntity
  8
0
  6
Continuous
 62
     7
370
    25
100
AcDbLine
 10
5.7499384228
 20
4.2793829798
 30
0.0
 11
5.28369532
 21
3.6946558708
 31
0.0
  0
LINE
  5
260
330
1F
100
AcDbEntity
  8
0
  6
Continuous
 62
     7
370
    25
100
AcDbLine
 10
6.8444473932
 20
4.3112106823
 30
0.0
 11
6.1778640875
 21
4.3286657805
 31
0.0
  0
LINE
  5
261
330
1F
100
AcDbEntity
  8
0
  6
Continuous
 62
     7
370
    25
100
AcDbLine
 10
6.1304417257
 20
4.2299872779
 30
0.0
 11
6.6032257997
 21
3.6698193307
 31
0.0
  0
LINE
  5
262
330
1F
100
AcDbEntity
  8
0
  6
Continuous
 62
     7
370
    25
100
AcDbLine
 10
6.7055829426
 20
3.6883406834
 30
0.0
 11
6.8993821743
 21
4.2310535324
 31
0.0
  0
LINE
  5
263
330
1F
100
AcDbEntity
  8
0
  6
Continuous
 62
     7
370
    25
100
AcDbLine
 10
7.455425896
 20
3.6258597579
 30
0.0
 11
7.8895676806
 21
3.6431291942
 31
0.0
  0
LINE
  5
264
330
1F
100
AcDbEntity
  8
0
  6
Continuous
 62
     7
370
    25
100
AcDbLine
 10
7.9090920088
 20
3.7170709629
 30
0.0
 11
7.3591066459
 21
4.0588828208
 31
0.0
  0
LINE
  5
265
330
1F
100
AcDbEntity
  8
0
  6
Continuous
 62
     7
370
    25
100
AcDbLine
 10
7.299005395
 20
4.0159646015
 30
0.0
 11
7.3742720508
 21
3.6879068567
 31
0.0
  0
LINE
  5
266
330
1F
100
AcDbEntity
  8
0
  6
Continuous
 62
     7
370
    25
100
AcDbLine
 10
9.4368573126
 20
3.7724912699
 30
0.0
 11
8.8774847531
 21
4.1807514593
 31
0.0
  0
LINE
  5
267
330
1F
100
AcDbEntity
  8
0
  6
Continuous
 62
     7
370
    25
100
AcDbLine
 10
8.8055129707
 20
4.1667114031
 30
0.0
 11
8.5373566288
 21
3.7342039374
 31
0.0
  0
LINE
  5
268
330
1F
100
AcDbEntity
  8
0
  6
Continuous
 62
     7
370
    25
100
AcDbLine
 10
8.5823883961
 20
3.6579212227
 30
0.0
 11
9.4153053005
 21
3.7002330532
 31
0.0
  0
LINE
  5
269
330
1F
100
AcDbEntity
  8
0
  6
Continuous
 62
     7
370
    25
100
AcDbLine
 10
9.6815398594
 20
4.1903461081
 30
0.0
 11
9.2296522353
 21
4.2021792019
 31
0.0
  0
LINE
  5
26A
330
1F
100
AcDbEntity
  8
0
  6
Continuous
 62
     7
370
    25
100
AcDbLine
 10
9.2050237789
 20
4.12988318
 30
0.0
 11
9.6627954066
 21
3.7957768169
 31
0.0
  0
LINE
  5
26B
330
1F
100
AcDbEntity
  8
0
  6
Continuous
 62
     7
370
    25
100
AcDbLine
 10
9.742254996
 20
3.8348551307
 30
0.0
 11
9.7496834858
 21
4.1185377089
 31
0.0
  0
LINE
  5
26C
330
1F
100
AcDbEntity
  8
0
  6
Continuous
 62
     7
370
    25
100
AcDbLine
 10
10.8137079119
 20
4.1348665601
 30
0.0
 11
10.8083757797
 21
3.9312406444
 31
0.0
  0
LINE
  5
26D
330
1F
100
AcDbEntity
  8
0
  6
Continuous
 62
     7
370
    25
100
AcDbLine
 10
10.8859002027
 20
3.8598164374
 30
0.0
 11
12.5147174635
 21
4.0364892249
 31
0.0
  0
LINE
  5
26E
330
1F
100
AcDbEntity
  8
0
  6
Continuous
 62
     7
370
    25
100
AcDbLine
 10
12.5125359218
 20
4.1161991301
 30
0.0
 11
10.887414637
 21
4.2029346872
 31
0.0
  0
LINE
  5
26F
330
1F
100
AcDbEntity
  8
0
  6
Continuous
 62
     7
370
    25
100
AcDbLine
 10
3.9258134836
 20
2.7330900305
 30
0.0
 11
3.9169933287
 21
2.2277836947
 31
0.0
  0
LINE
  5
270
330
1F
100
AcDbEntity
  8
0
  6
Continuous
 62
     7
370
    25
100
AcDbLine
 10
4.6756992549
 20
2.7200007257
 30
0.0
 11
4.6669624208
 21
2.2194678316
 31
0.0
  0
LINE
  5
271
330
1F
100
AcDbEntity
  8
0
  6
Continuous
 62
     7
370
    25
100
AcDbLine
 10
12.9225053558
 20
2.4650257103
 30
0.0
 11
12.9139278356
 21
1.9736199047
 31
0.0
  0
LINE
  5
272
330
1F
100
AcDbEntity
  8
0
  6
Continuous
 62
     7
370
    25
100
AcDbLine
 10
13.6723911272
 20
2.4519364054
 30
0.0
 11
13.6635288299
 21
1.944215731
 31
0.0
  0
LINE
  5
273
330
1F
100
AcDbEntity
  8
0
  6
Continuous
 62
     7
370
    25
100
AcDbLine
 10
1.93134233
 20
1.4818794229
 30
0.0
 11
2.9810697182
 21
1.207264383
 31
0.0
  0
LINE
  5
274
330
1F
100
AcDbEntity
  8
0
  6
Continuous
 62
     7
370
    25
100
AcDbLine
 10
3.0153721138
 20
1.2778271912
 30
0.0
 11
2.4755163471
 21
1.6874631224
 31
0.0
  0
LINE
  5
275
330
1F
100
AcDbEntity
  8
0
  6
Continuous
 62
     7
370
    25
100
AcDbLine
 10
2.3848448325
 20
1.7031234559
 30
0.0
 11
1.9293761196
 21
1.5587063646
 31
0.0
  0
LINE
  5
276
330
1F
100
AcDbEntity
  8
0
  6
Continuous
 62
     7
370
    25
100
AcDbLine
 10
2.7647901631
 20
1.7920667231
 30
0.0
 11
3.3231036768
 21
1.7823213244
 31
0.0
  0
LINE
  5
277
330
1F
100
AcDbEntity
  8
0
  6
Continuous
 62
     7
370
    25
100
AcDbLine
 10
2.7415454803
 20
1.7190326664
 30
0.0
 11
3.3221346698
 21
1.322838798
 31
0.0
  0
LINE
  5
278
330
1F
100
AcDbEntity
  8
0
  6
Continuous
 62
     7
370
    25
100
AcDbLine
 10
3.4159454112
 20
1.3713518769
 30
0.0
 11
3.4213432057
 21
1.6805913143
 31
0.0
  0
LINE
  5
279
330
1F
100
AcDbEntity
  8
0
  6
Continuous
 62
     7
370
    25
100
AcDbLine
 10
4.5834255308
 20
1.0057432852
 30
0.0
 11
5.3295938824
 21
0.9927188682
 31
0.0
  0
LINE
  5
27A
330
1F
100
AcDbEntity
  8
0
  6
Continuous
 62
     7
370
    25
100
AcDbLine
 10
5.3555204264
 20
1.0637534819
 30
0.0
 11
4.5922896563
 21
1.6840720933
 31
0.0
  0
LINE
  5
27B
330
1F
100
AcDbEntity
  8
0
  6
Continuous
 62
     7
370
    25
100
AcDbLine
 10
4.494456123
 20
1.6385581788
 30
0.0
 11
4.4851860019
 21
1.1074732954
 31
0.0
  0
LINE
  5
27C
330
1F
100
AcDbEntity
  8
0
  6
Continuous
 62
     7
370
    25
100
AcDbLine
 10
4.9008208649
 20
1.6798036229
 30
0.0
 11
5.7096043872
 21
1.0463708548
 31
0.0
  0
LINE
  5
27D
330
1F
100
AcDbEntity
  8
0
  6
Continuous
 62
     7
370
    25
100
AcDbLine
 10
5.8499918953
 20
1.0634397616
 30
0.0
 11
6.2699587639
 21
1.5996644414
 31
0.0
  0
LINE
  5
27E
330
1F
100
AcDbEntity
  8
0
  6
Continuous
 62
     7
370
    25
100
AcDbLine
 10
6.2252457643
 20
1.6966069133
 30
0.0
 11
4.9271672017
 21
1.7512595002
 31
0.0
  0
LINE
  5
27F
330
1F
100
AcDbEntity
  8
0
  6
Continuous
 62
     7
370
    25
100
AcDbLine
 10
6.1677226844
 20
0.9412741826
 30
0.0
 11
7.0932909263
 21
0.9497685368
 31
0.0
  0
LINE
  5
280
330
1F
100
AcDbEntity
  8
0
  6
Continuous
 62
     7
370
    25
100
AcDbLine
 10
7.1395836804
 20
1.047258649
 30
0.0
 11
6.6751381463
 21
1.6275378262
 31
0.0
  0
LINE
  5
281
330
1F
100
AcDbEntity
  8
0
  6
Continuous
 62
     7
370
    25
100
AcDbLine
 10
6.5810578441
 20
1.6270407678
 30
0.0
 11
6.1199351363
 21
1.0382672364
 31
0.0
  0
LINE
  5
282
330
1F
100
AcDbEntity
  8
0
  6
Continuous
 62
     7
370
    25
100
AcDbLine
 10
7.6752473933
 20
1.6684185298
 30
0.0
 11
7.0085371466
 21
1.6800560004
 31
0.0
  0
LINE
  5
283
330
1F
100
AcDbEntity
  8
0
  6
Continuous
 62
     7
370
    25
100
AcDbLine
 10
6.961977712
 20
1.5809674222
 30
0.0
 11
7.4396321093
 21
1.0249465716
 31
0.0
  0
LINE
  5
284
330
1F
100
AcDbEntity
  8
0
  6
Continuous
 62
     7
370
    25
100
AcDbLine
 10
7.5418237275
 20
1.0443604423
 30
0.0
 11
7.7308795769
 21
1.5887438223
 31
0.0
  0
LINE
  5
285
330
1F
100
AcDbEntity
  8
0
  6
Continuous
 62
     7
370
    25
100
AcDbLine
 10
8.2921833711
 20
0.988425427
 30
0.0
 11
8.7261579226
 21
1.0094827595
 31
0.0
  0
LINE
  5
286
330
1F
100
AcDbEntity
  8
0
  6
Continuous
 62
     7
370
    25
100
AcDbLine
 10
8.7450362519
 20
1.0835920924
 30
0.0
 11
8.1920889974
 21
1.4205914683
 31
0.0
  0
LINE
  5
287
330
1F
100
AcDbEntity
  8
0
  6
Continuous
 62
     7
370
    25
100
AcDbLine
 10
8.1323645624
 20
1.3771504076
 30
0.0
 11
8.2104911598
 21
1.0497619714
 31
0.0
  0
LINE
  5
288
330
1F
100
AcDbEntity
  8
0
  6
Continuous
 62
     7
370
    25
100
AcDbLine
 10
10.2722597558
 20
1.1523423874
 30
0.0
 11
9.7093457984
 21
1.5557056469
 31
0.0
  0
LINE
  5
289
330
1F
100
AcDbEntity
  8
0
  6
Continuous
 62
     7
370
    25
100
AcDbLine
 10
9.6374992776
 20
1.541038061
 30
0.0
 11
9.373127438
 21
1.106206988
 31
0.0
  0
LINE
  5
28A
330
1F
100
AcDbEntity
  8
0
  6
Continuous
 62
     7
370
    25
100
AcDbLine
 10
9.4188231744
 20
1.0303201493
 30
0.0
 11
10.2513391282
 21
1.0798988476
 31
0.0
  0
LINE
  5
28B
330
1F
100
AcDbEntity
  8
0
  6
Continuous
 62
     7
370
    25
100
AcDbLine
 10
10.5132865608
 20
1.5723165458
 30
0.0
 11
10.0613128813
 21
1.5802057757
 31
0.0
  0
LINE
  5
28C
330
1F
100
AcDbEntity
  8
0
  6
Continuous
 62
     7
370
    25
100
AcDbLine
 10
10.0373162564
 20
1.5076975854
 30
0.0
 11
10.4979860446
 21
1.1775987045
 31
0.0
  0
LINE
  5
28D
330
1F
100
AcDbEntity
  8
0
  6
Continuous
 62
     7
370
    25
100
AcDbLine
 10
10.5771015902
 20
1.2173689372
 30
0.0
 11
10.582054231
 21
1.5011055386
 31
0.0
  0
LINE
  5
28E
330
1F
100
AcDbEntity
  8
0
  6
Continuous
 62
     7
370
    25
100
AcDbLine
 10
11.6458956481
 20
1.526719015
 30
0.0
 11
11.6423406676
 21
1.3230543217
 31
0.0
  0
LINE
  5
28F
330
1F
100
AcDbEntity
  8
0
  6
Continuous
 62
     7
370
    25
100
AcDbLine
 10
11.7204854246
 20
1.2523093539
 30
0.0
 11
13.3476989237
 21
1.443189346
 31
0.0
  0
LINE
  5
290
330
1F
100
AcDbEntity
  8
0
  6
Continuous
 62
     7
370
    25
100
AcDbLine
 10
13.3448218737
 20
1.5228771788
 30
0.0
 11
11.7190055677
 21
1.5954277546
 31
0.0
  0
LINE
  5
291
330
1F
100
AcDbEntity
  8
0
  6
Continuous
 62
     7
370
    25
100
AcDbLine
 10
14.2831706612
 20
1.4153564306
 30
0.0
 11
14.2860438054
 21
1.5799587487
 31
0.0
  0
LINE
  5
292
330
1F
100
AcDbEntity
  8
0
  6
Continuous
 62
     7
370
    25
100
AcDbLine
 10
17.9062991511
 20
7.7484159821
 30
0.0
 11
18.2306224676
 21
7.3783998519
 31
0.0
  0
LINE
  5
293
330
1F
100
AcDbEntity
  8
0
  6
Continuous
 62
     7
370
    25
100
AcDbLine
 10
18.2823057472
 20
8.0779900097
 30
0.0
 11
18.606914873
 21
7.7076478036
 31
0.0
  0
LINE
  5
294
330
1F
100
AcDbEntity
  8
0
  6
Continuous
 62
     7
370
    25
100
AcDbLine
 10
21.1583016687
 20
9.8608392679
 30
0.0
 11
21.5035766229
 21
9.6533771451
 31
0.0
  0
LINE
  5
295
330
1F
100
AcDbEntity
  8
0
  6
Continuous
 62
     7
370
    25
100
AcDbLine
 10
21.1099384605
 20
9.2608155061
 30
0.0
 11
20.9235292714
 21
9.4428357107
 31
0.0
  0
LINE
  5
296
330
1F
100
AcDbEntity
  8
0
  6
Continuous
 62
     7
370
    25
100
AcDbLine
 10
20.8321136539
 20
9.4384430537
 30
0.0
 11
20.4825692288
 21
9.0245267011
 31
0.0
  0
LINE
  5
297
330
1F
100
AcDbEntity
  8
0
  6
Continuous
 62
     7
370
    25
100
AcDbLine
 10
20.5551391283
 20
8.9268409854
 30
0.0
 11
21.0910927425
 21
9.1587371334
 31
0.0
  0
LINE
  5
298
330
1F
100
AcDbEntity
  8
0
  6
Continuous
 62
     7
370
    25
100
AcDbLine
 10
20.8174433256
 20
8.8194667745
 30
0.0
 11
20.0160181321
 21
8.4528000091
 31
0.0
  0
LINE
  5
299
330
1F
100
AcDbEntity
  8
0
  6
Continuous
 62
     7
370
    25
100
AcDbLine
 10
20.0098308901
 20
8.3423929711
 30
0.0
 11
20.4367928868
 21
8.0858483214
 31
0.0
  0
LINE
  5
29A
330
1F
100
AcDbEntity
  8
0
  6
Continuous
 62
     7
370
    25
100
AcDbLine
 10
20.5225557228
 20
8.1072313981
 30
0.0
 11
20.8970189195
 21
8.7304428132
 31
0.0
  0
LINE
  5
29B
330
1F
100
AcDbEntity
  8
0
  6
Continuous
 62
     7
370
    25
100
AcDbLine
 10
20.1902905946
 20
7.8307941247
 30
0.0
 11
19.7345640961
 21
8.1046222307
 31
0.0
  0
LINE
  5
29C
330
1F
100
AcDbEntity
  8
0
  6
Continuous
 62
     7
370
    25
100
AcDbLine
 10
19.6445232714
 20
8.0747034107
 30
0.0
 11
19.3793332918
 21
7.4261280094
 31
0.0
  0
LINE
  5
29D
330
1F
100
AcDbEntity
  8
0
  6
Continuous
 62
     7
370
    25
100
AcDbLine
 10
19.4660109551
 20
7.3470187533
 30
0.0
 11
20.1869274331
 21
7.7217660486
 31
0.0
  0
LINE
  5
29E
330
1F
100
AcDbEntity
  8
0
  6
Continuous
 62
     7
370
    25
100
AcDbLine
 10
19.7931214464
 20
7.3117723127
 30
0.0
 11
19.2876366382
 21
7.049010855
 31
0.0
  0
LINE
  5
29F
330
1F
100
AcDbEntity
  8
0
  6
Continuous
 62
     7
370
    25
100
AcDbLine
 10
19.3061933273
 20
6.9319052972
 30
0.0
 11
19.5548067531
 21
6.8904900664
 31
0.0
  0
LINE
  5
2A0
330
1F
100
AcDbEntity
  8
0
  6
Continuous
 62
     7
370
    25
100
AcDbLine
 10
19.6128277954
 20
6.9118156891
 30
0.0
 11
19.8696991779
 21
7.2159923776
 31
0.0
  0
LINE
  5
2A1
330
1F
100
AcDbEntity
  8
0
  6
Continuous
 62
     7
370
    25
100
AcDbLine
 10
19.2531921621
 20
6.6350875309
 30
0.0
 11
18.4119617425
 21
6.7752237758
 31
0.0
  0
LINE
  5
2A2
330
1F
100
AcDbEntity
  8
0
  6
Continuous
 62
     7
370
    25
100
AcDbLine
 10
18.3398035521
 20
6.704849492
 30
0.0
 11
18.4511119921
 21
5.9152121277
 31
0.0
  0
LINE
  5
2A3
330
1F
100
AcDbEntity
  8
0
  6
Continuous
 62
     7
370
    25
100
AcDbLine
 10
18.5545472431
 20
5.8772445468
 30
0.0
 11
19.2844692227
 21
6.5267456661
 31
0.0
  0
LINE
  5
2A4
330
1F
100
AcDbEntity
  8
0
  6
Continuous
 62
     7
370
    25
100
AcDbLine
 10
18.065123662
 20
6.5788683524
 30
0.0
 11
17.6025114458
 21
6.2085526924
 31
0.0
  0
LINE
  5
2A5
330
1F
100
AcDbEntity
  8
0
  6
Continuous
 62
     7
370
    25
100
AcDbLine
 10
17.6093795322
 20
6.1061870595
 30
0.0
 11
18.1718305734
 21
5.7682323787
 31
0.0
  0
LINE
  5
2A6
330
1F
100
AcDbEntity
  8
0
  6
Continuous
 62
     7
370
    25
100
AcDbLine
 10
18.2659086144
 20
5.8305291809
 30
0.0
 11
18.1660697894
 21
6.5387995217
 31
0.0
  0
LINE
  5
2A7
330
1F
100
AcDbEntity
  8
0
  6
Continuous
 62
     7
370
    25
100
AcDbLine
 10
17.328070034
 20
5.2072057102
 30
0.0
 11
16.6871922089
 21
5.5407289629
 31
0.0
  0
LINE
  5
2A8
330
1F
100
AcDbEntity
  8
0
  6
Continuous
 62
     7
370
    25
100
AcDbLine
 10
16.5960745196
 20
5.4798723357
 30
0.0
 11
16.6552452458
 21
4.7994945602
 31
0.0
  0
LINE
  5
2A9
330
1F
100
AcDbEntity
  8
0
  6
Continuous
 62
     7
370
    25
100
AcDbLine
 10
16.74951886
 20
4.7512281452
 30
0.0
 11
17.3312259589
 21
5.0980826679
 31
0.0
  0
LINE
  5
2AA
330
1F
100
AcDbEntity
  8
0
  6
Continuous
 62
     7
370
    25
100
AcDbLine
 10
16.290319745
 20
5.406367318
 30
0.0
 11
15.8401432526
 21
5.1202912935
 31
0.0
  0
LINE
  5
2AB
330
1F
100
AcDbEntity
  8
0
  6
Continuous
 62
     7
370
    25
100
AcDbLine
 10
15.8353455488
 20
5.0181661448
 30
0.0
 11
16.3068423483
 21
4.652246523
 31
0.0
  0
LINE
  5
2AC
330
1F
100
AcDbEntity
  8
0
  6
Continuous
 62
     7
370
    25
100
AcDbLine
 10
16.4076280204
 20
4.7036642766
 30
0.0
 11
16.3863077133
 21
5.3556599229
 31
0.0
  0
LINE
  5
2AD
330
1F
100
AcDbEntity
  8
0
  6
Continuous
 62
     7
370
    25
100
AcDbLine
 10
11.5397767562
 20
8.4852452553
 30
0.0
 11
0.789707205
 21
9.7564472106
 31
0.0
  0
LINE
  5
2AE
330
1F
100
AcDbEntity
  8
0
  6
Continuous
 62
     7
370
    25
100
AcDbLine
 10
16.3448767655
 20
9.6875618784
 30
0.0
 11
11.9136772804
 21
8.5117734486
 31
0.0
  0
LINE
  5
2AF
330
1F
100
AcDbEntity
  8
0
  6
Continuous
 62
     7
370
    25
100
AcDbLine
 10
12.4874336058
 20
7.4537859441
 30
0.0
 11
16.5423207364
 21
9.0958635044
 31
0.0
  0
LINE
  5
2B0
330
1F
100
AcDbEntity
  8
0
  6
Continuous
 62
     7
370
    25
100
AcDbLine
 10
1.8813905146
 20
8.2558810228
 30
0.0
 11
12.0264884818
 21
7.3843378305
 31
0.0
  0
LINE
  5
2B1
330
1F
100
AcDbEntity
  8
0
  6
Continuous
 62
     7
370
    25
100
AcDbLine
 10
0.5213301066
 20
9.0835479775
 30
0.0
 11
1.3687431939
 21
8.4508941716
 31
0.0
  0
LINE
  5
2B2
330
1F
100
AcDbEntity
  8
0
  6
Continuous
 62
     7
370
    25
100
AcDbLine
 10
8.0285488602
 20
8.0523169463
 30
0.0
 11
7.3009841161
 21
8.7534022809
 31
0.0
  0
LINE
  5
2B3
330
1F
100
AcDbEntity
  8
0
  6
Continuous
 62
     7
370
    25
100
AcDbLine
 10
7.1371087468
 20
8.7141373699
 30
0.0
 11
6.9251749134
 21
8.1025737268
 31
0.0
  0
LINE
  5
2B4
330
1F
100
AcDbEntity
  8
0
  6
Continuous
 62
     7
370
    25
100
AcDbLine
 10
7.0101764124
 20
7.9702806448
 30
0.0
 11
7.9496749899
 21
7.8807589533
 31
0.0
  0
LINE
  5
2B5
330
1F
100
AcDbEntity
  8
0
  6
Continuous
 62
     7
370
    25
100
AcDbLine
 10
7.725354418
 20
8.6134253238
 30
0.0
 11
8.433164089
 21
7.9201675951
 31
0.0
  0
LINE
  5
2B6
330
1F
100
AcDbEntity
  8
0
  6
Continuous
 62
     7
370
    25
100
AcDbLine
 10
8.6018023094
 20
7.9753278229
 30
0.0
 11
8.6995056394
 21
8.5674265217
 31
0.0
  0
LINE
  5
2B7
330
1F
100
AcDbEntity
  8
0
  6
Continuous
 62
     7
370
    25
100
AcDbLine
 10
8.6133003613
 20
8.6829281902
 30
0.0
 11
7.8077873603
 21
8.7840872202
 31
0.0
  0
LINE
  5
2B8
330
1F
100
AcDbEntity
  8
0
  6
Continuous
 62
     7
370
    25
100
AcDbLine
 10
6.7751423222
 20
8.1566256849
 30
0.0
 11
6.9736733985
 21
8.7511108842
 31
0.0
  0
LINE
  5
2B9
330
1F
100
AcDbEntity
  8
0
  6
Continuous
 62
     7
370
    25
100
AcDbLine
 10
6.8916929388
 20
8.8819550264
 30
0.0
 11
6.112262119
 21
8.9831104237
 31
0.0
  0
LINE
  5
2BA
330
1F
100
AcDbEntity
  8
0
  6
Continuous
 62
     7
370
    25
100
AcDbLine
 10
6.022634932
 20
8.819845589
 30
0.0
 11
6.6035346754
 21
8.1242049924
 31
0.0
  0
LINE
  5
2BB
330
1F
100
AcDbEntity
  8
0
  6
Continuous
 62
     7
370
    25
100
AcDbLine
 10
6.3073557793
 20
8.191303248
 30
0.0
 11
5.7169525581
 21
8.9044138846
 31
0.0
  0
LINE
  5
2BC
330
1F
100
AcDbEntity
  8
0
  6
Continuous
 62
     7
370
    25
100
AcDbLine
 10
5.5461088915
 20
8.8752587404
 30
0.0
 11
5.3106949056
 21
8.2372559487
 31
0.0
  0
LINE
  5
2BD
330
1F
100
AcDbEntity
  8
0
  6
Continuous
 62
     7
370
    25
100
AcDbLine
 10
5.3954544301
 20
8.1030498085
 30
0.0
 11
6.221271637
 21
8.0279419636
 31
0.0
  0
LINE
  5
2BE
330
1F
100
AcDbEntity
  8
0
  6
Continuous
 62
     7
370
    25
100
AcDbLine
 10
11.424365366
 20
7.7393071036
 30
0.0
 11
10.6300808439
 21
8.398747456
 31
0.0
  0
LINE
  5
2BF
330
1F
100
AcDbEntity
  8
0
  6
Continuous
 62
     7
370
    25
100
AcDbLine
 10
10.4686410864
 20
8.3437536522
 30
0.0
 11
10.3361068906
 21
7.7545529065
 31
0.0
  0
LINE
  5
2C0
330
1F
100
AcDbEntity
  8
0
  6
Continuous
 62
     7
370
    25
100
AcDbLine
 10
10.4261122418
 20
7.6328932989
 30
0.0
 11
11.3529309598
 21
7.5626536922
 31
0.0
  0
LINE
  5
2C1
330
1F
100
AcDbEntity
  8
0
  6
Continuous
 62
     7
370
    25
100
AcDbLine
 10
11.5920728115
 20
8.3650995657
 30
0.0
 11
11.1440176515
 21
8.4290239907
 31
0.0
  0
LINE
  5
2C2
330
1F
100
AcDbEntity
  8
0
  6
Continuous
 62
     7
370
    25
100
AcDbLine
 10
11.0664479998
 20
8.2527305527
 30
0.0
 11
11.7172075037
 21
7.7185778497
 31
0.0
  0
LINE
  5
2C3
330
1F
100
AcDbEntity
  8
0
  6
Continuous
 62
     7
370
    25
100
AcDbLine
 10
11.8724840978
 20
7.8354599444
 30
0.0
 11
11.6697797538
 21
8.3056882225
 31
0.0
  0
LINE
  5
2C4
330
1F
100
AcDbEntity
  8
0
  6
Continuous
 62
     7
370
    25
100
AcDbLine
 10
9.7104926778
 20
7.8709304281
 30
0.0
 11
9.0578606898
 21
8.527467631
 31
0.0
  0
LINE
  5
2C5
330
1F
100
AcDbEntity
  8
0
  6
Continuous
 62
     7
370
    25
100
AcDbLine
 10
8.888098393
 20
8.4721489546
 30
0.0
 11
8.7983823413
 21
7.888013193
 31
0.0
  0
LINE
  5
2C6
330
1F
100
AcDbEntity
  8
0
  6
Continuous
 62
     7
370
    25
100
AcDbLine
 10
8.8875163735
 20
7.7733046748
 30
0.0
 11
9.6298644132
 21
7.7009032334
 31
0.0
  0
LINE
  5
2C7
330
1F
100
AcDbEntity
  8
0
  6
Continuous
 62
     7
370
    25
100
AcDbLine
 10
10.2219376316
 20
8.5322920798
 30
0.0
 11
9.4185253714
 21
8.6305695848
 31
0.0
  0
LINE
  5
2C8
330
1F
100
AcDbEntity
  8
0
  6
Continuous
 62
     7
370
    25
100
AcDbLine
 10
9.3351327418
 20
8.4611428851
 30
0.0
 11
9.9993083364
 21
7.7867060535
 31
0.0
  0
LINE
  5
2C9
330
1F
100
AcDbEntity
  8
0
  6
Continuous
 62
     7
370
    25
100
AcDbLine
 10
10.1677608765
 20
7.8333824788
 30
0.0
 11
10.3069975421
 21
8.4095418053
 31
0.0
  0
LINE
  5
2CA
330
1F
100
AcDbEntity
  8
0
  6
Continuous
 62
     7
370
    25
100
AcDbLine
 10
3.0297779324
 20
8.4700910562
 30
0.0
 11
2.5316778419
 21
9.2489935493
 31
0.0
  0
LINE
  5
2CB
330
1F
100
AcDbEntity
  8
0
  6
Continuous
 62
     7
370
    25
100
AcDbLine
 10
2.3543695425
 20
9.2317182798
 30
0.0
 11
2.0762486029
 21
8.5245412865
 31
0.0
  0
LINE
  5
2CC
330
1F
100
AcDbEntity
  8
0
  6
Continuous
 62
     7
370
    25
100
AcDbLine
 10
2.1601091002
 20
8.3883658963
 30
0.0
 11
2.9363301304
 21
8.3166403965
 31
0.0
  0
LINE
  5
2CD
330
1F
100
AcDbEntity
  8
0
  6
Continuous
 62
     7
370
    25
100
AcDbLine
 10
2.7668610473
 20
9.1833309958
 30
0.0
 11
3.2497355458
 21
8.4575470529
 31
0.0
  0
LINE
  5
2CE
330
1F
100
AcDbEntity
  8
0
  6
Continuous
 62
     7
370
    25
100
AcDbLine
 10
3.4258429432
 20
8.4758069673
 30
0.0
 11
3.680690449
 21
9.1130636885
 31
0.0
  0
LINE
  5
2CF
330
1F
100
AcDbEntity
  8
0
  6
Continuous
 62
     7
370
    25
100
AcDbLine
 10
3.5997546068
 20
9.2494834993
 30
0.0
 11
2.8620326025
 21
9.338010721
 31
0.0
  0
LINE
  5
2D0
330
1F
100
AcDbEntity
  8
0
  6
Continuous
 62
     7
370
    25
100
AcDbLine
 10
4.6355074796
 20
8.3431947001
 30
0.0
 11
4.0397361931
 21
9.0929680149
 31
0.0
  0
LINE
  5
2D1
330
1F
100
AcDbEntity
  8
0
  6
Continuous
 62
     7
370
    25
100
AcDbLine
 10
3.8679966814
 20
9.0663610203
 30
0.0
 11
3.6117455413
 21
8.3938085282
 31
0.0
  0
LINE
  5
2D2
330
1F
100
AcDbEntity
  8
0
  6
Continuous
 62
     7
370
    25
100
AcDbLine
 10
3.6961661926
 20
8.2586122596
 30
0.0
 11
4.5481886193
 21
8.1813914369
 31
0.0
  0
LINE
  5
2D3
330
1F
100
AcDbEntity
  8
0
  6
Continuous
 62
     7
370
    25
100
AcDbLine
 10
4.3666651255
 20
9.0089659398
 30
0.0
 11
4.9726278445
 21
8.2524772035
 31
0.0
  0
LINE
  5
2D4
330
1F
100
AcDbEntity
  8
0
  6
Continuous
 62
     7
370
    25
100
AcDbLine
 10
5.1442075182
 20
8.2796140216
 30
0.0
 11
5.3884181518
 21
8.9251943731
 31
0.0
  0
LINE
  5
2D5
330
1F
100
AcDbEntity
  8
0
  6
Continuous
 62
     7
370
    25
100
AcDbLine
 10
5.3078222819
 20
9.0597353953
 30
0.0
 11
4.4576489293
 21
9.1706437802
 31
0.0
  0
LINE
  5
2D6
330
1F
100
AcDbEntity
  8
0
  6
Continuous
 62
     7
370
    25
100
AcDbLine
 10
1.8749715785
 20
8.5494091323
 30
0.0
 11
2.1573187526
 21
9.2658881148
 31
0.0
  0
LINE
  5
2D7
330
1F
100
AcDbEntity
  8
0
  6
Continuous
 62
     7
370
    25
100
AcDbLine
 10
2.0807120206
 20
9.4011926482
 30
0.0
 11
1.5910454644
 21
9.4827520765
 31
0.0
  0
LINE
  5
2D8
330
1F
100
AcDbEntity
  8
0
  6
Continuous
 62
     7
370
    25
100
AcDbLine
 10
1.4826879672
 20
9.4234720616
 30
0.0
 11
1.266764187
 21
8.9191823017
 31
0.0
  0
LINE
  5
2D9
330
1F
100
AcDbEntity
  8
0
  6
Continuous
 62
     7
370
    25
100
AcDbLine
 10
1.3016746223
 20
8.7976687648
 30
0.0
 11
1.7249177847
 21
8.5039201139
 31
0.0
  0
LINE
  5
2DA
330
1F
100
AcDbEntity
  8
0
  6
Continuous
 62
     7
370
    25
100
AcDbLine
 10
11.7964455306
 20
6.7236923528
 30
0.0
 11
1.0258277339
 21
7.8070861149
 31
0.0
  0
LINE
  5
2DB
330
1F
100
AcDbEntity
  8
0
  6
Continuous
 62
     7
370
    25
100
AcDbLine
 10
16.5798303816
 20
8.0096864156
 30
0.0
 11
12.1698261272
 21
6.7567419696
 31
0.0
  0
LINE
  5
2DC
330
1F
100
AcDbEntity
  8
0
  6
Continuous
 62
     7
370
    25
100
AcDbLine
 10
12.7619594947
 20
5.7089290303
 30
0.0
 11
16.7875708413
 21
7.4215240325
 31
0.0
  0
LINE
  5
2DD
330
1F
100
AcDbEntity
  8
0
  6
Continuous
 62
     7
370
    25
100
AcDbLine
 10
2.1435332659
 20
6.3258009714
 30
0.0
 11
12.3022966115
 21
5.6314468924
 31
0.0
  0
LINE
  5
2DE
330
1F
100
AcDbEntity
  8
0
  6
Continuous
 62
     7
370
    25
100
AcDbLine
 10
0.7692352216
 20
7.1296055414
 30
0.0
 11
1.6275605751
 21
6.5118374893
 31
0.0
  0
LINE
  5
2DF
330
1F
100
AcDbEntity
  8
0
  6
Continuous
 62
     7
370
    25
100
AcDbLine
 10
8.2933080525
 20
6.2295506046
 30
0.0
 11
7.5536184938
 21
6.9178314049
 31
0.0
  0
LINE
  5
2E0
330
1F
100
AcDbEntity
  8
0
  6
Continuous
 62
     7
370
    25
100
AcDbLine
 10
7.3904533507
 20
6.8757124545
 30
0.0
 11
7.1892250531
 21
6.2605432002
 31
0.0
  0
LINE
  5
2E1
330
1F
100
AcDbEntity
  8
0
  6
Continuous
 62
     7
370
    25
100
AcDbLine
 10
7.2765224386
 20
6.1297537477
 30
0.0
 11
8.2174402948
 21
6.0566422018
 31
0.0
  0
LINE
  5
2E2
330
1F
100
AcDbEntity
  8
0
  6
Continuous
 62
     7
370
    25
100
AcDbLine
 10
7.9803670967
 20
6.7852820499
 30
0.0
 11
8.7001679806
 21
6.1044828897
 31
0.0
  0
LINE
  5
2E3
330
1F
100
AcDbEntity
  8
0
  6
Continuous
 62
     7
370
    25
100
AcDbLine
 10
8.8678178379
 20
6.1625778592
 30
0.0
 11
8.95517274
 21
6.7562915367
 31
0.0
  0
LINE
  5
2E4
330
1F
100
AcDbEntity
  8
0
  6
Continuous
 62
     7
370
    25
100
AcDbLine
 10
8.8669648093
 20
6.8702711242
 30
0.0
 11
8.0598090233
 21
6.9573566069
 31
0.0
  0
LINE
  5
2E5
330
1F
100
AcDbEntity
  8
0
  6
Continuous
 62
     7
370
    25
100
AcDbLine
 10
7.0382719758
 20
6.3119684961
 30
0.0
 11
7.2263976176
 21
6.9098279975
 31
0.0
  0
LINE
  5
2E6
330
1F
100
AcDbEntity
  8
0
  6
Continuous
 62
     7
370
    25
100
AcDbLine
 10
7.1421460987
 20
7.0392214552
 30
0.0
 11
6.3610685849
 21
7.1267585026
 31
0.0
  0
LINE
  5
2E7
330
1F
100
AcDbEntity
  8
0
  6
Continuous
 62
     7
370
    25
100
AcDbLine
 10
6.2743044128
 20
6.9619543238
 30
0.0
 11
6.8672562849
 21
6.276557775
 31
0.0
  0
LINE
  5
2E8
330
1F
100
AcDbEntity
  8
0
  6
Continuous
 62
     7
370
    25
100
AcDbLine
 10
6.5699514722
 20
6.3384767767
 30
0.0
 11
5.9671926756
 21
7.0411748462
 31
0.0
  0
LINE
  5
2E9
330
1F
100
AcDbEntity
  8
0
  6
Continuous
 62
     7
370
    25
100
AcDbLine
 10
5.7968838567
 20
7.0090425093
 30
0.0
 11
5.5726404096
 21
6.367028348
 31
0.0
  0
LINE
  5
2EA
330
1F
100
AcDbEntity
  8
0
  6
Continuous
 62
     7
370
    25
100
AcDbLine
 10
5.6597292448
 20
6.2343219057
 30
0.0
 11
6.4867314884
 21
6.1736379976
 31
0.0
  0
LINE
  5
2EB
330
1F
100
AcDbEntity
  8
0
  6
Continuous
 62
     7
370
    25
100
AcDbLine
 10
11.694070134
 20
5.9758536046
 30
0.0
 11
10.8883977641
 21
6.6213313448
 31
0.0
  0
LINE
  5
2EC
330
1F
100
AcDbEntity
  8
0
  6
Continuous
 62
     7
370
    25
100
AcDbLine
 10
10.727942369
 20
6.5635284045
 30
0.0
 11
10.6057113296
 21
5.9721043563
 31
0.0
  0
LINE
  5
2ED
330
1F
100
AcDbEntity
  8
0
  6
Continuous
 62
     7
370
    25
100
AcDbLine
 10
10.6978262255
 20
5.852034088
 30
0.0
 11
11.6257296347
 21
5.7979803961
 31
0.0
  0
LINE
  5
2EE
330
1F
100
AcDbEntity
  8
0
  6
Continuous
 62
     7
370
    25
100
AcDbLine
 10
11.8508304524
 20
6.604477654
 30
0.0
 11
11.4017278983
 21
6.6605727022
 31
0.0
  0
LINE
  5
2EF
330
1F
100
AcDbEntity
  8
0
  6
Continuous
 62
     7
370
    25
100
AcDbLine
 10
11.3272468056
 20
6.4829523375
 30
0.0
 11
11.9872294458
 21
5.9602383079
 31
0.0
  0
LINE
  5
2F0
330
1F
100
AcDbEntity
  8
0
  6
Continuous
 62
     7
370
    25
100
AcDbLine
 10
12.1404425166
 20
6.0798125511
 30
0.0
 11
11.9295624305
 21
6.5464315325
 31
0.0
  0
LINE
  5
2F1
330
1F
100
AcDbEntity
  8
0
  6
Continuous
 62
     7
370
    25
100
AcDbLine
 10
9.9781613331
 20
6.0775456795
 30
0.0
 11
9.31417059
 21
6.7225928899
 31
0.0
  0
LINE
  5
2F2
330
1F
100
AcDbEntity
  8
0
  6
Continuous
 62
     7
370
    25
100
AcDbLine
 10
9.1453995928
 20
6.6643198782
 30
0.0
 11
9.06589178
 21
6.0787073223
 31
0.0
  0
LINE
  5
2F3
330
1F
100
AcDbEntity
  8
0
  6
Continuous
 62
     7
370
    25
100
AcDbLine
 10
9.1570141764
 20
5.9655718781
 30
0.0
 11
9.9005127323
 21
5.9061372235
 31
0.0
  0
LINE
  5
2F4
330
1F
100
AcDbEntity
  8
0
  6
Continuous
 62
     7
370
    25
100
AcDbLine
 10
10.477986039
 20
6.7477325478
 30
0.0
 11
9.6729809635
 21
6.8319736074
 31
0.0
  0
LINE
  5
2F5
330
1F
100
AcDbEntity
  8
0
  6
Continuous
 62
     7
370
    25
100
AcDbLine
 10
9.5925579385
 20
6.6611173101
 30
0.0
 11
10.2684029217
 21
5.9983746609
 31
0.0
  0
LINE
  5
2F6
330
1F
100
AcDbEntity
  8
0
  6
Continuous
 62
     7
370
    25
100
AcDbLine
 10
10.4360151897
 20
6.0479838793
 30
0.0
 11
10.5651752821
 21
6.626485469
 31
0.0
  0
LINE
  5
2F7
330
1F
100
AcDbEntity
  8
0
  6
Continuous
 62
     7
370
    25
100
AcDbLine
 10
3.2880072982
 20
6.5600205035
 30
0.0
 11
2.7763893478
 21
7.3301113207
 31
0.0
  0
LINE
  5
2F8
330
1F
100
AcDbEntity
  8
0
  6
Continuous
 62
     7
370
    25
100
AcDbLine
 10
2.5994095483
 20
7.3097442259
 30
0.0
 11
2.3336729082
 21
6.5978210594
 31
0.0
  0
LINE
  5
2F9
330
1F
100
AcDbEntity
  8
0
  6
Continuous
 62
     7
370
    25
100
AcDbLine
 10
2.4198972214
 20
6.4631299768
 30
0.0
 11
3.1972518119
 21
6.4049623261
 31
0.0
  0
LINE
  5
2FA
330
1F
100
AcDbEntity
  8
0
  6
Continuous
 62
     7
370
    25
100
AcDbLine
 10
3.0126827033
 20
7.2685632809
 30
0.0
 11
3.508150334
 21
6.5513172004
 31
0.0
  0
LINE
  5
2FB
330
1F
100
AcDbEntity
  8
0
  6
Continuous
 62
     7
370
    25
100
AcDbLine
 10
3.6839122299
 20
6.5726478316
 30
0.0
 11
3.9275992579
 21
7.2142551977
 31
0.0
  0
LINE
  5
2FC
330
1F
100
AcDbEntity
  8
0
  6
Continuous
 62
     7
370
    25
100
AcDbLine
 10
3.8442948886
 20
7.349241706
 30
0.0
 11
3.1051402299
 21
7.4248804203
 31
0.0
  0
LINE
  5
2FD
330
1F
100
AcDbEntity
  8
0
  6
Continuous
 62
     7
370
    25
100
AcDbLine
 10
4.8957069317
 20
6.4611673191
 30
0.0
 11
4.2869410354
 21
7.2004287971
 31
0.0
  0
LINE
  5
2FE
330
1F
100
AcDbEntity
  8
0
  6
Continuous
 62
     7
370
    25
100
AcDbLine
 10
4.1156920366
 20
7.1708285871
 30
0.0
 11
3.8712175842
 21
6.493906329
 31
0.0
  0
LINE
  5
2FF
330
1F
100
AcDbEntity
  8
0
  6
Continuous
 62
     7
370
    25
100
AcDbLine
 10
3.9579848781
 20
6.3602039949
 30
0.0
 11
4.8112252268
 21
6.297864775
 31
0.0
  0
LINE
  5
300
330
1F
100
AcDbEntity
  8
0
  6
Continuous
 62
     7
370
    25
100
AcDbLine
 10
4.6152862133
 20
7.1221452125
 30
0.0
 11
5.2343591902
 21
6.3763472007
 31
0.0
  0
LINE
  5
301
330
1F
100
AcDbEntity
  8
0
  6
Continuous
 62
     7
370
    25
100
AcDbLine
 10
5.4054391287
 20
6.406474364
 30
0.0
 11
5.6383456371
 21
7.0562184537
 31
0.0
  0
LINE
  5
302
330
1F
100
AcDbEntity
  8
0
  6
Continuous
 62
     7
370
    25
100
AcDbLine
 10
5.5554139778
 20
7.1893323928
 30
0.0
 11
4.7034344925
 21
7.2853863149
 31
0.0
  0
LINE
  5
303
330
1F
100
AcDbEntity
  8
0
  6
Continuous
 62
     7
370
    25
100
AcDbLine
 10
2.1319925356
 20
6.6191723492
 30
0.0
 11
2.4017924244
 21
7.3404698461
 31
0.0
  0
LINE
  5
304
330
1F
100
AcDbEntity
  8
0
  6
Continuous
 62
     7
370
    25
100
AcDbLine
 10
2.3228359702
 20
7.4744168002
 30
0.0
 11
1.8318205843
 21
7.5474179469
 31
0.0
  0
LINE
  5
305
330
1F
100
AcDbEntity
  8
0
  6
Continuous
 62
     7
370
    25
100
AcDbLine
 10
1.7245141694
 20
7.4862558615
 30
0.0
 11
1.5174243453
 21
6.9782745178
 31
0.0
  0
LINE
  5
306
330
1F
100
AcDbEntity
  8
0
  6
Continuous
 62
     7
370
    25
100
AcDbLine
 10
1.5544501673
 20
6.8573887591
 30
0.0
 11
1.9827554884
 21
6.5710714592
 31
0.0
  0
ARC
  5
307
330
1F
100
AcDbEntity
  8
0
  6
Continuous
 62
     7
370
    25
100
AcDbCircle
 10
2.84130342
 20
4.909895323
 30
0.0
 40
0.2500000000000099
100
AcDbArc
 50
269.3768610585
 51
358.5
  0
ARC
  5
308
330
1F
100
AcDbEntity
  8
0
  6
Continuous
 62
     7
370
    25
100
AcDbCircle
 10
3.4793186409
 20
5.3987448562
 30
0.0
 40
0.3749999999999957
100
AcDbArc
 50
358.5
 51
178.5
  0
ARC
  5
309
330
1F
100
AcDbEntity
  8
0
  6
Continuous
 62
     7
370
    25
100
AcDbCircle
 10
4.0910000494
 20
4.8819466704
 30
0.0
 40
0.2500000000000144
100
AcDbArc
 50
178.5
 51
268.2471813055
  0
ARC
  5
30A
330
1F
100
AcDbEntity
  8
0
  6
Continuous
 62
     7
370
    25
100
AcDbCircle
 10
11.8356773819
 20
4.5772291424
 30
0.0
 40
0.2499999999999907
100
AcDbArc
 50
267.6895028258
 51
358.5
  0
ARC
  5
30B
330
1F
100
AcDbEntity
  8
0
  6
Continuous
 62
     7
370
    25
100
AcDbCircle
 10
12.4733286739
 20
5.052180792
 30
0.0
 40
0.3750000000000002
100
AcDbArc
 50
358.5
 51
178.5
  0
ARC
  5
30C
330
1F
100
AcDbEntity
  8
0
  6
Continuous
 62
     7
370
    25
100
AcDbCircle
 10
13.0848218996
 20
4.5281961944
 30
0.0
 40
0.2499999999999984
100
AcDbArc
 50
178.5
 51
267.8094082484
  0
ARC
  5
30D
330
1F
100
AcDbEntity
  8
0
  6
Continuous
 62
     7
370
    25
100
AcDbCircle
 10
13.3542544064
 20
4.1676826148
 30
0.0
 40
0.1000000000000046
100
AcDbArc
 50
358.5
 51
87.8284577045
  0
ARC
  5
30E
330
1F
100
AcDbEntity
  8
0
  6
Continuous
 62
     7
370
    25
100
AcDbCircle
 10
1.1095940695
 20
4.2134109732
 30
0.0
 40
0.0400000000000401
100
AcDbArc
 50
107.0924454115
 51
254.8396241195
  0
ARC
  5
30F
330
1F
100
AcDbEntity
  8
0
  6
Continuous
 62
     7
370
    25
100
AcDbCircle
 10
2.1568850495
 20
3.9296459064
 30
0.0
 40
0.0400000000000202
100
AcDbArc
 50
254.8396241196
 51
52.3092193753
  0
ARC
  5
310
330
1F
100
AcDbEntity
  8
0
  6
Continuous
 62
     7
370
    25
100
AcDbCircle
 10
1.5839405583
 20
4.2964979952
 30
0.0
 40
0.1000000000002896
100
AcDbArc
 50
52.3092193755
 51
107.0924454114
  0
ARC
  5
311
330
1F
100
AcDbEntity
  8
0
  6
Continuous
 62
     7
370
    25
100
AcDbCircle
 10
2.8822360363
 20
4.0591100594
 30
0.0
 40
0.1899999999999991
100
AcDbArc
 50
358.5
 51
178.5
  0
ARC
  5
312
330
1F
100
AcDbEntity
  8
0
  6
Continuous
 62
     7
370
    25
100
AcDbCircle
 10
2.8822360363
 20
4.0591100594
 30
0.0
 40
0.1899999999999991
100
AcDbArc
 50
178.5
 51
358.5
  0
ARC
  5
313
330
1F
100
AcDbEntity
  8
0
  6
Continuous
 62
     7
370
    25
100
AcDbCircle
 10
10.5012038694
 20
4.00540843
 30
0.0
 40
0.19
100
AcDbArc
 50
358.5
 51
178.5
  0
ARC
  5
314
330
1F
100
AcDbEntity
  8
0
  6
Continuous
 62
     7
370
    25
100
AcDbCircle
 10
10.5012038694
 20
4.00540843
 30
0.0
 40
0.19
100
AcDbArc
 50
178.5
 51
358.5
  0
ARC
  5
315
330
1F
100
AcDbEntity
  8
0
  6
Continuous
 62
     7
370
    25
100
AcDbCircle
 10
2.4908456749
 20
4.3631225441
 30
0.0
 40
0.0999999999999956
100
AcDbArc
 50
358.5
 51
88.5
  0
ARC
  5
316
330
1F
100
AcDbEntity
  8
0
  6
Continuous
 62
     7
370
    25
100
AcDbCircle
 10
1.9342090805
 20
4.4377191538
 30
0.0
 40
0.0400000000000156
100
AcDbArc
 50
88.5
 51
235.1903855923
  0
ARC
  5
317
330
1F
100
AcDbEntity
  8
0
  6
Continuous
 62
     7
370
    25
100
AcDbCircle
 10
2.5227357901
 20
4.0528949077
 30
0.0
 40
0.0600000000000012
100
AcDbArc
 50
235.1903855919
 51
358.4999999999
  0
ARC
  5
318
330
1F
100
AcDbEntity
  8
0
  6
Continuous
 62
     7
370
    25
100
AcDbCircle
 10
3.7495780935
 20
3.7755072961
 30
0.0
 40
0.1000000000000046
100
AcDbArc
 50
178.5
 51
268.5
  0
ARC
  5
319
330
1F
100
AcDbEntity
  8
0
  6
Continuous
 62
     7
370
    25
100
AcDbCircle
 10
4.4940337584
 20
3.6959924709
 30
0.0
 40
0.040000000000079
100
AcDbArc
 50
268.5000000001
 51
50.3973873816
  0
ARC
  5
31A
330
1F
100
AcDbEntity
  8
0
  6
Continuous
 62
     7
370
    25
100
AcDbCircle
 10
3.7234960997
 20
4.3075381394
 30
0.0
 40
0.0599999999999982
100
AcDbArc
 50
50.3973873819
 51
178.5
  0
ARC
  5
31B
330
1F
100
AcDbEntity
  8
0
  6
Continuous
 62
     7
370
    25
100
AcDbCircle
 10
4.0951634498
 20
4.3780813286
 30
0.0
 40
0.0400000000000094
100
AcDbArc
 50
87.0891179692
 51
231.4322376207
  0
ARC
  5
31C
330
1F
100
AcDbEntity
  8
0
  6
Continuous
 62
     7
370
    25
100
AcDbCircle
 10
4.9357948889
 20
3.7845270841
 30
0.0
 40
0.1000000000000047
100
AcDbArc
 50
231.4322376202
 51
321.4322376202
  0
ARC
  5
31D
330
1F
100
AcDbEntity
  8
0
  6
Continuous
 62
     7
370
    25
100
AcDbCircle
 10
5.3917000053
 20
4.2921288994
 30
0.0
 40
0.0600000000000015
100
AcDbArc
 50
321.4322376202
 51
87.0891179694
  0
ARC
  5
31E
330
1F
100
AcDbEntity
  8
0
  6
Continuous
 62
     7
370
    25
100
AcDbCircle
 10
5.3306076026
 20
3.6572494844
 30
0.0
 40
0.0600000000000531
100
AcDbArc
 50
141.4322376201
 51
270.0258142625
  0
ARC
  5
31F
330
1F
100
AcDbEntity
  8
0
  6
Continuous
 62
     7
370
    25
100
AcDbCircle
 10
6.256214728
 20
3.657666511
 30
0.0
 40
0.0599999999999821
100
AcDbArc
 50
270.0258142627
 51
38.1731831286
  0
ARC
  5
320
330
1F
100
AcDbEntity
  8
0
  6
Continuous
 62
     7
370
    25
100
AcDbCircle
 10
5.7968507054
 20
4.2419765934
 30
0.0
 40
0.0600000000000331
100
AcDbArc
 50
38.1731831287
 51
141.4322376201
  0
ARC
  5
321
330
1F
100
AcDbEntity
  8
0
  6
Continuous
 62
     7
370
    25
100
AcDbCircle
 10
6.8428767763
 20
4.2512312428
 30
0.0
 40
0.0599999999999984
100
AcDbArc
 50
340.348683948
 51
88.5
  0
ARC
  5
322
330
1F
100
AcDbEntity
  8
0
  6
Continuous
 62
     7
370
    25
100
AcDbCircle
 10
6.1762934706
 20
4.268686341
 30
0.0
 40
0.0599999999999749
100
AcDbArc
 50
88.5
 51
220.1645047786
  0
ARC
  5
323
330
1F
100
AcDbEntity
  8
0
  6
Continuous
 62
     7
370
    25
100
AcDbCircle
 10
6.6490775446
 20
3.7085183939
 30
0.0
 40
0.0600000000000203
100
AcDbArc
 50
220.1645047783
 51
340.348683948
  0
ARC
  5
324
330
1F
100
AcDbEntity
  8
0
  6
Continuous
 62
     7
370
    25
100
AcDbCircle
 10
7.452246144
 20
3.7057965403
 30
0.0
 40
0.0800000000000137
100
AcDbArc
 50
192.9218038573
 51
272.2779296152
  0
ARC
  5
325
330
1F
100
AcDbEntity
  8
0
  6
Continuous
 62
     7
370
    25
100
AcDbCircle
 10
7.8879778046
 20
3.6830975854
 30
0.0
 40
0.0399999999999972
100
AcDbArc
 50
272.2779296153
 51
58.1393527889
  0
ARC
  5
326
330
1F
100
AcDbEntity
  8
0
  6
Continuous
 62
     7
370
    25
100
AcDbCircle
 10
7.3379924416
 20
4.0249094433
 30
0.0
 40
0.0399999999999975
100
AcDbArc
 50
58.1393527888
 51
192.9218038582
  0
ARC
  5
327
330
1F
100
AcDbEntity
  8
0
  6
Continuous
 62
     7
370
    25
100
AcDbCircle
 10
9.413275934
 20
3.740181541
 30
0.0
 40
0.0399999999999986
100
AcDbArc
 50
272.9081018167
 51
53.8760207297
  0
ARC
  5
328
330
1F
100
AcDbEntity
  8
0
  6
Continuous
 62
     7
370
    25
100
AcDbCircle
 10
8.8480080299
 20
4.1403642981
 30
0.0
 40
0.0499999999999433
100
AcDbArc
 50
53.8760207296
 51
148.2009232446
  0
ARC
  5
329
330
1F
100
AcDbEntity
  8
0
  6
Continuous
 62
     7
370
    25
100
AcDbCircle
 10
8.579851688
 20
3.7078568324
 30
0.0
 40
0.0500000000000825
100
AcDbArc
 50
148.2009232445
 51
272.9081018166
  0
ARC
  5
32A
330
1F
100
AcDbEntity
  8
0
  6
Continuous
 62
     7
370
    25
100
AcDbCircle
 10
9.679707473
 20
4.1203700953
 30
0.0
 40
0.0699999999999992
100
AcDbArc
 50
358.5
 51
88.5
  0
ARC
  5
32B
330
1F
100
AcDbEntity
  8
0
  6
Continuous
 62
     7
370
    25
100
AcDbCircle
 10
9.2286051574
 20
4.1621929089
 30
0.0
 40
0.0399999999999977
100
AcDbArc
 50
88.5
 51
233.8760207298
  0
ARC
  5
32C
330
1F
100
AcDbEntity
  8
0
  6
Continuous
 62
     7
370
    25
100
AcDbCircle
 10
9.6922721298
 20
3.8361639782
 30
0.0
 40
0.0500000000000114
100
AcDbArc
 50
233.8760207297
 51
358.5
  0
ARC
  5
32D
330
1F
100
AcDbEntity
  8
0
  6
Continuous
 62
     7
370
    25
100
AcDbCircle
 10
10.8836839247
 20
4.1330341737
 30
0.0
 40
0.069999999999994
100
AcDbArc
 50
86.9449229675
 51
178.5
  0
ARC
  5
32E
330
1F
100
AcDbEntity
  8
0
  6
Continuous
 62
     7
370
    25
100
AcDbCircle
 10
10.8783517924
 20
3.929408258
 30
0.0
 40
0.069999999999993
100
AcDbArc
 50
178.5
 51
276.1904950859
  0
ARC
  5
32F
330
1F
100
AcDbEntity
  8
0
  6
Continuous
 62
     7
370
    25
100
AcDbCircle
 10
12.5104040862
 20
4.0762559796
 30
0.0
 40
0.0400000000000021
100
AcDbArc
 50
276.190495086
 51
86.9449229675
  0
ARC
  5
330
330
1F
100
AcDbEntity
  8
0
  6
Continuous
 62
     7
370
    25
100
AcDbCircle
 10
3.4793186409
 20
5.3987448562
 30
0.0
 40
0.1330000000000041
100
AcDbArc
 50
358.5
 51
178.5
  0
ARC
  5
331
330
1F
100
AcDbEntity
  8
0
  6
Continuous
 62
     7
370
    25
100
AcDbCircle
 10
3.4793186409
 20
5.3987448562
 30
0.0
 40
0.1330000000000032
100
AcDbArc
 50
178.5
 51
358.5
  0
ARC
  5
332
330
1F
100
AcDbEntity
  8
0
  6
Continuous
 62
     7
370
    25
100
AcDbCircle
 10
12.4733286739
 20
5.052180792
 30
0.0
 40
0.1329999999999999
100
AcDbArc
 50
358.5
 51
178.5
  0
ARC
  5
333
330
1F
100
AcDbEntity
  8
0
  6
Continuous
 62
     7
370
    25
100
AcDbCircle
 10
12.4733286739
 20
5.052180792
 30
0.0
 40
0.1329999999999999
100
AcDbArc
 50
178.5
 51
358.5
  0
ARC
  5
334
330
1F
100
AcDbEntity
  8
0
  6
Continuous
 62
     7
370
    25
100
AcDbCircle
 10
13.3499449637
 20
4.0031116369
 30
0.0
 40
0.1000000000000125
100
AcDbArc
 50
276.971215783
 51
358.5
  0
ARC
  5
335
330
1F
100
AcDbEntity
  8
0
  6
Continuous
 62
     7
370
    25
100
AcDbCircle
 10
3.6670314049
 20
2.2321467964
 30
0.0
 40
0.2500000000000135
100
AcDbArc
 50
269.8768610585
 51
359.0
  0
ARC
  5
336
330
1F
100
AcDbEntity
  8
0
  6
Continuous
 62
     7
370
    25
100
AcDbCircle
 10
4.3007563692
 20
2.7265453781
 30
0.0
 40
0.3749999999999977
100
AcDbArc
 50
359.0
 51
179.0
  0
ARC
  5
337
330
1F
100
AcDbEntity
  8
0
  6
Continuous
 62
     7
370
    25
100
AcDbCircle
 10
4.9169243445
 20
2.2151047299
 30
0.0
 40
0.2499999999999927
100
AcDbArc
 50
179.0
 51
268.7471813055
  0
ARC
  5
338
330
1F
100
AcDbEntity
  8
0
  6
Continuous
 62
     7
370
    25
100
AcDbCircle
 10
12.6639659118
 20
1.9779830063
 30
0.0
 40
0.2499999999999959
100
AcDbArc
 50
268.1895028258
 51
359.0
  0
ARC
  5
339
330
1F
100
AcDbEntity
  8
0
  6
Continuous
 62
     7
370
    25
100
AcDbCircle
 10
13.2974482415
 20
2.4584810578
 30
0.0
 40
0.3749999999999977
100
AcDbArc
 50
359.0
 51
179.0
  0
ARC
  5
33A
330
1F
100
AcDbEntity
  8
0
  6
Continuous
 62
     7
370
    25
100
AcDbCircle
 10
13.9134907537
 20
1.9398526294
 30
0.0
 40
0.2500000000000136
100
AcDbArc
 50
179.0
 51
268.3094082484
  0
ARC
  5
33B
330
1F
100
AcDbEntity
  8
0
  6
Continuous
 62
     7
370
    25
100
AcDbCircle
 10
14.1860590358
 20
1.5817039894
 30
0.0
 40
0.1000000000000079
100
AcDbArc
 50
359.0
 51
88.3284577045
  0
ARC
  5
33C
330
1F
100
AcDbEntity
  8
0
  6
Continuous
 62
     7
370
    25
100
AcDbCircle
 10
1.9414658879
 20
1.5205771435
 30
0.0
 40
0.040000000000046
100
AcDbArc
 50
107.5924454115
 51
255.3396241195
  0
ARC
  5
33D
330
1F
100
AcDbEntity
  8
0
  6
Continuous
 62
     7
370
    25
100
AcDbCircle
 10
2.9911932762
 20
1.2459621035
 30
0.0
 40
0.0400000000000201
100
AcDbArc
 50
255.3396241196
 51
52.8092193753
  0
ARC
  5
33E
330
1F
100
AcDbEntity
  8
0
  6
Continuous
 62
     7
370
    25
100
AcDbCircle
 10
2.4150692533
 20
1.6078004032
 30
0.0
 40
0.100000000000313
100
AcDbArc
 50
52.8092193755
 51
107.5924454114
  0
ARC
  5
33F
330
1F
100
AcDbEntity
  8
0
  6
Continuous
 62
     7
370
    25
100
AcDbCircle
 10
3.7153868704
 20
1.381751128
 30
0.0
 40
0.1900000000000016
100
AcDbArc
 50
359.0
 51
179.0
  0
ARC
  5
340
330
1F
100
AcDbEntity
  8
0
  6
Continuous
 62
     7
370
    25
100
AcDbCircle
 10
3.7153868704
 20
1.381751128
 30
0.0
 40
0.1900000000000016
100
AcDbArc
 50
179.0
 51
359.0
  0
ARC
  5
341
330
1F
100
AcDbEntity
  8
0
  6
Continuous
 62
     7
370
    25
100
AcDbCircle
 10
11.3345332257
 20
1.3945387366
 30
0.0
 40
0.1899999999999994
100
AcDbArc
 50
359.0
 51
179.0
  0
ARC
  5
342
330
1F
100
AcDbEntity
  8
0
  6
Continuous
 62
     7
370
    25
100
AcDbCircle
 10
11.3345332257
 20
1.3945387366
 30
0.0
 40
0.190000000000001
100
AcDbArc
 50
179.0
 51
359.0
  0
ARC
  5
343
330
1F
100
AcDbEntity
  8
0
  6
Continuous
 62
     7
370
    25
100
AcDbCircle
 10
3.3213584362
 20
1.6823365549
 30
0.0
 40
0.1000000000000015
100
AcDbArc
 50
359.0
 51
89.0
  0
ARC
  5
344
330
1F
100
AcDbEntity
  8
0
  6
Continuous
 62
     7
370
    25
100
AcDbCircle
 10
2.7640920668
 20
1.7520728152
 30
0.0
 40
0.0400000000000197
100
AcDbArc
 50
89.0
 51
235.6903855923
  0
ARC
  5
345
330
1F
100
AcDbEntity
  8
0
  6
Continuous
 62
     7
370
    25
100
AcDbCircle
 10
3.3559545495
 20
1.3723990213
 30
0.0
 40
0.0600000000000016
100
AcDbArc
 50
235.6903855919
 51
358.9999999999
  0
ARC
  5
346
330
1F
100
AcDbEntity
  8
0
  6
Continuous
 62
     7
370
    25
100
AcDbCircle
 10
4.5851707714
 20
1.1057280547
 30
0.0
 40
0.1000000000000008
100
AcDbArc
 50
179.0
 51
269.0
  0
ARC
  5
347
330
1F
100
AcDbEntity
  8
0
  6
Continuous
 62
     7
370
    25
100
AcDbCircle
 10
5.3302919787
 20
1.032712776
 30
0.0
 40
0.0400000000000791
100
AcDbArc
 50
269.0000000001
 51
50.8973873816
  0
ARC
  5
348
330
1F
100
AcDbEntity
  8
0
  6
Continuous
 62
     7
370
    25
100
AcDbCircle
 10
4.5544469847
 20
1.6375110344
 30
0.0
 40
0.0599999999999974
100
AcDbArc
 50
50.8973873819
 51
179.0
  0
ARC
  5
349
330
1F
100
AcDbEntity
  8
0
  6
Continuous
 62
     7
370
    25
100
AcDbCircle
 10
4.9254845852
 20
1.7112949059
 30
0.0
 40
0.0400000000000148
100
AcDbArc
 50
87.5891179692
 51
231.9322376208
  0
ARC
  5
34A
330
1F
100
AcDbEntity
  8
0
  6
Continuous
 62
     7
370
    25
100
AcDbCircle
 10
5.7712636878
 20
1.1250990622
 30
0.0
 40
0.1000000000000122
100
AcDbArc
 50
231.9322376202
 51
321.9322376202
  0
ARC
  5
34B
330
1F
100
AcDbEntity
  8
0
  6
Continuous
 62
     7
370
    25
100
AcDbCircle
 10
6.2227218394
 20
1.6366600218
 30
0.0
 40
0.0600000000000016
100
AcDbArc
 50
321.9322376202
 51
87.5891179694
  0
ARC
  5
34C
330
1F
100
AcDbEntity
  8
0
  6
Continuous
 62
     7
370
    25
100
AcDbCircle
 10
6.1671720607
 20
1.001271656
 30
0.0
 40
0.0600000000000448
100
AcDbArc
 50
141.9322376201
 51
270.5258142625
  0
ARC
  5
34D
330
1F
100
AcDbEntity
  8
0
  6
Continuous
 62
     7
370
    25
100
AcDbCircle
 10
7.0927403027
 20
1.0097660102
 30
0.0
 40
0.0599999999999868
100
AcDbArc
 50
270.5258142627
 51
38.6731831286
  0
ARC
  5
34E
330
1F
100
AcDbEntity
  8
0
  6
Continuous
 62
     7
370
    25
100
AcDbCircle
 10
6.6282947685
 20
1.5900451874
 30
0.0
 40
0.0600000000000204
100
AcDbArc
 50
38.6731831287
 51
141.9322376201
  0
ARC
  5
34F
330
1F
100
AcDbEntity
  8
0
  6
Continuous
 62
     7
370
    25
100
AcDbCircle
 10
7.6742002489
 20
1.6084276681
 30
0.0
 40
0.0599999999999941
100
AcDbArc
 50
340.848683948
 51
89.0
  0
ARC
  5
350
330
1F
100
AcDbEntity
  8
0
  6
Continuous
 62
     7
370
    25
100
AcDbCircle
 10
7.0074900022
 20
1.6200651387
 30
0.0
 40
0.059999999999995
100
AcDbArc
 50
89.0
 51
220.6645047786
  0
ARC
  5
351
330
1F
100
AcDbEntity
  8
0
  6
Continuous
 62
     7
370
    25
100
AcDbCircle
 10
7.4851443995
 20
1.064044288
 30
0.0
 40
0.0600000000000181
100
AcDbArc
 50
220.6645047783
 51
340.848683948
  0
ARC
  5
352
330
1F
100
AcDbEntity
  8
0
  6
Continuous
 62
     7
370
    25
100
AcDbCircle
 10
8.2883061691
 20
1.0683314174
 30
0.0
 40
0.0800000000000009
100
AcDbArc
 50
193.4218038573
 51
272.7779296152
  0
ARC
  5
353
330
1F
100
AcDbEntity
  8
0
  6
Continuous
 62
     7
370
    25
100
AcDbCircle
 10
8.7242193216
 20
1.0494357547
 30
0.0
 40
0.0399999999999997
100
AcDbArc
 50
272.7779296153
 51
58.6393527888
  0
ARC
  5
354
330
1F
100
AcDbEntity
  8
0
  6
Continuous
 62
     7
370
    25
100
AcDbCircle
 10
8.171272067
 20
1.3864351306
 30
0.0
 40
0.0399999999999901
100
AcDbArc
 50
58.6393527888
 51
193.4218038579
  0
ARC
  5
355
330
1F
100
AcDbEntity
  8
0
  6
Continuous
 62
     7
370
    25
100
AcDbCircle
 10
10.2489612271
 20
1.1198281049
 30
0.0
 40
0.0399999999999978
100
AcDbArc
 50
273.4081018167
 51
54.3760207298
  0
ARC
  5
356
330
1F
100
AcDbEntity
  8
0
  6
Continuous
 62
     7
370
    25
100
AcDbCircle
 10
9.6802226376
 20
1.5150627938
 30
0.0
 40
0.0499999999999632
100
AcDbArc
 50
54.3760207296
 51
148.7009232445
  0
ARC
  5
357
330
1F
100
AcDbEntity
  8
0
  6
Continuous
 62
     7
370
    25
100
AcDbCircle
 10
9.4158507981
 20
1.0802317209
 30
0.0
 40
0.0500000000001775
100
AcDbArc
 50
148.7009232445
 51
273.4081018166
  0
ARC
  5
358
330
1F
100
AcDbEntity
  8
0
  6
Continuous
 62
     7
370
    25
100
AcDbCircle
 10
10.5120648923
 20
1.5023272071
 30
0.0
 40
0.0700000000000005
100
AcDbArc
 50
359.0
 51
89.0
  0
ARC
  5
359
330
1F
100
AcDbEntity
  8
0
  6
Continuous
 62
     7
370
    25
100
AcDbCircle
 10
10.060614785
 20
1.5402118679
 30
0.0
 40
0.0400000000000074
100
AcDbArc
 50
89.0
 51
234.3760207297
  0
ARC
  5
35A
330
1F
100
AcDbEntity
  8
0
  6
Continuous
 62
     7
370
    25
100
AcDbCircle
 10
10.5271092054
 20
1.2182415576
 30
0.0
 40
0.0500000000000031
100
AcDbArc
 50
234.3760207297
 51
359.0000000001
  0
ARC
  5
35B
330
1F
100
AcDbEntity
  8
0
  6
Continuous
 62
     7
370
    25
100
AcDbCircle
 10
11.7158849867
 20
1.5254973465
 30
0.0
 40
0.0700000000000098
100
AcDbArc
 50
87.4449229675
 51
179.0
  0
ARC
  5
35C
330
1F
100
AcDbEntity
  8
0
  6
Continuous
 62
     7
370
    25
100
AcDbCircle
 10
11.7123300063
 20
1.3218326533
 30
0.0
 40
0.0699999999999885
100
AcDbArc
 50
179.0
 51
276.690495086
  0
ARC
  5
35D
330
1F
100
AcDbEntity
  8
0
  6
Continuous
 62
     7
370
    25
100
AcDbCircle
 10
13.3430386846
 20
1.4829169456
 30
0.0
 40
0.0400000000000026
100
AcDbArc
 50
276.690495086
 51
87.4449229674
  0
ARC
  5
35E
330
1F
100
AcDbEntity
  8
0
  6
Continuous
 62
     7
370
    25
100
AcDbCircle
 10
4.3007563692
 20
2.7265453781
 30
0.0
 40
0.1330000000000068
100
AcDbArc
 50
359.0
 51
179.0
  0
ARC
  5
35F
330
1F
100
AcDbEntity
  8
0
  6
Continuous
 62
     7
370
    25
100
AcDbCircle
 10
4.3007563692
 20
2.7265453781
 30
0.0
 40
0.1330000000000068
100
AcDbArc
 50
179.0
 51
359.0
  0
ARC
  5
360
330
1F
100
AcDbEntity
  8
0
  6
Continuous
 62
     7
370
    25
100
AcDbCircle
 10
13.2974482415
 20
2.4584810578
 30
0.0
 40
0.1329999999999988
100
AcDbArc
 50
359.0
 51
179.0
  0
ARC
  5
361
330
1F
100
AcDbEntity
  8
0
  6
Continuous
 62
     7
370
    25
100
AcDbCircle
 10
13.2974482415
 20
2.4584810578
 30
0.0
 40
0.1329999999999988
100
AcDbArc
 50
179.0
 51
359.0
  0
ARC
  5
362
330
1F
100
AcDbEntity
  8
0
  6
Continuous
 62
     7
370
    25
100
AcDbCircle
 10
14.1831858917
 20
1.4171016713
 30
0.0
 40
0.1000000000000024
100
AcDbArc
 50
277.471215783
 51
359.0
  0
ARC
  5
363
330
1F
100
AcDbEntity
  8
0
  6
Continuous
 62
     7
370
    25
100
AcDbCircle
 10
21.4391968635
 20
9.5462312326
 30
0.0
 40
0.1250000000000975
100
AcDbArc
 50
331.3280304134
 51
59.0
  0
ARC
  5
364
330
1F
100
AcDbEntity
  8
0
  6
Continuous
 62
     7
370
    25
100
AcDbCircle
 10
18.0426191695
 20
7.2136128381
 30
0.0
 40
0.2499999999998527
100
AcDbArc
 50
309.3932040033
 51
41.2349309634
  0
ARC
  5
365
330
1F
100
AcDbEntity
  8
0
  6
Continuous
 62
     7
370
    25
100
AcDbCircle
 10
18.0943024491
 20
7.9132029959
 30
0.0
 40
0.2500000000000194
100
AcDbArc
 50
41.2349309634
 51
221.2349309634
  0
ARC
  5
366
330
1F
100
AcDbEntity
  8
0
  6
Continuous
 62
     7
370
    25
100
AcDbCircle
 10
18.794918171
 20
7.8724348174
 30
0.0
 40
0.2500000000001323
100
AcDbArc
 50
221.2349309634
 51
312.9091076836
  0
ARC
  5
367
330
1F
100
AcDbEntity
  8
0
  6
Continuous
 62
     7
370
    25
100
AcDbCircle
 10
21.0939219093
 20
9.7536933553
 30
0.0
 40
0.1249999999999539
100
AcDbArc
 50
59.0
 51
140.1791035158
  0
ARC
  5
368
330
1F
100
AcDbEntity
  8
0
  6
Continuous
 62
     7
370
    25
100
AcDbCircle
 10
21.0662738562
 20
9.2160980337
 30
0.0
 40
0.0625000000010855
100
AcDbArc
 50
293.3971463627
 51
45.682514464
  0
ARC
  5
369
330
1F
100
AcDbEntity
  8
0
  6
Continuous
 62
     7
370
    25
100
AcDbCircle
 10
20.8798646671
 20
9.3981182383
 30
0.0
 40
0.0624999999999433
100
AcDbArc
 50
45.6825144643
 51
139.8195491431
  0
ARC
  5
36A
330
1F
100
AcDbEntity
  8
0
  6
Continuous
 62
     7
370
    25
100
AcDbCircle
 10
20.530320242
 20
8.9842018857
 30
0.0
 40
0.0624999999999997
100
AcDbArc
 50
139.819549143
 51
293.3971463627
  0
ARC
  5
36B
330
1F
100
AcDbEntity
  8
0
  6
Continuous
 62
     7
370
    25
100
AcDbCircle
 10
20.8434459632
 20
8.7626326929
 30
0.0
 40
0.062500000000052
100
AcDbArc
 50
329.0
 51
114.5849660651
  0
ARC
  5
36C
330
1F
100
AcDbEntity
  8
0
  6
Continuous
 62
     7
370
    25
100
AcDbCircle
 10
20.0420207697
 20
8.3959659274
 30
0.0
 40
0.0625000000000197
100
AcDbArc
 50
114.5849660651
 51
238.9999999999
  0
ARC
  5
36D
330
1F
100
AcDbEntity
  8
0
  6
Continuous
 62
     7
370
    25
100
AcDbCircle
 10
20.4689827665
 20
8.1394212777
 30
0.0
 40
0.0625000000000602
100
AcDbArc
 50
239.0000000001
 51
328.9999999999
  0
ARC
  5
36E
330
1F
100
AcDbEntity
  8
0
  6
Continuous
 62
     7
370
    25
100
AcDbCircle
 10
20.1581007149
 20
7.7772211685
 30
0.0
 40
0.0624999999999245
100
AcDbArc
 50
297.4663436908
 51
59.0
  0
ARC
  5
36F
330
1F
100
AcDbEntity
  8
0
  6
Continuous
 62
     7
370
    25
100
AcDbCircle
 10
19.7023742164
 20
8.0510492745
 30
0.0
 40
0.062499999999937
100
AcDbArc
 50
58.9999999999
 51
157.7612933518
  0
ARC
  5
370
330
1F
100
AcDbEntity
  8
0
  6
Continuous
 62
     7
370
    25
100
AcDbCircle
 10
19.4371842368
 20
7.4024738731
 30
0.0
 40
0.0624999999999195
100
AcDbArc
 50
157.7612933515
 51
297.466343691
  0
ARC
  5
371
330
1F
100
AcDbEntity
  8
0
  6
Continuous
 62
     7
370
    25
100
AcDbCircle
 10
19.8219481646
 20
7.2563171929
 30
0.0
 40
0.0624999999998792
100
AcDbArc
 50
319.8195491429
 51
117.4663436911
  0
ARC
  5
372
330
1F
100
AcDbEntity
  8
0
  6
Continuous
 62
     7
370
    25
100
AcDbCircle
 10
19.3164633564
 20
6.9935557351
 30
0.0
 40
0.0624999999999963
100
AcDbArc
 50
117.4663436909
 51
260.5422387933
  0
ARC
  5
373
330
1F
100
AcDbEntity
  8
0
  6
Continuous
 62
     7
370
    25
100
AcDbCircle
 10
19.5650767821
 20
6.9521405044
 30
0.0
 40
0.0624999999998319
100
AcDbArc
 50
260.5422387933
 51
319.8195491432
  0
ARC
  5
374
330
1F
100
AcDbEntity
  8
0
  6
Continuous
 62
     7
370
    25
100
AcDbCircle
 10
19.242922133
 20
6.5734370929
 30
0.0
 40
0.0625000000004215
100
AcDbArc
 50
311.6634124093
 51
80.5422387932
  0
ARC
  5
375
330
1F
100
AcDbEntity
  8
0
  6
Continuous
 62
     7
370
    25
100
AcDbCircle
 10
18.4016917135
 20
6.7135733379
 30
0.0
 40
0.0624999999999969
100
AcDbArc
 50
80.5422387933
 51
188.0236321858
  0
ARC
  5
376
330
1F
100
AcDbEntity
  8
0
  6
Continuous
 62
     7
370
    25
100
AcDbCircle
 10
18.5130001534
 20
5.9239359736
 30
0.0
 40
0.0625000000000427
100
AcDbArc
 50
188.0236321858
 51
311.6634124091
  0
ARC
  5
377
330
1F
100
AcDbEntity
  8
0
  6
Continuous
 62
     7
370
    25
100
AcDbCircle
 10
18.104181628
 20
6.5300756758
 30
0.0
 40
0.0625000000064683
100
AcDbArc
 50
8.0236321859
 51
128.6768631702
  0
ARC
  5
378
330
1F
100
AcDbEntity
  8
0
  6
Continuous
 62
     7
370
    25
100
AcDbCircle
 10
17.6415694119
 20
6.1597600158
 30
0.0
 40
0.0625000000000416
100
AcDbArc
 50
128.6768631704
 51
239.0
  0
ARC
  5
379
330
1F
100
AcDbEntity
  8
0
  6
Continuous
 62
     7
370
    25
100
AcDbCircle
 10
18.2040204531
 20
5.821805335
 30
0.0
 40
0.0624999999999948
100
AcDbArc
 50
239.0
 51
8.0236321857
  0
ARC
  5
37A
330
1F
100
AcDbEntity
  8
0
  6
Continuous
 62
     7
370
    25
100
AcDbCircle
 10
17.2992173227
 20
5.1517641098
 30
0.0
 40
0.0625000000002361
100
AcDbArc
 50
300.8063580536
 51
62.5067971675
  0
ARC
  5
37B
330
1F
100
AcDbEntity
  8
0
  6
Continuous
 62
     7
370
    25
100
AcDbCircle
 10
16.6583394976
 20
5.4852873626
 30
0.0
 40
0.0625000000000265
100
AcDbArc
 50
62.5067971677
 51
184.9703626781
  0
ARC
  5
37C
330
1F
100
AcDbEntity
  8
0
  6
Continuous
 62
     7
370
    25
100
AcDbCircle
 10
16.7175102238
 20
4.8049095871
 30
0.0
 40
0.0625000000000073
100
AcDbArc
 50
184.9703626781
 51
300.8063580537
  0
ARC
  5
37D
330
1F
100
AcDbEntity
  8
0
  6
Continuous
 62
     7
370
    25
100
AcDbCircle
 10
16.323841102
 20
5.35361726
 30
0.0
 40
0.0625000000016482
100
AcDbArc
 50
1.8729089651
 51
122.434948823
  0
ARC
  5
37E
330
1F
100
AcDbEntity
  8
0
  6
Continuous
 62
     7
370
    25
100
AcDbCircle
 10
15.8736646096
 20
5.0675412355
 30
0.0
 40
0.0625000000000138
100
AcDbArc
 50
122.4349488229
 51
232.1856471105
  0
ARC
  5
37F
330
1F
100
AcDbEntity
  8
0
  6
Continuous
 62
     7
370
    25
100
AcDbCircle
 10
16.3451614091
 20
4.7016216137
 30
0.0
 40
0.0625000000000251
100
AcDbArc
 50
232.1856471107
 51
1.872908965
  0
ARC
  5
380
330
1F
100
AcDbEntity
  8
0
  6
Continuous
 62
     7
370
    25
100
AcDbCircle
 10
17.4786878906
 20
5.6266010303
 30
0.0
 40
0.1900000000000024
100
AcDbArc
 50
194.0
 51
14.0
  0
ARC
  5
381
330
1F
100
AcDbEntity
  8
0
  6
Continuous
 62
     7
370
    25
100
AcDbCircle
 10
17.4786878906
 20
5.6266010303
 30
0.0
 40
0.1900000000000009
100
AcDbArc
 50
14.0
 51
194.0
  0
ARC
  5
382
330
1F
100
AcDbEntity
  8
0
  6
Continuous
 62
     7
370
    25
100
AcDbCircle
 10
18.8352191015
 20
7.0679011057
 30
0.0
 40
0.1285000000000067
100
AcDbArc
 50
194.0
 51
14.0
  0
ARC
  5
383
330
1F
100
AcDbEntity
  8
0
  6
Continuous
 62
     7
370
    25
100
AcDbCircle
 10
18.8352191015
 20
7.0679011057
 30
0.0
 40
0.1285000000000066
100
AcDbArc
 50
14.0
 51
194.0
  0
ARC
  5
384
330
1F
100
AcDbEntity
  8
0
  6
Continuous
 62
     7
370
    25
100
AcDbCircle
 10
18.0943024491
 20
7.9132029959
 30
0.0
 40
0.1005000000000019
100
AcDbArc
 50
14.0
 51
194.0
  0
ARC
  5
385
330
1F
100
AcDbEntity
  8
0
  6
Continuous
 62
     7
370
    25
100
AcDbCircle
 10
18.0943024491
 20
7.9132029959
 30
0.0
 40
0.1005000000000019
100
AcDbArc
 50
194.0
 51
14.0
  0
ARC
  5
386
330
1F
100
AcDbEntity
  8
0
  6
Continuous
 62
     7
370
    25
100
AcDbCircle
 10
0.7456700589
 20
9.3840418807
 30
0.0
 40
0.3750000000001999
100
AcDbArc
 50
83.2560584616
 51
233.2560584616
  0
ARC
  5
387
330
1F
100
AcDbEntity
  8
0
  6
Continuous
 62
     7
370
    25
100
AcDbCircle
 10
11.6572091458
 20
9.4783261352
 30
0.0
 40
1.000000000000364
100
AcDbArc
 50
263.2560584616
 51
284.8605964461
  0
ARC
  5
388
330
1F
100
AcDbEntity
  8
0
  6
Continuous
 62
     7
370
    25
100
AcDbCircle
 10
16.4250230575
 20
9.3855141639
 30
0.0
 40
0.3125000000000048
100
AcDbArc
 50
292.0461056248
 51
104.8605964461
  0
ARC
  5
389
330
1F
100
AcDbEntity
  8
0
  6
Continuous
 62
     7
370
    25
100
AcDbCircle
 10
12.1120810336
 20
8.3806680544
 30
0.0
 40
1.000000000000182
100
AcDbArc
 50
265.0899002275
 51
292.0461056248
  0
ARC
  5
38A
330
1F
100
AcDbEntity
  8
0
  6
Continuous
 62
     7
370
    25
100
AcDbCircle
 10
1.9669830665
 20
9.2522112467
 30
0.0
 40
1.000000000000338
100
AcDbArc
 50
233.2560584616
 51
265.0899002275
  0
ARC
  5
38B
330
1F
100
AcDbEntity
  8
0
  6
Continuous
 62
     7
370
    25
100
AcDbCircle
 10
7.9591606913
 20
7.980308044
 30
0.0
 40
0.1000000000004802
100
AcDbArc
 50
264.5569098318
 51
46.0618308417
  0
ARC
  5
38C
330
1F
100
AcDbEntity
  8
0
  6
Continuous
 62
     7
370
    25
100
AcDbCircle
 10
7.2315959472
 20
8.6813933786
 30
0.0
 40
0.1000000000000257
100
AcDbArc
 50
46.0618308417
 51
160.8865379381
  0
ARC
  5
38D
330
1F
100
AcDbEntity
  8
0
  6
Continuous
 62
     7
370
    25
100
AcDbCircle
 10
7.0196621138
 20
8.0698297356
 30
0.0
 40
0.0999999999999829
100
AcDbArc
 50
160.8865379381
 51
264.5569098318
  0
ARC
  5
38E
330
1F
100
AcDbEntity
  8
0
  6
Continuous
 62
     7
370
    25
100
AcDbCircle
 10
8.5031365689
 20
7.991608844
 30
0.0
 40
0.0999999999999912
100
AcDbArc
 50
225.5950712284
 51
350.6299512778
  0
ARC
  5
38F
330
1F
100
AcDbEntity
  8
0
  6
Continuous
 62
     7
370
    25
100
AcDbCircle
 10
8.6008398989
 20
8.5837075428
 30
0.0
 40
0.1000000000001847
100
AcDbArc
 50
350.6299512778
 51
82.8420761153
  0
ARC
  5
390
330
1F
100
AcDbEntity
  8
0
  6
Continuous
 62
     7
370
    25
100
AcDbCircle
 10
7.7953268979
 20
8.6848665728
 30
0.0
 40
0.0999999999999919
100
AcDbArc
 50
82.8420761153
 51
225.5950712284
  0
ARC
  5
391
330
1F
100
AcDbEntity
  8
0
  6
Continuous
 62
     7
370
    25
100
AcDbCircle
 10
6.8788227622
 20
8.782786692
 30
0.0
 40
0.0999999999997494
100
AcDbArc
 50
341.5330199738
 51
82.6054212391
  0
ARC
  5
392
330
1F
100
AcDbEntity
  8
0
  6
Continuous
 62
     7
370
    25
100
AcDbCircle
 10
6.0993919424
 20
8.8839420893
 30
0.0
 40
0.0999999999999984
100
AcDbArc
 50
82.6054212391
 51
219.8638150074
  0
ARC
  5
393
330
1F
100
AcDbEntity
  8
0
  6
Continuous
 62
     7
370
    25
100
AcDbCircle
 10
6.6802916859
 20
8.1883014927
 30
0.0
 40
0.0999999999999947
100
AcDbArc
 50
219.8638150074
 51
341.5330199739
  0
ARC
  5
394
330
1F
100
AcDbEntity
  8
0
  6
Continuous
 62
     7
370
    25
100
AcDbCircle
 10
6.2303292248
 20
8.1275309193
 30
0.0
 40
0.1000000000000024
100
AcDbArc
 50
264.8032622266
 51
39.6222594516
  0
ARC
  5
395
330
1F
100
AcDbEntity
  8
0
  6
Continuous
 62
     7
370
    25
100
AcDbCircle
 10
5.6399260036
 20
8.8406415559
 30
0.0
 40
0.100000000000035
100
AcDbArc
 50
39.6222594516
 51
159.7466540706
  0
ARC
  5
396
330
1F
100
AcDbEntity
  8
0
  6
Continuous
 62
     7
370
    25
100
AcDbCircle
 10
5.4045120178
 20
8.2026387642
 30
0.0
 40
0.1000000000000005
100
AcDbArc
 50
159.7466540707
 51
264.8032622267
  0
ARC
  5
397
330
1F
100
AcDbEntity
  8
0
  6
Continuous
 62
     7
370
    25
100
AcDbCircle
 10
11.3604878596
 20
7.6623677497
 30
0.0
 40
0.1000000000000847
100
AcDbArc
 50
265.6660837315
 51
50.2994603706
  0
ARC
  5
398
330
1F
100
AcDbEntity
  8
0
  6
Continuous
 62
     7
370
    25
100
AcDbCircle
 10
10.5662033375
 20
8.3218081021
 30
0.0
 40
0.0999999999999846
100
AcDbArc
 50
50.2994603706
 51
167.3229460227
  0
ARC
  5
399
330
1F
100
AcDbEntity
  8
0
  6
Continuous
 62
     7
370
    25
100
AcDbCircle
 10
10.4336691416
 20
7.7326073564
 30
0.0
 40
0.0999999999999868
100
AcDbArc
 50
167.3229460226
 51
265.6660837315
  0
ARC
  5
39A
330
1F
100
AcDbEntity
  8
0
  6
Continuous
 62
     7
370
    25
100
AcDbCircle
 10
11.5779487466
 20
8.2661020365
 30
0.0
 40
0.1000000000064693
100
AcDbArc
 50
23.3197368896
 51
81.8803564221
  0
ARC
  5
39B
330
1F
100
AcDbEntity
  8
0
  6
Continuous
 62
     7
370
    25
100
AcDbCircle
 10
11.1298935867
 20
8.3300264615
 30
0.0
 40
0.1000000000000068
100
AcDbArc
 50
81.8803564221
 51
230.6203610966
  0
ARC
  5
39C
330
1F
100
AcDbEntity
  8
0
  6
Continuous
 62
     7
370
    25
100
AcDbCircle
 10
11.7806530906
 20
7.7958737584
 30
0.0
 40
0.0999999999999864
100
AcDbArc
 50
230.6203610966
 51
23.3197368896
  0
ARC
  5
39D
330
1F
100
AcDbEntity
  8
0
  6
Continuous
 62
     7
370
    25
100
AcDbCircle
 10
9.6395713872
 20
7.8004309916
 30
0.0
 40
0.1000000000000047
100
AcDbArc
 50
264.4295421161
 51
44.829088805
  0
ARC
  5
39E
330
1F
100
AcDbEntity
  8
0
  6
Continuous
 62
     7
370
    25
100
AcDbCircle
 10
8.9869393992
 20
8.4569681946
 30
0.0
 40
0.1000000000000045
100
AcDbArc
 50
44.8290888051
 51
171.268305798
  0
ARC
  5
39F
330
1F
100
AcDbEntity
  8
0
  6
Continuous
 62
     7
370
    25
100
AcDbCircle
 10
8.8972233476
 20
7.872832433
 30
0.0
 40
0.0999999999999677
100
AcDbArc
 50
171.268305798
 51
264.4295421162
  0
ARC
  5
3A0
330
1F
100
AcDbEntity
  8
0
  6
Continuous
 62
     7
370
    25
100
AcDbCircle
 10
10.2097956249
 20
8.4330319585
 30
0.0
 40
0.1000000000000199
100
AcDbArc
 50
346.4141815173
 51
83.0259342231
  0
ARC
  5
3A1
330
1F
100
AcDbEntity
  8
0
  6
Continuous
 62
     7
370
    25
100
AcDbCircle
 10
9.4063833647
 20
8.5313094635
 30
0.0
 40
0.1000000000000166
100
AcDbArc
 50
83.0259342231
 51
224.5608033761
  0
ARC
  5
3A2
330
1F
100
AcDbEntity
  8
0
  6
Continuous
 62
     7
370
    25
100
AcDbCircle
 10
10.0705589593
 20
7.8568726319
 30
0.0
 40
0.1000000000000126
100
AcDbArc
 50
224.5608033761
 51
346.4141815173
  0
ARC
  5
3A3
330
1F
100
AcDbEntity
  8
0
  6
Continuous
 62
     7
370
    25
100
AcDbCircle
 10
2.9455312772
 20
8.4162161912
 30
0.0
 40
0.0999999999999762
100
AcDbArc
 50
264.7206640303
 51
32.5984945622
  0
ARC
  5
3A4
330
1F
100
AcDbEntity
  8
0
  6
Continuous
 62
     7
370
    25
100
AcDbCircle
 10
2.4474311866
 20
9.1951186843
 30
0.0
 40
0.0999999999999741
100
AcDbArc
 50
32.5984945621
 51
158.5311116645
  0
ARC
  5
3A5
330
1F
100
AcDbEntity
  8
0
  6
Continuous
 62
     7
370
    25
100
AcDbCircle
 10
2.169310247
 20
8.487941691
 30
0.0
 40
0.1000000000000313
100
AcDbArc
 50
158.5311116645
 51
264.7206640303
  0
ARC
  5
3A6
330
1F
100
AcDbEntity
  8
0
  6
Continuous
 62
     7
370
    25
100
AcDbCircle
 10
3.3329925019
 20
8.5129391035
 30
0.0
 40
0.1000000000000014
100
AcDbArc
 50
213.6363940691
 51
338.2028677818
  0
ARC
  5
3A7
330
1F
100
AcDbEntity
  8
0
  6
Continuous
 62
     7
370
    25
100
AcDbCircle
 10
3.5878400076
 20
9.1501958247
 30
0.0
 40
0.1000000000001367
100
AcDbArc
 50
338.2028677818
 51
83.157182089
  0
ARC
  5
3A8
330
1F
100
AcDbEntity
  8
0
  6
Continuous
 62
     7
370
    25
100
AcDbCircle
 10
2.8501180034
 20
9.2387230464
 30
0.0
 40
0.0999999999999957
100
AcDbArc
 50
83.157182089
 51
213.6363940692
  0
ARC
  5
3A9
330
1F
100
AcDbEntity
  8
0
  6
Continuous
 62
     7
370
    25
100
AcDbCircle
 10
4.5572148615
 20
8.2809832385
 30
0.0
 40
0.0999999999999989
100
AcDbArc
 50
264.8212957412
 51
38.4707199205
  0
ARC
  5
3AA
330
1F
100
AcDbEntity
  8
0
  6
Continuous
 62
     7
370
    25
100
AcDbCircle
 10
3.961443575
 20
9.0307565533
 30
0.0
 40
0.0999999999999902
100
AcDbArc
 50
38.4707199204
 51
159.1425166041
  0
ARC
  5
3AB
330
1F
100
AcDbEntity
  8
0
  6
Continuous
 62
     7
370
    25
100
AcDbCircle
 10
3.7051924349
 20
8.3582040612
 30
0.0
 40
0.0999999999999464
100
AcDbArc
 50
159.1425166041
 51
264.8212957412
  0
ARC
  5
3AC
330
1F
100
AcDbEntity
  8
0
  6
Continuous
 62
     7
370
    25
100
AcDbCircle
 10
5.0506758711
 20
8.3149952452
 30
0.0
 40
0.0999999999999901
100
AcDbArc
 50
218.6954308485
 51
339.2793333469
  0
ARC
  5
3AD
330
1F
100
AcDbEntity
  8
0
  6
Continuous
 62
     7
370
    25
100
AcDbCircle
 10
5.2948865046
 20
8.9605755967
 30
0.0
 40
0.100000000000014
100
AcDbArc
 50
339.2793333468
 51
82.5675179708
  0
ARC
  5
3AE
330
1F
100
AcDbEntity
  8
0
  6
Continuous
 62
     7
370
    25
100
AcDbCircle
 10
4.4447131521
 20
9.0714839815
 30
0.0
 40
0.0999999999999899
100
AcDbArc
 50
82.5675179708
 51
218.6954308485
  0
ARC
  5
3AF
330
1F
100
AcDbEntity
  8
0
  6
Continuous
 62
     7
370
    25
100
AcDbCircle
 10
2.0642822482
 20
9.3025515686
 30
0.0
 40
0.1000000000002089
100
AcDbArc
 50
338.4917903382
 51
80.5435597431
  0
ARC
  5
3B0
330
1F
100
AcDbEntity
  8
0
  6
Continuous
 62
     7
370
    25
100
AcDbCircle
 10
1.574615692
 20
9.384110997
 30
0.0
 40
0.0999999999999162
100
AcDbArc
 50
80.543559743
 51
156.8206482197
  0
ARC
  5
3B1
330
1F
100
AcDbEntity
  8
0
  6
Continuous
 62
     7
370
    25
100
AcDbCircle
 10
1.3586919118
 20
8.8798212371
 30
0.0
 40
0.1000000000000235
100
AcDbArc
 50
156.8206482196
 51
235.2377168924
  0
ARC
  5
3B2
330
1F
100
AcDbEntity
  8
0
  6
Continuous
 62
     7
370
    25
100
AcDbCircle
 10
1.7819350741
 20
8.5860725861
 30
0.0
 40
0.0999999999999473
100
AcDbArc
 50
235.2377168924
 51
338.4917903382
  0
ARC
  5
3B3
330
1F
100
AcDbEntity
  8
0
  6
Continuous
 62
     7
370
    25
100
AcDbCircle
 10
13.793884627
 20
8.3989998157
 30
0.0
 40
0.133000000000001
100
AcDbArc
 50
26.0
 51
206.0
  0
ARC
  5
3B4
330
1F
100
AcDbEntity
  8
0
  6
Continuous
 62
     7
370
    25
100
AcDbCircle
 10
13.793884627
 20
8.3989998157
 30
0.0
 40
0.1330000000000002
100
AcDbArc
 50
206.0
 51
26.0
  0
ARC
  5
3B5
330
1F
100
AcDbEntity
  8
0
  6
Continuous
 62
     7
370
    25
100
AcDbCircle
 10
12.6626406167
 20
7.974853205
 30
0.0
 40
0.1330000000000018
100
AcDbArc
 50
26.0
 51
206.0
  0
ARC
  5
3B6
330
1F
100
AcDbEntity
  8
0
  6
Continuous
 62
     7
370
    25
100
AcDbCircle
 10
12.6626406167
 20
7.974853205
 30
0.0
 40
0.1330000000000006
100
AcDbArc
 50
206.0
 51
26.0
  0
ARC
  5
3B7
330
1F
100
AcDbEntity
  8
0
  6
Continuous
 62
     7
370
    25
100
AcDbCircle
 10
0.7456700589
 20
9.3840418807
 30
0.0
 40
0.1330000000000003
100
AcDbArc
 50
26.0
 51
206.0
  0
ARC
  5
3B8
330
1F
100
AcDbEntity
  8
0
  6
Continuous
 62
     7
370
    25
100
AcDbCircle
 10
0.7456700589
 20
9.3840418807
 30
0.0
 40
0.1330000000000003
100
AcDbArc
 50
206.0
 51
26.0
  0
ARC
  5
3B9
330
1F
100
AcDbEntity
  8
0
  6
Continuous
 62
     7
370
    25
100
AcDbCircle
 10
16.4250230575
 20
9.3855141639
 30
0.0
 40
0.1330000000000049
100
AcDbArc
 50
26.0
 51
206.0
  0
ARC
  5
3BA
330
1F
100
AcDbEntity
  8
0
  6
Continuous
 62
     7
370
    25
100
AcDbCircle
 10
16.4250230575
 20
9.3855141639
 30
0.0
 40
0.1330000000000042
100
AcDbArc
 50
206.0
 51
26.0
  0
ARC
  5
3BB
330
1F
100
AcDbEntity
  8
0
  6
Continuous
 62
     7
370
    25
100
AcDbCircle
 10
15.2920417405
 20
8.9607161705
 30
0.0
 40
0.1330000000000011
100
AcDbArc
 50
26.0
 51
206.0
  0
ARC
  5
3BC
330
1F
100
AcDbEntity
  8
0
  6
Continuous
 62
     7
370
    25
100
AcDbCircle
 10
15.2920417405
 20
8.9607161705
 30
0.0
 40
0.1330000000000042
100
AcDbArc
 50
206.0
 51
26.0
  0
ARC
  5
3BD
330
1F
100
AcDbEntity
  8
0
  6
Continuous
 62
     7
370
    25
100
AcDbCircle
 10
0.988296664
 20
7.4339689499
 30
0.0
 40
0.3750000000003044
100
AcDbArc
 50
84.2560584616
 51
234.2560584616
  0
ARC
  5
3BE
330
1F
100
AcDbEntity
  8
0
  6
Continuous
 62
     7
370
    25
100
AcDbCircle
 10
11.8965283836
 20
7.7186714594
 30
0.0
 40
1.00000000000036
100
AcDbArc
 50
264.2560584616
 51
285.8605964461
  0
ARC
  5
3BF
330
1F
100
AcDbEntity
  8
0
  6
Continuous
 62
     7
370
    25
100
AcDbCircle
 10
16.6652359264
 20
7.7090834501
 30
0.0
 40
0.3125000000000014
100
AcDbArc
 50
293.0461056248
 51
105.8605964461
  0
ARC
  5
3C0
330
1F
100
AcDbEntity
  8
0
  6
Continuous
 62
     7
370
    25
100
AcDbCircle
 10
12.3704877672
 20
6.6291191664
 30
0.0
 40
1.00000000000019
100
AcDbArc
 50
266.0899002275
 51
293.0461056248
  0
ARC
  5
3C1
330
1F
100
AcDbEntity
  8
0
  6
Continuous
 62
     7
370
    25
100
AcDbCircle
 10
2.2117244216
 20
7.3234732454
 30
0.0
 40
1.000000000000405
100
AcDbArc
 50
234.2560584616
 51
266.0899002275
  0
ARC
  5
3C2
330
1F
100
AcDbEntity
  8
0
  6
Continuous
 62
     7
370
    25
100
AcDbCircle
 10
8.2251871804
 20
6.156341679
 30
0.0
 40
0.1000000000006175
100
AcDbArc
 50
265.5569098318
 51
47.0618308417
  0
ARC
  5
3C3
330
1F
100
AcDbEntity
  8
0
  6
Continuous
 62
     7
370
    25
100
AcDbCircle
 10
7.4854976217
 20
6.8446224793
 30
0.0
 40
0.1000000000000253
100
AcDbArc
 50
47.0618308417
 51
161.8865379381
  0
ARC
  5
3C4
330
1F
100
AcDbEntity
  8
0
  6
Continuous
 62
     7
370
    25
100
AcDbCircle
 10
7.2842693241
 20
6.229453225
 30
0.0
 40
0.1000000000000015
100
AcDbArc
 50
161.8865379381
 51
265.5569098318
  0
ARC
  5
3C5
330
1F
100
AcDbEntity
  8
0
  6
Continuous
 62
     7
370
    25
100
AcDbCircle
 10
8.7688829816
 20
6.177134446
 30
0.0
 40
0.0999999999999908
100
AcDbArc
 50
226.5950712284
 51
351.6299512778
  0
ARC
  5
3C6
330
1F
100
AcDbEntity
  8
0
  6
Continuous
 62
     7
370
    25
100
AcDbCircle
 10
8.8562378838
 20
6.7708481235
 30
0.0
 40
0.100000000000205
100
AcDbArc
 50
351.6299512778
 51
83.8420761153
  0
ARC
  5
3C7
330
1F
100
AcDbEntity
  8
0
  6
Continuous
 62
     7
370
    25
100
AcDbCircle
 10
8.0490820978
 20
6.8579336062
 30
0.0
 40
0.0999999999999871
100
AcDbArc
 50
83.8420761153
 51
226.5950712284
  0
ARC
  5
3C8
330
1F
100
AcDbEntity
  8
0
  6
Continuous
 62
     7
370
    25
100
AcDbCircle
 10
7.1310086085
 20
6.939843609
 30
0.0
 40
0.0999999999997266
100
AcDbArc
 50
342.5330199738
 51
83.6054212391
  0
ARC
  5
3C9
330
1F
100
AcDbEntity
  8
0
  6
Continuous
 62
     7
370
    25
100
AcDbCircle
 10
6.3499310946
 20
7.0273806564
 30
0.0
 40
0.0999999999999967
100
AcDbArc
 50
83.6054212391
 51
220.8638150074
  0
ARC
  5
3CA
330
1F
100
AcDbEntity
  8
0
  6
Continuous
 62
     7
370
    25
100
AcDbCircle
 10
6.9428829667
 20
6.3419841076
 30
0.0
 40
0.099999999999996
100
AcDbArc
 50
220.8638150074
 51
342.5330199738
  0
ARC
  5
3CB
330
1F
100
AcDbEntity
  8
0
  6
Continuous
 62
     7
370
    25
100
AcDbCircle
 10
6.4940496298
 20
6.2733698622
 30
0.0
 40
0.1000000000000043
100
AcDbArc
 50
265.8032622266
 51
40.6222594516
  0
ARC
  5
3CC
330
1F
100
AcDbEntity
  8
0
  6
Continuous
 62
     7
370
    25
100
AcDbCircle
 10
5.8912908333
 20
6.9760679316
 30
0.0
 40
0.1000000000000356
100
AcDbArc
 50
40.6222594516
 51
160.7466540706
  0
ARC
  5
3CD
330
1F
100
AcDbEntity
  8
0
  6
Continuous
 62
     7
370
    25
100
AcDbCircle
 10
5.6670473862
 20
6.3340537703
 30
0.0
 40
0.1000000000000014
100
AcDbArc
 50
160.7466540707
 51
265.8032622266
  0
ARC
  5
3CE
330
1F
100
AcDbEntity
  8
0
  6
Continuous
 62
     7
370
    25
100
AcDbCircle
 10
11.6315451333
 20
5.8978111528
 30
0.0
 40
0.100000000000146
100
AcDbArc
 50
266.6660837315
 51
51.2994603706
  0
ARC
  5
3CF
330
1F
100
AcDbEntity
  8
0
  6
Continuous
 62
     7
370
    25
100
AcDbCircle
 10
10.8258727635
 20
6.5432888929
 30
0.0
 40
0.0999999999999846
100
AcDbArc
 50
51.2994603706
 51
168.3229460227
  0
ARC
  5
3D0
330
1F
100
AcDbEntity
  8
0
  6
Continuous
 62
     7
370
    25
100
AcDbCircle
 10
10.7036417241
 20
5.9518648447
 30
0.0
 40
0.0999999999999783
100
AcDbArc
 50
168.3229460226
 51
266.6660837315
  0
ARC
  5
3D1
330
1F
100
AcDbEntity
  8
0
  6
Continuous
 62
     7
370
    25
100
AcDbCircle
 10
11.8384362838
 20
6.5052487036
 30
0.0
 40
0.1000000000235359
100
AcDbArc
 50
24.3197368898
 51
82.8803564221
  0
ARC
  5
3D2
330
1F
100
AcDbEntity
  8
0
  6
Continuous
 62
     7
370
    25
100
AcDbCircle
 10
11.3893337298
 20
6.5613437519
 30
0.0
 40
0.1000000000000076
100
AcDbArc
 50
82.8803564221
 51
231.6203610966
  0
ARC
  5
3D3
330
1F
100
AcDbEntity
  8
0
  6
Continuous
 62
     7
370
    25
100
AcDbCircle
 10
12.0493163699
 20
6.0386297223
 30
0.0
 40
0.0999999999999871
100
AcDbArc
 50
231.6203610966
 51
24.3197368896
  0
ARC
  5
3D4
330
1F
100
AcDbEntity
  8
0
  6
Continuous
 62
     7
370
    25
100
AcDbCircle
 10
9.908481229
 20
6.0058192332
 30
0.0
 40
0.1000000000000046
100
AcDbArc
 50
265.4295421161
 51
45.829088805
  0
ARC
  5
3D5
330
1F
100
AcDbEntity
  8
0
  6
Continuous
 62
     7
370
    25
100
AcDbCircle
 10
9.2444904859
 20
6.6508664437
 30
0.0
 40
0.1000000000000025
100
AcDbArc
 50
45.8290888051
 51
172.268305798
  0
ARC
  5
3D6
330
1F
100
AcDbEntity
  8
0
  6
Continuous
 62
     7
370
    25
100
AcDbCircle
 10
9.1649826732
 20
6.0652538878
 30
0.0
 40
0.0999999999999704
100
AcDbArc
 50
172.268305798
 51
265.4295421162
  0
ARC
  5
3D7
330
1F
100
AcDbEntity
  8
0
  6
Continuous
 62
     7
370
    25
100
AcDbCircle
 10
10.4675782096
 20
6.6482756371
 30
0.0
 40
0.0999999999999691
100
AcDbArc
 50
347.4141815173
 51
84.0259342231
  0
ARC
  5
3D8
330
1F
100
AcDbEntity
  8
0
  6
Continuous
 62
     7
370
    25
100
AcDbCircle
 10
9.662573134
 20
6.7325166967
 30
0.0
 40
0.1000000000000167
100
AcDbArc
 50
84.0259342231
 51
225.5608033761
  0
ARC
  5
3D9
330
1F
100
AcDbEntity
  8
0
  6
Continuous
 62
     7
370
    25
100
AcDbCircle
 10
10.3384181171
 20
6.0697740475
 30
0.0
 40
0.1000000000000127
100
AcDbArc
 50
225.5608033761
 51
347.4141815173
  0
ARC
  5
3DA
330
1F
100
AcDbEntity
  8
0
  6
Continuous
 62
     7
370
    25
100
AcDbCircle
 10
3.2047137201
 20
6.5046835371
 30
0.0
 40
0.0999999999999764
100
AcDbArc
 50
265.7206640303
 51
33.5984945622
  0
ARC
  5
3DB
330
1F
100
AcDbEntity
  8
0
  6
Continuous
 62
     7
370
    25
100
AcDbCircle
 10
2.6930957697
 20
7.2747743543
 30
0.0
 40
0.0999999999999751
100
AcDbArc
 50
33.5984945621
 51
159.5311116644
  0
ARC
  5
3DC
330
1F
100
AcDbEntity
  8
0
  6
Continuous
 62
     7
370
    25
100
AcDbCircle
 10
2.4273591296
 20
6.5628511878
 30
0.0
 40
0.10000000000002
100
AcDbArc
 50
159.5311116645
 51
265.7206640303
  0
ARC
  5
3DD
330
1F
100
AcDbEntity
  8
0
  6
Continuous
 62
     7
370
    25
100
AcDbCircle
 10
3.590427885
 20
6.6081538488
 30
0.0
 40
0.0999999999999997
100
AcDbArc
 50
214.6363940691
 51
339.2028677818
  0
ARC
  5
3DE
330
1F
100
AcDbEntity
  8
0
  6
Continuous
 62
     7
370
    25
100
AcDbCircle
 10
3.8341149129
 20
7.2497612149
 30
0.0
 40
0.1000000000001171
100
AcDbArc
 50
339.2028677818
 51
84.157182089
  0
ARC
  5
3DF
330
1F
100
AcDbEntity
  8
0
  6
Continuous
 62
     7
370
    25
100
AcDbCircle
 10
3.0949602543
 20
7.3253999293
 30
0.0
 40
0.0999999999999935
100
AcDbArc
 50
84.157182089
 51
214.6363940692
  0
ARC
  5
3E0
330
1F
100
AcDbEntity
  8
0
  6
Continuous
 62
     7
370
    25
100
AcDbCircle
 10
4.8185119777
 20
6.397598938
 30
0.0
 40
0.1000000000000001
100
AcDbArc
 50
265.8212957412
 51
39.4707199205
  0
ARC
  5
3E1
330
1F
100
AcDbEntity
  8
0
  6
Continuous
 62
     7
370
    25
100
AcDbCircle
 10
4.2097460814
 20
7.136860416
 30
0.0
 40
0.0999999999999939
100
AcDbArc
 50
39.4707199204
 51
160.1425166041
  0
ARC
  5
3E2
330
1F
100
AcDbEntity
  8
0
  6
Continuous
 62
     7
370
    25
100
AcDbCircle
 10
3.965271629
 20
6.4599381579
 30
0.0
 40
0.0999999999999415
100
AcDbArc
 50
160.1425166041
 51
265.8212957412
  0
ARC
  5
3E3
330
1F
100
AcDbEntity
  8
0
  6
Continuous
 62
     7
370
    25
100
AcDbCircle
 10
5.3113042394
 20
6.4402178466
 30
0.0
 40
0.0999999999999884
100
AcDbArc
 50
219.6954308485
 51
340.2793333469
  0
ARC
  5
3E4
330
1F
100
AcDbEntity
  8
0
  6
Continuous
 62
     7
370
    25
100
AcDbCircle
 10
5.5442107478
 20
7.0899619363
 30
0.0
 40
0.1000000000000126
100
AcDbArc
 50
340.2793333468
 51
83.5675179708
  0
ARC
  5
3E5
330
1F
100
AcDbEntity
  8
0
  6
Continuous
 62
     7
370
    25
100
AcDbCircle
 10
4.6922312626
 20
7.1860158583
 30
0.0
 40
0.0999999999999887
100
AcDbArc
 50
83.5675179708
 51
219.6954308485
  0
ARC
  5
3E6
330
1F
100
AcDbEntity
  8
0
  6
Continuous
 62
     7
370
    25
100
AcDbCircle
 10
2.3081302244
 20
7.3755040051
 30
0.0
 40
0.1000000000002431
100
AcDbArc
 50
339.4917903383
 51
81.5435597431
  0
ARC
  5
3E7
330
1F
100
AcDbEntity
  8
0
  6
Continuous
 62
     7
370
    25
100
AcDbCircle
 10
1.8171148385
 20
7.4485051518
 30
0.0
 40
0.099999999999895
100
AcDbArc
 50
81.543559743
 51
157.8206482197
  0
ARC
  5
3E8
330
1F
100
AcDbEntity
  8
0
  6
Continuous
 62
     7
370
    25
100
AcDbCircle
 10
1.6100250144
 20
6.9405238081
 30
0.0
 40
0.1000000000000007
100
AcDbArc
 50
157.8206482196
 51
236.2377168924
  0
ARC
  5
3E9
330
1F
100
AcDbEntity
  8
0
  6
Continuous
 62
     7
370
    25
100
AcDbCircle
 10
2.0383303356
 20
6.6542065082
 30
0.0
 40
0.0999999999999468
100
AcDbArc
 50
236.2377168924
 51
339.4917903382
  0
ARC
  5
3EA
330
1F
100
AcDbEntity
  8
0
  6
Continuous
 62
     7
370
    25
100
AcDbCircle
 10
14.0517152803
 20
6.6767996555
 30
0.0
 40
0.1330000000000005
100
AcDbArc
 50
27.0
 51
207.0
  0
ARC
  5
3EB
330
1F
100
AcDbEntity
  8
0
  6
Continuous
 62
     7
370
    25
100
AcDbCircle
 10
14.0517152803
 20
6.6767996555
 30
0.0
 40
0.1330000000000005
100
AcDbArc
 50
207.0
 51
27.0
  0
ARC
  5
3EC
330
1F
100
AcDbEntity
  8
0
  6
Continuous
 62
     7
370
    25
100
AcDbCircle
 10
12.928045943
 20
6.2329747142
 30
0.0
 40
0.1330000000000026
100
AcDbArc
 50
27.0
 51
207.0
  0
ARC
  5
3ED
330
1F
100
AcDbEntity
  8
0
  6
Continuous
 62
     7
370
    25
100
AcDbCircle
 10
12.928045943
 20
6.2329747142
 30
0.0
 40
0.1330000000000026
100
AcDbArc
 50
207.0
 51
27.0
  0
ARC
  5
3EE
330
1F
100
AcDbEntity
  8
0
  6
Continuous
 62
     7
370
    25
100
AcDbCircle
 10
0.988296664
 20
7.4339689499
 30
0.0
 40
0.1329999999999999
100
AcDbArc
 50
27.0
 51
207.0
  0
ARC
  5
3EF
330
1F
100
AcDbEntity
  8
0
  6
Continuous
 62
     7
370
    25
100
AcDbCircle
 10
0.988296664
 20
7.4339689499
 30
0.0
 40
0.133
100
AcDbArc
 50
207.0
 51
27.0
  0
ARC
  5
3F0
330
1F
100
AcDbEntity
  8
0
  6
Continuous
 62
     7
370
    25
100
AcDbCircle
 10
16.6652359264
 20
7.7090834501
 30
0.0
 40
0.1330000000000006
100
AcDbArc
 50
27.0
 51
207.0
  0
ARC
  5
3F1
330
1F
100
AcDbEntity
  8
0
  6
Continuous
 62
     7
370
    25
100
AcDbCircle
 10
16.6652359264
 20
7.7090834501
 30
0.0
 40
0.1330000000000005
100
AcDbArc
 50
207.0
 51
27.0
  0
ARC
  5
3F2
330
1F
100
AcDbEntity
  8
0
  6
Continuous
 62
     7
370
    25
100
AcDbCircle
 10
15.5398409151
 20
7.2645769051
 30
0.0
 40
0.1330000000000057
100
AcDbArc
 50
27.0
 51
207.0
  0
ARC
  5
3F3
330
1F
100
AcDbEntity
  8
0
  6
Continuous
 62
     7
370
    25
100
AcDbCircle
 10
15.5398409151
 20
7.2645769051
 30
0.0
 40
0.1330000000000053
100
AcDbArc
 50
207.0
 51
27.0
  0
MTEXT
  5
3F5
330
1F
100
AcDbEntity
  8
0
  6
Continuous
 62
     7
100
AcDbMText
 10
0.0
 20
-0.0401404091
 30
0.0
 40
0.1903
 41
0.0
 71
     1
 72
     1
  1
SOLIDWORKS Educational Product.
  7
SLDTEXTSTYLE0
 73
     1
 44
1.0
  0
MTEXT
  5
3F6
330
1F
100
AcDbEntity
  8
0
  6
Continuous
 62
     7
100
AcDbMText
 10
0.0
 20
-0.3255904091
 30
0.0
 40
0.1903
 41
0.0
 71
     1
 72
     1
  1
For Instructional Use Only.
  7
SLDTEXTSTYLE0
 73
     1
 44
1.0
  0
ENDSEC
  0
SECTION
  2
OBJECTS
  0
DICTIONARY
  5
C
330
0
100
AcDbDictionary
281
     1
  3
ACAD_GROUP
350
D
  3
ACAD_LAYOUT
350
1A
  3
ACAD_MLINESTYLE
350
17
  3
ACAD_PLOTSETTINGS
350
19
  3
ACAD_PLOTSTYLENAME
350
E
  3
ACAD_SCALELIST
350
47
  3
DWGPROPS
350
3F7
  0
DICTIONARY
  5
D
102
{ACAD_REACTORS
330
C
102
}
330
C
100
AcDbDictionary
281
     1
  0
DICTIONARY
  5
1A
102
{ACAD_REACTORS
330
C
102
}
330
C
100
AcDbDictionary
281
     1
  3
Layout1
350
1E
  3
Layout2
350
26
  3
Model
350
22
  0
DICTIONARY
  5
17
102
{ACAD_REACTORS
330
C
102
}
330
C
100
AcDbDictionary
281
     1
  3
Standard
350
18
  0
DICTIONARY
  5
19
102
{ACAD_REACTORS
330
C
102
}
330
C
100
AcDbDictionary
281
     1
  0
ACDBDICTIONARYWDFLT
  5
E
102
{ACAD_REACTORS
330
C
102
}
330
C
100
AcDbDictionary
281
     1
  3
Normal
350
F
100
AcDbDictionaryWithDefault
340
F
  0
DICTIONARY
  5
47
102
{ACAD_REACTORS
330
C
102
}
330
C
100
AcDbDictionary
281
     1
  3
A0
350
48
  3
A1
350
49
  3
A2
350
4A
  3
A3
350
4B
  3
A4
350
4C
  3
A5
350
4D
  3
A6
350
4E
  3
A7
350
4F
  3
A8
350
50
  3
A9
350
51
  3
B1
350
52
  3
B2
350
53
  3
B3
350
54
  3
B4
350
55
  3
B5
350
56
  3
B6
350
57
  3
B7
350
58
  0
XRECORD
  5
3F7
102
{ACAD_REACTORS
330
C
102
}
330
C
100
AcDbXrecord
280
     1
  1
DWGPROPS COOKIE
  2

  3

  4

  6

  7

  8
dgale
  9

300
=
301
=
302
=
303
=
304
=
305
=
306
=
307
=
308
=
309
=
 40
0.0
 41
2460735.776268079
 42
2460735.776391112
  1

 90
        0
  0
LAYOUT
  5
1E
102
{ACAD_REACTORS
330
1A
102
}
330
1A
100
AcDbPlotSettings
  1

  2
none_device
  4

  6

 40
0.0
 41
0.0
 42
0.0
 43
0.0
 44
0.0
 45
0.0
 46
0.0
 47
0.0
 48
0.0
 49
0.0
140
0.0
141
0.0
142
1.0
143
1.0
 70
   688
 72
     0
 73
     0
 74
     5
  7

 75
    16
147
1.0
148
0.0
149
0.0
100
AcDbLayout
  1
Layout1
 70
     1
 71
     1
 10
0.0
 20
0.0
 11
12.0
 21
9.0
 12
0.0
 22
0.0
 32
0.0
 14
1.0000000000E+20
 24
1.0000000000E+20
 34
1.0000000000E+20
 15
-1.0000000000E+20
 25
-1.0000000000E+20
 35
-1.0000000000E+20
146
0.0
 13
0.0
 23
0.0
 33
0.0
 16
1.0
 26
0.0
 36
0.0
 17
0.0
 27
1.0
 37
0.0
 76
     0
330
1B
  0
LAYOUT
  5
26
102
{ACAD_REACTORS
330
1A
102
}
330
1A
100
AcDbPlotSettings
  1

  2
none_device
  4

  6

 40
0.0
 41
0.0
 42
0.0
 43
0.0
 44
0.0
 45
0.0
 46
0.0
 47
0.0
 48
0.0
 49
0.0
140
0.0
141
0.0
142
1.0
143
1.0
 70
   688
 72
     0
 73
     0
 74
     5
  7

 75
    16
147
1.0
148
0.0
149
0.0
100
AcDbLayout
  1
Layout2
 70
     1
 71
     2
 10
0.0
 20
0.0
 11
0.0
 21
0.0
 12
0.0
 22
0.0
 32
0.0
 14
0.0
 24
0.0
 34
0.0
 15
0.0
 25
0.0
 35
0.0
146
0.0
 13
0.0
 23
0.0
 33
0.0
 16
1.0
 26
0.0
 36
0.0
 17
0.0
 27
1.0
 37
0.0
 76
     0
330
23
  0
LAYOUT
  5
22
102
{ACAD_REACTORS
330
1A
102
}
330
1A
100
AcDbPlotSettings
  1

  2
none_device
  4
ANSI_A_(11.00_x_8.50_Inches)
  6

 40
6.35
 41
19.05
 42
6.35000508
 43
19.05000254
 44
279.4
 45
215.9
 46
-4.95300254
 47
28.7682595996
 48
0.0
 49
0.0
140
0.0
141
0.0
142
0.4734782609
143
1.0
 70
  1696
 72
     0
 73
     0
 74
     0
  7

 75
     0
147
0.5913241897
148
-39.4088153714
149
0.0
100
AcDbLayout
  1
Model
 70
     1
 71
     0
 10
0.0
 20
0.0
 11
12.0
 21
9.0
 12
0.0
 22
0.0
 32
0.0
 14
0.0
 24
0.0
 34
0.0
 15
23.0
 25
10.0
 35
0.0
146
0.0
 13
0.0
 23
0.0
 33
0.0
 16
1.0
 26
0.0
 36
0.0
 17
0.0
 27
1.0
 37
0.0
 76
     0
330
1F
331
29
  0
MLINESTYLE
  5
18
102
{ACAD_REACTORS
330
17
102
}
330
17
100
AcDbMlineStyle
  2
Standard
 70
     0
  3

 62
   256
 51
90.0
 52
90.0
 71
     2
 49
0.5
 62
   256
  6
BYLAYER
 49
-0.5
 62
   256
  6
BYLAYER
  0
ACDBPLACEHOLDER
  5
F
102
{ACAD_REACTORS
330
E
102
}
330
E
  0
SCALE
  5
48
102
{ACAD_REACTORS
330
47
102
}
330
47
100
AcDbScale
 70
     0
300
1:1
140
1.0
141
1.0
290
     1
  0
SCALE
  5
49
102
{ACAD_REACTORS
330
47
102
}
330
47
100
AcDbScale
 70
     0
300
1/128" = 1'-0"
140
0.0078125
141
12.0
290
     0
  0
SCALE
  5
4A
102
{ACAD_REACTORS
330
47
102
}
330
47
100
AcDbScale
 70
     0
300
1/64" = 1'-0"
140
0.015625
141
12.0
290
     0
  0
SCALE
  5
4B
102
{ACAD_REACTORS
330
47
102
}
330
47
100
AcDbScale
 70
     0
300
1/32" = 1'-0"
140
0.03125
141
12.0
290
     0
  0
SCALE
  5
4C
102
{ACAD_REACTORS
330
47
102
}
330
47
100
AcDbScale
 70
     0
300
1/16" = 1'-0"
140
0.0625
141
12.0
290
     0
  0
SCALE
  5
4D
102
{ACAD_REACTORS
330
47
102
}
330
47
100
AcDbScale
 70
     0
300
3/32" = 1'-0"
140
0.09375
141
12.0
290
     0
  0
SCALE
  5
4E
102
{ACAD_REACTORS
330
47
102
}
330
47
100
AcDbScale
 70
     0
300
1/8" = 1'-0"
140
0.125
141
12.0
290
     0
  0
SCALE
  5
4F
102
{ACAD_REACTORS
330
47
102
}
330
47
100
AcDbScale
 70
     0
300
3/16" = 1'-0"
140
0.1875
141
12.0
290
     0
  0
SCALE
  5
50
102
{ACAD_REACTORS
330
47
102
}
330
47
100
AcDbScale
 70
     0
300
1/4" = 1'-0"
140
0.25
141
12.0
290
     0
  0
SCALE
  5
51
102
{ACAD_REACTORS
330
47
102
}
330
47
100
AcDbScale
 70
     0
300
3/8" = 1'-0"
140
0.375
141
12.0
290
     0
  0
SCALE
  5
52
102
{ACAD_REACTORS
330
47
102
}
330
47
100
AcDbScale
 70
     0
300
1/2" = 1'-0"
140
0.5
141
12.0
290
     0
  0
SCALE
  5
53
102
{ACAD_REACTORS
330
47
102
}
330
47
100
AcDbScale
 70
     0
300
3/4" = 1'-0"
140
0.75
141
12.0
290
     0
  0
SCALE
  5
54
102
{ACAD_REACTORS
330
47
102
}
330
47
100
AcDbScale
 70
     0
300
1" = 1'-0"
140
1.0
141
12.0
290
     0
  0
SCALE
  5
55
102
{ACAD_REACTORS
330
47
102
}
330
47
100
AcDbScale
 70
     0
300
1-1/2" = 1'-0"
140
1.5
141
12.0
290
     0
  0
SCALE
  5
56
102
{ACAD_REACTORS
330
47
102
}
330
47
100
AcDbScale
 70
     0
300
3" = 1'-0"
140
3.0
141
12.0
290
     0
  0
SCALE
  5
57
102
{ACAD_REACTORS
330
47
102
}
330
47
100
AcDbScale
 70
     0
300
6" = 1'-0"
140
6.0
141
12.0
290
     0
  0
SCALE
  5
58
102
{ACAD_REACTORS
330
47
102
}
330
47
100
AcDbScale
 70
     0
300
1'-0" = 1'-0"
140
12.0
141
12.0
290
     0
  0
ENDSEC
  0
EOF
