<?xml version="1.0" encoding="UTF-8" standalone="no"?>
<!-- Created with Inkscape (http://www.inkscape.org/) -->

<svg
   width="610.67401mm"
   height="306.379mm"
   viewBox="0 0 610.67401 306.379"
   version="1.1"
   id="svg1"
   inkscape:version="1.3.1 (91b66b0783, 2023-11-16)"
   sodipodi:docname="NFR25_Car_Number.svg"
   inkscape:export-filename="NFR25_Car_Number.png"
   inkscape:export-xdpi="96"
   inkscape:export-ydpi="96"
   xmlns:inkscape="http://www.inkscape.org/namespaces/inkscape"
   xmlns:sodipodi="http://sodipodi.sourceforge.net/DTD/sodipodi-0.dtd"
   xmlns="http://www.w3.org/2000/svg"
   xmlns:svg="http://www.w3.org/2000/svg">
  <sodipodi:namedview
     id="namedview1"
     pagecolor="#ffffff"
     bordercolor="#000000"
     borderopacity="0.25"
     inkscape:showpageshadow="2"
     inkscape:pageopacity="0.0"
     inkscape:pagecheckerboard="0"
     inkscape:deskcolor="#d1d1d1"
     inkscape:document-units="mm"
     inkscape:zoom="0.19041982"
     inkscape:cx="2575.8873"
     inkscape:cy="1914.1915"
     inkscape:window-width="1920"
     inkscape:window-height="1111"
     inkscape:window-x="-9"
     inkscape:window-y="-9"
     inkscape:window-maximized="1"
     inkscape:current-layer="layer3"
     inkscape:export-bgcolor="#ffffff00" />
  <defs
     id="defs1" />
  <g
     inkscape:groupmode="layer"
     id="layer3"
     inkscape:label="Layer 2">
    <path
       id="rect2"
       style="fill:#fafafa;fill-opacity:1;stroke:none;stroke-width:25;stroke-dasharray:none;stroke-opacity:1;paint-order:stroke fill markers"
       d="m 38.636476,-0.69491275 c -23.32897,0 -42.1100901,18.78111975 -42.1100901,42.11008575 V 263.57422 c 0,23.32897 18.7811201,42.11009 42.1100901,42.11009 H 565.09012 c 23.329,0 42.1101,-18.78112 42.1101,-42.11009 V 41.415173 c 0,-23.328966 -18.7811,-42.11008575 -42.1101,-42.11008575 z m 92.475494,52.30119575 5.1e-4,5.2e-4 c 19.25643,0 36.21747,5.50344 48.18931,17.359141 11.48893,11.30334 17.59944,26.62758 17.59944,43.181856 0,14.72973 -4.26224,28.62576 -12.59561,40.27352 l -0.014,0.0191 -0.0134,0.0191 c -8.21506,11.38902 -22.22838,24.69545 -42.93743,41.92767 l -0.0176,0.0155 c -4.75447,3.97158 -8.8518,7.54655 -12.4101,10.77557 h 68.45474 l 0.37,-0.0429 v 4.27002 h -0.003 v 40.89001 l -0.3669,0.17157 H 59.141236 v -12.50001 c 0,-12.99773 4.19477,-25.63873 11.844232,-36.88251 7.76336,-11.4112 20.26904,-23.45103 37.937212,-37.68193 16.88552,-13.61491 28.25899,-24.50696 33.38505,-31.12472 4.82049,-6.29719 6.97218,-12.63983 6.97218,-20.59564 0,-6.99583 -1.59737,-10.45445 -4.43746,-13.253966 l -0.0331,-0.031 -0.031,-0.031 c -2.76898,-2.76898 -6.55683,-4.50205 -14.13299,-4.50205 -5.89967,0 -9.68467,1.4743 -13.57437,4.96507 -3.26634,2.931326 -5.52768,7.276346 -6.14226,15.634696 l -0.85163,11.58379 H 62.143606 l 1.12293,-13.53302 C 64.716526,95.024044 71.682168,79.512434 83.852358,68.403154 96.209978,57.115883 112.75171,51.606243 131.112,51.606243 Z m 344.53349,0 h 0.006 c 17.13697,0.001 32.59318,4.8169 44.24018,14.970661 11.5205,10.04341 17.9297,24.43116 17.9297,39.857516 0,15.40168 -7.0108,29.26 -18.8593,40.49623 16.0231,11.81604 25.6232,27.52398 25.6232,45.67784 0,17.39952 -7.0536,33.36928 -19.9843,44.46653 v 0.002 0.004 c -12.8896,11.04821 -29.89132,16.30237 -48.94948,16.30237 -18.99048,0 -35.97011,-5.26338 -48.91174,-16.27343 l -0.0372,-0.0331 -0.0393,-0.031 c -12.84772,-11.10895 -19.83187,-27.06059 -19.83187,-44.43759 0,-18.1416 9.58377,-33.84279 25.58759,-45.65613 -11.89758,-11.23542 -18.94096,-25.09966 -18.94096,-40.51794 0,-15.426356 6.40926,-29.813586 17.92965,-39.856996 l 0.0191,-0.0181 0.0196,-0.0155 c 11.6961,-10.110161 27.12869,-14.936591 44.19937,-14.937591 z m -164.02565,0.6997 h 36.32853 V 165.29805 h 23.08955 v 31.85697 12.50001 h -23.09006 v 40.8125 H 300.9109 v -40.8125 h -9.3865 v -0.24908 h -63.60904 v -13.54956 h -5.2e-4 v -21.94543 z m 164.03133,41.558191 c -6.15849,0 -9.16337,1.35071 -11.31817,3.31452 -2.0281,1.90689 -3.11764,3.951606 -3.11764,9.255766 0,7.1204 3.51296,12.63151 14.44925,18.52703 11.00913,-5.9053 14.54123,-11.42302 14.54123,-18.52703 0,-5.29381 -1.07984,-7.281236 -3.19154,-9.222686 l -0.0367,-0.0336 -0.0372,-0.0346 c -2.0283,-1.89531 -4.9946,-3.27938 -11.28924,-3.27938 z M 300.9109,140.56726 284.35068,165.29805 h 16.56022 z m 174.7573,31.04306 c -8.01605,3.99355 -13.73251,7.84596 -16.71423,10.82777 l -0.0331,0.0336 -0.031,0.031 c -3.29109,3.24343 -4.32015,5.74652 -4.32015,10.10533 0,6.98495 1.61803,10.34049 5.06843,13.44156 3.60599,3.24077 8.1832,5.07411 16.01349,5.07411 7.83043,0 12.40976,-1.83338 16.01556,-5.07411 l 0.0289,-0.0274 0.0289,-0.0253 c 3.51699,-3.12133 5.12682,-6.43699 5.12682,-13.38833 0,-4.35883 -1.02926,-6.8619 -4.32015,-10.10533 l -0.0331,-0.0315 -0.031,-0.0331 c -2.9674,-2.96745 -8.71715,-6.82773 -16.79898,-10.82828 z"
       sodipodi:nodetypes="ssssssssscccscccccccccccccssccsccsssscccccsssscscccscccscscccscccccccccccccccccscscsscssccccccccssscccsccccc"
       inkscape:export-filename="NFR25_Car_Number.png"
       inkscape:export-xdpi="96"
       inkscape:export-ydpi="96" />
  </g>
  <g
     inkscape:label="Layer 1"
     inkscape:groupmode="layer"
     id="layer1" />
</svg>
