  0
SECTION
  2
HEADER
  9
$ACADVER
  1
AC1015
  9
$ACADMAINTVER
 70
     6
  9
$DWGCODEPAGE
  3
ANSI_1252
  9
$INSBASE
 10
0.0
 20
0.0
 30
0.0
  9
$EXTMIN
 10
-11.9321182111
 20
-1.1692622294
 30
0.0
  9
$EXTMAX
 10
23.7890856172
 20
27.1980361621
 30
0.0
  9
$LIMMIN
 10
0.0
 20
0.0
  9
$LIMMAX
 10
12.0
 20
9.0
  9
$ORTHOMODE
 70
     0
  9
$REGENMODE
 70
     1
  9
$FILLMODE
 70
     1
  9
$QTEXTMODE
 70
     0
  9
$MIRRTEXT
 70
     1
  9
$LTSCALE
 40
1.0
  9
$ATTMODE
 70
     1
  9
$TEXTSIZE
 40
0.125
  9
$TRACEWID
 40
0.05
  9
$TEXTSTYLE
  7
Standard
  9
$CLAYER
  8
0
  9
$CELTYPE
  6
ByLayer
  9
$CECOLOR
 62
   256
  9
$CELTSCALE
 40
1.0
  9
$DISPSILH
 70
     0
  9
$DIMSCALE
 40
1.0
  9
$DIMASZ
 40
0.13
  9
$DIMEXO
 40
0.0
  9
$DIMDLI
 40
0.38
  9
$DIMRND
 40
0.0
  9
$DIMDLE
 40
0.0
  9
$DIMEXE
 40
0.125
  9
$DIMTP
 40
0.0
  9
$DIMTM
 40
0.0
  9
$DIMTXT
 40
0.125
  9
$DIMCEN
 40
0.09
  9
$DIMTSZ
 40
0.0
  9
$DIMTOL
 70
     0
  9
$DIMLIM
 70
     0
  9
$DIMTIH
 70
     1
  9
$DIMTOH
 70
     1
  9
$DIMSE1
 70
     0
  9
$DIMSE2
 70
     0
  9
$DIMTAD
 70
     0
  9
$DIMZIN
 70
     1
  9
$DIMBLK
  1

  9
$DIMASO
 70
     1
  9
$DIMSHO
 70
     1
  9
$DIMPOST
  1

  9
$DIMAPOST
  1

  9
$DIMALT
 70
     0
  9
$DIMALTD
 70
     2
  9
$DIMALTF
 40
25.4
  9
$DIMLFAC
 40
1.0
  9
$DIMTOFL
 70
     0
  9
$DIMTVP
 40
0.0
  9
$DIMTIX
 70
     0
  9
$DIMSOXD
 70
     0
  9
$DIMSAH
 70
     0
  9
$DIMBLK1
  1

  9
$DIMBLK2
  1

  9
$DIMSTYLE
  2
Standard
  9
$DIMCLRD
 70
     0
  9
$DIMCLRE
 70
     0
  9
$DIMCLRT
 70
     0
  9
$DIMTFAC
 40
1.0
  9
$DIMGAP
 40
0.06
  9
$DIMJUST
 70
     0
  9
$DIMSD1
 70
     0
  9
$DIMSD2
 70
     0
  9
$DIMTOLJ
 70
     1
  9
$DIMTZIN
 70
     1
  9
$DIMALTZ
 70
     0
  9
$DIMALTTZ
 70
     0
  9
$DIMUPT
 70
     0
  9
$DIMDEC
 70
     2
  9
$DIMTDEC
 70
     2
  9
$DIMALTU
 70
     2
  9
$DIMALTTD
 70
     2
  9
$DIMTXSTY
  7
Standard
  9
$DIMAUNIT
 70
     0
  9
$DIMADEC
 70
     2
  9
$DIMALTRND
 40
0.0
  9
$DIMAZIN
 70
     0
  9
$DIMDSEP
 70
    46
  9
$DIMATFIT
 70
     3
  9
$DIMFRAC
 70
     0
  9
$DIMLDRBLK
  1

  9
$DIMLUNIT
 70
     2
  9
$DIMLWD
 70
    -2
  9
$DIMLWE
 70
    -2
  9
$DIMTMOVE
 70
     0
  9
$LUNITS
 70
     2
  9
$LUPREC
 70
     2
  9
$SKETCHINC
 40
0.1
  9
$FILLETRAD
 40
0.0
  9
$AUNITS
 70
     0
  9
$AUPREC
 70
     2
  9
$MENU
  1
.
  9
$ELEVATION
 40
0.0
  9
$PELEVATION
 40
0.0
  9
$THICKNESS
 40
0.0
  9
$LIMCHECK
 70
     0
  9
$CHAMFERA
 40
0.0
  9
$CHAMFERB
 40
0.0
  9
$CHAMFERC
 40
0.0
  9
$CHAMFERD
 40
0.0
  9
$SKPOLY
 70
     0
  9
$TDCREATE
 40
2460714.817175463
  9
$TDUCREATE
 40
2460715.067175463
  9
$TDUPDATE
 40
2460714.817203854
  9
$TDUUPDATE
 40
2460715.067203854
  9
$TDINDWG
 40
0.0000000116
  9
$TDUSRTIMER
 40
0.0000000116
  9
$USRTIMER
 70
     1
  9
$ANGBASE
 50
0.0
  9
$ANGDIR
 70
     0
  9
$PDMODE
 70
     0
  9
$PDSIZE
 40
-1.0
  9
$PLINEWID
 40
0.0
  9
$SPLFRAME
 70
     0
  9
$SPLINETYPE
 70
     6
  9
$SPLINESEGS
 70
     8
  9
$HANDSEED
  5
6D
  9
$SURFTAB1
 70
     6
  9
$SURFTAB2
 70
     6
  9
$SURFTYPE
 70
     6
  9
$SURFU
 70
     6
  9
$SURFV
 70
     6
  9
$UCSBASE
  2

  9
$UCSNAME
  2

  9
$UCSORG
 10
0.0
 20
0.0
 30
0.0
  9
$UCSXDIR
 10
1.0
 20
0.0
 30
0.0
  9
$UCSYDIR
 10
0.0
 20
1.0
 30
0.0
  9
$UCSORTHOREF
  2

  9
$UCSORTHOVIEW
 70
     0
  9
$UCSORGTOP
 10
0.0
 20
0.0
 30
0.0
  9
$UCSORGBOTTOM
 10
0.0
 20
0.0
 30
0.0
  9
$UCSORGLEFT
 10
0.0
 20
0.0
 30
0.0
  9
$UCSORGRIGHT
 10
0.0
 20
0.0
 30
0.0
  9
$UCSORGFRONT
 10
0.0
 20
0.0
 30
0.0
  9
$UCSORGBACK
 10
0.0
 20
0.0
 30
0.0
  9
$PUCSBASE
  2

  9
$PUCSNAME
  2

  9
$PUCSORG
 10
0.0
 20
0.0
 30
0.0
  9
$PUCSXDIR
 10
1.0
 20
0.0
 30
0.0
  9
$PUCSYDIR
 10
0.0
 20
1.0
 30
0.0
  9
$PUCSORTHOREF
  2

  9
$PUCSORTHOVIEW
 70
     0
  9
$PUCSORGTOP
 10
0.0
 20
0.0
 30
0.0
  9
$PUCSORGBOTTOM
 10
0.0
 20
0.0
 30
0.0
  9
$PUCSORGLEFT
 10
0.0
 20
0.0
 30
0.0
  9
$PUCSORGRIGHT
 10
0.0
 20
0.0
 30
0.0
  9
$PUCSORGFRONT
 10
0.0
 20
0.0
 30
0.0
  9
$PUCSORGBACK
 10
0.0
 20
0.0
 30
0.0
  9
$USERI1
 70
     0
  9
$USERI2
 70
     0
  9
$USERI3
 70
     0
  9
$USERI4
 70
     0
  9
$USERI5
 70
     0
  9
$USERR1
 40
0.0
  9
$USERR2
 40
0.0
  9
$USERR3
 40
0.0
  9
$USERR4
 40
0.0
  9
$USERR5
 40
0.0
  9
$WORLDVIEW
 70
     1
  9
$SHADEDGE
 70
     3
  9
$SHADEDIF
 70
    70
  9
$TILEMODE
 70
     1
  9
$MAXACTVP
 70
    64
  9
$PINSBASE
 10
0.0
 20
0.0
 30
0.0
  9
$PLIMCHECK
 70
     0
  9
$PEXTMIN
 10
1.0000000000E+20
 20
1.0000000000E+20
 30
1.0000000000E+20
  9
$PEXTMAX
 10
-1.0000000000E+20
 20
-1.0000000000E+20
 30
-1.0000000000E+20
  9
$PLIMMIN
 10
0.0
 20
0.0
  9
$PLIMMAX
 10
12.0
 20
9.0
  9
$UNITMODE
 70
     0
  9
$VISRETAIN
 70
     1
  9
$PLINEGEN
 70
     0
  9
$PSLTSCALE
 70
     1
  9
$TREEDEPTH
 70
  3020
  9
$CMLSTYLE
  2
Standard
  9
$CMLJUST
 70
     0
  9
$CMLSCALE
 40
1.0
  9
$PROXYGRAPHICS
 70
     1
  9
$MEASUREMENT
 70
     0
  9
$CELWEIGHT
370
    -1
  9
$ENDCAPS
280
     0
  9
$JOINSTYLE
280
     0
  9
$LWDISPLAY
290
     1
  9
$INSUNITS
 70
     1
  9
$HYPERLINKBASE
  1

  9
$STYLESHEET
  1

  9
$XEDIT
290
     1
  9
$CEPSNTYPE
380
     0
  9
$PSTYLEMODE
290
     1
  9
$FINGERPRINTGUID
  2
{7bf6723a-abc2-4b25-acd4-6a6bdb37cb65}
  9
$VERSIONGUID
  2
{FAEB1C32-E019-11D5-929B-00C0DF256EC4}
  9
$EXTNAMES
290
     1
  9
$PSVPSCALE
 40
0.0
  9
$OLESTARTUP
290
     0
  0
ENDSEC
  0
SECTION
  2
CLASSES
  0
CLASS
  1
ACDBDICTIONARYWDFLT
  2
AcDbDictionaryWithDefault
  3
ObjectDBX Classes
 90
        0
280
     0
281
     0
  0
CLASS
  1
VISUALSTYLE
  2
AcDbVisualStyle
  3
ObjectDBX Classes
 90
     4095
280
     0
281
     0
  0
CLASS
  1
MATERIAL
  2
AcDbMaterial
  3
ObjectDBX Classes
 90
     1153
280
     0
281
     0
  0
CLASS
  1
SCALE
  2
AcDbScale
  3
ObjectDBX Classes
 90
     1153
280
     0
281
     0
  0
CLASS
  1
TABLESTYLE
  2
AcDbTableStyle
  3
ObjectDBX Classes
 90
     4095
280
     0
281
     0
  0
CLASS
  1
MLEADERSTYLE
  2
AcDbMLeaderStyle
  3
ACDB_MLEADERSTYLE_CLASS
 90
     4095
280
     0
281
     0
  0
CLASS
  1
SUN
  2
AcDbSun
  3
SCENEOE
 90
     1153
280
     0
281
     0
  0
CLASS
  1
ACDBPLACEHOLDER
  2
AcDbPlaceHolder
  3
ObjectDBX Classes
 90
        0
280
     0
281
     0
  0
CLASS
  1
LAYOUT
  2
AcDbLayout
  3
ObjectDBX Classes
 90
        0
280
     0
281
     0
  0
ENDSEC
  0
SECTION
  2
TABLES
  0
TABLE
  2
VPORT
  5
8
330
0
100
AcDbSymbolTable
 70
     1
  0
VPORT
  5
29
330
8
100
AcDbSymbolTableRecord
100
AcDbViewportTableRecord
  2
*Active
 70
     0
 10
0.0
 20
0.0
 11
1.0
 21
1.0
 12
5.9284837031
 22
13.0143869663
 13
0.0
 23
0.0
 14
0.5
 24
0.5
 15
0.5
 25
0.5
 16
0.0
 26
0.0
 36
1.0
 17
0.0
 27
0.0
 37
0.0
 40
28.9346443593
 41
1.2592388368
 42
50.0
 43
0.0
 44
0.0
 50
0.0
 51
0.0
 71
     0
 72
   100
 73
     1
 74
     3
 75
     0
 76
     0
 77
     0
 78
     0
281
     0
 65
     1
110
0.0
120
0.0
130
0.0
111
1.0
121
0.0
131
0.0
112
0.0
122
1.0
132
0.0
 79
     0
146
0.0
  0
ENDTAB
  0
TABLE
  2
LTYPE
  5
5
330
0
100
AcDbSymbolTable
 70
     6
  0
LTYPE
  5
14
330
5
100
AcDbSymbolTableRecord
100
AcDbLinetypeTableRecord
  2
ByBlock
 70
     0
  3

 72
    65
 73
     0
 40
0.0
  0
LTYPE
  5
15
330
5
100
AcDbSymbolTableRecord
100
AcDbLinetypeTableRecord
  2
ByLayer
 70
     0
  3

 72
    65
 73
     0
 40
0.0
  0
LTYPE
  5
16
330
5
100
AcDbSymbolTableRecord
100
AcDbLinetypeTableRecord
  2
Continuous
 70
     0
  3
Solid line
 72
    65
 73
     0
 40
0.0
  0
LTYPE
  5
5E
330
5
100
AcDbSymbolTableRecord
100
AcDbLinetypeTableRecord
  2
HIDDEN
 70
     0
  3
Hidden __ __ __ __ __ __ __ __ __ __ __ __ __ __
 72
    65
 73
     2
 40
0.075
 49
0.05
 74
     0
 49
-0.025
 74
     0
  0
LTYPE
  5
5F
330
5
100
AcDbSymbolTableRecord
100
AcDbLinetypeTableRecord
  2
PHANTOM
 70
     0
  3
Phantom ______  __  __  ______  __  __  ______
 72
    65
 73
     6
 40
0.5
 49
0.25
 74
     0
 49
-0.05
 74
     0
 49
0.05
 74
     0
 49
-0.05
 74
     0
 49
0.05
 74
     0
 49
-0.05
 74
     0
  0
LTYPE
  5
60
330
5
100
AcDbSymbolTableRecord
100
AcDbLinetypeTableRecord
  2
CENTER
 70
     0
  3
Center ____ _ ____ _ ____ _ ____ _ ____ _ ____
 72
    65
 73
     4
 40
0.4
 49
0.25
 74
     0
 49
-0.05
 74
     0
 49
0.05
 74
     0
 49
-0.05
 74
     0
  0
LTYPE
  5
61
330
5
100
AcDbSymbolTableRecord
100
AcDbLinetypeTableRecord
  2
CENTERX2
 70
     0
  3
Center (2x) ________  __  ________  __  _____
 72
    65
 73
     4
 40
0.8
 49
0.5
 74
     0
 49
-0.1
 74
     0
 49
0.1
 74
     0
 49
-0.1
 74
     0
  0
LTYPE
  5
62
330
5
100
AcDbSymbolTableRecord
100
AcDbLinetypeTableRecord
  2
DOT2
 70
     0
  3
Dot (.5x) ........................................
 72
    65
 73
     2
 40
0.025
 49
0.0
 74
     0
 49
-0.025
 74
     0
  0
ENDTAB
  0
TABLE
  2
LAYER
  5
2
330
0
100
AcDbSymbolTable
 70
     1
  0
LAYER
  5
10
330
2
100
AcDbSymbolTableRecord
100
AcDbLayerTableRecord
  2
0
 70
     0
 62
     7
  6
Continuous
370
    -3
390
F
  0
ENDTAB
  0
TABLE
  2
STYLE
  5
3
330
0
100
AcDbSymbolTable
 70
     2
  0
STYLE
  5
11
330
3
100
AcDbSymbolTableRecord
100
AcDbTextStyleTableRecord
  2
Standard
 70
     0
 40
0.0
 41
1.0
 50
0.0
 71
     0
 42
0.125
  3
txt
  4

  0
STYLE
  5
69
330
3
100
AcDbSymbolTableRecord
100
AcDbTextStyleTableRecord
  2
SLDTEXTSTYLE0
 70
     0
 40
0.0
 41
0.7
 50
0.0
 71
     0
 42
0.125
  3
TXT
  4

  0
ENDTAB
  0
TABLE
  2
VIEW
  5
6
330
0
100
AcDbSymbolTable
 70
     0
  0
ENDTAB
  0
TABLE
  2
UCS
  5
7
330
0
100
AcDbSymbolTable
 70
     0
  0
ENDTAB
  0
TABLE
  2
APPID
  5
9
330
0
100
AcDbSymbolTable
 70
     1
  0
APPID
  5
12
330
9
100
AcDbSymbolTableRecord
100
AcDbRegAppTableRecord
  2
ACAD
 70
     0
  0
ENDTAB
  0
TABLE
  2
DIMSTYLE
  5
A
330
0
100
AcDbSymbolTable
 70
     1
100
AcDbDimStyleTable
  0
DIMSTYLE
105
27
330
A
100
AcDbSymbolTableRecord
100
AcDbDimStyleTableRecord
  2
Standard
 70
     0
178
     0
340
11
  0
ENDTAB
  0
TABLE
  2
BLOCK_RECORD
  5
1
330
0
100
AcDbSymbolTable
 70
     1
  0
BLOCK_RECORD
  5
1F
330
1
100
AcDbSymbolTableRecord
100
AcDbBlockTableRecord
  2
*Model_Space
340
22
  0
BLOCK_RECORD
  5
1B
330
1
100
AcDbSymbolTableRecord
100
AcDbBlockTableRecord
  2
*Paper_Space
340
1E
  0
BLOCK_RECORD
  5
23
330
1
100
AcDbSymbolTableRecord
100
AcDbBlockTableRecord
  2
*Paper_Space0
340
26
  0
ENDTAB
  0
ENDSEC
  0
SECTION
  2
BLOCKS
  0
BLOCK
  5
20
330
1F
100
AcDbEntity
  8
0
100
AcDbBlockBegin
  2
*Model_Space
 70
     0
 10
0.0
 20
0.0
 30
0.0
  3
*Model_Space
  1

  0
ENDBLK
  5
21
330
1F
100
AcDbEntity
  8
0
100
AcDbBlockEnd
  0
BLOCK
  5
1C
330
1B
100
AcDbEntity
 67
     1
  8
0
100
AcDbBlockBegin
  2
*Paper_Space
 70
     0
 10
0.0
 20
0.0
 30
0.0
  3
*Paper_Space
  1

  0
ENDBLK
  5
1D
330
1B
100
AcDbEntity
 67
     1
  8
0
100
AcDbBlockEnd
  0
BLOCK
  5
24
330
23
100
AcDbEntity
  8
0
100
AcDbBlockBegin
  2
*Paper_Space0
 70
     0
 10
0.0
 20
0.0
 30
0.0
  3
*Paper_Space0
  1

  0
ENDBLK
  5
25
330
23
100
AcDbEntity
  8
0
100
AcDbBlockEnd
  0
ENDSEC
  0
SECTION
  2
ENTITIES
  0
SPLINE
  5
63
330
1F
100
AcDbEntity
  8
0
  6
Continuous
 62
     7
370
    25
100
AcDbSpline
210
0.0
220
0.0
230
1.0
 70
     8
 71
     3
 72
    26
 73
    22
 74
     0
 42
0.00000001
 43
0.00000001
 40
0.0
 40
0.0
 40
0.0
 40
0.0
 40
0.0312499999999999
 40
0.0312499999999999
 40
0.0624999999999999
 40
0.0624999999999999
 40
0.1249999999999999
 40
0.1249999999999999
 40
0.2500000000000001
 40
0.2500000000000001
 40
0.5
 40
0.5
 40
0.75
 40
0.75
 40
0.875
 40
0.875
 40
0.9375
 40
0.9375
 40
0.96875
 40
0.96875
 40
1.0
 40
1.0
 40
1.0
 40
1.0
 10
-11.93211820283941
 20
10.84204675978856
 30
0.0
 10
-11.83411241474722
 20
10.63048300545555
 30
0.0
 10
-11.78382340890867
 20
10.52534771726624
 30
0.0
 10
-11.63034286766316
 20
10.2109744678959
 30
0.0
 10
-11.55194532168907
 20
10.05471640452763
 30
0.0
 10
-11.31159280179587
 20
9.588363015518178
 30
0.0
 10
-11.14424269404432
 20
9.280331430798736
 30
0.0
 10
-10.62460618138365
 20
8.37142381432768
 30
0.0
 10
-10.24814104738337
 20
7.774940901652958
 30
0.0
 10
-9.059815591656308
 20
6.058902894049411
 30
0.0
 10
-8.1504689890804
 20
4.961254397135644
 30
0.0
 10
-6.222227190974104
 20
2.973635754499291
 30
0.0
 10
-5.153487972225446
 20
2.031918187928093
 30
0.0
 10
-3.496917702241926
 20
0.7620368941942987
 30
0.0
 10
-2.912499052460438
 20
0.3452010876397629
 30
0.0
 10
-2.059673961075013
 20
-0.2283611913878272
 30
0.0
 10
-1.753512565168788
 20
-0.4281941667274449
 30
0.0
 10
-1.3223119437394
 20
-0.7034891331357831
 30
0.0
 10
-1.165520417156954
 20
-0.8025049830865062
 30
0.0
 10
-0.8797056590812307
 20
-0.9816029088901858
 30
0.0
 10
-0.7754775750357231
 20
-1.046548082870405
 30
0.0
 10
-0.5772215801439445
 20
-1.169262229416948
 30
0.0
  0
SPLINE
  5
64
330
1F
100
AcDbEntity
  8
0
  6
Continuous
 62
     7
370
    25
100
AcDbSpline
210
0.0
220
0.0
230
1.0
 70
     8
 71
     3
 72
    34
 73
    30
 74
     0
 42
0.00000001
 43
0.00000001
 40
0.0
 40
0.0
 40
0.0
 40
0.0
 40
0.015625
 40
0.015625
 40
0.03125
 40
0.03125
 40
0.0625000000000001
 40
0.0625000000000001
 40
0.1250000000000001
 40
0.1250000000000001
 40
0.2500000000000001
 40
0.2500000000000001
 40
0.3125000000000002
 40
0.3125000000000002
 40
0.3750000000000002
 40
0.3750000000000002
 40
0.4375000000000003
 40
0.4375000000000003
 40
0.5000000000000003
 40
0.5000000000000003
 40
0.7500000000000002
 40
0.7500000000000002
 40
0.8750000000000003
 40
0.8750000000000003
 40
0.9375000000000002
 40
0.9375000000000002
 40
0.9687500000000001
 40
0.9687500000000001
 40
1.0
 40
1.0
 40
1.0
 40
1.0
 10
-0.5772215801439486
 20
-1.169262229416951
 30
0.0
 10
-0.4050774013489237
 20
-1.162638123444413
 30
0.0
 10
-0.3281269679263923
 20
-1.159257797678505
 30
0.0
 10
-0.0517655862693703
 20
-1.147049431749899
 30
0.0
 10
0.0864593136529546
 20
-1.140723924921155
 30
0.0
 10
0.4189139630903411
 20
-1.126068666215204
 30
0.0
 10
0.6699267876028876
 20
-1.10759851272066
 30
0.0
 10
1.570394131526623
 20
-1.01563945375694
 30
0.0
 10
1.98498990006297
 20
-0.9681371854422057
 30
0.0
 10
3.548942955846574
 20
-0.677421706932824
 30
0.0
 10
4.434001655600568
 20
-0.4973398157877228
 30
0.0
 10
6.110227182190098
 20
-0.1805487259711249
 30
0.0
 10
6.601091027492628
 20
-0.0879780664665128
 30
0.0
 10
7.548856250675971
 20
0.0913863844259428
 30
0.0
 10
8.119825746281013
 20
0.199805414555466
 30
0.0
 10
9.076440080675058
 20
0.3827721892028683
 30
0.0
 10
9.636335716280986
 20
0.4906568869011997
 30
0.0
 10
10.60461709001174
 20
0.6796000060323426
 30
0.0
 10
11.11974842419776
 20
0.7831333656274342
 30
0.0
 10
13.7341611495276
 20
1.266940130623379
 30
0.0
 10
15.64816333928129
 20
1.554878441779119
 30
0.0
 10
18.78206748840488
 20
2.255858290767793
 30
0.0
 10
19.78055029588869
 20
2.491818596873336
 30
0.0
 10
21.25001978063992
 20
2.824850527220648
 30
0.0
 10
21.75994382816998
 20
2.938524092596826
 30
0.0
 10
22.53033711573492
 20
3.107193518792922
 30
0.0
 10
22.76923787975068
 20
3.159075137609925
 30
0.0
 10
23.29293687025682
 20
3.27204080596915
 30
0.0
 10
23.45211971163417
 20
3.306200343671938
 30
0.0
 10
23.78908561723418
 20
3.378060049592899
 30
0.0
  0
SPLINE
  5
65
330
1F
100
AcDbEntity
  8
0
  6
Continuous
 62
     7
370
    25
100
AcDbSpline
210
0.0
220
0.0
230
1.0
 70
     8
 71
     3
 72
    10
 73
     6
 74
     0
 42
0.00000001
 43
0.00000001
 40
0.0
 40
0.0
 40
0.0
 40
0.0
 40
0.5
 40
0.5
 40
1.0
 40
1.0
 40
1.0
 40
1.0
 10
23.78908561439287
 20
3.378060069114656
 30
0.0
 10
23.73854478548447
 20
3.725310801932451
 30
0.0
 10
23.71838890251135
 20
3.863762303540978
 30
0.0
 10
23.6439449419862
 20
4.376454684371907
 30
0.0
 10
23.61714825403791
 20
4.561375571011431
 30
0.0
 10
23.57369637623818
 20
4.862221945516022
 30
0.0
  0
SPLINE
  5
66
330
1F
100
AcDbEntity
  8
0
  6
Continuous
 62
     7
370
    25
100
AcDbSpline
210
0.0
220
0.0
230
1.0
 70
     8
 71
     3
 72
    70
 73
    66
 74
     0
 42
0.00000001
 43
0.00000001
 40
0.0
 40
0.0
 40
0.0
 40
0.0
 40
0.0312499999999997
 40
0.0312499999999997
 40
0.0624999999999992
 40
0.0624999999999992
 40
0.0937499999999989
 40
0.0937499999999989
 40
0.1249999999999986
 40
0.1249999999999986
 40
0.1562499999999981
 40
0.1562499999999981
 40
0.1874999999999978
 40
0.1874999999999978
 40
0.249999999999997
 40
0.249999999999997
 40
0.2812499999999964
 40
0.2812499999999964
 40
0.312499999999996
 40
0.312499999999996
 40
0.328124999999996
 40
0.328124999999996
 40
0.343749999999996
 40
0.343749999999996
 40
0.3593749999999959
 40
0.3593749999999959
 40
0.3749999999999959
 40
0.3749999999999959
 40
0.3906249999999959
 40
0.3906249999999959
 40
0.4062499999999959
 40
0.4062499999999959
 40
0.4374999999999962
 40
0.4374999999999962
 40
0.4687499999999964
 40
0.4687499999999964
 40
0.4999999999999968
 40
0.4999999999999968
 40
0.5624999999999976
 40
0.5624999999999976
 40
0.5937499999999979
 40
0.5937499999999979
 40
0.6249999999999983
 40
0.6249999999999983
 40
0.6562499999999987
 40
0.6562499999999987
 40
0.6874999999999991
 40
0.6874999999999991
 40
0.7187499999999996
 40
0.7187499999999996
 40
0.7343749999999998
 40
0.7343749999999998
 40
0.75
 40
0.75
 40
0.7812500000000002
 40
0.7812500000000002
 40
0.8125000000000002
 40
0.8125000000000002
 40
0.8437500000000002
 40
0.8437500000000002
 40
0.8750000000000001
 40
0.8750000000000001
 40
0.9375000000000001
 40
0.9375000000000001
 40
1.0
 40
1.0
 40
1.0
 40
1.0
 10
23.57369637623818
 20
4.862221945516014
 30
0.0
 10
23.53444797955382
 20
5.134101732806202
 30
0.0
 10
23.5119612253823
 20
5.290325482510674
 30
0.0
 10
23.44866461790026
 20
5.730902362554446
 30
0.0
 10
23.42036660510189
 20
5.928318000722796
 30
0.0
 10
23.35432159116033
 20
6.389812972192773
 30
0.0
 10
23.32967082266439
 20
6.562330002657157
 30
0.0
 10
23.25963479058603
 20
7.052783567679874
 30
0.0
 10
23.2513113032302
 20
7.111142898841408
 30
0.0
 10
23.15285432736119
 20
7.800987926296544
 30
0.0
 10
23.13339065436098
 20
7.937298451826645
 30
0.0
 10
23.08560704133749
 20
8.271845637516162
 30
0.0
 10
23.04623318923059
 20
8.547361511332271
 30
0.0
 10
22.95796113124154
 20
9.164467703482693
 30
0.0
 10
22.89795456134194
 20
9.583290568083848
 30
0.0
 10
22.7975333879648
 20
10.28333392959962
 30
0.0
 10
22.77715567258241
 20
10.42531827504956
 30
0.0
 10
22.69876075509169
 20
10.97153418252374
 30
0.0
 10
22.66247166274654
 20
11.2243943408115
 30
0.0
 10
22.63611252634742
 20
11.40810006161917
 30
0.0
 10
22.61366087295573
 20
11.5645911933383
 30
0.0
 10
22.5826569854687
 20
11.78073966947716
 30
0.0
 10
22.56723308995997
 20
11.88828794226344
 30
0.0
 10
22.5365413954121
 20
12.10233255726966
 30
0.0
 10
22.52397064453639
 20
12.19001419046548
 30
0.0
 10
22.48683399506682
 20
12.44905773443891
 30
0.0
 10
22.46651854882242
 20
12.59076208225693
 30
0.0
 10
22.45131988407991
 20
12.69676178975673
 30
0.0
 10
22.42524028687683
 20
12.87861059822311
 30
0.0
 10
22.39958907865974
 20
13.05735907435151
 30
0.0
 10
22.37952129487005
 20
13.19710614218753
 30
0.0
 10
22.33850189350056
 20
13.48238423136111
 30
0.0
 10
22.29475573799713
 20
13.78541572007823
 30
0.0
 10
22.24969983297789
 20
14.0956974850154
 30
0.0
 10
22.2112398497025
 20
14.368591900782
 30
0.0
 10
22.16105706072015
 20
14.81125368470133
 30
0.0
 10
22.14158405854936
 20
15.01606982506619
 30
0.0
 10
22.08723279142708
 20
15.69377182588803
 30
0.0
 10
22.06941161160479
 20
16.04516788240956
 30
0.0
 10
22.02068158514381
 20
16.80130722876197
 30
0.0
 10
22.01293457442253
 20
16.92089649708718
 30
0.0
 10
21.98468870306614
 20
17.3567035465556
 30
0.0
 10
21.96914726122745
 20
17.5959975154095
 30
0.0
 10
21.93522736522911
 20
18.11736634135669
 30
0.0
 10
21.9270795773376
 20
18.24239160464947
 30
0.0
 10
21.89867203259863
 20
18.67818815111608
 30
0.0
 10
21.88336832394637
 20
18.91278204774945
 30
0.0
 10
21.85056103407635
 20
19.41536108781636
 30
0.0
 10
21.84039921494841
 20
19.57094498251464
 30
0.0
 10
21.81621484225623
 20
19.94116954997662
 30
0.0
 10
21.81615962780515
 20
19.9420081434246
 30
0.0
 10
21.80192414202091
 20
20.15990434751445
 30
0.0
 10
21.79276679453911
 20
20.30006892338866
 30
0.0
 10
21.75917593832462
 20
20.81421207249922
 30
0.0
 10
21.74740367837314
 20
20.99444807498122
 30
0.0
 10
21.71894458707085
 20
21.43024125903342
 30
0.0
 10
21.7066173990171
 20
21.61906954511392
 30
0.0
 10
21.68576773810438
 20
21.93858950538366
 30
0.0
 10
21.6661326475611
 20
22.23964389704615
 30
0.0
 10
21.63773408400173
 20
22.67544102904289
 30
0.0
 10
21.62408858803547
 20
22.8850005151077
 30
0.0
 10
21.58481345757689
 20
23.48866173350146
 30
0.0
 10
21.55409034114557
 20
23.96168750904573
 30
0.0
 10
21.49809516613596
 20
24.82557505727902
 30
0.0
 10
21.47195964471489
 20
25.2295454035399
 30
0.0
 10
21.44149485936536
 20
25.70106149665268
 30
0.0
  0
SPLINE
  5
67
330
1F
100
AcDbEntity
  8
0
  6
Continuous
 62
     7
370
    25
100
AcDbSpline
210
0.0
220
0.0
230
1.0
 70
     8
 71
     3
 72
    12
 73
     8
 74
     0
 42
0.00000001
 43
0.00000001
 40
0.0
 40
0.0
 40
0.0
 40
0.0
 40
0.5000000000000041
 40
0.5000000000000041
 40
0.750000000000002
 40
0.750000000000002
 40
1.0
 40
1.0
 40
1.0
 40
1.0
 10
21.44149485936536
 20
25.70106149665268
 30
0.0
 10
21.42622270685208
 20
25.93746364235963
 30
0.0
 10
21.41011376189667
 20
26.18695902491464
 30
0.0
 10
21.38469515580045
 20
26.58084195401924
 30
0.0
 10
21.38107969358041
 20
26.63688262569654
 30
0.0
 10
21.36498298862735
 20
26.88637879828719
 30
0.0
 10
21.35559851147273
 20
27.03184728165314
 30
0.0
 10
21.34487790964002
 20
27.19803616208969
 30
0.0
  0
SPLINE
  5
68
330
1F
100
AcDbEntity
  8
0
  6
Continuous
 62
     7
370
    25
100
AcDbSpline
210
0.0
220
0.0
230
1.0
 70
     8
 71
     3
 72
    76
 73
    72
 74
     0
 42
0.00000001
 43
0.00000001
 40
0.0
 40
0.0
 40
0.0
 40
0.0
 40
0.0156249999999994
 40
0.0156249999999994
 40
0.031249999999999
 40
0.031249999999999
 40
0.0624999999999983
 40
0.0624999999999983
 40
0.1249999999999977
 40
0.1249999999999977
 40
0.1406249999999976
 40
0.1406249999999976
 40
0.1562499999999974
 40
0.1562499999999974
 40
0.1718749999999973
 40
0.1718749999999973
 40
0.1874999999999973
 40
0.1874999999999973
 40
0.2031249999999972
 40
0.2031249999999972
 40
0.2187499999999971
 40
0.2187499999999971
 40
0.2499999999999972
 40
0.2499999999999972
 40
0.2812499999999973
 40
0.2812499999999973
 40
0.3124999999999973
 40
0.3124999999999973
 40
0.3749999999999976
 40
0.3749999999999976
 40
0.3906249999999976
 40
0.3906249999999976
 40
0.4062499999999976
 40
0.4062499999999976
 40
0.4374999999999978
 40
0.4374999999999978
 40
0.4687499999999979
 40
0.4687499999999979
 40
0.4843749999999981
 40
0.4843749999999981
 40
0.4999999999999982
 40
0.4999999999999982
 40
0.5156249999999983
 40
0.5156249999999983
 40
0.5312499999999984
 40
0.5312499999999984
 40
0.5624999999999987
 40
0.5624999999999987
 40
0.624999999999999
 40
0.624999999999999
 40
0.7499999999999996
 40
0.7499999999999996
 40
0.8124999999999998
 40
0.8124999999999998
 40
0.8281249999999998
 40
0.8281249999999998
 40
0.8437499999999999
 40
0.8437499999999999
 40
0.875
 40
0.875
 40
0.890625
 40
0.890625
 40
0.9062500000000001
 40
0.9062500000000001
 40
0.9375000000000001
 40
0.9375000000000001
 40
0.9687500000000001
 40
0.9687500000000001
 40
0.9843750000000001
 40
0.9843750000000001
 40
1.0
 40
1.0
 40
1.0
 40
1.0
 10
21.3448778905066
 20
27.19803615289344
 30
0.0
 10
21.12044537022265
 20
27.09016543063868
 30
0.0
 10
20.99254038926571
 20
27.02859686434125
 30
0.0
 10
20.65305963333484
 20
26.86504666678001
 30
0.0
 10
20.4694649373222
 20
26.77649524887782
 30
0.0
 10
19.96391725452623
 20
26.53241848411134
 30
0.0
 10
19.58699619095364
 20
26.35008287052576
 30
0.0
 10
18.59945513936243
 20
25.87159844074202
 30
0.0
 10
17.78591245004044
 20
25.47614600914731
 30
0.0
 10
17.02018015359057
 20
25.10324595216371
 30
0.0
 10
16.80060863117243
 20
24.99627870711892
 30
0.0
 10
16.5043253088223
 20
24.85191192087774
 30
0.0
 10
16.34132233674657
 20
24.77247631795521
 30
0.0
 10
15.92197075651687
 20
24.56809199388432
 30
0.0
 10
15.73033381605147
 20
24.47468511380606
 30
0.0
 10
15.38313763441956
 20
24.30544191756387
 30
0.0
 10
15.26887563556116
 20
24.24974096297188
 30
0.0
 10
14.91124036218967
 20
24.07536816862508
 30
0.0
 10
14.68863892418734
 20
23.96679770329018
 30
0.0
 10
14.44998982843455
 20
23.85037409067951
 30
0.0
 10
14.28717895432919
 20
23.77093625291474
 30
0.0
 10
13.5714857321818
 20
23.42170975443936
 30
0.0
 10
13.41654868133431
 20
23.34618367306772
 30
0.0
 10
12.59787954702927
 20
22.9466405263322
 30
0.0
 10
12.29644889255186
 20
22.79870307124002
 30
0.0
 10
11.63732314324326
 20
22.47351118100144
 30
0.0
 10
11.26103701419635
 20
22.28704152609453
 30
0.0
 10
10.2635947529559
 20
21.7911578094919
 30
0.0
 10
9.439810630477526
 20
21.37899936653992
 30
0.0
 10
8.708383411938451
 20
21.01456033808989
 30
0.0
 10
8.547742342666101
 20
20.93458768614335
 30
0.0
 10
8.124288808096432
 20
20.72388712882624
 30
0.0
 10
8.029085768486915
 20
20.67651366113568
 30
0.0
 10
7.393262506596984
 20
20.36136586949189
 30
0.0
 10
7.141390884774411
 20
20.23685532243936
 30
0.0
 10
6.416317527162365
 20
19.87719303629648
 30
0.0
 10
6.078480286472717
 20
19.70928157388546
 30
0.0
 10
5.572478926052408
 20
19.45747469280157
 30
0.0
 10
5.369353006018135
 20
19.35632544403297
 30
0.0
 10
5.07567839570442
 20
19.20998162188425
 30
0.0
 10
4.810174266853622
 20
19.07761630665197
 30
0.0
 10
4.597830252740452
 20
18.97170790229837
 30
0.0
 10
4.399028852320916
 20
18.87250753944857
 30
0.0
 10
3.972137376427741
 20
18.65945565057607
 30
0.0
 10
3.895714947446331
 20
18.62129609983889
 30
0.0
 10
3.210280550289033
 20
18.27887329663598
 30
0.0
 10
3.002348357098156
 20
18.17494427114886
 30
0.0
 10
1.88781576018204
 20
17.61685793139616
 30
0.0
 10
1.252095655592988
 20
17.29722426657346
 30
0.0
 10
-0.8232630909899255
 20
16.2492816547416
 30
0.0
 10
-2.219836738379947
 20
15.55525724509757
 30
0.0
 10
-4.27526065492791
 20
14.5494867205112
 30
0.0
 10
-5.000253984102454
 20
14.19673637926233
 30
0.0
 10
-5.842219769960813
 20
13.78878559427971
 30
0.0
 10
-6.039082240637983
 20
13.69352758336753
 30
0.0
 10
-6.351598294203904
 20
13.54245665686328
 30
0.0
 10
-6.577864362765217
 20
13.43319455454787
 30
0.0
 10
-6.995428689787998
 20
13.23166834796364
 30
0.0
 10
-7.440502951106313
 20
13.0170234214919
 30
0.0
 10
-7.920800586567353
 20
12.78529567498957
 30
0.0
 10
-8.093613459880126
 20
12.70190173458581
 30
0.0
 10
-8.471379049965359
 20
12.51957130613444
 30
0.0
 10
-8.606959138228763
 20
12.45412511957156
 30
0.0
 10
-9.198849112417763
 20
12.16833446080414
 30
0.0
 10
-9.468342914314901
 20
12.03819088212401
 30
0.0
 10
-10.22673911349374
 20
11.67106431868327
 30
0.0
 10
-10.58313711008399
 20
11.49740421566319
 30
0.0
 10
-11.04315562756019
 20
11.27376276552678
 30
0.0
 10
-11.17106525540017
 20
11.21165541596543
 30
0.0
 10
-11.6508760788301
 20
10.97871569036637
 30
0.0
 10
-11.70935137752401
 20
10.95034163067825
 30
0.0
 10
-11.93211821111515
 20
10.84204677765328
 30
0.0
  0
MTEXT
  5
6A
330
1F
100
AcDbEntity
  8
0
  6
Continuous
 62
     7
100
AcDbMText
 10
-11.9321182111
 20
-1.2094026385
 30
0.0
 40
0.1903
 41
0.0
 71
     1
 72
     1
  1
SOLIDWORKS Educational Product.
  7
SLDTEXTSTYLE0
 73
     1
 44
1.0
  0
MTEXT
  5
6B
330
1F
100
AcDbEntity
  8
0
  6
Continuous
 62
     7
100
AcDbMText
 10
-11.9321182111
 20
-1.4948526385
 30
0.0
 40
0.1903
 41
0.0
 71
     1
 72
     1
  1
For Instructional Use Only.
  7
SLDTEXTSTYLE0
 73
     1
 44
1.0
  0
ENDSEC
  0
SECTION
  2
OBJECTS
  0
DICTIONARY
  5
C
330
0
100
AcDbDictionary
281
     1
  3
ACAD_GROUP
350
D
  3
ACAD_LAYOUT
350
1A
  3
ACAD_MLINESTYLE
350
17
  3
ACAD_PLOTSETTINGS
350
19
  3
ACAD_PLOTSTYLENAME
350
E
  3
ACAD_SCALELIST
350
47
  3
DWGPROPS
350
6C
  0
DICTIONARY
  5
D
102
{ACAD_REACTORS
330
C
102
}
330
C
100
AcDbDictionary
281
     1
  0
DICTIONARY
  5
1A
102
{ACAD_REACTORS
330
C
102
}
330
C
100
AcDbDictionary
281
     1
  3
Layout1
350
1E
  3
Layout2
350
26
  3
Model
350
22
  0
DICTIONARY
  5
17
102
{ACAD_REACTORS
330
C
102
}
330
C
100
AcDbDictionary
281
     1
  3
Standard
350
18
  0
DICTIONARY
  5
19
102
{ACAD_REACTORS
330
C
102
}
330
C
100
AcDbDictionary
281
     1
  0
ACDBDICTIONARYWDFLT
  5
E
102
{ACAD_REACTORS
330
C
102
}
330
C
100
AcDbDictionary
281
     1
  3
Normal
350
F
100
AcDbDictionaryWithDefault
340
F
  0
DICTIONARY
  5
47
102
{ACAD_REACTORS
330
C
102
}
330
C
100
AcDbDictionary
281
     1
  3
A0
350
48
  3
A1
350
49
  3
A2
350
4A
  3
A3
350
4B
  3
A4
350
4C
  3
A5
350
4D
  3
A6
350
4E
  3
A7
350
4F
  3
A8
350
50
  3
A9
350
51
  3
B1
350
52
  3
B2
350
53
  3
B3
350
54
  3
B4
350
55
  3
B5
350
56
  3
B6
350
57
  3
B7
350
58
  0
XRECORD
  5
6C
102
{ACAD_REACTORS
330
C
102
}
330
C
100
AcDbXrecord
280
     1
  1
DWGPROPS COOKIE
  2

  3

  4

  6

  7

  8
dgale
  9

300
=
301
=
302
=
303
=
304
=
305
=
306
=
307
=
308
=
309
=
 40
0.0
 41
2460715.067175463
 42
2460715.067203854
  1

 90
        0
  0
LAYOUT
  5
1E
102
{ACAD_REACTORS
330
1A
102
}
330
1A
100
AcDbPlotSettings
  1

  2
none_device
  4

  6

 40
0.0
 41
0.0
 42
0.0
 43
0.0
 44
0.0
 45
0.0
 46
0.0
 47
0.0
 48
0.0
 49
0.0
140
0.0
141
0.0
142
1.0
143
1.0
 70
   688
 72
     0
 73
     0
 74
     5
  7

 75
    16
147
1.0
148
0.0
149
0.0
100
AcDbLayout
  1
Layout1
 70
     1
 71
     1
 10
0.0
 20
0.0
 11
12.0
 21
9.0
 12
0.0
 22
0.0
 32
0.0
 14
1.0000000000E+20
 24
1.0000000000E+20
 34
1.0000000000E+20
 15
-1.0000000000E+20
 25
-1.0000000000E+20
 35
-1.0000000000E+20
146
0.0
 13
0.0
 23
0.0
 33
0.0
 16
1.0
 26
0.0
 36
0.0
 17
0.0
 27
1.0
 37
0.0
 76
     0
330
1B
  0
LAYOUT
  5
26
102
{ACAD_REACTORS
330
1A
102
}
330
1A
100
AcDbPlotSettings
  1

  2
none_device
  4

  6

 40
0.0
 41
0.0
 42
0.0
 43
0.0
 44
0.0
 45
0.0
 46
0.0
 47
0.0
 48
0.0
 49
0.0
140
0.0
141
0.0
142
1.0
143
1.0
 70
   688
 72
     0
 73
     0
 74
     5
  7

 75
    16
147
1.0
148
0.0
149
0.0
100
AcDbLayout
  1
Layout2
 70
     1
 71
     2
 10
0.0
 20
0.0
 11
0.0
 21
0.0
 12
0.0
 22
0.0
 32
0.0
 14
0.0
 24
0.0
 34
0.0
 15
0.0
 25
0.0
 35
0.0
146
0.0
 13
0.0
 23
0.0
 33
0.0
 16
1.0
 26
0.0
 36
0.0
 17
0.0
 27
1.0
 37
0.0
 76
     0
330
23
  0
LAYOUT
  5
22
102
{ACAD_REACTORS
330
1A
102
}
330
1A
100
AcDbPlotSettings
  1

  2
none_device
  4
ANSI_A_(11.00_x_8.50_Inches)
  6

 40
6.35
 41
19.05
 42
6.35000508
 43
19.05000254
 44
279.4
 45
215.9
 46
88.6802507084
 47
-9.1603821417
 48
0.0
 49
0.0
140
0.0
141
0.0
142
0.2966443926
143
1.0
 70
  1696
 72
     0
 73
     0
 74
     0
  7

 75
     0
147
0.5913241897
148
-39.4088153714
149
0.0
100
AcDbLayout
  1
Model
 70
     1
 71
     0
 10
0.0
 20
0.0
 11
12.0
 21
9.0
 12
0.0
 22
0.0
 32
0.0
 14
-11.9321182111
 24
-1.1692622294
 34
0.0
 15
23.7890856172
 25
27.1980361621
 35
0.0
146
0.0
 13
0.0
 23
0.0
 33
0.0
 16
1.0
 26
0.0
 36
0.0
 17
0.0
 27
1.0
 37
0.0
 76
     0
330
1F
331
29
  0
MLINESTYLE
  5
18
102
{ACAD_REACTORS
330
17
102
}
330
17
100
AcDbMlineStyle
  2
Standard
 70
     0
  3

 62
   256
 51
90.0
 52
90.0
 71
     2
 49
0.5
 62
   256
  6
BYLAYER
 49
-0.5
 62
   256
  6
BYLAYER
  0
ACDBPLACEHOLDER
  5
F
102
{ACAD_REACTORS
330
E
102
}
330
E
  0
SCALE
  5
48
102
{ACAD_REACTORS
330
47
102
}
330
47
100
AcDbScale
 70
     0
300
1:1
140
1.0
141
1.0
290
     1
  0
SCALE
  5
49
102
{ACAD_REACTORS
330
47
102
}
330
47
100
AcDbScale
 70
     0
300
1/128" = 1'-0"
140
0.0078125
141
12.0
290
     0
  0
SCALE
  5
4A
102
{ACAD_REACTORS
330
47
102
}
330
47
100
AcDbScale
 70
     0
300
1/64" = 1'-0"
140
0.015625
141
12.0
290
     0
  0
SCALE
  5
4B
102
{ACAD_REACTORS
330
47
102
}
330
47
100
AcDbScale
 70
     0
300
1/32" = 1'-0"
140
0.03125
141
12.0
290
     0
  0
SCALE
  5
4C
102
{ACAD_REACTORS
330
47
102
}
330
47
100
AcDbScale
 70
     0
300
1/16" = 1'-0"
140
0.0625
141
12.0
290
     0
  0
SCALE
  5
4D
102
{ACAD_REACTORS
330
47
102
}
330
47
100
AcDbScale
 70
     0
300
3/32" = 1'-0"
140
0.09375
141
12.0
290
     0
  0
SCALE
  5
4E
102
{ACAD_REACTORS
330
47
102
}
330
47
100
AcDbScale
 70
     0
300
1/8" = 1'-0"
140
0.125
141
12.0
290
     0
  0
SCALE
  5
4F
102
{ACAD_REACTORS
330
47
102
}
330
47
100
AcDbScale
 70
     0
300
3/16" = 1'-0"
140
0.1875
141
12.0
290
     0
  0
SCALE
  5
50
102
{ACAD_REACTORS
330
47
102
}
330
47
100
AcDbScale
 70
     0
300
1/4" = 1'-0"
140
0.25
141
12.0
290
     0
  0
SCALE
  5
51
102
{ACAD_REACTORS
330
47
102
}
330
47
100
AcDbScale
 70
     0
300
3/8" = 1'-0"
140
0.375
141
12.0
290
     0
  0
SCALE
  5
52
102
{ACAD_REACTORS
330
47
102
}
330
47
100
AcDbScale
 70
     0
300
1/2" = 1'-0"
140
0.5
141
12.0
290
     0
  0
SCALE
  5
53
102
{ACAD_REACTORS
330
47
102
}
330
47
100
AcDbScale
 70
     0
300
3/4" = 1'-0"
140
0.75
141
12.0
290
     0
  0
SCALE
  5
54
102
{ACAD_REACTORS
330
47
102
}
330
47
100
AcDbScale
 70
     0
300
1" = 1'-0"
140
1.0
141
12.0
290
     0
  0
SCALE
  5
55
102
{ACAD_REACTORS
330
47
102
}
330
47
100
AcDbScale
 70
     0
300
1-1/2" = 1'-0"
140
1.5
141
12.0
290
     0
  0
SCALE
  5
56
102
{ACAD_REACTORS
330
47
102
}
330
47
100
AcDbScale
 70
     0
300
3" = 1'-0"
140
3.0
141
12.0
290
     0
  0
SCALE
  5
57
102
{ACAD_REACTORS
330
47
102
}
330
47
100
AcDbScale
 70
     0
300
6" = 1'-0"
140
6.0
141
12.0
290
     0
  0
SCALE
  5
58
102
{ACAD_REACTORS
330
47
102
}
330
47
100
AcDbScale
 70
     0
300
1'-0" = 1'-0"
140
12.0
141
12.0
290
     0
  0
ENDSEC
  0
EOF
