  0
SECTION
  2
HEADER
  9
$ACADVER
  1
AC1015
  9
$ACADMAINTVER
 70
     6
  9
$DWGCODEPAGE
  3
ANSI_1252
  9
$INSBASE
 10
0.0
 20
0.0
 30
0.0
  9
$EXTMIN
 10
21.2976172296
 20
3.3245512486
 30
0.0
  9
$EXTMAX
 10
37.9998056761
 20
27.1895825478
 30
0.0
  9
$LIMMIN
 10
0.0
 20
0.0
  9
$LIMMAX
 10
12.0
 20
9.0
  9
$ORTHOMODE
 70
     0
  9
$REGENMODE
 70
     1
  9
$FILLMODE
 70
     1
  9
$QTEXTMODE
 70
     0
  9
$MIRRTEXT
 70
     1
  9
$LTSCALE
 40
1.0
  9
$ATTMODE
 70
     1
  9
$TEXTSIZE
 40
0.125
  9
$TRACEWID
 40
0.05
  9
$TEXTSTYLE
  7
Standard
  9
$CLAYER
  8
0
  9
$CELTYPE
  6
ByLayer
  9
$CECOLOR
 62
   256
  9
$CELTSCALE
 40
1.0
  9
$DISPSILH
 70
     0
  9
$DIMSCALE
 40
1.0
  9
$DIMASZ
 40
0.13
  9
$DIMEXO
 40
0.0
  9
$DIMDLI
 40
0.38
  9
$DIMRND
 40
0.0
  9
$DIMDLE
 40
0.0
  9
$DIMEXE
 40
0.125
  9
$DIMTP
 40
0.0
  9
$DIMTM
 40
0.0
  9
$DIMTXT
 40
0.125
  9
$DIMCEN
 40
0.09
  9
$DIMTSZ
 40
0.0
  9
$DIMTOL
 70
     0
  9
$DIMLIM
 70
     0
  9
$DIMTIH
 70
     1
  9
$DIMTOH
 70
     1
  9
$DIMSE1
 70
     0
  9
$DIMSE2
 70
     0
  9
$DIMTAD
 70
     0
  9
$DIMZIN
 70
     1
  9
$DIMBLK
  1

  9
$DIMASO
 70
     1
  9
$DIMSHO
 70
     1
  9
$DIMPOST
  1

  9
$DIMAPOST
  1

  9
$DIMALT
 70
     0
  9
$DIMALTD
 70
     2
  9
$DIMALTF
 40
25.4
  9
$DIMLFAC
 40
1.0
  9
$DIMTOFL
 70
     0
  9
$DIMTVP
 40
0.0
  9
$DIMTIX
 70
     0
  9
$DIMSOXD
 70
     0
  9
$DIMSAH
 70
     0
  9
$DIMBLK1
  1

  9
$DIMBLK2
  1

  9
$DIMSTYLE
  2
Standard
  9
$DIMCLRD
 70
     0
  9
$DIMCLRE
 70
     0
  9
$DIMCLRT
 70
     0
  9
$DIMTFAC
 40
1.0
  9
$DIMGAP
 40
0.06
  9
$DIMJUST
 70
     0
  9
$DIMSD1
 70
     0
  9
$DIMSD2
 70
     0
  9
$DIMTOLJ
 70
     1
  9
$DIMTZIN
 70
     1
  9
$DIMALTZ
 70
     0
  9
$DIMALTTZ
 70
     0
  9
$DIMUPT
 70
     0
  9
$DIMDEC
 70
     2
  9
$DIMTDEC
 70
     2
  9
$DIMALTU
 70
     2
  9
$DIMALTTD
 70
     2
  9
$DIMTXSTY
  7
Standard
  9
$DIMAUNIT
 70
     0
  9
$DIMADEC
 70
     2
  9
$DIMALTRND
 40
0.0
  9
$DIMAZIN
 70
     0
  9
$DIMDSEP
 70
    46
  9
$DIMATFIT
 70
     3
  9
$DIMFRAC
 70
     0
  9
$DIMLDRBLK
  1

  9
$DIMLUNIT
 70
     2
  9
$DIMLWD
 70
    -2
  9
$DIMLWE
 70
    -2
  9
$DIMTMOVE
 70
     0
  9
$LUNITS
 70
     2
  9
$LUPREC
 70
     2
  9
$SKETCHINC
 40
0.1
  9
$FILLETRAD
 40
0.0
  9
$AUNITS
 70
     0
  9
$AUPREC
 70
     2
  9
$MENU
  1
.
  9
$ELEVATION
 40
0.0
  9
$PELEVATION
 40
0.0
  9
$THICKNESS
 40
0.0
  9
$LIMCHECK
 70
     0
  9
$CHAMFERA
 40
0.0
  9
$CHAMFERB
 40
0.0
  9
$CHAMFERC
 40
0.0
  9
$CHAMFERD
 40
0.0
  9
$SKPOLY
 70
     0
  9
$TDCREATE
 40
2460714.803971447
  9
$TDUCREATE
 40
2460715.053971447
  9
$TDUPDATE
 40
2460714.803999375
  9
$TDUUPDATE
 40
2460715.053999375
  9
$TDINDWG
 40
0.0000000116
  9
$TDUSRTIMER
 40
0.0000000116
  9
$USRTIMER
 70
     1
  9
$ANGBASE
 50
0.0
  9
$ANGDIR
 70
     0
  9
$PDMODE
 70
     0
  9
$PDSIZE
 40
-1.0
  9
$PLINEWID
 40
0.0
  9
$SPLFRAME
 70
     0
  9
$SPLINETYPE
 70
     6
  9
$SPLINESEGS
 70
     8
  9
$HANDSEED
  5
6E
  9
$SURFTAB1
 70
     6
  9
$SURFTAB2
 70
     6
  9
$SURFTYPE
 70
     6
  9
$SURFU
 70
     6
  9
$SURFV
 70
     6
  9
$UCSBASE
  2

  9
$UCSNAME
  2

  9
$UCSORG
 10
0.0
 20
0.0
 30
0.0
  9
$UCSXDIR
 10
1.0
 20
0.0
 30
0.0
  9
$UCSYDIR
 10
0.0
 20
1.0
 30
0.0
  9
$UCSORTHOREF
  2

  9
$UCSORTHOVIEW
 70
     0
  9
$UCSORGTOP
 10
0.0
 20
0.0
 30
0.0
  9
$UCSORGBOTTOM
 10
0.0
 20
0.0
 30
0.0
  9
$UCSORGLEFT
 10
0.0
 20
0.0
 30
0.0
  9
$UCSORGRIGHT
 10
0.0
 20
0.0
 30
0.0
  9
$UCSORGFRONT
 10
0.0
 20
0.0
 30
0.0
  9
$UCSORGBACK
 10
0.0
 20
0.0
 30
0.0
  9
$PUCSBASE
  2

  9
$PUCSNAME
  2

  9
$PUCSORG
 10
0.0
 20
0.0
 30
0.0
  9
$PUCSXDIR
 10
1.0
 20
0.0
 30
0.0
  9
$PUCSYDIR
 10
0.0
 20
1.0
 30
0.0
  9
$PUCSORTHOREF
  2

  9
$PUCSORTHOVIEW
 70
     0
  9
$PUCSORGTOP
 10
0.0
 20
0.0
 30
0.0
  9
$PUCSORGBOTTOM
 10
0.0
 20
0.0
 30
0.0
  9
$PUCSORGLEFT
 10
0.0
 20
0.0
 30
0.0
  9
$PUCSORGRIGHT
 10
0.0
 20
0.0
 30
0.0
  9
$PUCSORGFRONT
 10
0.0
 20
0.0
 30
0.0
  9
$PUCSORGBACK
 10
0.0
 20
0.0
 30
0.0
  9
$USERI1
 70
     0
  9
$USERI2
 70
     0
  9
$USERI3
 70
     0
  9
$USERI4
 70
     0
  9
$USERI5
 70
     0
  9
$USERR1
 40
0.0
  9
$USERR2
 40
0.0
  9
$USERR3
 40
0.0
  9
$USERR4
 40
0.0
  9
$USERR5
 40
0.0
  9
$WORLDVIEW
 70
     1
  9
$SHADEDGE
 70
     3
  9
$SHADEDIF
 70
    70
  9
$TILEMODE
 70
     1
  9
$MAXACTVP
 70
    64
  9
$PINSBASE
 10
0.0
 20
0.0
 30
0.0
  9
$PLIMCHECK
 70
     0
  9
$PEXTMIN
 10
1.0000000000E+20
 20
1.0000000000E+20
 30
1.0000000000E+20
  9
$PEXTMAX
 10
-1.0000000000E+20
 20
-1.0000000000E+20
 30
-1.0000000000E+20
  9
$PLIMMIN
 10
0.0
 20
0.0
  9
$PLIMMAX
 10
12.0
 20
9.0
  9
$UNITMODE
 70
     0
  9
$VISRETAIN
 70
     1
  9
$PLINEGEN
 70
     0
  9
$PSLTSCALE
 70
     1
  9
$TREEDEPTH
 70
  3020
  9
$CMLSTYLE
  2
Standard
  9
$CMLJUST
 70
     0
  9
$CMLSCALE
 40
1.0
  9
$PROXYGRAPHICS
 70
     1
  9
$MEASUREMENT
 70
     0
  9
$CELWEIGHT
370
    -1
  9
$ENDCAPS
280
     0
  9
$JOINSTYLE
280
     0
  9
$LWDISPLAY
290
     1
  9
$INSUNITS
 70
     1
  9
$HYPERLINKBASE
  1

  9
$STYLESHEET
  1

  9
$XEDIT
290
     1
  9
$CEPSNTYPE
380
     0
  9
$PSTYLEMODE
290
     1
  9
$FINGERPRINTGUID
  2
{caf15d05-5ca5-43ce-af95-24b800af81e7}
  9
$VERSIONGUID
  2
{FAEB1C32-E019-11D5-929B-00C0DF256EC4}
  9
$EXTNAMES
290
     1
  9
$PSVPSCALE
 40
0.0
  9
$OLESTARTUP
290
     0
  0
ENDSEC
  0
SECTION
  2
CLASSES
  0
CLASS
  1
ACDBDICTIONARYWDFLT
  2
AcDbDictionaryWithDefault
  3
ObjectDBX Classes
 90
        0
280
     0
281
     0
  0
CLASS
  1
VISUALSTYLE
  2
AcDbVisualStyle
  3
ObjectDBX Classes
 90
     4095
280
     0
281
     0
  0
CLASS
  1
MATERIAL
  2
AcDbMaterial
  3
ObjectDBX Classes
 90
     1153
280
     0
281
     0
  0
CLASS
  1
SCALE
  2
AcDbScale
  3
ObjectDBX Classes
 90
     1153
280
     0
281
     0
  0
CLASS
  1
TABLESTYLE
  2
AcDbTableStyle
  3
ObjectDBX Classes
 90
     4095
280
     0
281
     0
  0
CLASS
  1
MLEADERSTYLE
  2
AcDbMLeaderStyle
  3
ACDB_MLEADERSTYLE_CLASS
 90
     4095
280
     0
281
     0
  0
CLASS
  1
SUN
  2
AcDbSun
  3
SCENEOE
 90
     1153
280
     0
281
     0
  0
CLASS
  1
ACDBPLACEHOLDER
  2
AcDbPlaceHolder
  3
ObjectDBX Classes
 90
        0
280
     0
281
     0
  0
CLASS
  1
LAYOUT
  2
AcDbLayout
  3
ObjectDBX Classes
 90
        0
280
     0
281
     0
  0
ENDSEC
  0
SECTION
  2
TABLES
  0
TABLE
  2
VPORT
  5
8
330
0
100
AcDbSymbolTable
 70
     1
  0
VPORT
  5
29
330
8
100
AcDbSymbolTableRecord
100
AcDbViewportTableRecord
  2
*Active
 70
     0
 10
0.0
 20
0.0
 11
1.0
 21
1.0
 12
29.6487114528
 22
15.2570668982
 13
0.0
 23
0.0
 14
0.5
 24
0.5
 15
0.5
 25
0.5
 16
0.0
 26
0.0
 36
1.0
 17
0.0
 27
0.0
 37
0.0
 40
24.3423319252
 41
0.6998603202
 42
50.0
 43
0.0
 44
0.0
 50
0.0
 51
0.0
 71
     0
 72
   100
 73
     1
 74
     3
 75
     0
 76
     0
 77
     0
 78
     0
281
     0
 65
     1
110
0.0
120
0.0
130
0.0
111
1.0
121
0.0
131
0.0
112
0.0
122
1.0
132
0.0
 79
     0
146
0.0
  0
ENDTAB
  0
TABLE
  2
LTYPE
  5
5
330
0
100
AcDbSymbolTable
 70
     6
  0
LTYPE
  5
14
330
5
100
AcDbSymbolTableRecord
100
AcDbLinetypeTableRecord
  2
ByBlock
 70
     0
  3

 72
    65
 73
     0
 40
0.0
  0
LTYPE
  5
15
330
5
100
AcDbSymbolTableRecord
100
AcDbLinetypeTableRecord
  2
ByLayer
 70
     0
  3

 72
    65
 73
     0
 40
0.0
  0
LTYPE
  5
16
330
5
100
AcDbSymbolTableRecord
100
AcDbLinetypeTableRecord
  2
Continuous
 70
     0
  3
Solid line
 72
    65
 73
     0
 40
0.0
  0
LTYPE
  5
5E
330
5
100
AcDbSymbolTableRecord
100
AcDbLinetypeTableRecord
  2
HIDDEN
 70
     0
  3
Hidden __ __ __ __ __ __ __ __ __ __ __ __ __ __
 72
    65
 73
     2
 40
0.075
 49
0.05
 74
     0
 49
-0.025
 74
     0
  0
LTYPE
  5
5F
330
5
100
AcDbSymbolTableRecord
100
AcDbLinetypeTableRecord
  2
PHANTOM
 70
     0
  3
Phantom ______  __  __  ______  __  __  ______
 72
    65
 73
     6
 40
0.5
 49
0.25
 74
     0
 49
-0.05
 74
     0
 49
0.05
 74
     0
 49
-0.05
 74
     0
 49
0.05
 74
     0
 49
-0.05
 74
     0
  0
LTYPE
  5
60
330
5
100
AcDbSymbolTableRecord
100
AcDbLinetypeTableRecord
  2
CENTER
 70
     0
  3
Center ____ _ ____ _ ____ _ ____ _ ____ _ ____
 72
    65
 73
     4
 40
0.4
 49
0.25
 74
     0
 49
-0.05
 74
     0
 49
0.05
 74
     0
 49
-0.05
 74
     0
  0
LTYPE
  5
61
330
5
100
AcDbSymbolTableRecord
100
AcDbLinetypeTableRecord
  2
CENTERX2
 70
     0
  3
Center (2x) ________  __  ________  __  _____
 72
    65
 73
     4
 40
0.8
 49
0.5
 74
     0
 49
-0.1
 74
     0
 49
0.1
 74
     0
 49
-0.1
 74
     0
  0
LTYPE
  5
62
330
5
100
AcDbSymbolTableRecord
100
AcDbLinetypeTableRecord
  2
DOT2
 70
     0
  3
Dot (.5x) ........................................
 72
    65
 73
     2
 40
0.025
 49
0.0
 74
     0
 49
-0.025
 74
     0
  0
ENDTAB
  0
TABLE
  2
LAYER
  5
2
330
0
100
AcDbSymbolTable
 70
     1
  0
LAYER
  5
10
330
2
100
AcDbSymbolTableRecord
100
AcDbLayerTableRecord
  2
0
 70
     0
 62
     7
  6
Continuous
370
    -3
390
F
  0
ENDTAB
  0
TABLE
  2
STYLE
  5
3
330
0
100
AcDbSymbolTable
 70
     2
  0
STYLE
  5
11
330
3
100
AcDbSymbolTableRecord
100
AcDbTextStyleTableRecord
  2
Standard
 70
     0
 40
0.0
 41
1.0
 50
0.0
 71
     0
 42
0.125
  3
txt
  4

  0
STYLE
  5
6A
330
3
100
AcDbSymbolTableRecord
100
AcDbTextStyleTableRecord
  2
SLDTEXTSTYLE0
 70
     0
 40
0.0
 41
0.7
 50
0.0
 71
     0
 42
0.125
  3
TXT
  4

  0
ENDTAB
  0
TABLE
  2
VIEW
  5
6
330
0
100
AcDbSymbolTable
 70
     0
  0
ENDTAB
  0
TABLE
  2
UCS
  5
7
330
0
100
AcDbSymbolTable
 70
     0
  0
ENDTAB
  0
TABLE
  2
APPID
  5
9
330
0
100
AcDbSymbolTable
 70
     1
  0
APPID
  5
12
330
9
100
AcDbSymbolTableRecord
100
AcDbRegAppTableRecord
  2
ACAD
 70
     0
  0
ENDTAB
  0
TABLE
  2
DIMSTYLE
  5
A
330
0
100
AcDbSymbolTable
 70
     1
100
AcDbDimStyleTable
  0
DIMSTYLE
105
27
330
A
100
AcDbSymbolTableRecord
100
AcDbDimStyleTableRecord
  2
Standard
 70
     0
178
     0
340
11
  0
ENDTAB
  0
TABLE
  2
BLOCK_RECORD
  5
1
330
0
100
AcDbSymbolTable
 70
     1
  0
BLOCK_RECORD
  5
1F
330
1
100
AcDbSymbolTableRecord
100
AcDbBlockTableRecord
  2
*Model_Space
340
22
  0
BLOCK_RECORD
  5
1B
330
1
100
AcDbSymbolTableRecord
100
AcDbBlockTableRecord
  2
*Paper_Space
340
1E
  0
BLOCK_RECORD
  5
23
330
1
100
AcDbSymbolTableRecord
100
AcDbBlockTableRecord
  2
*Paper_Space0
340
26
  0
ENDTAB
  0
ENDSEC
  0
SECTION
  2
BLOCKS
  0
BLOCK
  5
20
330
1F
100
AcDbEntity
  8
0
100
AcDbBlockBegin
  2
*Model_Space
 70
     0
 10
0.0
 20
0.0
 30
0.0
  3
*Model_Space
  1

  0
ENDBLK
  5
21
330
1F
100
AcDbEntity
  8
0
100
AcDbBlockEnd
  0
BLOCK
  5
1C
330
1B
100
AcDbEntity
 67
     1
  8
0
100
AcDbBlockBegin
  2
*Paper_Space
 70
     0
 10
0.0
 20
0.0
 30
0.0
  3
*Paper_Space
  1

  0
ENDBLK
  5
1D
330
1B
100
AcDbEntity
 67
     1
  8
0
100
AcDbBlockEnd
  0
BLOCK
  5
24
330
23
100
AcDbEntity
  8
0
100
AcDbBlockBegin
  2
*Paper_Space0
 70
     0
 10
0.0
 20
0.0
 30
0.0
  3
*Paper_Space0
  1

  0
ENDBLK
  5
25
330
23
100
AcDbEntity
  8
0
100
AcDbBlockEnd
  0
ENDSEC
  0
SECTION
  2
ENTITIES
  0
SPLINE
  5
63
330
1F
100
AcDbEntity
  8
0
  6
Continuous
 62
     7
370
    25
100
AcDbSpline
210
0.0
220
0.0
230
1.0
 70
     8
 71
     3
 72
    22
 73
    18
 74
     0
 42
0.00000001
 43
0.00000001
 40
0.0
 40
0.0
 40
0.0
 40
0.0
 40
0.0624999999999999
 40
0.0624999999999999
 40
0.1249999999999999
 40
0.1249999999999999
 40
0.2499999999999998
 40
0.2499999999999998
 40
0.4999999999999997
 40
0.4999999999999997
 40
0.7499999999999996
 40
0.7499999999999996
 40
0.8124999999999998
 40
0.8124999999999998
 40
0.875
 40
0.875
 40
1.0
 40
1.0
 40
1.0
 40
1.0
 10
37.99980567363475
 20
5.909774395081137
 30
0.0
 10
37.97298039731616
 20
6.12485746345432
 30
0.0
 10
37.96167505789308
 20
6.22082429673704
 30
0.0
 10
37.91877238195548
 20
6.566790096371994
 30
0.0
 10
37.90023063577878
 20
6.711865976835157
 30
0.0
 10
37.83071977312115
 20
7.208410318772553
 30
0.0
 10
37.78077451354286
 20
7.544987384500126
 30
0.0
 10
37.63802234070506
 20
8.436166107079012
 30
0.0
 10
37.5427944803349
 20
9.08642375946445
 30
0.0
 10
37.32868523359927
 20
10.45353378120891
 30
0.0
 10
37.23109525627453
 20
11.05730873556994
 30
0.0
 10
37.10893089329282
 20
11.85709794039049
 30
0.0
 10
37.08616976454365
 20
12.00658082094062
 30
0.0
 10
37.03384652578891
 20
12.35197486720829
 30
0.0
 10
37.01885232457285
 20
12.45129677422045
 30
0.0
 10
36.92468741743666
 20
13.08202127355562
 30
0.0
 10
36.83568811543569
 20
13.19390985657603
 30
0.0
 10
36.8592260393923
 20
13.62718417067994
 30
0.0
  0
SPLINE
  5
64
330
1F
100
AcDbEntity
  8
0
  6
Continuous
 62
     7
370
    25
100
AcDbSpline
210
0.0
220
0.0
230
1.0
 70
     8
 71
     3
 72
    18
 73
    14
 74
     0
 42
0.00000001
 43
0.00000001
 40
0.0
 40
0.0
 40
0.0
 40
0.0
 40
0.1249999999999999
 40
0.1249999999999999
 40
0.2499999999999998
 40
0.2499999999999998
 40
0.5000000000000016
 40
0.5000000000000016
 40
0.7500000000000033
 40
0.7500000000000033
 40
0.8750000000000017
 40
0.8750000000000017
 40
1.0
 40
1.0
 40
1.0
 40
1.0
 10
36.8592260393923
 20
13.62718417067994
 30
0.0
 10
36.87589518141647
 20
13.83275002272671
 30
0.0
 10
36.87638671497973
 20
13.93621040274278
 30
0.0
 10
36.86503828305922
 20
14.24535746407289
 30
0.0
 10
36.84979900872879
 20
14.39945438484259
 30
0.0
 10
36.77518583301266
 20
14.85784708667811
 30
0.0
 10
36.68773948520062
 20
15.15616431633709
 30
0.0
 10
36.44050273164888
 20
15.7246894971983
 30
0.0
 10
36.2818797551864
 20
15.99223146467386
 30
0.0
 10
35.99711434631473
 20
16.3588535428103
 30
0.0
 10
35.89465451070686
 20
16.47489653792208
 30
0.0
 10
35.67549733040043
 20
16.693574197908
 30
0.0
 10
35.59927125352593
 20
16.76338202957446
 30
0.0
 10
35.43676146610343
 20
16.89036976909891
 30
0.0
  0
SPLINE
  5
65
330
1F
100
AcDbEntity
  8
0
  6
Continuous
 62
     7
370
    25
100
AcDbSpline
210
0.0
220
0.0
230
1.0
 70
     8
 71
     3
 72
    56
 73
    52
 74
     0
 42
0.00000001
 43
0.00000001
 40
0.0
 40
0.0
 40
0.0
 40
0.0
 40
0.0312500000000004
 40
0.0312500000000004
 40
0.0625000000000008
 40
0.0625000000000008
 40
0.1250000000000014
 40
0.1250000000000014
 40
0.187500000000002
 40
0.187500000000002
 40
0.2187500000000024
 40
0.2187500000000024
 40
0.2343750000000023
 40
0.2343750000000023
 40
0.2500000000000022
 40
0.2500000000000022
 40
0.3125000000000022
 40
0.3125000000000022
 40
0.3437500000000021
 40
0.3437500000000021
 40
0.3750000000000019
 40
0.3750000000000019
 40
0.4375000000000012
 40
0.4375000000000012
 40
0.5000000000000004
 40
0.5000000000000004
 40
0.5312499999999999
 40
0.5312499999999999
 40
0.5624999999999993
 40
0.5624999999999993
 40
0.5781249999999993
 40
0.5781249999999993
 40
0.5937499999999993
 40
0.5937499999999993
 40
0.6093749999999993
 40
0.6093749999999993
 40
0.6249999999999993
 40
0.6249999999999993
 40
0.6562499999999996
 40
0.6562499999999996
 40
0.6875
 40
0.6875
 40
0.7500000000000002
 40
0.7500000000000002
 40
0.8750000000000006
 40
0.8750000000000006
 40
0.9375000000000006
 40
0.9375000000000006
 40
0.9687500000000002
 40
0.9687500000000002
 40
1.0
 40
1.0
 40
1.0
 40
1.0
 10
35.43676142224338
 20
16.89036980393794
 30
0.0
 10
35.24594106480271
 20
17.04194271867164
 30
0.0
 10
35.15294210490986
 20
17.14930372872891
 30
0.0
 10
34.88777283528793
 20
17.34285038845656
 30
0.0
 10
34.72170373803403
 20
17.46338133364915
 30
0.0
 10
34.2847872522637
 20
17.77445140338229
 30
0.0
 10
33.98368164517254
 20
17.99050049904026
 30
0.0
 10
33.38884239394263
 20
18.42428812378352
 30
0.0
 10
33.09963357460207
 20
18.63842413326402
 30
0.0
 10
32.66015378119742
 20
18.97320582255376
 30
0.0
 10
32.47182855747668
 20
19.11795999856906
 30
0.0
 10
32.32137927823949
 20
19.23344886499261
 30
0.0
 10
32.22657692717857
 20
19.30618003556123
 30
0.0
 10
32.08163382123817
 20
19.41741921269454
 30
0.0
 10
32.02327570099953
 20
19.46220595842443
 30
0.0
 10
31.59033607310647
 20
19.79444901202636
 30
0.0
 10
31.44828157509594
 20
19.9033757638736
 30
0.0
 10
30.87609153015977
 20
20.34204066126649
 30
0.0
 10
30.79537065835797
 20
20.40395097078045
 30
0.0
 10
30.46832975642653
 20
20.65475186420302
 30
0.0
 10
30.33873536772846
 20
20.75409449114048
 30
0.0
 10
29.91300989706128
 20
21.08025897521919
 30
0.0
 10
29.63109197113252
 20
21.29610588025462
 30
0.0
 10
29.02201450114619
 20
21.76279199066997
 30
0.0
 10
28.81091152908549
 20
21.9245566986495
 30
0.0
 10
28.27914205631163
 20
22.33207738037083
 30
0.0
 10
28.143153654005
 20
22.43626313508102
 30
0.0
 10
27.89941872594065
 20
22.62290795580982
 30
0.0
 10
27.72690657278697
 20
22.75494965856957
 30
0.0
 10
27.51559399646844
 20
22.91664734819936
 30
0.0
 10
27.41854323754538
 20
22.99089965835475
 30
0.0
 10
27.3181952668886
 20
23.06766783281303
 30
0.0
 10
27.26425078126383
 20
23.10893383947896
 30
0.0
 10
27.03713180941471
 20
23.28266396218864
 30
0.0
 10
27.0304431675468
 20
23.28777553601329
 30
0.0
 10
26.8356206324731
 20
23.4369010308434
 30
0.0
 10
26.80944356022029
 20
23.45693566980614
 30
0.0
 10
26.52717617252313
 20
23.67269077240299
 30
0.0
 10
26.43530912042857
 20
23.7436368419076
 30
0.0
 10
26.12609450566124
 20
23.9819639252141
 30
0.0
 10
25.98709954512272
 20
24.08802127251179
 30
0.0
 10
25.56112399535892
 20
24.41050604562031
 30
0.0
 10
25.26055880731736
 20
24.63418335874674
 30
0.0
 10
24.3775856259072
 20
25.28390183765028
 30
0.0
 10
23.84037003153563
 20
25.68295947101433
 30
0.0
 10
22.890310789671
 20
26.39738707124743
 30
0.0
 10
22.63177444500077
 20
26.6300068660977
 30
0.0
 10
22.16590096584629
 20
26.8907207070815
 30
0.0
 10
21.98451017732165
 20
26.96663094459031
 30
0.0
 10
21.65627640689464
 20
27.08348899779178
 30
0.0
 10
21.53114563010117
 20
27.12021785373708
 30
0.0
 10
21.29761722958887
 20
27.18958254775302
 30
0.0
  0
SPLINE
  5
66
330
1F
100
AcDbEntity
  8
0
  6
Continuous
 62
     7
370
    25
100
AcDbSpline
210
0.0
220
0.0
230
1.0
 70
     8
 71
     3
 72
    10
 73
     6
 74
     0
 42
0.00000001
 43
0.00000001
 40
0.0
 40
0.0
 40
0.0
 40
0.0
 40
0.5
 40
0.5
 40
1.0
 40
1.0
 40
1.0
 40
1.0
 10
21.29761723093441
 20
27.1895825268183
 30
0.0
 10
21.32030845326697
 20
26.83653949161474
 30
0.0
 10
21.32889847041002
 20
26.70290089315066
 30
0.0
 10
21.36413091758048
 20
26.15464772238346
 30
0.0
 10
21.37989683657366
 20
25.90925410727439
 30
0.0
 10
21.39381245097482
 20
25.69259346243982
 30
0.0
  0
SPLINE
  5
67
330
1F
100
AcDbEntity
  8
0
  6
Continuous
 62
     7
370
    25
100
AcDbSpline
210
0.0
220
0.0
230
1.0
 70
     8
 71
     3
 72
    56
 73
    52
 74
     0
 42
0.00000001
 43
0.00000001
 40
0.0
 40
0.0
 40
0.0
 40
0.0
 40
0.1249999999999983
 40
0.1249999999999983
 40
0.1874999999999971
 40
0.1874999999999971
 40
0.249999999999996
 40
0.249999999999996
 40
0.2812499999999956
 40
0.2812499999999956
 40
0.3124999999999952
 40
0.3124999999999952
 40
0.3437499999999948
 40
0.3437499999999948
 40
0.3749999999999944
 40
0.3749999999999944
 40
0.406249999999994
 40
0.406249999999994
 40
0.4374999999999936
 40
0.4374999999999936
 40
0.4531249999999933
 40
0.4531249999999933
 40
0.4687499999999931
 40
0.4687499999999931
 40
0.499999999999993
 40
0.499999999999993
 40
0.531249999999993
 40
0.531249999999993
 40
0.562499999999993
 40
0.562499999999993
 40
0.6249999999999929
 40
0.6249999999999929
 40
0.656249999999993
 40
0.656249999999993
 40
0.6718749999999933
 40
0.6718749999999933
 40
0.6874999999999937
 40
0.6874999999999937
 40
0.7499999999999952
 40
0.7499999999999952
 40
0.7812499999999959
 40
0.7812499999999959
 40
0.8124999999999966
 40
0.8124999999999966
 40
0.8749999999999977
 40
0.8749999999999977
 40
0.9374999999999988
 40
0.9374999999999988
 40
0.9687499999999994
 40
0.9687499999999994
 40
1.0
 40
1.0
 40
1.0
 40
1.0
 10
21.39381245097482
 20
25.69259346243983
 30
0.0
 10
21.45227398323038
 20
24.78233026798627
 30
0.0
 10
21.50335964793004
 20
23.98554354512844
 30
0.0
 10
21.59029929837654
 20
22.6274174326908
 30
0.0
 10
21.61147027599364
 20
22.29644577364971
 30
0.0
 10
21.66715217676608
 20
21.42561348586332
 30
0.0
 10
21.69683680704335
 20
20.96114670043701
 30
0.0
 10
21.74412927229588
 20
20.22087055999785
 30
0.0
 10
21.75618233554554
 20
20.03221161247487
 30
0.0
 10
21.78400136374303
 20
19.59679406711392
 30
0.0
 10
21.8006557514145
 20
19.33616827353824
 30
0.0
 10
21.82300227372231
 20
18.98658587166939
 30
0.0
 10
21.84365849708936
 20
18.66360187575614
 30
0.0
 10
21.87153153379579
 20
18.22818778530421
 30
0.0
 10
21.88414923621082
 20
18.03126777554348
 30
0.0
 10
21.90674700916454
 20
17.67900182695254
 30
0.0
 10
21.92747860957632
 20
17.35626035012992
 30
0.0
 10
21.95552087759813
 20
16.9208571318589
 30
0.0
 10
21.96821260532007
 20
16.72431260033909
 30
0.0
 10
21.98525608746958
 20
16.4612314194829
 30
0.0
 10
21.99622499907917
 20
16.29233173705924
 30
0.0
 10
22.01043538891967
 20
16.07464241036735
 30
0.0
 10
22.01672735634472
 20
15.97876577458267
 30
0.0
 10
22.03316357613427
 20
15.73003994991246
 30
0.0
 10
22.05122817909803
 20
15.46063785527877
 30
0.0
 10
22.08440687100819
 20
15.02534962000952
 30
0.0
 10
22.10176021512864
 20
14.81737792623109
 30
0.0
 10
22.14196736370002
 20
14.36417289325245
 30
0.0
 10
22.15544933374422
 20
14.22073410188015
 30
0.0
 10
22.23543135849086
 20
13.3758238535759
 30
0.0
 10
22.25393995133496
 20
13.18143890396154
 30
0.0
 10
22.33134034555944
 20
12.36330167145026
 30
0.0
 10
22.35472258524617
 20
12.11619460747683
 30
0.0
 10
22.37342945521387
 20
11.91860263294581
 30
0.0
 10
22.38829361797492
 20
11.76164500464133
 30
0.0
 10
22.4088722334976
 20
11.54446511431465
 30
0.0
 10
22.41898781773862
 20
11.43775574564737
 30
0.0
 10
22.46869712134221
 20
10.91361178479118
 30
0.0
 10
22.50494959804264
 20
10.53199399597536
 30
0.0
 10
22.57656095812475
 20
9.778815564774664
 30
0.0
 10
22.5939857007676
 20
9.595528355504154
 30
0.0
 10
22.63527495187513
 20
9.161181103982637
 30
0.0
 10
22.65782247556363
 20
8.923928444714397
 30
0.0
 10
22.71399571024489
 20
8.332639730862887
 30
0.0
 10
22.75946310508346
 20
7.85369878605602
 30
0.0
 10
22.84101939716924
 20
6.993849179258132
 30
0.0
 10
22.89049129156059
 20
6.471731785082285
 30
0.0
 10
22.9402831801507
 20
5.945172227073358
 30
0.0
 10
22.96631081969637
 20
5.669582472690254
 30
0.0
 10
23.00409103686495
 20
5.268680580724708
 30
0.0
 10
23.02508237257852
 20
5.045478837187058
 30
0.0
 10
23.04646423637149
 20
4.817547258380549
 30
0.0
  0
SPLINE
  5
68
330
1F
100
AcDbEntity
  8
0
  6
Continuous
 62
     7
370
    25
100
AcDbSpline
210
0.0
220
0.0
230
1.0
 70
     8
 71
     3
 72
     8
 73
     4
 74
     0
 42
0.00000001
 43
0.00000001
 40
0.0
 40
0.0
 40
0.0
 40
0.0
 40
1.0
 40
1.0
 40
1.0
 40
1.0
 10
23.04646423637149
 20
4.817547258380549
 30
0.0
 10
23.09533116128837
 20
4.296462997924903
 30
0.0
 10
23.13949986066181
 20
3.82222515215899
 30
0.0
 10
23.18588006536451
 20
3.324551248568805
 30
0.0
  0
SPLINE
  5
69
330
1F
100
AcDbEntity
  8
0
  6
Continuous
 62
     7
370
    25
100
AcDbSpline
210
0.0
220
0.0
230
1.0
 70
     8
 71
     3
 72
    44
 73
    40
 74
     0
 42
0.00000001
 43
0.00000001
 40
0.0
 40
0.0
 40
0.0
 40
0.0
 40
0.0312500000000004
 40
0.0312500000000004
 40
0.0625000000000009
 40
0.0625000000000009
 40
0.1250000000000009
 40
0.1250000000000009
 40
0.2500000000000017
 40
0.2500000000000017
 40
0.5000000000000032
 40
0.5000000000000032
 40
0.5156250000000033
 40
0.5156250000000033
 40
0.5312500000000033
 40
0.5312500000000033
 40
0.562500000000004
 40
0.562500000000004
 40
0.5781250000000042
 40
0.5781250000000042
 40
0.5937500000000046
 40
0.5937500000000046
 40
0.6250000000000051
 40
0.6250000000000051
 40
0.6875000000000051
 40
0.6875000000000051
 40
0.7500000000000053
 40
0.7500000000000053
 40
0.7812500000000053
 40
0.7812500000000053
 40
0.8125000000000054
 40
0.8125000000000054
 40
0.8750000000000046
 40
0.8750000000000046
 40
0.9062500000000034
 40
0.9062500000000034
 40
0.9375000000000022
 40
0.9375000000000022
 40
1.0
 40
1.0
 40
1.0
 40
1.0
 10
23.18588008486599
 20
3.324551251573022
 30
0.0
 10
23.3923274576972
 20
3.356354622373379
 30
0.0
 10
23.47444234670096
 20
3.369307160378746
 30
0.0
 10
23.82561224677567
 20
3.42745174094927
 30
0.0
 10
23.97371380728927
 20
3.451763223377889
 30
0.0
 10
24.39381062796586
 20
3.521102611547979
 30
0.0
 10
24.74133804531169
 20
3.578564643542237
 30
0.0
 10
25.64069099078014
 20
3.72759474435682
 30
0.0
 10
26.24814566238528
 20
3.828790978957772
 30
0.0
 10
28.19020126964115
 20
4.154147868565262
 30
0.0
 10
29.3337418035005
 20
4.346449391579728
 30
0.0
 10
30.68279821855803
 20
4.573417856996718
 30
0.0
 10
30.75793171325239
 20
4.586064941826637
 30
0.0
 10
30.91241792433572
 20
4.612084159515197
 30
0.0
 10
30.93520075838016
 20
4.615921632749965
 30
0.0
 10
31.3303119551102
 20
4.682460627204023
 30
0.0
 10
31.52878535956255
 20
4.715883747419825
 30
0.0
 10
31.53115432812398
 20
4.716282661949234
 30
0.0
 10
31.67377291628372
 20
4.740299851292852
 30
0.0
 10
31.85041679774734
 20
4.770046957147006
 30
0.0
 10
31.92964773503061
 20
4.783388246454022
 30
0.0
 10
32.12218146441712
 20
4.815803956472773
 30
0.0
 10
32.2929526664411
 20
4.844546665826605
 30
0.0
 10
32.78597246654633
 20
4.92751182254987
 30
0.0
 10
33.00117924863598
 20
4.963699367555417
 30
0.0
 10
33.76733763441671
 20
5.09235725977803
 30
0.0
 10
33.91221647846986
 20
5.116735793325648
 30
0.0
 10
34.51081851878347
 20
5.216876371905633
 30
0.0
 10
34.6195852839594
 20
5.235101508281955
 30
0.0
 10
34.93008948611868
 20
5.286882794238111
 30
0.0
 10
35.10529615595817
 20
5.318378025320273
 30
0.0
 10
35.50171792291575
 20
5.394790855368941
 30
0.0
 10
35.96744021900854
 20
5.485263564913161
 30
0.0
 10
36.25668257906834
 20
5.541172881605607
 30
0.0
 10
36.47427400985733
 20
5.583033494144434
 30
0.0
 10
36.7687558220718
 20
5.642449913831365
 30
0.0
 10
36.9380591677736
 20
5.677779050618621
 30
0.0
 10
37.36886663486908
 20
5.769629871990511
 30
0.0
 10
37.61367102658527
 20
5.823901029316542
 30
0.0
 10
37.99980567608198
 20
5.90977437545942
 30
0.0
  0
MTEXT
  5
6B
330
1F
100
AcDbEntity
  8
0
  6
Continuous
 62
     7
100
AcDbMText
 10
21.2976172296
 20
3.2844108394
 30
0.0
 40
0.1903
 41
0.0
 71
     1
 72
     1
  1
SOLIDWORKS Educational Product.
  7
SLDTEXTSTYLE0
 73
     1
 44
1.0
  0
MTEXT
  5
6C
330
1F
100
AcDbEntity
  8
0
  6
Continuous
 62
     7
100
AcDbMText
 10
21.2976172296
 20
2.9989608394
 30
0.0
 40
0.1903
 41
0.0
 71
     1
 72
     1
  1
For Instructional Use Only.
  7
SLDTEXTSTYLE0
 73
     1
 44
1.0
  0
ENDSEC
  0
SECTION
  2
OBJECTS
  0
DICTIONARY
  5
C
330
0
100
AcDbDictionary
281
     1
  3
ACAD_GROUP
350
D
  3
ACAD_LAYOUT
350
1A
  3
ACAD_MLINESTYLE
350
17
  3
ACAD_PLOTSETTINGS
350
19
  3
ACAD_PLOTSTYLENAME
350
E
  3
ACAD_SCALELIST
350
47
  3
DWGPROPS
350
6D
  0
DICTIONARY
  5
D
102
{ACAD_REACTORS
330
C
102
}
330
C
100
AcDbDictionary
281
     1
  0
DICTIONARY
  5
1A
102
{ACAD_REACTORS
330
C
102
}
330
C
100
AcDbDictionary
281
     1
  3
Layout1
350
1E
  3
Layout2
350
26
  3
Model
350
22
  0
DICTIONARY
  5
17
102
{ACAD_REACTORS
330
C
102
}
330
C
100
AcDbDictionary
281
     1
  3
Standard
350
18
  0
DICTIONARY
  5
19
102
{ACAD_REACTORS
330
C
102
}
330
C
100
AcDbDictionary
281
     1
  0
ACDBDICTIONARYWDFLT
  5
E
102
{ACAD_REACTORS
330
C
102
}
330
C
100
AcDbDictionary
281
     1
  3
Normal
350
F
100
AcDbDictionaryWithDefault
340
F
  0
DICTIONARY
  5
47
102
{ACAD_REACTORS
330
C
102
}
330
C
100
AcDbDictionary
281
     1
  3
A0
350
48
  3
A1
350
49
  3
A2
350
4A
  3
A3
350
4B
  3
A4
350
4C
  3
A5
350
4D
  3
A6
350
4E
  3
A7
350
4F
  3
A8
350
50
  3
A9
350
51
  3
B1
350
52
  3
B2
350
53
  3
B3
350
54
  3
B4
350
55
  3
B5
350
56
  3
B6
350
57
  3
B7
350
58
  0
XRECORD
  5
6D
102
{ACAD_REACTORS
330
C
102
}
330
C
100
AcDbXrecord
280
     1
  1
DWGPROPS COOKIE
  2

  3

  4

  6

  7

  8
dgale
  9

300
=
301
=
302
=
303
=
304
=
305
=
306
=
307
=
308
=
309
=
 40
0.0
 41
2460715.053971447
 42
2460715.053999375
  1

 90
        0
  0
LAYOUT
  5
1E
102
{ACAD_REACTORS
330
1A
102
}
330
1A
100
AcDbPlotSettings
  1

  2
none_device
  4

  6

 40
0.0
 41
0.0
 42
0.0
 43
0.0
 44
0.0
 45
0.0
 46
0.0
 47
0.0
 48
0.0
 49
0.0
140
0.0
141
0.0
142
1.0
143
1.0
 70
   688
 72
     0
 73
     0
 74
     5
  7

 75
    16
147
1.0
148
0.0
149
0.0
100
AcDbLayout
  1
Layout1
 70
     1
 71
     1
 10
0.0
 20
0.0
 11
12.0
 21
9.0
 12
0.0
 22
0.0
 32
0.0
 14
1.0000000000E+20
 24
1.0000000000E+20
 34
1.0000000000E+20
 15
-1.0000000000E+20
 25
-1.0000000000E+20
 35
-1.0000000000E+20
146
0.0
 13
0.0
 23
0.0
 33
0.0
 16
1.0
 26
0.0
 36
0.0
 17
0.0
 27
1.0
 37
0.0
 76
     0
330
1B
  0
LAYOUT
  5
26
102
{ACAD_REACTORS
330
1A
102
}
330
1A
100
AcDbPlotSettings
  1

  2
none_device
  4

  6

 40
0.0
 41
0.0
 42
0.0
 43
0.0
 44
0.0
 45
0.0
 46
0.0
 47
0.0
 48
0.0
 49
0.0
140
0.0
141
0.0
142
1.0
143
1.0
 70
   688
 72
     0
 73
     0
 74
     5
  7

 75
    16
147
1.0
148
0.0
149
0.0
100
AcDbLayout
  1
Layout2
 70
     1
 71
     2
 10
0.0
 20
0.0
 11
0.0
 21
0.0
 12
0.0
 22
0.0
 32
0.0
 14
0.0
 24
0.0
 34
0.0
 15
0.0
 25
0.0
 35
0.0
146
0.0
 13
0.0
 23
0.0
 33
0.0
 16
1.0
 26
0.0
 36
0.0
 17
0.0
 27
1.0
 37
0.0
 76
     0
330
23
  0
LAYOUT
  5
22
102
{ACAD_REACTORS
330
1A
102
}
330
1A
100
AcDbPlotSettings
  1

  2
none_device
  4
ANSI_A_(11.00_x_8.50_Inches)
  6

 40
6.35
 41
19.05
 42
6.35000508
 43
19.05000254
 44
279.4
 45
215.9
 46
-132.1910427002
 47
-47.7459873991
 48
0.0
 49
0.0
140
0.0
141
0.0
142
0.3526079599
143
1.0
 70
  1696
 72
     0
 73
     0
 74
     0
  7

 75
     0
147
0.5913241897
148
-39.4088153714
149
0.0
100
AcDbLayout
  1
Model
 70
     1
 71
     0
 10
0.0
 20
0.0
 11
12.0
 21
9.0
 12
0.0
 22
0.0
 32
0.0
 14
21.2976172296
 24
3.3245512486
 34
0.0
 15
37.9998056761
 25
27.1895825478
 35
0.0
146
0.0
 13
0.0
 23
0.0
 33
0.0
 16
1.0
 26
0.0
 36
0.0
 17
0.0
 27
1.0
 37
0.0
 76
     0
330
1F
331
29
  0
MLINESTYLE
  5
18
102
{ACAD_REACTORS
330
17
102
}
330
17
100
AcDbMlineStyle
  2
Standard
 70
     0
  3

 62
   256
 51
90.0
 52
90.0
 71
     2
 49
0.5
 62
   256
  6
BYLAYER
 49
-0.5
 62
   256
  6
BYLAYER
  0
ACDBPLACEHOLDER
  5
F
102
{ACAD_REACTORS
330
E
102
}
330
E
  0
SCALE
  5
48
102
{ACAD_REACTORS
330
47
102
}
330
47
100
AcDbScale
 70
     0
300
1:1
140
1.0
141
1.0
290
     1
  0
SCALE
  5
49
102
{ACAD_REACTORS
330
47
102
}
330
47
100
AcDbScale
 70
     0
300
1/128" = 1'-0"
140
0.0078125
141
12.0
290
     0
  0
SCALE
  5
4A
102
{ACAD_REACTORS
330
47
102
}
330
47
100
AcDbScale
 70
     0
300
1/64" = 1'-0"
140
0.015625
141
12.0
290
     0
  0
SCALE
  5
4B
102
{ACAD_REACTORS
330
47
102
}
330
47
100
AcDbScale
 70
     0
300
1/32" = 1'-0"
140
0.03125
141
12.0
290
     0
  0
SCALE
  5
4C
102
{ACAD_REACTORS
330
47
102
}
330
47
100
AcDbScale
 70
     0
300
1/16" = 1'-0"
140
0.0625
141
12.0
290
     0
  0
SCALE
  5
4D
102
{ACAD_REACTORS
330
47
102
}
330
47
100
AcDbScale
 70
     0
300
3/32" = 1'-0"
140
0.09375
141
12.0
290
     0
  0
SCALE
  5
4E
102
{ACAD_REACTORS
330
47
102
}
330
47
100
AcDbScale
 70
     0
300
1/8" = 1'-0"
140
0.125
141
12.0
290
     0
  0
SCALE
  5
4F
102
{ACAD_REACTORS
330
47
102
}
330
47
100
AcDbScale
 70
     0
300
3/16" = 1'-0"
140
0.1875
141
12.0
290
     0
  0
SCALE
  5
50
102
{ACAD_REACTORS
330
47
102
}
330
47
100
AcDbScale
 70
     0
300
1/4" = 1'-0"
140
0.25
141
12.0
290
     0
  0
SCALE
  5
51
102
{ACAD_REACTORS
330
47
102
}
330
47
100
AcDbScale
 70
     0
300
3/8" = 1'-0"
140
0.375
141
12.0
290
     0
  0
SCALE
  5
52
102
{ACAD_REACTORS
330
47
102
}
330
47
100
AcDbScale
 70
     0
300
1/2" = 1'-0"
140
0.5
141
12.0
290
     0
  0
SCALE
  5
53
102
{ACAD_REACTORS
330
47
102
}
330
47
100
AcDbScale
 70
     0
300
3/4" = 1'-0"
140
0.75
141
12.0
290
     0
  0
SCALE
  5
54
102
{ACAD_REACTORS
330
47
102
}
330
47
100
AcDbScale
 70
     0
300
1" = 1'-0"
140
1.0
141
12.0
290
     0
  0
SCALE
  5
55
102
{ACAD_REACTORS
330
47
102
}
330
47
100
AcDbScale
 70
     0
300
1-1/2" = 1'-0"
140
1.5
141
12.0
290
     0
  0
SCALE
  5
56
102
{ACAD_REACTORS
330
47
102
}
330
47
100
AcDbScale
 70
     0
300
3" = 1'-0"
140
3.0
141
12.0
290
     0
  0
SCALE
  5
57
102
{ACAD_REACTORS
330
47
102
}
330
47
100
AcDbScale
 70
     0
300
6" = 1'-0"
140
6.0
141
12.0
290
     0
  0
SCALE
  5
58
102
{ACAD_REACTORS
330
47
102
}
330
47
100
AcDbScale
 70
     0
300
1'-0" = 1'-0"
140
12.0
141
12.0
290
     0
  0
ENDSEC
  0
EOF
